<svg xmlns="http://www.w3.org/2000/svg" width="5120" height="1440" viewBox="0 0 5120 1440"><defs><style>.cls-1{fill:#0288d1;}.cls-2{fill:#42a5f5;}.cls-3{fill:none;stroke:#42a5f5;stroke-miterlimit:10;}.cls-4{fill:#03a9f4;}</style></defs><g id="_4_Hills" data-name="4 Hills"><path class="cls-1" d="M5120,1440l3-886s-2,1-2,5c0,4.717-1,0-1,0l-1-.04093-12.66667,18.468L5100.5,573.5s0,12-9.5,13.5-8.5.5-15.33333-4.14085S5071.5,577.5,5062.33333,563.95907,5036.5,591.5,5028.66667,583,5013.5,573.5,4996,565s-16.5,72-22,65-18.49836,21.2709-22,24c-14,10.91128-7.83333,13.5-14,13s-14.33333-4.73239-14.33333-4.73239L4920,662l-9,9-2,10s-3.5,1.5-4,0-4.5-8.5-14.66667-12.19381S4868.5,664.5,4867.744,658.539,4866.5,648.5,4867.66667,645s-11.16667-4.5-17.33334-12-5.83333-2.5-10.66666-7.316S4832.5,619.5,4832.76136,617,4824.5,606.5,4823,603.09615s-8.5-2.59615-17.242-6.76282-1.258-5.83333-.09132-9.66469S4796.5,571.5,4793,570.24113s-13.5-8.74113-24.07031-10.26719-13.17-8.5295-13.17-8.5295S4752.5,551.5,4752.5,550.5s-8-4-9-5-12-2-12.5-1.95357-10.5-1.04643-12.66667,0-4.83333-2.04643-6.88889-3.08016-6.94444.03373-8.88888,0S4692.5,542.5,4692.5,542.5l-2-8-5,1.16667V523.5l-6,16-3-4-3.05556,4.96627S4670.5,542.5,4669.5,541.5s-2-1-2-2-3,0-5,0-2.38889.96627-2.38889.96627L4656.5,521.5s-2,22-3,21-5,1-7.38889,1.04643-2.61111,3.95357-2.66667,4.56468,0,5.70251,0,5.70251S4642.5,561.5,4641.5,561s0,2.5,0,2.5-1,6-2,6.74113a85.1841,85.1841,0,0,1-8,4.25887c-4,2-2,4-2,7s-2,2.83333-2,2.83333-4,1.16667-14.94444,8.49563S4606.5,598.5,4604.5,600.5s-6-1-11-1-6,1-10.5,3.59615-5.33333,0-5.33333,0l-2-13.34735L4571.5,597.5l-1.61111-7.7512S4565.5,604.5,4564.5,605.5s-1-3-1-3-6,10-8,11-5,4-7,5-8,0-12,1-11.5,9.27778-11.5,9.27778-11.5,4.72222-16.5,4.44444-7,2.27778-10,4.27778-8,10-11,11-7-1-12-2-10,3-11,3-12,2.83333-12,2.83333V635.5s-5,20-6,21-2,8-2,9-8,1-11,2-5,3-8,6-6,3-9,4-11,0-21-1-12-1-17,0-14,2-16,1-12,0-11-3-5-2-11-2a31.39322,31.39322,0,0,1-9-1s-12,0-19-4-4-3-5-6-3-2-10-2-8-2-11-7-5-10-5-11-7-2-10.72222-3.5S4260.5,632.5,4260.5,630.11111V626.5a93.50737,93.50737,0,0,0-12-10c-6-4-2,0-9,4s-8,2-8,0-11-4-12-4-10,3-10,3l-1-13-6.38889,11.5L4200.5,614.5l-4,7-4.5-15.38889S4189.5,620.5,4187.5,622.5s-9,2-12.5.94444-8.5.05556-9.5-.94444-9,0-9,.5-10-5.5-12-8.5-2-7-2-10-5-7-4.5-7.72222S4130.5,588.5,4122.5,583.5s-10-1-10-1-9-6-9-8-15-4-15-4l-8-3-7-2-4-6s-1-1-6-2-2-4-2-4-2-7-2-8-2-2-2-2.94444V537.5l-2-7-3,3-4-16s-5,16-6,16-2-3-3-4a21.81342,21.81342,0,0,1-4-5c-1-2-5,0-9,1s-4-4-4-4l-4-11s-3,9-3,10-4,1-5,0-7,0-8,0a44.98517,44.98517,0,0,1-8-2c-3-1-2-1-6,1s-2-3-2-3l-4,3-5-8-3,4-4-12-6,17s-2,2-4,8-3,4-4,5-9,5-9,5a109.66273,109.66273,0,0,1-8,10c-3,3-3,2-6,5s-5,3-5,4-4,5-7,8-3,5-3,7-3,7-4,10-2,5-3,6-4,3-6,6,0,2,2,4-2,7-2,7-6,1-7,2-3,1-5,2-3,4-5,7-3,5-4,6-6,4-10,7,0,4-5,7,0,11-6,17-12,1-14,0-4-1-8-2-6,2-13,2-3-1-8,1-5,6-6,7-4,2-7,13-4,3-6,4-9,2-13,4-3,0-8-1-3,0-4,0h-8l-1-1-3-9-2,3-2-7-3,13s-1,0-5,2-4,0-9,0h-18v-2l-3-9-2,4-2-8-4,10-1-2-3,6-2,1s-4,1-6,0-5-1-5,0-5,0-8,0-1-2-1-2l-3-9-2,3-3-8s-3,15-3,16-2,0-5,1-4,0-8,1-4,0-5-1-2-1-6-2-5,1-10,2-8,13-10,15,2,8,3,13-4,9-2.55556,13.5-1.44444,6.5-.44444,8.33333,0,7.16667,0,11.16667-2,2-6.48,4.5-.52,6.5-.02,11-8.5,10.5-11.33333,16.57363S3609.5,783.5,3609.5,783.5l-2-8-2,6a42.04571,42.04571,0,0,0-2,5c-1,3-3,1-8,1s-1,0-4,2-2-1-2-1l-2-14-4,15.33333V794.5c0,2-6,4-7,4s-7,2-10,3-8,0-12,0-2,2-6,4-4,0-9,0-5-1-9,2-10,1-10,1l-4-4-3,6-3-5-3,6-1-6-6,12-1.66667-1.5L3497.5,818.5l-3-12-3,15a27.39205,27.39205,0,0,1-7.51571,5c-4.51572,2-3.48429,10-7.48429,16s-18,2-21.72222,1.5S3444.5,849.5,3441.5,852.5s-13,4-16.94444,8S3410.5,859.5,3405,855s-16.5-2.5-21.5-2.5-13,4-16,6-13,1-20,0-4-2-13.5,2-13.5,2-13.5,2-8-2-8.83333-2-8.16667-1-11.16667-1h-6c-2,0-9-2-11.05556-4.5s-1.94444-1.5-5.94444-3.5-7-4-7-6-5-5-7.05556-8.5-9.94444-4.5-10.67848-5.77778S3247.5,825.5,3247.5,824.5s-7-4-7.70236-4.61111S3233.5,817.5,3232.55556,816s-8.05556-4.5-8.05556-5.5-4-3-7.81187-2.83333-3.89049-2.22223-3.89049-2.22223l-5.18733-5.11111-1.94525-5.77777-1.94525,3.33333L3201.5,790.5l-3,9s-2,1-3,0-3-1-10-4-3-3-4-5,0-6-1-6c0,0-5-3-7-4s-5,2-5,3-5-4-5-4l-3,2-5-10-2,2-1-7-4,14-4-9-4,9-2-5-3,6-4-12s-3,11-4,12-3-1-4-2-2-2-5-1-4-1-6-1-2-3-2-3l-2-8-5,8-1-16s-2,13-4,16-2-1-4-3-8-3-8-4-2-4-8-6,0-4-2-6-4-2-4-3-4-6-5-8-5-6-5.16667-6.64275S3062.5,733.5,3061.5,731.5s-4-4-5-5-3,0-6-1-2-1-2-4-5-2-9-2h-3l-6-11-3,6-4-15-3,10s-2,2-2,0-2,0-4,0-3,4-4,3-2,0-5,1-3,3-3,3l-4-11-2,7-2-15-5,27-4-4-1,8-3-15s-3,22-3,23a70.83872,70.83872,0,0,1-3.05556,12.5c-2.05555,6.5-2.94444.5-10.94444,3.5s-5,6-7,7-4,6-5,9-2,10-3,12-7,7-7,7-5,6-6,7-5,1-6,1-3,4-3,4l-5-22-3,23s0,3-2,2-3,2-4,2-4,4-4,4,0,9-1,10a81.14378,81.14378,0,0,0-6,8c-2,3,0,5-3,9s-5,4-7,6-2,3-3,8-3,3-4,4-3,0-5,0-4,1-6,1-5,4-6,5-1,5-2,7-4,1-4,1-3-12-3-13-2,14-2,14-5,2-5,3-4,3-4,4-1,6-2,7-1,4-1,4.5v3.5a27.78108,27.78108,0,0,1-3,3.83333c-1,.83334,0,3.16667,0,4.16667s-2,1-5,2-4,2-9,5-3,3-7,7-3,1-6,0-4,1-7,3-4,1-4,1l-1-11-4,8-1-4-2,3-2-10s-4,16-3.66667,15.5S2776.5,920.5,2772.5,920.5s-5,6-9,10-11,8-13,9-6,1-12,2-7,4-14,8-5,3-5,3l-2-6-2,5-3-14-3,17-2,6c-1,3-9,3-10,3s-2,4-2.66667,7.40278S2689.5,969.5,2688.5,967.5s-5,3-8.88933,5.5-1.11067,1.5-.11067,3.5-5,4-9,2.80463-6,3.19537-7,4.19537-7,2-11.33333,1.94444-4.66667-1.94444-13-.96944A38.41576,38.41576,0,0,0,2624.5,989.5s-6,4-7,4-7,1-9,1-6-1-7-2-3,0-4,0-7,2-7,2l-4-13-3,6-3-17-8,17-2-7-3,5-3-10s-3,14-3.61429,15.33333-2.38571-3.66666-2.38571-3.66666l-2,6.33333s-3,0-4-1-5-1-8-1a12.13319,12.13319,0,0,0-5,1l-3-11-3,7-3-17-6,19s-4,3-7.05556,1.08426S2507.5,989.5,2501.5,993.22222,2463,984,2463,984a54.82992,54.82992,0,0,1-21.1153,3.07893c-.04862-.00258-11.41081,3.97328-13.8847,8.92107-1,2,.27548,2.21577-1,6-.6799,2.01721-5.98083,1.33986-6,4-.01444,2.00309-5.63026,4.794-12,6l-3-8s-5,10-5.09855,10.05669c-5.58431,1.23475-9.88757,2.731-9.90145,4.94331l-5.94932,5s1.05069,2.33333,0,3.66667-4.27238,2.66666-4.16153,4S2376,1036,2376,1036s-2,3-4,4-1,3-8,5-5-1-8,3-3,8-6,10-1,3-5,5a42.60081,42.60081,0,0,1-11.38966,4c-4.61034,1-8.37376,3-10.99205,4S2317,1073,2312,1075s-7,3-8,4,0,3-2,3-8.94815,4-10.47407,5S2291,1086,2287,1090s-1,6-6,8-6,3-10,4-5.07556.66667-7.03778,1.33333A5.74214,5.74214,0,0,1,2260,1103l-1-4-1,1-2-8-6,17-3-3-7,14-1,2c-1,2,2,4-1,6s-4,2-5,4-2,4-2,5-2,5-3,5-2,1-4,3l-4,4c-2,2-2,4-3,5s-1.55556,2-3.77778,2S2212,1155,2210,1157s-1,1.55556-4,3.77778A14.9041,14.9041,0,0,1,2197,1164c-3,0-3-1-4-1h-6a7.46712,7.46712,0,0,1-3,3c-2,1-4,3-5,3s-5,4-5,4a3.0971,3.0971,0,0,0-2,1,21.81342,21.81342,0,0,1-5,4c-2,1-4,4-4,6s4,.55556,0,3.77778S2158,1190,2154,1191s-5.66667,2.5463-6.33333,3.77315S2146,1196,2146,1197s.22222.94815-1.88889,1.97407-3.88889,2.7963-5,3.41112A15.08252,15.08252,0,0,0,2136,1205c-1,1-.77778.11111-3.88889,2.55556S2127,1210,2123,1210s-2-1-12,0-10.22222-.487-14.11111,1.75648S2091,1214,2091,1215s5,0,1,1-6,1-8,2-8,1-9,2-2,0-6,3-2,3-5,4-11,5-14,6-7,4-10,5-4,4-6,4-1-2-8,1-7,3.88889-10,4.44444,1-.44444-5,2.55556-3,3-8,5-4,2-5,2-9-2-13,0,0,1-4,2-3,1-6,2a12.68342,12.68342,0,0,1-6,1h-6.88889C1961,1262,1961,1260,1955,1263l-6,3a7.55924,7.55924,0,0,1-4,1c-1,0-9.5-9.5-9.5-9.5v8.61111L1930,1261l-3,6s-19,7.76345-25,8.88172-8.33333,1.19684-11.66667,3.15756S1885,1284.40385,1881,1285.70192,1867.33333,1291,1863.66667,1292,1858,1292,1847,1296.5s-16,6.5-20,12.5-3.33333,7-8.66667,10.5S1818,1321.91951,1805,1326.95976s-11.66667,2.18-16.33333,11.11014S1793,1345.47025,1783,1354.73513,1767,1368,1762,1370s-8,1.91085-13,6.95542S1743,1386,1737,1392s-8,9-15,13-21.77151,4.33333-24.38576,7.66667-8.168,11-8.39114,13.66666,0,13.66667,0,13.66667H5120"/><path class="cls-2" d="M1117,477a24,24,0,0,0-48,0c0,13.25483,15,30,24,30C1100,507,1117,490.25483,1117,477Z"/><path class="cls-2" d="M1090,514h6a0,0,0,0,1,0,0v5.39583a.60417.60417,0,0,1-.60417.60417h-4.79167a.60417.60417,0,0,1-.60417-.60417V514A0,0,0,0,1,1090,514Z"/><polyline class="cls-3" points="1086.5 500.5 1090.5 515.5 1095.5 515.5 1098.5 500.5"/><rect class="cls-1" x="3741" y="661.4" width="28" height="25.6"/><circle class="cls-1" cx="3755" cy="661" r="14"/><path class="cls-1" d="M3740.73892,651.90913,3746,655.61387,3744.05249,658l-5.45635-3.21826a1.11365,1.11365,0,0,1-.35493-1.67588l.78071-.98951A1.24688,1.24688,0,0,1,3740.73892,651.90913Z"/><path class="cls-1" d="M3765,675h8.58333A2.41667,2.41667,0,0,1,3776,677.41667V683a0,0,0,0,1,0,0h-11a0,0,0,0,1,0,0v-8A0,0,0,0,1,3765,675Z"/></g><g id="_4_Hills_accent" data-name="4 Hills accent"><path class="cls-4" d="M2702,973l3,3,3.5-1.5s-1.5-3.5-.5-5.5a18.65783,18.65783,0,0,1,3-4Z"/><path class="cls-4" d="M2828,914s2-4,3-4,1-2,6-3l5-1-8.33333,4Z"/><path class="cls-4" d="M2631,994.20408l3-3s4-3,5-2S2644.5,989,2644.5,989h-10Z"/><path class="cls-4" d="M2732,954s3,0,3.5-1,3.5-3,4.5-3-2.5,4-2.5,4Z"/><polygon class="cls-4" points="2994 736 2997 726 2995.5 734.25 2994 736"/><polyline class="cls-4" points="2999.167 743.208 2997.667 744.958 3000.667 734.958"/><polyline class="cls-4" points="3019.167 722.208 3017.667 723.958 3020.667 713.958"/><path class="cls-4" d="M4677,560l-1,3-3,2-2,6s-1,3-2,3-5,3-5,5,0,6-1,7-3,3-3,5,1,2,1,3a7.55924,7.55924,0,0,1-1,4,32.08151,32.08151,0,0,1-3,5c-2,3,0,2-3,5a23.0849,23.0849,0,0,1-7,5c-2,1-9,3-12,3s-4,1-6,1-7,1-12,2-5-1-8,4-2,6-4,8,.16667,1.5-3.91667,3.75S4596,638,4596,637s2-6,3-6,6-2,6-3-3,0-1-3,5-3,5-5-2-2,0-3a19.96838,19.96838,0,0,1,9-2c4,0,3,0,7-1s2-1,7-1h8a5.19535,5.19535,0,0,0,4-2c1-1,3,0,2-2s-2-3-1-3a12.31955,12.31955,0,0,0,7-2c3-2,4-1,4-2s-1-1,0-3a9.0151,9.0151,0,0,0,1-5c0-2,1-2,1-3s-4-1-1-3,3-2,4-3a4.93754,4.93754,0,0,0,1-3s-3-2-1-4,6-3,6-4,1-2,2-4,2-2,2-3a8.314,8.314,0,0,1,1.25-4.04167C4673,562,4676,563,4676,562A3.49137,3.49137,0,0,1,4677,560Z"/><path class="cls-4" d="M3204,810c0,1,4,7,4,7h3.44444C3213,817,3219,819,3220,820s2,3,8,6,11,2,12,4,1,1,3,6,5,5,2,11-2,9-1,11,6,2,6,3,1,2,1,6,2,5,4,6,4,3,5,3,3-2,1-3-2-4-4-6l-3-3c-1-1,6,4,0-2l-7-7c-3-3-2-5-1-5a2.15078,2.15078,0,0,0,2-2,10.07287,10.07287,0,0,1,1-3,3.49137,3.49137,0,0,1-1-2c0-1-1-2,0-2s-3,0-2-2,0-1,1-3,2-4,3-4-3-2-5-2h-4s-2-1-2-2-2-2-3-2h-4c-1,0-6-1-6-2a10.07287,10.07287,0,0,0-1-3s10-2,6-2a77.21273,77.21273,0,0,1-10-1h-1c-2,0-4,1-4,0s0-3-3-3h-5s1,0-1-2Z"/><polygon class="cls-4" points="3126.667 795.708 3129.667 785.708 3128.167 793.958 3126.667 795.708"/><polyline class="cls-4" points="3152.317 782.717 3151.217 784 3153.417 776.667"/><polyline class="cls-4" points="3141.833 788.917 3140.333 790.667 3143.333 780.667"/><path class="cls-4" d="M2928,816c3.00521-1.71726,9.87427-3.43453,10.30359-3.43453a3.72906,3.72906,0,0,0,2.31248-.17577c.20876-.06837.43873-.15194.69273-.25355,2.14658-.85863,3.00521-1.71726,3.86385-1.28794s3.29142,2.891,1.00173,2.5188a28.891,28.891,0,0,0-8.60929,0C2935.72769,813.85342,2928,816,2928,816Z"/><path class="cls-4" d="M3643,721v13.66667C3643,737,3642,742,3642,744s1,6.55556,1,9.77778S3641,761,3638,762s-4,2-3,4-3,6-5,10-4,4-2,4,5-7,8-9-2,2,4-3,9-5,9-5v6.55556L3654,766s-1-4,4-3,8,1,8,0-3-4-8-5a55.64061,55.64061,0,0,0-7.73628-1.11111S3650,761,3649,756s-3.82843-4.88889-2.41421-8.44444S3651,745,3648,738s-5-4-4-9,3.17157-5,2.58579-8S3642,716,3642,715a10.55847,10.55847,0,0,0-2-5C3639,709,3640,718,3643,721Z"/><polygon class="cls-4" points="3494.292 831.576 3497.292 821.576 3495.792 829.826 3494.292 831.576"/><polyline class="cls-4" points="3509.458 824.785 3507.958 826.535 3510.958 816.535"/><polygon class="cls-4" points="3678.625 696.465 3681.625 686.465 3680.125 694.715 3678.625 696.465"/><polyline class="cls-4" points="3717.275 687.474 3716.175 688.757 3718.375 681.424"/><polyline class="cls-4" points="3710.792 694.674 3709.292 696.424 3712.292 686.424"/><polygon class="cls-4" points="3758.125 694.465 3761.125 684.465 3759.625 692.715 3758.125 694.465"/><polyline class="cls-4" points="3770.775 689.474 3769.675 690.757 3771.875 683.424"/><polyline class="cls-4" points="3811.292 681.674 3809.792 683.424 3812.792 673.424"/><polyline class="cls-4" points="3754 693.328 3752.9 694.611 3755.1 687.278"/><path class="cls-4" d="M3889,636c-5.65685,2.82843,10,1,11.5-1s2.5-6,3.5-8,3-7,4-7,3-1,5-3,4-5,9-4,13-2,14-3,1.83333,2.80137,1.83333,2.80137L3942,609s-12-3-15-3-5,3-7,3-2,3-5,4a21.46143,21.46143,0,0,0-7,4,21.85891,21.85891,0,0,0-3,5c-1,2-5,2-6,4s0,3,0,4-2,2-3,2S3891,635,3889,636Z"/><polygon class="cls-4" points="3967 525 3961 541 3965 537 3967 525"/><polyline class="cls-4" points="3965.942 548.967 3964.842 550.25 3967.042 542.917"/><polyline class="cls-4" points="3959.458 556.167 3957.958 557.917 3960.958 547.917"/><path class="cls-4" d="M4989,598c1,2,5,4,4,6s2,6,4,7-2,4-1,7,2,6,2,7,9,3,10,5,3,4,3,6-2-1-3-3-2-1-4-2-4-2-6-2-4-3-4-5,1-2,0-5a13.38216,13.38216,0,0,1-1-5c0-1-5-6-5-4s-1,5-2,8a17.50211,17.50211,0,0,0-1,5s-4-7-3-7,3-3,4-6-1-3,1-6A11.91261,11.91261,0,0,0,4989,598Z"/><rect class="cls-4" x="3752" y="660" width="15" height="2"/><rect class="cls-4" x="3745" y="680" width="1" height="3"/></g></svg>