<svg xmlns="http://www.w3.org/2000/svg" width="5120" height="1440" viewBox="0 0 5120 1440"><defs><style>.cls-1{fill:#01579b;}.cls-2{fill:#1565c0;}.cls-3,.cls-4,.cls-5{fill:none;stroke:#1565c0;stroke-miterlimit:10;}.cls-3{stroke-width:16px;}.cls-4{stroke-linecap:round;stroke-width:13px;}.cls-5{stroke-width:9px;}</style></defs><g id="Motherboard"><path class="cls-1" d="M3826,1045H3714.33333L3666,1061v26.66667H3497L3456,1098v288h-16.33333V1230.33333H3290V1393h-46V1273H2948v92H2609v-13.33333H2500V1263H2145v130h-80V1278l-37-22h-82v122.33333h-32V1277l-104-23h-80v63H1594v13.33333h-74V1393H1401V1189h-69v-24h-76v20h-22V1064.33333h-60V1043l-32-19h-48v40.33333H972V1205H796v-44.66667L758,1150H721v188.33333H624V1297H541v71H456v-85.66667L414,1260H334v126.33333H306V1280l-104-26H118v65.66667H0V1440H5120v-73.66667h-76S5050,1329,5044,1329H4932s4,33,0,33h-59V1248.5H4754.33333L4678,1261v-91.95333h-43.66667L4613,1181.5V1221l-57,15v-31h-46v159h-28v-27h-82v31h-64v-60H4206l-22,4v57h-99v-89h-36v92h-45v-51H3824Z"/></g><g id="MB_Accents" data-name="MB Accents"><path class="cls-2" d="M3095,1299.5h63s19-1.16667,17,14.83333-8,45-8,45-4,10.77778-16,11.38889-56,0-56,0"/><path class="cls-2" d="M3095,1299.5h-63s-19-1.16667-17,14.83333,8,45,8,45,4,10.77778,16,11.38889,56,0,56,0"/><rect class="cls-2" x="3313" y="1252" width="108" height="17"/><rect class="cls-2" x="3313" y="1326" width="108" height="17"/><circle class="cls-3" cx="3772" cy="1102" r="19"/><rect class="cls-2" x="3523" y="1149" width="122" height="74"/><rect class="cls-2" x="3555" y="1131" width="59" height="18"/><rect class="cls-2" x="3562" y="1121" width="45" height="10"/><rect class="cls-2" x="2124.5" y="1320.5" width="108" height="17" transform="translate(849.5 3507.5) rotate(-90)"/><line class="cls-4" x1="2244.5" y1="1303.5" x2="2244.5" y2="1355.5"/><path class="cls-2" d="M2351.5,1287.71315V1309.373a1.81405,1.81405,0,0,0,1.81406,1.814h8.8752a2.13494,2.13494,0,0,1,1.15979.34251l13.74408,8.89322a2.13483,2.13483,0,0,0,1.15979.34251h75.12463l15.22269-7.61135a2.135,2.135,0,0,1,.95476-.22539h8.13094a1.81406,1.81406,0,0,0,1.81406-1.81406v-23.40136a2.21315,2.21315,0,0,0-2.21315-2.21315h-123.5737A2.21315,2.21315,0,0,0,2351.5,1287.71315Z"/><rect class="cls-2" x="1917.5" y="1318.5" width="108" height="17" transform="translate(644.5 3298.5) rotate(-90)"/><line class="cls-4" x1="1798.50002" y1="1280.5" x2="1746.50002" y2="1280.49998"/><polyline class="cls-2" points="1557.278 1348.5 1679.5 1348.5 1679.5 1380.5 1546.5 1380.5 1546.5 1357.944"/><path class="cls-2" d="M1033.32673,1104.23762V1098S1009,1104.86139,1009,1127.94059c0,14.34654,2.495,13.72278,2.495,13.72278h7.69307v11.64356s4.15842,6.44555,20.37624,6.44555,19.33663-5.61387,19.33663-5.61387v-11.22772h8.10891s4.9901-7.48515,4.9901-16.21782S1060.35644,1098,1049.33663,1098v6.23762Z"/><rect class="cls-1" x="1031.14356" y="1112.65842" width="20.58416" height="13.72277" transform="translate(-78.08416 2160.95545) rotate(-90)"/><circle class="cls-1" cx="1025.21782" cy="1113.59406" r="3.74257"/><circle class="cls-1" cx="1020.22772" cy="1130.43564" r="3.74257"/><circle class="cls-1" cx="1032.70297" cy="1147.27723" r="3.74257"/><circle class="cls-1" cx="1055.78218" cy="1112.9703" r="3.74257"/><circle class="cls-1" cx="1060.77228" cy="1129.81188" r="3.74257"/><circle class="cls-1" cx="1048.29703" cy="1146.65347" r="3.74257"/><rect class="cls-2" x="4794.47253" y="1262" width="60.52747" height="9.52747"/><rect class="cls-2" x="4794.47253" y="1303.47253" width="60.52747" height="9.52747"/><line class="cls-4" x1="1115" y1="1044.5" x2="1115" y2="1044.5"/><circle class="cls-5" cx="863.09689" cy="1249.58432" r="16.06708"/><circle class="cls-5" cx="803.26088" cy="1249.58432" r="16.06708"/><line class="cls-4" x1="596.99999" y1="1317.41346" x2="561.49999" y2="1317.41345"/><path class="cls-2" d="M186.46757,1327.10576v44.73185s.82837,13.49056-10.53211,12.0705-31.95132-5.68023-31.95132-5.68023-7.65254-2.84012-8.08645-11.36047,0-39.76165,0-39.76165"/><path class="cls-2" d="M186.46757,1327.10576V1282.3739s.82837-13.49056-10.53211-12.0705-31.95132,5.68024-31.95132,5.68024-7.65254,2.84012-8.08645,11.36047,0,39.76165,0,39.76165"/><circle class="cls-1" cx="174.39707" cy="1294.08939" r="4.26018"/><circle class="cls-1" cx="174.39707" cy="1310.42007" r="4.26018"/><circle class="cls-1" cx="174.39707" cy="1326.75074" r="4.26018"/><circle class="cls-1" cx="174.39707" cy="1343.08142" r="4.26018"/><circle class="cls-1" cx="174.39707" cy="1359.4121" r="4.26018"/><circle class="cls-1" cx="160.19648" cy="1301.18968" r="4.26018"/><circle class="cls-1" cx="160.19648" cy="1317.52036" r="4.26018"/><circle class="cls-1" cx="160.19648" cy="1333.85104" r="4.26018"/><circle class="cls-1" cx="160.19648" cy="1350.18171" r="4.26018"/><circle class="cls-1" cx="160.19648" cy="1366.51239" r="4.26018"/><circle class="cls-1" cx="148.12598" cy="1294.08939" r="4.26018"/><circle class="cls-1" cx="148.12598" cy="1310.42007" r="4.26018"/><circle class="cls-1" cx="148.12598" cy="1326.75074" r="4.26018"/><circle class="cls-1" cx="148.12598" cy="1343.08142" r="4.26018"/><circle class="cls-1" cx="148.12598" cy="1359.4121" r="4.26018"/><path class="cls-2" d="M1120.4934,1105.36139v-6.23763s-24.32673,6.86139-24.32673,29.9406c0,14.34653,2.495,13.72277,2.495,13.72277h7.69307v11.64356s4.15841,6.44555,20.37623,6.44555,19.33664-5.61386,19.33664-5.61386v-11.22773h8.10891s4.9901-7.48515,4.9901-16.21782-11.64357-28.69307-22.66337-28.69307v6.23763Z"/><rect class="cls-1" x="1118.31023" y="1113.78218" width="20.58416" height="13.72277" transform="translate(7.95875 2249.24587) rotate(-90)"/><circle class="cls-1" cx="1112.38449" cy="1114.71782" r="3.74257"/><circle class="cls-1" cx="1107.39439" cy="1131.55941" r="3.74257"/><circle class="cls-1" cx="1119.86964" cy="1148.40099" r="3.74257"/><circle class="cls-1" cx="1142.94884" cy="1114.09406" r="3.74257"/><circle class="cls-1" cx="1147.93894" cy="1130.93564" r="3.74257"/><circle class="cls-1" cx="1135.4637" cy="1147.77723" r="3.74257"/></g></svg>