<svg xmlns="http://www.w3.org/2000/svg" xmlns:xlink="http://www.w3.org/1999/xlink" width="5120" height="1440" viewBox="0 0 5120 1440"><defs><style>.cls-1{fill:#a3dcf9;}.cls-2,.cls-3,.cls-5{opacity:0.5;}.cls-2{fill:url(#linear-gradient);}.cls-3,.cls-6{fill:#fff;}.cls-4{fill:#42a5f5;}.cls-5{fill:url(#linear-gradient-2);}</style><linearGradient id="linear-gradient" x1="3191.33333" y1="278" x2="3670.08611" y2="278" gradientUnits="userSpaceOnUse"><stop offset="0" stop-color="#fff" stop-opacity="0"/><stop offset="0.2449" stop-color="#fff" stop-opacity="0.01117"/><stop offset="0.41728" stop-color="#fff" stop-opacity="0.04713"/><stop offset="0.56744" stop-color="#fff" stop-opacity="0.10815"/><stop offset="0.70484" stop-color="#fff" stop-opacity="0.19431"/><stop offset="0.83357" stop-color="#fff" stop-opacity="0.30573"/><stop offset="0.95425" stop-color="#fff" stop-opacity="0.44057"/><stop offset="1" stop-color="#fff" stop-opacity="0.5"/></linearGradient><linearGradient id="linear-gradient-2" x1="3204.99675" y1="276.41667" x2="3683.08181" y2="276.41667" xlink:href="#linear-gradient"/></defs><g id="_8_sky" data-name="8 sky"><rect class="cls-1" width="5120" height="1440"/></g><g id="sky_2" data-name="sky 2"><path class="cls-2" d="M3665,194s-2,3-15,6-242,81-277,93-167,69-167,69l-17-37s145-30,179-39,277-86,279-87,14-4.11111,20-4.55556C3667,194.44444,3656,194,3665,194Z"/><path class="cls-3" d="M2328,609h367s8,0,5-2-11-3-11-4-5-1-9-2-11-1-17-3-20-3-25-2-5,1-11,2-9-5-14,0c0,0-7-13-14-13s-16,2-21,3-15-1-20-1-14-1-18,1-7,3-11,3-25-5-29-5-3.11111-1-10.55556-1S2481,586,2478,587s-5,3-9,4-4,3-10,4-26-1-29-2-5-2-10-2-8-2-13-1a31.00323,31.00323,0,0,0-7,2c-3,1-8,4-9,4s-4,7-14,7-16-1-24-1-13,0-17,1-2,1.33333-8,1.66667S2315,606,2317,607,2321,609,2328,609Z"/><path class="cls-3" d="M2849,760.42959s1.30381,7.07166,26.07627,8.64314,67.79832,1.57148,67.79832,1.57148-4.34605,4.649,19.99181,5.46743,112.128,1.53874,136.03123-3.92869c0,0,76.925,1.53874,112.99719,0s222.51755,2.32448,230.34043-3.9287c0,0,44.32967.81848,56.064-3.11022s-18.25339-7.8574-23.46865-7.8574-28.6839-6.28592-43.02585-5.50018-42.15665-2.49316-49.11032-.068c0,0-14.77655-2.67372-26.51088-.91,0,0-2.60763-4.52221-10.43051-3.73647,0,0-11.73432-10.072-35.203-7.07165,0,0-22.16483-14.00036-84.74789-5.50018,0,0-10.43051-9.50018-79.53264-9.50018,0,0-87.35552,7-88.65933,18.929,0,0-74.31739-7.929-73.01357,5.50018,0,0-87.35552.78574-83.44408,6.28592C2901.15255,755.71515,2851.60763,753.35793,2849,760.42959Z"/><path class="cls-3" d="M4062.77636,523.3854s38.77617,8.02572,55.771,7.30726,47.58013-4.72094,58.69654-1.45706,42.35591-5.194,53.4404-27.892c0,0,13.41592-48.446-47.13267-40.38469,0,0,30.73267-2.86049,15.88492,33.699,0,0-3.2577-11.11125-25.64721-13.13857,0,0-5.50046-14.04191-32.672-13.11627,0,0-51.64209-3.04808-51.50941,20.416,0,0-43.63711-4.20094-43.8354,10.45361,0,0-39.83974,2.39054-30.02855,15.33944C4022.17114,523.09464,4062.77636,523.3854,4062.77636,523.3854Z"/><path class="cls-3" d="M1246,387s27,11,45,8c0,0,96,4,124,2,0,0,40-2,56-2s48-2,53-5c0,0,12.77778-3,17.88889-3S1578,387,1557,384s-21-1-28-2-22-2-27-3-11-5-20-6-11,1-18-1-22-6-28-6-8,2-13,0c-11.08474-4.4339-26-11-35-10s-13,2-13,5,3.17157,4,6,4c2,0,1.75224-1.02772,2.83606-1.166a2.37051,2.37051,0,0,1,2.10314,3.8531C1385.3433,368.43611,1385,369,1384,369a18.53947,18.53947,0,0,1-7-2c-2-1-10-2-12-2s-10-1-18,2-8,6-16,7-12-1-23,0-17,1-21,3-6,7-16,7S1243,384,1246,387Z"/><path class="cls-3" d="M504,538s71,1,84-2-14-6-20-6-14-4-23-4-9-18-53-18c0,0-9.77778-6.25-20-2,0,0-14-12-33-12s-44.81062,6.85575-58,14c-24,13-37,9-37,9s-10,2-14,8c0,0-7,0-12,2,0,0-16,0-24,5s-33,4-33,4-9,1,2,3c12,0,82.66667,2,94.33333,0S408,536,416,538,492,538,504,538Z"/><path class="cls-3" d="M288,567s-9,1-9,6,2,7.33333,4.5,7.16667S289,579,292,579s8,1.35,12.5,1.175,10.16667.2063,14.83333.01566,13.33334.30042,14.5.05489S352,580,327,576c0,0-1-5-12-4,0,0-4-3-11,0C304,572,303,565,288,567Z"/><path class="cls-3" d="M4602.72528,579.92113s9,1,9,6-2,7.33333-4.5,7.16667-5.5-1.16667-8.5-1.16667-8,1.35-12.5,1.175-10.16667.2063-14.83333.01565-13.33334.30042-14.5.05489-18.16667-.24554,6.83333-4.24554c0,0,1-5,12-4,0,0,4-3,11,0C4586.72528,584.92113,4587.72528,577.92113,4602.72528,579.92113Z"/><path class="cls-4" d="M3644.5,195.5l-6-2,2-1,4.5.5-5-9,1.75-.77778L3652,190h7s10-2,10-3-8-4-8-4l-3-4h1l4,3,11,3,24-7s8-2,10-1c0,0,4,0,4,1s-3,4-6,5-18,5-18,5,1,0,1,3l-6.5,1.5h-1l-1-1-8,2s-10,3-17,3h-10.3125l-.6875-1"/><path class="cls-5" d="M3680,193s-3.33333,2.83333-16.33333,5.83333-242,81-277,93-167,69-167,69l-17-37s145-30,179-39,277-86,279-87S3673,192.44444,3679,192A.97939.97939,0,0,1,3680,193Z"/></g><g id="_7_Sun" data-name="7 Sun"><circle class="cls-6" cx="2129" cy="414" r="103"/></g></svg>