<svg xmlns="http://www.w3.org/2000/svg" width="5120" height="1440" viewBox="0 0 5120 1440"><defs><style>.cls-1{fill:#03a9f4;}.cls-2{fill:#42a5f5;}.cls-3{fill:#0288d1;opacity:0.5;}</style></defs><g id="_5_Hills_b" data-name="5 Hills b"><path class="cls-1" d="M3041,1440H0L-1.25,670.26554s11.6458-8.98446,15.8229-10,12.43911-9.99438,14.30811-12.505,10.70413-20.05688,11.28656-22.28373,9.4695-1.22685,13.026-4.22685,11.49788-11.33333,13.52717-12.66667,34.39114,6,34.39114,6,1.88782,1.05556,6.513-.88889S123.25,610.75,123.25,610.75l6,2,16.00388,18.83333,2.44237,4.88889L155.75,646.25l13.50514-8.33333L175.25,608.75l3,19,4-6,4,14h-3l-1,5h7l3,2,5.5-9.5s4.5-5.5,5.5-4.5,13.5,2.25777,13.5,2.25777,7.16667-.74223,9.33333,0,10.16667-.74223,11.66667,0,8.5,1.74223,9.5,1.74223,4.66667.51554,5.83333-1.74223S258.25,626.75,258.25,626.75s6,9,8,9,15,2,17,1,8-1,12-3,7-3,11-1,16,4,17,4,10-2,15-2a10.42721,10.42721,0,0,0,7.83333-3.74223V619.25s-5.83333-2.5-4.83333-3.5,4.83333-6.16667,4.83333-6.16667a4.55085,4.55085,0,0,0,0-3.66666A66.13174,66.13174,0,0,1,344.25,597.75s4-6,7-4,9,5,9,5l16.3811,5.5,9.6189-2.5,2-5,6-3s9.66667-3,10.83333-2,6.16667,1,7.16667,2,1,0,4-1a14.09265,14.09265,0,0,0,5-3l11-27,4,9,10-22,4,20h-4v6l2,4s3,2,4,2,7-1,7-1l5,2v-5.16667a32.16913,32.16913,0,0,0,4-2.83333c1-1,6-10,6-10l5-23,4,22,8,1s2-4,3-3,8,4,9,5,7-2,14-5,9-7,9-7l9-6,5-25,4,17,4-10,6,14,6.16667-21,4.83333,11s6-1,7-2-6-3,3-2,19,2,19,2,7-5,9-6,14.66667-1,15.83333-3,11.16667-1,14.16667-3,4-3,6-3,16-4,16-4l9-8s1,10,2,9,10-21,10-21l4,20,7-8,6,7,5-5,9,14,7-6,3,6,6-1,3,7s14,1,15,2,12,3,12,3a11.91261,11.91261,0,0,0,2,6c2,3,8,1,15,5s19,9,19,11,13,10,13,10,23,13,27,19,25,21,37,30,29,26,31,31,.66667,23.03108,9.83333,26.51554L911.25,658.75l1,9,2-2,4,15h7.02911l.97089,4s20,1.66667,21,1.33333,8,.66667,8,.66667l6,3s4,3,5,3,13,8,13.5,8,3.83333,1,7.16667,1.5,8.66666-1.5,9.5,0,5.83333,3.5,7.83333,4.5,6,1,7.5,2,7.5-1,9.5,1,6,3,7,5,5,8,6,8,6,5,7.5,11.5h34.33333s-.5-6.5,4.83334-9.5,16.33333-10,19.33333-14,4-11,8-13,5-3,9-4,12-3,14-4,14-2,18-6,8-11,9-12a55.46887,55.46887,0,0,0,6-8c1-2,6-33,6-33l3,13,5-31,3,21h-2l1,4s4,2,6,1,7-1,7-3,2-7,3-8,8-3,11-4,10-1,10-1l4-21,6,30,4-3,6,2s6,3,7,4,4,2,8,3,10,6,10,7,11,6,14,6,8.33333,4,8.16667,5.5,10.83333,7.5,11.83333,8.5,11,5,12,7,5,9,6,10,14,3,19,5,6-1,9,3,10,9,11,10,1-7,8-11,20-5,27-7,7-4,7-4l6-17,3,8,5-17,2,7h2c2,0,3-1,5-2s3,0,5-1,5-2,5-3,4-16,4-16l1,10s-1-1,4-3,5-2,8-2a8.45356,8.45356,0,0,0,6-2,7.68835,7.68835,0,0,1,3-2c2-1,4-2,5-2s8-3,8-3l3-16,3,15,3-7,5,10s0,2,4,2,5,0,7,2,4,5,5,6,6,8,7,9,6,4,6,6,4,5,4,7,3,4,5,6,7,1,12,5-3,3,8,8,17,3,24,3,24-5,25-7-1-1,3-5,2-7,11-8,10-4,10-4l4-21,4,14h-2s2,5,2,5.5,2,2.5,5-.5,5-4,6-6,5-4,9-7,8-4,9-5a17.05766,17.05766,0,0,1,11-6c7-1,20-1,21-6s9-30,9-30l2.66667,11.25,3.33333-5.25,5,8,7-14,3,8,4-5,4,14,8-16,2,17s1,3,4,0,4-3,7-3a22.01848,22.01848,0,0,1,8,1c3,1,5,2,7,0s4,3,4,3l3-14,2,11,3-9,2.5,4.25,2.5-3.25,3,12,4-4s1-1,6-1,5-2,9,0,7,4,8,2-1-5,3-3,9,3,9,4,3,2,2,5,1,4,2,5,7,3,8,4,4,4,4,5,3,5,4,6,10,3,11,5a14.45292,14.45292,0,0,0,9,8c6,2,12-1,13,3s0,6,4,8,17,8,17,8,5,6,6,10,8,10,13,11,15,3,15,7,3,7,10,9,16,3,15,6-8,3,1,8,15,4,23,10,17,10,21,13,1,9,1,10,3,11,3,12-2,1-1,4a37.11072,37.11072,0,0,1,2,9c0,2,4,4,6,6s10,4,12,1,5-3,7-3,7,2,7,2l8-24,5,17,3-8,5.33333,17.52982A10.033,10.033,0,0,0,2058.25,794.75c4-2,8-4,11-3a117.31087,117.31087,0,0,1,11,5c2,1,10,3,13,2s5,0,14,3,14,4,16,6,27,8,24,12-5,13-3,15,4,7,11,8,11.66667,1,15.83333,0,23.5,0,25.33334,0,17.83333-2,19.83333,5,7,5,5,12,8,21,12,25,5,14,15,18,20,4,27,10,14,17,22,23a38.64479,38.64479,0,0,0,17,7l7-19,5,17,4-5,3.16667,7s6.5,2,8.66666,0,6.16667-2,7.16667-1,9.33333.77778,10.16667,1.88889,4.16666.88889,7,0S2377.25,945.75,2377.25,945.75l4-13,4.83333,13s-4.5-2-2.66666-1a48.48516,48.48516,0,0,1,6.83333,5c1,1,4,7,6,11s3,19,2,22,6,13,9,15l3-4,2,6,2-2,1.5,8.5a6.312,6.312,0,0,0,3,2c2.05556.68426,19.37937-3.10478,20.5-3.01389a54.86715,54.86715,0,0,0,22.5-2.98611s32.5,12.94444,38.5,9.22222c0,0,5.75,5.52778,8.75,4.52778s8.77778-7,8.88889-3,9.77778,9,9.77778,9h6.66666c2.66667,0,6.44445-3,11.55556,0s12.61111,7.44444,12.61111,7.44444,3.72222,3.27593,5.61111,3.91575,6.44445,1.14117,10.66667,3.89049,7.77778,6.10951,8,8.42941a18.90436,18.90436,0,0,0,3.55555,8.42941c1.66667,1.8905,12.44445,3.159,15.55556,2.02476s5.55555,3.08475,5.33333-2.02476,8.44445-6.48416,8.44445-6.48416a20.7375,20.7375,0,0,1-.88889,5.27744c-.77778,2.09722-1.11111,3.24352-.44445,5.17037s10.66667,3.475,13.16667,4.20092a44.70219,44.70219,0,0,0,7.5.96945l8.90509-8.90509L2644,1061l2-2v7l8,2s6,1,7,2,1,2,2,2h3c2,0,3-1,6,0s4,1,6,3,5,3,6,4,8,2,8,1,5-3,6-3,7,1,8,2l3,3,3-9,1,11,2-3,1,4,5-6v6s2,3,4,2a5.39649,5.39649,0,0,1,5.5,0,12.3485,12.3485,0,0,1,2.58984,2.09537C2734,1090,2735,1090,2736,1091s4.33333,2.59259,6.16667,2.2963,3.16666,1.57037,5,2.637,5.16666,3,7.5,2.53334,4.33333,1.74074,4.33333,2.637,1,.23149,4,1.56389,6.33333,1.54537,7.66667,1.93889,4,.94167,5.16666,1.66759,1.83334.34074,2.5,2.53334a3.50755,3.50755,0,0,0,4.16667,2.637c1.5-.44444,6.16667.55556,6.16667.55556s3.94629.01667,3.63981,1.00833.69352,1.28241,2.19352,2.637-.5-1.47685,4,1.93889,4.83333,2.30463,5.16667,3.86018,1.50555,2.55556.91944,5.55556-4.475,2.313.96945,4.15648,13.24907,3.54074,13.24907,3.54074,5.5287.95648,6.862,1.62963,6.66666,2.40834,9,3.54074,9.287,3.06574,9.81018,2.59908,12.91389-1.85371,14.21852-.66019S2861,1143.07593,2862,1145.038s3,4.962,5.5,4.962,8.83333-1,9.66667,0,5.66666,3,5.66666,3A13.93374,13.93374,0,0,1,2886,1155c1,1,10.5,2.97778,10.5,2.97778a8.725,8.725,0,0,0,2.5,4.20092,31.18943,31.18943,0,0,0,7,4.51019c1,.31111,7-.37222,8.5.96944s8.5,3.1213,10,3.23148,8.5.68612,11.5-1.60185,6.33333-5.05277,9.16667-5.17037,5.83333,3.58056,7.33333,3.23148,4.64907-8.71388,6.07454-10.03148S2969,1154,2972.5,1151.5s1.96038-5.5,4.23019-3.5,10.93648,5.63519,8.60314,9.31759-7.66666,7.1213-7.5,8.40185S2982,1168,2982,1170s1.66667,3.05926,3.83333,7.02963S2988,1180,2991,1184s7,4,7,6-2,.02037,2,3.51019,14.8525,14.54166,14.8525,14.54166c8.1475,4.94815,10.92528,5.66667,11.03639,7.80741s1-1.16277-.44445,6.489S3029,1237.48333,3033,1240.74167,3041.88889,1246,3041.44444,1248,3042,1263,3041,1264s.44444,4,.44444,4v172"/></g><g id="Hills_b_accent" data-name="Hills b accent"><path class="cls-2" d="M2381.25212,953.57856s3.03242,13.64588,6.06484,15.16209S2388.83317,993,2388.83317,993s-3-7.58105-4.51621-9.09726,1.51621-13.64588-1.51621-15.16209-1.54863-15.16209-1.54863-15.16209"/><polygon class="cls-2" points="2268.962 930.579 2263.962 916.579 2266.962 928.579 2268.962 930.579"/><polygon class="cls-2" points="2258.962 917.579 2260.962 922.579 2259.962 921.579 2258.962 917.579"/><polygon class="cls-2" points="2251.962 913.579 2255.129 922.579 2253.962 921.579 2251.962 913.579"/><path class="cls-2" d="M2210.96222,860.57856A79.70927,79.70927,0,0,1,2204,856c-1-1-4.03778,2.57856-4.03778,2.57856s1,0,1,2,1,11,6,16A15.63135,15.63135,0,0,1,2206,869s1.96222,1.57856,3.96222,3.57856C2209.96222,872.57856,2204.96222,865.57856,2210.96222,860.57856Z"/><polygon class="cls-2" points="2331.183 943.579 2336.038 954.907 2332.801 951.67 2331.183 943.579"/><polygon class="cls-2" points="2321 940.197 2324.237 949.907 2321 946.31 2321 940.197"/><path class="cls-2" d="M2131.96222,831.57856a2.93816,2.93816,0,0,1-3,3s2,0,5,4A13.83434,13.83434,0,0,1,2131.96222,831.57856Z"/><polygon class="cls-2" points="2029.962 788.579 2032.962 799.579 2030.962 796.579 2029.962 788.579"/><path class="cls-2" d="M1833.96222,719.57856c2,0,15-3,15-3a71.328,71.328,0,0,1,7.17187,1.26562,4.90382,4.90382,0,0,1,1.82813.73438c1,1,9,17,10,17s9,4,9,5,6,6,6,9,3,8,3,8l13,6s8,9,10,11,9,5,11,8,4,7,10,8,8,1,9,2,9,5,9,5-10.88889,3-11.44444,2-3.55556-4-6.55556-4-5-1-7-1a29.1986,29.1986,0,0,1-9-2c-2-1,0,0-5-5s-5-4-7-6l-6-6c-2-2-5-6-6-7a15.37671,15.37671,0,0,0-6-4c-3-1-7-3-9-3s-2-5-3-7a6.375,6.375,0,0,1,0-6c1-2,2-1-1-4s-3-5-6-5-2,5-5-1-3-7-4-8-5-4-5-6-7-6-10-5S1833.96222,719.57856,1833.96222,719.57856Z"/><polygon class="cls-2" points="1479.926 648.579 1486 670.85 1481.951 664.776 1479.926 648.579"/><polyline class="cls-2" points="1443.256 666.604 1442.131 657.605 1445.506 669.979"/><polyline class="cls-2" points="1481.951 664.776 1479.926 648.579 1486 670.85"/><polyline class="cls-2" points="1459.454 660.53 1458.329 651.531 1461.703 663.904"/><polygon class="cls-2" points="1438.757 683.927 1444.831 706.198 1440.781 700.124 1438.757 683.927"/><polyline class="cls-2" points="1402.087 701.952 1400.962 692.953 1404.337 705.327"/><polyline class="cls-2" points="1440.781 700.124 1438.757 683.927 1444.831 706.198"/><path class="cls-2" d="M1210.62889,642.2962s.91371-1.37057,6.396,1.37057,10.96453,0,10.96453,2.74113,13.70567,8.2234,13.70567,8.2234,10.96453,0,13.70566,2.74113S1269.1064,668.337,1269.1064,668.337s5.48227,0,8.2234,2.74113,13.70567,2.74113,16.4468,8.2234S1302,690.266,1302,690.266s-13.70567-8.2234-16.4468-8.2234-13.70567-2.74113-21.92907-8.2234-13.70566-13.70566-16.4468-13.70566-5.48226-2.74114-10.96453-2.74114-10.96453,2.74114-13.70567-2.74113-2.74113-5.48227-5.48226-8.2234A20.33917,20.33917,0,0,0,1210.62889,642.2962Z"/><path class="cls-2" d="M1479.64012,690.167s20.472,3.94663,17.67609,6.74255,2.79593,5.59185,5.59185,5.59185,27.95922,5.59184,30.75514,5.59184,5.59185,11.18369,5.59185,11.18369a39.402,39.402,0,0,1,13.97961-8.38777c8.38777-2.79592,5.59184-6.74255,23.76534-6.16719,0,0-12.58165-2.22057-20.96942.57535s-16.77553-2.79592-22.36738-2.79592-25.1633,0-27.95922-2.79593-8.52964-6.2966-16.84647-8.74014Z"/><polygon class="cls-2" points="1752.426 626.579 1758 647.017 1754.284 641.443 1752.426 626.579"/><polyline class="cls-2" points="1718.775 643.12 1717.742 634.862 1720.839 646.217"/><polyline class="cls-2" points="1754.284 641.443 1752.426 626.579 1758 647.017"/><polyline class="cls-2" points="1733.639 637.546 1732.607 629.288 1735.703 640.643"/><polygon class="cls-2" points="1714.646 659.017 1720.22 679.455 1716.504 673.881 1714.646 659.017"/><polyline class="cls-2" points="1680.994 675.559 1679.962 667.301 1683.059 678.655"/><polyline class="cls-2" points="1716.504 673.881 1714.646 659.017 1720.22 679.455"/><path class="cls-2" d="M685.96222,588.57856C687.03405,588.93583,693,584,702,586c4.20331.93407,16.3195,5.93583,16.96222,6.57856,1,1,10,17,10,19s4,7,10,12,14,11,19,16,27,25,27,25,2-2,16,6,19,7,27,19-4,11,15,23,32,15,34,18,11,3,11,3-31,1-34-1-29-16-31-17-13-4-14-8,1-9,1-9-1-6-4-8-3-6-7-8,0,0-9-3a71.394,71.394,0,0,1-15-7c-2-1-9-4-12-4s1-3-1-5-13-6-15-8-5-3-9-10-3-6-9-9-8-4-11-5-5-2-6-6-6-13-6-13-1,3-1-2-2-8-3-8,0,0-2-4S685.96222,588.57856,685.96222,588.57856Z"/><path class="cls-2" d="M394.46542,639.29133l15.26729-6.78547,3.39273,13.57093-3.39273,6.78546L425,654.55861v-8.76455s-10.17819-6.50273-8.48183-9.89547,1.69637-10.17819,0-11.87455S394.46542,639.29133,394.46542,639.29133Z"/><path class="cls-2" d="M444.12544,605.75675l-3.39273,6.78546,10.17819,1.69637s-2.26182-6.78547-1.13091-8.48183S456,602.364,456,602.364l-5.0891-6.78546Z"/><path class="cls-2" d="M362.03989,614.45311l10.17819,3.39274s3.95819,1.69636,3.67546,3.39273-.28273,1.69636,3.11,3.39273,8.76456,0,8.76456,0-10.46092,6.78546-13.85365,5.08909-13.57093-2.26182-11.87456-4.52364a44.79386,44.79386,0,0,0,3.39273-5.65455Z"/><polygon class="cls-2" points="149.296 640.905 152.296 651.905 150.296 648.905 149.296 640.905"/><polyline class="cls-2" points="131.184 649.808 130.629 645.363 132.296 651.474"/><polyline class="cls-2" points="150.296 648.905 149.962 648.579 152.296 651.905"/><polyline class="cls-2" points="139.184 646.808 138.629 642.363 140.296 648.474"/><polygon class="cls-2" points="115.962 615.363 118.962 626.363 116.962 623.363 115.962 615.363"/><polyline class="cls-2" points="97.851 624.266 97.296 619.822 98.962 625.933"/><polyline class="cls-2" points="116.962 623.363 115.962 615.363 118.962 626.363"/><path class="cls-3" d="M1985.85608,597.70429s7.13473,7.8482,8.56168,12.129c0,0,4.99431-5.70778,11.41557-7.13473a26.18383,26.18383,0,0,0-10.7021,4.28084A16.63652,16.63652,0,0,0,1985.85608,597.70429Z"/><path class="cls-3" d="M1910.94138,583.43482s5.70779,2.85389,9.27516-4.28084c0,0,4.28084,2.85389,9.98862,12.12905,0,0-3.56736-12.12905-11.41557-16.40989C1918.78959,574.87314,1917.36264,582.00787,1910.94138,583.43482Z"/><path class="cls-3" d="M1938.76684,557.74978s2.85389-.71347,9.98863,7.84821a20.78251,20.78251,0,0,0,7.8482-9.98863,28.05981,28.05981,0,0,1-6.42126,5.70779A10.7531,10.7531,0,0,0,1938.76684,557.74978Z"/><path class="cls-3" d="M1877.40814,539.19948s4.28084.71347,12.129,11.41557c0,0,8.56168-6.42126,13.556-6.42126,0,0,1.42694-3.21063-12.84252,3.03226C1890.25066,547.22605,1883.11592,539.19948,1877.40814,539.19948Z"/><path class="cls-3" d="M1781.80271,486.40245s4.99432,0,9.27516,7.84821c0,0,9.98862-7.13474,11.41557-4.99432,0,0,2.14042-4.28084-10.7021,1.42695C1791.79134,490.68329,1786.797,483.54856,1781.80271,486.40245Z"/><path class="cls-3" d="M1734,443.59405s4.99431-3.56737,5.70779-11.41557c0,0,7.8482,7.8482,9.98862,17.83683,0,0-5.70778-10.7021-8.56168-12.12905C1741.13473,437.88626,1738.99431,443.59405,1734,443.59405Z"/></g></svg>