<svg xmlns="http://www.w3.org/2000/svg" width="5120" height="1440" viewBox="0 0 5120 1440"><defs><style>.cls-1{fill:#90caf9;}</style></defs><g id="_6_Mountains" data-name="6 Mountains"><path class="cls-1" d="M1703,547s9-2,11-3,5-6,8-8,11-6,11-6,5-2,6-4a12.07749,12.07749,0,0,1,6.5-5.5c3-1,6-2,9-1s13.55556-.82843,14.27778-.41421,1.38889-2.53856,3.55555-.06218S1777.5,520.5,1778.5,522.5s2.44444,5,4.72222,6.5,5.94445-.5,9.11111,0,1.38889.5,7.77778,0,8.38889.5,10.88889,0,5.5-1.5,7.5-1.5,6-1,6,0,3,0,4,0h7c1,0,6-1,7,0s2,0,4,0h13a2.19,2.19,0,0,0,3-1,7.68835,7.68835,0,0,1,2-3,14.38538,14.38538,0,0,1,3-2l1-2a32.08151,32.08151,0,0,0,5-3c1-1,4-2,4-2s0-1,2-2,2,0,3-1,1-2,3-3a47.08505,47.08505,0,0,1,5-2l4-1s-1-1,0-1.5,7-5.5,7-5.5l2-1s4,0,5-1l3-3a22.68505,22.68505,0,0,1,4-1c1,0,3,0,3-1s4-5,3-5,.321-.22222.16049-1.61111A7.74719,7.74719,0,0,1,1922.5,481.5l-1-6,1-1.94444s2-3.05556,2-5.05556,2-5,2-5,.33333,1,1.16667,0a15.01779,15.01779,0,0,1,5.83333-3c1,0,5-3,5-3l1-2c1-2,1-4,2-4s1.77778,1,2.38889,0,.61111-2,2.61111-3,5-3,6-3,5-2,5-2a4.38,4.38,0,0,1,3-1c2,0-.22222,1,5.38889,0a85.63668,85.63668,0,0,1,12.61111-1s3,0,4-1,1,0,2.5,0,8.44444-.44444,8.44444-.44444-4.5.55555,3.77778,0S2005.5,440.5,2006.5,438.5a7.73952,7.73952,0,0,0,1-3s0-3,1-3,1,0,3-1,3,1,3-1,0-3,2-3,3,1,4-1-1-2,2-2h4.94444l-2.94444-3s-2-1,0-2,1.88889-.77778,2.94444-1.38889S2029.5,414.5,2031.5,414.5a10.34349,10.34349,0,0,0,4-1,1.95878,1.95878,0,0,1,2-2h4.72222c1.27778,0,2.27778-2,3.27778-1s5,0,6,1,2,1,4,1h5a10.07287,10.07287,0,0,1,3,1,22.68505,22.68505,0,0,1,4-1c1,0,4,0,5-1l3-3a3.49137,3.49137,0,0,1,1,2c0,1-1,0,0,1a3.67367,3.67367,0,0,0,3,1h2s1-3,2-2a14.38538,14.38538,0,0,0,3,2,10.07287,10.07287,0,0,1,3-1c1,0,4-2,4-1s2,1,2,2,3,0,3,1-1,2-1,4,0,1,1,2.5,1-.5,1,1.5,1,0,1,2,1,2,1,3-2-1,0,1,4,3,4,4,3,2,4,3,0,2,2,3,4,1,6,2,2,1,2,2,1,2,1,3,6,1,6,2,0,1,2,2,7-1,8,1c.73034,1.46068,4.12768,2.388,5.90681,2.78185.6569.14543,1.09319.21815,1.09319.21815s3,0,4,2,1,1,1,2,2,2,3,3,5,0,5,3,3,5,3,5l1,2s4-1,4,0-1,1.22222,0,2.61111,2,1.38889,3,2.38889,3,1,4,3,2,2,5,3,5,1,6,2,4,0,4,2,1,2.88889,0,3.94444-2,2.05556-1,1.05556,4-2,4-2-4-2,0-1,3,2,5,2,5-1,5,1-1,2,2,3a4.373,4.373,0,0,1,3,4,12.37586,12.37586,0,0,1,2,3,47.08505,47.08505,0,0,1,2,5s0,3,1,4,1,2,2,3,1,3,1,4,2,0,3,2,2,3,1,4-1.17157,1.66667.41421,2.83333S2220.5,525.5,2220.5,527.5s-4-2,0,3,6,4,6,6,0,0,1,0,4,0,4,1,2,1,2,2,2,0,3,1,4,1,3,2-.59747,1.11111.20127,3.05556S2241.5,548.5,2242.5,548.5s2,0,2,2,2,3,2,4-1,1,0,2,3,2,3,3,2,0,2,1,0,1,2,2-3-4,3,1,8,6,8,6,2,2,3,2a10.55847,10.55847,0,0,1,5,2c1,1,4,1,5,2l2,2c1,1,5,0,5,1s3,2,3,3,3,1,3,1,.44444-3,.72222-1a8.7259,8.7259,0,0,0,2.27778,4l3,1s2.33333-1,2.16667,0,2.83333,2,3.83333,3,0,1,2,2a7.73952,7.73952,0,0,0,3,1,3.0971,3.0971,0,0,1,2,1,32.08151,32.08151,0,0,1,3,5l2,1s.22222-1,.61111,0,1.38889,1,2.38889,2,4,1,4,2,1,1,2,2,3,2,4,3,3-1,4,2,2,3,3,4,4,1,4,1l2,2c1,1,0,1,3,2s7,1,7,3,3,4,3,4,4,0,5,1,5,2,5,2,1-2,1,1,2,4,2,5,0,1-1,3-1,1,0,3,1,0,1,2.5,0,2.5,1,3.5a14.38538,14.38538,0,0,0,3,2s1.33333-1,4.16667,0,4.83333,0,6.83333,1a68.89993,68.89993,0,0,0,8,3c3,1,3,0,7,1s6,2,7,2,3-1,6,0,4.88889,1,5.94444,0a3.28088,3.28088,0,0,1,2.05556-1l2,4v1.61111c0,1.38889,0-.61111,2,1.38889s3,1,5,3l4,4c1,1,0,1,5,3s7,1,8,3,3,2,4,4,2,1,2,1a3.0971,3.0971,0,0,1,2,1,4.93754,4.93754,0,0,0,3,1s1.16667-1,1.08333,0a3.09525,3.09525,0,0,0,.91667,2h1.33333a4.22642,4.22642,0,0,1,2.66667,1,14.38538,14.38538,0,0,0,3,2,.97939.97939,0,0,0,1,1c1,0,3-2,4,0s2,2,3,3,2,0,4,1,1,0,3,1,2,0,3,1,3,0,3,1-1,0,1,1,4,1,4,2,4,2,4,2a10.34349,10.34349,0,0,0,4,1c2,0,3,1,4,1s2.83333-1,3.91667,0,3.08333,1,3.08333,2,1,1,1,3,0,2,2,2,1,0,2-1a4.93754,4.93754,0,0,1,3-1l2,1v2l1,1c1,1,1,0,2,2s2,3,3,3,3,0,4-1,0-3,2-2,3.16667,2,3.58333,3,1.41667,2,1.41667,3v2.25c0,.75,1,.75,2,.75h7c1,0,5-3,4,0s-2,2,0,4,4,2,5,3a5.19535,5.19535,0,0,0,4,2c2,0,1,0,4,1s4,1,5,2,2,1,4,2a12.37586,12.37586,0,0,1,3,2l2,1s3.5-1,3.25,0,.75,3,1.75,3,3.66667-1,3.33333,0,2.66667,2,1.66667,3-2.58987.33333.20507,2.16667S2589.5,747.5,2590.5,749.5s3,1,3,2,2,1,4,1,0-1,3,0,4-1,6,0a10.873,10.873,0,0,0,5,1,22.68505,22.68505,0,0,0,4-1s-1-2,0-1,.83333,2,1.41667,2,.58333-2,1.58333-1a3.67367,3.67367,0,0,0,3,1c1,0,2-2,3-1s3,0,3,1,1.33333,0,2.66667,0a20.99533,20.99533,0,0,1,4.33333,1s1-2,2-1,5.66667,0,5.33333,1,.66667,1,1.66667,0,2-4,4-2,3,1,4,2,2,0,4,0,4,0,5,1-1,3,2,3,3,0,4,1,0,1,2,2,3,2,5,3a13.38216,13.38216,0,0,0,5,1s2-1,3.5,0,2.5,1,2.5,2,2,1,2,1,4,0,5,1,7,1,7,2,1,1,2,2,2,0,2,1,1,2,2,3,6,2,6,3,2,0,3,2,3,1,3,2,5,1,5,2,3,2,4,2,0,0,1,1,3,0,4,1-1-1,3,2,6,3,6,3l3,1s3,0,3,1,2,2,3,2h4.08333c-.08333,0,1.91667,1,1.91667,1l3,1,2,1s4,1,4,2,2,0,1,2-.44,1.33333.28,3.16667S2767.5,812.5,2767.5,813.5v3a10.07287,10.07287,0,0,0,3,1h2c1,0,2-1,3,0s4,0,4,1,1,1,2,1,2,1,3,1,2-1,2,0,2,1,4,2,2,2,3,2a22.68505,22.68505,0,0,1,4,1s.33333-1,2.66667,0a9.2714,9.2714,0,0,0,4.33333,1h3.16667c1.83333,0,1.83333,0,2.83333,1a7.58119,7.58119,0,0,0,4,2c1,0,2,1,3,1s0,0,1,2,2,2,2,2a4.93754,4.93754,0,0,1,3,1c1,1,3,0,4,1s4,1,4,1a4.38,4.38,0,0,0,3,1c2,0,5,2,6,1s0-2,2-1a14.446,14.446,0,0,0,3.83333,1.28s.83334,1.51055,1.5,1.11528.66667.39527,2.16667,0,2.83333-1.37652,3.66667.1141S2857.5,841.5,2857.5,841.5v-1a2.15078,2.15078,0,0,0,2,2c1,0,0-2,2-1s4-1,5,0a7.58119,7.58119,0,0,0,4,2h2c1,0,2,1,3,1s1-2,2-1a3.67367,3.67367,0,0,0,3,1c1,0,2,1,3,1s2-2,3-1l3,3a10.07287,10.07287,0,0,0,3,1h5.83333c3.16667,0,4.16667,1,5.16667,1s4-1,4,0,1,2,3,2h4.25a36.06973,36.06973,0,0,0,5.75-1l3,1c6,2,8,2,8,2s.5-1,1.75,0a18.59817,18.59817,0,0,0,4.25,2,10.07287,10.07287,0,0,0,3,1,7.55924,7.55924,0,0,1,4,1,47.08505,47.08505,0,0,0,5,2h3.08333c-.08333,0,4.91667,2,4.91667,2l3,2,6,1s3,0,3,1a2.15078,2.15078,0,0,0,2,2c1,0,2-1,3,0s4,2,4,1,1-1,2-1,0-1,2-2,4-2,4-1-3,2-2,3,0,1,2,2,5,0,5,1,4,2,4,2,1,2,2,0,0-1,2-1,2-1,3,0,1-1,2,1a5.35851,5.35851,0,0,0,4,3c1,0-.16667,1,2.91667,0a16.618,16.618,0,0,1,4.08333-1l1,1c1,1,4,2,4,2h3v2s3,0,3,1,0,0,1,2,3,1,4,3,4,3,4,4a10.07287,10.07287,0,0,0,1,3l3,2h3s7,1,7,2,2,1,3,2l2,2c1,1,5,2,5,2,0,1,2,1,2,2s3,2,3,2l3,2a3.0971,3.0971,0,0,1,2,1,5.19535,5.19535,0,0,0,4,2c2,0,4,1,5,1s5,2,5,2a3.0971,3.0971,0,0,1,2,1c1,1,0,1,1,2s0-1,1,3,1,5,2,5-1-4,3,0,3,2,4,4,1,0,2,2-2,1,2,3,6,2,7,3,2-1,2,0,7,5,7,5h3a10.55847,10.55847,0,0,1,5,2c1,1,6,3,6,3l3,1,2,1v1l16,7s4-6,3.5,0-7.5,3-.5,6,25,7,25,7a18.65783,18.65783,0,0,1,3,4c1,2,5,3,6,7s10,6,15,9,18,6,18,11,9,9,9,12,23,5,22,9,2.06338,2,.03169,11.5-5.5435,13.5.71241,18,29.2559,6.5,32.2559,15.5,3,11,5,16,0,19-1,21-2-1,6,10,9,10,14,17,10,10,12,17,15,10,12,16-3.10545,4,.44728,7.5S3350.5,1186.5,3349.5,1192.5s1.10938,6,.05469,11.5,2.94531,8.5,3.94531,11.5-2-5,1,3,4,6,4,12v14H0V529H8.33333s2.27778-1.5,2.22223,0,2.72222-1.5,3.33333,0,3.38889-2.5,4,0S20.5,529.5,21.5,530.5s7-2,9,0,3,0,6,3,8,1,10,3,1,0,4,4S61,544.66667,61,544.66667C63.5,546.5,67.5,546.5,66.5,548.5s1,4,2,5,5-2,5,2,4,3,5,5,3,1,4,3,5,1,6,4,1,2,4,5,8,5,8,7,0,1,1,5-1,4,3,5,7,0,9-3,6-5,7-6,8-3,9-3h10s-1-1,3-1,5-3,8,0,9,5,12,4,8-2,8-2,8-1,8,1,2,3,4,5,5,2,6,3,7,0,8,4-2,5,3,6,10,1,10,3,3,2,4,5,2,3,4,5,8,3,8,2-2-1,0-3,4-4,5-4-2-3,4-1,6-1,10,2,9,2,12,4,7,1,8,2,5,0,5,1,7,1,7,1l3-5,8-1,9-1s-1-2,3-2,5-1,8,0,9,0,10,0,7-1,7-1h6c-1,0-2,0,0-2s8-7,8-7a10.07287,10.07287,0,0,0,1-3c0-1-1-1,1-2s8-3,8-3a3.55239,3.55239,0,0,1,2-3c2-1,9-5,9-5a2.19,2.19,0,0,1,1-3c2-1,8-5,9-3s9,1,10-1,4-4,5-4,9-2,10-2,3-2,5-3,10-2,11,0,3,3,7,5,11,3,13,5,8,2,9,3,5,0,6,2,2,1,4,5,11,3,12,7,0,3,3,6,1-1,8,6,11,6,12,8,4,3,6,4-6-3,8,1,16,3,18,5,8,5,10,6,11,3,11,3h9c4,0,6-1,13-1s11,0,14,1,1,1,9,0a34.83317,34.83317,0,0,1,14,1l5,4,9-1s-2-4,7,0,20,5,22,4,0-7,8-3,16,3,18,4-4,2,5-2,14-9,19-9,18-1,20-1,10-1,12-3,3-3,8-5,13-5,15-8,6-4,7-5,12-2,14-4,5-5,6-3,22,4,22,4-7-2,2,1,15,4,18,5,8,6,8,6-1-4,3,0,5,3,13,5,16,1,16,4,8,3,9,5,14,2,15,4,3,0,8,5,16,9,16,9-1,1,3,0,6-2,12-1,13,2,17,1,13-3,16-3,3,1,9-1a130.1357,130.1357,0,0,0,14-5c10-4,22-6,21-7s-11,5,1-3,25-11,25-12,2-4,2-4l2-6s9-2,14-1,9,2,12,2,18,1,20,1,12,0,14-1-6-3,12,0,13,0,13,0,12-4,12-2,7,0,7,0,6-4,9-4,19-2,19-2l16-5s7-4,12-2,23-2,23-2,3-4,5-3,12-1,15,0,11-2,13-1,13-5,17-4,23,1.88889,23.5.94444,5.5-3.94444,5.5-3.94444,15-4,16-4,21-5,23-6,12-3,16-5,12-4,17-5,13,0,23-5,11-6,15-7,25-4,27-5,9-5,10-7,4.33333-4,7.16667-5.5,8.83333-2.5,10.83333-2.5,13-2,15-2,10,0,12,2,5.66667-2,12.83333,2.5S1505.5,530.5,1507.5,534.5s7,7,10,8,10-2,13,0,14,6,14,6,10-2,11,1,9,2,12,4,7-1,9,2,10,2,16,5,10,1,22,3,14,1,17,2l3,1,10-5c4-2,7-5,8-4s26.75-1.72222,26.75-1.72222S1677.5,555.5,1686.5,552.5s9-2,13-4S1703,547,1703,547Z"/></g></svg>