<svg xmlns="http://www.w3.org/2000/svg" width="5120" height="1440" viewBox="0 0 5120 1440"><defs><style>.cls-1{fill:#1565c0;}.cls-2{fill:#1976d2;}</style></defs><g id="Town"><path class="cls-1" d="M5120,936v504H0c.5-6.5,0-375,0-375H34.33333v50.5S57,1118,54.5,1115.5s0-110,0-110h97.88616v95.16667H221.5V965.5s4-45,46-45,48,41,48,41v48l58-26v40l92-38v167h53v103.63265h60.75v-307.466H662.5V977h28v79.5h23.83333v-45H746.5v45h27.83333V1139h53.33334v47.51724h35.43022v104.594s51.23644,4.61122,51.23644,0v-39.459h12V1164.5H910.5v-84h15v-43H972V977h85V954h54v33.33333h68.66667V969H1215v127.5h65V1139h41V951.5h28V868h21.5v81.5h14V1018H1453V991h45v27h91v18h50v252.23746h54V1186.51724h44V1139h48v-74h38v-30h76V948h53.5V918H1963v79.5h17v259s61,7,61,0V1158h60v-63.5l57,29.5v-29.5l84,38.5,133,65,29,1h11.5V1088s-2.5-59,47.5-59c56,0,52.5,62,52.5,62v31H2539v-65.5h50v-25.91667c0-3.912,6.088-6.58333,10-6.58333h2c3.31371,0,9.5,2.18629,9.5,5.5v27H2655v245h26v-27.73467h14V1301.5h21V1165h47v52h44v-88h22v-89h59.5v89H2915v88h52v-86.5h87.92625v-179L3118.5,851.5l70,100V1205H3239v-93.5h84v102h22v74.73746h52V1213.5l59-51.5V946h18.5V922h20V872H3523v52h21.5v28H3562v206l61,55.5V1139h60V866l82-98-2,98v407.0198h119.5V951.33333h25v-44h24v41.33334h19V977H4145v324.5h105.33333V1191.33333H4299.5V1147.5H4353V1055h233v-26h12.33333v135.66667H4650.5V984.5l91,42V982l62.4703,30.66667V962S4810.5,922,4852,922s47.5,40.5,47.5,40.5V1101H4945v-35.33333h40V1010l89.5-127V997.66667h15V937Z"/></g><g id="Town_Accents" data-name="Town Accents"><rect class="cls-2" x="2201" y="1166" width="15" height="16"/><rect class="cls-2" x="2232" y="1166" width="15" height="16"/><rect class="cls-2" x="2444" y="1072" width="15" height="16"/><rect class="cls-2" x="2475" y="1072" width="15" height="16"/><rect class="cls-2" x="2294" y="1195" width="15" height="16"/><rect class="cls-2" x="2110" y="1213" width="15" height="16"/><rect class="cls-2" x="2141" y="1213" width="15" height="16"/><rect class="cls-2" x="2780" y="1169" width="5" height="39"/><rect class="cls-2" x="2872" y="1191" width="4" height="34"/><rect class="cls-2" x="2899" y="1245" width="4" height="37"/><rect class="cls-2" x="2931" y="1096" width="5" height="54"/><rect class="cls-2" x="2848" y="1064" width="5" height="54"/><rect class="cls-2" x="3082" y="957" width="3" height="419"/><rect class="cls-2" x="3122" y="957" width="3" height="419"/><rect class="cls-2" x="3159" y="957" width="3" height="419"/><rect class="cls-2" x="3506" y="915" width="5" height="462"/><rect class="cls-2" x="3701" y="883" width="15" height="16"/><rect class="cls-2" x="3730" y="883" width="15" height="16"/><rect class="cls-2" x="3730" y="927" width="15" height="16"/><rect class="cls-2" x="3701" y="973" width="15" height="16"/><rect class="cls-2" x="3792" y="973" width="15" height="16"/><rect class="cls-2" x="3696" y="1018" width="15" height="16"/><rect class="cls-2" x="3696" y="1063" width="15" height="16"/><rect class="cls-2" x="3696" y="1108" width="15" height="16"/><rect class="cls-2" x="3792" y="1108" width="15" height="16"/><rect class="cls-2" x="3792" y="1153" width="15" height="16"/><rect class="cls-2" x="3696" y="1288" width="15" height="16"/><rect class="cls-2" x="3792" y="1288" width="15" height="16"/><rect class="cls-2" x="4015.5" y="907.5" width="4" height="203" transform="translate(3008.5 5026.5) rotate(-90)"/><rect class="cls-2" x="4015.5" y="963.5" width="4" height="203" transform="translate(2952.5 5082.5) rotate(-90)"/><rect class="cls-2" x="4015.5" y="984.5" width="4" height="203" transform="translate(2931.5 5103.5) rotate(-90)"/><rect class="cls-2" x="4015.5" y="1044.5" width="4" height="203" transform="translate(2871.5 5163.5) rotate(-90)"/><rect class="cls-2" x="4015.5" y="1065.5" width="4" height="203" transform="translate(2850.5 5184.5) rotate(-90)"/><rect class="cls-2" x="4015.5" y="1086.5" width="4" height="203" transform="translate(2829.5 5205.5) rotate(-90)"/><rect class="cls-2" x="1838" y="1180" width="5" height="39"/><rect class="cls-2" x="1879" y="1090" width="4" height="34"/><rect class="cls-2" x="1921" y="1148" width="4" height="37"/><rect class="cls-2" x="1943" y="1063" width="5" height="54"/><rect class="cls-2" x="1447.5" y="963.5" width="4" height="203" transform="translate(384.5 2514.5) rotate(-90)"/><rect class="cls-2" x="1447.5" y="1017.5" width="4" height="203" transform="translate(330.5 2568.5) rotate(-90)"/><rect class="cls-2" x="1447.5" y="1088.5" width="4" height="203" transform="translate(259.5 2639.5) rotate(-90)"/><rect class="cls-2" x="1447.5" y="1109.5" width="4" height="203" transform="translate(238.5 2660.5) rotate(-90)"/><rect class="cls-2" x="1447.5" y="1130.5" width="4" height="203" transform="translate(217.5 2681.5) rotate(-90)"/><rect class="cls-2" x="1447.5" y="1151.5" width="4" height="203" transform="translate(196.5 2702.5) rotate(-90)"/><rect class="cls-2" x="1100.5" y="921.5" width="4" height="203" transform="translate(79.5 2125.5) rotate(-90)"/><rect class="cls-2" x="1100.5" y="973.5" width="4" height="203" transform="translate(27.5 2177.5) rotate(-90)"/><rect class="cls-2" x="1100.5" y="994.5" width="4" height="203" transform="translate(6.5 2198.5) rotate(-90)"/><rect class="cls-2" x="1100.5" y="1015.5" width="4" height="203" transform="translate(-14.5 2219.5) rotate(-90)"/><rect class="cls-2" x="1100.5" y="1036.5" width="4" height="203" transform="translate(-35.5 2240.5) rotate(-90)"/><rect class="cls-2" x="1100.5" y="1098.5" width="4" height="203" transform="translate(-97.5 2302.5) rotate(-90)"/><rect class="cls-2" x="70" y="1152" width="15" height="16"/><rect class="cls-2" x="101" y="1152" width="15" height="16"/><rect class="cls-2" x="170" y="1239" width="15" height="16"/><rect class="cls-2" x="201" y="1239" width="15" height="16"/><rect class="cls-2" x="380" y="1126" width="15" height="16"/><rect class="cls-2" x="411" y="1126" width="15" height="16"/><rect class="cls-2" x="244" y="1034" width="15" height="16"/><rect class="cls-2" x="275" y="1034" width="15" height="16"/><rect class="cls-2" x="46" y="1283" width="15" height="16"/><rect class="cls-2" x="77" y="1283" width="15" height="16"/><rect class="cls-2" x="4393" y="1091" width="15" height="16"/><rect class="cls-2" x="4489" y="1091" width="15" height="16"/><rect class="cls-2" x="4393" y="1136" width="15" height="16"/><rect class="cls-2" x="4489" y="1136" width="15" height="16"/><rect class="cls-2" x="4393" y="1181" width="15" height="16"/><rect class="cls-2" x="4489" y="1181" width="15" height="16"/><rect class="cls-2" x="4393" y="1226" width="15" height="16"/><rect class="cls-2" x="4489" y="1226" width="15" height="16"/><rect class="cls-2" x="4710" y="1076" width="15" height="16"/><rect class="cls-2" x="4741" y="1076" width="15" height="16"/><rect class="cls-2" x="4810" y="1163" width="15" height="16"/><rect class="cls-2" x="4841" y="1163" width="15" height="16"/><rect class="cls-2" x="4686" y="1207" width="15" height="16"/><rect class="cls-2" x="4717" y="1207" width="15" height="16"/><rect class="cls-2" x="660" y="1182" width="4" height="34"/><rect class="cls-2" x="724" y="1155" width="5" height="54"/><rect class="cls-2" x="636" y="1055" width="5" height="54"/><rect class="cls-2" x="5034" y="1200" width="4" height="34"/><rect class="cls-2" x="5098" y="1173" width="5" height="54"/><rect class="cls-2" x="5010" y="1073" width="5" height="54"/><rect class="cls-2" x="2748" y="1195" width="4" height="34" transform="translate(5500 2424) rotate(-180)"/><rect class="cls-2" x="2727" y="1249" width="4" height="37" transform="translate(5458 2535) rotate(-180)"/><rect class="cls-2" x="2818" y="1147" width="5" height="54"/><rect class="cls-2" x="2589" y="1136" width="15" height="16"/><rect class="cls-2" x="2620" y="1136" width="15" height="16"/><rect class="cls-2" x="2494" y="1245" width="15" height="16"/><rect class="cls-2" x="2525" y="1245" width="15" height="16"/><rect class="cls-2" x="4924" y="1142" width="5" height="54"/><rect class="cls-2" x="5048" y="988" width="4" height="34"/></g></svg>