<svg width="259" height="259" viewBox="0 0 259 259" fill="none" xmlns="http://www.w3.org/2000/svg">
<path d="M203.004 48.6327L184.003 48.507L184.022 33.7791H184.02C184.022 33.1476 183.838 32.5275 183.491 31.9985L169.511 10.6887C168.912 9.77677 167.895 9.22754 166.804 9.22754C165.714 9.22754 164.696 9.77677 164.097 10.6887L150.118 32C149.769 32.529 149.586 33.1476 149.587 33.7806L149.553 48.2802L133.142 48.1703V15.0757C133.197 13.2879 131.794 11.7934 130.006 11.7356H98.4405C96.6137 11.7761 95.1409 13.2474 95.1019 15.0757V39.6807C95.1019 39.9336 95.0007 40.1981 95.0007 40.4713C95.0007 40.7444 95.1019 41.0075 95.1019 41.2619V47.9219L78.1048 47.8062V22.7879C78.0268 20.9394 76.528 19.468 74.678 19.4247H63.1762C55.9597 19.3987 49.0351 22.2662 43.9491 27.3856C39.2027 32.1942 36.387 38.5781 36.033 45.3247H36.0171V133.548H36.059C36.0257 133.952 36.0171 134.478 36.0171 135.033V135.081C36.0069 142.29 38.8643 149.209 43.9591 154.311C49.054 159.413 55.9682 162.28 63.1788 162.28H178.467V194.736C178.441 195.573 178.759 196.384 179.346 196.98C179.934 197.577 180.739 197.906 181.576 197.893H201.991C207.558 197.902 212.9 195.695 216.837 191.761C220.776 187.825 222.986 182.486 222.983 176.919V68.8529C222.983 57.7037 214.015 48.6332 203.004 48.6332L203.004 48.6327ZM177.47 103.6H156.139L156.065 36.826H177.544L177.47 103.6ZM177.463 110.075L177.455 116.465C177.454 120.27 175.425 123.785 172.128 125.689C168.833 127.591 164.773 127.59 161.478 125.688C158.182 123.784 156.153 120.268 156.153 116.462L156.146 110.075L177.463 110.075ZM166.803 18.1817L174.789 30.3529H158.819L166.803 18.1817ZM126.666 18.2121V126.263H101.575V108.457H104.813C106.601 108.457 108.05 107.007 108.05 105.219C108.05 103.432 106.601 101.982 104.813 101.982H101.575V92.2694H104.813C106.601 92.2694 108.05 90.8198 108.05 89.0319C108.05 87.2441 106.601 85.7944 104.813 85.7944H101.575V76.0819H104.813C106.601 76.0819 108.05 74.6323 108.05 72.8444C108.05 71.0566 106.601 69.6069 104.813 69.6069H101.575V59.8944H104.813C106.601 59.8944 108.05 58.4448 108.05 56.6569C108.05 54.8691 106.601 53.4194 104.813 53.4194H101.575V43.7069H104.813C106.601 43.7069 108.05 42.2573 108.05 40.4694C108.05 38.6816 106.601 37.2319 104.813 37.2319H101.575V18.2117L126.666 18.2121ZM42.4906 46.7742C42.4776 41.2661 44.6456 35.9776 48.5235 32.0653C52.4 28.1529 57.6695 25.9373 63.1773 25.9011H71.6281V108.052H63.2021C54.9074 108.052 47.3469 111.596 42.4906 117.473V46.7742ZM63.1803 155.806C57.688 155.806 52.4199 153.622 48.5394 149.736C44.6588 145.849 42.4821 140.578 42.4906 135.086V135.04C42.5051 129.568 44.6976 124.328 48.5856 120.479C52.4736 116.629 57.7346 114.487 63.2051 114.528H74.6765C76.5381 114.452 78.0297 112.959 78.1034 111.096V54.2792L95.1004 54.3934V55.8661C95.1004 56.1191 94.9993 56.3835 94.9993 56.6567C94.9993 56.9299 95.1004 57.1929 95.1004 57.4473V72.0564C95.1004 72.3093 94.9993 72.5738 94.9993 72.847C94.9993 73.1201 95.1004 73.3832 95.1004 73.6375V88.2466C95.1004 88.4995 94.9993 88.764 94.9993 89.0372C94.9993 89.3104 95.1004 89.5734 95.1004 89.8278V104.437C95.1004 104.69 94.9993 104.954 94.9993 105.227C94.9993 105.501 95.1004 105.764 95.1004 106.018V129.611V129.607C95.1597 131.394 96.6527 132.794 98.4391 132.739H130.005C130.841 132.758 131.651 132.434 132.243 131.842C132.836 131.25 133.16 130.441 133.141 129.604V54.6459L149.558 54.7543L149.652 116.481C149.652 122.604 152.918 128.261 158.22 131.322C163.521 134.383 170.052 134.383 175.355 131.322C180.657 128.261 183.923 122.604 183.923 116.481L183.995 54.9837L202.981 55.1094C210.443 55.1094 216.508 61.2751 216.508 68.8542L216.506 161.709C212.623 157.907 207.398 155.785 201.962 155.804L63.1803 155.806ZM216.519 176.88C216.524 180.738 214.993 184.438 212.266 187.165C209.54 189.892 205.84 191.423 201.984 191.418H184.94V162.281H201.955C205.814 162.29 209.513 163.829 212.24 166.559C214.967 169.29 216.501 172.991 216.505 176.849H216.638L216.519 176.88Z" fill="#175DAE"/>
</svg>
