<svg xmlns="http://www.w3.org/2000/svg" width="54.5" height="55" viewBox="0 0 54.5 55"><defs><style>.a{fill:#175dae;}</style></defs><path class="a" d="M48.93,11.49l-5.54,0V7.16h0a.93.93,0,0,0-.15-.52L39.16.43a.93.93,0,0,0-1.57,0L33.51,6.64a.93.93,0,0,0-.15.52v4.22l-4.79,0V1.7a.94.94,0,0,0-.91-1h-9.2a1,1,0,0,0-1,1V8.88c0,.07,0,.15,0,.23s0,.15,0,.23v1.94l-4.95,0V4a1,1,0,0,0-1-1H8.17A7.9,7.9,0,0,0,2.56,5.29,8.13,8.13,0,0,0,.25,10.52h0V36.24h0c0,.12,0,.27,0,.43v0a7.92,7.92,0,0,0,7.92,7.93h33.6v9.46a.92.92,0,0,0,.26.65.89.89,0,0,0,.65.27h6a6.11,6.11,0,0,0,6.12-6.11V17.38a5.86,5.86,0,0,0-5.82-5.89Zm-7.45,16H35.27l0-19.46h6.27Zm0,1.89v1.86a3.11,3.11,0,1,1-6.21,0V29.4ZM38.37,2.61,40.7,6.16H36.05Zm-11.7,0v31.5H19.36V28.93h.94a.95.95,0,1,0,0-1.89h-.94V24.21h.94a.95.95,0,1,0,0-1.89h-.94V19.49h.94a.95.95,0,1,0,0-1.89h-.94V14.77h.94a.95.95,0,1,0,0-1.89h-.94V10.05h.94a.95.95,0,1,0,0-1.89h-.94V2.62ZM2.13,11a6.08,6.08,0,0,1,6-6.09h2.46v24H8.17a7.78,7.78,0,0,0-6,2.75Zm6,31.78a6,6,0,0,1-6-6h0a6,6,0,0,1,6-6h3.35a1,1,0,0,0,1-1V13.13l4.95,0v.43c0,.07,0,.15,0,.23s0,.15,0,.23v4.26c0,.07,0,.15,0,.23s0,.15,0,.23V23c0,.07,0,.15,0,.23s0,.15,0,.23v4.26c0,.07,0,.15,0,.23s0,.15,0,.23v6.87h0a1,1,0,0,0,1,.92h9.2a.89.89,0,0,0,.65-.27.87.87,0,0,0,.26-.65V13.24l4.79,0,0,18a5,5,0,0,0,10,0l0-17.93,5.53,0a4,4,0,0,1,3.94,4V44.45a6,6,0,0,0-4.24-1.72Zm44.7,6.14a4.23,4.23,0,0,1-4.24,4.24h-5V44.62h5a4.25,4.25,0,0,1,4.24,4.25h0Z" transform="translate(-0.25 0)"/></svg>