<svg xmlns="http://www.w3.org/2000/svg" width="55" height="55" viewBox="0 0 55 55"><defs><style>.a{fill:#175dae;}</style></defs><path class="a" d="M21.09,31.16a2.75,2.75,0,0,0,2.75-2.75,2.77,2.77,0,0,0-2.75-2.75,2.75,2.75,0,0,0-2.75,2.75,2.73,2.73,0,0,0,2.75,2.75Zm0-3.66a.92.92,0,0,1,.65,1.56.92.92,0,0,1-1.57-.65A.92.92,0,0,1,21.09,27.5Z"/><path class="a" d="M9.17,28.41a2.74,2.74,0,0,0-4.69-1.94,2.72,2.72,0,0,0-.81,1.94,2.75,2.75,0,0,0,2.75,2.75,2.73,2.73,0,0,0,2.75-2.75Zm-3.66,0a.92.92,0,0,1,1.56-.65.93.93,0,0,1,.2,1,.91.91,0,0,1-1.76-.35Z"/><path class="a" d="M18.34,34.83H9.17v5.5h9.17Zm-1.83,3.66H11V36.66h5.5Z"/><path class="a" d="M52.25,2.75h-5.5v5.5h5.5ZM50.42,6.42H48.58V4.58h1.84Z"/><path class="a" d="M52.25,10.08h-5.5v5.5h5.5Zm-1.83,3.67H48.58V11.92h1.84Z"/><path class="a" d="M52.25,17.41h-5.5v5.5h5.5Zm-1.83,3.67H48.58V19.25h1.84Z"/><path class="a" d="M19.26,2.75h-5.5v5.5h5.5ZM17.42,6.42H15.59V4.58h1.83Z"/><path class="a" d="M13.76,15.58h5.5v-5.5h-5.5Zm1.83-3.66h1.83v1.83H15.59Z"/><path class="a" d="M11,0V23.93A6.41,6.41,0,1,0,3.67,34.2v1.54H0v7.34H3.67v2.75h5.5v3.66H11V55H55V0ZM3.67,41.24H1.84V37.58H3.67ZM1.84,28.41a4.61,4.61,0,1,1,1.35,3.24A4.59,4.59,0,0,1,1.84,28.41ZM5.51,44V34.76A6.29,6.29,0,0,0,10.9,33h5.72A6.18,6.18,0,0,0,22,34.75V44Zm17.1-11.26a4.59,4.59,0,0,1-4.93-1.27,4.46,4.46,0,0,1-1.17-3.05,4.53,4.53,0,0,1,1.16-3.05,4.57,4.57,0,0,1,7.88,2,4.52,4.52,0,0,1-.45,3.24,4.58,4.58,0,0,1-2.49,2.11Zm1.23,4.85h1.83v3.66H23.84ZM11,45.83h5.5v1.83H11Zm3.66,7.33H12.84V49.49h1.83ZM44,35.74H35.75v1.84H44V53.16H22v-5.5H20.17v5.5H16.51V49.49h1.83V45.83h5.5V43.08H26.4l7.52,3.22V32.52L26.4,35.74H23.84V34.19a6.47,6.47,0,0,0,3.28-3.65,6.41,6.41,0,1,0-11.82.62H12.21a6.4,6.4,0,0,0,.63-2.75V1.83h7.33V21.08H22V19.25H44ZM27.5,41.56V37.27l4.59-2v8.22ZM44,17.41H22V1.83H44Zm9.17,35.75H45.83V1.83h7.34Z"/><path class="a" d="M13.76,22h1.83V19.25h1.83v1.83h1.84V17.41h-5.5Z"/><path class="a" d="M52.25,24.75h-5.5v5.5h5.5Zm-1.83,3.66H48.58V26.58h1.84Z"/><path class="a" d="M52.25,32.08h-5.5v5.5h5.5Zm-1.83,3.66H48.58V33.91h1.84Z"/><path class="a" d="M52.25,39.41h-5.5v5.5h5.5Zm-1.83,3.67H48.58V41.24h1.84Z"/><path class="a" d="M46.75,52.24h5.5v-5.5h-5.5Zm1.83-3.66h1.84v1.83H48.58Z"/></svg>