<svg width="210" height="210" viewBox="0 0 210 210" fill="none" xmlns="http://www.w3.org/2000/svg">
<g clip-path="url(#clip0_12_2219)">
<path d="M75.192 37.9351H80.6118V43.3549H75.192V37.9351Z" fill="#175DAE"/>
<path d="M88.17 47.8501L88.4559 47.2782L83.6091 44.8536L83.3232 45.4255C82.2896 47.4915 80.2131 48.7747 77.9034 48.7747C75.5937 48.7747 73.5171 47.4915 72.4836 45.4243L72.1977 44.8524L67.3509 47.277L67.6368 47.8489C69.5938 51.763 73.5279 54.1945 77.9037 54.1945C82.2807 54.1945 86.2146 51.7628 88.1706 47.8501H88.17Z" fill="#175DAE"/>
<path d="M129.387 48.774H134.807V54.1938H129.387V48.774Z" fill="#175DAE"/>
<path d="M137.517 56.2651C136.483 58.3311 134.407 59.6143 132.097 59.6143C129.787 59.6143 127.711 58.3311 126.677 56.2639L126.391 55.692L121.545 58.1166L121.831 58.6885C123.788 62.6026 127.722 65.0329 132.099 65.0329C136.474 65.0329 140.408 62.6012 142.366 58.6885L142.652 58.1166L137.805 55.692L137.517 56.2651Z" fill="#175DAE"/>
<path d="M180.87 54.192H170.031C165.549 54.192 161.902 57.8388 161.902 62.3214V79.044C161.902 81.2155 162.748 83.2569 164.283 84.792L167.322 87.8307V91.194C160.206 84.873 151.879 79.9017 142.935 76.6545V74.9705C147.867 72.5377 151.065 67.4999 151.065 61.883L151.063 59.612C157.04 59.612 161.902 54.7499 161.902 48.7733V37.9346C161.902 28.6217 157.178 20.3927 150.003 15.5132C150.695 14.0671 151.063 12.4757 151.063 10.8374C151.063 4.86076 146.201 -0.00134277 140.225 -0.00134277C138.828 -0.00134277 137.446 0.269359 136.161 0.789667C133.588 -0.250973 130.605 -0.250973 128.031 0.789667C126.745 0.269347 125.363 -0.00134277 123.967 -0.00134277C117.991 -0.00134277 113.128 4.86076 113.128 10.8374C113.128 12.4651 113.493 14.0471 114.177 15.4862C112.91 16.3487 111.714 17.3225 110.597 18.403C109.784 17.1198 108.794 15.942 107.639 14.9203C107.685 14.4632 107.708 14.005 107.708 13.5468C107.708 6.07624 101.631 -0.00116277 94.1604 -0.00116277C91.3608 -0.00116277 88.6854 0.846097 86.4318 2.41759C83.8818 0.846097 80.9241 -0.00116277 77.9016 -0.00116277C74.8806 -0.00116277 71.9214 0.846097 69.3714 2.41759C67.1179 0.846097 64.4436 -0.00116277 61.644 -0.00116277C54.1734 -0.00116277 48.096 6.07624 48.096 13.5468C48.096 14.0039 48.1194 14.4632 48.1663 14.9203C44.701 17.9893 42.676 22.4251 42.676 27.0961C42.676 31.8259 44.6705 36.1981 48.1825 39.2848C48.8505 44.6263 53.4148 48.7735 58.9345 48.7735V51.0434C58.9345 56.6615 62.1313 61.6994 67.0639 64.1309V65.8149C58.1203 69.0621 49.7917 74.0343 42.6772 80.3544V76.9911L45.7159 73.9524C47.2499 72.4184 48.096 70.377 48.096 68.2056V51.483C48.096 47.0007 44.4492 43.3536 39.9666 43.3536H29.1279C24.6456 43.3536 20.9985 47.0004 20.9985 51.483V105.018C20.9985 112.852 27.3711 119.224 35.2041 119.224C38.9985 119.224 42.5658 117.746 45.2493 115.063L53.5146 106.798V125.14C53.5146 127.824 52.7282 130.423 51.2388 132.656L49.2478 135.642C48.4931 136.774 48.0947 138.092 48.0947 139.453C48.0947 141.66 49.1458 143.622 50.7689 144.88C45.635 150.361 42.6758 157.686 42.6758 165.289V167.998H167.32V165.289C167.32 161.165 166.442 157.058 164.772 153.293C166.36 151.406 167.32 148.974 167.32 146.321C167.32 144.011 166.642 141.776 165.362 139.853L156.898 127.159L158.742 123.472C159.146 122.664 159.51 121.837 159.839 120.996L164.745 125.902C167.429 128.585 170.996 130.062 174.79 130.062C182.624 130.062 188.997 123.691 188.997 115.857V62.3217C188.997 57.8394 185.35 54.1923 180.867 54.1923L180.87 54.192ZM155.226 102.345C156.06 104.848 156.483 107.454 156.483 110.092C156.483 113.876 155.589 117.665 153.897 121.049L152.099 124.644H118.547V103.456C118.547 96.8379 116.885 90.5604 113.93 85.0467C115.415 84.2053 116.956 83.4835 118.547 82.8823V89.419C118.547 93.9013 122.194 97.5484 126.677 97.5484H137.516C141.998 97.5484 145.645 93.9016 145.645 89.419V83.5972C146.989 84.196 148.313 84.8382 149.618 85.5203L155.226 102.345ZM111.678 151.74H109.85C108.578 149.249 106.96 146.934 105.036 144.879C106.659 143.621 107.71 141.659 107.71 139.452C107.71 138.091 107.312 136.774 106.557 135.641L104.567 132.656C103.079 130.424 102.291 127.825 102.291 125.141L102.29 78.7368C109.005 84.9207 113.129 93.7695 113.129 103.453V136.603L116.536 140.011C117.834 141.308 118.549 143.033 118.549 144.869C118.547 148.657 115.465 151.738 111.678 151.738L111.678 151.74ZM88.7409 65.547V64.1314C93.6732 61.6986 96.8703 56.6608 96.8703 51.0439V48.774C98.8883 48.774 100.778 48.2173 102.398 47.2529C102.328 47.7497 102.289 48.2572 102.289 48.774C102.289 54.7506 107.151 59.6127 113.128 59.6127V61.8826C113.128 67.5007 116.325 72.5386 121.257 74.9701V76.3845C117.662 77.2529 114.247 78.6228 111.052 80.4591C105.742 73.1817 97.9415 67.7736 88.7411 65.547H88.7409ZM100.116 33.6C101.45 34.602 102.29 36.1934 102.29 37.9359C102.29 40.9242 99.8585 43.3557 96.8703 43.3557V36.4779C98.136 35.7432 99.241 34.7635 100.116 33.5998L100.116 33.6ZM113.129 54.1935C110.141 54.1935 107.709 51.7619 107.709 48.7737C107.709 45.7856 110.141 43.3539 113.129 43.3539V54.1935ZM145.646 61.8834C145.646 65.8407 143.124 69.3399 139.37 70.5915L137.516 71.2079V80.5338L139.369 81.1513C139.656 81.2474 139.94 81.3517 140.226 81.4513V89.4199C140.226 90.9141 139.011 92.1293 137.517 92.1293H126.678C125.184 92.1293 123.968 90.9141 123.968 89.4199V81.3421C124.13 81.3105 124.291 81.2777 124.454 81.2472L126.679 80.8429V71.209L124.826 70.5914C121.07 69.3398 118.548 65.8406 118.548 61.8833V43.3547H129.387C134.191 43.3547 138.514 41.2582 141.493 37.9349L142.937 37.9361C144.431 37.9361 145.646 39.1513 145.646 40.6454L145.646 61.8834ZM151.064 54.1935V43.3548C154.053 43.3548 156.484 45.7865 156.484 48.7746C156.484 51.7617 154.053 54.1932 151.064 54.1932V54.1935ZM118.547 10.8375C118.547 7.84927 120.979 5.41774 123.967 5.41774C124.918 5.41774 125.854 5.66852 126.674 6.14314L128.031 6.92947L129.388 6.14431C131.03 5.19508 133.162 5.19508 134.802 6.14431L136.161 6.92947L137.518 6.14431C138.338 5.66971 139.274 5.41891 140.225 5.41891C143.213 5.41891 145.644 7.85056 145.644 10.8387C145.644 11.5641 145.497 12.2696 145.224 12.9246C142.015 11.5817 138.496 10.8375 134.806 10.8375H129.386C125.731 10.8375 122.203 11.5524 118.957 12.9012C118.691 12.2531 118.547 11.5547 118.547 10.8375H118.547ZM129.386 16.2573H134.806C146.759 16.2573 156.483 25.9815 156.483 37.9347V39.3926C154.887 38.4668 153.037 37.9347 151.064 37.9347H150.597C149.664 35.3062 147.416 33.2952 144.649 32.6988C145.293 30.9516 145.645 29.0637 145.645 27.096H140.225C140.225 32.6178 136.073 37.1859 130.727 37.8492C133.263 34.9805 134.806 31.2153 134.806 27.096H129.387C129.387 33.0726 124.524 37.9347 118.548 37.9347H113.128C111.11 37.9347 109.22 38.4914 107.6 39.4558C107.608 39.3996 107.614 39.3422 107.621 39.2859C111.135 36.198 113.129 31.8258 113.129 27.096C113.129 26.0331 113.019 24.9843 112.816 23.9589C116.948 19.0488 122.92 16.2573 129.386 16.2573L129.386 16.2573ZM52.6671 18.2554L54.1542 17.1984L53.7347 15.423C53.5882 14.8042 53.5144 14.1737 53.5144 13.5468C53.5144 9.06451 57.1612 5.41741 61.6438 5.41741C63.7918 5.41741 65.818 6.24943 67.3498 7.75882L69.097 9.48031L70.9838 7.9135C72.9209 6.30451 75.3781 5.41858 77.9014 5.41858C80.4245 5.41858 82.8821 6.30451 84.8201 7.91467L86.7068 9.48148L88.454 7.75999C89.9857 6.24943 92.0117 5.41858 94.16 5.41858C98.6423 5.41858 102.289 9.06538 102.289 13.548C102.289 14.1749 102.216 14.8054 102.069 15.4241L101.65 17.1995L103.137 18.2566C106 20.2898 107.708 23.5945 107.708 27.0961C107.708 29.0461 107.2 30.9058 106.257 32.5288C105.295 30.8588 103.897 29.4562 102.196 28.4929C102.255 28.0347 102.289 27.5694 102.289 27.096C102.289 24.4241 101.309 21.8577 99.5285 19.869L95.4902 23.4831C96.3796 24.4769 96.8695 25.76 96.8695 27.096C96.8695 30.0843 94.4378 32.5158 91.4497 32.5158C89.1528 32.5158 87.0985 31.0603 86.3368 28.8936L85.6618 26.9741L83.6297 27.0866C83.529 27.0913 83.4258 27.096 83.3216 27.096C81.9868 27.096 80.7036 26.605 79.7099 25.7155L77.9017 24.096L76.0946 25.7143C75.1009 26.605 73.8177 27.096 72.4829 27.096C72.3786 27.096 72.2755 27.0924 72.1736 27.0866L70.1416 26.9741L69.4666 28.8936C68.706 31.0592 66.6506 32.5146 64.3537 32.5146C61.3654 32.5146 58.9339 30.083 58.9339 27.0948C58.9339 25.7589 59.4237 24.4757 60.3132 23.4819L56.2761 19.869C54.496 21.8577 53.5151 24.4242 53.5151 27.096C53.5151 27.5694 53.5491 28.0358 53.6077 28.4941C51.9062 29.4562 50.5081 30.8601 49.546 32.53C48.605 30.9057 48.0964 29.0461 48.0964 27.0961C48.0964 23.5945 49.805 20.2897 52.6678 18.2554L52.6671 18.2554ZM53.5144 37.9348C53.5144 36.1934 54.3546 34.6021 55.6882 33.5989C56.5636 34.7626 57.6687 35.7422 58.9342 36.4758V43.3536C55.9459 43.3536 53.5144 40.922 53.5144 37.935L53.5144 37.9348ZM64.3531 51.0433V37.9348C68.2975 37.9348 71.8846 35.7879 73.7845 32.4376C75.2388 32.2618 76.6391 31.7942 77.9014 31.0642C79.1646 31.7942 80.5639 32.263 82.0183 32.4376C83.9179 35.7868 87.5062 37.9348 91.4506 37.9348V51.0433C91.4506 55.0006 88.9287 58.4998 85.1752 59.7514L83.3212 60.3678V70.0017L85.5466 70.406C85.7095 70.4353 85.8689 70.474 86.0318 70.5056L86.0306 73.1599C86.0306 77.6422 82.3838 81.2893 77.9012 81.2893C73.4189 81.2893 69.7718 77.6425 69.7718 73.1599V70.6111C70.0578 70.5115 70.3414 70.4072 70.6285 70.3111L72.4812 69.6935V60.3677L70.6285 59.7501C66.8749 58.4986 64.3531 55.0005 64.3531 51.0432L64.3531 51.0433ZM26.4181 51.4827C26.4181 49.9886 27.6333 48.7734 29.1274 48.7734H39.9661C41.4603 48.7734 42.6755 49.9886 42.6755 51.4827V54.6585C41.827 54.3574 40.9153 54.1921 39.9661 54.1921H31.8367C29.4051 54.1921 27.3427 55.8023 26.6581 58.0135C26.5046 57.6737 26.4179 57.2987 26.4179 56.9014L26.4181 51.4827ZM41.4169 111.231C39.7575 112.89 37.5508 113.804 35.2036 113.804C30.3592 113.804 26.4181 109.862 26.4181 105.017V64.5625C26.8669 64.7218 27.3333 64.8425 27.8137 64.9211C29.6747 68.2175 33.2089 70.4489 37.2568 70.4489V65.0291C34.2686 65.0291 31.837 62.5974 31.837 59.6093H39.9664C41.4606 59.6093 42.6758 60.8245 42.6758 62.3186V68.2025C42.6758 68.9267 42.3946 69.6064 41.8825 70.1185L37.2571 74.7451V102.965H42.6769V87.829L43.3132 87.1927C46.4326 84.0733 49.8592 81.2596 53.5156 78.7822V99.133L41.4169 111.231ZM53.758 138.647L55.7478 135.662C57.8314 132.537 58.9329 128.898 58.9329 125.141L58.9341 75.4551C60.7012 74.4777 62.5095 73.5766 64.3539 72.7551L64.3527 73.1582C64.3527 80.6288 70.4301 86.7062 77.9007 86.7062C85.3713 86.7062 91.4487 80.6288 91.4487 73.1582V72.0449C93.3495 72.7645 95.16 73.6493 96.8685 74.6781V125.138C96.8685 128.895 97.9701 132.534 100.054 135.659L102.043 138.644C102.203 138.883 102.287 139.162 102.287 139.449C102.287 140.248 101.637 140.899 100.838 140.899H54.9646C54.1654 140.899 53.515 140.248 53.515 139.449C53.515 139.162 53.5994 138.883 53.7587 138.645L53.758 138.647ZM57.1657 146.32H98.6467C103.631 150.353 106.837 156.244 107.554 162.579L48.247 162.578C48.9653 156.241 52.1776 150.353 57.1651 146.32L57.1657 146.32ZM113.002 162.578C112.831 160.733 112.486 158.917 111.981 157.151C114.188 157.097 116.254 156.461 118.027 155.387C119.774 156.539 121.818 157.159 123.967 157.159C127.202 157.159 130.109 155.733 132.096 153.478C134.084 155.732 136.99 157.159 140.226 157.159C143.461 157.159 146.368 155.733 148.355 153.478C150.343 155.732 153.249 157.159 156.484 157.159C157.803 157.159 159.065 156.922 160.234 156.49C160.999 158.444 161.513 160.494 161.75 162.579L113.002 162.578ZM161.902 146.32C161.902 149.309 159.47 151.74 156.482 151.74C153.494 151.74 151.062 149.308 151.062 146.32H145.642C145.642 149.309 143.211 151.74 140.222 151.74C137.234 151.74 134.803 149.308 134.803 146.32H129.383C129.383 149.309 126.951 151.74 123.963 151.74C123.307 151.74 122.673 151.619 122.079 151.399C123.271 149.506 123.963 147.268 123.963 144.87C123.963 141.588 122.685 138.501 120.363 136.18L118.548 134.359V130.061H152.325L160.856 142.858C161.542 143.887 161.904 145.084 161.904 146.32L161.902 146.32ZM174.794 124.643C172.446 124.643 170.241 123.729 168.58 122.069L161.494 114.983C161.762 113.366 161.903 111.729 161.903 110.092C161.903 106.87 161.386 103.686 160.368 100.63L156.762 89.8113C160.314 92.2418 163.645 94.9923 166.686 98.0331L167.323 98.6694L167.322 113.804H172.741V85.5855L168.116 80.9589C167.604 80.4468 167.323 79.7671 167.323 79.0429L167.321 73.159C167.321 71.6649 168.537 70.4497 170.031 70.4497H178.16C178.16 73.4379 175.729 75.8695 172.74 75.8695V81.2893C176.788 81.2893 180.321 79.058 182.183 75.7627C182.664 75.6842 183.13 75.5635 183.579 75.4041V115.859C183.579 120.701 179.638 124.643 174.794 124.643L174.794 124.643ZM183.339 68.8518C182.654 66.6417 180.592 65.0304 178.16 65.0304H170.031C169.082 65.0304 168.169 65.1957 167.321 65.4968V62.321C167.321 60.8269 168.537 59.6117 170.031 59.6117H180.869C182.364 59.6117 183.579 60.8269 183.579 62.321V67.7408C183.579 68.1369 183.492 68.5119 183.339 68.8518L183.339 68.8518Z" fill="#175DAE"/>
</g>
<defs>
<clipPath id="clip0_12_2219">
<rect width="210" height="210" fill="white"/>
</clipPath>
</defs>
</svg>
