<svg xmlns="http://www.w3.org/2000/svg" width="800" height="800" viewBox="0 0 800 800"><defs><style>.a{fill:#fff;opacity:0.65;}</style></defs><path class="a" d="M510.2,279H667.1s3.4,0,2.1-.9-4.7-1.2-4.7-1.7-2.1-.4-3.8-.8-4.7-.4-7.3-1.3a30.5,30.5,0,0,0-10.7-.9l-4.7.9c-2.5.4-3.8-2.1-6,0,0,0-3-5.6-5.9-5.6a52.4,52.4,0,0,0-9,1.3c-2.2.4-6.4-.4-8.6-.4s-6-.4-7.7.4a9.3,9.3,0,0,1-4.7,1.3c-1.7,0-10.7-2.1-12.4-2.1s-1.3-.5-4.5-.5a10.6,10.6,0,0,0-4.9.9c-1.3.4-2.1,1.3-3.8,1.7s-1.7,1.3-4.3,1.7-11.1-.4-12.4-.8a9.8,9.8,0,0,0-4.3-.9c-2.1,0-3.4-.9-5.5-.4a11.8,11.8,0,0,0-3,.8c-1.3.5-3.5,1.7-3.9,1.7s-1.7,3-6,3-6.8-.4-10.2-.4a34.7,34.7,0,0,0-7.3.4c-1.7.5-.9.6-3.4.7s-5.6.6-4.7,1S507.2,279,510.2,279Z"/><path class="a" d="M781.6,350.5c-10.4-.6-8.5-2.4-8.5-2.4s-18.4,0-29-.7-11.2-3.6-11.2-3.6c1.2-3.1,22.3-2.1,22.3-2.1-1.6-2.3,35.7-2.7,35.7-2.7s5.1-4,9.1-4v16S790.3,350.9,781.6,350.5Z"/><path class="a" d="M47.5,184.1s11.6,4.7,19.3,3.4c0,0,41,1.7,53,.9,0,0,17.1-.9,23.9-.9s20.5-.9,22.7-2.1a53.8,53.8,0,0,1,7.6-1.3c2.2,0,15.5,0,6.5-1.3s-9-.4-12-.9-9.4-.8-11.5-1.2-4.7-2.2-8.6-2.6-4.7.4-7.7-.4-9.4-2.6-11.9-2.6-3.5.8-5.6,0c-4.7-1.9-11.1-4.7-15-4.3s-5.5.9-5.5,2.2,1.3,1.7,2.5,1.7.8-.5,1.3-.5a1,1,0,0,1,.9,1.6c-.3.3-.4.6-.9.6a9.3,9.3,0,0,1-3-.9,21.7,21.7,0,0,0-5.1-.8,18.3,18.3,0,0,0-7.7.8c-3.4,1.3-3.4,2.6-6.8,3s-5.2-.4-9.9,0-7.2.4-9,1.3-2.5,3-6.8,3S46.2,182.8,47.5,184.1Z"/><path class="a" d="M188.2,33.4s-9,1-9,6,2,7.4,4.5,7.2,5.5-1.2,8.5-1.2,8,1.4,12.5,1.2,10.1.2,14.8,0,13.3.3,14.5.1,18.2-.3-6.8-4.3c0,0-1-5-12-4,0,0-4-3-11,0C204.2,38.4,203.2,31.4,188.2,33.4Z"/></svg>