<svg xmlns="http://www.w3.org/2000/svg" width="800" height="800" viewBox="0 0 800 800"><defs><style>.a{fill:#42a5f5;}.b{fill:none;stroke:#42a5f5;stroke-miterlimit:10;stroke-width:0.5px;}</style></defs><path class="a" d="M427.3,361.3a11.3,11.3,0,1,0-22.6,0c0,6.3,7,14.2,11.3,14.2S427.3,367.6,427.3,361.3Z"/><path class="a" d="M414.6,378.8h2.8a0,0,0,0,1,0,0v2.2a.6.6,0,0,1-.6.6h-1.6a.6.6,0,0,1-.6-.6v-2.2A0,0,0,0,1,414.6,378.8Z"/><polyline class="b" points="412.9 372.4 414.8 379.5 417.2 379.5 418.6 372.4"/></svg>