<svg xmlns="http://www.w3.org/2000/svg" xmlns:xlink="http://www.w3.org/1999/xlink" width="800" height="800" viewBox="0 0 800 800"><defs><style>.a{fill:#42a5f5;}.b,.c{opacity:0.5;}.b{fill:url(#a);}.c{fill:url(#b);}</style><linearGradient id="a" x1="382.86" y1="228.35" x2="567.23" y2="228.35" gradientUnits="userSpaceOnUse"><stop offset="0.28" stop-color="#fff" stop-opacity="0"/><stop offset="0.46" stop-color="#fff" stop-opacity="0.01"/><stop offset="0.58" stop-color="#fff" stop-opacity="0.05"/><stop offset="0.69" stop-color="#fff" stop-opacity="0.11"/><stop offset="0.79" stop-color="#fff" stop-opacity="0.19"/><stop offset="0.88" stop-color="#fff" stop-opacity="0.31"/><stop offset="0.97" stop-color="#fff" stop-opacity="0.44"/><stop offset="1" stop-color="#fff" stop-opacity="0.5"/></linearGradient><linearGradient id="b" x1="380.88" y1="228.02" x2="565.51" y2="228.02" gradientUnits="userSpaceOnUse"><stop offset="0.49" stop-color="#fff" stop-opacity="0"/><stop offset="0.62" stop-color="#fff" stop-opacity="0.01"/><stop offset="0.7" stop-color="#fff" stop-opacity="0.05"/><stop offset="0.78" stop-color="#fff" stop-opacity="0.11"/><stop offset="0.85" stop-color="#fff" stop-opacity="0.19"/><stop offset="0.92" stop-color="#fff" stop-opacity="0.31"/><stop offset="0.98" stop-color="#fff" stop-opacity="0.44"/><stop offset="1" stop-color="#fff" stop-opacity="0.5"/></linearGradient></defs><path class="a" d="M550.7,197.6l-2.3-.8.8-.4,1.7.2-1.9-3.5.6-.3,4,2.6h2.7s3.8-.7,3.8-1.1-3.1-1.6-3.1-1.6l-1.1-1.5h.4l1.5,1.2,4.3,1.1,9.2-2.7s3.1-.7,3.8-.4,1.6,0,1.6.4a3.8,3.8,0,0,1-2.3,1.9l-7,2s.4,0,.4,1.1l-2.5.6h-.4l-.3-.4-3.1.8a30.7,30.7,0,0,1-6.6,1.1H551l-.3-.3"/><path class="b" d="M565.3,196s-.8,1.2-5.8,2.4-93.2,31.1-106.7,35.8-64.3,26.5-64.3,26.5L382,246.5s55.8-11.6,68.9-15S557.6,198.4,558.3,198a38.3,38.3,0,0,1,7.7-1.8S566.1,195.8,565.3,196Z"/><path class="c" d="M563.3,195.8s-.8,1.1-5.8,2.3-93.2,31.2-106.7,35.8-64.3,26.6-64.3,26.6L380,246.2s55.8-11.5,68.9-15,106.7-33.1,107.5-33.5a35.1,35.1,0,0,1,7.7-1.8S565,195.2,563.3,195.8Z"/></svg>