<svg xmlns="http://www.w3.org/2000/svg" width="5120" height="1320" viewBox="0 0 5120 1320"><defs><style>.a{fill:#01579b;}.b,.c,.d,.e,.f,.g,.h{fill:#fff;}.b{opacity:0.5;}.c{opacity:0.78;}.d{opacity:0.31;}.e{opacity:0.34;}.f{opacity:0.6;}.g{opacity:0.29;}</style></defs><rect class="a" width="5120" height="1320"/><polygon class="b" points="3279.5 324.1 3278.1 325.5 3279.5 326.9 3281 325.5 3279.5 324.1"/><polygon class="b" points="3217.6 293.1 3216.2 294.6 3217.6 296 3219.1 294.6 3217.6 293.1"/><polygon class="b" points="3176.6 392.1 3175.2 393.6 3176.6 395 3178.1 393.6 3176.6 392.1"/><polygon class="c" points="3407.6 328.1 3406.2 329.6 3407.6 331 3409.1 329.6 3407.6 328.1"/><polygon class="b" points="3621.7 317.5 3620.3 318.9 3621.7 320.3 3623.3 318.9 3621.7 317.5"/><polygon class="b" points="3067.6 27.5 3066.2 28.9 3067.6 30.3 3069.1 28.9 3067.6 27.5"/><polygon class="b" points="3101.3 33.5 3099.9 34.9 3101.3 36.3 3102.8 34.9 3101.3 33.5"/><polygon class="b" points="3114.5 28.9 3113 30.3 3114.5 31.7 3116 30.3 3114.5 28.9"/><polygon class="b" points="3133.5 22.9 3132 24.3 3133.5 25.7 3135 24.3 3133.5 22.9"/><polygon class="b" points="3208.7 49.1 3207.3 50.5 3208.7 52 3210.2 50.5 3208.7 49.1"/><polygon class="b" points="3287.5 41.4 3286.1 42.9 3287.5 44.3 3289.1 42.9 3287.5 41.4"/><polygon class="b" points="3309.5 79.4 3308.1 80.9 3309.5 82.3 3311.1 80.9 3309.5 79.4"/><polygon class="b" points="3395.5 70.4 3394.1 71.9 3395.5 73.3 3397.1 71.9 3395.5 70.4"/><polygon class="b" points="3418.7 49 3417.3 50.5 3418.7 51.9 3420.2 50.5 3418.7 49"/><polygon class="b" points="3410.9 107.7 3409.4 109.1 3410.9 110.6 3412.4 109.1 3410.9 107.7"/><polygon class="b" points="3500 113.4 3498.5 114.8 3500 116.2 3501.5 114.8 3500 113.4"/><polygon class="b" points="3567.6 94.9 3566.2 96.4 3567.6 97.8 3569.1 96.4 3567.6 94.9"/><polygon class="b" points="3639.4 39.3 3637.9 40.7 3639.4 42.1 3640.9 40.7 3639.4 39.3"/><polygon class="b" points="3530.5 9.1 3529.1 10.5 3530.5 11.9 3532 10.5 3530.5 9.1"/><polygon class="b" points="3743.2 53.1 3741.8 54.5 3743.2 55.9 3744.7 54.5 3743.2 53.1"/><polygon class="b" points="3651.8 115.2 3650.4 116.7 3651.8 118.1 3653.4 116.7 3651.8 115.2"/><polygon class="b" points="3753.2 114.7 3751.8 116.2 3753.2 117.6 3754.7 116.2 3753.2 114.7"/><polygon class="b" points="3803.2 448.7 3801.8 450.2 3803.2 451.6 3804.7 450.2 3803.2 448.7"/><polygon class="b" points="3856.5 44.8 3855.1 46.3 3856.5 47.7 3858 46.3 3856.5 44.8"/><polygon class="b" points="3888.5 63.8 3887.1 65.3 3888.5 66.7 3890 65.3 3888.5 63.8"/><polygon class="b" points="3876.5 162.8 3875.1 164.3 3876.5 165.7 3878 164.3 3876.5 162.8"/><polygon class="b" points="3914.2 195.2 3912.8 196.6 3914.2 198 3915.7 196.6 3914.2 195.2"/><polygon class="b" points="3798.8 185.3 3797.4 186.7 3798.8 188.2 3800.4 186.7 3798.8 185.3"/><polygon class="b" points="3782.8 214.3 3781.4 215.7 3782.8 217.2 3784.4 215.7 3782.8 214.3"/><polygon class="b" points="3723.7 179.3 3722.3 180.7 3723.7 182.2 3725.3 180.7 3723.7 179.3"/><polygon class="b" points="3696.7 188.3 3695.3 189.7 3696.7 191.2 3698.3 189.7 3696.7 188.3"/><polygon class="b" points="3562.8 176.1 3561.4 177.5 3562.8 178.9 3564.4 177.5 3562.8 176.1"/><polygon class="b" points="3591.8 202.1 3590.4 203.5 3591.8 204.9 3593.4 203.5 3591.8 202.1"/><polygon class="b" points="3464.8 388.1 3463.4 389.5 3464.8 390.9 3466.4 389.5 3464.8 388.1"/><polygon class="b" points="3371.5 110 3370.1 111.4 3371.5 112.8 3373 111.4 3371.5 110"/><polygon class="b" points="3308.6 214.6 3307.2 216.1 3308.6 217.5 3310.1 216.1 3308.6 214.6"/><polygon class="b" points="3284.6 216.6 3283.2 218.1 3284.6 219.5 3286.1 218.1 3284.6 216.6"/><polygon class="b" points="3291.6 250.6 3290.2 252.1 3291.6 253.5 3293.1 252.1 3291.6 250.6"/><polygon class="b" points="2811.4 233.5 2810 234.9 2811.4 236.4 2812.9 234.9 2811.4 233.5"/><polygon class="b" points="2779.4 276.5 2778 277.9 2779.4 279.4 2780.9 277.9 2779.4 276.5"/><polygon class="b" points="2786.4 286.5 2785 287.9 2786.4 289.4 2787.9 287.9 2786.4 286.5"/><polygon class="c" points="3003.2 358.1 3001.8 359.5 3003.2 360.9 3004.7 359.5 3003.2 358.1"/><polygon class="c" points="3045.2 358.1 3043.8 359.5 3045.2 360.9 3046.7 359.5 3045.2 358.1"/><polygon class="c" points="2920.3 360.6 2918.9 362.1 2920.3 363.5 2921.8 362.1 2920.3 360.6"/><polygon class="b" points="2741.3 299.1 2739.9 300.5 2741.3 301.9 2742.8 300.5 2741.3 299.1"/><polygon class="b" points="3394 272.4 3392.5 273.8 3394 275.3 3395.5 273.8 3394 272.4"/><polygon class="b" points="3463 271.4 3461.5 272.8 3463 274.3 3464.5 272.8 3463 271.4"/><polygon class="b" points="3437 462.4 3435.5 463.8 3437 465.3 3438.5 463.8 3437 462.4"/><polygon class="d" points="3490.2 419 3488.8 420.4 3490.2 421.8 3491.7 420.4 3490.2 419"/><polygon class="b" points="3504.2 411 3502.8 412.4 3504.2 413.8 3505.7 412.4 3504.2 411"/><polygon class="b" points="3577.2 271 3575.8 272.4 3577.2 273.8 3578.7 272.4 3577.2 271"/><polygon class="b" points="3716.1 260.8 3714.6 262.2 3716.1 263.7 3717.6 262.2 3716.1 260.8"/><polygon class="b" points="3831.3 261.2 3829.9 262.6 3831.3 264 3832.8 262.6 3831.3 261.2"/><polygon class="c" points="3792.3 326.2 3790.9 327.6 3792.3 329 3793.8 327.6 3792.3 326.2"/><polygon class="b" points="3881.3 308.2 3879.9 309.6 3881.3 311 3882.8 309.6 3881.3 308.2"/><polygon class="b" points="3880.3 235.2 3878.9 236.6 3880.3 238 3881.8 236.6 3880.3 235.2"/><polygon class="b" points="2922.4 27.1 2921 28.5 2922.4 29.9 2923.9 28.5 2922.4 27.1"/><polygon class="b" points="2955.4 3.1 2954 4.5 2955.4 5.9 2956.9 4.5 2955.4 3.1"/><polygon class="b" points="2717.6 318 2716.9 318.8 2717.6 319.6 2718.5 318.8 2717.6 318"/><polygon class="b" points="2771.6 318 2770.9 318.8 2771.6 319.6 2772.5 318.8 2771.6 318"/><polygon class="b" points="2746.5 316 2745.7 316.8 2746.5 317.5 2747.4 316.8 2746.5 316"/><polygon class="b" points="3045.4 332.3 3044.6 333.1 3045.4 333.8 3046.3 333.1 3045.4 332.3"/><polygon class="b" points="3091.8 332.6 3091 333.4 3091.8 334.2 3092.6 333.4 3091.8 332.6"/><polygon class="b" points="3016.8 86.6 3016 87.4 3016.8 88.2 3017.6 87.4 3016.8 86.6"/><polygon class="b" points="3153.1 44.4 3152.3 45.2 3153.1 46 3153.9 45.2 3153.1 44.4"/><polygon class="b" points="3151.8 66.1 3151 66.9 3151.8 67.7 3152.6 66.9 3151.8 66.1"/><polygon class="b" points="3357 55.8 3356.2 56.5 3357 57.3 3357.8 56.5 3357 55.8"/><polygon class="b" points="3377 44.8 3376.2 45.5 3377 46.3 3377.8 45.5 3377 44.8"/><polygon class="c" points="3377 133.8 3376.2 134.5 3377 135.3 3377.8 134.5 3377 133.8"/><polygon class="c" points="3421 128.8 3420.2 129.5 3421 130.3 3421.8 129.5 3421 128.8"/><polygon class="b" points="3463 71.8 3462.2 72.5 3463 73.3 3463.8 72.5 3463 71.8"/><polygon class="d" points="3482 98.8 3481.2 99.5 3482 100.3 3482.8 99.5 3482 98.8"/><polygon class="b" points="3660.9 120.4 3660.1 121.2 3660.9 122 3661.7 121.2 3660.9 120.4"/><polygon class="c" points="3709.9 134.4 3709.1 135.2 3709.9 136 3710.7 135.2 3709.9 134.4"/><polygon class="b" points="3756.9 66.3 3756.1 67.1 3756.9 67.8 3757.7 67.1 3756.9 66.3"/><polygon class="b" points="3789.1 413.8 3788.4 414.5 3789.1 415.3 3790 414.5 3789.1 413.8"/><polygon class="b" points="3872.1 82.8 3871.4 83.5 3872.1 84.3 3873 83.5 3872.1 82.8"/><polygon class="b" points="3831.1 57.8 3830.4 58.5 3831.1 59.3 3832 58.5 3831.1 57.8"/><polygon class="b" points="3810.1 18.8 3809.4 19.5 3810.1 20.3 3811 19.5 3810.1 18.8"/><polygon class="b" points="3762.9 248.6 3762.1 249.4 3762.9 250.2 3763.7 249.4 3762.9 248.6"/><polygon class="b" points="3887.3 218.2 3886.5 219 3887.3 219.8 3888.1 219 3887.3 218.2"/><polygon class="b" points="3894.3 228.2 3893.5 229 3894.3 229.8 3895.1 229 3894.3 228.2"/><polygon class="d" points="3492.3 433.1 3491.5 433.9 3492.3 434.7 3493.1 433.9 3492.3 433.1"/><polygon class="b" points="3385.6 235.8 3384.9 236.6 3385.6 237.4 3386.5 236.6 3385.6 235.8"/><polygon class="b" points="3419 200.7 3418.2 201.5 3419 202.3 3419.8 201.5 3419 200.7"/><polygon class="c" points="2820.1 393 2819.3 393.8 2820.1 394.6 2820.9 393.8 2820.1 393"/><polygon class="c" points="3150.6 326.2 3149.9 326.9 3150.6 327.7 3151.5 326.9 3150.6 326.2"/><polygon class="c" points="2714.5 394.2 2713.7 394.9 2714.5 395.7 2715.4 394.9 2714.5 394.2"/><polygon class="b" points="2302.7 445 2301.3 446.5 2302.7 447.9 2304.2 446.5 2302.7 445"/><polygon class="b" points="2240.8 414.1 2239.4 415.5 2240.8 417 2242.4 415.5 2240.8 414.1"/><polygon class="b" points="2199.8 513.1 2198.4 514.5 2199.8 516 2201.4 514.5 2199.8 513.1"/><polygon class="b" points="2430.8 449.1 2429.4 450.5 2430.8 452 2432.4 450.5 2430.8 449.1"/><polygon class="b" points="2645 438.4 2643.5 439.9 2645 441.3 2646.5 439.9 2645 438.4"/><polygon class="c" points="2090.8 148.5 2089.4 149.9 2090.8 151.3 2092.4 149.9 2090.8 148.5"/><polygon class="b" points="2124.5 154.5 2123.1 155.9 2124.5 157.3 2126 155.9 2124.5 154.5"/><polygon class="c" points="2137.7 149.8 2136.3 151.3 2137.7 152.7 2139.2 151.3 2137.7 149.8"/><polygon class="c" points="2156.7 143.8 2155.3 145.3 2156.7 146.7 2158.2 145.3 2156.7 143.8"/><polygon class="b" points="2231.9 170.1 2230.5 171.5 2231.9 172.9 2233.4 171.5 2231.9 170.1"/><polygon class="b" points="2310.8 162.4 2309.3 163.8 2310.8 165.3 2312.3 163.8 2310.8 162.4"/><polygon class="b" points="2332.8 200.4 2331.3 201.8 2332.8 203.3 2334.3 201.8 2332.8 200.4"/><polygon class="b" points="2418.8 191.4 2417.3 192.8 2418.8 194.3 2420.3 192.8 2418.8 191.4"/><polygon class="b" points="2441.9 170 2440.5 171.4 2441.9 172.9 2443.4 171.4 2441.9 170"/><polygon class="b" points="2434.1 228.7 2432.7 230.1 2434.1 231.5 2435.6 230.1 2434.1 228.7"/><polygon class="b" points="2523.2 234.3 2521.8 235.8 2523.2 237.2 2524.7 235.8 2523.2 234.3"/><polygon class="b" points="2662.6 160.2 2661.2 161.7 2662.6 163.1 2664.1 161.7 2662.6 160.2"/><polygon class="c" points="2553.7 130 2552.3 131.5 2553.7 132.9 2555.3 131.5 2553.7 130"/><polygon class="b" points="2601.7 214.8 2600.3 216.3 2601.7 217.7 2603.3 216.3 2601.7 214.8"/><polygon class="b" points="2633.7 233.8 2632.3 235.3 2633.7 236.7 2635.3 235.3 2633.7 233.8"/><polygon class="b" points="2621.7 332.8 2620.3 334.3 2621.7 335.7 2623.3 334.3 2621.7 332.8"/><polygon class="b" points="2659.4 365.2 2658 366.6 2659.4 368 2660.9 366.6 2659.4 365.2"/><polygon class="c" points="2541.1 371 2539.6 372.5 2541.1 373.9 2542.6 372.5 2541.1 371"/><polygon class="b" points="2394.7 230.9 2393.3 232.4 2394.7 233.8 2396.3 232.4 2394.7 230.9"/><polygon class="c" points="2331.8 335.6 2330.4 337 2331.8 338.5 2333.4 337 2331.8 335.6"/><polygon class="c" points="2307.8 337.6 2306.4 339 2307.8 340.5 2309.4 339 2307.8 337.6"/><polygon class="e" points="2314.8 371.6 2313.4 373 2314.8 374.5 2316.4 373 2314.8 371.6"/><polygon class="b" points="2112.6 305.5 2111.2 306.9 2112.6 308.3 2114.1 306.9 2112.6 305.5"/><polygon class="e" points="2080.6 348.5 2079.2 349.9 2080.6 351.3 2082.1 349.9 2080.6 348.5"/><polygon class="e" points="2087.6 358.5 2086.2 359.9 2087.6 361.3 2089.1 359.9 2087.6 358.5"/><polygon class="b" points="2021.4 247 2020 248.5 2021.4 249.9 2022.9 248.5 2021.4 247"/><polygon class="b" points="2063.4 247 2062 248.5 2063.4 249.9 2064.9 248.5 2063.4 247"/><polygon class="b" points="1938.5 249.6 1937.1 251 1938.5 252.5 1940 251 1938.5 249.6"/><polygon class="e" points="2042.5 371 2041.1 372.5 2042.5 373.9 2044 372.5 2042.5 371"/><polygon class="b" points="2417.2 393.4 2415.8 394.8 2417.2 396.2 2418.7 394.8 2417.2 393.4"/><polygon class="b" points="2486.2 392.4 2484.8 393.8 2486.2 395.2 2487.7 393.8 2486.2 392.4"/><polygon class="b" points="2513.2 445.4 2511.8 446.8 2513.2 448.2 2514.7 446.8 2513.2 445.4"/><polygon class="c" points="2854.5 382.1 2853.1 383.6 2854.5 385 2856 383.6 2854.5 382.1"/><polygon class="b" points="2815.5 447.1 2814.1 448.6 2815.5 450 2817 448.6 2815.5 447.1"/><polygon class="b" points="2904.5 429.1 2903.1 430.6 2904.5 432 2906 430.6 2904.5 429.1"/><polygon class="c" points="2625.5 405.1 2624.1 406.6 2625.5 408 2627 406.6 2625.5 405.1"/><polygon class="c" points="1945.6 148 1944.2 149.5 1945.6 150.9 1947.1 149.5 1945.6 148"/><polygon class="c" points="1978.6 124 1977.2 125.5 1978.6 126.9 1980.1 125.5 1978.6 124"/><polygon class="b" points="2018.9 390 2018.1 390.8 2018.9 391.6 2019.7 390.8 2018.9 390"/><polygon class="b" points="2072.9 390 2072.1 390.8 2072.9 391.6 2073.7 390.8 2072.9 390"/><polygon class="b" points="2047.8 387.9 2047 388.7 2047.8 389.5 2048.6 388.7 2047.8 387.9"/><polygon class="b" points="2063.6 221.2 2062.9 222 2063.6 222.8 2064.5 222 2063.6 221.2"/><polygon class="b" points="2110 221.6 2109.2 222.4 2110 223.2 2110.9 222.4 2110 221.6"/><polygon class="b" points="2040 207.6 2039.2 208.4 2040 209.2 2040.9 208.4 2040 207.6"/><polygon class="b" points="2176.3 165.3 2175.5 166.1 2176.3 166.9 2177.1 166.1 2176.3 165.3"/><polygon class="b" points="2175 187.1 2174.2 187.9 2175 188.7 2175.9 187.9 2175 187.1"/><polygon class="b" points="2380.2 176.7 2379.4 177.5 2380.2 178.3 2381 177.5 2380.2 176.7"/><polygon class="b" points="2400.2 165.7 2399.4 166.5 2400.2 167.3 2401 166.5 2400.2 165.7"/><polygon class="b" points="2400.2 254.7 2399.4 255.5 2400.2 256.3 2401 255.5 2400.2 254.7"/><polygon class="b" points="2444.2 249.7 2443.4 250.5 2444.2 251.3 2445 250.5 2444.2 249.7"/><polygon class="b" points="2486.2 192.7 2485.4 193.5 2486.2 194.3 2487 193.5 2486.2 192.7"/><polygon class="b" points="2505.2 219.7 2504.4 220.5 2505.2 221.3 2506 220.5 2505.2 219.7"/><polygon class="b" points="2617.4 252.7 2616.6 253.5 2617.4 254.3 2618.2 253.5 2617.4 252.7"/><polygon class="b" points="2576.4 227.7 2575.6 228.5 2576.4 229.3 2577.2 228.5 2576.4 227.7"/><polygon class="c" points="2833.4 139.7 2832.6 140.5 2833.4 141.3 2834.2 140.5 2833.4 139.7"/><polygon class="c" points="2632.5 388.1 2631.7 388.9 2632.5 389.7 2633.4 388.9 2632.5 388.1"/><polygon class="c" points="2639.5 398.1 2638.7 398.9 2639.5 399.7 2640.4 398.9 2639.5 398.1"/><polygon class="b" points="2568.5 416.1 2567.7 416.9 2568.5 417.7 2569.4 416.9 2568.5 416.1"/><polygon class="c" points="2408.9 356.8 2408.1 357.6 2408.9 358.3 2409.7 357.6 2408.9 356.8"/><polygon class="b" points="2442.2 321.7 2441.4 322.5 2442.2 323.3 2443 322.5 2442.2 321.7"/><polygon class="b" points="2121.3 465 2120.5 465.8 2121.3 466.5 2122.1 465.8 2121.3 465"/><polygon class="b" points="2173.9 447.1 2173.1 447.9 2173.9 448.7 2174.7 447.9 2173.9 447.1"/><polygon class="b" points="2015.8 466.1 2015 466.9 2015.8 467.7 2016.6 466.9 2015.8 466.1"/><polygon class="b" points="1290.7 325 1289.3 326.5 1290.7 327.9 1292.2 326.5 1290.7 325"/><polygon class="b" points="1228.8 294.1 1227.4 295.5 1228.8 297 1230.4 295.5 1228.8 294.1"/><polygon class="b" points="1187.8 393.1 1186.4 394.5 1187.8 396 1189.4 394.5 1187.8 393.1"/><polygon class="b" points="1418.8 329.1 1417.4 330.5 1418.8 332 1420.4 330.5 1418.8 329.1"/><polygon class="b" points="1633 318.4 1631.5 319.9 1633 321.3 1634.5 319.9 1633 318.4"/><polygon class="f" points="1078.8 28.5 1077.4 29.9 1078.8 31.3 1080.4 29.9 1078.8 28.5"/><polygon class="f" points="1112.5 34.5 1111.1 35.9 1112.5 37.3 1114 35.9 1112.5 34.5"/><polygon class="f" points="1125.7 29.8 1124.3 31.3 1125.7 32.7 1127.2 31.3 1125.7 29.8"/><polygon class="f" points="1144.7 23.8 1143.3 25.3 1144.7 26.7 1146.2 25.3 1144.7 23.8"/><polygon class="b" points="1219.9 50.1 1218.5 51.5 1219.9 52.9 1221.4 51.5 1219.9 50.1"/><polygon class="f" points="1298.8 42.4 1297.3 43.8 1298.8 45.3 1300.3 43.8 1298.8 42.4"/><polygon class="b" points="1320.8 80.4 1319.3 81.8 1320.8 83.3 1322.3 81.8 1320.8 80.4"/><polygon class="f" points="1406.8 71.4 1405.3 72.8 1406.8 74.3 1408.3 72.8 1406.8 71.4"/><polygon class="f" points="1429.9 50 1428.5 51.4 1429.9 52.9 1431.4 51.4 1429.9 50"/><polygon class="b" points="1422.1 108.7 1420.7 110.1 1422.1 111.5 1423.6 110.1 1422.1 108.7"/><polygon class="b" points="1511.2 114.3 1509.8 115.8 1511.2 117.2 1512.7 115.8 1511.2 114.3"/><polygon class="b" points="1578.8 95.9 1577.4 97.3 1578.8 98.8 1580.4 97.3 1578.8 95.9"/><polygon class="f" points="1650.6 40.2 1649.2 41.7 1650.6 43.1 1652.1 41.7 1650.6 40.2"/><polygon class="f" points="1541.7 10 1540.3 11.5 1541.7 12.9 1543.3 11.5 1541.7 10"/><polygon class="b" points="1754.4 54 1753 55.5 1754.4 56.9 1755.9 55.5 1754.4 54"/><polygon class="b" points="1663.1 116.2 1661.6 117.6 1663.1 119.1 1664.6 117.6 1663.1 116.2"/><polygon class="b" points="1764.4 115.7 1763 117.1 1764.4 118.6 1765.9 117.1 1764.4 115.7"/><polygon class="c" points="1840.4 145.7 1839 147.1 1840.4 148.6 1841.9 147.1 1840.4 145.7"/><polygon class="f" points="1867.7 45.8 1866.3 47.3 1867.7 48.7 1869.3 47.3 1867.7 45.8"/><polygon class="b" points="1899.7 64.8 1898.3 66.3 1899.7 67.7 1901.3 66.3 1899.7 64.8"/><polygon class="b" points="1887.7 163.8 1886.3 165.3 1887.7 166.7 1889.3 165.3 1887.7 163.8"/><polygon class="b" points="1925.4 196.2 1924 197.6 1925.4 199 1926.9 197.6 1925.4 196.2"/><polygon class="b" points="1810.1 186.3 1808.6 187.7 1810.1 189.1 1811.6 187.7 1810.1 186.3"/><polygon class="b" points="1794.1 215.3 1792.6 216.7 1794.1 218.1 1795.6 216.7 1794.1 215.3"/><polygon class="b" points="1735 180.3 1733.5 181.7 1735 183.1 1736.5 181.7 1735 180.3"/><polygon class="b" points="1708 189.3 1706.5 190.7 1708 192.1 1709.5 190.7 1708 189.3"/><polygon class="b" points="1574.1 177 1572.6 178.5 1574.1 179.9 1575.6 178.5 1574.1 177"/><polygon class="b" points="1603.1 203 1601.6 204.5 1603.1 205.9 1604.6 204.5 1603.1 203"/><polygon class="b" points="1529.1 251 1527.6 252.5 1529.1 253.9 1530.6 252.5 1529.1 251"/><polygon class="b" points="1382.7 110.9 1381.3 112.4 1382.7 113.8 1384.3 112.4 1382.7 110.9"/><polygon class="b" points="1319.8 215.6 1318.4 217 1319.8 218.5 1321.4 217 1319.8 215.6"/><polygon class="b" points="1295.8 217.6 1294.4 219 1295.8 220.5 1297.4 219 1295.8 217.6"/><polygon class="b" points="1302.8 251.6 1301.4 253 1302.8 254.5 1304.4 253 1302.8 251.6"/><polygon class="b" points="1100.6 185.5 1099.2 186.9 1100.6 188.3 1102.1 186.9 1100.6 185.5"/><polygon class="b" points="1068.6 228.5 1067.2 229.9 1068.6 231.3 1070.1 229.9 1068.6 228.5"/><polygon class="b" points="1075.6 238.5 1074.2 239.9 1075.6 241.3 1077.1 239.9 1075.6 238.5"/><polygon class="b" points="1009.4 127 1008 128.5 1009.4 129.9 1010.9 128.5 1009.4 127"/><polygon class="b" points="1051.4 127 1050 128.5 1051.4 129.9 1052.9 128.5 1051.4 127"/><polygon class="b" points="926.5 129.6 925.1 131 926.5 132.5 928 131 926.5 129.6"/><polygon class="b" points="1030.5 251 1029.1 252.5 1030.5 253.9 1032 252.5 1030.5 251"/><polygon class="b" points="1405.2 273.4 1403.8 274.8 1405.2 276.2 1406.7 274.8 1405.2 273.4"/><polygon class="b" points="1474.2 272.4 1472.8 273.8 1474.2 275.2 1475.7 273.8 1474.2 272.4"/><polygon class="b" points="1501.2 325.4 1499.8 326.8 1501.2 328.2 1502.7 326.8 1501.2 325.4"/><polygon class="b" points="1554.4 281.9 1553 283.4 1554.4 284.8 1555.9 283.4 1554.4 281.9"/><polygon class="b" points="1568.4 273.9 1567 275.4 1568.4 276.8 1569.9 275.4 1568.4 273.9"/><polygon class="b" points="1588.4 271.9 1587 273.4 1588.4 274.8 1589.9 273.4 1588.4 271.9"/><polygon class="b" points="1727.3 261.8 1725.9 263.2 1727.3 264.6 1728.8 263.2 1727.3 261.8"/><polygon class="b" points="1842.5 262.1 1841.1 263.6 1842.5 265 1844 263.6 1842.5 262.1"/><polygon class="b" points="1803.5 327.1 1802.1 328.6 1803.5 330 1805 328.6 1803.5 327.1"/><polygon class="b" points="1892.5 309.1 1891.1 310.6 1892.5 312 1894 310.6 1892.5 309.1"/><polygon class="b" points="1891.5 236.1 1890.1 237.6 1891.5 239 1893 237.6 1891.5 236.1"/><polygon class="b" points="933.6 28 932.2 29.5 933.6 30.9 935.1 29.5 933.6 28"/><polygon class="b" points="966.6 4 965.2 5.5 966.6 6.9 968.1 5.5 966.6 4"/><polygon class="b" points="1006.9 270 1006.1 270.8 1006.9 271.6 1007.7 270.8 1006.9 270"/><polygon class="b" points="1060.9 270 1060.1 270.8 1060.9 271.6 1061.7 270.8 1060.9 270"/><polygon class="b" points="1035.8 267.9 1035 268.7 1035.8 269.5 1036.6 268.7 1035.8 267.9"/><polygon class="b" points="1051.6 101.2 1050.9 102 1051.6 102.8 1052.5 102 1051.6 101.2"/><polygon class="b" points="1098 101.6 1097.2 102.4 1098 103.2 1098.9 102.4 1098 101.6"/><polygon class="b" points="1028 87.6 1027.2 88.4 1028 89.2 1028.9 88.4 1028 87.6"/><polygon class="f" points="1164.3 45.3 1163.5 46.1 1164.3 46.9 1165.1 46.1 1164.3 45.3"/><polygon class="b" points="1163 67.1 1162.2 67.9 1163 68.7 1163.9 67.9 1163 67.1"/><polygon class="f" points="1368.2 56.7 1367.4 57.5 1368.2 58.3 1369 57.5 1368.2 56.7"/><polygon class="f" points="1388.2 45.7 1387.4 46.5 1388.2 47.3 1389 46.5 1388.2 45.7"/><polygon class="b" points="1388.2 134.7 1387.4 135.5 1388.2 136.3 1389 135.5 1388.2 134.7"/><polygon class="b" points="1432.2 129.7 1431.4 130.5 1432.2 131.3 1433 130.5 1432.2 129.7"/><polygon class="b" points="1474.2 72.7 1473.4 73.5 1474.2 74.3 1475 73.5 1474.2 72.7"/><polygon class="b" points="1493.2 99.7 1492.4 100.5 1493.2 101.3 1494 100.5 1493.2 99.7"/><polygon class="b" points="1672.1 121.3 1671.3 122.1 1672.1 122.9 1672.9 122.1 1672.1 121.3"/><polygon class="b" points="1721.1 135.3 1720.3 136.1 1721.1 136.9 1721.9 136.1 1721.1 135.3"/><polygon class="b" points="1768.1 67.2 1767.3 68 1768.1 68.8 1768.9 68 1768.1 67.2"/><polygon class="b" points="1826.4 110.7 1825.6 111.5 1826.4 112.3 1827.2 111.5 1826.4 110.7"/><polygon class="b" points="1883.4 83.7 1882.6 84.5 1883.4 85.3 1884.2 84.5 1883.4 83.7"/><polygon class="b" points="1842.4 58.7 1841.6 59.5 1842.4 60.3 1843.2 59.5 1842.4 58.7"/><polygon class="f" points="1821.4 19.7 1820.6 20.5 1821.4 21.3 1822.2 20.5 1821.4 19.7"/><polygon class="b" points="1774.1 249.6 1773.3 250.4 1774.1 251.2 1774.9 250.4 1774.1 249.6"/><polygon class="b" points="1898.5 219.1 1897.7 219.9 1898.5 220.7 1899.4 219.9 1898.5 219.1"/><polygon class="b" points="1905.5 229.1 1904.7 229.9 1905.5 230.7 1906.4 229.9 1905.5 229.1"/><polygon class="b" points="1556.5 296.1 1555.7 296.9 1556.5 297.7 1557.4 296.9 1556.5 296.1"/><polygon class="b" points="1396.9 236.8 1396.1 237.6 1396.9 238.3 1397.7 237.6 1396.9 236.8"/><polygon class="b" points="1430.2 201.7 1429.4 202.5 1430.2 203.3 1431 202.5 1430.2 201.7"/><polygon class="e" points="1109.3 345 1108.5 345.8 1109.3 346.5 1110.1 345.8 1109.3 345"/><polygon class="b" points="1161.9 327.1 1161.1 327.9 1161.9 328.7 1162.7 327.9 1161.9 327.1"/><polygon class="e" points="1003.8 346.1 1003 346.9 1003.8 347.7 1004.6 346.9 1003.8 346.1"/><polygon class="b" points="363.7 481 362.3 482.5 363.7 483.9 365.2 482.5 363.7 481"/><polygon class="b" points="301.8 450.1 300.4 451.5 301.8 453 303.4 451.5 301.8 450.1"/><polygon class="b" points="260.8 549.1 259.4 550.5 260.8 552 262.4 550.5 260.8 549.1"/><polygon class="b" points="491.8 485.1 490.4 486.5 491.8 488 493.4 486.5 491.8 485.1"/><polygon class="b" points="706 474.4 704.5 475.9 706 477.3 707.5 475.9 706 474.4"/><polygon class="b" points="151.8 184.5 150.4 185.9 151.8 187.3 153.4 185.9 151.8 184.5"/><polygon class="b" points="185.5 190.5 184.1 191.9 185.5 193.3 187 191.9 185.5 190.5"/><polygon class="b" points="198.7 185.8 197.3 187.3 198.7 188.7 200.2 187.3 198.7 185.8"/><polygon class="b" points="217.7 179.8 216.3 181.3 217.7 182.7 219.2 181.3 217.7 179.8"/><polygon class="b" points="292.9 206.1 291.5 207.5 292.9 208.9 294.4 207.5 292.9 206.1"/><polygon class="b" points="371.8 198.4 370.3 199.8 371.8 201.3 373.3 199.8 371.8 198.4"/><polygon class="b" points="393.8 236.4 392.3 237.8 393.8 239.3 395.3 237.8 393.8 236.4"/><polygon class="b" points="479.8 227.4 478.3 228.8 479.8 230.3 481.3 228.8 479.8 227.4"/><polygon class="b" points="502.9 206 501.5 207.4 502.9 208.9 504.4 207.4 502.9 206"/><polygon class="b" points="495.1 264.7 493.7 266.1 495.1 267.5 496.6 266.1 495.1 264.7"/><polygon class="b" points="584.2 270.3 582.8 271.8 584.2 273.2 585.7 271.8 584.2 270.3"/><polygon class="b" points="651.8 251.9 650.4 253.3 651.8 254.8 653.4 253.3 651.8 251.9"/><polygon class="b" points="723.6 196.2 722.2 197.7 723.6 199.1 725.1 197.7 723.6 196.2"/><polygon class="b" points="614.7 166 613.3 167.5 614.7 168.9 616.3 167.5 614.7 166"/><polygon class="b" points="827.4 210 826 211.5 827.4 212.9 828.9 211.5 827.4 210"/><polygon class="b" points="736.1 272.2 734.6 273.6 736.1 275.1 737.6 273.6 736.1 272.2"/><polygon class="b" points="837.4 271.7 836 273.1 837.4 274.6 838.9 273.1 837.4 271.7"/><polygon class="b" points="913.4 301.7 912 303.1 913.4 304.6 914.9 303.1 913.4 301.7"/><polygon class="b" points="940.7 201.8 939.3 203.3 940.7 204.7 942.3 203.3 940.7 201.8"/><polygon class="b" points="972.7 220.8 971.3 222.3 972.7 223.7 974.3 222.3 972.7 220.8"/><polygon class="b" points="960.7 319.8 959.3 321.3 960.7 322.7 962.3 321.3 960.7 319.8"/><polygon class="e" points="998.4 352.2 997 353.6 998.4 355 999.9 353.6 998.4 352.2"/><polygon class="e" points="883.1 342.3 881.6 343.7 883.1 345.1 884.6 343.7 883.1 342.3"/><polygon class="e" points="867.1 371.3 865.6 372.7 867.1 374.1 868.6 372.7 867.1 371.3"/><polygon class="b" points="808 336.3 806.5 337.7 808 339.1 809.5 337.7 808 336.3"/><polygon class="b" points="647.1 333 645.6 334.5 647.1 335.9 648.6 334.5 647.1 333"/><polygon class="b" points="676.1 359 674.6 360.5 676.1 361.9 677.6 360.5 676.1 359"/><polygon class="b" points="602.1 407 600.6 408.5 602.1 409.9 603.6 408.5 602.1 407"/><polygon class="b" points="455.7 266.9 454.3 268.4 455.7 269.8 457.3 268.4 455.7 266.9"/><polygon class="b" points="392.8 371.6 391.4 373 392.8 374.5 394.4 373 392.8 371.6"/><polygon class="b" points="368.8 373.6 367.4 375 368.8 376.5 370.4 375 368.8 373.6"/><polygon class="b" points="375.8 407.6 374.4 409 375.8 410.5 377.4 409 375.8 407.6"/><polygon class="b" points="173.6 341.5 172.2 342.9 173.6 344.3 175.1 342.9 173.6 341.5"/><polygon class="b" points="148.6 394.5 147.2 395.9 148.6 397.3 150.1 395.9 148.6 394.5"/><polygon class="b" points="82.4 283 81 284.5 82.4 285.9 83.9 284.5 82.4 283"/><polygon class="b" points="124.4 283 123 284.5 124.4 285.9 125.9 284.5 124.4 283"/><polygon class="b" points="-0.5 285.6 -1.9 287 -0.5 288.5 1 287 -0.5 285.6"/><polygon class="b" points="103.5 407 102.1 408.5 103.5 409.9 105 408.5 103.5 407"/><polygon class="b" points="478.2 429.4 476.8 430.8 478.2 432.2 479.7 430.8 478.2 429.4"/><polygon class="b" points="547.2 428.4 545.8 429.8 547.2 431.2 548.7 429.8 547.2 428.4"/><polygon class="b" points="574.2 481.4 572.8 482.8 574.2 484.2 575.7 482.8 574.2 481.4"/><polygon class="b" points="627.4 437.9 626 439.4 627.4 440.8 628.9 439.4 627.4 437.9"/><polygon class="b" points="641.4 429.9 640 431.4 641.4 432.8 642.9 431.4 641.4 429.9"/><polygon class="b" points="661.4 427.9 660 429.4 661.4 430.8 662.9 429.4 661.4 427.9"/><polygon class="b" points="915.5 418.1 914.1 419.6 915.5 421 917 419.6 915.5 418.1"/><polygon class="b" points="876.5 483.1 875.1 484.6 876.5 486 878 484.6 876.5 483.1"/><polygon class="b" points="965.5 465.1 964.1 466.6 965.5 468 967 466.6 965.5 465.1"/><polygon class="b" points="6.6 184 5.2 185.5 6.6 186.9 8.1 185.5 6.6 184"/><polygon class="b" points="39.6 160 38.2 161.5 39.6 162.9 41.1 161.5 39.6 160"/><polygon class="b" points="79.9 426 79.1 426.8 79.9 427.6 80.7 426.8 79.9 426"/><polygon class="b" points="108.8 423.9 108 424.7 108.8 425.5 109.6 424.7 108.8 423.9"/><polygon class="b" points="124.6 257.2 123.9 258 124.6 258.8 125.5 258 124.6 257.2"/><polygon class="b" points="171 257.6 170.2 258.4 171 259.2 171.9 258.4 171 257.6"/><polygon class="b" points="101 243.6 100.2 244.4 101 245.2 101.9 244.4 101 243.6"/><polygon class="b" points="237.3 201.3 236.5 202.1 237.3 202.9 238.1 202.1 237.3 201.3"/><polygon class="b" points="236 223.1 235.2 223.9 236 224.7 236.9 223.9 236 223.1"/><polygon class="b" points="441.2 212.7 440.4 213.5 441.2 214.3 442 213.5 441.2 212.7"/><polygon class="b" points="461.2 201.7 460.4 202.5 461.2 203.3 462 202.5 461.2 201.7"/><polygon class="b" points="461.2 290.7 460.4 291.5 461.2 292.3 462 291.5 461.2 290.7"/><polygon class="b" points="505.2 285.7 504.4 286.5 505.2 287.3 506 286.5 505.2 285.7"/><polygon class="b" points="547.2 228.7 546.4 229.5 547.2 230.3 548 229.5 547.2 228.7"/><polygon class="b" points="566.2 255.7 565.4 256.5 566.2 257.3 567 256.5 566.2 255.7"/><polygon class="b" points="745.1 277.3 744.3 278.1 745.1 278.9 745.9 278.1 745.1 277.3"/><polygon class="b" points="794.1 291.3 793.3 292.1 794.1 292.9 794.9 292.1 794.1 291.3"/><polygon class="b" points="841.1 223.2 840.3 224 841.1 224.8 841.9 224 841.1 223.2"/><polygon class="b" points="899.4 266.7 898.6 267.5 899.4 268.3 900.2 267.5 899.4 266.7"/><polygon class="b" points="956.4 239.7 955.6 240.5 956.4 241.3 957.2 240.5 956.4 239.7"/><polygon class="b" points="915.4 214.7 914.6 215.5 915.4 216.3 916.2 215.5 915.4 214.7"/><polygon class="b" points="894.4 175.7 893.6 176.5 894.4 177.3 895.2 176.5 894.4 175.7"/><polygon class="b" points="629.5 452.1 628.7 452.9 629.5 453.7 630.4 452.9 629.5 452.1"/><polygon class="b" points="469.9 392.8 469.1 393.6 469.9 394.3 470.7 393.6 469.9 392.8"/><polygon class="b" points="503.2 357.7 502.4 358.5 503.2 359.3 504 358.5 503.2 357.7"/><polygon class="b" points="182.3 501 181.5 501.8 182.3 502.5 183.1 501.8 182.3 501"/><polygon class="b" points="234.9 483.1 234.1 483.9 234.9 484.7 235.7 483.9 234.9 483.1"/><polygon class="b" points="858 50.8 856.5 52.3 858 53.7 859.5 52.3 858 50.8"/><polygon class="b" points="210.2 126.3 208.7 127.7 210.2 129.1 211.7 127.7 210.2 126.3"/><polygon class="b" points="148.3 95.3 146.9 96.8 148.3 98.2 149.8 96.8 148.3 95.3"/><polygon class="b" points="107.3 194.3 105.9 195.8 107.3 197.2 108.8 195.8 107.3 194.3"/><polygon class="b" points="338.3 130.3 336.9 131.8 338.3 133.2 339.8 131.8 338.3 130.3"/><polygon class="b" points="552.4 119.7 551 121.1 552.4 122.5 553.9 121.1 552.4 119.7"/><polygon class="b" points="448.5 52.3 447.1 53.7 448.5 55.1 450 53.7 448.5 52.3"/><polygon class="b" points="222.3 52.8 220.9 54.3 222.3 55.7 223.8 54.3 222.3 52.8"/><polygon class="b" points="324.6 74.6 323.2 76 324.6 77.5 326.1 76 324.6 74.6"/><polygon class="b" points="393.6 73.6 392.2 75 393.6 76.5 395.1 75 393.6 73.6"/><polygon class="b" points="420.6 126.6 419.2 128 420.6 129.5 422.1 128 420.6 126.6"/><polygon class="b" points="473.9 83.2 472.4 84.6 473.9 86 475.4 84.6 473.9 83.2"/><polygon class="b" points="487.9 75.2 486.4 76.6 487.9 78 489.4 76.6 487.9 75.2"/><polygon class="b" points="507.9 73.2 506.4 74.6 507.9 76 509.4 74.6 507.9 73.2"/><polygon class="b" points="646.7 63 645.3 64.4 646.7 65.9 648.3 64.4 646.7 63"/><polygon class="b" points="762 63.4 760.5 64.8 762 66.2 763.5 64.8 762 63.4"/><polygon class="b" points="723 128.4 721.5 129.8 723 131.2 724.5 129.8 723 128.4"/><polygon class="b" points="812 110.4 810.5 111.8 812 113.2 813.5 111.8 812 110.4"/><polygon class="b" points="693.5 50.8 692.7 51.6 693.5 52.4 694.4 51.6 693.5 50.8"/><polygon class="b" points="476 97.3 475.2 98.1 476 98.9 476.8 98.1 476 97.3"/><polygon class="b" points="81.3 128.4 80.5 129.2 81.3 129.9 82.2 129.2 81.3 128.4"/><polygon class="b" points="2812 20.8 2810.5 22.3 2812 23.7 2813.5 22.3 2812 20.8"/><polygon class="b" points="2164.2 96.3 2162.7 97.7 2164.2 99.1 2165.7 97.7 2164.2 96.3"/><polygon class="b" points="2102.3 65.3 2100.9 66.8 2102.3 68.2 2103.8 66.8 2102.3 65.3"/><polygon class="b" points="2061.3 164.3 2059.9 165.8 2061.3 167.2 2062.8 165.8 2061.3 164.3"/><polygon class="b" points="2292.3 100.3 2290.9 101.8 2292.3 103.2 2293.8 101.8 2292.3 100.3"/><polygon class="b" points="2506.4 89.7 2505 91.1 2506.4 92.5 2507.9 91.1 2506.4 89.7"/><polygon class="b" points="2402.5 22.3 2401.1 23.7 2402.5 25.1 2404 23.7 2402.5 22.3"/><polygon class="b" points="2176.3 22.8 2174.9 24.3 2176.3 25.7 2177.8 24.3 2176.3 22.8"/><polygon class="b" points="2278.6 44.6 2277.2 46 2278.6 47.5 2280.1 46 2278.6 44.6"/><polygon class="b" points="2347.6 43.6 2346.2 45 2347.6 46.5 2349.1 45 2347.6 43.6"/><polygon class="b" points="2374.6 96.6 2373.2 98 2374.6 99.5 2376.1 98 2374.6 96.6"/><polygon class="b" points="2427.9 53.2 2426.4 54.6 2427.9 56 2429.4 54.6 2427.9 53.2"/><polygon class="b" points="2441.9 45.2 2440.4 46.6 2441.9 48 2443.4 46.6 2441.9 45.2"/><polygon class="b" points="2461.9 43.2 2460.4 44.6 2461.9 46 2463.4 44.6 2461.9 43.2"/><polygon class="b" points="2600.7 33 2599.3 34.4 2600.7 35.9 2602.3 34.4 2600.7 33"/><polygon class="b" points="2716 33.4 2714.5 34.8 2716 36.2 2717.5 34.8 2716 33.4"/><polygon class="b" points="2677 98.4 2675.5 99.8 2677 101.2 2678.5 99.8 2677 98.4"/><polygon class="b" points="2766 80.4 2764.5 81.8 2766 83.2 2767.5 81.8 2766 80.4"/><polygon class="b" points="2647.5 20.8 2646.7 21.6 2647.5 22.4 2648.4 21.6 2647.5 20.8"/><polygon class="b" points="2430 67.3 2429.2 68.1 2430 68.9 2430.8 68.1 2430 67.3"/><polygon class="b" points="2035.3 98.4 2034.5 99.2 2035.3 99.9 2036.2 99.2 2035.3 98.4"/><polygon class="b" points="5115.2 472.6 5113.7 474 5115.2 475.4 5116.7 474 5115.2 472.6"/><polygon class="b" points="4594.7 188.6 4593.3 190 4594.7 191.4 4596.2 190 4594.7 188.6"/><polygon class="b" points="4607.9 184 4606.4 185.4 4607.9 186.8 4609.4 185.4 4607.9 184"/><polygon class="b" points="4626.9 178 4625.4 179.4 4626.9 180.8 4628.4 179.4 4626.9 178"/><polygon class="b" points="4702.1 204.2 4700.7 205.6 4702.1 207.1 4703.6 205.6 4702.1 204.2"/><polygon class="b" points="4781 196.5 4779.5 198 4781 199.4 4782.5 198 4781 196.5"/><polygon class="b" points="4803 234.5 4801.5 236 4803 237.4 4804.5 236 4803 234.5"/><polygon class="b" points="4889 225.5 4887.5 227 4889 228.4 4890.5 227 4889 225.5"/><polygon class="b" points="4912.1 204.1 4910.7 205.6 4912.1 207 4913.6 205.6 4912.1 204.1"/><polygon class="b" points="4904.3 262.8 4902.9 264.2 4904.3 265.7 4905.8 264.2 4904.3 262.8"/><polygon class="b" points="4993.4 268.5 4991.9 269.9 4993.4 271.3 4994.9 269.9 4993.4 268.5"/><polygon class="b" points="5061 250 5059.6 251.5 5061 252.9 5062.6 251.5 5061 250"/><polygon class="b" points="5023.9 164.2 5022.5 165.6 5023.9 167 5025.4 165.6 5023.9 164.2"/><polygon class="b" points="4864.9 265.1 4863.5 266.5 4864.9 267.9 4866.4 266.5 4864.9 265.1"/><polygon class="b" points="4802 369.7 4800.6 371.2 4802 372.6 4803.6 371.2 4802 369.7"/><polygon class="b" points="4778 371.7 4776.6 373.2 4778 374.6 4779.6 373.2 4778 371.7"/><polygon class="b" points="4785 405.7 4783.6 407.2 4785 408.6 4786.6 407.2 4785 405.7"/><polygon class="b" points="4582.8 339.6 4581.4 341 4582.8 342.5 4584.3 341 4582.8 339.6"/><polygon class="c" points="4550.8 382.6 4549.4 384 4550.8 385.5 4552.3 384 4550.8 382.6"/><polygon class="b" points="4557.8 392.6 4556.4 394 4557.8 395.5 4559.3 394 4557.8 392.6"/><polygon class="b" points="4491.6 281.2 4490.2 282.6 4491.6 284 4493.1 282.6 4491.6 281.2"/><polygon class="b" points="4533.6 281.2 4532.2 282.6 4533.6 284 4535.1 282.6 4533.6 281.2"/><polygon class="b" points="4408.7 283.7 4407.3 285.2 4408.7 286.6 4410.2 285.2 4408.7 283.7"/><polygon class="b" points="4512.7 405.2 4511.3 406.6 4512.7 408 4514.2 406.6 4512.7 405.2"/><polygon class="b" points="4983.4 479.5 4981.9 480.9 4983.4 482.4 4984.9 480.9 4983.4 479.5"/><polygon class="b" points="4415.8 182.2 4414.4 183.6 4415.8 185 4417.3 183.6 4415.8 182.2"/><polygon class="b" points="4448.8 158.2 4447.4 159.6 4448.8 161 4450.3 159.6 4448.8 158.2"/><polygon class="b" points="4489.1 424.1 4488.3 424.9 4489.1 425.7 4489.9 424.9 4489.1 424.1"/><polygon class="b" points="4543.1 424.1 4542.3 424.9 4543.1 425.7 4543.9 424.9 4543.1 424.1"/><polygon class="b" points="4517.9 422.1 4517.2 422.8 4517.9 423.6 4518.8 422.8 4517.9 422.1"/><polygon class="b" points="4533.8 255.4 4533 256.2 4533.8 256.9 4534.7 256.2 4533.8 255.4"/><polygon class="b" points="4580.2 255.7 4579.4 256.5 4580.2 257.3 4581.1 256.5 4580.2 255.7"/><polygon class="b" points="4510.2 241.7 4509.4 242.5 4510.2 243.3 4511.1 242.5 4510.2 241.7"/><polygon class="b" points="4646.5 199.5 4645.7 200.3 4646.5 201.1 4647.3 200.3 4646.5 199.5"/><polygon class="b" points="4645.2 221.2 4644.4 222 4645.2 222.8 4646.1 222 4645.2 221.2"/><polygon class="b" points="4850.4 210.8 4849.6 211.6 4850.4 212.4 4851.2 211.6 4850.4 210.8"/><polygon class="b" points="4870.4 199.8 4869.6 200.6 4870.4 201.4 4871.2 200.6 4870.4 199.8"/><polygon class="b" points="4870.4 288.8 4869.6 289.6 4870.4 290.4 4871.2 289.6 4870.4 288.8"/><polygon class="b" points="4914.4 283.8 4913.6 284.6 4914.4 285.4 4915.2 284.6 4914.4 283.8"/><polygon class="b" points="4956.4 226.8 4955.6 227.6 4956.4 228.4 4957.2 227.6 4956.4 226.8"/><polygon class="b" points="4975.4 253.8 4974.6 254.6 4975.4 255.4 4976.2 254.6 4975.4 253.8"/><polygon class="b" points="4879.1 390.9 4878.3 391.7 4879.1 392.5 4879.9 391.7 4879.1 390.9"/><polygon class="b" points="4912.4 355.8 4911.6 356.6 4912.4 357.4 4913.2 356.6 4912.4 355.8"/><polygon class="c" points="3760.9 359.2 3759.5 360.6 3760.9 362 3762.4 360.6 3760.9 359.2"/><polygon class="c" points="3699 328.2 3697.6 329.7 3699 331.1 3700.6 329.7 3699 328.2"/><polygon class="b" points="3658 427.2 3656.6 428.7 3658 430.1 3659.6 428.7 3658 427.2"/><polygon class="c" points="3889 363.2 3887.6 364.7 3889 366.1 3890.6 364.7 3889 363.2"/><polygon class="c" points="4103.2 352.6 4101.7 354 4103.2 355.4 4104.7 354 4103.2 352.6"/><polygon class="b" points="3582.7 68.6 3581.3 70 3582.7 71.4 3584.2 70 3582.7 68.6"/><polygon class="b" points="3595.9 64 3594.4 65.4 3595.9 66.8 3597.4 65.4 3595.9 64"/><polygon class="b" points="3614.9 58 3613.4 59.4 3614.9 60.8 3616.4 59.4 3614.9 58"/><polygon class="b" points="3690.1 84.2 3688.7 85.6 3690.1 87.1 3691.6 85.6 3690.1 84.2"/><polygon class="b" points="3769 76.5 3767.5 78 3769 79.4 3770.5 78 3769 76.5"/><polygon class="b" points="3765 418.5 3763.5 420 3765 421.4 3766.5 420 3765 418.5"/><polygon class="b" points="3877 105.5 3875.5 107 3877 108.4 3878.5 107 3877 105.5"/><polygon class="b" points="3900.1 84.1 3898.7 85.6 3900.1 87 3901.6 85.6 3900.1 84.1"/><polygon class="b" points="3892.3 142.8 3890.9 144.2 3892.3 145.7 3893.8 144.2 3892.3 142.8"/><polygon class="b" points="3981.4 148.5 3979.9 149.9 3981.4 151.3 3982.9 149.9 3981.4 148.5"/><polygon class="b" points="4049 130 4047.6 131.5 4049 132.9 4050.6 131.5 4049 130"/><polygon class="b" points="4120.8 74.4 4119.4 75.8 4120.8 77.2 4122.3 75.8 4120.8 74.4"/><polygon class="b" points="4011.9 44.2 4010.5 45.6 4011.9 47 4013.4 45.6 4011.9 44.2"/><polygon class="b" points="4224.6 88.2 4223.2 89.6 4224.6 91 4226.1 89.6 4224.6 88.2"/><polygon class="b" points="4133.3 150.3 4131.8 151.8 4133.3 153.2 4134.8 151.8 4133.3 150.3"/><polygon class="b" points="4234.6 149.8 4233.2 151.3 4234.6 152.7 4236.1 151.3 4234.6 149.8"/><polygon class="b" points="4310.6 179.8 4309.2 181.3 4310.6 182.7 4312.1 181.3 4310.6 179.8"/><polygon class="b" points="4337.9 79.9 4336.5 81.4 4337.9 82.8 4339.4 81.4 4337.9 79.9"/><polygon class="b" points="4369.9 98.9 4368.5 100.4 4369.9 101.8 4371.4 100.4 4369.9 98.9"/><polygon class="b" points="4357.9 197.9 4356.5 199.4 4357.9 200.8 4359.4 199.4 4357.9 197.9"/><polygon class="b" points="4395.6 230.3 4394.2 231.7 4395.6 233.1 4397.1 231.7 4395.6 230.3"/><polygon class="b" points="4280.3 220.4 4278.8 221.8 4280.3 223.3 4281.8 221.8 4280.3 220.4"/><polygon class="b" points="4264.3 249.4 4262.8 250.8 4264.3 252.3 4265.8 250.8 4264.3 249.4"/><polygon class="b" points="4205.2 214.4 4203.7 215.8 4205.2 217.3 4206.7 215.8 4205.2 214.4"/><polygon class="b" points="4178.2 223.4 4176.7 224.8 4178.2 226.3 4179.7 224.8 4178.2 223.4"/><polygon class="b" points="4044.3 211.2 4042.8 212.6 4044.3 214 4045.8 212.6 4044.3 211.2"/><polygon class="b" points="4073.3 237.2 4071.8 238.6 4073.3 240 4074.8 238.6 4073.3 237.2"/><polygon class="b" points="3999.3 285.2 3997.8 286.6 3999.3 288 4000.8 286.6 3999.3 285.2"/><polygon class="b" points="3852.9 145.1 3851.5 146.5 3852.9 147.9 3854.4 146.5 3852.9 145.1"/><polygon class="b" points="3790 249.7 3788.6 251.2 3790 252.6 3791.6 251.2 3790 249.7"/><polygon class="b" points="3766 251.7 3764.6 253.2 3766 254.6 3767.6 253.2 3766 251.7"/><polygon class="b" points="3773 285.7 3771.6 287.2 3773 288.6 3774.6 287.2 3773 285.7"/><polygon class="b" points="3570.8 219.6 3569.4 221 3570.8 222.5 3572.3 221 3570.8 219.6"/><polygon class="b" points="3875.4 307.5 3873.9 308.9 3875.4 310.4 3876.9 308.9 3875.4 307.5"/><polygon class="b" points="3944.4 306.5 3942.9 307.9 3944.4 309.4 3945.9 307.9 3944.4 306.5"/><polygon class="c" points="3971.4 359.5 3969.9 360.9 3971.4 362.4 3972.9 360.9 3971.4 359.5"/><polygon class="b" points="4024.6 316.1 4023.2 317.5 4024.6 318.9 4026.1 317.5 4024.6 316.1"/><polygon class="b" points="4038.6 308.1 4037.2 309.5 4038.6 310.9 4040.1 309.5 4038.6 308.1"/><polygon class="b" points="4058.6 306.1 4057.2 307.5 4058.6 308.9 4060.1 307.5 4058.6 306.1"/><polygon class="b" points="4197.5 295.9 4196.1 297.3 4197.5 298.8 4199 297.3 4197.5 295.9"/><polygon class="b" points="4312.7 296.2 4311.3 297.7 4312.7 299.1 4314.2 297.7 4312.7 296.2"/><polygon class="c" points="4273.7 361.2 4272.3 362.7 4273.7 364.1 4275.2 362.7 4273.7 361.2"/><polygon class="c" points="4362.7 343.2 4361.3 344.7 4362.7 346.1 4364.2 344.7 4362.7 343.2"/><polygon class="b" points="4361.7 270.2 4360.3 271.7 4361.7 273.1 4363.2 271.7 4361.7 270.2"/><polygon class="c" points="3568.2 135.7 3567.4 136.5 3568.2 137.3 3569.1 136.5 3568.2 135.7"/><polygon class="b" points="3634.5 79.5 3633.7 80.3 3634.5 81.1 3635.3 80.3 3634.5 79.5"/><polygon class="b" points="3633.2 101.2 3632.4 102 3633.2 102.8 3634.1 102 3633.2 101.2"/><polygon class="b" points="3812.4 394.8 3811.6 395.6 3812.4 396.4 3813.2 395.6 3812.4 394.8"/><polygon class="b" points="3858.4 79.8 3857.6 80.6 3858.4 81.4 3859.2 80.6 3858.4 79.8"/><polygon class="b" points="3858.4 168.8 3857.6 169.6 3858.4 170.4 3859.2 169.6 3858.4 168.8"/><polygon class="b" points="3902.4 163.8 3901.6 164.6 3902.4 165.4 3903.2 164.6 3902.4 163.8"/><polygon class="b" points="3944.4 106.8 3943.6 107.6 3944.4 108.4 3945.2 107.6 3944.4 106.8"/><polygon class="b" points="3963.4 133.8 3962.6 134.6 3963.4 135.4 3964.2 134.6 3963.4 133.8"/><polygon class="b" points="4142.3 155.5 4141.5 156.3 4142.3 157.1 4143.1 156.3 4142.3 155.5"/><polygon class="b" points="4191.3 169.5 4190.5 170.3 4191.3 171.1 4192.1 170.3 4191.3 169.5"/><polygon class="b" points="4238.3 101.4 4237.5 102.2 4238.3 102.9 4239.1 102.2 4238.3 101.4"/><polygon class="b" points="4296.6 144.8 4295.8 145.6 4296.6 146.4 4297.4 145.6 4296.6 144.8"/><polygon class="b" points="4353.6 117.8 4352.8 118.6 4353.6 119.4 4354.4 118.6 4353.6 117.8"/><polygon class="b" points="4312.6 92.8 4311.8 93.6 4312.6 94.4 4313.4 93.6 4312.6 92.8"/><polygon class="b" points="4291.6 53.8 4290.8 54.6 4291.6 55.4 4292.4 54.6 4291.6 53.8"/><polygon class="b" points="4244.3 283.7 4243.5 284.5 4244.3 285.3 4245.1 284.5 4244.3 283.7"/><polygon class="b" points="4368.7 253.3 4367.9 254.1 4368.7 254.8 4369.6 254.1 4368.7 253.3"/><polygon class="b" points="4375.7 263.3 4374.9 264.1 4375.7 264.8 4376.6 264.1 4375.7 263.3"/><polygon class="c" points="4026.7 330.2 4025.9 331 4026.7 331.8 4027.6 331 4026.7 330.2"/><polygon class="b" points="3867.1 270.9 3866.3 271.7 3867.1 272.5 3867.9 271.7 3867.1 270.9"/><polygon class="b" points="3900.4 235.8 3899.6 236.6 3900.4 237.4 3901.2 236.6 3900.4 235.8"/><polygon class="c" points="3579.5 379.1 3578.7 379.9 3579.5 380.7 3580.3 379.9 3579.5 379.1"/><polygon class="c" points="3632.1 361.3 3631.3 362 3632.1 362.8 3632.9 362 3632.1 361.3"/><polygon class="b" points="4634.4 130.4 4632.9 131.8 4634.4 133.3 4635.9 131.8 4634.4 130.4"/><polygon class="b" points="4762.5 134.5 4761.1 135.9 4762.5 137.3 4764 135.9 4762.5 134.5"/><polygon class="b" points="4976.6 123.8 4975.2 125.2 4976.6 126.7 4978.1 125.2 4976.6 123.8"/><polygon class="b" points="4872.7 56.4 4871.3 57.8 4872.7 59.3 4874.2 57.8 4872.7 56.4"/><polygon class="b" points="4646.5 57 4645.1 58.4 4646.5 59.8 4648 58.4 4646.5 57"/><polygon class="b" points="4748.8 78.7 4747.4 80.2 4748.8 81.6 4750.3 80.2 4748.8 78.7"/><polygon class="b" points="4817.8 77.7 4816.4 79.2 4817.8 80.6 4819.3 79.2 4817.8 77.7"/><polygon class="b" points="4844.8 130.7 4843.4 132.2 4844.8 133.6 4846.3 132.2 4844.8 130.7"/><polygon class="b" points="4898 87.3 4896.6 88.7 4898 90.2 4899.6 88.7 4898 87.3"/><polygon class="b" points="4912 79.3 4910.6 80.7 4912 82.2 4913.6 80.7 4912 79.3"/><polygon class="b" points="4932 77.3 4930.6 78.7 4932 80.2 4933.6 78.7 4932 77.3"/><polygon class="b" points="5070.9 67.1 5069.5 68.6 5070.9 70 5072.4 68.6 5070.9 67.1"/><polygon class="b" points="5117.7 54.9 5116.9 55.7 5117.7 56.5 5118.6 55.7 5117.7 54.9"/><polygon class="b" points="4900.2 101.5 4899.4 102.3 4900.2 103 4901 102.3 4900.2 101.5"/><polygon class="b" points="4505.5 132.5 4504.7 133.3 4505.5 134.1 4506.3 133.3 4505.5 132.5"/><polygon class="b" points="2566.7 620.9 2565.3 622.3 2566.7 623.7 2568.2 622.3 2566.7 620.9"/><polygon class="b" points="2504.8 589.9 2503.4 591.4 2504.8 592.8 2506.4 591.4 2504.8 589.9"/><polygon class="b" points="2463.8 688.9 2462.4 690.4 2463.8 691.8 2465.4 690.4 2463.8 688.9"/><polygon class="b" points="2909 614.3 2907.5 615.7 2909 617.1 2910.5 615.7 2909 614.3"/><polygon class="b" points="3116.4 441.5 3115 443 3116.4 444.4 3117.9 443 3116.4 441.5"/><polygon class="b" points="3163.7 459.7 3162.3 461.1 3163.7 462.5 3165.3 461.1 3163.7 459.7"/><polygon class="b" points="3201.4 492 3200 493.4 3201.4 494.8 3202.9 493.4 3201.4 492"/><polygon class="b" points="3086.1 482.1 3084.6 483.5 3086.1 485 3087.6 483.5 3086.1 482.1"/><polygon class="b" points="3070.1 511.1 3068.6 512.5 3070.1 514 3071.6 512.5 3070.1 511.1"/><polygon class="b" points="3011 476.1 3009.5 477.5 3011 479 3012.5 477.5 3011 476.1"/><polygon class="b" points="2984 485.1 2982.5 486.5 2984 488 2985.5 486.5 2984 485.1"/><polygon class="b" points="2850.1 472.9 2848.6 474.3 2850.1 475.7 2851.6 474.3 2850.1 472.9"/><polygon class="b" points="2879.1 498.9 2877.6 500.3 2879.1 501.7 2880.6 500.3 2879.1 498.9"/><polygon class="b" points="2805.1 546.9 2803.6 548.3 2805.1 549.7 2806.6 548.3 2805.1 546.9"/><polygon class="b" points="2595.8 511.4 2594.4 512.9 2595.8 514.3 2597.4 512.9 2595.8 511.4"/><polygon class="b" points="2571.8 482.4 2570.4 483.9 2571.8 485.3 2573.4 483.9 2571.8 482.4"/><polygon class="b" points="2578.8 547.4 2577.4 548.9 2578.8 550.3 2580.4 548.9 2578.8 547.4"/><polygon class="g" points="2681.2 569.2 2679.8 570.6 2681.2 572.1 2682.7 570.6 2681.2 569.2"/><polygon class="g" points="2750.2 568.2 2748.8 569.6 2750.2 571.1 2751.7 569.6 2750.2 568.2"/><polygon class="b" points="2777.2 621.2 2775.8 622.6 2777.2 624.1 2778.7 622.6 2777.2 621.2"/><polygon class="g" points="2830.4 577.8 2829 579.2 2830.4 580.6 2831.9 579.2 2830.4 577.8"/><polygon class="g" points="2844.4 569.8 2843 571.2 2844.4 572.6 2845.9 571.2 2844.4 569.8"/><polygon class="g" points="2864.4 567.8 2863 569.2 2864.4 570.6 2865.9 569.2 2864.4 567.8"/><polygon class="g" points="3118.5 558 3117.1 559.4 3118.5 560.8 3120 559.4 3118.5 558"/><polygon class="b" points="3079.5 623 3078.1 624.4 3079.5 625.8 3081 624.4 3079.5 623"/><polygon class="b" points="3168.5 605 3167.1 606.4 3168.5 607.8 3170 606.4 3168.5 605"/><polygon class="b" points="3167.5 532 3166.1 533.4 3167.5 534.8 3169 533.4 3167.5 532"/><polygon class="b" points="3174.5 515 3173.7 515.8 3174.5 516.6 3175.4 515.8 3174.5 515"/><polygon class="b" points="3181.5 525 3180.7 525.8 3181.5 526.6 3182.4 525.8 3181.5 525"/><polygon class="b" points="2832.5 591.9 2831.7 592.7 2832.5 593.5 2833.4 592.7 2832.5 591.9"/><polygon class="b" points="2672.9 532.6 2672.1 533.4 2672.9 534.2 2673.7 533.4 2672.9 532.6"/><polygon class="b" points="2706.2 497.5 2705.4 498.3 2706.2 499.1 2707 498.3 2706.2 497.5"/><polygon class="b" points="3283.9 590.2 3282.4 591.6 3283.9 593 3285.4 591.6 3283.9 590.2"/><polygon class="b" points="3351.5 571.8 3350.1 573.2 3351.5 574.6 3353.1 573.2 3351.5 571.8"/><polygon class="b" points="3423.3 516.1 3421.9 517.5 3423.3 519 3424.8 517.5 3423.3 516.1"/><polygon class="b" points="3314.4 485.9 3313 487.3 3314.4 488.8 3315.9 487.3 3314.4 485.9"/><polygon class="b" points="3527.1 529.9 3525.7 531.3 3527.1 532.8 3528.6 531.3 3527.1 529.9"/><polygon class="g" points="3265.9 575.6 3265.1 576.4 3265.9 577.2 3266.7 576.4 3265.9 575.6"/><polygon class="b" points="3540.8 543.1 3540 543.9 3540.8 544.7 3541.6 543.9 3540.8 543.1"/><polygon class="b" points="3594.1 495.6 3593.3 496.4 3594.1 497.2 3594.9 496.4 3594.1 495.6"/><polygon class="b" points="3331.3 435.9 3329.9 437.3 3331.3 438.7 3332.9 437.3 3331.3 435.9"/><polygon class="c" points="3342.8 352.7 3341.4 354.2 3342.8 355.6 3344.3 354.2 3342.8 352.7"/><polygon class="b" points="3301.8 451.7 3300.4 453.2 3301.8 454.6 3303.3 453.2 3301.8 451.7"/><path class="h" d="M2990.8,270.2a65.5,65.5,0,0,1-22.7,4.4A56.9,56.9,0,0,1,2946.6,165s-34.4,27.6-16.6,68.2S2990.8,270.2,2990.8,270.2Z"/></svg>