<svg xmlns="http://www.w3.org/2000/svg" width="5120" height="1320" viewBox="0 0 5120 1320"><defs><style>.a{fill:#0288d1;}.b{fill:#03a9f4;}.c{fill:#90caf9;}</style></defs><path class="a" d="M3041,1320H0L-1.2,550.3s11.6-9,15.8-10,12.4-10,14.3-12.5,10.7-20.1,11.3-22.3,9.4-1.2,13-4.2,11.5-11.4,13.5-12.7,34.4,6,34.4,6,1.9,1,6.5-.9,15.6-2.9,15.6-2.9l6,2,16.1,18.8,2.4,4.9,8.1,9.7,13.5-8.3,5.9-29.1,3,19,4-6,4,14h-3l-1,5h7l3,2,5.6-9.5s4.4-5.5,5.4-4.5,13.6,2.2,13.6,2.2,7.1-.7,9.3,0,10.1-.7,11.7,0,8.4,1.8,9.4,1.8,4.7.5,5.9-1.8,5.1-4.2,5.1-4.2,6,9,8,9,15,2,17,1,8-1,12-3,7-3,11-1,16,4,17,4,10-2,15-2a10.6,10.6,0,0,0,7.9-3.8V499.3s-5.9-2.5-4.9-3.5,4.9-6.2,4.9-6.2a4.8,4.8,0,0,0,0-3.7c-.9-2.1-1.9-8.1-1.9-8.1s4-6,7-4,9,5,9,5l16.4,5.5,9.6-2.5,2-5,6-3s9.7-3,10.9-2,6.1,1,7.1,2,1,0,4-1a14.1,14.1,0,0,0,5-3l11-27,4,9,10-22,4,20h-4v6l2,4s3,2,4,2,7-1,7-1l5,2v-5.2a30.9,30.9,0,0,0,4-2.8c1-1,6-10,6-10l5-23,4,22,8,1s2-4,3-3,8,4,9,5,7-2,14-5,9-7,9-7l9-6,5-25,4,17,4-10,6,14,6.2-21,4.8,11s6-1,7-2-6-3,3-2l19,2s7-5,9-6,14.7-1,15.9-3,11.1-1,14.1-3,4-3,6-3,16-4,16-4l9-8s1,10,2,9,10-21,10-21l4,20,7-8,6,7,5-5,9,14,7-6,3,6,6-1,3,7s14,1,15,2,12,3,12,3a11.9,11.9,0,0,0,2,6c2,3,8,1,15,5s19,9,19,11,13,10,13,10,23,13,27,19,25,21,37,30,29,26,31,31,.7,23,9.9,26.5l4.1-12.5,1,9,2-2,4,15h7.1l.9,4s20,1.6,21,1.3,8,.7,8,.7l6,3s4,3,5,3,13,8,13.6,8,3.8,1,7.1,1.5,8.7-1.5,9.5,0,5.8,3.5,7.8,4.5,6,1,7.6,2,7.4-1,9.4,1,6,3,7,5,5,8,6,8,6,5,7.6,11.5h34.3s-.5-6.5,4.8-9.5,16.3-10,19.3-14,4-11,8-13,5-3,9-4,12-3,14-4,14-2,18-6,8-11,9-12a55.5,55.5,0,0,0,6-8c1-2,6-33,6-33l3,13,5-31,3,21h-2l1,4s4,2,6,1,7-1,7-3,2-7,3-8,8-3,11-4,10-1,10-1l4-21,6,30,4-3,6,2s6,3,7,4,4,2,8,3,10,6,10,7,11,6,14,6,8.4,4,8.2,5.5,10.8,7.5,11.8,8.5,11,5,12,7,5,9,6,10,14,3,19,5,6-1,9,3,10,9,11,10,1-7,8-11,20-5,27-7,7-4,7-4l6-17,3,8,5-17,2,7h2c2,0,3-1,5-2s3,0,5-1,5-2,5-3,4-16,4-16l1,10s-1-1,4-3,5-2,8-2a8.5,8.5,0,0,0,6-2,7.7,7.7,0,0,1,3-2c2-1,4-2,5-2s8-3,8-3l3-16,3,15,3-7,5,10s0,2,4,2,5,0,7,2,4,5,5,6,6,8,7,9,6,4,6,6,4,5,4,7,3,4,5,6,7,1,12,5-3,3,8,8,17,3,24,3,24-5,25-7-1-1,3-5,2-7,11-8,10-4,10-4l4-21,4,14h-2s2,5,2,5.5,2,2.5,5-.5,5-4,6-6,5-4,9-7,8-4,9-5a17.1,17.1,0,0,1,11-6c7-1,20-1,21-6s9-30,9-30l2.7,11.2,3.3-5.2,5,8,7-14,3,8,4-5,4,14,8-16,2,17s1,3,4,0,4-3,7-3a22,22,0,0,1,8,1c3,1,5,2,7,0s4,3,4,3l3-14,2,11,3-9,2.6,4.2,2.4-3.2,3,12,4-4s1-1,6-1,5-2,9,0,7,4,8,2-1-5,3-3,9,3,9,4,3,2,2,5,1,4,2,5,7,3,8,4,4,4,4,5,3,5,4,6,10,3,11,5a14.5,14.5,0,0,0,9,8c6,2,12-1,13,3s0,6,4,8,17,8,17,8,5,6,6,10,8,10,13,11,15,3,15,7,3,7,10,9,16,3,15,6-8,3,1,8,15,4,23,10,17,10,21,13,1,9,1,10,3,11,3,12-2,1-1,4a37.1,37.1,0,0,1,2,9c0,2,4,4,6,6s10,4,12,1,5-3,7-3,7,2,7,2l8-24,5,17,3-8,5.4,17.5a9.8,9.8,0,0,0,7.6-.5c4-2,8-4,11-3a117.3,117.3,0,0,1,11,5c2,1,10,3,13,2s5,0,14,3,14,4,16,6,27,8,24,12-5,13-3,15,4,7,11,8,11.7,1,15.9,0,23.5,0,25.3,0,17.8-2,19.8,5,7,5,5,12,8,21,12,25,5,14,15,18,20,4,27,10,14,17,22,23a38.6,38.6,0,0,0,17,7l7-19,5,17,4-5,3.2,7s6.5,2,8.7,0,6.1-2,7.1-1,9.4.7,10.2,1.8,4.2.9,7,0,10.8,2.2,10.8,2.2l4-13,4.9,13s-4.5-2-2.7-1a50,50,0,0,1,6.8,5c1,1,4,7,6,11s3,19,2,22,6,13,9,15l3-4,2,6,2-2,1.6,8.5a6.1,6.1,0,0,0,3,2c2,.6,19.3-3.2,20.4-3.1a54.3,54.3,0,0,0,22.6-2.9s32.4,12.9,38.4,9.2c0,0,5.8,5.5,8.8,4.5s8.8-7,8.9-3,9.8,9,9.8,9h6.6c2.7,0,6.5-3,11.6,0l12.6,7.4s3.7,3.3,5.6,4,6.5,1.1,10.7,3.9,7.8,6.1,8,8.4a19.4,19.4,0,0,0,3.5,8.4c1.7,1.9,12.5,3.2,15.6,2s5.5,3.1,5.3-2,8.5-6.5,8.5-6.5a20.1,20.1,0,0,1-.9,5.3c-.8,2.1-1.1,3.2-.5,5.2s10.7,3.4,13.2,4.2a44.9,44.9,0,0,0,7.5.9l8.9-8.9V941l2-2v7l8,2s6,1,7,2,1,2,2,2h3c2,0,3-1,6,0s4,1,6,3,5,3,6,4,8,2,8,1,5-3,6-3,7,1,8,2l3,3,3-9,1,11,2-3,1,4,5-6v6s2,3,4,2a5.4,5.4,0,0,1,5.5,0,12.3,12.3,0,0,1,2.6,2.1c.9.9,1.9.9,2.9,1.9s4.3,2.6,6.2,2.3,3.1,1.6,5,2.6,5.1,3,7.5,2.6,4.3,1.7,4.3,2.6,1,.2,4,1.6,6.3,1.5,7.7,1.9,4,.9,5.1,1.7,1.9.3,2.5,2.5a3.5,3.5,0,0,0,4.2,2.6c1.5-.4,6.2.6,6.2.6s3.9,0,3.6,1,.7,1.3,2.2,2.6-.5-1.4,4,2,4.8,2.3,5.2,3.8,1.5,2.6.9,5.6-4.5,2.3,1,4.2,13.2,3.5,13.2,3.5a60.8,60.8,0,0,1,6.9,1.6c1.3.7,6.6,2.4,9,3.6s9.3,3,9.8,2.6,12.9-1.9,14.2-.7,2.3,1.3,3.3,3.2,3,5,5.5,5,8.8-1,9.7,0,5.6,3,5.6,3a13.9,13.9,0,0,1,3.2,2c1,1,10.5,3,10.5,3a8.6,8.6,0,0,0,2.5,4.2,31.4,31.4,0,0,0,7,4.5c1,.3,7-.4,8.5,1s8.5,3.1,10,3.2,8.5.7,11.5-1.6,6.3-5.1,9.2-5.2,5.8,3.6,7.3,3.2,4.6-8.7,6.1-10,10.4-3.3,13.9-5.8,2-5.5,4.2-3.5,11,5.6,8.6,9.3-7.6,7.1-7.5,8.4,4.2,2.3,4.2,4.3,1.7,3.1,3.8,7,2.2,3,5.2,7,7,4,7,6-2,0,2,3.5,14.9,14.6,14.9,14.6c8.1,4.9,10.9,5.6,11,7.8s1-1.2-.5,6.4,3.6,15.2,7.6,18.4,8.9,5.3,8.4,7.3.6,15-.4,16,.4,4,.4,4v172"/><path class="a" d="M2403,882.6V863.7s2.2-24.5,23.6-24.5,24.4,24.5,24.4,24.5v26.6h9V863.7s2-24.5,24-24.5,24,24.5,24,24.5v37.8h9V863.7s1.9-24.5,23.5-24.5,24.5,24.5,24.5,24.5v56.7h9V863.7s2-24.5,24-24.5,24,24.5,24,24.5v90h9v-90s1.7-24.5,22.8-24.5,25.2,18.9,25.2,24.5V971.5h9V863.7s1-24.5,25-24.5,23,24.5,23,24.5V989.3h9V863.7s1.3-24.5,22.7-24.5,25.3,18.9,25.3,24.5v171.2h9V863.7s2-24.5,24-24.5,24,24.5,24,24.5v179h8v-179s1-24.5,24-24.5,24,24.5,24,24.5v207.9h9V863.7s0-24.5,24-24.5,24.5,27.2,24.5,27.2v191.9h7.5V865.9s.6-26.7,23.8-26.7,25.2,24.5,25.2,24.5v289.1h9V863.7s0-24.5,24-24.5,24,24.5,24,24.5V1155h9V827.3H2344v56.4Z"/><path class="b" d="M2381.3,833.6s3,13.6,6,15.1,1.5,24.3,1.5,24.3-3-7.6-4.5-9.1,1.5-13.6-1.5-15.2-1.5-15.1-1.5-15.1"/><polygon class="b" points="2269 810.6 2264 796.6 2267 808.6 2269 810.6"/><polygon class="b" points="2259 797.6 2261 802.6 2260 801.6 2259 797.6"/><polygon class="b" points="2252 793.6 2255.1 802.6 2254 801.6 2252 793.6"/><path class="b" d="M2211,740.6a80.4,80.4,0,0,1-7-4.6c-1-1-4,2.6-4,2.6s1,0,1,2,1,11,6,16a15.4,15.4,0,0,1-1-7.6s2,1.6,4,3.6C2210,752.6,2205,745.6,2211,740.6Z"/><polygon class="b" points="2331.2 823.6 2336 834.9 2332.8 831.7 2331.2 823.6"/><polygon class="b" points="2321 820.2 2324.2 829.9 2321 826.3 2321 820.2"/><path class="b" d="M2132,711.6a2.9,2.9,0,0,1-3,3s2,0,5,4A13.8,13.8,0,0,1,2132,711.6Z"/><polygon class="b" points="2030 668.6 2033 679.6 2031 676.6 2030 668.6"/><path class="b" d="M1834,599.6c2,0,15-3,15-3a62.1,62.1,0,0,1,7.1,1.2,5.9,5.9,0,0,1,1.9.8c1,1,9,17,10,17s9,4,9,5,6,6,6,9,3,8,3,8l13,6s8,9,10,11,9,5,11,8,4,7,10,8,8,1,9,2,9,5,9,5-10.9,3-11.5,2-3.5-4-6.5-4-5-1-7-1a29.2,29.2,0,0,1-9-2c-2-1,0,0-5-5s-5-4-7-6l-6-6c-2-2-5-6-6-7a15.4,15.4,0,0,0-6-4c-3-1-7-3-9-3s-2-5-3-7a6.4,6.4,0,0,1,0-6c1-2,2-1-1-4s-3-5-6-5-2,5-5-1-3-7-4-8-5-4-5-6-7-6-10-5S1834,599.6,1834,599.6Z"/><polygon class="b" points="1479.9 528.6 1486 550.9 1482 544.8 1479.9 528.6"/><polyline class="b" points="1443.3 546.6 1442.1 537.6 1445.5 550"/><polyline class="b" points="1482 544.8 1479.9 528.6 1486 550.9"/><polyline class="b" points="1459.5 540.5 1458.3 531.5 1461.7 543.9"/><polygon class="b" points="1438.8 563.9 1444.8 586.2 1440.8 580.1 1438.8 563.9"/><polyline class="b" points="1402.1 582 1401 573 1404.3 585.3"/><polyline class="b" points="1440.8 580.1 1438.8 563.9 1444.8 586.2"/><path class="b" d="M1210.6,522.3s.9-1.4,6.4,1.4,11,0,11,2.7,13.7,8.2,13.7,8.2,11,0,13.7,2.8,13.7,10.9,13.7,10.9,5.5,0,8.2,2.8,13.7,2.7,16.5,8.2,8.2,11,8.2,11-13.7-8.3-16.4-8.3-13.8-2.7-22-8.2-13.7-13.7-16.4-13.7-5.5-2.7-11-2.7-11,2.7-13.7-2.8-2.7-5.5-5.5-8.2A20.6,20.6,0,0,0,1210.6,522.3Z"/><path class="b" d="M1479.6,570.2s20.5,3.9,17.7,6.7,2.8,5.6,5.6,5.6,28,5.6,30.8,5.6,5.6,11.2,5.6,11.2a38.5,38.5,0,0,1,13.9-8.4c8.4-2.8,5.6-6.8,23.8-6.2,0,0-12.6-2.2-21,.6s-16.7-2.8-22.3-2.8-25.2,0-28-2.8-8.5-6.3-16.8-8.7Z"/><polygon class="b" points="1752.4 506.6 1758 527 1754.3 521.4 1752.4 506.6"/><polyline class="b" points="1718.8 523.1 1717.7 514.9 1720.8 526.2"/><polyline class="b" points="1754.3 521.4 1752.4 506.6 1758 527"/><polyline class="b" points="1733.6 517.5 1732.6 509.3 1735.7 520.6"/><polygon class="b" points="1714.6 539 1720.2 559.5 1716.5 553.9 1714.6 539"/><polyline class="b" points="1681 555.6 1680 547.3 1683.1 558.7"/><polyline class="b" points="1716.5 553.9 1714.6 539 1720.2 559.5"/><path class="b" d="M686,468.6c1,.3,7-4.6,16-2.6,4.2.9,16.3,5.9,17,6.6s10,17,10,19,4,7,10,12,14,11,19,16,27,25,27,25,2-2,16,6,19,7,27,19-4,11,15,23,32,15,34,18,11,3,11,3-31,1-34-1-29-16-31-17-13-4-14-8,1-9,1-9-1-6-4-8-3-6-7-8,0,0-9-3a71.4,71.4,0,0,1-15-7c-2-1-9-4-12-4s1-3-1-5-13-6-15-8-5-3-9-10-3-6-9-9-8-4-11-5-5-2-6-6-6-13-6-13-1,3-1-2-2-8-3-8,0,0-2-4S686,468.6,686,468.6Z"/><path class="b" d="M394.5,519.3l15.2-6.8,3.4,13.6-3.4,6.8,15.3,1.7v-8.8s-10.2-6.5-8.5-9.9,1.7-10.2,0-11.9S394.5,519.3,394.5,519.3Z"/><path class="b" d="M444.1,485.8l-3.4,6.7,10.2,1.7s-2.3-6.7-1.1-8.4,6.2-3.4,6.2-3.4l-5.1-6.8Z"/><path class="b" d="M362,494.5l10.2,3.3s4,1.7,3.7,3.4-.3,1.7,3.1,3.4,8.8,0,8.8,0-10.5,6.8-13.9,5.1-13.6-2.2-11.9-4.5a46.8,46.8,0,0,0,3.4-5.7Z"/><polygon class="b" points="149.3 520.9 152.3 531.9 150.3 528.9 149.3 520.9"/><polyline class="b" points="131.2 529.8 130.6 525.4 132.3 531.5"/><polyline class="b" points="150.3 528.9 150 528.6 152.3 531.9"/><polyline class="b" points="139.2 526.8 138.6 522.4 140.3 528.5"/><polygon class="b" points="116 495.4 119 506.4 117 503.4 116 495.4"/><polyline class="b" points="97.9 504.3 97.3 499.8 99 505.9"/><polyline class="b" points="117 503.4 116 495.4 119 506.4"/><path class="c" d="M1985.9,477.7s7.1,7.9,8.5,12.1c0,0,5-5.7,11.4-7.1a25.9,25.9,0,0,0-10.7,4.3A16.6,16.6,0,0,0,1985.9,477.7Z"/><path class="c" d="M1910.9,463.4s5.7,2.9,9.3-4.2c0,0,4.3,2.8,10,12.1,0,0-3.6-12.1-11.4-16.4C1918.8,454.9,1917.4,462,1910.9,463.4Z"/><path class="c" d="M1938.8,437.7s2.8-.7,10,7.9a20.8,20.8,0,0,0,7.8-10,28.4,28.4,0,0,1-6.4,5.7S1945.9,435.6,1938.8,437.7Z"/><path class="c" d="M1877.4,419.2s4.3.7,12.1,11.4c0,0,8.6-6.4,13.6-6.4,0,0,1.4-3.2-12.8,3C1890.3,427.2,1883.1,419.2,1877.4,419.2Z"/><path class="c" d="M1781.8,366.4s5,0,9.3,7.9c0,0,10-7.2,11.4-5,0,0,2.1-4.3-10.7,1.4C1791.8,370.7,1786.8,363.5,1781.8,366.4Z"/><path class="c" d="M1734,323.6a16.2,16.2,0,0,0,5.7-11.4s7.9,7.8,10,17.8c0,0-5.7-10.7-8.6-12.1C1741.1,317.9,1739,323.6,1734,323.6Z"/></svg>