<svg xmlns="http://www.w3.org/2000/svg" width="5120" height="1320" viewBox="0 0 5120 1320"><defs><style>.a{fill:#0288d1;}.b,.d{fill:none;stroke-miterlimit:10;}.b{stroke:#0288d1;}.c{fill:#42a5f5;}.d{stroke:#42a5f5;}</style></defs><path class="a" d="M2638.1,800.6a11.4,11.4,0,1,0-22.7,0c0,6.3,7.1,15.5,11.3,15.5S2638.1,806.9,2638.1,800.6Z"/><path class="a" d="M2625.3,819.4h2.8a0,0,0,0,1,0,0v2.2a.6.6,0,0,1-.6.6h-1.6a.6.6,0,0,1-.6-.6v-2.2A0,0,0,0,1,2625.3,819.4Z"/><polyline class="b" points="2623.6 813 2625.5 820.1 2627.9 820.1 2629.3 813"/><path class="c" d="M4378.6,268.7a21,21,0,1,0-41.9,0c0,11.6,13.1,26.2,21,26.2C4363.8,294.9,4378.6,280.3,4378.6,268.7Z"/><path class="c" d="M4355,301h5.2a0,0,0,0,1,0,0v4.6a.6.6,0,0,1-.6.6h-4a.6.6,0,0,1-.6-.6V301A0,0,0,0,1,4355,301Z"/><polyline class="d" points="4352 289.2 4355.5 302.3 4359.9 302.3 4362.5 289.2"/></svg>