<svg xmlns="http://www.w3.org/2000/svg" xmlns:xlink="http://www.w3.org/1999/xlink" width="5120" height="1320" viewBox="0 0 5120 1320"><defs><style>.a{fill:url(#a);}.b{fill:url(#b);}.c{fill:url(#c);}.d{fill:url(#d);}.e{fill:#1976d2;}.f{fill:#ccc;}.g{fill:#fff;}.h{fill:none;stroke:#1565c0;stroke-miterlimit:10;stroke-width:0.5px;}</style><linearGradient id="a" x1="2674.37" y1="303.84" x2="3663.12" y2="303.84" gradientUnits="userSpaceOnUse"><stop offset="0.05" stop-color="#fff" stop-opacity="0.5"/><stop offset="1" stop-color="#fff" stop-opacity="0"/></linearGradient><linearGradient id="b" x1="2669.93" y1="304.28" x2="3658.68" y2="304.28" xlink:href="#a"/><linearGradient id="c" x1="2689.91" y1="308.08" x2="3678.66" y2="308.08" xlink:href="#a"/><linearGradient id="d" x1="2688.3" y1="309.42" x2="3677.05" y2="309.42" xlink:href="#a"/></defs><path class="a" d="M2674.4,303.7s1.4-.9,6.8-.7,959.2,1.3,981.9,1.3c0,0-975.6-.1-980.5.2S2674.9,304.7,2674.4,303.7Z"/><path class="b" d="M2669.9,304.1s1.5-.8,6.9-.7,959.2,1.3,981.9,1.3c0,0-975.6-.1-980.5.3S2670.5,305.1,2669.9,304.1Z"/><path class="c" d="M2689.9,307.7s1.5-2.2,6.8-1.7,959.3,3.1,982,3.2c0,0-975.6-.3-980.6.6S2690.5,310.1,2689.9,307.7Z"/><path class="d" d="M2688.3,309.1s1.5-2.2,6.8-1.7,959.3,3.1,982,3.1c0,0-975.6-.2-980.6.7S2688.8,311.5,2688.3,309.1Z"/><path class="e" d="M2659.8,300a2.1,2.1,0,0,0-1.6.6,2.6,2.6,0,0,0-.8,2h.2a2,2,0,0,0,.4,1.4v.8s.2.3.4.3l.9-.4a3.5,3.5,0,0,0,1.8,1.1s.4,3,2.6,4.1a4.9,4.9,0,0,0,1.7.5h0a11,11,0,0,0,4.4.9,19.5,19.5,0,0,0,4,.8,11.9,11.9,0,0,0,3.9-.7,6.9,6.9,0,0,0,1.6-.2l.8-.2h.3l2.3-1a9.4,9.4,0,0,1,4.6.5s0,.2.4-.2a7,7,0,0,1,1.2.8h.2l.7.9s.8.2,1-.2a1.5,1.5,0,0,0,0-.8l.5.7s.7.3,1-.2a1.3,1.3,0,0,0,.3-.7,8.8,8.8,0,0,0-.9-2.3l-.6-.6s.2-.1,0-.5a2.7,2.7,0,0,0-.4-.8l-.8-.4-.8.2a4.6,4.6,0,0,1-1.6.6,24.6,24.6,0,0,1-3-.8,3.1,3.1,0,0,0-1.8.2c-1.2.4-1.1.5-1.1.5a5.5,5.5,0,0,0-1.5.7h-1.4a19.6,19.6,0,0,0-3.5-.7,8,8,0,0,0-2.1-.1,2.9,2.9,0,0,0-1.5-.4,2.1,2.1,0,0,0-1.1.2l-2.2-.6s.2-.1,0-.4l-.9-.7s.5,0,.6-.3h1.1a.4.4,0,0,0,.4.3h.8s0,.1.9.1a9.1,9.1,0,0,1,2.7-.3.8.8,0,0,0,.3.4c.3.1.3.5.4.6s.3,0,.4-.4-.1-.4-.1-.4-.3-.3,0-.5,1.6-.8,1.6-1,.1-.3.1-.3.5-.2.4-.3a.2.2,0,0,0-.3-.1s.1-.3-.3-.3l-1.1.4v-.2a6.1,6.1,0,0,0-1.5-.2c-.9,0-.7.2-1.4.2a11.5,11.5,0,0,0-2.7-.5c-1.7,0-1.7,0-1.7.3a5.4,5.4,0,0,1-1.5-.2,1.9,1.9,0,0,0-1.5,0s-.3.1-.3-.1l-.2-.2v-.2a1.8,1.8,0,0,0-1.4,0c-.9.2-.8.5-.8.5l-.7.4a1.9,1.9,0,0,0-.1-1,4.9,4.9,0,0,0-.3-.7A1.9,1.9,0,0,0,2659.8,300Z"/><path class="f" d="M2658.8,300.3c-.2.1-.4.1-.6.4a2.5,2.5,0,0,0-.8,1.9h.2a1.8,1.8,0,0,0,.4,1.5h.1v.2h.2l.4.2.4-.5-.3-.2a1.2,1.2,0,0,1,.3-1.4v-.2l-.7-.7.4-1.2"/><polygon class="g" points="2658.2 302 2657.7 302.4 2657.9 302.6 2658.4 302.2 2658.2 302"/><path class="g" d="M2663.3,309.6s.6.4.7.3-.5-.8-.5-.8-.6-.4-.8-.2S2663.3,309.6,2663.3,309.6Z"/><path class="f" d="M2665.1,302.6a2.7,2.7,0,0,1-.3.8,2.6,2.6,0,0,0-.4,1.4,5.8,5.8,0,0,0,2.1.1l1.4-.3a2.2,2.2,0,0,1-.1-.6l-.9-.7-.4.4-1.1-.6v-.4Z"/><polygon class="f" points="2668.9 303.1 2668.6 303.5 2669.4 304 2669.6 304.6 2670.4 304.6 2670.1 303.7 2668.9 303.1"/><circle class="h" cx="2660.3" cy="301.6" r="0.7"/><path class="f" d="M2673,306.9s2.9.2,3.2,1a1.4,1.4,0,0,1-.6,1.4l-2.1.8-.5-.7a1.5,1.5,0,0,0,.7-1.2,1.1,1.1,0,0,0-.7-1.1Z"/><path class="f" d="M2675,306.8s3.1.8,3.3,1.7a1.8,1.8,0,0,1-.5,1.5,16.8,16.8,0,0,1-3.6.5s-1.1.9-1.1,1.4,1.3.5,4.6-.6a4.3,4.3,0,0,0,2.7-1.9l-.4-.4a.5.5,0,0,1-.8.1.5.5,0,0,1,.3-.9l-.7-.7A29.7,29.7,0,0,0,2675,306.8Z"/></svg>