<svg xmlns="http://www.w3.org/2000/svg" xmlns:xlink="http://www.w3.org/1999/xlink" width="5120" height="1320" viewBox="0 0 5120 1320"><defs><style>.a{fill:#42a5f5;}.b,.c{opacity:0.5;}.b{fill:url(#a);}.c{fill:url(#b);}</style><linearGradient id="a" x1="2963.71" y1="158.96" x2="3304.79" y2="158.96" gradientUnits="userSpaceOnUse"><stop offset="0.28" stop-color="#fff" stop-opacity="0"/><stop offset="0.46" stop-color="#fff" stop-opacity="0.01"/><stop offset="0.58" stop-color="#fff" stop-opacity="0.05"/><stop offset="0.69" stop-color="#fff" stop-opacity="0.11"/><stop offset="0.79" stop-color="#fff" stop-opacity="0.19"/><stop offset="0.88" stop-color="#fff" stop-opacity="0.31"/><stop offset="0.97" stop-color="#fff" stop-opacity="0.44"/><stop offset="1" stop-color="#fff" stop-opacity="0.5"/></linearGradient><linearGradient id="b" x1="2960.04" y1="158.35" x2="3301.6" y2="158.35" gradientUnits="userSpaceOnUse"><stop offset="0.49" stop-color="#fff" stop-opacity="0"/><stop offset="0.62" stop-color="#fff" stop-opacity="0.01"/><stop offset="0.7" stop-color="#fff" stop-opacity="0.05"/><stop offset="0.78" stop-color="#fff" stop-opacity="0.11"/><stop offset="0.85" stop-color="#fff" stop-opacity="0.19"/><stop offset="0.92" stop-color="#fff" stop-opacity="0.31"/><stop offset="0.98" stop-color="#fff" stop-opacity="0.44"/><stop offset="1" stop-color="#fff" stop-opacity="0.5"/></linearGradient></defs><path class="a" d="M3274.2,102l-4.3-1.4,1.4-.7,3.3.3-3.6-6.4,1.2-.5,7.3,4.8h5s7.2-1.4,7.2-2.1-5.7-2.9-5.7-2.9l-2.2-2.8h.7l2.9,2.1,7.8,2.1,17.1-5s5.7-1.4,7.1-.7,2.9,0,2.9.7-2.2,2.9-4.3,3.6-12.8,3.6-12.8,3.6.7,0,.7,2.1l-4.6,1.1h-.7l-.8-.7-5.7,1.4s-7.1,2.1-12.1,2.1h-7.3l-.5-.7"/><path class="b" d="M3301.2,99.2s-1.5,2.1-10.7,4.3-172.4,57.7-197.4,66.2-118.9,49.2-118.9,49.2L2962,192.5s103.3-21.3,127.6-27.8,197.3-61.2,198.7-61.9,10-3,14.3-3.3C3302.6,99.5,3302.7,98.7,3301.2,99.2Z"/><path class="c" d="M3297.5,98.7s-1.4,2.1-10.7,4.3-172.4,57.7-197.3,66.2-119,49.2-119,49.2L2958.4,192s103.3-21.3,127.5-27.8,197.4-61.2,198.8-61.9,9.9-3,14.2-3.3C3298.9,99,3300.7,97.7,3297.5,98.7Z"/></svg>