<svg xmlns="http://www.w3.org/2000/svg" width="5120" height="1320" viewBox="0 0 5120 1320"><defs><style>.a,.b,.c,.d,.e{fill:#fff;}.a{opacity:0.78;}.b{opacity:0.5;}.c{opacity:0.6;}.d{opacity:0.34;}.e{opacity:0.29;}</style></defs><polygon class="a" points="1703.2 309.7 1704.6 311.2 1703.2 312.6 1701.7 311.2 1703.2 309.7"/><polygon class="b" points="1489.1 299.1 1490.5 300.5 1489.1 301.9 1487.6 300.5 1489.1 299.1"/><polygon class="b" points="2009.5 15.1 2011 16.5 2009.5 18 2008 16.5 2009.5 15.1"/><polygon class="b" points="1610.9 95 1612.3 96.4 1610.9 97.8 1609.3 96.4 1610.9 95"/><polygon class="b" points="1387.1 160.9 1388.5 162.3 1387.1 163.8 1385.6 162.3 1387.1 160.9"/><polygon class="b" points="1646 369.7 1647.4 371.1 1646 372.5 1644.5 371.1 1646 369.7"/><polygon class="b" points="1739.3 91.6 1740.7 93 1739.3 94.4 1737.8 93 1739.3 91.6"/><polygon class="b" points="2299.4 215.1 2300.8 216.6 2299.4 218 2297.9 216.6 2299.4 215.1"/><polygon class="b" points="1533.6 252.6 1535.1 254 1533.6 255.4 1532.1 254 1533.6 252.6"/><polygon class="b" points="1279.5 242.8 1281 244.2 1279.5 245.6 1278 244.2 1279.5 242.8"/><polygon class="b" points="2393.2 299.6 2394 300.4 2393.2 301.2 2392.3 300.4 2393.2 299.6"/><polygon class="b" points="2065.4 313.9 2066.2 314.7 2065.4 315.5 2064.6 314.7 2065.4 313.9"/><polygon class="a" points="1960.2 307.8 1961 308.6 1960.2 309.3 1959.3 308.6 1960.2 307.8"/><polygon class="b" points="2986.3 136.1 2987.7 137.5 2986.3 138.9 2984.8 137.5 2986.3 136.1"/><polygon class="b" points="2676.7 210.3 2678.2 211.7 2676.7 213.1 2675.2 211.7 2676.7 210.3"/><polygon class="b" points="2509.1 196.4 2510.5 197.9 2509.1 199.3 2507.6 197.9 2509.1 196.4"/><polygon class="a" points="2779 317.2 2780.4 318.6 2779 320.1 2777.5 318.6 2779 317.2"/><polygon class="b" points="2597.6 427 2599.1 428.4 2597.6 429.8 2596.1 428.4 2597.6 427"/><polygon class="a" points="2256.3 363.7 2257.7 365.2 2256.3 366.6 2254.8 365.2 2256.3 363.7"/><polygon class="b" points="2295.3 428.7 2296.7 430.2 2295.3 431.6 2293.8 430.2 2295.3 428.7"/><polygon class="b" points="2206.3 410.7 2207.7 412.2 2206.3 413.6 2204.8 412.2 2206.3 410.7"/><polygon class="b" points="3047.2 202.8 3048 203.6 3047.2 204.4 3046.3 203.6 3047.2 202.8"/><polygon class="b" points="2710.6 147.3 2711.4 148.1 2710.6 148.9 2709.8 148.1 2710.6 147.3"/><polygon class="b" points="2937 428.7 2937.7 429.5 2937 430.3 2936.1 429.5 2937 428.7"/><polygon class="b" points="3923 374.7 3924.4 376.1 3923 377.6 3921.5 376.1 3923 374.7"/><polygon class="c" points="3812.1 24 3813.5 25.5 3812.1 26.9 3810.5 25.5 3812.1 24"/><polygon class="b" points="3532 77.5 3533.4 79 3532 80.4 3530.5 79 3532 77.5"/><polygon class="b" points="3356.4 35.7 3357.8 37.1 3356.4 38.5 3354.9 37.1 3356.4 35.7"/><polygon class="b" points="3185.4 177.8 3186.8 179.2 3185.4 180.6 3183.9 179.2 3185.4 177.8"/><polygon class="b" points="3316.7 196.9 3318.2 198.3 3316.7 199.7 3315.2 198.3 3316.7 196.9"/><polygon class="b" points="4035.2 220.1 4036.6 221.5 4035.2 223 4033.7 221.5 4035.2 220.1"/><polygon class="b" points="4184.3 111.2 4185.7 112.6 4184.3 114.1 4182.8 112.6 4184.3 111.2"/><polygon class="b" points="3636.6 254 3638.1 255.4 3636.6 256.8 3635.1 255.4 3636.6 254"/><polygon class="b" points="3383.5 243.4 3385 244.8 3383.5 246.2 3382 244.8 3383.5 243.4"/><polygon class="b" points="4059.2 82.8 4060 83.6 4059.2 84.4 4058.3 83.6 4059.2 82.8"/><polygon class="b" points="3722.6 116.3 3723.4 117.1 3722.6 117.9 3721.8 117.1 3722.6 116.3"/><polygon class="b" points="4809 431.7 4810.4 433.1 4809 434.6 4807.5 433.1 4809 431.7"/><polygon class="b" points="4607.9 187.6 4609.3 189 4607.9 190.5 4606.4 189 4607.9 187.6"/><polygon class="b" points="4615.7 246.3 4617.2 247.7 4615.7 249.1 4614.2 247.7 4615.7 246.3"/><polygon class="b" points="4496.1 147.7 4497.5 149.1 4496.1 150.5 4494.6 149.1 4496.1 147.7"/><polygon class="b" points="4150.1 301.4 4151.5 302.9 4150.1 304.3 4148.6 302.9 4150.1 301.4"/><polygon class="d" points="4112.4 333.8 4113.8 335.2 4112.4 336.6 4110.9 335.2 4112.4 333.8"/><polygon class="b" points="4302.9 317.9 4304.3 319.3 4302.9 320.7 4301.3 319.3 4302.9 317.9"/><polygon class="b" points="4508.7 388.7 4510.2 390.1 4508.7 391.5 4507.2 390.1 4508.7 388.7"/><polygon class="b" points="4962.2 376.1 4963.6 377.5 4962.2 379 4960.7 377.5 4962.2 376.1"/><polygon class="b" points="4986.4 264.7 4987.8 266.1 4986.4 267.5 4984.9 266.1 4986.4 264.7"/><polygon class="b" points="5104.2 165.7 5105.6 167.1 5104.2 168.5 5102.7 167.1 5104.2 165.7"/><polygon class="b" points="4649.6 183.3 4650.4 184.1 4649.6 184.9 4648.8 184.1 4649.6 183.3"/><polygon class="b" points="4365.7 259 4366.5 259.8 4365.7 260.5 4364.9 259.8 4365.7 259"/><polygon class="b" points="4900.7 107.9 4902.1 109.3 4900.7 110.8 4899.1 109.3 4900.7 107.9"/><polygon class="b" points="4662.3 33.9 4663.7 35.3 4662.3 36.8 4660.8 35.3 4662.3 33.9"/><polygon class="b" points="4387.9 110 4389.3 111.4 4387.9 112.8 4386.3 111.4 4387.9 110"/><polygon class="b" points="2604.4 71.3 2605.8 72.7 2604.4 74.1 2602.9 72.7 2604.4 71.3"/><polygon class="b" points="2832.2 26.2 2833.6 27.7 2832.2 29.1 2830.7 27.7 2832.2 26.2"/><polygon class="b" points="2344.9 62 2346.3 63.4 2344.9 64.8 2343.3 63.4 2344.9 62"/><polygon class="b" points="329.9 178.2 331.3 179.6 329.9 181 328.4 179.6 329.9 178.2"/><polygon class="b" points="198.7 185.7 200.1 187.2 198.7 188.6 197.2 187.2 198.7 185.7"/><polygon class="b" points="308.8 351.3 310.2 352.8 308.8 354.2 307.3 352.8 308.8 351.3"/><polygon class="b" points="619.2 262.8 620.7 264.2 619.2 265.6 617.7 264.2 619.2 262.8"/><polygon class="b" points="695 163.8 696.4 165.2 695 166.6 693.5 165.2 695 163.8"/><polygon class="b" points="465.6 202.8 466.4 203.6 465.6 204.4 464.8 203.6 465.6 202.8"/><polygon class="a" points="1411.8 309.8 1413.2 311.3 1411.8 312.7 1410.3 311.3 1411.8 309.8"/><polygon class="b" points="1495.9 39.6 1497.4 41 1495.9 42.4 1494.4 41 1495.9 39.6"/><polygon class="b" points="1341.9 58.2 1343.3 59.6 1341.9 61 1340.3 59.6 1341.9 58.2"/><polygon class="b" points="1129.4 130.1 1130.9 131.5 1129.4 132.9 1127.9 131.5 1129.4 130.1"/><polygon class="b" points="886.2 69.8 887.7 71.2 886.2 72.6 884.7 71.2 886.2 69.8"/><polygon class="b" points="977.6 131.9 979 133.4 977.6 134.8 976 133.4 977.6 131.9"/><polygon class="b" points="830.6 202 832 203.4 830.6 204.9 829 203.4 830.6 202"/><polygon class="b" points="932.7 205 934.1 206.4 932.7 207.9 931.2 206.4 932.7 205"/><polygon class="b" points="1111.6 266.8 1113 268.2 1111.6 269.6 1110 268.2 1111.6 266.8"/><polygon class="b" points="1337.8 267.3 1339.2 268.8 1337.8 270.2 1336.3 268.8 1337.8 267.3"/><polygon class="a" points="1139.4 341.1 1140.9 342.5 1139.4 344 1137.9 342.5 1139.4 341.1"/><polygon class="b" points="913.3 277.5 914.8 278.9 913.3 280.4 911.8 278.9 913.3 277.5"/><polygon class="b" points="476.5 112 477.9 113.4 476.5 114.9 475 113.4 476.5 112"/><polygon class="b" points="39.9 48.7 41.3 50.2 39.9 51.6 38.4 50.2 39.9 48.7"/><polygon class="b" points="1909.4 473.6 1910.8 475 1909.4 476.5 1907.9 475 1909.4 473.6"/><polygon class="b" points="2515 493 2516.4 494.5 2515 495.9 2513.5 494.5 2515 493"/><polygon class="e" points="2246.4 549.4 2247.8 550.8 2246.4 552.2 2244.9 550.8 2246.4 549.4"/><polygon class="b" points="2438 514.2 2438.7 515 2438 515.8 2437.1 515 2438 514.2"/><polygon class="b" points="1809 433.3 1810.5 434.8 1809 436.2 1807.5 434.8 1809 433.3"/></svg>