<svg xmlns="http://www.w3.org/2000/svg" xmlns:xlink="http://www.w3.org/1999/xlink" width="5120" height="1320" viewBox="0 0 5120 1320"><defs><style>.a{fill:#014b9b;}.b{fill:#155dc0;}.c{fill:#01579b;}.d{opacity:0.21;fill:url(#a);}.e{fill:#03a9f4;}.f,.g,.h{fill:none;stroke:#fff;stroke-miterlimit:10;}.f,.g{stroke-width:0.75px;}.f{opacity:0.64;}.g,.h{opacity:0.46;}.h{stroke-width:0.25px;}</style><radialGradient id="a" cx="2005.71" cy="291.58" r="86" gradientTransform="translate(-634.4) scale(1.28 1)" gradientUnits="userSpaceOnUse"><stop offset="0" stop-color="#a3dcf9" stop-opacity="0.2"/><stop offset="1" stop-color="#fff" stop-opacity="0"/></radialGradient></defs><polygon class="a" points="1897.3 256.1 1897.3 263.6 1961.4 287.9 2390.8 274.9 2656.4 259.3 2656.4 247.5 2089.7 241.6 1897.3 256.1"/><polyline class="b" points="2113.5 147.7 2113.5 151.8 2104.5 151.8 2104.5 145.1"/><polygon class="b" points="2060.2 145.1 2064.7 139.9 2074.7 137.1 2066.3 136.3 2066.7 132.1 2099.7 137.1 2099.7 141.1 2090.6 139.9 2098.3 142.2 2099.4 145.1 2060.2 145.1"/><path class="b" d="M1894.2,263.6l14.5,9.7-1.5,1.6,62.5,35.2h2.5l3.6,2,.9,2,15,8,23-3,5,2,103.5-9s3.5,4,20.5,4,22-8,22-8l94.3-8.3,13.7-7.7,52.7-5,11.8,5.7,4.6-.7v-2.5l13.9-1.5,2,2,300.5-29.8v-2.7l-9.5-.5-256.4,1.7-.6,4.3-103.3,1.4-6.7-4.4-149,1-3,4h-18l-7-4Z"/><path class="b" d="M1975.7,225.1c-1,0-66,23-66,23v1l-15.5,7.1,211.5-2.1,9-3h15l4,3,148-2,8.5-3.2,101.5.2,1,2.2,257-2.2,9,1v-3.6l-9.9-3.1-99.1-3.3-3.7-3.4-45.3-2.6-4,4-82.9-2.8-3.5-2.5-76.6-2.7-2,2-29-1-17.5-.5-7.4-7.7-14.3-7.9-45.8-1.9v-3l-6-2v-4l-25-12-20-2-8-6-75-2v-8.7l-12-1.3-33-21h-10l-29,49-15,5-3,11-5,2Z"/><path class="b" d="M2033.7,144.3l-2,15.8,14,11,48,2,29-2,4-13L2094,142.5l-36.3.6Z"/><polygon class="c" points="2092.7 173.1 2057.7 159.1 2032.7 160.1 2045.7 171.1 2092.7 173.1"/><circle class="b" cx="2056.7" cy="133.1" r="8"/><circle class="b" cx="2109.7" cy="143.1" r="6"/><polyline class="b" points="2049.3 136.3 2049.3 143.4 2062.7 143.4 2062.7 138.4"/><ellipse class="d" cx="1942.7" cy="291.6" rx="110.5" ry="86"/><polygon class="e" points="2083.7 182.1 2071.7 183.1 2033.7 182.6 2009.7 187.4 2126.7 191.3 2159.3 184.5 2083.7 182.1"/><polygon class="e" points="2006.6 201.1 1999.7 200.1 1984.7 205.1 2161.1 211.5 2194.7 203.1 2186.7 203.1 2159.7 208.1 2128.7 206.1 2124.7 207.1 2006.1 203.6 2006.6 201.1"/><polygon class="e" points="2166.7 190.1 2130.7 198.1 2160.7 198.1 2186.8 192.1 2166.7 190.1"/><polyline class="e" points="2218.2 213.1 2203.4 212.5 2168.2 221.4 2222 221.9 2263.5 215"/><polygon class="e" points="2333.7 230.1 2320.7 236.1 2393.7 237.1 2410.3 232.8 2333.7 230.1"/><polygon class="e" points="2500.7 234.1 2497.7 238.1 2546 236.7 2500.7 234.1"/><path class="e" d="M2117.7,217.1l-136-1-5,2,46,2,10-2,78,1Z"/><path class="e" d="M2028.7,228.1l7,2,11-1s-6-2-7-2Z"/><path class="e" d="M2047.9,228.6l7,2,11-1s-6-2-7-2Z"/><path class="e" d="M2067.3,229.3l7,2,11-1s-6-2-7-2Z"/><path class="e" d="M2086.5,229.9l7,2,11-1s-6-2-7-2Z"/><polygon class="e" points="1975.7 225.1 1909.7 248.1 1909.7 249.1 1894.2 256.2 2104.9 254.5 2114.4 251.2 2129.7 251.1 2133.7 254.1 2281.7 252.1 2290.2 248.9 2391.7 249.2 2392.8 251.3 2649.3 249.1 2649.3 245.9 2653.5 244.9 2648.8 243.4 2550.6 240.1 2544.7 242.1 2496.7 242.1 2496.7 238.1 2413.8 235.3 2411.2 235.3 2394.8 240.6 2320.7 239.1 2320.7 236.1 2328.4 232 2302.7 231.1 2257.7 230.1 2225.4 234.8 2162.7 236.1 2157.7 238.1 2150.7 238.1 2136.8 240.1 2111.7 239.1 2110.7 238.1 2098.7 238.1 2092.7 238.7 2086.5 237.3 2076.7 238.7 2070.7 237.1 2055.7 237.1 2045.7 235.1 2035.7 236.1 2028.7 234.1 2027.2 231.9 2018.7 234.1 2003.3 232.8 2002.7 234.1 1975.8 231.9 1975.7 225.1"/><polygon class="e" points="2260 299.8 2246.2 288.6 2322.2 285.6 2326.4 287.1 2273.2 292.6 2260 299.8"/><polygon class="a" points="2037.7 275.4 2037.7 274 2073.9 274 2085.2 279.6 2085.2 281.3 2037.7 275.4"/><polygon class="b" points="2073.8 274.9 2085.3 281.3 2047.9 282.1 2037.7 275.4 2073.8 274.9"/><polygon class="a" points="1973.2 309.6 2107.2 306.6 2111.1 304.8 2118.1 296.3 2150.3 292.7 2166.2 296.6 2208.2 297.6 2237.8 289.6 2255 299.6 2237.2 290.6 2209.2 298.6 2166.2 297.6 2150.2 293.6 2118.2 296.6 2112.2 305.6 2107.2 307.6 1974 311.1 1972.2 310.1 1973.2 309.6"/><path class="a" d="M2121.9,304.9s-1.6-5.6,12.6-7.2,26.1,2,29.1,6.4c0,0-10.8-8.2-24.1-6S2125.2,301.2,2121.9,304.9Z"/><line class="f" x1="2074.8" y1="149.1" x2="2075.2" y2="149.1"/><line class="f" x1="2077.7" y1="154.7" x2="2078" y2="154.7"/><line class="f" x1="2088.9" y1="155.5" x2="2089.9" y2="155.5"/><line class="f" x1="2099.6" y1="164.7" x2="2099.9" y2="164.7"/><line class="f" x1="2106.6" y1="157.7" x2="2106.9" y2="157.7"/><line class="f" x1="2114.6" y1="165.7" x2="2114.9" y2="165.7"/><line class="f" x1="2107.1" y1="155.7" x2="2107.4" y2="155.7"/><line class="f" x1="2109.9" y1="161.3" x2="2110.3" y2="161.3"/><line class="f" x1="2064.2" y1="158.1" x2="2065.2" y2="158.1"/><line class="f" x1="2099.9" y1="162.3" x2="2100.2" y2="162.3"/><line class="f" x1="2081.9" y1="160.3" x2="2082.2" y2="160.3"/><line class="f" x1="2089.9" y1="168.3" x2="2090.2" y2="168.3"/><line class="f" x1="2091.2" y1="156.1" x2="2092.2" y2="156.1"/><line class="f" x1="2093.2" y1="157.1" x2="2094.2" y2="157.1"/><line class="f" x1="2089.3" y1="145.7" x2="2089" y2="145.7"/><line class="f" x1="2086" y1="149.3" x2="2085.6" y2="149.3"/><line class="f" x1="2096" y1="150.2" x2="2095.7" y2="150.2"/><line class="f" x1="2089.6" y1="148.1" x2="2089.2" y2="148.1"/><line class="f" x1="2086.7" y1="153.7" x2="2086.4" y2="153.7"/><line class="f" x1="2119.8" y1="167.7" x2="2119.4" y2="167.7"/><line class="f" x1="2057.8" y1="156.7" x2="2057.4" y2="156.7"/><line class="f" x1="2104.8" y1="168.7" x2="2104.4" y2="168.7"/><line class="f" x1="2057.3" y1="154.6" x2="2056.9" y2="154.6"/><line class="f" x1="2109.4" y1="164.3" x2="2109.1" y2="164.3"/><line class="f" x1="2100.2" y1="157.1" x2="2099.2" y2="157.1"/><line class="f" x1="2119.5" y1="165.3" x2="2119.2" y2="165.3"/><line class="f" x1="2082.5" y1="159.3" x2="2082.2" y2="159.3"/><line class="f" x1="2061.5" y1="146.3" x2="2061.2" y2="146.3"/><line class="f" x1="2075.1" y1="144.7" x2="2075.4" y2="144.7"/><line class="f" x1="2078.4" y1="148.3" x2="2078.8" y2="148.3"/><line class="f" x1="2068.4" y1="149.2" x2="2068.7" y2="149.2"/><polyline class="g" points="1909.7 262.1 1909.7 262.1 1909.7 262.1 1910.7 262.1"/><line class="g" x1="1918.7" y1="258.1" x2="1919.7" y2="258.1"/><polyline class="g" points="1922.2 260.1 1922.2 260.1 1922.2 260.1 1923.2 260.1"/><line class="g" x1="1932.2" y1="262.1" x2="1933.2" y2="262.1"/><polyline class="g" points="1960.2 258.4 1960.2 258.4 1960.2 258.4 1959.2 258.4"/><line class="g" x1="1952.2" y1="259.4" x2="1951.2" y2="259.4"/><polyline class="g" points="1948.7 261.4 1948.7 261.4 1948.7 261.4 1947.7 261.4"/><line class="g" x1="1937.7" y1="258.4" x2="1936.7" y2="258.4"/><polyline class="g" points="1966.2 261 1966.2 261 1966.2 261 1967.2 261"/><line class="g" x1="1975.2" y1="258" x2="1976.2" y2="258"/><polyline class="g" points="2013.2 259.1 2013.2 259.1 2013.2 259.1 2014.2 259.1"/><line class="g" x1="2022.2" y1="259.1" x2="2023.2" y2="259.1"/><polyline class="g" points="1985.2 258.1 1985.2 258.1 1985.2 258.1 1984.2 258.1"/><line class="g" x1="2008.8" y1="258.4" x2="2007.8" y2="258.4"/><polyline class="g" points="2005.3 260.4 2005.3 260.4 2005.3 260.4 2004.3 260.4"/><line class="g" x1="1995.3" y1="259.4" x2="1994.3" y2="259.4"/><polyline class="g" points="2170.8 256 2170.8 256 2170.8 256 2169.8 256"/><line class="g" x1="2141.8" y1="259" x2="2140.8" y2="259"/><polyline class="g" points="2138.3 257 2138.3 257 2138.3 257 2137.3 257"/><line class="g" x1="2148.3" y1="256" x2="2147.3" y2="256"/><polyline class="g" points="2100.2 258.6 2100.2 258.6 2100.2 258.6 2101.2 258.6"/><line class="g" x1="2108.2" y1="257.6" x2="2109.2" y2="257.6"/><polyline class="g" points="2130.7 255.6 2130.7 255.6 2130.7 255.6 2131.7 255.6"/><line class="g" x1="2122.7" y1="258.6" x2="2123.7" y2="258.6"/><polyline class="g" points="2094.2 257.1 2094.2 257.1 2094.2 257.1 2093.2 257.1"/><line class="g" x1="2085.2" y1="260" x2="2084.2" y2="260"/><polyline class="g" points="2048.3 260 2048.3 260 2048.3 260 2047.3 260"/><line class="g" x1="2038.3" y1="258" x2="2037.3" y2="258"/><polyline class="g" points="2075.3 260 2075.3 260 2075.3 260 2076.3 260"/><line class="g" x1="2051.6" y1="258.7" x2="2052.6" y2="258.7"/><polyline class="g" points="2056.2 259.1 2056.2 259.1 2056.2 259.1 2057.2 259.1"/><line class="g" x1="2066.1" y1="259.7" x2="2067.1" y2="259.7"/><polyline class="g" points="2117.8 260.5 2117.8 260.5 2117.8 260.5 2118.8 260.5"/><line class="g" x1="2126.2" y1="263.1" x2="2127.2" y2="263.1"/><line class="g" x1="2121.2" y1="255.1" x2="2120.2" y2="255.1"/><polyline class="g" points="2177 258.8 2177 258.8 2177 258.8 2178 258.8"/><line class="g" x1="2186" y1="254.8" x2="2187" y2="254.8"/><polyline class="g" points="2189.5 256.8 2189.5 256.8 2189.5 256.8 2190.5 256.8"/><line class="g" x1="2199.5" y1="258.8" x2="2200.5" y2="258.8"/><polyline class="g" points="2227.5 255.1 2227.5 255.1 2227.5 255.1 2226.5 255.1"/><line class="g" x1="2219.5" y1="256.1" x2="2218.5" y2="256.1"/><polyline class="g" points="2216 258.1 2216 258.1 2216 258.1 2215 258.1"/><line class="g" x1="2205" y1="255.1" x2="2204" y2="255.1"/><polyline class="g" points="2233.5 257.7 2233.5 257.7 2233.5 257.7 2234.5 257.7"/><line class="g" x1="2242.5" y1="254.7" x2="2243.5" y2="254.7"/><polyline class="g" points="2280.5 255.8 2280.5 255.8 2280.5 255.8 2281.5 255.8"/><line class="g" x1="2289.5" y1="255.8" x2="2290.5" y2="255.8"/><polyline class="g" points="2252.5 254.8 2252.5 254.8 2252.5 254.8 2251.5 254.8"/><line class="g" x1="2276.1" y1="255.1" x2="2275.1" y2="255.1"/><polyline class="g" points="2272.6 257.1 2272.6 257.1 2272.6 257.1 2271.6 257.1"/><line class="g" x1="2262.6" y1="256.1" x2="2261.6" y2="256.1"/><polyline class="g" points="2347 260.6 2347 260.6 2347 260.6 2346 260.6"/><line class="g" x1="2389.2" y1="255.1" x2="2388.2" y2="255.1"/><polyline class="g" points="2314.5 261.6 2314.5 261.6 2314.5 261.6 2313.5 261.6"/><line class="g" x1="2324.5" y1="260.6" x2="2323.5" y2="260.6"/><polyline class="g" points="2355.5 253.3 2355.5 253.3 2355.5 253.3 2356.5 253.3"/><line class="g" x1="2363.5" y1="252.3" x2="2364.5" y2="252.3"/><polyline class="g" points="2307 260.3 2307 260.3 2307 260.3 2308 260.3"/><line class="g" x1="2378" y1="253.3" x2="2379" y2="253.3"/><polyline class="g" points="2349.5 251.8 2349.5 251.8 2349.5 251.8 2348.5 251.8"/><line class="g" x1="2340.5" y1="254.7" x2="2339.5" y2="254.7"/><polyline class="g" points="2303.5 254.6 2303.5 254.6 2303.5 254.6 2302.5 254.6"/><line class="g" x1="2293.5" y1="252.6" x2="2292.5" y2="252.6"/><polyline class="g" points="2330.5 254.6 2330.5 254.6 2330.5 254.6 2331.5 254.6"/><line class="g" x1="2306.9" y1="253.3" x2="2307.9" y2="253.3"/><polyline class="g" points="2311.5 253.8 2311.5 253.8 2311.5 253.8 2312.5 253.8"/><line class="g" x1="2321.4" y1="254.3" x2="2322.4" y2="254.3"/><polyline class="g" points="2373.1 255.2 2373.1 255.2 2373.1 255.2 2374.1 255.2"/><line class="g" x1="2381.5" y1="257.8" x2="2382.5" y2="257.8"/><line class="g" x1="2297.5" y1="259.8" x2="2296.5" y2="259.8"/><polyline class="g" points="2374.1 257.5 2374.1 257.5 2374.1 257.5 2375.1 257.5"/><polyline class="g" points="2368.1 255.9 2368.1 255.9 2368.1 255.9 2367.1 255.9"/><line class="g" x1="2359.1" y1="258.9" x2="2358.1" y2="258.9"/><polyline class="g" points="2349.2 258.8 2349.2 258.8 2349.2 258.8 2350.2 258.8"/><polyline class="g" points="2416.8 255.3 2416.8 255.3 2416.8 255.3 2417.8 255.3"/><line class="g" x1="2425.8" y1="255.3" x2="2426.8" y2="255.3"/><line class="g" x1="2412.4" y1="254.6" x2="2411.4" y2="254.6"/><polyline class="g" points="2397.2 253.1 2397.2 253.1 2397.2 253.1 2396.2 253.1"/><line class="g" x1="2398.9" y1="255.6" x2="2397.9" y2="255.6"/><polyline class="g" points="2497.8 253.3 2497.8 253.3 2497.8 253.3 2496.8 253.3"/><line class="g" x1="2488.8" y1="256.2" x2="2487.8" y2="256.2"/><polyline class="g" points="2451.9 256.2 2451.9 256.2 2451.9 256.2 2450.9 256.2"/><line class="g" x1="2441.9" y1="254.2" x2="2440.9" y2="254.2"/><polyline class="g" points="2478.9 256.2 2478.9 256.2 2478.9 256.2 2479.9 256.2"/><line class="g" x1="2455.3" y1="254.8" x2="2456.3" y2="254.8"/><polyline class="g" points="2459.8 255.3 2459.8 255.3 2459.8 255.3 2460.8 255.3"/><line class="g" x1="2469.8" y1="255.8" x2="2470.8" y2="255.8"/><line class="g" x1="2397.2" y1="258.1" x2="2396.2" y2="258.1"/><polyline class="g" points="2408.9 256.8 2408.9 256.8 2408.9 256.8 2407.9 256.8"/><line class="g" x1="2516.8" y1="256.4" x2="2517.8" y2="256.4"/><polyline class="g" points="2544.8 252.8 2544.8 252.8 2544.8 252.8 2543.8 252.8"/><line class="g" x1="2536.8" y1="253.8" x2="2535.8" y2="253.8"/><polyline class="g" points="2533.3 255.8 2533.3 255.8 2533.3 255.8 2532.3 255.8"/><line class="g" x1="2522.3" y1="252.8" x2="2521.3" y2="252.8"/><polyline class="g" points="2550.9 255.4 2550.9 255.4 2550.9 255.4 2551.9 255.4"/><line class="g" x1="2559.9" y1="252.4" x2="2560.9" y2="252.4"/><line class="g" x1="2584.1" y1="251.7" x2="2585.1" y2="251.7"/><polyline class="g" points="2612.2 255.4 2612.2 255.4 2612.2 255.4 2611.2 255.4"/><line class="g" x1="2604.2" y1="254.4" x2="2603.2" y2="254.4"/><polyline class="g" points="2600.7 252.4 2600.7 252.4 2600.7 252.4 2599.7 252.4"/><line class="g" x1="2589.7" y1="255.4" x2="2588.7" y2="255.4"/><polyline class="g" points="2618.2 252.8 2618.2 252.8 2618.2 252.8 2619.2 252.8"/><line class="g" x1="2627.2" y1="255.8" x2="2628.2" y2="255.8"/><line class="g" x1="2638.4" y1="250.8" x2="2637.4" y2="250.8"/><polyline class="g" points="2634.9 252.8 2634.9 252.8 2634.9 252.8 2633.9 252.8"/><polyline class="g" points="2656.1 251.6 2656.1 251.6 2656.1 251.6 2655.1 251.5"/><line class="g" x1="2653.3" y1="252.6" x2="2652.3" y2="252.5"/><polyline class="g" points="2651.1 250.2 2651.1 250.2 2651.1 250.2 2650.1 250.1"/><polyline class="g" points="2652.6 256.4 2652.6 256.4 2652.6 256.4 2651.6 256.3"/><polyline class="g" points="2076.5 202.1 2076.5 202.1 2076.5 202.1 2075.5 202"/><line class="g" x1="2118.8" y1="198.6" x2="2117.8" y2="198.5"/><polyline class="g" points="2112 215.5 2112 215.5 2112 215.5 2111 215.5"/><line class="g" x1="2122" y1="215" x2="2121" y2="214.9"/><polyline class="g" points="2085.3 195.1 2085.3 195.1 2085.3 195.1 2086.3 195.2"/><line class="g" x1="2093.3" y1="194.5" x2="2094.3" y2="194.6"/><polyline class="g" points="2104.5 213.8 2104.5 213.8 2104.5 213.8 2105.5 213.8"/><line class="g" x1="2107.8" y1="196.2" x2="2108.8" y2="196.3"/><polyline class="g" points="2079.3 193.3 2079.3 193.3 2079.3 193.3 2078.3 193.3"/><line class="g" x1="2075.2" y1="180.8" x2="2074.2" y2="180.8"/><polyline class="g" points="2033.3 194 2033.3 194 2033.3 194 2032.3 193.9"/><line class="g" x1="2023.4" y1="191.5" x2="2022.4" y2="191.4"/><polyline class="g" points="2060.3 195.3 2060.3 195.3 2060.3 195.3 2061.3 195.3"/><line class="g" x1="2079.8" y1="176.8" x2="2080.8" y2="176.9"/><polyline class="g" points="2041.3 193.5 2041.3 193.5 2041.3 193.5 2042.3 193.5"/><line class="g" x1="2015.2" y1="214.5" x2="2016.2" y2="214.6"/><polyline class="g" points="2102.8 197.9 2102.8 197.9 2102.8 197.9 2103.8 197.9"/><line class="g" x1="2111" y1="200.8" x2="2112" y2="200.9"/><line class="g" x1="2027" y1="198.8" x2="2026" y2="198.7"/><polyline class="g" points="2103.7 200.2 2103.7 200.2 2103.7 200.2 2104.7 200.3"/><polyline class="g" points="2095.8 202.4 2095.8 202.4 2095.8 202.4 2094.8 202.4"/><line class="g" x1="2088.6" y1="200.9" x2="2087.6" y2="200.9"/><polyline class="g" points="2065.7 199.4 2065.7 199.4 2065.7 199.4 2066.7 199.4"/><polyline class="g" points="1990.3 209.4 1990.3 209.4 1990.3 209.4 1989.3 209.4"/><polyline class="g" points="1996.2 212.3 1996.2 212.3 1996.2 212.3 1997.2 212.3"/><line class="g" x1="2005.3" y1="209.6" x2="2006.3" y2="209.7"/><polyline class="g" points="2043.2 212.3 2043.2 212.3 2043.2 212.3 2044.2 212.3"/><line class="g" x1="2052.2" y1="212.7" x2="2053.2" y2="212.7"/><polyline class="g" points="2015.2 210.1 2015.2 210.1 2015.2 210.1 2014.2 210.1"/><line class="g" x1="2038.8" y1="211.4" x2="2037.8" y2="211.4"/><polyline class="g" points="2035.2 213.3 2035.2 213.3 2035.2 213.3 2034.2 213.2"/><line class="g" x1="2031.3" y1="209.8" x2="2030.3" y2="209.8"/><polyline class="g" points="2078.2 214.7 2078.2 214.7 2078.2 214.7 2077.2 214.6"/><line class="g" x1="2068.3" y1="212.2" x2="2067.3" y2="212.2"/><line class="g" x1="2074.6" y1="212.5" x2="2075.6" y2="212.5"/><polyline class="g" points="2086.1 214.1 2086.1 214.1 2086.1 214.1 2087.1 214.1"/><polyline class="g" points="2142.2 224.1 2142.2 224.1 2142.2 224.1 2143.2 224.1"/><polyline class="g" points="2125.1 225 2125.1 225 2125.1 225 2124.1 225"/><line class="g" x1="2116.1" y1="222" x2="2115.1" y2="222"/><polyline class="g" points="2078.2 223.1 2078.2 223.1 2078.2 223.1 2077.2 223.1"/><line class="g" x1="2069.2" y1="223.1" x2="2068.2" y2="223.1"/><polyline class="g" points="2106.2 222.1 2106.2 222.1 2106.2 222.1 2107.2 222.1"/><line class="g" x1="2096.1" y1="223.4" x2="2097.1" y2="223.4"/><polyline class="g" points="2043.1 224 2043.1 224 2043.1 224 2044.1 224"/><line class="g" x1="2053.1" y1="222" x2="2054.1" y2="222"/><line class="g" x1="2036.2" y1="222.1" x2="2035.2" y2="222.1"/><polyline class="g" points="2035.2 223.1 2035.2 223.1 2035.2 223.1 2034.2 223.1"/><polyline class="g" points="1998.1 222 1998.1 222 1998.1 222 1999.1 222"/><line class="g" x1="1993.2" y1="225.1" x2="1994.2" y2="225.1"/><polyline class="g" points="1985.2 226.9 1985.2 226.9 1985.2 226.9 1986.2 226.9"/><line class="g" x1="1993.6" y1="229.5" x2="1994.6" y2="229.5"/><line class="g" x1="1988.6" y1="221.5" x2="1987.6" y2="221.5"/><polyline class="g" points="2017.1 222 2017.1 222 2017.1 222 2018.1 222"/><polyline class="g" points="2004.2 226.9 2004.2 226.9 2004.2 226.9 2005.2 226.9"/><line class="g" x1="2012.6" y1="229.5" x2="2013.6" y2="229.5"/><line class="g" x1="2007.6" y1="221.5" x2="2006.6" y2="221.5"/><line class="g" x1="2156.6" y1="235.9" x2="2155.6" y2="235.9"/><polyline class="g" points="2123.1 232.5 2123.1 232.5 2123.1 232.5 2124.1 232.6"/><line class="g" x1="2131.1" y1="231.9" x2="2132.1" y2="231.9"/><line class="g" x1="2145.5" y1="233.6" x2="2146.5" y2="233.7"/><polyline class="g" points="2139.5 230.2 2139.5 230.2 2139.5 230.2 2140.5 230.3"/><line class="g" x1="2160.6" y1="205.9" x2="2159.6" y2="205.9"/><polyline class="g" points="2127.1 202.5 2127.1 202.5 2127.1 202.5 2128.1 202.6"/><line class="g" x1="2135.1" y1="201.9" x2="2136.1" y2="201.9"/><line class="g" x1="2149.5" y1="203.6" x2="2150.5" y2="203.7"/><polyline class="g" points="2149.5 206.2 2149.5 206.2 2149.5 206.2 2150.5 206.3"/><polyline class="g" points="2226.7 232.2 2226.7 232.2 2226.7 232.2 2225.7 232.3"/><line class="g" x1="2267.7" y1="221.3" x2="2266.8" y2="221.4"/><polyline class="g" points="2234.1 223.8 2234.1 223.8 2234.1 223.8 2235.1 223.7"/><line class="g" x1="2241.9" y1="221.8" x2="2242.9" y2="221.7"/><line class="g" x1="2256.4" y1="221" x2="2257.4" y2="220.8"/><polyline class="g" points="2227.9 223.1 2227.9 223.1 2227.9 223.1 2226.9 223.2"/><polyline class="g" points="2251.8 223.4 2251.8 223.4 2251.8 223.4 2252.8 223.3"/><line class="g" x1="2260.4" y1="224.9" x2="2261.4" y2="224.8"/><polyline class="g" points="2253.2 225.6 2253.2 225.6 2253.2 225.6 2254.1 225.5"/><polyline class="g" points="2247 224.9 2247 224.9 2247 224.9 2246 225"/><line class="g" x1="2238.4" y1="228.9" x2="2237.4" y2="229"/><polyline class="g" points="2228.6 230.1 2228.6 230.1 2228.6 230.1 2229.6 230"/><polyline class="g" points="2184 196.7 2184 196.7 2184 196.7 2183 196.9"/><line class="g" x1="2184.2" y1="200.9" x2="2183.2" y2="201.1"/><polyline class="g" points="2168.9 212.8 2168.9 212.8 2168.9 212.8 2169.8 212.6"/><line class="g" x1="2172.5" y1="199.2" x2="2173.5" y2="199"/><line class="g" x1="2190.9" y1="208.3" x2="2191.9" y2="208.1"/><polyline class="g" points="2168.6 203.5 2168.6 203.5 2168.6 203.5 2167.7 203.7"/><polyline class="g" points="2186.5 211.1 2186.5 211.1 2186.5 211.1 2187.4 210.9"/><line class="g" x1="2195.2" y1="212" x2="2196.2" y2="211.8"/><polyline class="g" points="2178 217.2 2178 217.2 2178 217.2 2178.9 217"/><polyline class="g" points="2181.7 212.9 2181.7 212.9 2181.7 212.9 2180.8 213.1"/><line class="g" x1="2173.5" y1="217.6" x2="2172.5" y2="217.8"/><polyline class="g" points="2177.8 202.5 2177.8 202.5 2177.8 202.5 2178.8 202.3"/><line class="g" x1="2206.1" y1="203.6" x2="2205.2" y2="203.3"/><line class="g" x1="2195.8" y1="198.9" x2="2196.8" y2="199.2"/><polyline class="g" points="2190.6 199.4 2190.6 199.4 2190.6 199.4 2191.6 199.7"/><line class="g" x1="2206" y1="209.1" x2="2207" y2="209.4"/><polyline class="g" points="2200 206.9 2200 206.9 2200 206.9 2201 207.2"/><polyline class="g" points="2213.3 211.2 2213.3 211.2 2213.3 211.2 2214.3 211.5"/><line class="g" x1="2195.7" y1="225.4" x2="2194.7" y2="225.3"/><line class="g" x1="2184.6" y1="232" x2="2185.6" y2="232.1"/><polyline class="g" points="2271.6 225.7 2271.6 225.7 2271.6 225.7 2272.6 225.7"/><line class="g" x1="2279.9" y1="228.6" x2="2280.9" y2="228.7"/><polyline class="g" points="2272.6 228 2272.6 228 2272.6 228 2273.6 228.1"/><polyline class="g" points="2203.9 229.3 2203.9 229.3 2203.9 229.3 2204.9 229.4"/><polyline class="g" points="2158 218.6 2158 218.6 2158 218.6 2159 218.6"/><polyline class="g" points="2155.2 228.1 2155.2 228.1 2155.2 228.1 2154.2 228.1"/><line class="g" x1="2143" y1="218.3" x2="2142" y2="218.3"/><line class="g" x1="2170.3" y1="230.5" x2="2171.3" y2="230.5"/><line class="g" x1="2168.7" y1="227" x2="2167.7" y2="227"/><polyline class="g" points="2287.2 288.1 2287.2 288.1 2287.2 288.1 2286.2 288.1"/><polyline class="g" points="2265.2 294.1 2265.2 294.1 2265.2 294.1 2266.2 294.1"/><polyline class="g" points="2256.2 290.3 2256.2 290.3 2256.2 290.3 2255.2 290.3"/><line class="g" x1="2260.2" y1="294.1" x2="2261.2" y2="294.1"/><polyline class="g" points="2267.2 290.1 2267.2 290.1 2267.2 290.1 2268.2 290.1"/><line class="h" x1="2042.2" y1="274.6" x2="2043.2" y2="274.6"/><polyline class="g" points="2082.2 279 2082.2 279 2082.2 279 2083.2 279.2"/><line class="h" x1="2014.2" y1="309.6" x2="2015.2" y2="309.6"/><line class="h" x1="2056" y1="308" x2="2057" y2="308"/><line class="h" x1="2101.2" y1="307.6" x2="2102.2" y2="307.6"/><line class="h" x1="2156.3" y1="294.3" x2="2157.1" y2="294.9"/><line class="h" x1="2189.2" y1="297.6" x2="2190.2" y2="297.6"/><line class="h" x1="2247.8" y1="295.8" x2="2248.7" y2="296"/><line class="g" x1="2531.9" y1="239.2" x2="2530.9" y2="239.2"/><line class="g" x1="2538.9" y1="238.9" x2="2539.9" y2="238.9"/><polyline class="g" points="2505.9 239.5 2505.9 239.5 2505.9 239.5 2506.9 239.6"/><line class="g" x1="2519.1" y1="241.5" x2="2520.1" y2="241.5"/><polyline class="g" points="2372.8 238.9 2372.8 238.9 2372.8 238.9 2373.8 238.9"/><polyline class="g" points="2545.2 239.4 2545.2 239.4 2545.2 239.4 2546.1 239"/><line class="g" x1="2344.9" y1="238.2" x2="2343.9" y2="238.1"/><line class="g" x1="2365.9" y1="237.8" x2="2366.9" y2="237.9"/><polyline class="g" points="2328.9 237.5 2328.9 237.5 2328.9 237.5 2329.9 237.5"/><line class="g" x1="2408.2" y1="235.8" x2="2409" y2="235.2"/><polyline class="g" points="2333.8 237.8 2333.8 237.8 2333.8 237.8 2334.8 237.9"/><polyline class="g" points="2397.2 237.4 2397.2 237.4 2397.2 237.4 2398.1 236.8"/><line class="g" x1="2157.5" y1="233.1" x2="2158.5" y2="233.1"/><polyline class="g" points="2137.4 224 2137.4 224 2137.4 224 2136.4 224"/><polyline class="g" points="2154.4 223 2154.4 223 2154.4 223 2155.4 223"/><line class="g" x1="2130.9" y1="238.1" x2="2131.9" y2="238.2"/><polyline class="g" points="2156.5 215.6 2156.5 215.6 2156.5 215.6 2155.5 215.5"/><line class="g" x1="2148.4" y1="216.2" x2="2147.4" y2="216.1"/><line class="g" x1="2134" y1="214.5" x2="2133" y2="214.4"/><polyline class="g" points="2140 217.8 2140 217.8 2140 217.8 2139 217.8"/><polyline class="g" points="2121.5 229.4 2121.5 229.4 2121.5 229.4 2120.5 229.4"/><polyline class="g" points="2124.4 220 2124.4 220 2124.4 220 2125.4 220"/><line class="g" x1="2073.2" y1="175.1" x2="2074.2" y2="175.1"/><polyline class="g" points="2066.8 203.4 2066.8 203.4 2066.8 203.4 2067.8 203.4"/><line class="g" x1="2043.2" y1="200.9" x2="2044.2" y2="201"/><polyline class="g" points="2047.7 201.6 2047.7 201.6 2047.7 201.6 2048.7 201.6"/><line class="g" x1="2057.7" y1="202.6" x2="2058.7" y2="202.7"/></svg>