<svg xmlns="http://www.w3.org/2000/svg" xmlns:xlink="http://www.w3.org/1999/xlink" width="5120" height="1320" viewBox="0 0 5120 1320"><defs><style>.a{fill:#014b9b;}.b{fill:#155dc0;}.c{fill:#01579b;}.d{opacity:0.14;fill:url(#a);}.e{fill:#03a9f4;}.f,.g,.h{fill:none;stroke:#fff;stroke-miterlimit:10;}.f,.g{stroke-width:0.75px;}.f{opacity:0.64;}.g,.h{opacity:0.46;}.h{stroke-width:0.25px;}</style><radialGradient id="a" cx="2461.29" cy="465.26" r="52.83" gradientTransform="translate(-634.4) scale(1.28 1)" gradientUnits="userSpaceOnUse"><stop offset="0" stop-color="#a3dcf9" stop-opacity="0.2"/><stop offset="1" stop-color="#fff" stop-opacity="0"/></radialGradient></defs><polygon class="a" points="2504.2 446.5 2504.2 451.1 2543.5 466 2807.3 458 2970.5 448.5 2970.5 441.2 2622.4 437.6 2504.2 446.5"/><polyline class="b" points="2637 379.9 2637 382.4 2631.4 382.4 2631.4 378.3"/><polygon class="b" points="2604.2 378.3 2607 375.1 2613.1 373.4 2608 372.9 2608.2 370.3 2628.5 373.4 2628.5 375.8 2622.9 375.1 2627.6 376.5 2628.3 378.3 2604.2 378.3"/><path class="b" d="M2502.3,451.1l8.9,5.9-1,1,38.4,21.6h1.6l2.2,1.3.5,1.2,9.2,4.9,14.2-1.8,3,1.2,63.6-5.5s2.2,2.4,12.6,2.4,13.5-4.9,13.5-4.9l57.9-5.1,8.5-4.7,32.3-3.1,7.3,3.5,2.8-.4V467l8.5-.9,1.3,1.3L2972.2,449v-1.6l-5.9-.3-157.5,1.1-.3,2.6-63.5.8-4.1-2.7-91.5.6-1.9,2.5h-11l-4.3-2.5Z"/><path class="b" d="M2552.3,427.4c-.6,0-40.5,14.2-40.5,14.2v.6l-9.5,4.3,129.9-1.3,5.5-1.8h9.2l2.5,1.8,90.9-1.2,5.2-1.9h62.3l.7,1.3,157.8-1.3,5.5.6v-2.2l-6-1.9-60.9-2.1-2.3-2-27.8-1.6-2.5,2.4-50.8-1.7-2.2-1.5-47.1-1.7-1.2,1.2-17.8-.6-10.8-.3-4.5-4.7-8.8-4.9-28.1-1.1v-1.9l-3.7-1.2v-2.5l-15.4-7.3-12.3-1.3-4.9-3.7-46-1.2v-5.3l-7.4-.8L2591,382h-6.1l-17.8,30.1-9.3,3-1.8,6.8-3.1,1.2Z"/><path class="b" d="M2587.9,377.8l-1.2,9.7,8.6,6.8,29.5,1.2,17.8-1.2,2.5-8-20.1-9.6-22.3.4Z"/><polygon class="c" points="2624.2 395.5 2602.7 386.9 2587.3 387.5 2595.3 394.3 2624.2 395.5"/><circle class="b" cx="2602.1" cy="370.9" r="4.9"/><circle class="b" cx="2634.6" cy="377.1" r="3.7"/><polyline class="b" points="2597.6 372.9 2597.6 377.3 2605.8 377.3 2605.8 374.2"/><ellipse class="d" cx="2528" cy="465.3" rx="67.9" ry="52.8"/><polygon class="e" points="2618.7 401 2611.3 401.6 2587.9 401.3 2573.2 404.3 2645.1 406.6 2665.1 402.5 2618.7 401"/><polygon class="e" points="2571.3 412.7 2567.1 412.1 2557.8 415.1 2666.2 419.1 2686.8 413.9 2681.9 413.9 2665.3 417 2646.3 415.8 2643.8 416.4 2571 414.2 2571.3 412.7"/><polygon class="e" points="2669.6 405.9 2647.5 410.8 2666 410.8 2682 407.2 2669.6 405.9"/><polyline class="e" points="2701.3 420.1 2692.2 419.7 2670.6 425.2 2703.6 425.5 2729.1 421.2"/><polygon class="e" points="2772.2 430.5 2764.2 434.2 2809.1 434.8 2819.3 432.2 2772.2 430.5"/><polygon class="e" points="2874.8 433 2872.9 435.4 2902.6 434.6 2874.8 433"/><path class="e" d="M2639.5,422.5l-83.5-.6-3.1,1.2,28.3,1.3,6.1-1.3,47.9.6Z"/><path class="e" d="M2584.9,429.3l4.3,1.2,6.7-.6a40.8,40.8,0,0,0-4.3-1.2Z"/><path class="e" d="M2596.7,429.6l4.3,1.2,6.7-.6a40.8,40.8,0,0,0-4.3-1.2Z"/><path class="e" d="M2608.6,430l4.3,1.3,6.7-.6a32.8,32.8,0,0,0-4.3-1.3Z"/><path class="e" d="M2620.4,430.4l4.3,1.2,6.7-.6a34.9,34.9,0,0,0-4.3-1.2Z"/><polygon class="e" points="2552.3 427.4 2511.8 441.6 2511.8 442.2 2502.3 446.5 2631.7 445.5 2637.5 443.5 2646.9 443.4 2649.4 445.2 2740.3 444 2745.5 442.1 2807.9 442.2 2808.5 443.5 2966.1 442.2 2966.1 440.2 2968.6 439.6 2965.8 438.7 2905.5 436.7 2901.8 437.9 2872.3 437.9 2872.3 435.4 2821.5 433.7 2819.8 433.7 2809.7 437 2764.2 436 2764.2 434.2 2769 431.7 2753.2 431.1 2725.5 430.5 2705.7 433.4 2667.2 434.2 2664.1 435.4 2659.8 435.4 2651.3 436.7 2635.8 436 2635.2 435.4 2627.9 435.4 2624.2 435.8 2620.4 434.9 2614.4 435.8 2610.7 434.8 2601.5 434.8 2595.3 433.6 2589.2 434.2 2584.9 433 2583.9 431.6 2578.7 433 2569.3 432.2 2568.9 433 2552.4 431.6 2552.3 427.4"/><polygon class="e" points="2726.9 473.3 2718.5 466.4 2765.1 464.6 2767.7 465.5 2735.1 468.9 2726.9 473.3"/><polygon class="a" points="2590.4 458.3 2590.4 457.5 2612.6 457.5 2619.6 460.9 2619.6 462 2590.4 458.3"/><polygon class="b" points="2612.6 458 2619.6 462 2596.7 462.4 2590.4 458.3 2612.6 458"/><polygon class="a" points="2550.8 479.3 2633.1 477.5 2635.5 476.4 2639.8 471.1 2659.6 468.9 2669.3 471.3 2695.1 472 2713.3 467 2723.9 473.2 2712.9 467.7 2695.7 472.6 2669.3 472 2659.5 469.5 2639.8 471.3 2636.2 476.9 2633.1 478.1 2551.3 480.3 2550.2 479.6 2550.8 479.3"/><path class="a" d="M2642.1,476.5s-.9-3.5,7.8-4.5,16,1.3,17.9,4c0,0-6.7-5.1-14.8-3.7S2644.1,474.2,2642.1,476.5Z"/><line class="f" x1="2613.2" y1="380.7" x2="2613.4" y2="380.7"/><line class="f" x1="2615" y1="384.2" x2="2615.2" y2="384.2"/><line class="f" x1="2621.9" y1="384.7" x2="2622.5" y2="384.7"/><line class="f" x1="2628.4" y1="390.3" x2="2628.6" y2="390.3"/><line class="f" x1="2632.7" y1="386" x2="2632.9" y2="386"/><line class="f" x1="2637.7" y1="391" x2="2637.9" y2="391"/><line class="f" x1="2633.1" y1="384.8" x2="2633.3" y2="384.8"/><line class="f" x1="2634.8" y1="388.3" x2="2635" y2="388.3"/><line class="f" x1="2606.7" y1="386.3" x2="2607.3" y2="386.3"/><line class="f" x1="2628.6" y1="388.9" x2="2628.8" y2="388.9"/><line class="f" x1="2617.6" y1="387.6" x2="2617.8" y2="387.6"/><line class="f" x1="2622.5" y1="392.5" x2="2622.7" y2="392.5"/><line class="f" x1="2623.3" y1="385" x2="2623.9" y2="385"/><line class="f" x1="2624.5" y1="385.7" x2="2625.1" y2="385.7"/><line class="f" x1="2622.1" y1="378.6" x2="2621.9" y2="378.6"/><line class="f" x1="2620.1" y1="380.9" x2="2619.9" y2="380.9"/><line class="f" x1="2626.2" y1="381.5" x2="2626" y2="381.5"/><line class="f" x1="2622.3" y1="380.1" x2="2622.1" y2="380.1"/><line class="f" x1="2620.5" y1="383.6" x2="2620.3" y2="383.6"/><line class="f" x1="2640.8" y1="392.2" x2="2640.6" y2="392.2"/><line class="f" x1="2602.7" y1="385.4" x2="2602.5" y2="385.4"/><line class="f" x1="2631.6" y1="392.8" x2="2631.4" y2="392.8"/><line class="f" x1="2602.4" y1="384.2" x2="2602.2" y2="384.2"/><line class="f" x1="2634.5" y1="390.1" x2="2634.3" y2="390.1"/><line class="f" x1="2628.8" y1="385.7" x2="2628.2" y2="385.7"/><line class="f" x1="2640.7" y1="390.7" x2="2640.5" y2="390.7"/><line class="f" x1="2617.9" y1="387" x2="2617.7" y2="387"/><line class="f" x1="2605" y1="379" x2="2604.8" y2="379"/><line class="f" x1="2613.4" y1="378" x2="2613.6" y2="378"/><line class="f" x1="2615.4" y1="380.2" x2="2615.6" y2="380.2"/><line class="f" x1="2609.2" y1="380.8" x2="2609.5" y2="380.8"/><polyline class="g" points="2511.8 450.2 2511.8 450.2 2511.8 450.2 2512.4 450.2"/><line class="g" x1="2517.3" y1="447.7" x2="2517.9" y2="447.7"/><polyline class="g" points="2519.4 448.9 2519.4 448.9 2519.4 448.9 2520.1 448.9"/><line class="g" x1="2525.6" y1="450.2" x2="2526.2" y2="450.2"/><polyline class="g" points="2542.8 447.9 2542.8 447.9 2542.8 447.9 2542.2 447.9"/><line class="g" x1="2537.9" y1="448.5" x2="2537.3" y2="448.5"/><polyline class="g" points="2535.8 449.8 2535.8 449.8 2535.8 449.8 2535.1 449.8"/><line class="g" x1="2529" y1="447.9" x2="2528.4" y2="447.9"/><polyline class="g" points="2546.5 449.5 2546.5 449.5 2546.5 449.5 2547.1 449.5"/><line class="g" x1="2552" y1="447.7" x2="2552.7" y2="447.7"/><polyline class="g" points="2575.3 448.3 2575.3 448.3 2575.3 448.3 2576 448.3"/><line class="g" x1="2580.9" y1="448.3" x2="2581.5" y2="448.3"/><polyline class="g" points="2558.1 447.7 2558.1 447.7 2558.1 447.7 2557.5 447.7"/><line class="g" x1="2572.6" y1="447.9" x2="2572" y2="447.9"/><polyline class="g" points="2570.5 449.1 2570.5 449.1 2570.5 449.1 2569.9 449.1"/><line class="g" x1="2564.4" y1="448.5" x2="2563.7" y2="448.5"/><polyline class="g" points="2672.1 446.4 2672.1 446.4 2672.1 446.4 2671.5 446.4"/><line class="g" x1="2654.3" y1="448.2" x2="2653.7" y2="448.2"/><polyline class="g" points="2652.2 447 2652.2 447 2652.2 447 2651.6 447"/><line class="g" x1="2658.3" y1="446.4" x2="2657.7" y2="446.4"/><polyline class="g" points="2628.8 448 2628.8 448 2628.8 448 2629.4 448"/><line class="g" x1="2633.7" y1="447.4" x2="2634.3" y2="447.4"/><polyline class="g" points="2647.5 446.2 2647.5 446.2 2647.5 446.2 2648.2 446.2"/><line class="g" x1="2642.6" y1="448" x2="2643.2" y2="448"/><polyline class="g" points="2625.1 447.1 2625.1 447.1 2625.1 447.1 2624.5 447.1"/><line class="g" x1="2619.6" y1="448.9" x2="2619" y2="448.9"/><polyline class="g" points="2596.9 448.9 2596.9 448.9 2596.9 448.9 2596.3 448.9"/><line class="g" x1="2590.8" y1="447.6" x2="2590.1" y2="447.6"/><polyline class="g" points="2613.5 448.9 2613.5 448.9 2613.5 448.9 2614.1 448.9"/><line class="g" x1="2599" y1="448.1" x2="2599.6" y2="448.1"/><polyline class="g" points="2601.8 448.3 2601.8 448.3 2601.8 448.3 2602.4 448.3"/><line class="g" x1="2607.9" y1="448.7" x2="2608.5" y2="448.7"/><polyline class="g" points="2639.6 449.2 2639.6 449.2 2639.6 449.2 2640.2 449.2"/><line class="g" x1="2644.8" y1="450.8" x2="2645.4" y2="450.8"/><line class="g" x1="2641.7" y1="445.9" x2="2641.1" y2="445.9"/><polyline class="g" points="2676 448.1 2676 448.1 2676 448.1 2676.6 448.1"/><line class="g" x1="2681.5" y1="445.6" x2="2682.1" y2="445.6"/><polyline class="g" points="2683.6 446.9 2683.6 446.9 2683.6 446.9 2684.2 446.9"/><line class="g" x1="2689.8" y1="448.1" x2="2690.4" y2="448.1"/><polyline class="g" points="2707 445.9 2707 445.9 2707 445.9 2706.4 445.9"/><line class="g" x1="2702.1" y1="446.5" x2="2701.5" y2="446.5"/><polyline class="g" points="2699.9 447.7 2699.9 447.7 2699.9 447.7 2699.3 447.7"/><line class="g" x1="2693.2" y1="445.9" x2="2692.6" y2="445.9"/><polyline class="g" points="2710.7 447.5 2710.7 447.5 2710.7 447.5 2711.3 447.5"/><line class="g" x1="2716.2" y1="445.6" x2="2716.8" y2="445.6"/><polyline class="g" points="2739.5 446.3 2739.5 446.3 2739.5 446.3 2740.1 446.3"/><line class="g" x1="2745.1" y1="446.3" x2="2745.7" y2="446.3"/><polyline class="g" points="2722.3 445.6 2722.3 445.6 2722.3 445.6 2721.7 445.6"/><line class="g" x1="2736.8" y1="445.8" x2="2736.2" y2="445.8"/><polyline class="g" points="2734.7 447.1 2734.7 447.1 2734.7 447.1 2734.1 447.1"/><line class="g" x1="2728.5" y1="446.5" x2="2727.9" y2="446.5"/><polyline class="g" points="2780.4 449.3 2780.4 449.3 2780.4 449.3 2779.8 449.3"/><line class="g" x1="2806.3" y1="445.9" x2="2805.7" y2="445.9"/><polyline class="g" points="2760.5 449.9 2760.5 449.9 2760.5 449.9 2759.9 449.9"/><line class="g" x1="2766.6" y1="449.3" x2="2766" y2="449.3"/><polyline class="g" points="2785.6 444.8 2785.6 444.8 2785.6 444.8 2786.2 444.8"/><line class="g" x1="2790.5" y1="444.1" x2="2791.2" y2="444.1"/><polyline class="g" points="2755.8 449.1 2755.8 449.1 2755.8 449.1 2756.4 449.1"/><line class="g" x1="2799.4" y1="444.8" x2="2800.1" y2="444.8"/><polyline class="g" points="2781.9 443.8 2781.9 443.8 2781.9 443.8 2781.3 443.8"/><line class="g" x1="2776.4" y1="445.6" x2="2775.8" y2="445.6"/><polyline class="g" points="2753.7 445.6 2753.7 445.6 2753.7 445.6 2753.1 445.6"/><line class="g" x1="2747.6" y1="444.4" x2="2747" y2="444.4"/><polyline class="g" points="2770.3 445.6 2770.3 445.6 2770.3 445.6 2770.9 445.6"/><line class="g" x1="2755.8" y1="444.8" x2="2756.4" y2="444.8"/><polyline class="g" points="2758.6 445 2758.6 445 2758.6 445 2759.2 445"/><line class="g" x1="2764.7" y1="445.4" x2="2765.3" y2="445.4"/><polyline class="g" points="2796.4 445.9 2796.4 445.9 2796.4 445.9 2797 445.9"/><line class="g" x1="2801.6" y1="447.5" x2="2802.2" y2="447.5"/><line class="g" x1="2750" y1="448.7" x2="2749.4" y2="448.7"/><polyline class="g" points="2797.1 447.3 2797.1 447.3 2797.1 447.3 2797.7 447.3"/><polyline class="g" points="2793.4 446.4 2793.4 446.4 2793.4 446.4 2792.8 446.4"/><line class="g" x1="2787.9" y1="448.2" x2="2787.2" y2="448.2"/><polyline class="g" points="2781.7 448.2 2781.7 448.2 2781.7 448.2 2782.4 448.2"/><polyline class="g" points="2823.3 446 2823.3 446 2823.3 446 2823.9 446"/><line class="g" x1="2828.8" y1="446" x2="2829.4" y2="446"/><line class="g" x1="2820.6" y1="445.5" x2="2820" y2="445.5"/><polyline class="g" points="2811.2 444.6 2811.2 444.6 2811.2 444.6 2810.6 444.6"/><line class="g" x1="2812.3" y1="446.2" x2="2811.7" y2="446.2"/><polyline class="g" points="2873 444.7 2873 444.7 2873 444.7 2872.4 444.7"/><line class="g" x1="2867.5" y1="446.5" x2="2866.9" y2="446.5"/><polyline class="g" points="2844.8 446.5 2844.8 446.5 2844.8 446.5 2844.2 446.5"/><line class="g" x1="2838.7" y1="445.3" x2="2838.1" y2="445.3"/><polyline class="g" points="2861.4 446.5 2861.4 446.5 2861.4 446.5 2862 446.5"/><line class="g" x1="2846.9" y1="445.7" x2="2847.5" y2="445.7"/><polyline class="g" points="2849.7 446 2849.7 446 2849.7 446 2850.3 446"/><line class="g" x1="2855.8" y1="446.3" x2="2856.4" y2="446.3"/><line class="g" x1="2811.2" y1="447.7" x2="2810.6" y2="447.7"/><polyline class="g" points="2818.4 446.9 2818.4 446.9 2818.4 446.9 2817.8 446.9"/><line class="g" x1="2884.7" y1="446.7" x2="2885.3" y2="446.7"/><polyline class="g" points="2901.9 444.4 2901.9 444.4 2901.9 444.4 2901.3 444.4"/><line class="g" x1="2897" y1="445.1" x2="2896.4" y2="445.1"/><polyline class="g" points="2894.9 446.3 2894.9 446.3 2894.9 446.3 2894.3 446.3"/><line class="g" x1="2888.1" y1="444.4" x2="2887.5" y2="444.4"/><polyline class="g" points="2905.6 446 2905.6 446 2905.6 446 2906.2 446"/><line class="g" x1="2911.2" y1="444.2" x2="2911.8" y2="444.2"/><line class="g" x1="2926.1" y1="443.8" x2="2926.7" y2="443.8"/><polyline class="g" points="2943.3 446 2943.3 446 2943.3 446 2942.7 446"/><line class="g" x1="2938.4" y1="445.4" x2="2937.8" y2="445.4"/><polyline class="g" points="2936.2 444.2 2936.2 444.2 2936.2 444.2 2935.6 444.2"/><line class="g" x1="2929.5" y1="446" x2="2928.9" y2="446"/><polyline class="g" points="2947 444.4 2947 444.4 2947 444.4 2947.6 444.4"/><line class="g" x1="2952.5" y1="446.3" x2="2953.1" y2="446.3"/><line class="g" x1="2959.4" y1="443.2" x2="2958.8" y2="443.2"/><polyline class="g" points="2957.3 444.4 2957.3 444.4 2957.3 444.4 2956.6 444.4"/><polyline class="g" points="3067.3 467.7 3067.3 467.7 3067.3 467.7 3066.7 467.7"/><line class="g" x1="3065.5" y1="468.3" x2="3064.9" y2="468.3"/><polyline class="g" points="3064.2 466.8 3064.2 466.8 3064.2 466.8 3063.6 466.8"/><polyline class="g" points="3065.1 470.7 3065.1 470.7 3065.1 470.7 3064.5 470.6"/><polyline class="g" points="2614.2 413.3 2614.2 413.3 2614.2 413.3 2613.6 413.3"/><line class="g" x1="2640.3" y1="411.1" x2="2639.6" y2="411.1"/><polyline class="g" points="2636 421.5 2636 421.5 2636 421.5 2635.4 421.5"/><line class="g" x1="2642.2" y1="421.2" x2="2641.6" y2="421.2"/><polyline class="g" points="2619.7 409 2619.7 409 2619.7 409 2620.3 409.1"/><line class="g" x1="2624.6" y1="408.7" x2="2625.2" y2="408.7"/><polyline class="g" points="2631.5 420.5 2631.5 420.5 2631.5 420.5 2632.1 420.5"/><line class="g" x1="2633.5" y1="409.7" x2="2634.1" y2="409.7"/><polyline class="g" points="2616 407.9 2616 407.9 2616 407.9 2615.4 407.9"/><line class="g" x1="2613.5" y1="400.2" x2="2612.9" y2="400.2"/><polyline class="g" points="2587.7 408.3 2587.7 408.3 2587.7 408.3 2587.1 408.3"/><line class="g" x1="2581.7" y1="406.8" x2="2581" y2="406.8"/><polyline class="g" points="2604.3 409.1 2604.3 409.1 2604.3 409.1 2604.9 409.2"/><line class="g" x1="2616.3" y1="397.8" x2="2616.9" y2="397.8"/><polyline class="g" points="2592.6 408 2592.6 408 2592.6 408 2593.2 408"/><line class="g" x1="2576.6" y1="420.9" x2="2577.2" y2="421"/><polyline class="g" points="2630.4 410.7 2630.4 410.7 2630.4 410.7 2631 410.7"/><line class="g" x1="2635.4" y1="412.5" x2="2636.1" y2="412.6"/><line class="g" x1="2583.8" y1="411.3" x2="2583.2" y2="411.2"/><polyline class="g" points="2631 412.2 2631 412.2 2631 412.2 2631.6 412.2"/><polyline class="g" points="2626.1 413.5 2626.1 413.5 2626.1 413.5 2625.5 413.5"/><line class="g" x1="2621.7" y1="412.6" x2="2621.1" y2="412.5"/><polyline class="g" points="2607.6 411.6 2607.6 411.6 2607.6 411.6 2608.2 411.7"/><polyline class="g" points="2561.3 417.8 2561.3 417.8 2561.3 417.8 2560.7 417.8"/><polyline class="g" points="2564.9 419.5 2564.9 419.5 2564.9 419.5 2565.5 419.6"/><line class="g" x1="2570.5" y1="417.9" x2="2571.1" y2="418"/><polyline class="g" points="2593.8 419.6 2593.8 419.6 2593.8 419.6 2594.4 419.6"/><line class="g" x1="2599.3" y1="419.8" x2="2599.9" y2="419.8"/><polyline class="g" points="2576.6 418.2 2576.6 418.2 2576.6 418.2 2576 418.2"/><line class="g" x1="2591.1" y1="419" x2="2590.5" y2="419"/><polyline class="g" points="2588.9 420.2 2588.9 420.2 2588.9 420.2 2588.3 420.1"/><line class="g" x1="2586.5" y1="418.1" x2="2585.8" y2="418"/><polyline class="g" points="2615.3 421 2615.3 421 2615.3 421 2614.7 421"/><line class="g" x1="2609.2" y1="419.5" x2="2608.6" y2="419.5"/><line class="g" x1="2613.1" y1="419.7" x2="2613.7" y2="419.7"/><polyline class="g" points="2620.2 420.7 2620.2 420.7 2620.2 420.7 2620.8 420.7"/><polyline class="g" points="2654.6 426.8 2654.6 426.8 2654.6 426.8 2655.2 426.8"/><polyline class="g" points="2644.1 427.4 2644.1 427.4 2644.1 427.4 2643.5 427.4"/><line class="g" x1="2638.6" y1="425.6" x2="2638" y2="425.6"/><polyline class="g" points="2615.3 426.2 2615.3 426.2 2615.3 426.2 2614.7 426.2"/><line class="g" x1="2609.8" y1="426.2" x2="2609.1" y2="426.2"/><polyline class="g" points="2632.5 425.6 2632.5 425.6 2632.5 425.6 2633.1 425.6"/><line class="g" x1="2626.3" y1="426.4" x2="2626.9" y2="426.4"/><polyline class="g" points="2593.7 426.7 2593.7 426.7 2593.7 426.7 2594.3 426.7"/><line class="g" x1="2599.9" y1="425.5" x2="2600.5" y2="425.5"/><line class="g" x1="2589.5" y1="425.6" x2="2588.9" y2="425.6"/><polyline class="g" points="2588.9 426.2 2588.9 426.2 2588.9 426.2 2588.3 426.2"/><polyline class="g" points="2566.1 425.6 2566.1 425.6 2566.1 425.6 2566.7 425.6"/><line class="g" x1="2563.1" y1="427.4" x2="2563.7" y2="427.4"/><polyline class="g" points="2558.2 428.6 2558.2 428.6 2558.2 428.6 2558.8 428.6"/><line class="g" x1="2563.3" y1="430.1" x2="2563.9" y2="430.1"/><line class="g" x1="2560.2" y1="425.2" x2="2559.6" y2="425.2"/><polyline class="g" points="2577.8 425.6 2577.8 425.6 2577.8 425.6 2578.4 425.6"/><polyline class="g" points="2569.8 428.6 2569.8 428.6 2569.8 428.6 2570.5 428.6"/><line class="g" x1="2575" y1="430.1" x2="2575.6" y2="430.1"/><line class="g" x1="2571.9" y1="425.2" x2="2571.3" y2="425.2"/><line class="g" x1="2663.5" y1="434.1" x2="2662.8" y2="434.1"/><polyline class="g" points="2642.8 432 2642.8 432 2642.8 432 2643.5 432"/><line class="g" x1="2647.8" y1="431.6" x2="2648.4" y2="431.6"/><line class="g" x1="2656.7" y1="432.7" x2="2657.3" y2="432.7"/><polyline class="g" points="2653 430.6 2653 430.6 2653 430.6 2653.6 430.6"/><line class="g" x1="2665.9" y1="415.7" x2="2665.3" y2="415.6"/><polyline class="g" points="2645.3 413.6 2645.3 413.6 2645.3 413.6 2645.9 413.6"/><line class="g" x1="2650.2" y1="413.2" x2="2650.9" y2="413.2"/><line class="g" x1="2659.1" y1="414.2" x2="2659.7" y2="414.3"/><polyline class="g" points="2659.1 415.8 2659.1 415.8 2659.1 415.8 2659.7 415.9"/><polyline class="g" points="2706.5 431.8 2706.5 431.8 2706.5 431.8 2705.9 431.9"/><line class="g" x1="2731.7" y1="425.1" x2="2731.1" y2="425.2"/><polyline class="g" points="2711.1 426.6 2711.1 426.6 2711.1 426.6 2711.7 426.6"/><line class="g" x1="2715.9" y1="425.4" x2="2716.5" y2="425.3"/><line class="g" x1="2724.8" y1="424.9" x2="2725.4" y2="424.8"/><polyline class="g" points="2707.3 426.2 2707.3 426.2 2707.3 426.2 2706.7 426.3"/><polyline class="g" points="2721.9 426.4 2721.9 426.4 2721.9 426.4 2722.5 426.3"/><line class="g" x1="2727.2" y1="427.3" x2="2727.8" y2="427.3"/><polyline class="g" points="2722.8 427.8 2722.8 427.8 2722.8 427.8 2723.4 427.7"/><polyline class="g" points="2719 427.3 2719 427.3 2719 427.3 2718.3 427.4"/><line class="g" x1="2713.7" y1="429.8" x2="2713.1" y2="429.9"/><polyline class="g" points="2707.7 430.5 2707.7 430.5 2707.7 430.5 2708.3 430.4"/><polyline class="g" points="2680.3 410 2680.3 410 2680.3 410 2679.7 410.1"/><line class="g" x1="2680.4" y1="412.6" x2="2679.8" y2="412.7"/><polyline class="g" points="2671 419.9 2671 419.9 2671 419.9 2671.6 419.8"/><line class="g" x1="2673.2" y1="411.5" x2="2673.8" y2="411.4"/><line class="g" x1="2684.5" y1="417.1" x2="2685.1" y2="417"/><polyline class="g" points="2670.8 414.2 2670.8 414.2 2670.8 414.2 2670.2 414.3"/><polyline class="g" points="2681.8 418.9 2681.8 418.9 2681.8 418.9 2682.4 418.7"/><line class="g" x1="2687.1" y1="419.4" x2="2687.8" y2="419.3"/><polyline class="g" points="2676.6 422.6 2676.6 422.6 2676.6 422.6 2677.2 422.5"/><polyline class="g" points="2678.9 419.9 2678.9 419.9 2678.9 419.9 2678.3 420.1"/><line class="g" x1="2673.8" y1="422.8" x2="2673.2" y2="422.9"/><polyline class="g" points="2676.5 413.6 2676.5 413.6 2676.5 413.6 2677.1 413.4"/><line class="g" x1="2693.9" y1="414.2" x2="2693.3" y2="414"/><line class="g" x1="2687.5" y1="411.3" x2="2688.1" y2="411.5"/><polyline class="g" points="2684.3 411.7 2684.3 411.7 2684.3 411.7 2684.9 411.8"/><line class="g" x1="2693.8" y1="417.6" x2="2694.4" y2="417.8"/><polyline class="g" points="2690.1 416.3 2690.1 416.3 2690.1 416.3 2690.7 416.4"/><polyline class="g" points="2698.3 418.9 2698.3 418.9 2698.3 418.9 2698.9 419.1"/><line class="g" x1="2687.5" y1="427.6" x2="2686.9" y2="427.6"/><line class="g" x1="2680.7" y1="431.7" x2="2681.3" y2="431.7"/><polyline class="g" points="2734.1 427.8 2734.1 427.8 2734.1 427.8 2734.7 427.8"/><line class="g" x1="2739.2" y1="429.6" x2="2739.8" y2="429.6"/><polyline class="g" points="2734.7 429.2 2734.7 429.2 2734.7 429.2 2735.3 429.3"/><polyline class="g" points="2692.5 430 2692.5 430 2692.5 430 2693.1 430.1"/><polyline class="g" points="2664.3 423.5 2664.3 423.5 2664.3 423.5 2664.9 423.5"/><polyline class="g" points="2662.6 429.3 2662.6 429.3 2662.6 429.3 2662 429.3"/><line class="g" x1="2655.1" y1="423.2" x2="2654.5" y2="423.2"/><line class="g" x1="2671.8" y1="430.8" x2="2672.5" y2="430.8"/><line class="g" x1="2670.9" y1="428.6" x2="2670.3" y2="428.6"/><polyline class="g" points="2743.7 466.1 2743.7 466.1 2743.7 466.1 2743 466.1"/><polyline class="g" points="2730.1 469.8 2730.1 469.8 2730.1 469.8 2730.8 469.8"/><polyline class="g" points="2724.6 467.5 2724.6 467.5 2724.6 467.5 2724 467.5"/><line class="g" x1="2727.1" y1="469.8" x2="2727.7" y2="469.8"/><polyline class="g" points="2731.4 467.4 2731.4 467.4 2731.4 467.4 2732 467.4"/><line class="h" x1="2593.2" y1="457.8" x2="2593.8" y2="457.8"/><polyline class="g" points="2617.7 460.5 2617.7 460.5 2617.7 460.5 2618.3 460.6"/><line class="h" x1="2576" y1="479.3" x2="2576.6" y2="479.3"/><line class="h" x1="2601.6" y1="478.4" x2="2602.3" y2="478.4"/><line class="h" x1="2629.4" y1="478.1" x2="2630" y2="478.1"/><line class="h" x1="2663.2" y1="469.9" x2="2663.7" y2="470.3"/><line class="h" x1="2683.5" y1="472" x2="2684.1" y2="472"/><line class="h" x1="2719.5" y1="470.8" x2="2720" y2="471"/><line class="g" x1="2894" y1="436.1" x2="2893.4" y2="436.1"/><line class="g" x1="2898.2" y1="435.9" x2="2898.9" y2="435.9"/><polyline class="g" points="2878 436.3 2878 436.3 2878 436.3 2878.6 436.3"/><line class="g" x1="2886.1" y1="437.5" x2="2886.7" y2="437.5"/><polyline class="g" points="2796.3 435.9 2796.3 435.9 2796.3 435.9 2796.9 435.9"/><polyline class="g" points="2902.1 436.2 2902.1 436.2 2902.1 436.2 2902.7 435.9"/><line class="g" x1="2779.1" y1="435.5" x2="2778.5" y2="435.4"/><line class="g" x1="2792" y1="435.3" x2="2792.6" y2="435.3"/><polyline class="g" points="2769.3 435 2769.3 435 2769.3 435 2769.9 435.1"/><line class="g" x1="2818" y1="434" x2="2818.5" y2="433.6"/><polyline class="g" points="2772.3 435.3 2772.3 435.3 2772.3 435.3 2772.9 435.3"/><polyline class="g" points="2811.3 435 2811.3 435 2811.3 435 2811.8 434.7"/><line class="g" x1="2664" y1="432.3" x2="2664.6" y2="432.4"/><polyline class="g" points="2651.6 426.8 2651.6 426.8 2651.6 426.8 2651 426.8"/><polyline class="g" points="2662.1 426.2 2662.1 426.2 2662.1 426.2 2662.7 426.2"/><line class="g" x1="2647.7" y1="435.4" x2="2648.3" y2="435.5"/><polyline class="g" points="2663.4 421.6 2663.4 421.6 2663.4 421.6 2662.8 421.5"/><line class="g" x1="2658.4" y1="422" x2="2657.8" y2="421.9"/><line class="g" x1="2649.6" y1="420.9" x2="2648.9" y2="420.9"/><polyline class="g" points="2653.2 423 2653.2 423 2653.2 423 2652.6 422.9"/><polyline class="g" points="2641.9 430.1 2641.9 430.1 2641.9 430.1 2641.3 430.1"/><polyline class="g" points="2643.6 424.3 2643.6 424.3 2643.6 424.3 2644.3 424.3"/><line class="g" x1="2612.2" y1="396.7" x2="2612.8" y2="396.7"/><polyline class="g" points="2608.3 414.1 2608.3 414.1 2608.3 414.1 2608.9 414.1"/><line class="g" x1="2593.8" y1="412.6" x2="2594.4" y2="412.6"/><polyline class="g" points="2596.6 413 2596.6 413 2596.6 413 2597.2 413"/><line class="g" x1="2602.7" y1="413.6" x2="2603.3" y2="413.7"/></svg>