<svg xmlns="http://www.w3.org/2000/svg" width="5120" height="1320" viewBox="0 0 5120 1320"><defs><style>.a,.b,.c,.d,.e{fill:#fff;}.a{opacity:0.78;}.b{opacity:0.5;}.c{opacity:0.6;}.d{opacity:0.34;}.e{opacity:0.29;}</style></defs><polygon class="a" points="3428.8 355.7 3427.4 357.2 3428.8 358.6 3430.3 357.2 3428.8 355.7"/><polygon class="b" points="3642.9 345.1 3641.5 346.5 3642.9 347.9 3644.4 346.5 3642.9 345.1"/><polygon class="b" points="3122.5 61.1 3121 62.5 3122.5 64 3124 62.5 3122.5 61.1"/><polygon class="b" points="3521.1 141 3519.7 142.4 3521.1 143.8 3522.7 142.4 3521.1 141"/><polygon class="b" points="3744.9 206.9 3743.5 208.3 3744.9 209.8 3746.4 208.3 3744.9 206.9"/><polygon class="b" points="3486 415.7 3484.6 417.1 3486 418.5 3487.5 417.1 3486 415.7"/><polygon class="b" points="3392.7 137.6 3391.3 139 3392.7 140.4 3394.2 139 3392.7 137.6"/><polygon class="b" points="2832.6 261.1 2831.2 262.6 2832.6 264 2834.1 262.6 2832.6 261.1"/><polygon class="b" points="3598.4 298.6 3596.9 300 3598.4 301.4 3599.9 300 3598.4 298.6"/><polygon class="b" points="3852.5 288.8 3851 290.2 3852.5 291.6 3854 290.2 3852.5 288.8"/><polygon class="b" points="2738.8 345.6 2738 346.4 2738.8 347.2 2739.7 346.4 2738.8 345.6"/><polygon class="b" points="3066.6 359.9 3065.8 360.7 3066.6 361.5 3067.4 360.7 3066.6 359.9"/><polygon class="a" points="3171.8 353.8 3171 354.6 3171.8 355.3 3172.7 354.6 3171.8 353.8"/><polygon class="b" points="2145.7 182.1 2144.3 183.5 2145.7 184.9 2147.2 183.5 2145.7 182.1"/><polygon class="b" points="2455.3 256.3 2453.8 257.7 2455.3 259.1 2456.8 257.7 2455.3 256.3"/><polygon class="b" points="2622.9 242.4 2621.5 243.9 2622.9 245.3 2624.4 243.9 2622.9 242.4"/><polygon class="a" points="2353 363.2 2351.6 364.6 2353 366.1 2354.5 364.6 2353 363.2"/><polygon class="b" points="2534.4 473 2532.9 474.4 2534.4 475.8 2535.9 474.4 2534.4 473"/><polygon class="a" points="2875.7 409.7 2874.3 411.2 2875.7 412.6 2877.2 411.2 2875.7 409.7"/><polygon class="b" points="2836.7 474.7 2835.3 476.2 2836.7 477.6 2838.2 476.2 2836.7 474.7"/><polygon class="b" points="2925.7 456.7 2924.3 458.2 2925.7 459.6 2927.2 458.2 2925.7 456.7"/><polygon class="b" points="2084.8 248.8 2084 249.6 2084.8 250.4 2085.7 249.6 2084.8 248.8"/><polygon class="b" points="2421.4 193.3 2420.6 194.1 2421.4 194.9 2422.2 194.1 2421.4 193.3"/><polygon class="b" points="2195 474.7 2194.3 475.5 2195 476.3 2195.9 475.5 2195 474.7"/><polygon class="b" points="1209 420.7 1207.6 422.1 1209 423.6 1210.5 422.1 1209 420.7"/><polygon class="c" points="1319.9 70 1318.5 71.5 1319.9 72.9 1321.5 71.5 1319.9 70"/><polygon class="b" points="1600 123.5 1598.6 125 1600 126.4 1601.5 125 1600 123.5"/><polygon class="b" points="1775.6 81.7 1774.2 83.1 1775.6 84.5 1777.1 83.1 1775.6 81.7"/><polygon class="b" points="1946.6 223.8 1945.2 225.2 1946.6 226.6 1948.1 225.2 1946.6 223.8"/><polygon class="b" points="1815.3 242.9 1813.8 244.3 1815.3 245.7 1816.8 244.3 1815.3 242.9"/><polygon class="b" points="1096.8 266.1 1095.4 267.5 1096.8 269 1098.3 267.5 1096.8 266.1"/><polygon class="b" points="947.7 157.2 946.3 158.6 947.7 160.1 949.2 158.6 947.7 157.2"/><polygon class="b" points="1495.4 300 1493.9 301.4 1495.4 302.8 1496.9 301.4 1495.4 300"/><polygon class="b" points="1748.5 289.4 1747 290.8 1748.5 292.2 1750 290.8 1748.5 289.4"/><polygon class="b" points="1072.8 128.8 1072 129.6 1072.8 130.4 1073.7 129.6 1072.8 128.8"/><polygon class="b" points="1409.4 162.3 1408.6 163.1 1409.4 163.9 1410.2 163.1 1409.4 162.3"/><polygon class="b" points="323 477.7 321.6 479.1 323 480.6 324.5 479.1 323 477.7"/><polygon class="b" points="524.1 233.6 522.7 235 524.1 236.5 525.6 235 524.1 233.6"/><polygon class="b" points="516.3 292.3 514.8 293.7 516.3 295.1 517.8 293.7 516.3 292.3"/><polygon class="b" points="635.9 193.7 634.5 195.1 635.9 196.5 637.4 195.1 635.9 193.7"/><polygon class="b" points="981.9 347.4 980.5 348.9 981.9 350.3 983.4 348.9 981.9 347.4"/><polygon class="d" points="1019.6 379.8 1018.2 381.2 1019.6 382.6 1021.1 381.2 1019.6 379.8"/><polygon class="b" points="829.1 363.9 827.7 365.3 829.1 366.7 830.7 365.3 829.1 363.9"/><polygon class="b" points="623.3 434.7 621.8 436.1 623.3 437.5 624.8 436.1 623.3 434.7"/><polygon class="b" points="169.8 422.1 168.4 423.5 169.8 425 171.3 423.5 169.8 422.1"/><polygon class="b" points="145.6 310.7 144.2 312.1 145.6 313.5 147.1 312.1 145.6 310.7"/><polygon class="b" points="27.8 211.7 26.4 213.1 27.8 214.5 29.3 213.1 27.8 211.7"/><polygon class="b" points="482.4 229.3 481.6 230.1 482.4 230.9 483.2 230.1 482.4 229.3"/><polygon class="b" points="766.3 305 765.5 305.8 766.3 306.5 767.1 305.8 766.3 305"/><polygon class="b" points="231.3 153.9 229.9 155.3 231.3 156.8 232.8 155.3 231.3 153.9"/><polygon class="b" points="469.7 79.9 468.3 81.3 469.7 82.8 471.2 81.3 469.7 79.9"/><polygon class="b" points="744.1 156 742.7 157.4 744.1 158.8 745.7 157.4 744.1 156"/><polygon class="b" points="2527.6 117.3 2526.2 118.7 2527.6 120.1 2529.1 118.7 2527.6 117.3"/><polygon class="b" points="2299.8 72.2 2298.4 73.7 2299.8 75.1 2301.3 73.7 2299.8 72.2"/><polygon class="b" points="2787.1 108 2785.7 109.4 2787.1 110.8 2788.7 109.4 2787.1 108"/><polygon class="b" points="4802.1 224.2 4800.7 225.6 4802.1 227 4803.6 225.6 4802.1 224.2"/><polygon class="b" points="4933.3 231.7 4931.9 233.2 4933.3 234.6 4934.8 233.2 4933.3 231.7"/><polygon class="b" points="4823.2 397.3 4821.8 398.8 4823.2 400.2 4824.7 398.8 4823.2 397.3"/><polygon class="b" points="4512.8 308.8 4511.3 310.2 4512.8 311.6 4514.3 310.2 4512.8 308.8"/><polygon class="b" points="4437 209.8 4435.6 211.2 4437 212.6 4438.5 211.2 4437 209.8"/><polygon class="b" points="4666.4 248.8 4665.6 249.6 4666.4 250.4 4667.2 249.6 4666.4 248.8"/><polygon class="a" points="3720.2 355.8 3718.8 357.3 3720.2 358.7 3721.7 357.3 3720.2 355.8"/><polygon class="b" points="3636.1 85.6 3634.6 87 3636.1 88.4 3637.6 87 3636.1 85.6"/><polygon class="b" points="3790.1 104.2 3788.7 105.6 3790.1 107 3791.7 105.6 3790.1 104.2"/><polygon class="b" points="4002.6 176.1 4001.1 177.5 4002.6 178.9 4004.1 177.5 4002.6 176.1"/><polygon class="b" points="4245.8 115.8 4244.3 117.2 4245.8 118.6 4247.3 117.2 4245.8 115.8"/><polygon class="b" points="4154.4 177.9 4153 179.4 4154.4 180.8 4156 179.4 4154.4 177.9"/><polygon class="b" points="4301.4 248 4300 249.4 4301.4 250.9 4303 249.4 4301.4 248"/><polygon class="b" points="4199.3 251 4197.9 252.4 4199.3 253.9 4200.8 252.4 4199.3 251"/><polygon class="b" points="4020.4 312.8 4019 314.2 4020.4 315.6 4022 314.2 4020.4 312.8"/><polygon class="b" points="3794.2 313.3 3792.8 314.8 3794.2 316.2 3795.7 314.8 3794.2 313.3"/><polygon class="a" points="3992.6 387.1 3991.1 388.5 3992.6 390 3994.1 388.5 3992.6 387.1"/><polygon class="b" points="4218.7 323.5 4217.2 324.9 4218.7 326.4 4220.2 324.9 4218.7 323.5"/><polygon class="b" points="4655.5 158 4654.1 159.4 4655.5 160.9 4657 159.4 4655.5 158"/><polygon class="b" points="5092.1 94.7 5090.7 96.2 5092.1 97.6 5093.6 96.2 5092.1 94.7"/><polygon class="b" points="3222.6 519.6 3221.2 521 3222.6 522.5 3224.1 521 3222.6 519.6"/><polygon class="b" points="2617 539 2615.6 540.5 2617 541.9 2618.5 540.5 2617 539"/><polygon class="e" points="2885.6 595.4 2884.2 596.8 2885.6 598.2 2887.1 596.8 2885.6 595.4"/><polygon class="b" points="2694 560.2 2693.3 561 2694 561.8 2694.9 561 2694 560.2"/><polygon class="b" points="3323 479.3 3321.5 480.8 3323 482.2 3324.5 480.8 3323 479.3"/></svg>