<svg xmlns="http://www.w3.org/2000/svg" xmlns:xlink="http://www.w3.org/1999/xlink" width="5120" height="1320" viewBox="0 0 5120 1320"><defs><style>.a{fill:#fff;opacity:0.59;}.b,.c{opacity:0.72;}.b{fill:url(#a);}.c{fill:url(#b);}</style><linearGradient id="a" x1="2812" y1="826.1" x2="2913.71" y2="826.1" gradientUnits="userSpaceOnUse"><stop offset="0" stop-color="#fff"/><stop offset="1" stop-color="#fff" stop-opacity="0"/></linearGradient><linearGradient id="b" x1="2119" y1="826.1" x2="2220.71" y2="826.1" gradientTransform="matrix(-1, 0, 0, 1, 4603, 0)" xlink:href="#a"/></defs><rect class="a" x="2736.8" y="821.3" width="4.5" height="2.76"/><rect class="a" x="2743.1" y="821.3" width="4.5" height="2.76"/><rect class="a" x="2749.6" y="821.3" width="4.5" height="2.76"/><rect class="a" x="2755.8" y="821.3" width="4.5" height="2.76"/><rect class="a" x="2762.1" y="821.3" width="4.5" height="2.76"/><rect class="a" x="2768.3" y="821.3" width="4.5" height="2.76"/><rect class="a" x="2774.5" y="821.3" width="4.5" height="2.76"/><rect class="a" x="2780.7" y="821.3" width="4.5" height="2.76"/><rect class="a" x="2786.9" y="821.3" width="4.5" height="2.76"/><rect class="a" x="2793.2" y="821.3" width="4.5" height="2.76"/><path class="a" d="M2802.1,821.3h3.7a.8.8,0,0,1,.8.8v2a0,0,0,0,1,0,0h-4.5a0,0,0,0,1,0,0v-2.8A0,0,0,0,1,2802.1,821.3Z"/><rect class="a" x="2657.7" y="821.3" width="4.5" height="2.76"/><rect class="a" x="2663.9" y="821.3" width="4.5" height="2.76"/><rect class="a" x="2670.5" y="821.3" width="4.5" height="2.76"/><rect class="a" x="2676.7" y="821.3" width="4.5" height="2.76"/><rect class="a" x="2682.9" y="821.3" width="4.5" height="2.76"/><rect class="a" x="2689.2" y="821.3" width="4.5" height="2.76"/><rect class="a" x="2695.4" y="821.3" width="4.5" height="2.76"/><rect class="a" x="2701.6" y="821.3" width="4.5" height="2.76"/><rect class="a" x="2707.8" y="821.3" width="4.5" height="2.76"/><rect class="a" x="2714" y="821.3" width="4.5" height="2.76"/><rect class="a" x="2720.6" y="821.3" width="4.5" height="2.76"/><rect class="a" x="2579.3" y="821.3" width="4.5" height="2.76"/><rect class="a" x="2585.5" y="821.3" width="4.5" height="2.76"/><rect class="a" x="2592.1" y="821.3" width="4.5" height="2.76"/><rect class="a" x="2598.3" y="821.3" width="4.5" height="2.76"/><rect class="a" x="2604.5" y="821.3" width="4.5" height="2.76"/><rect class="a" x="2610.7" y="821.3" width="4.5" height="2.76"/><rect class="a" x="2616.9" y="821.3" width="4.5" height="2.76"/><rect class="a" x="2623.2" y="821.3" width="4.5" height="2.76"/><rect class="a" x="2629.4" y="821.3" width="4.5" height="2.76"/><rect class="a" x="2635.6" y="821.3" width="4.5" height="2.76"/><rect class="a" x="2642.2" y="821.3" width="4.5" height="2.76"/><rect class="a" x="2500.2" y="821.3" width="4.5" height="2.76"/><rect class="a" x="2506.4" y="821.3" width="4.5" height="2.76"/><rect class="a" x="2512.9" y="821.3" width="4.5" height="2.76"/><rect class="a" x="2519.2" y="821.3" width="4.5" height="2.76"/><rect class="a" x="2525.4" y="821.3" width="4.5" height="2.76"/><rect class="a" x="2531.6" y="821.3" width="4.5" height="2.76"/><rect class="a" x="2537.8" y="821.3" width="4.5" height="2.76"/><rect class="a" x="2544" y="821.3" width="4.5" height="2.76"/><rect class="a" x="2550.3" y="821.3" width="4.5" height="2.76"/><rect class="a" x="2556.5" y="821.3" width="4.5" height="2.76"/><rect class="a" x="2563" y="821.3" width="4.5" height="2.76"/><path class="a" d="M2491.3,821.3h3.7a0,0,0,0,1,0,0v2.8a0,0,0,0,1,0,0h-4.5a0,0,0,0,1,0,0v-2A.8.8,0,0,1,2491.3,821.3Z"/><polygon class="b" points="2812 825.2 2913.7 827 2812 827 2812 825.2"/><polygon class="c" points="2484 825.2 2382.3 827 2484 827 2484 825.2"/></svg>