<svg xmlns="http://www.w3.org/2000/svg" width="100" height="100" viewBox="0 0 100 100"><defs><style>.a{fill:#1565c0;}</style></defs><path class="a" d="M85,22.16,63.12.85A1.56,1.56,0,0,0,62,.41h-46A1.55,1.55,0,0,0,14.52,2V86.51a1.54,1.54,0,0,0,1.55,1.55H59.65V98.43a1.54,1.54,0,0,0,.92,1.41,1.45,1.45,0,0,0,.64.14,1.59,1.59,0,0,0,1-.39l6.08-5.33,7,5.4a1.56,1.56,0,0,0,2.5-1.23V88.06h6.13a1.54,1.54,0,0,0,1.55-1.55V23.27A1.46,1.46,0,0,0,85,22.16ZM63.6,5.66,80.1,21.72H63.6Zm5.12,75.27a9.82,9.82,0,1,1,9.82-9.82A9.83,9.83,0,0,1,68.72,80.93ZM69.21,91a1.56,1.56,0,0,0-2,.06L62.78,95V82.58a12.8,12.8,0,0,0,11.91,0V95.26ZM77.79,85V80.31A12.93,12.93,0,1,0,58,63.86H33.07a1.55,1.55,0,0,0,0,3.1H56.48a12.89,12.89,0,0,0-.69,4.14,13.21,13.21,0,0,0,.61,4H33.07a1.56,1.56,0,0,0,0,3.11H57.89a14.52,14.52,0,0,0,1.76,2.14v4.64h-42V3.53H60.48V23.27A1.55,1.55,0,0,0,62,24.82H82.37V85ZM31.52,20.6a1.54,1.54,0,0,1,1.55-1.55H47.61a1.55,1.55,0,0,1,0,3.1H33.07a1.55,1.55,0,0,1-1.55-1.56Zm37,11.21a1.54,1.54,0,0,1-1.55,1.55H33.07a1.55,1.55,0,0,1,0-3.1H66.93A1.54,1.54,0,0,1,68.48,31.81Zm0,11.2a1.54,1.54,0,0,1-1.55,1.55H33.07a1.56,1.56,0,0,1,0-3.11H66.93A1.55,1.55,0,0,1,68.48,43Zm0,11.2a1.54,1.54,0,0,1-1.55,1.55H33.07a1.55,1.55,0,0,1,0-3.1H66.93A1.54,1.54,0,0,1,68.48,54.21Z"/></svg>