<svg xmlns="http://www.w3.org/2000/svg" width="15361" height="1440" viewBox="0 0 15361 1440"><defs><style>.a{fill:#13181c;}.b,.f{fill:#01579b;}.c,.d,.e,.g,.h{fill:none;}.c,.d,.e,.f,.g,.h{stroke:#01579b;stroke-miterlimit:10;}.c{stroke-width:10px;}.d,.e{stroke-width:4px;}.e{stroke-linecap:round;}.g{stroke-width:3px;}.h{stroke-width:6px;}</style></defs><path class="a" d="M8944.42,1045.53H8839.13a5.42,5.42,0,0,0-1.74.28l-43.73,14.48a5.53,5.53,0,0,0-3.8,5.25v17.17a5.52,5.52,0,0,1-5.53,5.53H8621.42a5.55,5.55,0,0,0-1.35.17l-36.19,9.13a5.53,5.53,0,0,0-4.18,5.36v278.5a5.54,5.54,0,0,1-5.53,5.54h-5.28a5.54,5.54,0,0,1-5.54-5.54V1236.61a5.53,5.53,0,0,0-5.53-5.53H8419.1a5.54,5.54,0,0,0-5.53,5.53v151.8a5.53,5.53,0,0,1-5.53,5.53h-35a5.53,5.53,0,0,1-5.54-5.53V1279.33a5.53,5.53,0,0,0-5.53-5.53H8076.84a5.54,5.54,0,0,0-5.54,5.53v81.05a5.53,5.53,0,0,1-5.53,5.53h-328.2a5.54,5.54,0,0,1-5.53-5.53v-2.29a5.54,5.54,0,0,0-5.53-5.53h-98A5.54,5.54,0,0,1,7623,1347v-77.71a5.52,5.52,0,0,0-5.53-5.53H7273.21a5.52,5.52,0,0,0-5.53,5.53v119.09a5.53,5.53,0,0,1-5.54,5.53h-69a5.53,5.53,0,0,1-5.54-5.53V1282a5.51,5.51,0,0,0-2.7-4.75l-33-19.64a5.5,5.5,0,0,0-2.83-.78h-75a5.54,5.54,0,0,0-5.53,5.53v111.42a5.54,5.54,0,0,1-5.53,5.53h-21a5.53,5.53,0,0,1-5.53-5.53v-91.48a5.55,5.55,0,0,0-4.34-5.41L6933,1254.91a5.29,5.29,0,0,0-1.19-.13h-73.93a5.53,5.53,0,0,0-5.53,5.53v52a5.53,5.53,0,0,1-5.53,5.53h-125a5.53,5.53,0,0,0-5.53,5.53v2.29a5.54,5.54,0,0,1-5.54,5.53h-63a5.53,5.53,0,0,0-5.53,5.53v51.68a5.53,5.53,0,0,1-5.53,5.53h-108a5.53,5.53,0,0,1-5.54-5.53V1195.23a5.53,5.53,0,0,0-5.53-5.53h-58a5.54,5.54,0,0,1-5.53-5.53v-13a5.54,5.54,0,0,0-5.53-5.53h-65a5.54,5.54,0,0,0-5.53,5.53v9a5.53,5.53,0,0,1-5.53,5.53H6361.5a5.53,5.53,0,0,1-5.54-5.53V1070.41a5.53,5.53,0,0,0-5.53-5.53h-49a5.52,5.52,0,0,1-5.53-5.53v-12.68a5.51,5.51,0,0,0-2.71-4.75l-28-16.64a5.53,5.53,0,0,0-2.83-.78h-41a5.54,5.54,0,0,0-5.54,5.53v29.32a5.52,5.52,0,0,1-5.53,5.53h-111a5.54,5.54,0,0,0-5.53,5.53v129.78a5.54,5.54,0,0,1-5.53,5.53H5923.15a5.54,5.54,0,0,1-5.53-5.53v-35a5.52,5.52,0,0,0-4.08-5.34l-33.23-9a5.59,5.59,0,0,0-1.46-.2H5848.1a5.54,5.54,0,0,0-5.54,5.53v177.5a5.53,5.53,0,0,1-5.53,5.53h-86a5.53,5.53,0,0,1-5.53-5.53v-30.32a5.54,5.54,0,0,0-5.53-5.53h-72a5.54,5.54,0,0,0-5.53,5.53v60a5.52,5.52,0,0,1-5.53,5.53h-74a5.52,5.52,0,0,1-5.53-5.53v-76.91a5.53,5.53,0,0,0-2.94-4.89l-37.88-20.15a5.6,5.6,0,0,0-2.6-.65h-73.15a5.54,5.54,0,0,0-5.53,5.54v115.42a5.54,5.54,0,0,1-5.53,5.53h-17a5.54,5.54,0,0,1-5.53-5.53v-96.61a5.54,5.54,0,0,0-4.19-5.37l-99.23-24.82a5.52,5.52,0,0,0-1.34-.16h-77.86a5.53,5.53,0,0,0-5.53,5.53V1315a5.52,5.52,0,0,1-5.53,5.53H5121V1441h5124v-73.76h-69.68a5.52,5.52,0,0,1-5.48-6.24c1.41-10.64,3.55-31.13-.9-31.13H10063a5.53,5.53,0,0,0-5.5,6.07c.94,9.54,2.25,27-.66,27h-53.51a5.53,5.53,0,0,1-5.53-5.54V1254.8a5.54,5.54,0,0,0-5.53-5.53H9879.5a5.46,5.46,0,0,0-.9.07l-69.52,11.39a5.53,5.53,0,0,1-6.43-5.46v-80a5.53,5.53,0,0,0-5.53-5.53h-36.67a5.49,5.49,0,0,0-2.79.76l-17.31,10.11a5.53,5.53,0,0,0-2.75,4.78v32.1a5.52,5.52,0,0,1-4.12,5.35l-46,12.11a5.53,5.53,0,0,1-6.94-5.35v-18.33a5.53,5.53,0,0,0-5.53-5.53h-35a5.53,5.53,0,0,0-5.54,5.53v148.13a5.53,5.53,0,0,1-5.53,5.53h-17a5.54,5.54,0,0,1-5.53-5.53v-16a5.53,5.53,0,0,0-5.53-5.53h-71a5.52,5.52,0,0,0-5.53,5.53v20a5.53,5.53,0,0,1-5.53,5.53h-53a5.52,5.52,0,0,1-5.53-5.53v-49a5.54,5.54,0,0,0-5.53-5.53H9330.78a5.52,5.52,0,0,0-1,.09l-17,3.09a5.53,5.53,0,0,0-4.54,5.44v46.92a5.53,5.53,0,0,1-5.53,5.53h-88a5.53,5.53,0,0,1-5.53-5.53v-78a5.53,5.53,0,0,0-5.53-5.53h-25a5.53,5.53,0,0,0-5.54,5.53v81.05a5.53,5.53,0,0,1-5.53,5.53h-34a5.53,5.53,0,0,1-5.53-5.53v-40a5.53,5.53,0,0,0-5.53-5.53h-169a5.53,5.53,0,0,1-5.53-5.57L8950,1051.1A5.53,5.53,0,0,0,8944.42,1045.53Z"/><path class="a" d="M3822.17,1045.05H3717.64a6.4,6.4,0,0,0-1.94.31l-43.19,14.33a6.15,6.15,0,0,0-4.22,5.84v16.13a6.16,6.16,0,0,1-6.16,6.16H3500a5.82,5.82,0,0,0-1.5.19l-35.63,9a6.15,6.15,0,0,0-4.65,6v277.74a6.16,6.16,0,0,1-6.16,6.16h-4a6.15,6.15,0,0,1-6.15-6.16V1237a6.16,6.16,0,0,0-6.16-6.16H3298.26a6.15,6.15,0,0,0-6.15,6.16v150.74a6.16,6.16,0,0,1-6.16,6.16h-33.71a6.16,6.16,0,0,1-6.16-6.16v-108a6.15,6.15,0,0,0-6.15-6.16H2956.1a6.16,6.16,0,0,0-6.16,6.16v79.9a6.16,6.16,0,0,1-6.16,6.16H2616.93a6.16,6.16,0,0,1-6.16-6.16v-1.05a6.15,6.15,0,0,0-6.15-6.16h-96.74a6.15,6.15,0,0,1-6.16-6.15v-76.57a6.16,6.16,0,0,0-6.16-6.16H2152.71a6.16,6.16,0,0,0-6.16,6.16v118a6.16,6.16,0,0,1-6.16,6.16h-67.72a6.16,6.16,0,0,1-6.16-6.16V1282.11a6.15,6.15,0,0,0-3-5.29L2031,1257.43a6.18,6.18,0,0,0-3.15-.87h-74.19a6.16,6.16,0,0,0-6.16,6.16V1373a6.16,6.16,0,0,1-6.16,6.16h-19.7a6.16,6.16,0,0,1-6.16-6.16v-90.48a6.14,6.14,0,0,0-4.82-6L1812,1254.7a6,6,0,0,0-1.33-.15H1737.5a6.16,6.16,0,0,0-6.16,6.16v50.84a6.15,6.15,0,0,1-6.15,6.15H1601.44a6.16,6.16,0,0,0-6.16,6.16v1.05a6.16,6.16,0,0,1-6.16,6.16H1527.4a6.16,6.16,0,0,0-6.16,6.16v50.5a6.16,6.16,0,0,1-6.16,6.16H1408.34a6.16,6.16,0,0,1-6.16-6.16V1195.55a6.15,6.15,0,0,0-6.15-6.15h-56.72a6.16,6.16,0,0,1-6.16-6.16V1171.5a6.16,6.16,0,0,0-6.16-6.16h-63.72a6.16,6.16,0,0,0-6.16,6.16v7.73a6.15,6.15,0,0,1-6.15,6.16h-9.7a6.16,6.16,0,0,1-6.16-6.16V1070.59a6.16,6.16,0,0,0-6.16-6.16h-47.71a6.16,6.16,0,0,1-6.16-6.16v-11.72a6.15,6.15,0,0,0-3-5.29l-27.55-16.39a6.12,6.12,0,0,0-3.15-.87h-40.17a6.16,6.16,0,0,0-6.16,6.16v28.11a6.15,6.15,0,0,1-6.15,6.16H979.13a6.16,6.16,0,0,0-6.16,6.16v128.69a6.15,6.15,0,0,1-6.15,6.16H803.05a6.16,6.16,0,0,1-6.16-6.16v-33.91a6.17,6.17,0,0,0-4.54-5.95l-32.69-8.9a6.25,6.25,0,0,0-1.61-.22H728a6.16,6.16,0,0,0-6.16,6.16v176.47a6.16,6.16,0,0,1-6.16,6.16H631a6.16,6.16,0,0,1-6.16-6.16v-29.12a6.15,6.15,0,0,0-6.15-6.15H547.92a6.15,6.15,0,0,0-6.16,6.15v58.86a6.15,6.15,0,0,1-6.15,6.16H462.88a6.16,6.16,0,0,1-6.16-6.16v-76a6.15,6.15,0,0,0-3.26-5.43l-37.4-19.93a6.23,6.23,0,0,0-2.9-.72H340.82a6.16,6.16,0,0,0-6.16,6.16v114.32a6.15,6.15,0,0,1-6.15,6.15h-15.7a6.15,6.15,0,0,1-6.16-6.15v-95.63a6.15,6.15,0,0,0-4.66-6l-98.65-24.71a5.88,5.88,0,0,0-1.5-.19H124.72a6.16,6.16,0,0,0-6.16,6.16v53.51a6.16,6.16,0,0,1-6.16,6.16H57V1441H5123v-73.84h-76s6-37.43,0-37.43h-105.2a6.15,6.15,0,0,0-6.13,6.74c.93,9.67,2.12,26.34-.72,26.34H4882a6.16,6.16,0,0,1-6.16-6.16V1255.2a6.16,6.16,0,0,0-6.16-6.16H4757.66a6.63,6.63,0,0,0-1,.08l-68.72,11.28a6.17,6.17,0,0,1-7.16-6.08v-78.77a6.15,6.15,0,0,0-6.15-6.15h-35.87a6.14,6.14,0,0,0-3.1.84l-16.86,9.86a6.14,6.14,0,0,0-3.05,5.31v31.32a6.14,6.14,0,0,1-4.59,6l-44.71,11.79a6.16,6.16,0,0,1-7.73-6v-16.93a6.15,6.15,0,0,0-6.15-6.15h-33.71a6.15,6.15,0,0,0-6.16,6.15v147.07a6.16,6.16,0,0,1-6.16,6.16h-15.69a6.16,6.16,0,0,1-6.16-6.16v-14.75a6.16,6.16,0,0,0-6.16-6.16h-69.72a6.16,6.16,0,0,0-6.16,6.16v18.76a6.16,6.16,0,0,1-6.16,6.16h-51.72a6.15,6.15,0,0,1-6.15-6.16v-47.83a6.16,6.16,0,0,0-6.16-6.16H4209.11a6.72,6.72,0,0,0-1.1.1l-16.41,3a6.16,6.16,0,0,0-5.06,6.06v45.84a6.15,6.15,0,0,1-6.15,6.16h-86.74a6.16,6.16,0,0,1-6.16-6.16v-76.9a6.15,6.15,0,0,0-6.15-6.15h-23.71a6.15,6.15,0,0,0-6.15,6.15v79.91a6.16,6.16,0,0,1-6.16,6.16h-32.71a6.15,6.15,0,0,1-6.15-6.16v-38.81a6.16,6.16,0,0,0-6.16-6.16H3832.57a6.16,6.16,0,0,1-6.16-6.2l1.91-264.26A6.15,6.15,0,0,0,3822.17,1045.05Z"/><path class="a" d="M14061.82,1045.15h-105.26a5.71,5.71,0,0,0-1.74.28l-43.74,14.59a5.47,5.47,0,0,0-3.75,5.19v17.44a5.48,5.48,0,0,1-5.47,5.48H13739a5.54,5.54,0,0,0-1.35.16l-36.21,9.2a5.47,5.47,0,0,0-4.13,5.3v280.34a5.47,5.47,0,0,1-5.47,5.48h-5.38a5.48,5.48,0,0,1-5.48-5.48V1237.3a5.48,5.48,0,0,0-5.48-5.48h-138.71a5.48,5.48,0,0,0-5.48,5.48v152.89a5.47,5.47,0,0,1-5.47,5.47h-35.05a5.48,5.48,0,0,1-5.48-5.47V1280.27a5.47,5.47,0,0,0-5.47-5.47h-285.05a5.48,5.48,0,0,0-5.48,5.47V1362a5.47,5.47,0,0,1-5.47,5.48h-328.05a5.48,5.48,0,0,1-5.48-5.48v-2.47a5.47,5.47,0,0,0-5.47-5.48h-98.05a5.48,5.48,0,0,1-5.48-5.48V1270.2a5.48,5.48,0,0,0-5.47-5.48h-344.05a5.49,5.49,0,0,0-5.48,5.48v120a5.47,5.47,0,0,1-5.47,5.47h-69.05a5.48,5.48,0,0,1-5.48-5.47V1282.94a5.48,5.48,0,0,0-2.66-4.7l-33-19.79a5.46,5.46,0,0,0-2.81-.78h-75a5.48,5.48,0,0,0-5.48,5.48v112.26a5.47,5.47,0,0,1-5.47,5.48h-21.05a5.48,5.48,0,0,1-5.48-5.48v-92.2a5.48,5.48,0,0,0-4.28-5.34l-99.13-22.08a5.29,5.29,0,0,0-1.19-.13h-73.92a5.48,5.48,0,0,0-5.48,5.47v52.51a5.47,5.47,0,0,1-5.47,5.47h-125.05a5.48,5.48,0,0,0-5.48,5.48v2.48a5.47,5.47,0,0,1-5.47,5.47h-63.05a5.48,5.48,0,0,0-5.48,5.48v52.17a5.47,5.47,0,0,1-5.47,5.47h-108.05a5.48,5.48,0,0,1-5.48-5.47V1195.67a5.47,5.47,0,0,0-5.47-5.48h-58.05a5.48,5.48,0,0,1-5.48-5.48v-13.22a5.47,5.47,0,0,0-5.47-5.47h-65.05a5.48,5.48,0,0,0-5.48,5.47v9.2a5.47,5.47,0,0,1-5.47,5.47h-11.05a5.48,5.48,0,0,1-5.48-5.47V1070.1a5.48,5.48,0,0,0-5.47-5.48h-49.05a5.48,5.48,0,0,1-5.48-5.47v-12.91a5.49,5.49,0,0,0-2.66-4.7l-28-16.76a5.46,5.46,0,0,0-2.81-.78h-41a5.48,5.48,0,0,0-5.48,5.48v29.67a5.47,5.47,0,0,1-5.47,5.47h-111.05a5.49,5.49,0,0,0-5.48,5.48v130.73a5.48,5.48,0,0,1-5.47,5.48h-165.05a5.49,5.49,0,0,1-5.48-5.48v-35.34a5.48,5.48,0,0,0-4-5.28l-33.26-9.11a5.37,5.37,0,0,0-1.44-.19h-30.79a5.48,5.48,0,0,0-5.48,5.47v178.74a5.47,5.47,0,0,1-5.47,5.48h-86.05a5.48,5.48,0,0,1-5.48-5.48v-30.68a5.47,5.47,0,0,0-5.47-5.47h-72.05a5.48,5.48,0,0,0-5.48,5.47V1365a5.47,5.47,0,0,1-5.47,5.48h-74.05a5.48,5.48,0,0,1-5.48-5.48v-77.52a5.47,5.47,0,0,0-2.89-4.83l-37.9-20.3a5.4,5.4,0,0,0-2.58-.65h-73.15a5.48,5.48,0,0,0-5.48,5.48v116.29a5.48,5.48,0,0,1-5.47,5.48h-17.05a5.49,5.49,0,0,1-5.48-5.48v-97.36a5.48,5.48,0,0,0-4.14-5.31l-99.2-25a5.46,5.46,0,0,0-1.34-.16h-77.84a5.48,5.48,0,0,0-5.48,5.47v55.19a5.47,5.47,0,0,1-5.47,5.48h-112.53V1443h5051l-.33-13.09-54-11.08s-58.67-87.63-64.67-87.63h-36.9a5.47,5.47,0,0,0-5.45,6c.93,9.57,2.27,27.23-.65,27.23h-10.52a5.48,5.48,0,0,1-5.48-5.48V1255.59a5.47,5.47,0,0,0-5.47-5.47h-112.74a5.46,5.46,0,0,0-.9.07l-69.52,11.47a5.48,5.48,0,0,1-6.37-5.4v-80.69a5.47,5.47,0,0,0-5.47-5.48h-36.7a5.43,5.43,0,0,0-2.78.76l-17.35,10.2a5.48,5.48,0,0,0-2.7,4.72v32.44a5.48,5.48,0,0,1-4.07,5.29l-46.05,12.21a5.48,5.48,0,0,1-6.88-5.3v-18.63a5.47,5.47,0,0,0-5.47-5.47h-35.05a5.48,5.48,0,0,0-5.48,5.47V1361a5.47,5.47,0,0,1-5.47,5.47h-17.05a5.48,5.48,0,0,1-5.48-5.47v-16.25a5.47,5.47,0,0,0-5.47-5.47h-71.05a5.48,5.48,0,0,0-5.48,5.47V1365a5.47,5.47,0,0,1-5.47,5.48h-53.05a5.48,5.48,0,0,1-5.48-5.48v-49.48a5.47,5.47,0,0,0-5.47-5.47h-124a5.52,5.52,0,0,0-1,.09l-17,3.11a5.49,5.49,0,0,0-4.49,5.39V1366a5.47,5.47,0,0,1-5.47,5.48h-88.05a5.48,5.48,0,0,1-5.48-5.48v-78.69a5.47,5.47,0,0,0-5.47-5.47h-25.05a5.48,5.48,0,0,0-5.48,5.47V1369a5.47,5.47,0,0,1-5.47,5.48h-34.05a5.48,5.48,0,0,1-5.48-5.48v-40.41a5.47,5.47,0,0,0-5.47-5.48h-169a5.48,5.48,0,0,1-5.48-5.51l1.92-267A5.47,5.47,0,0,0,14061.82,1045.15Z"/><path class="b" d="M8217,1309l67-.5s19-1.17,17,14.83-8,45-8,45-4,10.78-16,11.39-56,.28-56,.28"/><path class="b" d="M8223,1309h-63s-19-1.17-17,14.83,8,45,8,45,4,10.78,16,11.39,97-.22,97-.22"/><rect class="b" x="8434.77" y="1254.09" width="108" height="17" rx="1.67"/><rect class="b" x="8434.77" y="1328.09" width="108" height="17" rx="1.09"/><path class="b" d="M8647,1143.09h117.48a2.26,2.26,0,0,1,2.26,2.26v69.32a2.43,2.43,0,0,1-2.43,2.43H8647.2a2.43,2.43,0,0,1-2.43-2.43v-69.32A2.26,2.26,0,0,1,8647,1143.09Z"/><path class="b" d="M8679.34,1125h52.32a3.34,3.34,0,0,1,3.34,3.34V1144a0,0,0,0,1,0,0h-59a0,0,0,0,1,0,0v-15.66A3.34,3.34,0,0,1,8679.34,1125Z"/><path class="b" d="M8726.05,1126H8685c-1.08,0-2,2.13-2,1V1117a2,2,0,0,1,2-2h41.1a2,2,0,0,1,2,2v10.1C8728,1128.13,8727.13,1126,8726.05,1126Z"/><path class="b" d="M7469.27,1286.8v21.66a1.81,1.81,0,0,0,1.81,1.81H7480a2.1,2.1,0,0,1,1.16.35l12.05,7.79a9,9,0,0,0,4.87,1.44h71.49a6.91,6.91,0,0,0,3.06-.72l13.78-6.89a2.08,2.08,0,0,1,.95-.23h8.13a1.81,1.81,0,0,0,1.82-1.81v-23.4a2.21,2.21,0,0,0-2.22-2.21H7471.48A2.21,2.21,0,0,0,7469.27,1286.8Z"/><rect class="b" x="7053.89" y="1316.58" width="83.82" height="13.19" rx="6.6" transform="translate(5772.63 8418.98) rotate(-90)"/><path class="b" d="M6668.27,1359.12v19.07a2.4,2.4,0,0,0,2.39,2.4h128.21a2.4,2.4,0,0,0,2.4-2.4V1351a2.39,2.39,0,0,0-2.4-2.39H6680a2.4,2.4,0,0,0-1.58.59l-9.28,8.13A2.42,2.42,0,0,0,6668.27,1359.12Z"/><path class="b" d="M6155.09,1092.09h0s-24.32,6.86-24.32,29.94c0,14.34,2.49,13.72,2.49,13.72h1.46A6.24,6.24,0,0,1,6141,1142v5.4s4.15,6.45,20.37,6.45,19.34-5.62,19.34-5.62v-5a6.23,6.23,0,0,1,6.24-6.23h1.87s5-7.49,5-16.22-11.65-28.69-22.67-28.69h0a6.23,6.23,0,0,1-6.23,6.23h-3.54A6.24,6.24,0,0,1,6155.09,1092.09Z"/><rect class="b" x="6152.91" y="1106.74" width="20.58" height="13.72" transform="translate(5049.6 7276.81) rotate(-90)"/><circle class="b" cx="6146.99" cy="1107.68" r="3.74"/><circle class="b" cx="6142" cy="1124.52" r="3.74"/><circle class="b" cx="6154.47" cy="1141.36" r="3.74"/><circle class="b" cx="6177.55" cy="1107.06" r="3.74"/><circle class="b" cx="6182.54" cy="1123.9" r="3.74"/><circle class="b" cx="6170.07" cy="1140.74" r="3.74"/><rect class="b" x="9916.24" y="1266.09" width="60.53" height="9.53" rx="4.75"/><rect class="b" x="9916.24" y="1297.56" width="60.53" height="9.53" rx="4.76"/><circle class="b" cx="6003.86" cy="1287.67" r="16.07"/><circle class="b" cx="5944.03" cy="1287.67" r="16.07"/><path class="b" d="M5304,1337v41s.76,12.36-9.65,11.06-29.28-5.2-29.28-5.2a12.05,12.05,0,0,1-7.41-10.41c-.4-7.81,0-36.44,0-36.44"/><path class="b" d="M5304,1337v-41s.76-12.37-9.65-11.07-29.28,5.21-29.28,5.21a12.05,12.05,0,0,0-7.41,10.41c-.4,7.81,0,36.43,0,36.43"/><circle class="b" cx="5296.17" cy="1295.18" r="4.26"/><circle class="b" cx="5296.17" cy="1315.51" r="4.26"/><circle class="b" cx="5296.17" cy="1331.84" r="4.26"/><circle class="b" cx="5296.17" cy="1348.17" r="4.26"/><circle class="b" cx="5296.17" cy="1364.5" r="4.26"/><circle class="b" cx="5281.96" cy="1306.28" r="4.26"/><circle class="b" cx="5281.96" cy="1322.61" r="4.26"/><circle class="b" cx="5281.96" cy="1338.94" r="4.26"/><circle class="b" cx="5281.96" cy="1355.27" r="4.26"/><circle class="b" cx="5281.96" cy="1371.6" r="4.26"/><circle class="b" cx="5269.89" cy="1299.18" r="4.26"/><circle class="b" cx="5269.89" cy="1315.51" r="4.26"/><circle class="b" cx="5269.89" cy="1331.84" r="4.26"/><circle class="b" cx="5269.89" cy="1348.17" r="4.26"/><circle class="b" cx="5269.89" cy="1364.5" r="4.26"/><path class="b" d="M3088.43,1313.09l67-.5s19-1.17,17,14.83-8,45-8,45-4,10.78-16,11.39-56,.28-56,.28"/><path class="b" d="M3094.43,1313.09h-63s-19-1.17-17,14.83,8,45,8,45,4,10.78,16,11.39,97-.22,97-.22"/><rect class="b" x="3310.43" y="1265.09" width="108" height="17"/><rect class="b" x="3310.43" y="1339.09" width="108" height="17"/><circle class="b" cx="3769.43" cy="1115.09" r="19"/><rect class="b" x="3520.43" y="1162.09" width="122" height="74"/><rect class="b" x="3552.43" y="1144.09" width="59" height="19"/><rect class="b" x="3559.43" y="1134.09" width="45" height="11"/><rect class="b" x="2121.93" y="1333.59" width="108" height="17" transform="translate(833.85 3518.02) rotate(-90)"/><path class="b" d="M2348.93,1300.8v21.66a1.82,1.82,0,0,0,1.82,1.81h8.87a2.06,2.06,0,0,1,1.16.35l13.75,8.89a2.15,2.15,0,0,0,1.16.34h75.12l15.23-7.61a2.08,2.08,0,0,1,.95-.23h8.13a1.81,1.81,0,0,0,1.81-1.81v-23.4a2.21,2.21,0,0,0-2.21-2.21H2351.15A2.22,2.22,0,0,0,2348.93,1300.8Z"/><rect class="b" x="1914.93" y="1331.59" width="108" height="17" transform="translate(628.85 3309.02) rotate(-90)"/><polyline class="b" points="1554.71 1361.59 1676.93 1361.59 1676.93 1393.59 1543.93 1393.59 1543.93 1371.03"/><path class="b" d="M1030.76,1117.32v-6.23s-24.33,6.86-24.33,29.94c0,14.34,2.5,13.72,2.5,13.72h7.69v11.64s4.16,6.45,20.38,6.45,19.34-5.62,19.34-5.62V1156h8.1s5-7.49,5-16.22-11.64-28.69-22.66-28.69v6.23Z"/><rect class="b" x="1028.58" y="1125.74" width="20.58" height="13.72" transform="translate(-93.74 2171.48) rotate(-90)"/><circle class="b" cx="1022.65" cy="1126.68" r="3.74"/><circle class="b" cx="1017.66" cy="1143.52" r="3.74"/><circle class="b" cx="1030.14" cy="1160.36" r="3.74"/><circle class="b" cx="1053.22" cy="1126.06" r="3.74"/><circle class="b" cx="1058.21" cy="1142.9" r="3.74"/><circle class="b" cx="1045.73" cy="1159.74" r="3.74"/><rect class="b" x="4791.91" y="1275.09" width="60.53" height="9.53"/><rect class="b" x="4791.91" y="1316.56" width="60.53" height="9.53"/><circle class="b" cx="860.53" cy="1262.67" r="16.07"/><circle class="b" cx="800.7" cy="1262.67" r="16.07"/><path class="b" d="M183.9,1340.19v44.73s.83,13.49-10.53,12.07-32-5.68-32-5.68-7.65-2.84-8.09-11.36,0-39.76,0-39.76"/><path class="b" d="M183.9,1340.19v-44.73s.83-13.49-10.53-12.07-32,5.68-32,5.68-7.65,2.84-8.09,11.36,0,39.76,0,39.76"/><circle class="b" cx="171.83" cy="1307.18" r="4.26"/><circle class="b" cx="171.83" cy="1323.51" r="4.26"/><circle class="b" cx="171.83" cy="1339.84" r="4.26"/><circle class="b" cx="171.83" cy="1356.17" r="4.26"/><circle class="b" cx="171.83" cy="1372.5" r="4.26"/><circle class="b" cx="157.63" cy="1314.28" r="4.26"/><circle class="b" cx="157.63" cy="1330.61" r="4.26"/><circle class="b" cx="157.63" cy="1346.94" r="4.26"/><circle class="b" cx="157.63" cy="1363.27" r="4.26"/><circle class="b" cx="157.63" cy="1379.6" r="4.26"/><circle class="b" cx="145.56" cy="1307.18" r="4.26"/><circle class="b" cx="145.56" cy="1323.51" r="4.26"/><circle class="b" cx="145.56" cy="1339.84" r="4.26"/><circle class="b" cx="145.56" cy="1356.17" r="4.26"/><circle class="b" cx="145.56" cy="1372.5" r="4.26"/><path class="b" d="M1117.93,1118.45v-6.24s-24.33,6.86-24.33,29.94c0,14.35,2.5,13.72,2.5,13.72h7.69v11.65s4.16,6.44,20.38,6.44,19.33-5.61,19.33-5.61v-11.23h8.11s5-7.48,5-16.22-11.64-28.69-22.66-28.69v6.24Z"/><rect class="b" x="1115.75" y="1126.87" width="20.58" height="13.72" transform="translate(-7.69 2259.77) rotate(-90)"/><circle class="b" cx="1109.82" cy="1127.8" r="3.74"/><circle class="b" cx="1104.83" cy="1144.65" r="3.74"/><circle class="b" cx="1117.3" cy="1161.49" r="3.74"/><circle class="b" cx="1140.38" cy="1127.18" r="3.74"/><circle class="b" cx="1145.37" cy="1144.02" r="3.74"/><circle class="b" cx="1132.9" cy="1160.86" r="3.74"/><path class="b" d="M13329.77,1318.09l67-.5s19-1.17,17,14.83-8,45-8,45-4,10.78-16,11.39-56,.28-56,.28"/><path class="b" d="M13335.77,1318.09h-63s-19-1.17-17,14.83,8,45,8,45,4,10.78,16,11.39,97-.22,97-.22"/><rect class="b" x="13551.77" y="1270.09" width="108" height="17"/><rect class="b" x="13551.77" y="1344.09" width="108" height="17"/><circle class="b" cx="14010.77" cy="1120.09" r="19"/><rect class="b" x="13761.77" y="1167.09" width="122" height="74"/><rect class="b" x="13793.77" y="1149.09" width="59" height="19"/><rect class="b" x="13800.77" y="1139.09" width="45" height="11"/><rect class="b" x="12363.27" y="1338.59" width="108" height="17" transform="translate(11070.18 13764.35) rotate(-90)"/><path class="b" d="M12590.27,1305.8v21.66a1.81,1.81,0,0,0,1.81,1.81h8.88a2.1,2.1,0,0,1,1.16.35l13.74,8.89a2.18,2.18,0,0,0,1.16.34h75.13l15.22-7.61a2.08,2.08,0,0,1,.95-.23h8.13a1.81,1.81,0,0,0,1.82-1.81v-23.4a2.21,2.21,0,0,0-2.22-2.21h-123.57A2.21,2.21,0,0,0,12590.27,1305.8Z"/><rect class="b" x="12156.27" y="1336.59" width="108" height="17" transform="translate(10865.18 13555.35) rotate(-90)"/><polyline class="b" points="11796.05 1366.59 11918.27 1366.59 11918.27 1398.59 11785.27 1398.59 11785.27 1376.03"/><rect class="b" x="15033.24" y="1280.09" width="60.53" height="9.53"/><rect class="b" x="15033.24" y="1321.56" width="60.53" height="9.53"/><circle class="b" cx="11152.86" cy="1267.67" r="16.07"/><circle class="b" cx="11153.03" cy="1323.67" r="16.07"/><path class="b" d="M10636,1333v36.79s.68,11.1-8.66,9.93-26.28-4.67-26.28-4.67a10.82,10.82,0,0,1-6.65-9.35c-.36-7,0-32.7,0-32.7"/><path class="b" d="M10636,1333v-36.79s.68-11.1-8.66-9.93-26.28,4.67-26.28,4.67a10.82,10.82,0,0,0-6.65,9.35c-.36,7,0,32.7,0,32.7"/><circle class="b" cx="10412.17" cy="1281.18" r="4.26"/><circle class="b" cx="10412.17" cy="1297.51" r="4.26"/><circle class="b" cx="10412.17" cy="1313.84" r="4.26"/><circle class="b" cx="10412.17" cy="1330.17" r="4.26"/><circle class="b" cx="10412.17" cy="1346.5" r="4.26"/><circle class="b" cx="10397.96" cy="1288.28" r="4.26"/><circle class="b" cx="10397.96" cy="1304.61" r="4.26"/><circle class="b" cx="10397.96" cy="1320.94" r="4.26"/><circle class="b" cx="10397.96" cy="1337.27" r="4.26"/><circle class="b" cx="10397.96" cy="1353.6" r="4.26"/><circle class="b" cx="10385.89" cy="1281.18" r="4.26"/><circle class="b" cx="10385.89" cy="1297.51" r="4.26"/><circle class="b" cx="10385.89" cy="1313.84" r="4.26"/><circle class="b" cx="10385.89" cy="1330.17" r="4.26"/><circle class="b" cx="10385.89" cy="1346.5" r="4.26"/><path class="c" d="M6161.47,1141.36v73.24a82.6,82.6,0,0,0,24.18,58.38l11.47,11.46a82.56,82.56,0,0,1,24.18,58.38v97.68"/><path class="c" d="M6250.09,1141.65v73.24a82.6,82.6,0,0,0,24.18,58.38l11.46,11.46a82.56,82.56,0,0,1,24.18,58.38v97.68"/><path class="d" d="M6732,1375v15.93a8.76,8.76,0,0,0,2.56,6.19l9.1,9.09a8.72,8.72,0,0,0,6.19,2.57h21.71"/><circle class="d" cx="6778" cy="1409" r="8"/><path class="d" d="M7370.36,1368.46l23.65,23.66a32.9,32.9,0,0,0,23.27,9.63h114.87a33,33,0,0,1,10.24,1.63l21.34,7A33,33,0,0,0,7574,1412H7746.1a32.8,32.8,0,0,0,10-1.57l26.22-8.38a32.8,32.8,0,0,1,10-1.57H7979"/><circle class="d" cx="7366.76" cy="1363.76" r="5.76"/><circle class="d" cx="7984.72" cy="1400.48" r="5.76"/><path class="d" d="M7542,1384l25.9,7.15a35.78,35.78,0,0,0,12,2h109.47"/><circle class="d" cx="7695.8" cy="1393.2" r="5.76"/><circle class="d" cx="7536.44" cy="1381.68" r="5.76"/><path class="d" d="M9091.32,1321.13v34.8a24.38,24.38,0,0,1-7.14,17.24l-31.93,31.93"/><line class="d" x1="9066.47" y1="1371.52" x2="9091.8" y2="1346.19"/><circle class="b" cx="9066.45" cy="1371.04" r="6.74"/><circle class="b" cx="9052.09" cy="1405.76" r="6.74"/><path class="d" d="M5786.78,1337.89v15.93a8.76,8.76,0,0,0,2.56,6.19l9.1,9.09a8.75,8.75,0,0,0,6.19,2.57h21.7"/><circle class="d" cx="5832.78" cy="1371.89" r="8"/><path class="d" d="M8966.86,1440.48v-34.8a24.42,24.42,0,0,1,7.14-17.25l31.93-31.93"/><line class="d" x1="8991.71" y1="1390.08" x2="8966.38" y2="1415.41"/><circle class="b" cx="8991.73" cy="1390.57" r="6.74"/><circle class="b" cx="9006.09" cy="1355.84" r="6.74"/><path class="c" d="M11277.11,1140.18v73.23a82.56,82.56,0,0,0,24.18,58.38l11.47,11.46a82.56,82.56,0,0,1,24.18,58.38v97.68"/><path class="c" d="M11365.73,1140.47v73.23a82.56,82.56,0,0,0,24.18,58.38l11.46,11.46a82.54,82.54,0,0,1,24.18,58.38v97.68"/><circle class="e" cx="9403.72" cy="1373.94" r="13"/><path class="e" d="M9412.75,1364.59l6.55-6.55a11.13,11.13,0,0,0,3.26-7.88v-15.39"/><path class="e" d="M9394.54,1364.76l-6.55-6.55a11.16,11.16,0,0,1-3.27-7.88v-15.39"/><path class="e" d="M9413.25,1385.07l6.55,6.55a11.15,11.15,0,0,1,3.26,7.88v15.39"/><path class="e" d="M9395,1384.91l-6.56,6.55a11.17,11.17,0,0,0-3.26,7.87v15.39"/><path class="d" d="M10298,1367.48v-22.69a3.65,3.65,0,0,0-3.66-3.65H10273l-1.52.6c-13.06,5.23-13.12,23.71-.09,29l.92.38h22A3.66,3.66,0,0,0,10298,1367.48Z"/><path class="d" d="M10310.85,1344.66v22.68a3.66,3.66,0,0,0,3.66,3.66h21.32l1.52-.6c13.07-5.24,13.13-23.71.1-29l-.93-.38h-22A3.66,3.66,0,0,0,10310.85,1344.66Z"/><path class="d" d="M12032.17,1329h-37v27.75l.75,1.69c6.87,15.46,28.79,15.54,35.77.12l.48-1Z"/><path class="d" d="M11995.17,1318.09h37v-27.75l-.75-1.69c-6.88-15.46-28.8-15.54-35.78-.12l-.47,1Z"/><path class="d" d="M13841,1259h-37v27.75l.75,1.69c6.87,15.46,28.8,15.54,35.78.12l.47-1Z"/><circle class="b" cx="5696.55" cy="1327.83" r="5"/><path class="b" d="M5699.61,1326.41l5.1-1.39a2.53,2.53,0,0,0,1.6-3.62,8.74,8.74,0,0,0-6.82-4.81,1.16,1.16,0,0,0-1.29,1.16V1325Z"/><path class="b" d="M5698.22,1331.1l1.39,5.09a2.55,2.55,0,0,0,3.63,1.61,8.76,8.76,0,0,0,4.81-6.83,1.17,1.17,0,0,0-1.16-1.29h-7.25Z"/><path class="b" d="M5692.65,1329.59l-5.1,1.39a2.53,2.53,0,0,0-1.6,3.62,8.73,8.73,0,0,0,6.82,4.81,1.16,1.16,0,0,0,1.29-1.16V1331Z"/><path class="b" d="M5694.44,1324.28l-1.39-5.1a2.53,2.53,0,0,0-3.62-1.6,8.73,8.73,0,0,0-4.81,6.82,1.16,1.16,0,0,0,1.16,1.29H5693Z"/><circle class="b" cx="10822.23" cy="1327.85" r="7.94"/><path class="b" d="M10827.09,1325.61l8.09-2.21a4,4,0,0,0,2.55-5.75,13.88,13.88,0,0,0-10.84-7.64,1.86,1.86,0,0,0-2,1.84v11.51Z"/><path class="b" d="M10824.89,1333l2.2,8.09a4,4,0,0,0,5.76,2.55,13.87,13.87,0,0,0,7.63-10.83,1.85,1.85,0,0,0-1.84-2h-11.51Z"/><path class="b" d="M10816,1330.64l-8.09,2.21a4,4,0,0,0-2.55,5.75,13.88,13.88,0,0,0,10.83,7.64,1.85,1.85,0,0,0,2.05-1.84v-11.51Z"/><path class="b" d="M10818.89,1322.22l-2.21-8.1a4,4,0,0,0-5.75-2.54,13.84,13.84,0,0,0-7.64,10.83,1.85,1.85,0,0,0,1.84,2h11.51Z"/><circle class="b" cx="4444.55" cy="1367.16" r="5"/><path class="b" d="M4447.61,1365.75l5.1-1.39a2.54,2.54,0,0,0,1.6-3.63,8.74,8.74,0,0,0-6.82-4.81,1.16,1.16,0,0,0-1.29,1.16v7.25Z"/><path class="b" d="M4446.22,1370.43l1.39,5.1a2.54,2.54,0,0,0,3.63,1.6,8.74,8.74,0,0,0,4.81-6.82,1.16,1.16,0,0,0-1.16-1.29h-7.25Z"/><path class="b" d="M4440.65,1368.92l-5.1,1.39a2.53,2.53,0,0,0-1.6,3.62,8.7,8.7,0,0,0,6.82,4.81,1.16,1.16,0,0,0,1.29-1.16v-7.25Z"/><path class="b" d="M4442.44,1363.61l-1.39-5.1a2.54,2.54,0,0,0-3.62-1.6,8.76,8.76,0,0,0-4.81,6.82,1.17,1.17,0,0,0,1.16,1.3H4441Z"/><circle class="b" cx="575.88" cy="1327.83" r="5"/><path class="b" d="M578.94,1326.41,584,1325a2.53,2.53,0,0,0,1.6-3.62,8.73,8.73,0,0,0-6.82-4.81,1.17,1.17,0,0,0-1.29,1.16V1325Z"/><path class="b" d="M577.56,1331.1l1.39,5.09a2.54,2.54,0,0,0,3.62,1.61,8.76,8.76,0,0,0,4.81-6.83,1.17,1.17,0,0,0-1.16-1.29H579Z"/><path class="b" d="M572,1329.59l-5.09,1.39a2.54,2.54,0,0,0-1.61,3.62,8.76,8.76,0,0,0,6.82,4.81,1.17,1.17,0,0,0,1.3-1.16V1331Z"/><path class="b" d="M573.78,1324.28l-1.39-5.1a2.54,2.54,0,0,0-3.63-1.6,8.73,8.73,0,0,0-4.81,6.82,1.16,1.16,0,0,0,1.16,1.29h7.25Z"/><circle class="b" cx="8898" cy="1173" r="19"/><rect class="b" x="7251.42" y="1320.96" width="83.82" height="13.19" rx="5.98" transform="translate(5965.78 8620.89) rotate(-90)"/><circle class="b" cx="6063.67" cy="1287.83" r="16.07"/><path class="d" d="M4564.28,1396h0a20.28,20.28,0,0,1,20.28,20.28V1438a0,0,0,0,1,0,0H4544a0,0,0,0,1,0,0v-21.72A20.28,20.28,0,0,1,4564.28,1396Z" transform="translate(9128.56 2834) rotate(180)"/><path class="d" d="M4655.5,1211.39V1293a11.84,11.84,0,0,1-9.31,11.57l-76.11,12.13a7.74,7.74,0,0,0-6.08,7.56V1396"/><circle class="d" cx="4656" cy="1199" r="12"/><line class="d" x1="6872.89" y1="1277" x2="6873" y2="1378"/><path class="f" d="M6871.5,1277.5h14a1,1,0,0,1,1,1v20a1,1,0,0,1-1,1h-14a0,0,0,0,1,0,0v-22A0,0,0,0,1,6871.5,1277.5Z"/><circle class="b" cx="5870.1" cy="1182.27" r="5"/><path class="b" d="M5873.17,1180.86l5.09-1.39a2.54,2.54,0,0,0,1.61-3.62A8.72,8.72,0,0,0,5873,1171a1.16,1.16,0,0,0-1.29,1.15v7.26Z"/><path class="b" d="M5871.78,1185.54l1.39,5.1a2.53,2.53,0,0,0,3.62,1.6,8.7,8.7,0,0,0,4.81-6.82,1.16,1.16,0,0,0-1.16-1.29h-7.25Z"/><path class="b" d="M5866.2,1184l-5.09,1.39a2.54,2.54,0,0,0-1.61,3.62,8.74,8.74,0,0,0,6.83,4.81,1.16,1.16,0,0,0,1.29-1.15v-7.26Z"/><path class="b" d="M5868,1178.72l-1.39-5.09A2.54,2.54,0,0,0,5863,1172a8.72,8.72,0,0,0-4.81,6.82,1.16,1.16,0,0,0,1.15,1.3h7.26Z"/><path class="b" d="M6242.94,1091.46h0s-24.33,6.86-24.33,29.94c0,14.34,2.5,13.72,2.5,13.72h1.45a6.24,6.24,0,0,1,6.24,6.24v5.4s4.16,6.45,20.38,6.45,19.33-5.61,19.33-5.61v-5a6.24,6.24,0,0,1,6.24-6.24h1.87s5-7.49,5-16.22-11.64-28.69-22.66-28.69h0a6.23,6.23,0,0,1-6.24,6.23h-3.53A6.23,6.23,0,0,1,6242.94,1091.46Z"/><rect class="b" x="6240.75" y="1106.12" width="20.58" height="13.72" transform="translate(5138.07 7364.02) rotate(-90)"/><circle class="b" cx="6234.83" cy="1107.05" r="3.74"/><circle class="b" cx="6229.84" cy="1123.89" r="3.74"/><circle class="b" cx="6242.31" cy="1140.73" r="3.74"/><circle class="b" cx="6265.39" cy="1106.43" r="3.74"/><circle class="b" cx="6270.38" cy="1123.27" r="3.74"/><circle class="b" cx="6257.91" cy="1140.11" r="3.74"/><path class="b" d="M11271.57,1094.27h0s-24.32,6.86-24.32,29.94c0,14.35,2.49,13.72,2.49,13.72h1.46a6.24,6.24,0,0,1,6.23,6.24v5.41s4.16,6.44,20.38,6.44,19.34-5.61,19.34-5.61v-5a6.24,6.24,0,0,1,6.23-6.24h1.88s5-7.48,5-16.22-11.65-28.69-22.67-28.69h0a6.24,6.24,0,0,1-6.24,6.24h-3.53A6.24,6.24,0,0,1,11271.57,1094.27Z"/><rect class="b" x="11269.39" y="1108.93" width="20.58" height="13.72" transform="translate(10163.89 12395.47) rotate(-90)"/><circle class="b" cx="11263.46" cy="1109.87" r="3.74"/><circle class="b" cx="11258.47" cy="1126.71" r="3.74"/><circle class="b" cx="11270.95" cy="1143.55" r="3.74"/><circle class="b" cx="11294.03" cy="1109.24" r="3.74"/><circle class="b" cx="11299.02" cy="1126.08" r="3.74"/><circle class="b" cx="11286.54" cy="1142.92" r="3.74"/><path class="b" d="M11359.41,1093.64h0s-24.32,6.86-24.32,29.94c0,14.35,2.49,13.73,2.49,13.73h1.46a6.24,6.24,0,0,1,6.24,6.23V1149s4.15,6.45,20.37,6.45,19.34-5.62,19.34-5.62v-5a6.24,6.24,0,0,1,6.24-6.24h1.87s5-7.48,5-16.21-11.65-28.7-22.67-28.7h0a6.23,6.23,0,0,1-6.23,6.24h-3.54A6.24,6.24,0,0,1,11359.41,1093.64Z"/><rect class="b" x="11357.23" y="1108.3" width="20.58" height="13.72" transform="translate(10252.36 12482.69) rotate(-90)"/><circle class="b" cx="11351.31" cy="1109.24" r="3.74"/><circle class="b" cx="11346.32" cy="1126.08" r="3.74"/><circle class="b" cx="11358.79" cy="1142.92" r="3.74"/><circle class="b" cx="11381.87" cy="1108.61" r="3.74"/><circle class="b" cx="11386.86" cy="1125.45" r="3.74"/><circle class="b" cx="11374.39" cy="1142.3" r="3.74"/><circle class="b" cx="9787.78" cy="1192.26" r="2.62"/><circle class="b" cx="9787.78" cy="1202.3" r="2.62"/><circle class="b" cx="9787.78" cy="1212.35" r="2.62"/><circle class="b" cx="9787.78" cy="1222.39" r="2.62"/><circle class="b" cx="9787.78" cy="1232.43" r="2.62"/><circle class="b" cx="9779.04" cy="1196.63" r="2.62"/><circle class="b" cx="9779.04" cy="1206.67" r="2.62"/><circle class="b" cx="9779.04" cy="1216.71" r="2.62"/><circle class="b" cx="9779.04" cy="1226.75" r="2.62"/><circle class="b" cx="9779.04" cy="1236.8" r="2.62"/><circle class="b" cx="9771.62" cy="1192.26" r="2.62"/><circle class="b" cx="9771.62" cy="1202.3" r="2.62"/><circle class="b" cx="9771.62" cy="1212.35" r="2.62"/><circle class="b" cx="9771.62" cy="1222.39" r="2.62"/><circle class="b" cx="9771.62" cy="1232.43" r="2.62"/><circle class="b" cx="9788.08" cy="1260.84" r="2.62"/><circle class="b" cx="9788.08" cy="1270.88" r="2.62"/><circle class="b" cx="9788.08" cy="1280.93" r="2.62"/><circle class="b" cx="9788.08" cy="1290.97" r="2.62"/><circle class="b" cx="9788.08" cy="1301.01" r="2.62"/><circle class="b" cx="9779.35" cy="1265.21" r="2.62"/><circle class="b" cx="9779.35" cy="1275.25" r="2.62"/><circle class="b" cx="9779.35" cy="1285.29" r="2.62"/><circle class="b" cx="9779.35" cy="1295.34" r="2.62"/><circle class="b" cx="9779.35" cy="1305.38" r="2.62"/><circle class="b" cx="9771.92" cy="1260.84" r="2.62"/><circle class="b" cx="9771.92" cy="1270.88" r="2.62"/><circle class="b" cx="9771.92" cy="1280.93" r="2.62"/><circle class="b" cx="9771.92" cy="1290.97" r="2.62"/><circle class="b" cx="9771.92" cy="1301.01" r="2.62"/><circle class="b" cx="9787.93" cy="1330.55" r="2.62"/><circle class="b" cx="9787.93" cy="1340.59" r="2.62"/><circle class="b" cx="9787.93" cy="1350.64" r="2.62"/><circle class="b" cx="9787.93" cy="1360.68" r="2.62"/><circle class="b" cx="9787.93" cy="1370.72" r="2.62"/><circle class="b" cx="9779.19" cy="1334.92" r="2.62"/><circle class="b" cx="9779.19" cy="1344.96" r="2.62"/><circle class="b" cx="9779.19" cy="1355" r="2.62"/><circle class="b" cx="9779.19" cy="1365.05" r="2.62"/><circle class="b" cx="9779.19" cy="1375.09" r="2.62"/><circle class="b" cx="9771.77" cy="1330.55" r="2.62"/><circle class="b" cx="9771.77" cy="1340.59" r="2.62"/><circle class="b" cx="9771.77" cy="1350.64" r="2.62"/><circle class="b" cx="9771.77" cy="1360.68" r="2.62"/><circle class="b" cx="9771.77" cy="1370.72" r="2.62"/><ellipse class="b" cx="9728.27" cy="1299.37" rx="4.72" ry="16.67"/><path class="b" d="M9731.91,1293.6l5.49-5.28c1.68-1.62,2.55-8.34,1.72-13.77-1.14-7.57-3.33-16.57-7.34-18.27-.74-.32-1.39,1.77-1.39,4.39v27.56Z"/><path class="b" d="M9730.42,1311.39l1.49,19.36c.46,5.94,2.37,9,3.9,6.1,2.15-4,4.7-11.77,5.18-25.93.09-2.6-.5-4.91-1.25-4.91h-7.8Z"/><path class="b" d="M9724.59,1305.23l-4.81,4.63c-1.48,1.42-2.24,7.32-1.52,12.08,1,6.64,2.93,14.53,6.45,16,.64.28,1.22-1.56,1.22-3.86v-24.17Z"/><path class="b" d="M9726.29,1287.54l-1.32-17c-.4-5.21-2.07-7.9-3.42-5.35-1.88,3.55-4.12,10.32-4.54,22.74-.08,2.29.44,4.31,1.09,4.31H9725Z"/><ellipse class="b" cx="9689.99" cy="1306.43" rx="3.77" ry="13.3"/><path class="b" d="M9692.89,1301.82l4.38-4.22c1.35-1.29,2-6.66,1.38-11-.91-6-2.66-13.22-5.86-14.59-.59-.25-1.11,1.42-1.11,3.52v22Z"/><path class="b" d="M9691.7,1316l1.2,15.46c.36,4.74,1.88,7.18,3.11,4.87,1.71-3.24,3.75-9.4,4.13-20.7.08-2.08-.4-3.91-1-3.91h-6.23Z"/><path class="b" d="M9687.05,1311.1l-3.84,3.7c-1.18,1.13-1.78,5.84-1.21,9.64.81,5.3,2.34,11.6,5.15,12.79.51.22,1-1.24,1-3.08v-19.29Z"/><path class="b" d="M9688.41,1297l-1-13.56c-.32-4.16-1.66-6.3-2.73-4.27-1.51,2.83-3.29,8.24-3.63,18.15-.06,1.83.35,3.44.87,3.44h5.47Z"/><circle class="b" cx="6401.42" cy="1283.1" r="4.26"/><circle class="b" cx="6401.42" cy="1266.77" r="4.26"/><circle class="b" cx="6401.42" cy="1250.44" r="4.26"/><circle class="b" cx="6401.42" cy="1234.11" r="4.26"/><circle class="b" cx="6401.42" cy="1217.78" r="4.26"/><circle class="b" cx="6415.62" cy="1276" r="4.26"/><circle class="b" cx="6415.62" cy="1259.67" r="4.26"/><circle class="b" cx="6415.62" cy="1243.34" r="4.26"/><circle class="b" cx="6415.62" cy="1227.01" r="4.26"/><circle class="b" cx="6415.62" cy="1210.68" r="4.26"/><circle class="b" cx="6427.69" cy="1283.1" r="4.26"/><circle class="b" cx="6427.69" cy="1266.77" r="4.26"/><circle class="b" cx="6427.69" cy="1250.44" r="4.26"/><circle class="b" cx="6427.69" cy="1234.11" r="4.26"/><circle class="b" cx="6427.69" cy="1217.78" r="4.26"/><circle class="b" cx="6402.42" cy="1386.1" r="4.26"/><circle class="b" cx="6402.42" cy="1369.77" r="4.26"/><circle class="b" cx="6402.42" cy="1353.44" r="4.26"/><circle class="b" cx="6402.42" cy="1337.11" r="4.26"/><circle class="b" cx="6402.42" cy="1320.78" r="4.26"/><circle class="b" cx="6416.62" cy="1379" r="4.26"/><circle class="b" cx="6416.62" cy="1362.67" r="4.26"/><circle class="b" cx="6416.62" cy="1346.34" r="4.26"/><circle class="b" cx="6416.62" cy="1330.01" r="4.26"/><circle class="b" cx="6416.62" cy="1313.68" r="4.26"/><circle class="b" cx="6428.69" cy="1386.1" r="4.26"/><circle class="b" cx="6428.69" cy="1369.77" r="4.26"/><circle class="b" cx="6428.69" cy="1353.44" r="4.26"/><circle class="b" cx="6428.69" cy="1337.11" r="4.26"/><circle class="b" cx="6428.69" cy="1320.78" r="4.26"/><path class="g" d="M1045.36,1371.86A84,84,0,1,0,1164.2,1253"/><path class="g" d="M1057.83,1265.5a66.39,66.39,0,1,0,93.9,93.89"/><path class="g" d="M1074,1343.25a43.57,43.57,0,0,0,61.62-61.62"/><circle class="h" cx="1136.8" cy="1281.61" r="2.47"/><circle class="h" cx="1075.01" cy="1343.4" r="2.47"/><circle class="h" cx="1151.63" cy="1358.22" r="2.47"/><circle class="h" cx="1057.71" cy="1264.31" r="2.47"/><circle class="h" cx="1163.98" cy="1251.95" r="2.47"/><circle class="h" cx="1042.88" cy="1370.58" r="2.47"/><circle class="b" cx="8898" cy="1096" r="19"/><circle class="b" cx="8899" cy="1249" r="19"/><path class="f" d="M6871.5,1315.5h14a1,1,0,0,1,1,1v20a1,1,0,0,1-1,1h-14a0,0,0,0,1,0,0v-22A0,0,0,0,1,6871.5,1315.5Z"/><path class="f" d="M6871.5,1355.5h14a1,1,0,0,1,1,1v7.92a13.08,13.08,0,0,1-13.08,13.08h-1.92a0,0,0,0,1,0,0v-22A0,0,0,0,1,6871.5,1355.5Z"/><rect class="b" x="9916.74" y="1328.81" width="60.53" height="9.53" rx="4.76"/><rect class="b" x="9916.49" y="1360.18" width="60.53" height="9.53" rx="4.76"/><rect class="b" x="9916.98" y="1391.43" width="60.53" height="9.53" rx="4.76"/><rect class="b" x="6033.07" y="1381.36" width="60.53" height="9.53" rx="4.75" transform="translate(7449.47 -4677.21) rotate(90)"/><rect class="b" x="6001.6" y="1381.36" width="60.53" height="9.53" rx="4.76" transform="translate(7417.99 -4645.74) rotate(90)"/><rect class="b" x="5970.35" y="1381.86" width="60.53" height="9.53" rx="4.76" transform="translate(7387.24 -4613.99) rotate(90)"/><rect class="b" x="5938.98" y="1381.61" width="60.53" height="9.53" rx="4.76" transform="translate(7355.62 -4582.87) rotate(90)"/><rect class="b" x="5907.73" y="1382.11" width="60.53" height="9.53" rx="4.76" transform="translate(7324.87 -4551.12) rotate(90)"/><rect class="b" x="8646.53" y="1321.74" width="83.82" height="13.19" rx="6.6"/><circle class="d" cx="7339" cy="1326" r="17"/><circle class="b" cx="7339" cy="1326" r="11"/><circle class="d" cx="8771" cy="1328" r="17"/><circle class="b" cx="8771" cy="1328" r="10"/><path class="d" d="M11211,1205l-1.34,181.26a6.83,6.83,0,0,1-2,4.84l-18.49,18.5a6.88,6.88,0,0,1-4.85,2h-152.85a6.88,6.88,0,0,1-4.85-2L11014,1397a6.83,6.83,0,0,1-2-4.85v-18.83a6.85,6.85,0,0,1,2-4.85l11.25-11.26a6.88,6.88,0,0,1,4.85-2h20.05a6.83,6.83,0,0,0,4.84-2l12.61-12.61"/><circle class="d" cx="11071.84" cy="1335.98" r="5.76"/><circle class="b" cx="11095.67" cy="1268" r="16.07"/><circle class="b" cx="9191.22" cy="1293.18" r="2.62"/><circle class="b" cx="9191.22" cy="1303.22" r="2.62"/><circle class="b" cx="9191.22" cy="1313.27" r="2.62"/><path class="d" d="M9576.54,1360.39h-22.68a3.66,3.66,0,0,0-3.66,3.66v21.32l.61,1.52c5.23,13.07,23.7,13.13,29,.09l.37-.92v-22A3.66,3.66,0,0,0,9576.54,1360.39Z"/><path class="d" d="M10136.92,1329.69v34.8a24.35,24.35,0,0,1-7.15,17.24l-31.93,31.93"/><line class="d" x1="10112.07" y1="1380.08" x2="10137.4" y2="1354.75"/><circle class="b" cx="10112.04" cy="1379.6" r="6.74"/><circle class="b" cx="10097.69" cy="1414.32" r="6.74"/><path class="d" d="M5515.58,1260.19V1295a24.38,24.38,0,0,1-7.14,17.24l-31.93,31.93"/><line class="d" x1="5490.74" y1="1310.58" x2="5516.06" y2="1285.25"/><circle class="b" cx="5490.71" cy="1310.1" r="6.74"/><circle class="b" cx="5476.36" cy="1344.82" r="6.74"/><circle class="d" cx="5178" cy="1360" r="17"/><circle class="b" cx="5178" cy="1360" r="10"/><circle class="e" cx="4991.5" cy="1388.11" r="13"/><path class="e" d="M5000.52,1378.76l6.55-6.55a11.14,11.14,0,0,0,3.27-7.88v-15.39"/><path class="e" d="M4982.31,1378.93l-6.55-6.55a11.15,11.15,0,0,1-3.26-7.88v-15.39"/><path class="e" d="M5001,1399.24l6.55,6.55a11.13,11.13,0,0,1,3.26,7.88v15.39"/><path class="e" d="M4982.81,1399.07l-6.55,6.55a11.15,11.15,0,0,0-3.26,7.88v15.39"/><circle class="b" cx="4070.67" cy="1294.46" r="2.62"/><circle class="b" cx="4070.67" cy="1304.5" r="2.62"/><circle class="b" cx="4070.67" cy="1314.54" r="2.62"/><path class="d" d="M4264.79,1361.41v-22.69a3.65,3.65,0,0,0-3.66-3.65h-21.32l-1.52.6c-13.07,5.23-13.13,23.71-.1,29l.92.38h22A3.66,3.66,0,0,0,4264.79,1361.41Z"/><path class="d" d="M4277.65,1338.59v22.69a3.65,3.65,0,0,0,3.66,3.65h21.33l1.52-.6c13.06-5.23,13.12-23.71.09-29l-.92-.38h-22A3.66,3.66,0,0,0,4277.65,1338.59Z"/><path class="d" d="M10976.05,1168.54v15a2.41,2.41,0,0,0,2.42,2.41h14.05l1-.4a10.31,10.31,0,0,0,.06-19.12l-.61-.25h-14.5A2.41,2.41,0,0,0,10976.05,1168.54Z"/></svg>