<svg xmlns="http://www.w3.org/2000/svg" width="15361" height="1440" viewBox="0 0 15361 1440"><defs><style>.a{fill:#42a5f5;}</style></defs><path class="a" d="M5630.71,298.25s9.89-2.33,12.09-3.5,5.49-7,8.79-9.33,12.08-7,12.08-7,5.49-2.33,6.59-4.67a13.5,13.5,0,0,1,7.14-6.41c3.29-1.17,6.59-2.34,9.89-1.17s14.89-1,15.68-.48,1.53-3,3.91-.08,5.67,1.73,6.77,4.06,2.68,5.83,5.19,7.58,6.53-.58,10,0,1.53.59,8.55,0,9.21.59,12,0,6-1.75,8.24-1.75,6.59-1.16,6.59,0,3.29,0,4.39,0h7.69c1.1,0,6.59-1.16,7.69,0s2.2,0,4.4,0h14.28a2.32,2.32,0,0,0,3.29-1.16c1.1-2.34,1.1-2.34,2.2-3.5a15.8,15.8,0,0,1,3.29-2.34l1.1-2.33s4.4-2.33,5.5-3.5,4.39-2.33,4.39-2.33,0-1.17,2.2-2.34,2.19,0,3.29-1.16,1.1-2.34,3.3-3.5a49.33,49.33,0,0,1,5.49-2.34l4.39-1.16s-1.1-1.17,0-1.75,7.69-6.42,7.69-6.42l2.2-1.17s4.39,0,5.49-1.16l3.3-3.5a23.6,23.6,0,0,1,4.39-1.17c1.1,0,3.3,0,3.3-1.17s4.39-5.83,3.29-5.83.35-.26.18-1.88a9.4,9.4,0,0,1,.92-3.95l-1.1-7,1.1-2.27s2.2-3.57,2.2-5.9,2.19-5.83,2.19-5.83.37,1.16,1.29,0,5.31-3.5,6.4-3.5,5.5-3.5,5.5-3.5l1.09-2.34c1.1-2.33,1.1-4.66,2.2-4.66s1.95,1.16,2.63,0,.67-2.34,2.86-3.5,5.5-3.5,6.6-3.5,5.49-2.34,5.49-2.34a4.67,4.67,0,0,1,3.29-1.16c2.2,0-.24,1.16,5.92,0a88.54,88.54,0,0,1,13.86-1.17s3.29,0,4.39-1.17,1.1,0,2.75,0,9.27-.52,9.27-.52-4.94.65,4.15,0,9.09.52,10.19-1.81a9.42,9.42,0,0,0,1.1-3.5s0-3.5,1.1-3.5,1.1,0,3.3-1.17,3.29,1.17,3.29-1.16,0-3.5,2.2-3.5,3.29,1.16,4.39-1.17-1.1-2.33,2.2-2.33h5.43l-3.23-3.5s-2.2-1.17,0-2.34,2.07-.9,3.23-1.62,2.26-4.21,4.46-4.21a10.85,10.85,0,0,0,4.39-1.17s0-2.33,2.2-2.33h5.18c1.41,0,2.51-2.33,3.6-1.17s5.5,0,6.59,1.17,2.2,1.17,4.4,1.17h5.49a10.7,10.7,0,0,1,3.3,1.16,23.76,23.76,0,0,1,4.39-1.16c1.1,0,4.39,0,5.49-1.17l3.3-3.5A4.16,4.16,0,0,1,6041,139c0,1.17-1.1,0,0,1.17a3.87,3.87,0,0,0,3.29,1.17h2.2s1.1-3.5,2.2-2.34a15.53,15.53,0,0,0,3.29,2.34,10.64,10.64,0,0,1,3.3-1.17c1.1,0,4.39-2.33,4.39-1.17s2.2,1.17,2.2,2.34,3.29,0,3.29,1.16-1.1,2.34-1.1,4.67,0,1.17,1.1,2.92,1.1-.59,1.1,1.75,1.1,0,1.1,2.33,1.1,2.33,1.1,3.5-2.2-1.17,0,1.17,4.39,3.5,4.39,4.66,3.3,2.34,4.4,3.5,0,2.34,2.19,3.5,4.4,1.17,6.59,2.34,2.2,1.16,2.2,2.33,1.1,2.33,1.1,3.5,6.59,1.17,6.59,2.33,0,1.17,2.2,2.34,7.69-1.17,8.79,1.16c.8,1.71,4.53,2.79,6.48,3.25.73.17,1.21.25,1.21.25s3.29,0,4.39,2.34,1.1,1.16,1.1,2.33,2.19,2.33,3.29,3.5,5.5,0,5.5,3.5,3.29,5.83,3.29,5.83l1.1,2.34s4.39-1.17,4.39,0-1.1,1.42,0,3,2.2,1.62,3.3,2.79,3.29,1.17,4.39,3.5,2.2,2.33,5.49,3.5,5.5,1.17,6.6,2.33,4.39,0,4.39,2.34,1.1,3.37,0,4.6-2.2,2.4-1.1,1.23,4.4-2.33,4.4-2.33-4.4-2.34,0-1.17,3.29,2.33,5.49,2.33,5.49-1.16,5.49,1.17-1.1,2.33,2.2,3.5a5.13,5.13,0,0,1,3.29,4.67,14.3,14.3,0,0,1,2.2,3.5,56.72,56.72,0,0,1,2.2,5.83s0,3.5,1.09,4.67,1.1,2.33,2.2,3.5,1.1,3.5,1.1,4.66,2.2,0,3.3,2.34,2.19,3.5,1.09,4.66-1.28,1.95.46,3.31,3.94,1.36,3.94,3.69-4.4-2.33,0,3.5,6.59,4.67,6.59,7,0,0,1.1,0,4.39,0,4.39,1.17,2.2,1.17,2.2,2.33,2.2,0,3.29,1.17,4.4,1.17,3.3,2.33-.66,1.3.22,3.57,2,3.43,3.07,3.43,2.2,0,2.2,2.34,2.2,3.5,2.2,4.66-1.1,1.17,0,2.34,3.29,2.33,3.29,3.5,2.2,0,2.2,1.16,0,1.17,2.2,2.34-3.3-4.67,3.29,1.16,8.79,7,8.79,7,2.2,2.34,3.3,2.34a11.18,11.18,0,0,1,5.49,2.33c1.1,1.17,4.39,1.17,5.49,2.33l2.2,2.34c1.1,1.16,5.49,0,5.49,1.16s3.3,2.34,3.3,3.5,3.29,1.17,3.29,1.17.49-3.5.8-1.17,2.5,4.67,2.5,4.67l3.29,1.17s2.57-1.17,2.38,0,3.12,2.33,4.21,3.5,0,1.16,2.2,2.33a8.14,8.14,0,0,0,3.3,1.17,3.31,3.31,0,0,1,2.19,1.16c1.1,1.17,3.3,5.84,3.3,5.84l2.2,1.16s.24-1.16.67,0,1.52,1.17,2.62,2.34,4.39,1.16,4.39,2.33,1.1,1.17,2.2,2.33,3.3,2.34,4.4,3.5,3.29-1.16,4.39,2.34,2.2,3.5,3.29,4.66,4.4,1.17,4.4,1.17l2.2,2.33c1.09,1.17,0,1.17,3.29,2.34s7.69,1.16,7.69,3.5,3.3,4.66,3.3,4.66,4.39,0,5.49,1.17,5.49,2.33,5.49,2.33,1.1-2.33,1.1,1.17,2.2,4.67,2.2,5.83,0,1.17-1.1,3.5-1.1,1.17,0,3.5,1.1,0,1.1,2.92,0,2.92,1.09,4.08a15.76,15.76,0,0,0,3.3,2.34s1.46-1.17,4.58,0,5.31,0,7.5,1.16a72,72,0,0,0,8.79,3.5c3.3,1.17,3.3,0,7.69,1.17s6.59,2.33,7.69,2.33,3.3-1.16,6.59,0,5.37,1.17,6.53,0a3.52,3.52,0,0,1,2.26-1.16l2.2,4.66v1.88c0,1.62,0-.71,2.19,1.62s3.3,1.17,5.5,3.5l4.39,4.67c1.1,1.17,0,1.17,5.49,3.5s7.69,1.17,8.79,3.5,3.29,2.33,4.39,4.67,2.2,1.16,2.2,1.16a3.31,3.31,0,0,1,2.2,1.17,5.18,5.18,0,0,0,3.29,1.17s1.28-1.17,1.19,0a3.71,3.71,0,0,0,1,2.33h1.46a4.45,4.45,0,0,1,2.93,1.17,16,16,0,0,0,3.3,2.33s0,1.17,1.1,1.17,3.29-2.34,4.39,0,2.2,2.33,3.3,3.5,2.19,0,4.39,1.16,1.1,0,3.3,1.17,2.19,0,3.29,1.17,3.3,0,3.3,1.16-1.1,0,1.1,1.17,4.39,1.17,4.39,2.33,4.39,2.34,4.39,2.34a10.93,10.93,0,0,0,4.4,1.16c2.19,0,3.29,1.17,4.39,1.17s3.11-1.17,4.3,0,3.39,1.17,3.39,2.33,1.1,1.17,1.1,3.5,0,2.34,2.2,2.34,1.09,0,2.19-1.17a5.2,5.2,0,0,1,3.3-1.17l2.2,1.17V489l1.09,1.17c1.1,1.17,1.1,0,2.2,2.33s2.2,3.5,3.3,3.5,3.29,0,4.39-1.16,0-3.5,2.2-2.34,3.48,2.34,3.93,3.5,1.56,2.34,1.56,3.5v2.63c0,.87,1.1.87,2.2.87h7.69c1.09,0,5.49-3.5,4.39,0s-2.2,2.34,0,4.67,4.39,2.33,5.49,3.5,2.2,2.33,4.4,2.33,1.09,0,4.39,1.17,4.39,1.17,5.49,2.33,2.2,1.17,4.4,2.34a13.52,13.52,0,0,1,3.29,2.33l2.2,1.17s3.84-1.17,3.57,0,.82,3.5,1.92,3.5,4-1.17,3.66,0,2.93,2.33,1.83,3.5-2.84.38.23,2.52,4.17-.19,5.27,2.14,3.29,1.17,3.29,2.34,2.2,1.16,4.4,1.16,0-1.16,3.29,0,4.39-1.16,6.59,0a11.32,11.32,0,0,0,5.49,1.17,23.75,23.75,0,0,0,4.4-1.17s-1.1-2.33,0-1.16.91,2.33,1.55,2.33.65-2.33,1.74-1.17a3.89,3.89,0,0,0,3.3,1.17c1.1,0,2.2-2.33,3.29-1.17s3.3,0,3.3,1.17,1.46,0,2.93,0a22.13,22.13,0,0,1,4.76,1.16s1.1-2.33,2.2-1.16,6.22,0,5.85,1.16.74,1.17,1.84,0,2.19-4.66,4.39-2.33,3.3,1.17,4.39,2.33,2.2,0,4.4,0,4.39,0,5.49,1.17-1.1,3.5,2.2,3.5,3.29,0,4.39,1.17,0,1.16,2.2,2.33,3.29,2.33,5.49,3.5a13.9,13.9,0,0,0,5.49,1.17s2.2-1.17,3.85,0,2.74,1.16,2.74,2.33,2.2,1.17,2.2,1.17,4.39,0,5.49,1.16,7.69,1.17,7.69,2.34,1.1,1.16,2.2,2.33,2.2,0,2.2,1.17,1.09,2.33,2.19,3.5,6.59,2.33,6.59,3.5,2.2,0,3.3,2.33,3.29,1.17,3.29,2.33,5.5,1.17,5.5,2.34,3.29,2.33,4.39,2.33,0,0,1.1,1.17,3.3,0,4.39,1.16-1.09-1.16,3.3,2.34,6.59,3.5,6.59,3.5l3.3,1.16s3.29,0,3.29,1.17,2.2,2.33,3.3,2.33h4.48c-.09,0,2.11,1.17,2.11,1.17l3.29,1.17,2.2,1.16s4.39,1.17,4.39,2.34,2.2,0,1.1,2.33-.48,1.56.31,3.7,3,3.3,3,4.47v3.5a10.61,10.61,0,0,0,3.29,1.16h2.2c1.1,0,2.2-1.16,3.3,0s4.39,0,4.39,1.17,1.1,1.17,2.2,1.17,2.19,1.16,3.29,1.16,2.2-1.16,2.2,0,2.2,1.17,4.39,2.34,2.2,2.33,3.3,2.33a23.6,23.6,0,0,1,4.39,1.17s.37-1.17,2.93,0a9.72,9.72,0,0,0,4.76,1.16h3.48c2,0,2,0,3.11,1.17a8.13,8.13,0,0,0,4.4,2.33c1.09,0,2.19,1.17,3.29,1.17s0,0,1.1,2.33,2.2,2.34,2.2,2.34a5.21,5.21,0,0,1,3.29,1.16c1.1,1.17,3.3,0,4.4,1.17s4.39,1.17,4.39,1.17a4.69,4.69,0,0,0,3.3,1.16c2.19,0,5.49,2.34,6.59,1.17s0-2.33,2.19-1.17a15.27,15.27,0,0,0,4.21,1.5s.92,1.76,1.65,1.3.73.46,2.38,0,3.11-1.61,4,.13,4.21.57,4.21.57v-1.16a2.44,2.44,0,0,0,2.2,2.33c1.1,0,0-2.33,2.19-1.17s4.4-1.16,5.5,0a8.13,8.13,0,0,0,4.39,2.34h2.2c1.1,0,2.19,1.16,3.29,1.16s1.1-2.33,2.2-1.16a3.91,3.91,0,0,0,3.3,1.16c1.09,0,2.19,1.17,3.29,1.17s2.2-2.33,3.3-1.17l3.29,3.5a10.64,10.64,0,0,0,3.3,1.17h6.41c3.47,0,4.57,1.17,5.67,1.17s4.39-1.17,4.39,0,1.1,2.33,3.3,2.33h4.67a37.56,37.56,0,0,0,6.32-1.17s-3.3-1.16,3.29,1.17,8.79,2.33,8.79,2.33.55-1.16,1.92,0a19.8,19.8,0,0,0,4.67,2.34,10.72,10.72,0,0,0,3.29,1.16,7.91,7.91,0,0,1,4.4,1.17,49.24,49.24,0,0,0,5.49,2.33h3.39c-.09,0,5.4,2.34,5.4,2.34l3.29,2.33,6.6,1.17s3.29,0,3.29,1.16a2.44,2.44,0,0,0,2.2,2.34c1.1,0,2.19-1.17,3.29,0s4.4,2.33,4.4,1.16,1.1-1.16,2.19-1.16,0-1.17,2.2-2.34,4.39-2.33,4.39-1.16-3.29,2.33-2.19,3.5,0,1.16,2.19,2.33,5.5,0,5.5,1.17,4.39,2.33,4.39,2.33,1.1,2.33,2.2,0,0-1.17,2.2-1.17,2.19-1.16,3.29,0,1.1-1.16,2.2,1.17,3.29,3.5,4.39,3.5-.18,1.17,3.21,0a17.24,17.24,0,0,1,4.48-1.17l1.1,1.17c1.1,1.17,4.39,2.33,4.39,2.33h3.3v2.34s3.29,0,3.29,1.16,0,0,1.1,2.34,3.3,1.16,4.4,3.5,4.39,3.5,4.39,4.66a12.2,12.2,0,0,0,1.1,3.5l3.29,2.34h3.3s7.69,1.16,7.69,2.33,2.2,1.17,3.29,2.33l2.2,2.34c1.1,1.16,5.49,2.33,5.49,2.33,0,1.17,2.2,1.17,2.2,2.33s3.3,2.34,3.3,2.34l3.29,2.33a3.31,3.31,0,0,1,2.2,1.17c1.1,1.16,2.2,2.33,4.39,2.33s4.4,1.17,5.5,1.17,5.49,2.33,5.49,2.33a3.28,3.28,0,0,1,2.19,1.17c1.1,1.16,0,1.16,1.1,2.33s0-1.17,1.1,3.5,1.1,5.83,2.2,5.83-1.1-4.66,3.29,0,3.3,2.34,4.4,4.67,1.1,0,2.19,2.33-2.19,1.17,2.2,3.5,6.59,2.34,7.69,3.5,2.2-1.16,2.2,0,7.69,5.84,7.69,5.84h3.29a11.21,11.21,0,0,1,5.5,2.33c1.09,1.17,6.59,3.5,6.59,3.5l3.29,1.17,2.2,1.16V769l17.57,8.17s4.4-7,3.85,0-8.24,3.5-.55,7,27.46,8.16,27.46,8.16a21.82,21.82,0,0,1,3.3,4.67c1.1,2.33,5.49,3.5,6.59,8.17s11,7,16.48,10.5,19.77,7,19.77,12.83,9.88,10.5,9.88,14,25.27,5.83,24.17,10.5,2.27,2.33,0,13.42-6.09,15.75.78,21,32.14,7.58,35.43,18.08,3.3,12.83,5.49,18.67,0,22.16-1.1,24.5-2.19-1.17,6.6,11.66,9.88,11.67,15.37,19.84,11,11.66,13.19,19.83,16.47,11.67,13.18,18.67-3.41,4.66.49,8.75,18.18,16.91,17.08,23.91,1.22,7,.06,13.42,3.24,9.92,4.34,13.42-2.2-5.84,1.1,3.5,4.39,7,4.39,14V1112H3760V277.25h9.15s2.51-1.75,2.45,0,3-1.75,3.66,0,3.72-2.91,4.39,0,2.87.59,4,1.75,7.69-2.33,9.88,0,3.3,0,6.59,3.5,8.79,1.17,11,3.5,1.1,0,4.39,4.67,11.54,4.86,11.54,4.86c2.74,2.14,7.14,2.14,6,4.47s1.1,4.67,2.2,5.84,5.49-2.34,5.49,2.33,4.39,3.5,5.49,5.83,3.3,1.17,4.39,3.5,5.5,1.17,6.6,4.67,1.09,2.33,4.39,5.83,8.79,5.84,8.79,8.17,0,1.17,1.1,5.83-1.1,4.67,3.29,5.84,7.69,0,9.89-3.5,6.59-5.84,7.69-7,8.78-3.5,9.88-3.5h11s-1.1-1.17,3.29-1.17,5.5-3.5,8.79,0,9.89,5.83,13.18,4.67a89.86,89.86,0,0,1,8.79-2.34s8.79-1.16,8.79,1.17,2.2,3.5,4.39,5.83,5.5,2.34,6.59,3.5,7.69,0,8.79,4.67-2.2,5.83,3.3,7,11,1.17,11,3.5,3.3,2.33,4.4,5.83,2.19,3.5,4.39,5.84,8.79,3.5,8.79,2.33-2.2-1.17,0-3.5,4.39-4.67,5.49-4.67-2.2-3.5,4.39-1.16,6.59-1.17,11,2.33,9.89,2.33,13.18,4.67,7.69,1.16,8.79,2.33,5.49,0,5.49,1.17,7.69,1.16,7.69,1.16l3.3-5.83,8.78-1.17,9.89-1.16s-1.1-2.34,3.3-2.34,5.49-1.16,8.78,0,9.89,0,11,0,7.69-1.16,7.69-1.16h6.59c-1.1,0-2.2,0,0-2.34s8.79-8.16,8.79-8.16a12.39,12.39,0,0,0,1.09-3.5c0-1.17-1.09-1.17,1.1-2.34s8.79-3.5,8.79-3.5a4.2,4.2,0,0,1,2.2-3.5c2.19-1.16,9.88-5.83,9.88-5.83a2.65,2.65,0,0,1,1.1-3.5c2.2-1.17,8.79-5.83,9.89-3.5s9.89,1.17,11-1.17,4.4-4.66,5.5-4.66,9.88-2.34,11-2.34,3.3-2.33,5.49-3.5,11-2.33,12.09,0,3.29,3.5,7.69,5.84,12.08,3.5,14.28,5.83,8.78,2.33,9.88,3.5,5.5,0,6.59,2.33,2.2,1.17,4.4,5.84,12.08,3.5,13.18,8.16,0,3.5,3.29,7,1.1-1.16,8.79,7,12.09,7,13.18,9.34,4.4,3.5,6.6,4.66-6.6-3.5,8.78,1.17,17.58,3.5,19.78,5.83,8.78,5.84,11,7,12.08,3.5,12.08,3.5h9.89c4.39,0,6.59-1.16,14.28-1.16s12.08,0,15.38,1.16,1.1,1.17,9.89,0a36.21,36.21,0,0,1,15.37,1.17l5.5,4.67,9.88-1.17s-2.19-4.67,7.69,0,22,5.83,24.17,4.67,0-8.17,8.79-3.5,17.57,3.5,19.77,4.66-4.39,2.34,5.49-2.33,15.38-10.5,20.87-10.5,19.78-1.17,22-1.17,11-1.16,13.18-3.5,3.3-3.5,8.79-5.83,14.28-5.83,16.48-9.33,6.59-4.67,7.69-5.84,13.18-2.33,15.38-4.66,5.49-5.84,6.59-3.5,24.17,4.66,24.17,4.66-7.69-2.33,2.19,1.17,16.48,4.67,19.77,5.83,8.79,7,8.79,7-1.1-4.66,3.3,0,5.49,3.5,14.28,5.84,17.57,1.16,17.57,4.66,8.79,3.5,9.89,5.84,15.38,2.33,16.48,4.66,3.29,0,8.79,5.84,17.57,10.5,17.57,10.5-1.1,1.16,3.3,0,6.59-2.34,13.18-1.17,14.28,2.33,18.67,1.17,14.28-3.5,17.58-3.5,3.29,1.16,9.88-1.17,4.4-1.17,15.38-5.83,24.17-7,23.07-8.17-12.08,5.83,1.1-3.5,27.46-12.83,27.46-14,2.2-4.67,2.2-4.67l2.2-7s9.88-2.33,15.37-1.16,9.89,2.33,13.19,2.33,19.77,1.17,22,1.17,13.18,0,15.37-1.17-6.59-3.5,13.19,0,14.28,0,14.28,0,13.18-4.67,13.18-2.33,7.69,0,7.69,0,6.59-4.67,9.88-4.67,20.88-2.33,20.88-2.33l17.57-5.84s7.69-4.66,13.18-2.33,25.27-2.33,25.27-2.33,3.29-4.67,5.49-3.5,13.18-1.17,16.48,0,12.08-2.34,14.28-1.17,14.28-5.83,18.67-4.67,25.27,2.21,25.82,1.1,6-4.6,6-4.6,16.48-4.66,17.57-4.66,23.07-5.84,25.27-7,13.18-3.5,17.57-5.84,13.19-4.66,18.68-5.83,14.28,0,25.26-5.83,12.09-7,16.48-8.17,27.46-4.67,29.66-5.83,9.89-5.84,11-8.17,4.76-4.67,7.88-6.42,9.7-2.91,11.9-2.91,14.28-2.34,16.47-2.34,11,0,13.19,2.34,6.22-2.34,14.09,2.91,16.66,1.75,18.86,6.42,7.69,8.17,11,9.33,11-2.33,14.28,0,15.37,7,15.37,7,11-2.33,12.09,1.17,9.88,2.33,13.18,4.67,7.69-1.17,9.89,2.33,11,2.33,17.57,5.83,11,1.17,24.17,3.5,15.38,1.17,18.67,2.34l3.3,1.16,11-5.83c4.4-2.33,7.69-5.83,8.79-4.67s29.38-2,29.38-2-1.92-.32,8-3.82,9.89-2.33,14.28-4.67S5630.71,298.25,5630.71,298.25Z"/><path class="a" d="M2157.33,232.58s-8.64-2.33-10.57-3.5-4.8-7-7.68-9.33-10.57-7-10.57-7-4.8-2.33-5.76-4.67a12.54,12.54,0,0,0-6.25-6.41c-2.88-1.17-5.76-2.34-8.64-1.17s-13-1-13.72-.48-1.33-3-3.41-.07-5,1.72-5.93,4.05-2.35,5.83-4.53,7.58-5.71-.58-8.76,0-1.33.59-7.47,0-8.06.59-10.46,0-5.28-1.75-7.2-1.75-5.77-1.16-5.77,0-2.88,0-3.84,0h-6.72c-1,0-5.77-1.16-6.73,0s-1.92,0-3.84,0H2007a1.92,1.92,0,0,1-2.88-1.16c-1-2.34-1-2.34-1.92-3.5a13.87,13.87,0,0,0-2.88-2.34l-1-2.33s-3.85-2.33-4.81-3.5-3.84-2.33-3.84-2.33,0-1.17-1.92-2.34-1.92,0-2.88-1.16-1-2.34-2.89-3.5a40.77,40.77,0,0,0-4.8-2.34l-3.84-1.16s1-1.17,0-1.75-6.73-6.42-6.73-6.42l-1.92-1.17s-3.84,0-4.8-1.16l-2.88-3.5a18.69,18.69,0,0,0-3.84-1.17c-1,0-2.89,0-2.89-1.17s-3.84-5.83-2.88-5.83-.31-.26-.15-1.88a10.62,10.62,0,0,0-.81-4l1-7-1-2.27s-1.92-3.57-1.92-5.9-1.92-5.83-1.92-5.83-.32,1.16-1.12,0-4.64-3.5-5.61-3.5-4.8-3.5-4.8-3.5l-1-2.34c-1-2.33-1-4.66-1.92-4.66s-1.71,1.16-2.3,0-.58-2.34-2.5-3.5-4.81-3.5-5.77-3.5-4.8-2.34-4.8-2.34a3.84,3.84,0,0,0-2.88-1.16c-1.92,0,.21,1.16-5.18,0a67.8,67.8,0,0,0-12.11-1.17s-2.89,0-3.85-1.17-1,0-2.4,0-8.11-.51-8.11-.51,4.32.64-3.63,0-8,.51-8.91-1.82a10.5,10.5,0,0,1-1-3.5s0-3.5-1-3.5-1,0-2.88-1.17-2.89,1.17-2.89-1.16,0-3.5-1.92-3.5-2.88,1.16-3.84-1.17,1-2.33-1.92-2.33h-4.75l2.83-3.5s1.92-1.17,0-2.34-1.82-.9-2.83-1.62-2-4.21-3.9-4.21a8.6,8.6,0,0,1-3.84-1.17s0-2.33-1.92-2.33h-4.54c-1.23,0-2.19-2.33-3.15-1.17s-4.8,0-5.76,1.17-1.92,1.17-3.84,1.17h-4.81a8.62,8.62,0,0,0-2.88,1.16,18.81,18.81,0,0,0-3.84-1.16c-1,0-3.84,0-4.8-1.17l-2.89-3.5a4.4,4.4,0,0,0-1,2.33c0,1.17,1,0,0,1.17a3.15,3.15,0,0,1-2.88,1.17h-1.92s-1-3.5-1.92-2.34a13.87,13.87,0,0,1-2.88,2.34,8.58,8.58,0,0,0-2.88-1.17c-1,0-3.85-2.33-3.85-1.17s-1.92,1.17-1.92,2.34-2.88,0-2.88,1.16,1,2.34,1,4.67,0,1.17-1,2.92-1-.59-1,1.75-1,0-1,2.33-1,2.33-1,3.5,1.92-1.17,0,1.17-3.84,3.5-3.84,4.66-2.89,2.34-3.85,3.5,0,2.34-1.92,3.5-3.84,1.17-5.76,2.34-1.92,1.16-1.92,2.33-1,2.33-1,3.5-5.77,1.17-5.77,2.33,0,1.17-1.92,2.34-6.72-1.17-7.68,1.16c-.71,1.71-4,2.79-5.68,3.25-.63.17-1,.25-1,.25s-2.88,0-3.84,2.34-1,1.16-1,2.33-1.92,2.33-2.88,3.5-4.81,0-4.81,3.5a8.28,8.28,0,0,1-2.88,5.83l-1,2.34s-3.84-1.17-3.84,0,1,1.42,0,3-1.92,1.62-2.88,2.79-2.89,1.17-3.85,3.5-1.92,2.33-4.8,3.5-4.8,1.17-5.76,2.33-3.85,0-3.85,2.34-1,3.37,0,4.6,1.93,2.4,1,1.23-3.84-2.33-3.84-2.33,3.84-2.34,0-1.17-2.88,2.33-4.8,2.33-4.8-1.16-4.8,1.17,1,2.33-1.93,3.5-2.88,4.67-2.88,4.67a14.63,14.63,0,0,0-1.92,3.5c-1,2.33-1.92,5.83-1.92,5.83s0,3.5-1,4.67-1,2.33-1.92,3.5-1,3.5-1,4.66-1.92,0-2.88,2.34-1.93,3.5-1,4.66,1.13,1.95-.39,3.31-3.45,1.36-3.45,3.69,3.84-2.33,0,3.5-5.76,4.67-5.76,7,0,0-1,0-3.84,0-3.84,1.17-1.93,1.17-1.93,2.33-1.92,0-2.88,1.17-3.84,1.17-2.88,2.33.57,1.3-.19,3.57-1.73,3.43-2.69,3.43-1.92,0-1.92,2.34-1.92,3.5-1.92,4.66,1,1.17,0,2.34-2.89,2.33-2.89,3.5-1.92,0-1.92,1.16,0,1.17-1.92,2.34,2.88-4.67-2.88,1.16-7.69,7-7.69,7-1.92,2.34-2.88,2.34a9.17,9.17,0,0,0-4.8,2.33c-1,1.17-3.84,1.17-4.8,2.33l-1.93,2.34c-1,1.16-4.8,0-4.8,1.16s-2.88,2.34-2.88,3.5S1593,274,1593,274s-.43-3.5-.7-1.17a10.68,10.68,0,0,1-2.18,4.67l-2.89,1.17s-2.24-1.17-2.08,0-2.72,2.33-3.68,3.5,0,1.16-1.92,2.33a6.48,6.48,0,0,1-2.88,1.17,2.76,2.76,0,0,0-1.92,1.16,40.32,40.32,0,0,0-2.89,5.84l-1.92,1.16s-.21-1.16-.58,0-1.34,1.17-2.3,2.34-3.84,1.16-3.84,2.33-1,1.17-1.92,2.33-2.88,2.34-3.85,3.5-2.88-1.16-3.84,2.34-1.92,3.5-2.88,4.66-3.84,1.17-3.84,1.17l-1.92,2.33c-1,1.17,0,1.17-2.89,2.34s-6.72,1.16-6.72,3.5-2.88,4.66-2.88,4.66-3.84,0-4.81,1.17-4.8,2.33-4.8,2.33-1-2.33-1,1.17-1.92,4.67-1.92,5.83,0,1.17,1,3.5,1,1.17,0,3.5-1,0-1,2.92,0,2.92-1,4.08a13.87,13.87,0,0,1-2.88,2.34s-1.28-1.17-4,0-4.64,0-6.56,1.16a58,58,0,0,1-7.68,3.5c-2.89,1.17-2.89,0-6.73,1.17s-5.76,2.33-6.72,2.33-2.89-1.16-5.77,0-4.69,1.17-5.71,0a2.9,2.9,0,0,0-2-1.16l-1.92,4.66v1.88c0,1.62,0-.71-1.93,1.62s-2.88,1.17-4.8,3.5l-3.84,4.67c-1,1.17,0,1.17-4.8,3.5s-6.73,1.17-7.69,3.5-2.88,2.33-3.84,4.67-1.92,1.16-1.92,1.16a2.75,2.75,0,0,0-1.92,1.17,4.18,4.18,0,0,1-2.89,1.17s-1.12-1.17-1,0a3.94,3.94,0,0,1-.88,2.33h-1.28a3.61,3.61,0,0,0-2.56,1.17,14,14,0,0,1-2.88,2.33s0,1.17-1,1.17-2.88-2.34-3.85,0-1.92,2.33-2.88,3.5-1.92,0-3.84,1.16-1,0-2.88,1.17-1.92,0-2.88,1.17-2.89,0-2.89,1.16,1,0-1,1.17-3.84,1.17-3.84,2.33-3.84,2.34-3.84,2.34a8.65,8.65,0,0,1-3.84,1.16c-1.92,0-2.89,1.17-3.85,1.17s-2.72-1.17-3.76,0-3,1.17-3,2.33-1,1.17-1,3.5,0,2.34-1.92,2.34-1,0-1.92-1.17a4.18,4.18,0,0,0-2.89-1.17l-1.92,1.17v2.33l-1,1.17c-1,1.17-1,0-1.92,2.33s-1.92,3.5-2.88,3.5-2.88,0-3.84-1.16,0-3.5-1.92-2.34-3.05,2.34-3.45,3.5-1.36,2.34-1.36,3.5v2.63c0,.87-1,.87-1.92.87H1349c-1,0-4.81-3.5-3.85,0s1.93,2.34,0,4.67-3.84,2.33-4.8,3.5-1.92,2.33-3.84,2.33-1,0-3.84,1.17-3.85,1.17-4.81,2.33-1.92,1.17-3.84,2.34a12,12,0,0,0-2.88,2.33l-1.92,1.17s-3.37-1.17-3.13,0-.72,3.5-1.68,3.5-3.52-1.17-3.2,0-2.56,2.33-1.6,3.5,2.49.39-.2,2.52-3.64-.19-4.6,2.14-2.88,1.17-2.88,2.34-1.93,1.16-3.85,1.16,0-1.16-2.88,0-3.84-1.16-5.76,0a8.86,8.86,0,0,1-4.81,1.17,18.69,18.69,0,0,1-3.84-1.17s1-2.33,0-1.16-.8,2.33-1.36,2.33-.56-2.33-1.52-1.17a3.15,3.15,0,0,1-2.88,1.17c-1,0-1.92-2.33-2.88-1.17s-2.89,0-2.89,1.17-1.28,0-2.56,0a17.21,17.21,0,0,0-4.16,1.17s-1-2.34-1.92-1.17-5.45,0-5.13,1.17-.64,1.16-1.6,0-1.92-4.67-3.84-2.34-2.88,1.17-3.84,2.34-1.92,0-3.84,0-3.85,0-4.81,1.16,1,3.5-1.92,3.5-2.88,0-3.84,1.17,0,1.17-1.92,2.33-2.88,2.34-4.81,3.5a10.83,10.83,0,0,1-4.8,1.17s-1.92-1.17-3.36,0-2.4,1.17-2.4,2.33-1.92,1.17-1.92,1.17-3.85,0-4.81,1.17-6.72,1.16-6.72,2.33-1,1.17-1.92,2.33-1.92,0-1.92,1.17-1,2.33-1.92,3.5-5.77,2.33-5.77,3.5-1.92,0-2.88,2.33-2.88,1.17-2.88,2.34-4.81,1.16-4.81,2.33-2.88,2.33-3.84,2.33,0,0-1,1.17-2.88,0-3.84,1.17,1-1.17-2.88,2.33-5.77,3.5-5.77,3.5l-2.88,1.17s-2.88,0-2.88,1.16-1.92,2.34-2.88,2.34h-3.93c.08,0-1.84,1.16-1.84,1.16l-2.88,1.17-1.92,1.17s-3.84,1.16-3.84,2.33-1.92,0-1,2.33.42,1.56-.27,3.7-2.61,3.3-2.61,4.47V547a8.66,8.66,0,0,1-2.89,1.17h-1.92c-1,0-1.92-1.17-2.88,0s-3.84,0-3.84,1.16-1,1.17-1.92,1.17-1.92,1.17-2.89,1.17-1.92-1.17-1.92,0-1.92,1.16-3.84,2.33-1.92,2.33-2.88,2.33a18.69,18.69,0,0,0-3.84,1.17s-.32-1.17-2.57,0a7.57,7.57,0,0,1-4.16,1.17h-3c-1.76,0-1.76,0-2.72,1.16a6.87,6.87,0,0,1-3.84,2.34c-1,0-1.93,1.16-2.89,1.16s0,0-1,2.34-1.92,2.33-1.92,2.33a4.16,4.16,0,0,0-2.88,1.17c-1,1.16-2.88,0-3.84,1.16s-3.85,1.17-3.85,1.17a3.83,3.83,0,0,1-2.88,1.17c-1.92,0-4.8,2.33-5.76,1.16s0-2.33-1.92-1.16a12.32,12.32,0,0,1-3.68,1.49s-.81,1.76-1.45,1.3-.64.46-2.08,0-2.72-1.6-3.52.13-3.68.58-3.68.58V575a2.32,2.32,0,0,1-1.92,2.33c-1,0,0-2.33-1.92-1.16s-3.85-1.17-4.81,0a6.9,6.9,0,0,1-3.84,2.33h-1.92c-1,0-1.92,1.17-2.88,1.17s-1-2.34-1.92-1.17a3.17,3.17,0,0,1-2.89,1.17c-1,0-1.92,1.16-2.88,1.16s-1.92-2.33-2.88-1.16l-2.88,3.5a8.62,8.62,0,0,1-2.88,1.16h-5.61c-3,0-4,1.17-5,1.17s-3.84-1.17-3.84,0-1,2.33-2.89,2.33h-4.08a29.3,29.3,0,0,1-5.52-1.16l-2.88,1.16c-5.77,2.34-7.69,2.34-7.69,2.34s-.48-1.17-1.68,0a16.75,16.75,0,0,1-4.08,2.33,8.58,8.58,0,0,1-2.88,1.17,6.27,6.27,0,0,0-3.85,1.16,40.77,40.77,0,0,1-4.8,2.34h-3c.08,0-4.73,2.33-4.73,2.33l-2.88,2.33L943.57,603s-2.88,0-2.88,1.17a2.32,2.32,0,0,1-1.92,2.33c-1,0-1.93-1.17-2.89,0s-3.84,2.33-3.84,1.17-1-1.17-1.92-1.17,0-1.17-1.92-2.33-3.84-2.34-3.84-1.17,2.88,2.33,1.92,3.5,0,1.17-1.92,2.33-4.81,0-4.81,1.17-3.84,2.33-3.84,2.33-1,2.34-1.92,0,0-1.16-1.92-1.16-1.92-1.17-2.88,0-1-1.17-1.93,1.16-2.88,3.5-3.84,3.5.16,1.17-2.8,0a13.65,13.65,0,0,0-3.92-1.16l-1,1.16c-1,1.17-3.85,2.34-3.85,2.34h-2.88v2.33s-2.88,0-2.88,1.17,0,0-1,2.33-2.88,1.17-3.84,3.5-3.84,3.5-3.84,4.67a13.5,13.5,0,0,1-1,3.5L873.44,638h-2.88s-6.72,1.17-6.72,2.33-1.93,1.17-2.89,2.34L859,645c-1,1.17-4.8,2.33-4.8,2.33,0,1.17-1.92,1.17-1.92,2.34s-2.88,2.33-2.88,2.33l-2.89,2.33a2.75,2.75,0,0,0-1.92,1.17c-1,1.17-1.92,2.33-3.84,2.33S836.94,659,836,659s-4.81,2.33-4.81,2.33a2.75,2.75,0,0,0-1.92,1.17c-1,1.17,0,1.17-1,2.33s0-1.16-1,3.5-1,5.84-1.92,5.84,1-4.67-2.88,0-2.88,2.33-3.84,4.66-1,0-1.92,2.34,1.92,1.16-1.93,3.5-5.76,2.33-6.72,3.5-1.92-1.17-1.92,0-6.73,5.83-6.73,5.83h-2.88a9.25,9.25,0,0,0-4.8,2.33c-1,1.17-5.77,3.5-5.77,3.5L783.14,701l-1.92,1.17v1.16l-15.37,8.17s-3.84-7-3.36,0,7.2,3.5.48,7-24,8.17-24,8.17a21.76,21.76,0,0,0-2.88,4.66c-1,2.34-4.8,3.5-5.76,8.17s-9.61,7-14.41,10.5-17.29,7-17.29,12.83-8.65,10.5-8.65,14-22.09,5.84-21.13,10.5-2,2.34,0,13.42,5.32,15.75-.69,21-28.1,7.58-31,18.08-2.89,12.84-4.81,18.67,0,22.17,1,24.5,1.93-1.17-5.76,11.67-8.65,11.66-13.45,19.83-9.61,11.67-11.53,19.83S588.13,946,591,953s3,4.67-.43,8.75-15.9,16.92-14.94,23.92-1.07,7-.06,13.41-2.83,9.92-3.79,13.42,1.92-5.83-1,3.5-3.84,7-3.84,14v16.33H3793.29L3809,287l-4-14-6-4s-5.05-9.75-5-8-9.41-8.75-10-7-6.41-11.92-7-9-3.4,3.17-4.36,4.33-6.73-18.33-8.65-16-2.88-20-5.76-16.5-7.69,1.17-9.61,3.5-1,0-3.84,4.67-10.09,4.86-10.09,4.86c-2.4,2.14-6.24,2.14-5.28,4.47s-1,4.67-1.92,5.84-4.8-2.34-4.8,2.33-3.85,3.5-4.81,5.83-2.88,1.17-3.84,3.5-4.8,1.17-5.76,4.67-1,2.33-3.85,5.83-7.68,5.84-7.68,8.17,0,1.17-1,5.83,1,4.67-2.88,5.84-6.73,0-8.65-3.5-5.76-5.84-6.72-7-7.69-3.5-8.65-3.5h-9.61s1-1.17-2.88-1.17-4.8-3.5-7.68,0-8.65,5.83-11.53,4.67a70.33,70.33,0,0,0-7.69-2.34s-7.68-1.16-7.68,1.17-1.92,3.5-3.84,5.83-4.81,2.34-5.77,3.5-6.72,0-7.68,4.67,1.92,5.83-2.88,7-9.61,1.17-9.61,3.5-2.88,2.33-3.84,5.83-1.93,3.5-3.85,5.84-7.68,3.5-7.68,2.33,1.92-1.17,0-3.5-3.84-4.67-4.8-4.67,1.92-3.5-3.85-1.16-5.76-1.17-9.6,2.33-8.65,2.33-11.53,4.67-6.73,1.16-7.69,2.33-4.8,0-4.8,1.17-6.72,1.16-6.72,1.16l-2.89-5.83-7.68-1.17-8.65-1.16s1-2.34-2.88-2.34-4.8-1.16-7.68,0-8.65,0-9.61,0-6.72-1.16-6.72-1.16h-5.77c1,0,1.92,0,0-2.34s-7.68-8.16-7.68-8.16a13.61,13.61,0,0,1-1-3.5c0-1.17,1-1.17-1-2.34s-7.69-3.5-7.69-3.5a4.38,4.38,0,0,0-1.92-3.5c-1.92-1.16-8.65-5.83-8.65-5.83s1-2.33-1-3.5-7.68-5.83-8.64-3.5-8.65,1.17-9.61-1.17-3.84-4.66-4.8-4.66-8.65-2.34-9.61-2.34-2.88-2.33-4.8-3.5-9.61-2.33-10.57,0-2.88,3.5-6.72,5.84-10.57,3.5-12.49,5.83-7.69,2.33-8.65,3.5-4.8,0-5.76,2.33-1.92,1.17-3.84,5.84-10.57,3.5-11.53,8.16,0,3.5-2.88,7-1-1.16-7.69,7-10.57,7-11.53,9.34-3.84,3.5-5.76,4.66,5.76-3.5-7.68,1.17-15.37,3.5-17.3,5.83-7.68,5.84-9.6,7-10.57,3.5-10.57,3.5h-8.65c-3.84,0-5.76-1.16-12.48-1.16s-10.57,0-13.45,1.16-1,1.17-8.65,0a28,28,0,0,0-13.45,1.17l-4.8,4.67-8.65-1.17s1.93-4.67-6.72,0-19.21,5.83-21.13,4.67,0-8.17-7.69-3.5-15.37,3.5-17.29,4.66,3.84,2.34-4.8-2.33-13.45-10.5-18.26-10.5-17.29-1.17-19.21-1.17-9.6-1.16-11.53-3.5-2.88-3.5-7.68-5.83-12.49-5.83-14.41-9.33-5.76-4.67-6.73-5.84-11.52-2.33-13.44-4.66-4.81-5.84-5.77-3.5-21.13,4.66-21.13,4.66,6.72-2.33-1.92,1.17-14.41,4.67-17.29,5.83-7.69,7-7.69,7,1-4.66-2.88,0-4.8,3.5-12.49,5.84-15.37,1.16-15.37,4.66-7.69,3.5-8.65,5.84-13.44,2.33-14.41,4.66-2.88,0-7.68,5.84-15.37,10.5-15.37,10.5,1,1.16-2.88,0-5.77-2.34-11.53-1.17-12.49,2.33-16.33,1.17-12.49-3.5-15.37-3.5-2.88,1.16-8.65-1.17a112.06,112.06,0,0,1-13.45-5.83c-9.6-4.67-21.13-7-20.17-8.17s10.57,5.83-1-3.5-24-12.83-24-14-1.92-4.67-1.92-4.67l-1.92-7s-8.64-2.33-13.45-1.16S2788,302,2785.11,302s-17.3,1.17-19.22,1.17-11.52,0-13.45-1.17,5.77-3.5-11.52,0-12.49,0-12.49,0-11.53-4.67-11.53-2.33-6.72,0-6.72,0-5.77-4.67-8.65-4.67-18.25-2.33-18.25-2.33l-15.37-5.84s-6.73-4.66-11.53-2.33-22.09-2.33-22.09-2.33-2.89-4.67-4.81-3.5-11.52-1.17-14.41,0-10.56-2.34-12.49-1.17-12.48-5.83-16.33-4.67-22.09,2.21-22.57,1.11-5.28-4.61-5.28-4.61-14.41-4.66-15.37-4.66-20.18-5.84-22.1-7-11.53-3.5-15.37-5.84-11.53-4.66-16.33-5.83-12.49,0-22.09-5.83-10.57-7-14.41-8.17-24-4.67-25.94-5.83-8.65-5.84-9.61-8.17-4.16-4.67-6.88-6.42-8.49-2.91-10.41-2.91-12.49-2.34-14.41-2.34-9.6,0-11.53,2.34-5.44-2.34-12.32,2.91-14.57,1.75-16.5,6.42-6.72,8.17-9.6,9.33-9.61-2.33-12.49,0-13.45,7-13.45,7S2300,232,2299,235.5s-8.64,2.33-11.52,4.67-6.73-1.17-8.65,2.33-9.61,2.33-15.37,5.83-9.61,1.17-21.13,3.5S2228.9,253,2226,254.17l-2.89,1.16-9.6-5.83c-3.84-2.33-6.73-5.83-7.69-4.67s-25.69-2-25.69-2,1.68-.32-7-3.82-8.64-2.33-12.49-4.67S2157.33,232.58,2157.33,232.58Z"/><path class="a" d="M10261,300.47s9-4.79,10.78-6.48,3.51-8.17,6.1-11.27,9.88-9.87,9.88-9.87,4.71-3.67,5.18-6.2a13.56,13.56,0,0,1,5.25-8c2.89-2,5.77-3.94,9.26-3.66s14.14-4.76,15-4.49.72-3.26,3.76-1.07,5.93.2,7.59,2.18,4.09,4.95,7,6,6.16-2.24,9.67-2.57,1.62.17,8.26-2.2,9-1.8,11.56-3.06,5.39-3.25,7.51-3.81,6.07-2.82,6.37-1.69,3.19-.85,4.25-1.13l7.43-2c1.06-.28,6.07-2.82,7.43-2s2.12-.57,4.25-1.13l8.49-2.26,5.31-1.41a2.33,2.33,0,0,0,2.89-2c.46-2.54.46-2.54,1.22-4a15.59,15.59,0,0,1,2.59-3.1l.46-2.53s3.65-3.39,4.41-4.8,3.65-3.38,3.65-3.38-.3-1.13,1.52-2.82,2.13-.56,2.89-2,.46-2.54,2.29-4.23A49.25,49.25,0,0,1,10448,202l3.94-2.26s-1.36-.85-.45-1.69,5.79-8.18,5.79-8.18l1.82-1.69s4.25-1.12,5-2.53l2.29-4.23a23.68,23.68,0,0,1,4-2.26c1.06-.28,3.18-.84,2.88-2s2.75-6.77,1.69-6.48.28-.35-.31-1.87a9.35,9.35,0,0,1-.12-4.05l-2.86-6.49.48-2.47s1.21-4,.61-6.27.62-6.2.62-6.2.66,1,1.24-.33,4.24-4.74,5.3-5,4.41-4.8,4.41-4.8l.46-2.53c.46-2.54-.13-4.8.93-5.08s2.18.63,2.53-.67,0-2.43,1.88-4.12,4.41-4.79,5.47-5.07,4.71-3.67,4.71-3.67a4.64,4.64,0,0,1,2.89-2c2.12-.57.06,1.19,5.72-1.52a88.51,88.51,0,0,1,13.09-4.68s3.18-.85,3.94-2.26,1.07-.28,2.66-.7,8.83-2.88,8.83-2.88-4.61,1.89,4-1.07,8.92-1.83,9.39-4.37a9.43,9.43,0,0,0,.16-3.66s-.9-3.39.16-3.67,1.07-.28,2.89-2,3.48.28,2.89-2-.9-3.39,1.22-4,3.49.28,3.95-2.26-1.66-2,1.52-2.81l5.25-1.4-4-2.55s-2.42-.57-.6-2.26,1.77-1.41,2.71-2.39,1.1-4.65,3.22-5.22a10.77,10.77,0,0,0,4-2.25,2.25,2.25,0,0,1,1.53-2.82l5-1.33c1.36-.36,1.82-2.9,3.18-2s5.31-1.41,6.67-.57,2.42.57,4.55,0l5.3-1.41a10.72,10.72,0,0,1,3.49.28,23.79,23.79,0,0,1,4-2.25c1.06-.28,4.24-1.13,5-2.54l2.28-4.23a4.17,4.17,0,0,1,1.66,2c.3,1.13-1.06.28.3,1.13a3.92,3.92,0,0,0,3.49.28l2.12-.57s.16-3.66,1.53-2.82a15.53,15.53,0,0,0,3.78,1.41,10.58,10.58,0,0,1,2.88-2c1.07-.28,3.65-3.38,4-2.25s2.43.56,2.72,1.69,3.19-.85,3.49.28-.46,2.54.13,4.79.3,1.13,1.81,2.54.92-.85,1.52,1.41,1.06-.28,1.66,2,1.66,2,2,3.1-2.43-.56.3,1.13,5.14,2.26,5.44,3.38,3.78,1.41,5.14,2.26.6,2.25,3,2.82,4.54,0,7,.56,2.43.57,2.73,1.69,1.66,2,2,3.1,6.67-.56,7,.57.3,1.13,2.72,1.69,7.13-3.1,8.79-1.13c1.21,1.44,5.1,1.53,7.1,1.47.75,0,1.23-.06,1.23-.06s3.19-.84,4.85,1.13,1.36.84,1.66,2,2.72,1.69,4.08,2.54,5.31-1.41,6.21,2,4.68,4.8,4.68,4.8l1.66,2s4-2.26,4.25-1.13-.7,1.66.78,3,2.54,1,3.9,1.84,3.48.29,5.14,2.26,2.72,1.69,6.21,2,5.61-.28,7,.57,4.25-1.13,4.84,1.12,1.93,3,1.18,4.45-1.5,2.88-.74,1.47,3.65-3.38,3.65-3.38-4.85-1.13-.3-1.13,3.78,1.41,5.9.85,5-2.54,5.61-.28-.46,2.53,3,2.82a5.12,5.12,0,0,1,4.39,3.66,14.63,14.63,0,0,1,3,2.82,56.78,56.78,0,0,1,3.62,5.07s.9,3.39,2.26,4.23,1.66,2,3,2.82,2,3.1,2.26,4.23,2.12-.56,3.78,1.41,3,2.82,2.26,4.23-.74,2.21,1.29,3.08,4.16.3,4.75,2.56-4.84-1.13.9,3.38,7.57,2.82,8.17,5.07,0,0,1.06-.28,4.25-1.13,4.55,0,2.42.57,2.72,1.69,2.12-.56,3.48.29,4.55,0,3.79,1.41-.3,1.42,1.13,3.38,2.79,2.82,3.85,2.54,2.12-.57,2.72,1.69,3,2.82,3.32,3.94-.76,1.41.6,2.26,3.78,1.41,4.08,2.54,2.13-.57,2.43.56.3,1.13,2.72,1.69-4.38-3.66,3.48.28,10.29,4.51,10.29,4.51,2.72,1.7,3.79,1.41a11.18,11.18,0,0,1,5.9.85c1.36.85,4.55,0,5.91.85l2.72,1.69c1.36.84,5.31-1.41,5.61-.29s3.78,1.41,4.08,2.54,3.49.28,3.49.28-.43-3.5.47-1.33,3.61,3.87,3.61,3.87l3.49.28s2.17-1.78,2.3-.61,3.6,1.46,5,2.3.3,1.13,2.73,1.7a8.17,8.17,0,0,0,3.48.28,3.32,3.32,0,0,1,2.42.56c1.37.85,4.69,4.79,4.69,4.79l2.42.57s-.06-1.19.65-.17,1.77.73,3.13,1.58,4.55,0,4.85,1.13,1.36.84,2.72,1.69,3.78,1.41,5.15,2.25,2.88-2,4.84,1.13,3,2.82,4.38,3.66,4.55,0,4.55,0l2.72,1.7c1.36.84.3,1.12,3.79,1.41s7.73-.85,8.33,1.41,4.38,3.66,4.38,3.66,4.24-1.13,5.61-.28,5.9.84,5.9.84.47-2.53,1.36.85,3.33,4,3.62,5.07.3,1.13-.16,3.67-.76,1.41.9,3.38,1.06-.28,1.81,2.54.75,2.82,2.11,3.66a15.53,15.53,0,0,0,3.78,1.41s1.12-1.5,4.43-1.17,5.13-1.36,7.55-.8a73.28,73.28,0,0,0,9.39,1.13c3.49.28,3.19-.85,7.73-.85s7,.57,8,.28,2.89-2,6.37-1.69,5.49-.25,6.32-1.67a3.49,3.49,0,0,1,1.88-1.71l3.32,4,.48,1.81c.42,1.57-.18-.68,2.54,1s3.49.28,6.21,2l5.44,3.38c1.36.85.3,1.13,6.21,2s7.73-.85,9.39,1.12,3.78,1.41,5.44,3.39,2.43.56,2.43.56a3.32,3.32,0,0,1,2.42.56,5.18,5.18,0,0,0,3.48.29s.94-1.46,1.15-.31a3.76,3.76,0,0,0,1.58,2l1.41-.38a4.45,4.45,0,0,1,3.13.38,16,16,0,0,0,3.79,1.41,1.12,1.12,0,0,0,1.36.84c1.06-.28,2.58-3.1,4.24-1.12s2.73,1.69,4.09,2.53,2.12-.56,4.54,0,1.07-.28,3.49.29,2.12-.57,3.48.28,3.19-.85,3.49.28-1.06.28,1.36.85,4.54,0,4.84,1.12,4.85,1.13,4.85,1.13a10.94,10.94,0,0,0,4.55,0c2.12-.56,3.48.28,4.54,0s2.71-1.93,4.16-1.1,3.57.26,3.87,1.38,1.36.85,2,3.1.6,2.26,2.72,1.7,1.07-.29,1.83-1.7a5.17,5.17,0,0,1,2.88-2l2.43.56.6,2.26,1.36.85c1.36.84,1.06-.29,2.72,1.69s3,2.82,4.08,2.53,3.19-.84,4-2.25-.9-3.38,1.52-2.82,4,1.36,4.71,2.37,2.1,1.86,2.4,3l.67,2.53c.23.85,1.29.57,2.35.29l3.72-1,3.71-1c1.06-.28,4.41-4.79,4.25-1.13s-1.53,2.82,1.2,4.52,4.84,1.12,6.2,2,2.73,1.69,4.85,1.13,1.06-.29,4.55,0,4.54,0,5.9.84,2.43.57,4.85,1.13a13.45,13.45,0,0,1,3.78,1.41l2.42.56s3.42-2.11,3.45-.91,1.7,3.17,2.76,2.89,3.59-2.16,3.54-.94,3.43,1.5,2.67,2.91-2.65,1.11.86,2.39,4-1.26,5.64.71,3.49.28,3.79,1.41,2.42.56,4.54,0-.3-1.13,3.19-.84,3.95-2.26,6.37-1.7a11.3,11.3,0,0,0,5.61-.28,23.6,23.6,0,0,0,3.94-2.25s-1.66-2-.3-1.13,1.49,2,2.11,1.86,0-2.42,1.38-1.58a3.84,3.84,0,0,0,3.48.28c1.07-.28,1.53-2.82,2.89-2s3.18-.85,3.48.28,1.42-.37,2.84-.75a21.62,21.62,0,0,1,4.9-.09s.46-2.54,1.82-1.69,6-1.6,6-.38,1,.94,1.77-.47.93-5.07,3.65-3.38,3.48.28,4.84,1.13,2.13-.57,4.25-1.13,4.25-1.13,5.61-.28-.16,3.66,3,2.81,3.19-.84,4.55,0,.3,1.13,2.72,1.7,3.78,1.41,6.21,2a14,14,0,0,0,5.6-.28s1.83-1.69,3.72-1,2.95.42,3.25,1.55,2.42.57,2.42.57,4.25-1.13,5.61-.29,7.73-.84,8,.29,1.36.84,2.73,1.69,2.12-.57,2.42.56,1.66,2,3,2.82,7,.56,7.27,1.69,2.12-.56,3.78,1.41,3.49.28,3.79,1.41,5.6-.28,5.9.85,3.79,1.41,4.85,1.12,0,0,1.36.85,3.18-.85,4.55,0-1.37-.85,3.78,1.41,7.27,1.69,7.27,1.69l3.48.28s3.19-.84,3.49.29,2.72,1.69,3.78,1.41l4.34-1.16c-.09,0,2.33.59,2.33.59l3.48.28,2.43.57s4.54,0,4.84,1.13,2.13-.57,1.66,2-.06,1.63,1.25,3.49,3.73,2.43,4,3.56l.9,3.38a10.75,10.75,0,0,0,3.49.28l2.12-.56c1.06-.28,1.82-1.69,3.19-.85s4.24-1.13,4.54,0,1.36.85,2.42.57,2.43.56,3.49.28,1.82-1.69,2.12-.57,2.43.57,4.85,1.13,2.72,1.69,3.78,1.41a24,24,0,0,1,4.55,0s0-1.22,2.83-.75a9.71,9.71,0,0,0,4.9-.09l3.36-.9c1.95-.51,1.95-.51,3.31.33a8.12,8.12,0,0,0,4.84,1.13c1.07-.28,2.43.56,3.49.28s0,0,1.66,2,2.72,1.7,2.72,1.7a5.18,5.18,0,0,1,3.49.28c1.36.84,3.18-.85,4.54,0s4.55,0,4.55,0a4.68,4.68,0,0,0,3.48.28c2.13-.56,5.91.85,6.67-.56s-.6-2.26,1.83-1.69a15.28,15.28,0,0,0,4.45.36s1.34,1.47,1.93.83.82.26,2.3-.61,2.59-2.35,3.92-.9,4.22-.53,4.22-.53l-.3-1.13a2.43,2.43,0,0,0,2.72,1.69c1.06-.28-.6-2.25,1.83-1.69s3.94-2.25,5.31-1.41a8.12,8.12,0,0,0,4.84,1.13l2.12-.56c1.07-.28,2.43.56,3.49.28s.46-2.54,1.82-1.69a3.92,3.92,0,0,0,3.49.28c1.06-.28,2.42.56,3.48.28s1.53-2.82,2.89-2l4.08,2.54a10.68,10.68,0,0,0,3.48.28l4.25-1.13,1.95-.52c3.36-.89,4.72,0,5.78-.33s4-2.25,4.25-1.12,1.66,2,3.78,1.41l4.52-1.2a37.43,37.43,0,0,0,5.8-2.75l3.49.28c7,.57,9.09,0,9.09,0s.23-1.27,1.86-.49a20.12,20.12,0,0,0,5.11,1.06,10.68,10.68,0,0,0,3.48.28,8,8,0,0,1,4.55,0,50.17,50.17,0,0,0,5.9.84l3.28-.86c-.09,0,5.82.87,5.82.87l3.78,1.4,6.67-.56s3.19-.84,3.49.28a2.42,2.42,0,0,0,2.72,1.69c1.06-.28,1.82-1.69,3.18-.84s4.85,1.13,4.55,0,.76-1.41,1.82-1.69-.3-1.13,1.53-2.82,3.65-3.38,3.94-2.26-2.58,3.1-1.22,3.95.3,1.13,2.72,1.69,5.31-1.41,5.61-.28,4.84,1.13,4.84,1.13,1.67,2,2.13-.57-.3-1.12,1.82-1.69,1.83-1.69,3.19-.84.76-1.41,2.42.56,4.08,2.54,5.15,2.26.12,1.17,3.09-.83a17.42,17.42,0,0,1,4-2.27l1.36.84c1.36.85,4.84,1.13,4.84,1.13l3.19-.85.6,2.26s3.18-.85,3.48.28,0,0,1.66,2,3.49.29,5.15,2.26,5.14,2.25,5.44,3.38a12.21,12.21,0,0,0,2,3.1l3.79,1.41,3.18-.84s7.73-.85,8,.28,2.42.56,3.79,1.41l2.72,1.69c1.36.85,5.9.85,5.9.85.3,1.12,2.43.56,2.73,1.69s3.78,1.41,3.78,1.41l3.78,1.41a3.29,3.29,0,0,1,2.43.56c1.36.85,2.72,1.69,4.84,1.13s4.55,0,5.61-.28,5.91.84,5.91.84a3.3,3.3,0,0,1,2.42.57c1.36.84.3,1.12,1.66,2s-.3-1.13,2,3.1,2.56,5.36,3.62,5.07-2.26-4.22,3.19-.84,3.78,1.41,5.44,3.38,1.06-.28,2.72,1.69-1.82,1.69,3,2.82,7,.57,8.33,1.41,1.83-1.69,2.13-.56,8.93,3.66,8.93,3.66l3.18-.84a11.3,11.3,0,0,1,5.91.84c1.36.85,7.27,1.69,7.27,1.69l3.48.29,2.42.56.3,1.13,19.09,3.38s2.45-7.89,3.71-1-7.06,5.5,1.27,6.91,28.64.85,28.64.85a21.69,21.69,0,0,1,4.38,3.66c1.66,2,6.21,2,8.46,6.2s12.42,3.95,18.62,5.92,20.91,1.7,22.41,7.33,12.25,7.62,13.15,11,25.91-.85,26,3.95,2.79,1.67,3.47,12.95-1.84,16.79,6.15,20.1,33-.92,38.89,8.39,6.47,11.55,10.09,16.63,5.69,21.42,5.23,24-2.42-.56,9.36,9.58,12.55,8.74,20,15.23,13.61,8.45,17.83,15.78,18.91,7,17.53,14.66-2.1,5.39,2.72,8.33,21.91,11.69,22.65,18.74,3,6.45,3.5,13,5.67,8.75,7.63,11.85-3.62-5.07,2,3.1,6,5.64,7.84,12.41l3.64,13.72.55,2.06L9070,1149,8447.58,760.21l4.6-1.22,4.24-1.13s2-2.33,2.36-.63,2.44-2.46,3.54-.94,2.85-3.77,4.25-1.12,2.92-.18,4.28.67,6.84-4.23,9.56-2.54,3.18-.84,7.27,1.69,8.79-1.12,11.51.57,1.06-.28,5.44,3.38,12.4,1.74,12.4,1.74c3.2,1.36,7.45.23,7,2.77s2.26,4.23,3.62,5.08,4.71-3.67,5.9.84,5.15,2.26,6.81,4.23,3.48.28,5.14,2.26,5.61-.29,7.57,2.81,1.66,2,5.75,4.52,10,3.38,10.59,5.63.29,1.13,2.55,5.36.14,4.79,4.69,4.79,7.43-2,8.65-5.92,4.88-7.33,5.64-8.74,7.59-5.63,8.66-5.92l10.61-2.81s-1.36-.85,2.89-2,4.41-4.79,8.49-2.25,11,3.1,13.94,1.12,7.9-4.51,7.9-4.51,8.19-3.38,8.79-1.12,3,2.82,5.74,4.51,5.91.84,7.27,1.69,7.43-2,9.69,2.25-.63,6.21,5,5.92,10.92-1.69,11.52.57,3.78,1.41,5.74,4.51,3,2.82,5.74,4.51,9.4,1.13,9.1,0-2.43-.56-.9-3.38,3-5.64,4.11-5.92-3-2.82,3.95-2.26,6.07-2.82,11.21-.56,10.16-.28,13.94,1.13,7.73-.85,9.09,0,5.31-1.41,5.61-.28,7.73-.85,7.73-.85l1.69-6.48,8.2-3.39,9.25-3.66s-1.66-2,2.59-3.1,5-2.54,8.49-2.26,9.56-2.53,10.62-2.82,7.13-3.1,7.13-3.1l6.37-1.69c-1.06.28-2.12.57-.6-2.25s6.4-10.15,6.4-10.15a12.29,12.29,0,0,0,.16-3.67c-.3-1.12-1.36-.84.47-2.53s7.59-5.64,7.59-5.64a4.19,4.19,0,0,1,1.23-4c1.82-1.69,8.06-8.17,8.06-8.17a2.65,2.65,0,0,1,.16-3.67c1.82-1.69,7-7.89,8.66-5.92s9.85-1.41,10.31-3.94,3-5.64,4.12-5.92,9-4.79,10-5.08,2.59-3.1,4.41-4.79,10-5.07,11.68-3.1,4.09,2.54,8.93,3.67,12.58.28,15.3,2,9.09,0,10.45.85,5.31-1.41,7,.56,2.43.56,5.75,4.51,12.57.28,14.83,4.51.9,3.38,5,5.92.77-1.41,10.29,4.51,13.48,3.67,15.14,5.64,5.14,2.25,7.57,2.82-7.27-1.69,8.79-1.13,17.89-1.13,20.61.57,10,3.38,12.41,3.94,12.58.28,12.58.28l9.55-2.53c4.25-1.13,6.07-2.82,13.51-4.79s11.67-3.1,15.16-2.82,1.36.84,9.55-2.54a36.25,36.25,0,0,1,15.17-2.82l6.5,3.1L9127,706s-3.32-4,7.43-2,22.73,0,24.56-1.7-2.1-7.89,7.59-5.63,17.89-1.13,20.31-.57-3.65,3.39,4.71-3.66,12.17-14.1,17.48-15.51,18.81-6.2,20.93-6.76,10.32-3.95,11.84-6.77,2.29-4.22,7-7.89,12.31-9.3,13.53-13.25,5.17-6.2,5.94-7.61,12.14-5.64,13.66-8.46,3.81-7,5.47-5.07,24.56-1.69,24.56-1.69-8-.28,2.42.56,17.13.29,20.61.57,10.29,4.51,10.29,4.51-2.26-4.23,3.18-.85,6.21,2,15.3,2,17.29-3.39,18.19,0,9.39,1.13,11,3.1,15.46-1.69,17.12.28,3.19-.84,10,3.38,19.69,5.64,19.69,5.64-.77,1.41,3.18-.84,5.77-4,12.44-4.51,14.4-1.41,18.35-3.67,12.9-7,16.09-7.89,3.48.28,9.26-3.67,3.94-2.25,13.36-9.58,21.56-13,20.2-13.81-10.18,8.74.17-3.67,23.25-19.45,22.95-20.57.92-5.08.92-5.08l.33-7.33s9-4.79,14.56-5.07,10.16-.28,13.34-1.13,19.41-3.95,21.54-4.51,12.74-3.38,14.56-5.07-7.27-1.69,12.74-3.39,13.8-3.66,13.8-3.66,11.55-7.89,12.14-5.64,7.44-2,7.44-2,5.17-6.2,8.35-7,19.58-7.61,19.58-7.61l15.49-10.15s6.23-6.48,12.14-5.63,23.82-8.74,23.82-8.74,2-5.36,4.41-4.79,12.44-4.51,15.93-4.23,11.08-5.36,13.5-4.79,12.3-9.31,16.85-9.31,25-4.35,25.23-5.56,4.66-6,4.66-6,14.73-8.74,15.79-9,20.8-11.56,22.62-13.25,11.85-6.77,15.49-10.15,11.55-7.89,16.56-10.43,13.8-3.67,22.92-12.12,9.88-9.87,13.83-12.12,25.34-11.56,27.17-13.25,8.06-8.18,8.52-10.71,3.4-5.74,6-8.23,8.63-5.3,10.76-5.87,13.2-5.92,15.32-6.48,10.62-2.82,13.34-1.13,5.42-3.85,14.37-.8,16.56-2.58,19.88,1.37,9.52,5.92,13,6.2,10-5.08,13.8-3.67,16.66,2.82,16.66,2.82,10-5.07,12-2,10.15-.28,13.94,1.13,7.13-3.1,10.15-.28,11.22-.57,18.49,1.12,10.91-1.69,24.25-2.81,15.16-2.82,18.65-2.54l3.48.28,9.12-8.46c3.65-3.38,5.94-7.61,7.3-6.76s27.88-9.48,27.88-9.48-1.94.18,6.72-5.74,9-4.79,12.6-8.18S10261,300.47,10261,300.47Z"/><path class="a" d="M12961.79,420.43s6.64-1.34,8.12-2.08,3.81-4.54,6-6,8.2-4.41,8.2-4.41,3.71-1.44,4.49-3a9,9,0,0,1,4.89-4.12c2.22-.71,4.44-1.42,6.61-.57s9.94-.34,10.46,0,1.08-1.94,2.6,0,3.75,1.26,4.43,2.84,1.67,3.94,3.3,5.16,4.36-.25,6.66.21,1,.42,5.69.18,6.13.58,8,.25,4.06-1,5.53-1,4.41-.64,4.39.13,2.19.07,2.92.1l5.13.16c.73,0,4.41-.64,5.12.16s1.46.05,2.93.09l5.85.19,3.66.11a1.56,1.56,0,0,0,2.22-.71,6,6,0,0,1,1.53-2.28,10.42,10.42,0,0,1,2.25-1.49l.78-1.53a22.62,22.62,0,0,0,3.73-2.22,10.33,10.33,0,0,1,3-1.46s0-.78,1.51-1.51,1.46.05,2.22-.71.78-1.53,2.27-2.26a33.75,33.75,0,0,1,3.71-1.44l3-.68s-.71-.8,0-1.17,5.26-4.11,5.26-4.11l1.49-.73s2.93.09,3.68-.66l2.27-2.27a16.18,16.18,0,0,1,3-.68c.73,0,2.2.07,2.22-.71s3-3.79,2.32-3.82.24-.16.16-1.25a6.23,6.23,0,0,1,.69-2.61l-.58-4.69.78-1.48s1.54-2.33,1.58-3.89a9.93,9.93,0,0,1,1.59-3.84s.22.79.85,0a10.81,10.81,0,0,1,4.35-2.2c.73,0,3.73-2.21,3.73-2.21l.78-1.53c.78-1.54.83-3.09,1.56-3.07s1.28.82,1.75.06.49-1.54,2-2.27,3.73-2.22,4.47-2.2a17.72,17.72,0,0,0,3.7-1.44,3.11,3.11,0,0,1,2.22-.7c1.47,0-.18.77,3.95.12a59,59,0,0,1,9.25-.49s2.19.07,3-.68.73,0,1.83,0,6.19-.15,6.19-.15-3.31.33,2.76.09,6,.54,6.83-1a6.47,6.47,0,0,0,.81-2.31s.07-2.33.8-2.31.73,0,2.22-.71,2.17.85,2.22-.71.07-2.33,1.54-2.28,2.17.84,2.95-.69-.68-1.58,1.51-1.51l3.62.12-2.08-2.4s-1.44-.83,0-1.56,1.4-.56,2.19-1,1.59-2.76,3-2.71a7.26,7.26,0,0,0,3-.69s0-1.55,1.52-1.5l3.45.1c.94,0,1.72-1.5,2.42-.7s3.66.12,4.37.92,1.44.82,2.9.87l3.66.11a7,7,0,0,1,2.17.85,16,16,0,0,1,2.95-.69c.74,0,2.93.09,3.69-.66l2.27-2.26a2.8,2.8,0,0,1,.68,1.58c0,.77-.73,0,0,.77a2.59,2.59,0,0,0,2.17.85l1.47.05s.8-2.31,1.51-1.51a10.49,10.49,0,0,0,2.15,1.62,7.18,7.18,0,0,1,2.22-.71c.73,0,3-1.46,2.95-.68s1.44.82,1.41,1.6,2.2.07,2.17.84-.78,1.53-.83,3.09,0,.78.67,2,.75-.37.7,1.18.73,0,.68,1.58.69,1.58.66,2.36-1.44-.83,0,.77,2.85,2.43,2.83,3.2,2.14,1.63,2.85,2.43,0,1.55,1.39,2.37,2.9.87,4.34,1.7,1.44.82,1.42,1.6.68,1.58.65,2.35,4.37.92,4.35,1.69,0,.78,1.41,1.61,5.15-.62,5.83,1c.5,1.15,3,1.95,4.25,2.29l.8.2s2.19.07,2.88,1.65.7.8.68,1.57,1.41,1.6,2.12,2.4,3.66.12,3.59,2.45a5.35,5.35,0,0,0,2.07,3.95l.68,1.58s3-.68,2.93.09-.76.93-.06,2,1.43,1.13,2.13,1.93,2.17.85,2.86,2.42,1.41,1.6,3.58,2.45,3.64.89,4.34,1.69,2.93.09,2.88,1.65.66,2.27-.09,3.06-1.52,1.56-.76.8a10.19,10.19,0,0,1,3-1.46s-2.87-1.65,0-.78,2.15,1.62,3.61,1.67,3.68-.66,3.63.89-.78,1.53,1.39,2.38a3.43,3.43,0,0,1,2.1,3.18,9.53,9.53,0,0,1,1.39,2.38,38,38,0,0,1,1.34,3.93s-.07,2.33.64,3.13.68,1.58,1.39,2.38.65,2.35.63,3.13,1.46,0,2.15,1.62,1.39,2.38.63,3.13-.9,1.27.23,2.22,2.6,1,2.55,2.54-2.88-1.65-.07,2.33,4.29,3.25,4.24,4.8,0,0,.73,0,2.93.1,2.91.87,1.43.83,1.41,1.6,1.46.05,2.17.85,2.9.87,2.15,1.62-.47.85.07,2.38,1.24,2.33,2,2.36,1.46,0,1.41,1.6,1.39,2.37,1.37,3.15-.76.76,0,1.56,2.14,1.62,2.12,2.4,1.46,0,1.44.82,0,.78,1.41,1.6-2.09-3.18,2.17.85,5.71,4.84,5.71,4.84,1.42,1.6,2.15,1.63a7.47,7.47,0,0,1,3.61,1.67c.7.8,2.9.86,3.61,1.67l1.41,1.6c.71.8,3.66.11,3.64.89s2.14,1.62,2.12,2.4,2.17.84,2.17.84.4-2.32.55-.76A7,7,0,0,0,13393,464l2.17.84s1.73-.72,1.59,0,2,1.62,2.73,2.42,0,.78,1.41,1.6a5.56,5.56,0,0,0,2.17.85,2.18,2.18,0,0,1,1.44.82,25.26,25.26,0,0,1,2.08,4l1.44.82s.18-.77.44,0,1,.81,1.7,1.61,2.9.87,2.88,1.65.71.8,1.41,1.6,2.15,1.62,2.86,2.42,2.22-.71,2.88,1.65,1.39,2.38,2.09,3.18,2.91.87,2.91.87l1.41,1.6c.71.8,0,.77,2.15,1.62s5.1.94,5.05,2.49,2.09,3.18,2.09,3.18,2.93.09,3.64.89,3.61,1.67,3.61,1.67.78-1.53.71.8,1.36,3.16,1.34,3.93,0,.78-.81,2.31-.75.76-.07,2.33.73,0,.67,2-.06,1.94.65,2.74a10.45,10.45,0,0,0,2.14,1.63s1-.75,3.05.09,3.54.11,5,.94a48.32,48.32,0,0,0,5.78,2.51c2.17.85,2.19.07,5.09.94s4.35,1.69,5.08,1.72,2.22-.71,4.39.13,3.55.89,4.35.14a2.36,2.36,0,0,1,1.53-.73l1.36,3.16,0,1.25c0,1.08,0-.48,1.43,1.12s2.17.85,3.59,2.45l2.83,3.2c.71.8,0,.78,3.58,2.45s5.1.94,5.78,2.51,2.15,1.63,2.83,3.2,1.44.83,1.44.83a2.2,2.2,0,0,1,1.44.82,3.48,3.48,0,0,0,2.17.85s.88-.75.79,0a2.49,2.49,0,0,0,.63,1.58l1,0a3,3,0,0,1,1.93.84,10.49,10.49,0,0,0,2.15,1.62s0,.78.7.8,2.25-1.49,2.93.09,1.41,1.6,2.12,2.4,1.47.05,2.9.87.74,0,2.18.85,1.46,0,2.17.84,2.19.07,2.17.85-.73,0,.7.8,2.91.87,2.88,1.65,2.88,1.64,2.88,1.64a7.13,7.13,0,0,0,2.9.87c1.47.05,2.17.85,2.91.87s2.09-.71,2.86.09,2.23.85,2.21,1.63.71.8.66,2.35-.05,1.56,1.41,1.6.73,0,1.49-.73a3.51,3.51,0,0,1,2.22-.71l1.44.83,0,1.55.71.8c.7.8.73,0,1.41,1.6s1.39,2.38,2.12,2.4,2.2.07,3-.68.07-2.34,1.51-1.51a5.27,5.27,0,0,1,2.55,2.41c.28.79,1,1.59,1,2.37l-.06,1.74c0,.59.72.61,1.45.63l2.56.08,2.56.08c.73,0,3.73-2.21,2.93.1s-1.51,1.5-.1,3.11,2.88,1.64,3.59,2.44a3.73,3.73,0,0,0,2.87,1.65c1.47,0,.74,0,2.91.87s2.9.87,3.61,1.67,1.44.82,2.88,1.64a9.31,9.31,0,0,1,2.14,1.63l1.44.82s2.59-.7,2.38.07.47,2.35,1.21,2.38,2.7-.7,2.44.07,1.9,1.62,1.14,2.37-1.9.2.1,1.69,2.78,0,3.46,1.54,2.17.84,2.15,1.62,1.44.82,2.9.87,0-.78,2.2.07,2.95-.69,4.39.14a7.54,7.54,0,0,0,3.63.89,16,16,0,0,0,2.95-.69s-.68-1.57,0-.77.56,1.57,1,1.58.47-1.54,1.18-.74a2.59,2.59,0,0,0,2.17.85c.73,0,1.51-1.51,2.22-.71s2.19.07,2.17.85,1,0,2,.06a14.51,14.51,0,0,1,3.15.88s.78-1.54,1.49-.74,4.14.13,3.87.9.47.8,1.22,0,1.56-3.06,3-1.46,2.17.85,2.88,1.65,1.46,0,2.92.09,2.93.09,3.64.89-.81,2.31,1.39,2.38,2.19.07,2.9.87,0,.77,1.42,1.6,2.14,1.62,3.58,2.44a9.25,9.25,0,0,0,3.64.9,2.7,2.7,0,0,1,2.56.08c1.07.81,1.8.83,1.78,1.61s1.44.82,1.44.82,2.92.09,3.63.89,5.1.94,5.07,1.72.71.8,1.42,1.6,1.46.05,1.44.82.68,1.58,1.39,2.38,4.34,1.69,4.32,2.47,1.46,0,2.14,1.62,2.17.85,2.15,1.63,3.63.89,3.61,1.67,2.14,1.62,2.88,1.64,0,0,.7.8,2.2.07,2.91.87-.71-.8,2.14,1.63,4.32,2.47,4.32,2.47l2.17.84s2.2.07,2.17.85,1.42,1.6,2.15,1.62l3,.1c-.07,0,1.37.82,1.37.82l2.17.84,1.44.83s2.91.87,2.88,1.64,1.46,0,.68,1.58-.35,1,.13,2.47,1.92,2.26,1.9,3l-.07,2.33a7.15,7.15,0,0,0,2.17.85l1.46,0c.73,0,1.49-.73,2.19.07s2.93.09,2.91.87.7.8,1.44.82,1.44.83,2.17.85,1.48-.73,1.46,0,1.44.82,2.88,1.64,1.41,1.6,2.15,1.63a15.58,15.58,0,0,1,2.9.87s.27-.77,2,.06a6.38,6.38,0,0,0,3.15.87l2.31.08c1.34,0,1.34,0,2.05.84a5.51,5.51,0,0,0,2.88,1.65c.73,0,1.44.82,2.17.84s0,0,.68,1.58,1.42,1.6,1.42,1.6a3.48,3.48,0,0,1,2.17.85c.71.8,2.19.07,2.9.87s2.9.86,2.9.86a3.13,3.13,0,0,0,2.17.85c1.47.05,3.61,1.67,4.37.92s0-1.56,1.49-.74a10,10,0,0,0,2.77,1.09s.58,1.19,1.07.9.48.32,1.59,0,2.11-1,2.68.17,2.79.47,2.79.47.05-1.55,0-.78a1.61,1.61,0,0,0,1.41,1.6c.73,0,0-1.55,1.49-.73s3-.68,3.66.12a5.44,5.44,0,0,0,2.88,1.65l1.46,0c.73,0,1.44.82,2.17.85s.78-1.53,1.49-.73a2.58,2.58,0,0,0,2.17.84c.73,0,1.44.83,2.17.85s1.51-1.51,2.22-.71l2.12,2.4a7.27,7.27,0,0,0,2.17.85l2.93.09,1.34,0c2.32.07,3,.87,3.76.9s2.95-.69,2.92.09.69,1.58,2.15,1.62l3.11.1a25.17,25.17,0,0,0,4.23-.64s-2.17-.85,2.17.84,5.81,1.74,5.81,1.74.39-.76,1.28,0a13,13,0,0,0,3.06,1.65,7,7,0,0,0,2.17.85,5.28,5.28,0,0,1,2.9.87,34.14,34.14,0,0,0,3.61,1.67l2.26.07c-.06,0,3.55,1.67,3.55,1.67l2.14,1.62,4.37.92s2.2.06,2.17.84a1.62,1.62,0,0,0,1.42,1.6c.73,0,1.48-.73,2.19.07s2.88,1.65,2.9.87.76-.75,1.49-.73,0-.78,1.51-1.51,3-1.46,3-.68-2.25,1.48-1.54,2.28,0,.78,1.41,1.6,3.66.12,3.64.89,2.88,1.65,2.88,1.65.68,1.58,1.46.05,0-.78,1.49-.73,1.49-.74,2.19.06.76-.75,1.44.83a3.93,3.93,0,0,0,2.86,2.42c.73,0-.15.77,2.13.07a11.66,11.66,0,0,1,3-.69l.71.81a10.16,10.16,0,0,0,2.88,1.64l2.19.07,0,1.55s2.2.07,2.17.85,0,0,.69,1.58,2.17.84,2.85,2.42,2.85,2.43,2.83,3.2a8.32,8.32,0,0,0,.66,2.36l2.15,1.62,2.19.07s5.1.94,5.07,1.72,1.44.82,2.15,1.62l1.41,1.6c.71.8,3.61,1.67,3.61,1.67,0,.78,1.44.82,1.42,1.6s2.15,1.62,2.15,1.62l2.14,1.63a2.2,2.2,0,0,1,1.44.82,3.77,3.77,0,0,0,2.88,1.65c1.46,0,2.9.86,3.63.89a17.79,17.79,0,0,1,3.61,1.67,2.2,2.2,0,0,1,1.44.82c.71.8,0,.78.69,1.58s0-.78.65,2.35.61,3.91,1.34,3.93-.63-3.13,2.2.07,2.15,1.63,2.83,3.2.73,0,1.41,1.6-1.48.74,1.39,2.38,4.35,1.69,5,2.49,1.49-.73,1.47,0,5,4.05,5,4.05l2.19.07a7.47,7.47,0,0,1,3.61,1.67c.71.8,4.32,2.47,4.32,2.47l2.17.84,1.44.82,0,.78,11.54,5.81s3.07-4.57,2.56.08-5.56,2.16-.51,4.65,18.12,6,18.12,6a14.26,14.26,0,0,1,2.1,3.18c.68,1.57,3.59,2.44,4.22,5.57s7.17,4.9,10.76,7.34,13,5.08,12.9,9,6.36,7.2,6.29,9.53,16.71,4.42,15.88,7.5,1.46,1.6-.26,8.94-4.38,10.36.08,14,21.25,5.73,23.23,12.79,1.92,8.62,3.26,12.55-.46,14.77-1.24,16.3-1.44-.82,4.15,7.91,6.34,8,9.82,13.53,7.08,8,8.37,13.49,10.73,8.12,8.39,12.71-2.37,3,.14,5.84,11.76,11.65,10.88,16.29.67,4.69-.24,8.94,1.95,6.68,2.61,9-1.34-3.93.66,2.35,2.78,4.76,2.63,9.42l-.3,9.46,0,1.42-2117-266.13-323.06-367.23,3.17.1,2.93.09s1.7-1.11,1.62.05,2-1.1,2.44.08,2.54-1.87,2.93.09,1.9.45,2.6,1.25,5.18-1.39,6.59.21,2.2.07,4.32,2.47,5.83,1,7.24,2.56.73,0,2.83,3.2,7.58,3.48,7.58,3.48c1.79,1.48,4.71,1.57,3.93,3.1s.64,3.14,1.34,3.94,3.71-1.44,3.61,1.67,2.86,2.42,3.54,4,2.17.84,2.85,2.42,3.64.89,4.3,3.25.68,1.57,2.8,4,5.73,4.07,5.68,5.63,0,.78.61,3.91-.83,3.08,2.08,3.95,5.12.16,6.66-2.12,4.51-3.75,5.27-4.5,5.92-2.15,6.65-2.13l7.32.23s-.71-.8,2.22-.71,3.73-2.21,5.86.19,6.46,4.09,8.68,3.38,5.9-1.37,5.9-1.37,5.88-.59,5.83,1,1.39,2.38,2.81,4,3.61,1.67,4.31,2.47,5.13.16,5.76,3.29-1.59,3.84,2.05,4.74,7.29,1,7.24,2.56,2.15,1.62,2.81,4,1.39,2.37,2.8,4,5.78,2.52,5.81,1.74-1.44-.82.07-2.33,3-3,3.76-3-1.39-2.38,2.95-.69,4.41-.64,7.27,1.79,6.53,1.76,8.68,3.38,5.1.94,5.81,1.74,3.65.12,3.63.89,5.1.94,5.1.94l2.32-3.82,5.87-.59,6.61-.57s-.68-1.58,2.25-1.48,3.68-.67,5.85.18,6.59.21,7.32.23,5.15-.62,5.15-.62l4.39.14c-.73,0-1.47,0,.05-1.55s6-5.26,6-5.26a8.29,8.29,0,0,0,.81-2.31c0-.77-.71-.8.78-1.53s5.92-2.15,5.92-2.15a2.79,2.79,0,0,1,1.54-2.28c1.49-.73,6.71-3.68,6.71-3.68a1.77,1.77,0,0,1,.8-2.31c1.49-.73,6-3.7,6.66-2.12s6.56,1,7.34-.55,3-3,3.76-3,6.64-1.35,7.37-1.33,2.24-1.48,3.73-2.21,7.37-1.33,8.05.25,2.12,2.4,5,4.05,8,2.58,9.39,4.18,5.8,1.74,6.51,2.54,3.66.11,4.34,1.69,1.44.83,2.81,4,8,2.58,8.61,5.72-.07,2.33,2,4.73.75-.76,5.7,4.85,7.91,4.91,8.59,6.49,2.85,2.42,4.29,3.25-4.31-2.47,5.83,1,11.64,2.7,13.05,4.3,5.73,4.07,7.17,4.89,8,2.59,8,2.59l6.58.2c2.93.09,4.42-.64,9.54-.48s8,.26,10.22,1.1.71.8,6.59.21a24.13,24.13,0,0,1,10.22,1.1l3.56,3.22,6.61-.57s-1.37-3.15,5.12.17,14.51,4.34,16,3.61.17-5.44,5.93-2.15,11.63,2.7,13.07,3.53-3,1.46,3.71-1.44,10.46-6.68,14.12-6.56,13.2-.36,14.66-.32,7.35-.54,8.86-2.05,2.27-2.27,6-3.7,9.64-3.59,11.18-5.88,4.48-3,5.24-3.72,8.83-1.28,10.34-2.79,3.78-3.77,4.47-2.19,16,3.61,16,3.61-5.08-1.71,1.44.83,10.87,3.45,13,4.3,5.7,4.84,5.7,4.84-.63-3.13,2.2.07,3.58,2.45,9.39,4.19,11.68,1.14,11.61,3.48,5.78,2.51,6.46,4.09,10.2,1.87,10.88,3.45,2.2.07,5.73,4.07,11.49,7.36,11.49,7.36-.76.76,2.2.07,4.44-1.41,8.8-.5,9.47,1.86,12.42,1.17,9.58-2,11.78-2,2.17.84,6.61-.57A92.81,92.81,0,0,0,12425,474c7.41-2.87,16.24-4.15,15.53-4.95s-8.17,3.63.81-2.31,18.56-8,18.59-8.75,1.56-3.06,1.56-3.06l1.61-4.62s6.63-1.35,10.27-.46,6.53,1.77,8.73,1.83,13.14,1.2,14.61,1.24,8.78.28,10.27-.45-4.32-2.47,8.78.27,9.51.3,9.51.3,8.88-2.83,8.83-1.28,5.12.17,5.12.17,4.49-3,6.69-2.91,13.95-1.11,13.95-1.11l11.83-3.52s5.22-2.95,8.83-1.28,16.88-1,16.88-1,2.29-3,3.73-2.22,8.81-.5,11,.34,8.1-1.3,9.53-.47,9.64-3.59,12.54-2.72,16.79,2,17.17,1.27,4.13-2.93,4.13-2.93,11.07-2.77,11.8-2.75,15.49-3.4,17-4.13,8.85-2.05,11.83-3.52,8.88-2.83,12.56-3.49,9.51.3,16.95-3.36,8.2-4.41,11.15-5.09,18.39-2.54,19.88-3.27,6.71-3.68,7.49-5.21,3.27-3,5.38-4.11a22.44,22.44,0,0,1,8-1.69c1.46.05,9.56-1.26,11-1.21s7.32.23,8.73,1.83,4.2-1.42,9.33,2.24,11.06,1.51,12.43,4.67,4.95,5.6,7.12,6.45,7.37-1.33,9.52.3,10.09,5,10.09,5,7.37-1.32,8,1,6.53,1.76,8.68,3.39,5.15-.62,6.54,1.76,7.27,1.78,11.58,4.25,7.3,1,16,2.84,10.22,1.1,12.39,1.95l2.17.84,7.44-3.65c3-1.47,5.24-3.73,6-2.93s19.62-.72,19.62-.72-1.28-.26,5.38-2.38,6.64-1.35,9.61-2.81S12961.79,420.43,12961.79,420.43Z"/></svg>