<svg xmlns="http://www.w3.org/2000/svg" width="15361" height="1440" viewBox="0 0 15361 1440"><defs><style>.a,.b,.c,.d,.e{fill:#fff;}.a{opacity:0.78;}.b{opacity:0.5;}.c{opacity:0.6;}.d{opacity:0.34;}.e{opacity:0.29;}</style></defs><polygon class="a" points="6582.2 301.1 6583.6 302.5 6582.2 303.9 6580.7 302.5 6582.2 301.1"/><polygon class="b" points="6368.1 290.4 6369.5 291.8 6368.1 293.3 6366.6 291.8 6368.1 290.4"/><polygon class="b" points="6888.5 6.4 6890 7.9 6888.5 9.3 6887 7.9 6888.5 6.4"/><polygon class="b" points="6489.9 86.3 6491.3 87.7 6489.9 89.2 6488.3 87.7 6489.9 86.3"/><polygon class="b" points="6266.1 152.2 6267.5 153.7 6266.1 155.1 6264.6 153.7 6266.1 152.2"/><polygon class="b" points="6525 361 6526.4 362.4 6525 363.9 6523.5 362.4 6525 361"/><polygon class="b" points="6618.3 82.9 6619.7 84.3 6618.3 85.8 6616.8 84.3 6618.3 82.9"/><polygon class="b" points="7178.4 206.5 7179.8 207.9 7178.4 209.3 7176.9 207.9 7178.4 206.5"/><polygon class="b" points="6412.6 243.9 6414.1 245.3 6412.6 246.8 6411.1 245.3 6412.6 243.9"/><polygon class="b" points="6158.5 234.1 6160 235.5 6158.5 237 6157 235.5 6158.5 234.1"/><polygon class="b" points="7272.2 290.9 7273 291.7 7272.2 292.5 7271.3 291.7 7272.2 290.9"/><polygon class="b" points="6944.4 305.2 6945.2 306 6944.4 306.8 6943.6 306 6944.4 305.2"/><polygon class="a" points="6839.2 299.1 6840 299.9 6839.2 300.7 6838.3 299.9 6839.2 299.1"/><polygon class="b" points="7865.3 127.4 7866.7 128.8 7865.3 130.3 7863.8 128.8 7865.3 127.4"/><polygon class="b" points="7555.7 201.6 7557.2 203 7555.7 204.5 7554.2 203 7555.7 201.6"/><polygon class="b" points="7388.1 187.8 7389.5 189.2 7388.1 190.6 7386.6 189.2 7388.1 187.8"/><polygon class="a" points="7658 308.5 7659.4 310 7658 311.4 7656.5 310 7658 308.5"/><polygon class="b" points="7476.6 418.3 7478.1 419.8 7476.6 421.2 7475.1 419.8 7476.6 418.3"/><polygon class="a" points="7135.3 355.1 7136.7 356.5 7135.3 357.9 7133.8 356.5 7135.3 355.1"/><polygon class="b" points="7174.3 420.1 7175.7 421.5 7174.3 422.9 7172.8 421.5 7174.3 420.1"/><polygon class="b" points="7085.3 402.1 7086.7 403.5 7085.3 404.9 7083.8 403.5 7085.3 402.1"/><polygon class="b" points="7926.2 194.2 7927 195 7926.2 195.8 7925.3 195 7926.2 194.2"/><polygon class="b" points="7589.6 138.7 7590.4 139.5 7589.6 140.3 7588.8 139.5 7589.6 138.7"/><polygon class="b" points="7816 420.1 7816.7 420.9 7816 421.7 7815.1 420.9 7816 420.1"/><polygon class="b" points="8802 366 8803.4 367.5 8802 368.9 8800.5 367.5 8802 366"/><polygon class="c" points="8691.1 15.4 8692.5 16.8 8691.1 18.2 8689.5 16.8 8691.1 15.4"/><polygon class="b" points="8396 68.9 8397.4 70.3 8396 71.7 8394.5 70.3 8396 68.9"/><polygon class="b" points="8307.4 12 8308.8 13.4 8307.4 14.8 8305.9 13.4 8307.4 12"/><polygon class="b" points="8064.4 169.1 8065.8 170.5 8064.4 172 8062.9 170.5 8064.4 169.1"/><polygon class="b" points="8291.7 93.2 8293.2 94.6 8291.7 96.1 8290.2 94.6 8291.7 93.2"/><polygon class="b" points="8914.2 211.4 8915.6 212.9 8914.2 214.3 8912.7 212.9 8914.2 211.4"/><polygon class="b" points="9063.3 102.5 9064.7 104 9063.3 105.4 9061.8 104 9063.3 102.5"/><polygon class="b" points="8515.6 245.3 8517.1 246.8 8515.6 248.2 8514.1 246.8 8515.6 245.3"/><polygon class="b" points="8364.5 269.7 8366 271.1 8364.5 272.6 8363 271.1 8364.5 269.7"/><polygon class="b" points="8938.2 74.2 8939 75 8938.2 75.8 8937.3 75 8938.2 74.2"/><polygon class="b" points="8601.6 107.7 8602.4 108.5 8601.6 109.3 8600.8 108.5 8601.6 107.7"/><polygon class="b" points="9688 423 9689.4 424.5 9688 425.9 9686.5 424.5 9688 423"/><polygon class="b" points="9486.9 178.9 9488.3 180.4 9486.9 181.8 9485.4 180.4 9486.9 178.9"/><polygon class="b" points="9494.7 237.6 9496.2 239 9494.7 240.5 9493.2 239 9494.7 237.6"/><polygon class="b" points="9375.1 139 9376.5 140.4 9375.1 141.8 9373.6 140.4 9375.1 139"/><polygon class="b" points="9029.1 292.8 9030.5 294.2 9029.1 295.6 9027.6 294.2 9029.1 292.8"/><polygon class="d" points="8991.4 325.1 8992.8 326.5 8991.4 328 8989.9 326.5 8991.4 325.1"/><polygon class="b" points="9181.9 309.2 9183.3 310.6 9181.9 312.1 9180.3 310.6 9181.9 309.2"/><polygon class="b" points="9387.7 380 9389.2 381.4 9387.7 382.8 9386.2 381.4 9387.7 380"/><polygon class="b" points="9841.2 367.4 9842.6 368.9 9841.2 370.3 9839.7 368.9 9841.2 367.4"/><polygon class="b" points="9865.4 256 9866.8 257.4 9865.4 258.8 9863.9 257.4 9865.4 256"/><polygon class="b" points="9983.2 157 9984.6 158.4 9983.2 159.8 9981.7 158.4 9983.2 157"/><polygon class="b" points="9528.6 174.7 9529.4 175.5 9528.6 176.3 9527.8 175.5 9528.6 174.7"/><polygon class="b" points="9244.7 250.3 9245.5 251.1 9244.7 251.9 9243.9 251.1 9244.7 250.3"/><polygon class="b" points="9779.7 99.2 9781.1 100.7 9779.7 102.1 9778.1 100.7 9779.7 99.2"/><polygon class="b" points="9541.3 25.2 9542.7 26.7 9541.3 28.1 9539.8 26.7 9541.3 25.2"/><polygon class="b" points="9266.9 101.3 9268.3 102.7 9266.9 104.2 9265.3 102.7 9266.9 101.3"/><polygon class="b" points="7483.4 62.6 7484.8 64 7483.4 65.5 7481.9 64 7483.4 62.6"/><polygon class="b" points="7711.2 17.6 7712.6 19 7711.2 20.4 7709.7 19 7711.2 17.6"/><polygon class="b" points="7223.9 53.3 7225.3 54.7 7223.9 56.2 7222.3 54.7 7223.9 53.3"/><polygon class="b" points="5208.9 169.5 5210.3 170.9 5208.9 172.3 5207.4 170.9 5208.9 169.5"/><polygon class="b" points="5077.7 177.1 5079.1 178.5 5077.7 179.9 5076.2 178.5 5077.7 177.1"/><polygon class="b" points="5187.8 342.7 5189.2 344.1 5187.8 345.5 5186.3 344.1 5187.8 342.7"/><polygon class="b" points="5498.2 254.1 5499.7 255.5 5498.2 257 5496.7 255.5 5498.2 254.1"/><polygon class="b" points="5574 155.1 5575.4 156.5 5574 158 5572.5 156.5 5574 155.1"/><polygon class="b" points="5344.6 194.1 5345.4 194.9 5344.6 195.7 5343.8 194.9 5344.6 194.1"/><polygon class="a" points="6290.8 301.2 6292.2 302.6 6290.8 304 6289.3 302.6 6290.8 301.2"/><polygon class="b" points="6374.9 30.9 6376.4 32.3 6374.9 33.8 6373.4 32.3 6374.9 30.9"/><polygon class="b" points="6220.9 49.5 6222.3 50.9 6220.9 52.4 6219.4 50.9 6220.9 49.5"/><polygon class="b" points="6008.4 121.4 6009.9 122.8 6008.4 124.3 6006.9 122.8 6008.4 121.4"/><polygon class="b" points="5765.2 61.1 5766.7 62.5 5765.2 64 5763.7 62.5 5765.2 61.1"/><polygon class="b" points="5856.6 123.3 5858 124.7 5856.6 126.1 5855 124.7 5856.6 123.3"/><polygon class="b" points="5709.6 193.3 5711 194.8 5709.6 196.2 5708 194.8 5709.6 193.3"/><polygon class="b" points="5811.7 196.3 5813.1 197.8 5811.7 199.2 5810.2 197.8 5811.7 196.3"/><polygon class="b" points="5990.6 258.1 5992 259.5 5990.6 261 5989 259.5 5990.6 258.1"/><polygon class="b" points="6216.8 258.7 6218.2 260.1 6216.8 261.5 6215.3 260.1 6216.8 258.7"/><polygon class="a" points="6018.4 332.4 6019.9 333.9 6018.4 335.3 6016.9 333.9 6018.4 332.4"/><polygon class="b" points="5792.3 268.8 5793.8 270.3 5792.3 271.7 5790.8 270.3 5792.3 268.8"/><polygon class="b" points="5355.5 103.3 5356.9 104.8 5355.5 106.2 5354 104.8 5355.5 103.3"/><polygon class="b" points="4918.9 40.1 4920.3 41.5 4918.9 42.9 4917.4 41.5 4918.9 40.1"/><polygon class="b" points="6788.4 464.9 6789.8 466.4 6788.4 467.8 6786.9 466.4 6788.4 464.9"/><polygon class="b" points="7394 484.4 7395.4 485.8 7394 487.2 7392.5 485.8 7394 484.4"/><polygon class="e" points="8467.4 794.7 8468.8 796.1 8467.4 797.6 8465.9 796.1 8467.4 794.7"/><polygon class="b" points="7317 505.5 7317.7 506.3 7317 507.1 7316.1 506.3 7317 505.5"/><polygon class="b" points="6688 424.7 6689.5 426.1 6688 427.5 6686.5 426.1 6688 424.7"/><polygon class="a" points="8160.2 903.1 8161.6 904.5 8160.2 905.9 8158.7 904.5 8160.2 903.1"/><polygon class="b" points="7946.1 892.4 7947.5 893.8 7946.1 895.3 7944.6 893.8 7946.1 892.4"/><polygon class="b" points="7124.5 354.4 7126 355.9 7124.5 357.3 7123 355.9 7124.5 354.4"/><polygon class="b" points="6725.9 434.3 6727.3 435.7 6725.9 437.2 6724.3 435.7 6725.9 434.3"/><polygon class="b" points="7844.1 754.2 7845.5 755.7 7844.1 757.1 7842.6 755.7 7844.1 754.2"/><polygon class="b" points="6854.3 430.9 6855.7 432.3 6854.3 433.8 6852.8 432.3 6854.3 430.9"/><polygon class="b" points="7414.4 554.5 7415.8 555.9 7414.4 557.3 7412.9 555.9 7414.4 554.5"/><polygon class="b" points="7990.6 845.9 7992.1 847.3 7990.6 848.8 7989.1 847.3 7990.6 845.9"/><polygon class="b" points="7736.5 836.1 7738 837.5 7736.5 839 7735 837.5 7736.5 836.1"/><polygon class="b" points="7508.2 638.9 7509 639.7 7508.2 640.5 7507.3 639.7 7508.2 638.9"/><polygon class="b" points="7180.4 653.2 7181.2 654 7180.4 654.8 7179.6 654 7180.4 653.2"/><polygon class="a" points="8417.2 901.1 8418 901.9 8417.2 902.7 8416.3 901.9 8417.2 901.1"/><polygon class="b" points="8101.3 475.4 8102.7 476.8 8101.3 478.3 8099.8 476.8 8101.3 475.4"/><polygon class="b" points="7791.7 549.6 7793.2 551 7791.7 552.5 7790.2 551 7791.7 549.6"/><polygon class="b" points="7624.1 535.8 7625.5 537.2 7624.1 538.6 7622.6 537.2 7624.1 535.8"/><polygon class="a" points="7894 656.5 7895.4 658 7894 659.4 7892.5 658 7894 656.5"/><polygon class="b" points="7712.6 766.3 7714.1 767.8 7712.6 769.2 7711.1 767.8 7712.6 766.3"/><polygon class="a" points="7371.3 703.1 7372.7 704.5 7371.3 705.9 7369.8 704.5 7371.3 703.1"/><polygon class="b" points="7410.3 768.1 7411.7 769.5 7410.3 770.9 7408.8 769.5 7410.3 768.1"/><polygon class="b" points="7321.3 750.1 7322.7 751.5 7321.3 752.9 7319.8 751.5 7321.3 750.1"/><polygon class="b" points="8162.2 542.2 8163 543 8162.2 543.8 8161.3 543 8162.2 542.2"/><polygon class="b" points="7825.6 486.7 7826.4 487.5 7825.6 488.3 7824.8 487.5 7825.6 486.7"/><polygon class="b" points="8052 768.1 8052.7 768.9 8052 769.7 8051.1 768.9 8052 768.1"/><polygon class="b" points="9038 714 9039.4 715.5 9038 716.9 9036.5 715.5 9038 714"/><polygon class="c" points="8927.1 363.4 8928.5 364.8 8927.1 366.2 8925.5 364.8 8927.1 363.4"/><polygon class="b" points="8647 416.9 8648.4 418.3 8647 419.7 8645.5 418.3 8647 416.9"/><polygon class="b" points="8471.4 375 8472.8 376.4 8471.4 377.8 8469.9 376.4 8471.4 375"/><polygon class="b" points="8275.4 523.1 8276.8 524.5 8275.4 526 8273.9 524.5 8275.4 523.1"/><polygon class="b" points="8431.7 536.2 8433.2 537.6 8431.7 539.1 8430.2 537.6 8431.7 536.2"/><polygon class="b" points="9150.2 559.4 9151.6 560.9 9150.2 562.3 9148.7 560.9 9150.2 559.4"/><polygon class="b" points="9299.3 450.5 9300.7 452 9299.3 453.4 9297.8 452 9299.3 450.5"/><polygon class="b" points="8751.6 593.3 8753.1 594.8 8751.6 596.2 8750.1 594.8 8751.6 593.3"/><polygon class="b" points="8498.5 582.7 8500 584.1 8498.5 585.6 8497 584.1 8498.5 582.7"/><polygon class="b" points="9174.2 422.2 9175 423 9174.2 423.8 9173.3 423 9174.2 422.2"/><polygon class="b" points="8837.6 455.7 8838.4 456.5 8837.6 457.3 8836.8 456.5 8837.6 455.7"/><polygon class="b" points="9924 771 9925.4 772.5 9924 773.9 9922.5 772.5 9924 771"/><polygon class="b" points="9722.9 526.9 9724.3 528.4 9722.9 529.8 9721.4 528.4 9722.9 526.9"/><polygon class="b" points="9730.7 585.6 9732.2 587 9730.7 588.5 9729.2 587 9730.7 585.6"/><polygon class="b" points="9611.1 487 9612.5 488.4 9611.1 489.8 9609.6 488.4 9611.1 487"/><polygon class="b" points="9265.1 640.8 9266.5 642.2 9265.1 643.6 9263.6 642.2 9265.1 640.8"/><polygon class="d" points="9227.4 673.1 9228.8 674.5 9227.4 676 9225.9 674.5 9227.4 673.1"/><polygon class="b" points="9417.9 657.2 9419.3 658.6 9417.9 660.1 9416.3 658.6 9417.9 657.2"/><polygon class="b" points="9623.7 728 9625.2 729.4 9623.7 730.8 9622.2 729.4 9623.7 728"/><polygon class="b" points="10219.2 505 10220.6 506.4 10219.2 507.8 10217.7 506.4 10219.2 505"/><polygon class="b" points="9764.6 522.7 9765.4 523.5 9764.6 524.3 9763.8 523.5 9764.6 522.7"/><polygon class="b" points="9480.7 598.3 9481.5 599.1 9480.7 599.9 9479.9 599.1 9480.7 598.3"/><polygon class="b" points="10015.7 447.2 10017.1 448.7 10015.7 450.1 10014.1 448.7 10015.7 447.2"/><polygon class="b" points="9777.3 373.2 9778.7 374.7 9777.3 376.1 9775.8 374.7 9777.3 373.2"/><polygon class="b" points="9502.9 449.3 9504.3 450.7 9502.9 452.2 9501.3 450.7 9502.9 449.3"/><polygon class="b" points="7719.4 410.6 7720.8 412 7719.4 413.5 7717.9 412 7719.4 410.6"/><polygon class="b" points="7947.2 365.6 7948.6 367 7947.2 368.4 7945.7 367 7947.2 365.6"/><polygon class="b" points="7459.9 401.3 7461.3 402.7 7459.9 404.2 7458.3 402.7 7459.9 401.3"/><polygon class="a" points="7867.8 868.2 7869.2 869.6 7867.8 871 7866.3 869.6 7867.8 868.2"/><polygon class="b" points="6610.9 378.9 6612.4 380.3 6610.9 381.8 6609.4 380.3 6610.9 378.9"/><polygon class="b" points="7568.6 860.1 7570 861.5 7568.6 863 7567 861.5 7568.6 860.1"/><polygon class="b" points="7794.8 860.7 7796.2 862.1 7794.8 863.5 7793.3 862.1 7794.8 860.7"/><polygon class="a" points="7596.4 934.4 7597.9 935.9 7596.4 937.3 7594.9 935.9 7596.4 934.4"/><polygon class="b" points="7630 832.4 7631.4 833.8 7630 835.2 7628.5 833.8 7630 832.4"/><polygon class="e" points="7361.4 888.7 7362.8 890.1 7361.4 891.6 7359.9 890.1 7361.4 888.7"/><polygon class="b" points="7553 853.5 7553.7 854.3 7553 855.1 7552.1 854.3 7553 853.5"/><polygon class="a" points="11437.7 275 11439.1 276.4 11437.7 277.8 11436.2 276.4 11437.7 275"/><polygon class="b" points="11223.6 264.3 11225 265.7 11223.6 267.2 11222.1 265.7 11223.6 264.3"/><polygon class="b" points="11345.4 60.2 11346.8 61.6 11345.4 63.1 11343.8 61.6 11345.4 60.2"/><polygon class="b" points="11121.6 126.1 11123 127.6 11121.6 129 11120.1 127.6 11121.6 126.1"/><polygon class="b" points="11380.5 334.9 11381.9 336.3 11380.5 337.8 11379 336.3 11380.5 334.9"/><polygon class="b" points="11473.8 56.8 11475.2 58.2 11473.8 59.7 11472.3 58.2 11473.8 56.8"/><polygon class="b" points="12033.9 180.3 12035.3 181.8 12033.9 183.2 12032.4 181.8 12033.9 180.3"/><polygon class="b" points="11268.1 217.8 11269.6 219.2 11268.1 220.7 11266.6 219.2 11268.1 217.8"/><polygon class="b" points="11014 208 11015.5 209.4 11014 210.8 11012.5 209.4 11014 208"/><polygon class="b" points="12127.7 264.8 12128.5 265.6 12127.7 266.4 12126.8 265.6 12127.7 264.8"/><polygon class="b" points="11799.9 279.1 11800.7 279.9 11799.9 280.7 11799.1 279.9 11799.9 279.1"/><polygon class="a" points="11694.7 273 11695.5 273.8 11694.7 274.6 11693.8 273.8 11694.7 273"/><polygon class="b" points="12720.8 101.3 12722.2 102.7 12720.8 104.2 12719.3 102.7 12720.8 101.3"/><polygon class="b" points="12411.2 175.5 12412.7 176.9 12411.2 178.4 12409.7 176.9 12411.2 175.5"/><polygon class="b" points="12243.6 161.7 12245 163.1 12243.6 164.5 12242.1 163.1 12243.6 161.7"/><polygon class="a" points="12513.5 282.4 12514.9 283.9 12513.5 285.3 12512 283.9 12513.5 282.4"/><polygon class="b" points="12332.1 392.2 12333.6 393.6 12332.1 395.1 12330.6 393.6 12332.1 392.2"/><polygon class="a" points="11990.8 329 11992.2 330.4 11990.8 331.8 11989.3 330.4 11990.8 329"/><polygon class="b" points="12029.8 394 12031.2 395.4 12029.8 396.8 12028.3 395.4 12029.8 394"/><polygon class="b" points="11940.8 376 11942.2 377.4 11940.8 378.8 11939.3 377.4 11940.8 376"/><polygon class="b" points="12781.7 168.1 12782.5 168.9 12781.7 169.7 12780.8 168.9 12781.7 168.1"/><polygon class="b" points="12445.1 112.6 12445.9 113.3 12445.1 114.1 12444.3 113.3 12445.1 112.6"/><polygon class="b" points="12671.5 394 12672.2 394.8 12671.5 395.5 12670.6 394.8 12671.5 394"/><polygon class="b" points="13657.5 339.9 13658.9 341.4 13657.5 342.8 13656 341.4 13657.5 339.9"/><polygon class="b" points="13266.5 42.7 13267.9 44.2 13266.5 45.6 13265 44.2 13266.5 42.7"/><polygon class="b" points="13090.9 0.9 13092.3 2.3 13090.9 3.7 13089.4 2.3 13090.9 0.9"/><polygon class="b" points="12919.9 143 12921.3 144.4 12919.9 145.8 12918.4 144.4 12919.9 143"/><polygon class="b" points="13051.2 162.1 13052.7 163.5 13051.2 165 13049.7 163.5 13051.2 162.1"/><polygon class="b" points="13769.7 185.3 13771.1 186.8 13769.7 188.2 13768.2 186.8 13769.7 185.3"/><polygon class="b" points="13918.8 76.4 13920.2 77.9 13918.8 79.3 13917.3 77.9 13918.8 76.4"/><polygon class="b" points="13371.1 219.2 13372.6 220.6 13371.1 222.1 13369.6 220.6 13371.1 219.2"/><polygon class="b" points="13118 208.6 13119.5 210 13118 211.5 13116.5 210 13118 208.6"/><polygon class="b" points="13793.7 48.1 13794.5 48.9 13793.7 49.7 13792.8 48.9 13793.7 48.1"/><polygon class="b" points="13457.1 81.6 13457.9 82.3 13457.1 83.1 13456.3 82.3 13457.1 81.6"/><polygon class="b" points="14543.5 396.9 14544.9 398.4 14543.5 399.8 14542 398.4 14543.5 396.9"/><polygon class="b" points="14342.4 152.8 14343.8 154.3 14342.4 155.7 14340.9 154.3 14342.4 152.8"/><polygon class="b" points="14350.2 211.5 14351.7 212.9 14350.2 214.4 14348.7 212.9 14350.2 211.5"/><polygon class="b" points="14230.6 112.9 14232 114.3 14230.6 115.7 14229.1 114.3 14230.6 112.9"/><polygon class="b" points="13884.6 266.7 13886 268.1 13884.6 269.5 13883.1 268.1 13884.6 266.7"/><polygon class="d" points="13846.9 299 13848.3 300.4 13846.9 301.8 13845.4 300.4 13846.9 299"/><polygon class="b" points="14037.4 283.1 14038.8 284.5 14037.4 286 14035.8 284.5 14037.4 283.1"/><polygon class="b" points="14243.2 353.9 14244.7 355.3 14243.2 356.7 14241.7 355.3 14243.2 353.9"/><polygon class="b" points="14696.7 341.3 14698.1 342.8 14696.7 344.2 14695.2 342.8 14696.7 341.3"/><polygon class="b" points="14720.9 229.9 14722.3 231.3 14720.9 232.7 14719.4 231.3 14720.9 229.9"/><polygon class="b" points="14838.7 130.9 14840.1 132.3 14838.7 133.7 14837.2 132.3 14838.7 130.9"/><polygon class="b" points="14384.1 148.6 14384.9 149.3 14384.1 150.1 14383.3 149.3 14384.1 148.6"/><polygon class="b" points="14100.2 224.2 14101 225 14100.2 225.8 14099.4 225 14100.2 224.2"/><polygon class="b" points="14635.2 73.1 14636.6 74.5 14635.2 76 14633.6 74.5 14635.2 73.1"/><polygon class="b" points="14396.8 -0.9 14398.2 0.5 14396.8 2 14395.3 0.5 14396.8 -0.9"/><polygon class="b" points="14122.4 75.2 14123.8 76.6 14122.4 78.1 14120.8 76.6 14122.4 75.2"/><polygon class="b" points="12338.9 36.5 12340.3 37.9 12338.9 39.4 12337.4 37.9 12338.9 36.5"/><polygon class="b" points="12079.4 27.2 12080.8 28.6 12079.4 30.1 12077.8 28.6 12079.4 27.2"/><polygon class="b" points="10064.4 143.4 10065.8 144.8 10064.4 146.2 10062.9 144.8 10064.4 143.4"/><polygon class="b" points="9933.2 151 9934.6 152.4 9933.2 153.8 9931.7 152.4 9933.2 151"/><polygon class="b" points="10043.3 316.6 10044.7 318 10043.3 319.4 10041.8 318 10043.3 316.6"/><polygon class="b" points="10353.7 228 10355.2 229.4 10353.7 230.9 10352.2 229.4 10353.7 228"/><polygon class="b" points="10429.5 129 10430.9 130.4 10429.5 131.9 10428 130.4 10429.5 129"/><polygon class="b" points="10200.1 168 10200.9 168.8 10200.1 169.6 10199.3 168.8 10200.1 168"/><polygon class="a" points="11146.3 275.1 11147.7 276.5 11146.3 277.9 11144.8 276.5 11146.3 275.1"/><polygon class="b" points="11230.4 4.8 11231.9 6.2 11230.4 7.7 11228.9 6.2 11230.4 4.8"/><polygon class="b" points="11076.4 23.4 11077.8 24.8 11076.4 26.2 11074.9 24.8 11076.4 23.4"/><polygon class="b" points="10863.9 95.3 10865.4 96.7 10863.9 98.2 10862.4 96.7 10863.9 95.3"/><polygon class="b" points="10620.7 35 10622.2 36.4 10620.7 37.9 10619.2 36.4 10620.7 35"/><polygon class="b" points="10712.1 97.2 10713.5 98.6 10712.1 100 10710.5 98.6 10712.1 97.2"/><polygon class="b" points="10565.1 167.2 10566.5 168.7 10565.1 170.1 10563.5 168.7 10565.1 167.2"/><polygon class="b" points="10667.2 170.2 10668.6 171.7 10667.2 173.1 10665.7 171.7 10667.2 170.2"/><polygon class="b" points="10846.1 232 10847.5 233.4 10846.1 234.9 10844.5 233.4 10846.1 232"/><polygon class="b" points="11072.3 232.6 11073.7 234 11072.3 235.4 11070.8 234 11072.3 232.6"/><polygon class="a" points="10873.9 306.3 10875.4 307.8 10873.9 309.2 10872.4 307.8 10873.9 306.3"/><polygon class="b" points="10647.8 242.7 10649.3 244.2 10647.8 245.6 10646.3 244.2 10647.8 242.7"/><polygon class="b" points="10211 77.2 10212.4 78.7 10211 80.1 10209.5 78.7 10211 77.2"/><polygon class="b" points="9774.4 14 9775.8 15.4 9774.4 16.8 9772.9 15.4 9774.4 14"/><polygon class="b" points="11643.9 438.8 11645.3 440.3 11643.9 441.7 11642.4 440.3 11643.9 438.8"/><polygon class="b" points="12249.5 458.3 12250.9 459.7 12249.5 461.1 12248 459.7 12249.5 458.3"/><polygon class="b" points="12172.5 479.4 12173.2 480.2 12172.5 481 12171.6 480.2 12172.5 479.4"/><polygon class="b" points="11543.5 398.6 11545 400 11543.5 401.4 11542 400 11543.5 398.6"/><polygon class="b" points="11980 328.3 11981.5 329.8 11980 331.2 11978.5 329.8 11980 328.3"/><polygon class="b" points="11581.4 408.2 11582.8 409.6 11581.4 411.1 11579.8 409.6 11581.4 408.2"/><polygon class="b" points="11709.8 404.8 11711.2 406.2 11709.8 407.7 11708.3 406.2 11709.8 404.8"/><polygon class="b" points="12956.8 449.3 12958.2 450.7 12956.8 452.2 12955.3 450.7 12956.8 449.3"/><polygon class="b" points="12647.2 523.5 12648.7 524.9 12647.2 526.4 12645.7 524.9 12647.2 523.5"/><polygon class="b" points="12479.6 509.7 12481 511.1 12479.6 512.5 12478.1 511.1 12479.6 509.7"/><polygon class="b" points="13017.7 516.1 13018.5 516.9 13017.7 517.7 13016.8 516.9 13017.7 516.1"/><polygon class="b" points="12681.1 460.6 12681.9 461.3 12681.1 462.1 12680.3 461.3 12681.1 460.6"/><polygon class="b" points="13893.5 687.9 13894.9 689.4 13893.5 690.8 13892 689.4 13893.5 687.9"/><polygon class="c" points="13782.6 337.2 13784 338.7 13782.6 340.1 13781 338.7 13782.6 337.2"/><polygon class="b" points="13502.5 390.7 13503.9 392.2 13502.5 393.6 13501 392.2 13502.5 390.7"/><polygon class="b" points="13326.9 348.9 13328.3 350.3 13326.9 351.7 13325.4 350.3 13326.9 348.9"/><polygon class="b" points="13155.9 491 13157.3 492.4 13155.9 493.8 13154.4 492.4 13155.9 491"/><polygon class="b" points="13287.2 510.1 13288.7 511.5 13287.2 513 13285.7 511.5 13287.2 510.1"/><polygon class="b" points="14005.7 533.3 14007.1 534.8 14005.7 536.2 14004.2 534.8 14005.7 533.3"/><polygon class="b" points="14154.8 424.4 14156.2 425.9 14154.8 427.3 14153.3 425.9 14154.8 424.4"/><polygon class="b" points="14029.7 396.1 14030.5 396.9 14029.7 397.7 14028.8 396.9 14029.7 396.1"/><polygon class="b" points="13693.1 429.6 13693.9 430.3 13693.1 431.1 13692.3 430.3 13693.1 429.6"/><polygon class="b" points="14779.5 744.9 14780.9 746.4 14779.5 747.8 14778 746.4 14779.5 744.9"/><polygon class="b" points="14578.4 500.8 14579.8 502.3 14578.4 503.7 14576.9 502.3 14578.4 500.8"/><polygon class="b" points="14586.2 559.5 14587.7 560.9 14586.2 562.4 14584.7 560.9 14586.2 559.5"/><polygon class="b" points="14466.6 460.9 14468 462.3 14466.6 463.7 14465.1 462.3 14466.6 460.9"/><polygon class="b" points="14120.6 614.7 14122 616.1 14120.6 617.5 14119.1 616.1 14120.6 614.7"/><polygon class="d" points="14082.9 647 14084.3 648.4 14082.9 649.8 14081.4 648.4 14082.9 647"/><polygon class="b" points="14273.4 631.1 14274.8 632.5 14273.4 634 14271.8 632.5 14273.4 631.1"/><polygon class="b" points="14479.2 701.9 14480.7 703.3 14479.2 704.7 14477.7 703.3 14479.2 701.9"/><polygon class="b" points="14932.7 689.3 14934.1 690.8 14932.7 692.2 14931.2 690.8 14932.7 689.3"/><polygon class="b" points="14956.9 577.9 14958.3 579.3 14956.9 580.7 14955.4 579.3 14956.9 577.9"/><polygon class="b" points="15074.7 478.9 15076.1 480.3 15074.7 481.7 15073.2 480.3 15074.7 478.9"/><polygon class="b" points="14620.1 496.6 14620.9 497.3 14620.1 498.1 14619.3 497.3 14620.1 496.6"/><polygon class="b" points="14336.2 572.2 14337 573 14336.2 573.8 14335.4 573 14336.2 572.2"/><polygon class="b" points="14871.2 421.1 14872.6 422.5 14871.2 424 14869.6 422.5 14871.2 421.1"/><polygon class="b" points="14632.8 347.1 14634.2 348.5 14632.8 350 14631.3 348.5 14632.8 347.1"/><polygon class="b" points="14358.4 423.2 14359.8 424.6 14358.4 426.1 14356.8 424.6 14358.4 423.2"/><polygon class="b" points="12574.9 384.5 12576.3 385.9 12574.9 387.4 12573.4 385.9 12574.9 384.5"/><polygon class="b" points="12802.7 339.4 12804.1 340.9 12802.7 342.3 12801.2 340.9 12802.7 339.4"/><polygon class="b" points="12315.4 375.2 12316.8 376.6 12315.4 378.1 12313.8 376.6 12315.4 375.2"/><polygon class="b" points="10300.4 491.4 10301.8 492.8 10300.4 494.2 10298.9 492.8 10300.4 491.4"/><polygon class="b" points="10169.2 499 10170.6 500.4 10169.2 501.8 10167.7 500.4 10169.2 499"/><polygon class="b" points="10665.5 477 10666.9 478.4 10665.5 479.9 10664 478.4 10665.5 477"/><polygon class="b" points="10436.1 516 10436.9 516.8 10436.1 517.6 10435.3 516.8 10436.1 516"/><polygon class="b" points="11466.4 352.8 11467.9 354.2 11466.4 355.7 11464.9 354.2 11466.4 352.8"/><polygon class="b" points="11312.4 371.4 11313.8 372.8 11312.4 374.2 11310.9 372.8 11312.4 371.4"/><polygon class="b" points="11099.9 443.3 11101.4 444.7 11099.9 446.2 11098.4 444.7 11099.9 443.3"/><polygon class="b" points="10856.7 383 10858.2 384.4 10856.7 385.9 10855.2 384.4 10856.7 383"/><polygon class="b" points="10948.1 445.2 10949.5 446.6 10948.1 448 10946.5 446.6 10948.1 445.2"/><polygon class="b" points="10801.1 515.2 10802.5 516.7 10801.1 518.1 10799.5 516.7 10801.1 515.2"/><polygon class="b" points="10903.2 518.2 10904.6 519.7 10903.2 521.1 10901.7 519.7 10903.2 518.2"/><polygon class="b" points="10447 425.2 10448.4 426.7 10447 428.1 10445.5 426.7 10447 425.2"/><polygon class="b" points="10010.4 362 10011.8 363.4 10010.4 364.8 10008.9 363.4 10010.4 362"/><polygon class="a" points="7079.7 116 7081.1 117.4 7079.7 118.8 7078.2 117.4 7079.7 116"/><polygon class="b" points="6865.6 105.3 6867 106.7 6865.6 108.2 6864.1 106.7 6865.6 105.3"/><polygon class="b" points="7265 319.3 7266.5 320.8 7265 322.2 7263.5 320.8 7265 319.3"/><polygon class="b" points="7455.4 533.2 7456.8 534.6 7455.4 536.1 7453.8 534.6 7455.4 533.2"/><polygon class="b" points="7231.6 599.1 7233 600.6 7231.6 602 7230.1 600.6 7231.6 599.1"/><polygon class="b" points="7022.5 175.9 7023.9 177.3 7022.5 178.8 7021 177.3 7022.5 175.9"/><polygon class="b" points="6994.8 395.8 6996.2 397.2 6994.8 398.7 6993.3 397.2 6994.8 395.8"/><polygon class="b" points="7675.9 21.3 7677.3 22.8 7675.9 24.2 7674.4 22.8 7675.9 21.3"/><polygon class="b" points="6910.1 58.8 6911.6 60.2 6910.1 61.7 6908.6 60.2 6910.1 58.8"/><polygon class="b" points="6656 49 6657.5 50.4 6656 51.8 6654.5 50.4 6656 49"/><polygon class="b" points="7769.7 105.8 7770.5 106.6 7769.7 107.4 7768.8 106.6 7769.7 105.8"/><polygon class="b" points="7441.9 120.1 7442.7 120.9 7441.9 121.7 7441.1 120.9 7441.9 120.1"/><polygon class="a" points="7336.7 114 7337.5 114.8 7336.7 115.6 7335.8 114.8 7336.7 114"/><polygon class="b" points="8313.8 425.3 8315.2 426.7 8313.8 428.2 8312.3 426.7 8313.8 425.3"/><polygon class="b" points="8053.2 16.5 8054.7 17.9 8053.2 19.4 8051.7 17.9 8053.2 16.5"/><polygon class="b" points="7885.6 2.7 7887 4.1 7885.6 5.5 7884.1 4.1 7885.6 2.7"/><polygon class="a" points="8155.5 123.4 8156.9 124.9 8155.5 126.3 8154 124.9 8155.5 123.4"/><polygon class="b" points="7974.1 233.2 7975.6 234.6 7974.1 236.1 7972.6 234.6 7974.1 233.2"/><polygon class="a" points="7632.8 170 7634.2 171.4 7632.8 172.8 7631.3 171.4 7632.8 170"/><polygon class="b" points="7671.8 235 7673.2 236.4 7671.8 237.8 7670.3 236.4 7671.8 235"/><polygon class="b" points="7582.8 217 7584.2 218.4 7582.8 219.8 7581.3 218.4 7582.8 217"/><polygon class="b" points="8423.7 9.1 8424.5 9.9 8423.7 10.7 8422.8 9.9 8423.7 9.1"/><polygon class="b" points="7166.1 582.6 7166.9 583.3 7166.1 584.1 7165.3 583.3 7166.1 582.6"/><polygon class="b" points="9299.5 180.9 9300.9 182.4 9299.5 183.8 9298 182.4 9299.5 180.9"/><polygon class="b" points="8693.2 3.1 8694.7 4.5 8693.2 6 8691.7 4.5 8693.2 3.1"/><polygon class="b" points="9411.7 26.3 9413.1 27.8 9411.7 29.2 9410.2 27.8 9411.7 26.3"/><polygon class="b" points="9013.1 60.2 9014.6 61.6 9013.1 63.1 9011.6 61.6 9013.1 60.2"/><polygon class="b" points="8760 49.6 8761.5 51 8760 52.5 8758.5 51 8760 49.6"/><polygon class="b" points="10185.5 237.9 10186.9 239.4 10185.5 240.8 10184 239.4 10185.5 237.9"/><polygon class="b" points="9992.2 52.5 9993.7 53.9 9992.2 55.4 9990.7 53.9 9992.2 52.5"/><polygon class="b" points="9526.6 107.7 9528 109.1 9526.6 110.5 9525.1 109.1 9526.6 107.7"/><polygon class="d" points="9488.9 140 9490.3 141.4 9488.9 142.8 9487.4 141.4 9488.9 140"/><polygon class="b" points="9679.4 124.1 9680.8 125.5 9679.4 127 9677.8 125.5 9679.4 124.1"/><polygon class="b" points="9885.2 194.9 9886.7 196.3 9885.2 197.7 9883.7 196.3 9885.2 194.9"/><polygon class="b" points="10338.7 182.3 10340.1 183.8 10338.7 185.2 10337.2 183.8 10338.7 182.3"/><polygon class="b" points="10362.9 70.9 10364.3 72.3 10362.9 73.7 10361.4 72.3 10362.9 70.9"/><polygon class="b" points="9742.2 65.2 9743 66 9742.2 66.8 9741.4 66 9742.2 65.2"/><polygon class="b" points="7059.9 506.5 7061.3 507.9 7059.9 509.4 7058.4 507.9 7059.9 506.5"/><polygon class="b" points="7287.7 461.4 7289.1 462.9 7287.7 464.3 7286.2 462.9 7287.7 461.4"/><polygon class="b" points="6800.4 497.2 6801.8 498.6 6800.4 500.1 6798.8 498.6 6800.4 497.2"/><polygon class="b" points="5685.3 157.6 5686.7 159 5685.3 160.4 5683.8 159 5685.3 157.6"/><polygon class="b" points="5995.7 69 5997.2 70.4 5995.7 71.9 5994.2 70.4 5995.7 69"/><polygon class="b" points="5842.1 9 5842.9 9.8 5842.1 10.6 5841.3 9.8 5842.1 9"/><polygon class="a" points="6788.3 116.1 6789.7 117.5 6788.3 118.9 6786.8 117.5 6788.3 116.1"/><polygon class="b" points="7340.4 477.8 7341.9 479.2 7340.4 480.7 7338.9 479.2 7340.4 477.8"/><polygon class="b" points="7186.4 496.4 7187.8 497.8 7186.4 499.2 7184.9 497.8 7186.4 496.4"/><polygon class="b" points="7219.9 376.3 7221.4 377.7 7219.9 379.2 7218.4 377.7 7219.9 376.3"/><polygon class="b" points="6976.7 316 6978.2 317.4 6976.7 318.9 6975.2 317.4 6976.7 316"/><polygon class="b" points="7068.1 378.2 7069.5 379.6 7068.1 381 7066.5 379.6 7068.1 378.2"/><polygon class="b" points="6207.1 8.2 6208.5 9.7 6207.1 11.1 6205.5 9.7 6207.1 8.2"/><polygon class="b" points="6309.2 11.2 6310.6 12.7 6309.2 14.1 6307.7 12.7 6309.2 11.2"/><polygon class="b" points="6488.1 73 6489.5 74.4 6488.1 75.9 6486.5 74.4 6488.1 73"/><polygon class="b" points="6714.3 73.6 6715.7 75 6714.3 76.4 6712.8 75 6714.3 73.6"/><polygon class="a" points="6515.9 147.3 6517.4 148.8 6515.9 150.2 6514.4 148.8 6515.9 147.3"/><polygon class="b" points="6289.8 83.7 6291.3 85.2 6289.8 86.6 6288.3 85.2 6289.8 83.7"/><polygon class="b" points="7285.9 279.8 7287.3 281.3 7285.9 282.7 7284.4 281.3 7285.9 279.8"/><polygon class="b" points="7891.5 299.3 7892.9 300.7 7891.5 302.1 7890 300.7 7891.5 299.3"/><polygon class="e" points="8964.9 609.6 8966.3 611 8964.9 612.5 8963.4 611 8964.9 609.6"/><polygon class="b" points="7814.5 320.4 7815.2 321.2 7814.5 322 7813.6 321.2 7814.5 320.4"/><polygon class="b" points="7185.5 239.6 7187 241 7185.5 242.4 7184 241 7185.5 239.6"/><polygon class="a" points="8657.7 718 8659.1 719.4 8657.7 720.8 8656.2 719.4 8657.7 718"/><polygon class="b" points="8443.6 707.3 8445 708.7 8443.6 710.2 8442.1 708.7 8443.6 707.3"/><polygon class="b" points="7622 169.3 7623.5 170.8 7622 172.2 7620.5 170.8 7622 169.3"/><polygon class="b" points="7223.4 249.2 7224.8 250.6 7223.4 252.1 7221.8 250.6 7223.4 249.2"/><polygon class="b" points="8341.6 569.1 8343 570.6 8341.6 572 8340.1 570.6 8341.6 569.1"/><polygon class="b" points="8600.5 777.9 8601.9 779.3 8600.5 780.8 8599 779.3 8600.5 777.9"/><polygon class="b" points="7351.8 245.8 7353.2 247.2 7351.8 248.7 7350.3 247.2 7351.8 245.8"/><polygon class="b" points="7911.9 369.3 7913.3 370.8 7911.9 372.2 7910.4 370.8 7911.9 369.3"/><polygon class="b" points="8488.1 660.8 8489.6 662.2 8488.1 663.7 8486.6 662.2 8488.1 660.8"/><polygon class="b" points="8234 651 8235.5 652.4 8234 653.8 8232.5 652.4 8234 651"/><polygon class="b" points="8005.7 453.8 8006.5 454.6 8005.7 455.4 8004.8 454.6 8005.7 453.8"/><polygon class="b" points="7677.9 468.1 7678.7 468.9 7677.9 469.7 7677.1 468.9 7677.9 468.1"/><polygon class="a" points="8914.7 716 8915.5 716.8 8914.7 717.6 8913.8 716.8 8914.7 716"/><polygon class="b" points="8598.8 290.3 8600.2 291.7 8598.8 293.2 8597.3 291.7 8598.8 290.3"/><polygon class="b" points="8352.2 355.5 8353.7 356.9 8352.2 358.4 8350.7 356.9 8352.2 355.5"/><polygon class="b" points="8121.6 350.7 8123 352.1 8121.6 353.5 8120.1 352.1 8121.6 350.7"/><polygon class="b" points="8210.1 581.2 8211.6 582.6 8210.1 584.1 8208.6 582.6 8210.1 581.2"/><polygon class="a" points="7868.8 518 7870.2 519.4 7868.8 520.8 7867.3 519.4 7868.8 518"/><polygon class="b" points="7907.8 583 7909.2 584.4 7907.8 585.8 7906.3 584.4 7907.8 583"/><polygon class="b" points="7818.8 565 7820.2 566.4 7818.8 567.8 7817.3 566.4 7818.8 565"/><polygon class="b" points="8659.7 357.1 8660.5 357.9 8659.7 358.7 8658.8 357.9 8659.7 357.1"/><polygon class="b" points="8384.1 189.6 8384.9 190.3 8384.1 191.1 8383.3 190.3 8384.1 189.6"/><polygon class="b" points="8549.5 583 8550.2 583.8 8549.5 584.5 8548.6 583.8 8549.5 583"/><polygon class="b" points="9535.5 528.9 9536.9 530.4 9535.5 531.8 9534 530.4 9535.5 528.9"/><polygon class="c" points="9424.6 178.2 9426 179.7 9424.6 181.1 9423 179.7 9424.6 178.2"/><polygon class="b" points="9144.5 231.7 9145.9 233.2 9144.5 234.6 9143 233.2 9144.5 231.7"/><polygon class="b" points="8968.9 189.9 8970.3 191.3 8968.9 192.7 8967.4 191.3 8968.9 189.9"/><polygon class="b" points="8797.9 332 8799.3 333.4 8797.9 334.8 8796.4 333.4 8797.9 332"/><polygon class="b" points="8929.2 351.1 8930.7 352.5 8929.2 354 8927.7 352.5 8929.2 351.1"/><polygon class="b" points="9647.7 374.3 9649.1 375.8 9647.7 377.2 9646.2 375.8 9647.7 374.3"/><polygon class="b" points="9796.8 265.4 9798.2 266.9 9796.8 268.3 9795.3 266.9 9796.8 265.4"/><polygon class="b" points="9249.1 408.2 9250.6 409.6 9249.1 411.1 9247.6 409.6 9249.1 408.2"/><polygon class="b" points="8996 397.6 8997.5 399 8996 400.5 8994.5 399 8996 397.6"/><polygon class="b" points="9671.7 237.1 9672.5 237.9 9671.7 238.7 9670.8 237.9 9671.7 237.1"/><polygon class="b" points="9335.1 270.6 9335.9 271.3 9335.1 272.1 9334.3 271.3 9335.1 270.6"/><polygon class="b" points="10220.4 341.8 10221.8 343.3 10220.4 344.7 10218.9 343.3 10220.4 341.8"/><polygon class="b" points="10228.2 400.5 10229.7 401.9 10228.2 403.4 10226.7 401.9 10228.2 400.5"/><polygon class="b" points="10108.6 301.9 10110 303.3 10108.6 304.7 10107.1 303.3 10108.6 301.9"/><polygon class="b" points="9762.6 455.7 9764 457.1 9762.6 458.5 9761.1 457.1 9762.6 455.7"/><polygon class="d" points="9724.9 488 9726.3 489.4 9724.9 490.8 9723.4 489.4 9724.9 488"/><polygon class="b" points="9915.4 472.1 9916.8 473.5 9915.4 475 9913.8 473.5 9915.4 472.1"/><polygon class="b" points="10598.9 418.9 10600.3 420.3 10598.9 421.7 10597.4 420.3 10598.9 418.9"/><polygon class="b" points="10716.7 319.9 10718.1 321.3 10716.7 322.7 10715.2 321.3 10716.7 319.9"/><polygon class="b" points="10262.1 337.6 10262.9 338.3 10262.1 339.1 10261.3 338.3 10262.1 337.6"/><polygon class="b" points="9978.2 413.2 9979 414 9978.2 414.8 9977.4 414 9978.2 413.2"/><polygon class="b" points="10513.2 262.1 10514.6 263.5 10513.2 265 10511.6 263.5 10513.2 262.1"/><polygon class="b" points="10274.8 188.1 10276.2 189.5 10274.8 191 10273.3 189.5 10274.8 188.1"/><polygon class="b" points="10000.4 264.2 10001.8 265.6 10000.4 267.1 9998.8 265.6 10000.4 264.2"/><polygon class="b" points="8288.9 210.5 8290.3 211.9 8288.9 213.4 8287.4 211.9 8288.9 210.5"/><polygon class="b" points="8444.7 180.4 8446.1 181.9 8444.7 183.3 8443.2 181.9 8444.7 180.4"/><polygon class="b" points="7957.4 216.2 7958.8 217.6 7957.4 219.1 7955.8 217.6 7957.4 216.2"/><polygon class="b" points="5942.4 332.4 5943.8 333.8 5942.4 335.2 5940.9 333.8 5942.4 332.4"/><polygon class="b" points="5811.2 340 5812.6 341.4 5811.2 342.8 5809.7 341.4 5811.2 340"/><polygon class="b" points="6307.5 318 6308.9 319.4 6307.5 320.9 6306 319.4 6307.5 318"/><polygon class="b" points="6078.1 357 6078.9 357.8 6078.1 358.6 6077.3 357.8 6078.1 357"/><polygon class="a" points="8365.3 683.1 8366.7 684.5 8365.3 685.9 8363.8 684.5 8365.3 683.1"/><polygon class="b" points="7108.4 193.8 7109.9 195.2 7108.4 196.7 7106.9 195.2 7108.4 193.8"/><polygon class="b" points="6954.4 212.4 6955.8 213.8 6954.4 215.2 6952.9 213.8 6954.4 212.4"/><polygon class="b" points="6741.9 284.3 6743.4 285.7 6741.9 287.2 6740.4 285.7 6741.9 284.3"/><polygon class="b" points="6498.7 224 6500.2 225.4 6498.7 226.9 6497.2 225.4 6498.7 224"/><polygon class="b" points="6590.1 286.2 6591.5 287.6 6590.1 289 6588.5 287.6 6590.1 286.2"/><polygon class="b" points="6443.1 356.2 6444.5 357.7 6443.1 359.1 6441.5 357.7 6443.1 356.2"/><polygon class="b" points="6545.2 359.2 6546.6 360.7 6545.2 362.1 6543.7 360.7 6545.2 359.2"/><polygon class="b" points="8066.1 675 8067.5 676.4 8066.1 677.9 8064.5 676.4 8066.1 675"/><polygon class="b" points="8292.3 675.6 8293.7 677 8292.3 678.4 8290.8 677 8292.3 675.6"/><polygon class="a" points="8093.9 749.3 8095.4 750.8 8093.9 752.2 8092.4 750.8 8093.9 749.3"/><polygon class="b" points="6089 266.2 6090.4 267.7 6089 269.1 6087.5 267.7 6089 266.2"/><polygon class="b" points="5652.4 203 5653.8 204.4 5652.4 205.8 5650.9 204.4 5652.4 203"/><polygon class="b" points="8863.9 881.8 8865.3 883.3 8863.9 884.7 8862.4 883.3 8863.9 881.8"/><polygon class="b" points="8127.5 647.3 8128.9 648.7 8127.5 650.1 8126 648.7 8127.5 647.3"/><polygon class="e" points="7858.9 703.6 7860.3 705 7858.9 706.5 7857.4 705 7858.9 703.6"/><polygon class="b" points="8050.5 668.4 8051.2 669.2 8050.5 670 8049.6 669.2 8050.5 668.4"/><polygon class="b" points="8763.5 841.6 8765 843 8763.5 844.4 8762 843 8763.5 841.6"/><polygon class="b" points="3746.7 180.8 3748.2 182.3 3746.7 183.7 3745.2 182.3 3746.7 180.8"/><polygon class="b" points="3348.1 260.7 3349.5 262.1 3348.1 263.6 3346.6 262.1 3348.1 260.7"/><polygon class="b" points="3124.3 326.6 3125.7 328.1 3124.3 329.5 3122.8 328.1 3124.3 326.6"/><polygon class="b" points="3476.5 257.3 3478 258.7 3476.5 260.2 3475 258.7 3476.5 257.3"/><polygon class="b" points="4723.5 301.8 4725 303.2 4723.5 304.7 4722 303.2 4723.5 301.8"/><polygon class="b" points="4246.3 362.2 4247.7 363.6 4246.3 365 4244.8 363.6 4246.3 362.2"/><polygon class="b" points="4447.8 313.1 4448.6 313.9 4447.8 314.7 4447 313.9 4447.8 313.1"/><polygon class="b" points="4922.6 343.5 4924.1 344.9 4922.6 346.4 4921.1 344.9 4922.6 343.5"/><polygon class="b" points="5054 362.6 5055.4 364 5054 365.5 5052.5 364 5054 362.6"/><polygon class="b" points="4341.6 237 4343.1 238.4 4341.6 239.9 4340.1 238.4 4341.6 237"/><polygon class="b" points="4569.4 192 4570.8 193.4 4569.4 194.8 4567.9 193.4 4569.4 192"/><polygon class="b" points="4082.1 227.7 4083.5 229.1 4082.1 230.6 4080.6 229.1 4082.1 227.7"/><polygon class="b" points="2067.1 343.9 2068.5 345.3 2067.1 346.8 2065.6 345.3 2067.1 343.9"/><polygon class="b" points="1935.9 351.5 1937.3 352.9 1935.9 354.3 1934.4 352.9 1935.9 351.5"/><polygon class="b" points="2046 517.1 2047.4 518.5 2046 519.9 2044.5 518.5 2046 517.1"/><polygon class="b" points="2432.2 329.5 2433.7 330.9 2432.2 332.4 2430.7 330.9 2432.2 329.5"/><polygon class="b" points="3233.2 205.3 3234.6 206.7 3233.2 208.2 3231.7 206.7 3233.2 205.3"/><polygon class="b" points="3079.1 223.9 3080.5 225.3 3079.1 226.8 3077.6 225.3 3079.1 223.9"/><polygon class="b" points="2866.7 295.8 2868.1 297.2 2866.7 298.7 2865.2 297.2 2866.7 295.8"/><polygon class="b" points="2623.4 235.5 2624.9 236.9 2623.4 238.4 2621.9 236.9 2623.4 235.5"/><polygon class="b" points="2714.8 297.7 2716.2 299.1 2714.8 300.5 2713.3 299.1 2714.8 297.7"/><polygon class="b" points="2213.7 277.7 2215.1 279.2 2213.7 280.6 2212.2 279.2 2213.7 277.7"/><polygon class="b" points="1777.1 214.5 1778.5 215.9 1777.1 217.3 1775.6 215.9 1777.1 214.5"/><polygon class="b" points="2013.1 562.5 2014.5 563.9 2013.1 565.3 2011.6 563.9 2013.1 562.5"/><polygon class="a" points="3937.9 290.4 3939.3 291.8 3937.9 293.2 3936.4 291.8 3937.9 290.4"/><polygon class="b" points="3723.8 279.7 3725.2 281.1 3723.8 282.6 3722.3 281.1 3723.8 279.7"/><polygon class="b" points="3845.6 75.6 3847 77 3845.6 78.5 3844.1 77 3845.6 75.6"/><polygon class="b" points="3621.8 141.5 3623.2 143 3621.8 144.4 3620.3 143 3621.8 141.5"/><polygon class="b" points="3880.7 350.3 3882.1 351.7 3880.7 353.2 3879.2 351.7 3880.7 350.3"/><polygon class="b" points="3974 72.2 3975.5 73.6 3974 75.1 3972.5 73.6 3974 72.2"/><polygon class="b" points="4534.1 195.7 4535.6 197.2 4534.1 198.6 4532.6 197.2 4534.1 195.7"/><polygon class="b" points="3768.4 233.2 3769.8 234.6 3768.4 236.1 3766.8 234.6 3768.4 233.2"/><polygon class="b" points="3514.2 223.4 3515.7 224.8 3514.2 226.3 3512.7 224.8 3514.2 223.4"/><polygon class="b" points="4627.9 280.2 4628.7 281 4627.9 281.8 4627.1 281 4627.9 280.2"/><polygon class="b" points="4300.1 294.5 4300.9 295.3 4300.1 296.1 4299.3 295.3 4300.1 294.5"/><polygon class="a" points="4194.9 288.4 4195.7 289.2 4194.9 290 4194.1 289.2 4194.9 288.4"/><polygon class="b" points="4911.4 190.9 4912.9 192.3 4911.4 193.8 4909.9 192.3 4911.4 190.9"/><polygon class="b" points="4743.8 177.1 4745.2 178.5 4743.8 179.9 4742.3 178.5 4743.8 177.1"/><polygon class="a" points="5013.7 297.8 5015.1 299.3 5013.7 300.7 5012.2 299.3 5013.7 297.8"/><polygon class="a" points="4491 344.4 4492.5 345.8 4491 347.2 4489.5 345.8 4491 344.4"/><polygon class="b" points="4945.3 128 4946.1 128.8 4945.3 129.5 4944.5 128.8 4945.3 128"/><polygon class="b" points="4839.1 51.9 4840.6 53.3 4839.1 54.8 4837.6 53.3 4839.1 51.9"/><polygon class="b" points="4579.6 42.6 4581 44 4579.6 45.5 4578.1 44 4579.6 42.6"/><polygon class="b" points="2564.6 158.8 2566 160.2 2564.6 161.6 2563.1 160.2 2564.6 158.8"/><polygon class="b" points="2433.4 166.4 2434.8 167.8 2433.4 169.2 2431.9 167.8 2433.4 166.4"/><polygon class="b" points="2543.5 332 2544.9 333.4 2543.5 334.8 2542 333.4 2543.5 332"/><polygon class="b" points="2853.9 243.4 2855.4 244.8 2853.9 246.3 2852.4 244.8 2853.9 243.4"/><polygon class="b" points="2929.7 144.4 2931.2 145.8 2929.7 147.3 2928.2 145.8 2929.7 144.4"/><polygon class="b" points="2700.3 183.4 2701.1 184.2 2700.3 185 2699.5 184.2 2700.3 183.4"/><polygon class="a" points="3646.5 290.5 3647.9 291.9 3646.5 293.3 3645 291.9 3646.5 290.5"/><polygon class="b" points="3730.7 20.2 3732.1 21.6 3730.7 23.1 3729.2 21.6 3730.7 20.2"/><polygon class="b" points="3576.6 38.8 3578 40.2 3576.6 41.6 3575.1 40.2 3576.6 38.8"/><polygon class="b" points="3364.2 110.7 3365.6 112.1 3364.2 113.6 3362.7 112.1 3364.2 110.7"/><polygon class="b" points="3120.9 50.4 3122.4 51.8 3120.9 53.3 3119.4 51.8 3120.9 50.4"/><polygon class="b" points="3212.3 112.6 3213.7 114 3212.3 115.4 3210.8 114 3212.3 112.6"/><polygon class="b" points="3065.3 182.6 3066.7 184.1 3065.3 185.5 3063.8 184.1 3065.3 182.6"/><polygon class="b" points="3167.4 185.6 3168.8 187.1 3167.4 188.5 3165.9 187.1 3167.4 185.6"/><polygon class="b" points="3346.3 247.4 3347.7 248.8 3346.3 250.3 3344.8 248.8 3346.3 247.4"/><polygon class="b" points="3572.5 248 3573.9 249.4 3572.5 250.8 3571 249.4 3572.5 248"/><polygon class="a" points="3374.2 321.7 3375.6 323.2 3374.2 324.6 3372.7 323.2 3374.2 321.7"/><polygon class="b" points="3148.1 258.1 3149.5 259.6 3148.1 261 3146.5 259.6 3148.1 258.1"/><polygon class="b" points="2711.2 92.6 2712.6 94.1 2711.2 95.5 2709.7 94.1 2711.2 92.6"/><polygon class="b" points="2274.6 29.4 2276 30.8 2274.6 32.2 2273.1 30.8 2274.6 29.4"/><polygon class="b" points="4480.2 343.7 4481.7 345.2 4480.2 346.6 4478.7 345.2 4480.2 343.7"/></svg>