<svg xmlns="http://www.w3.org/2000/svg" width="15361" height="1440" viewBox="0 0 15361 1440"><defs><style>.a,.b,.c,.d,.e{fill:#fff;}.a{opacity:0.78;}.b{opacity:0.5;}.c{opacity:0.34;}.d{opacity:0.29;}.e{opacity:0.6;}</style></defs><polygon class="a" points="9405.1 205.7 9403.7 207.2 9405.1 208.6 9406.7 207.2 9405.1 205.7"/><polygon class="b" points="9619.3 195.1 9617.8 196.5 9619.3 197.9 9620.8 196.5 9619.3 195.1"/><polygon class="b" points="9721.3 56.9 9719.8 58.3 9721.3 59.8 9722.8 58.3 9721.3 56.9"/><polygon class="b" points="9462.4 265.7 9460.9 267.1 9462.4 268.5 9463.9 267.1 9462.4 265.7"/><polygon class="b" points="8808.9 111.1 8807.5 112.6 8808.9 114 8810.4 112.6 8808.9 111.1"/><polygon class="b" points="9574.7 148.6 9573.3 150 9574.7 151.4 9576.2 150 9574.7 148.6"/><polygon class="b" points="9828.8 138.8 9827.4 140.2 9828.8 141.6 9830.3 140.2 9828.8 138.8"/><polygon class="b" points="8715.2 195.6 8714.4 196.4 8715.2 197.2 8716 196.4 8715.2 195.6"/><polygon class="b" points="9042.9 209.9 9042.1 210.7 9042.9 211.5 9043.8 210.7 9042.9 209.9"/><polygon class="a" points="9148.2 203.8 9147.4 204.6 9148.2 205.3 9149 204.6 9148.2 203.8"/><polygon class="b" points="8122 32.1 8120.6 33.5 8122 34.9 8123.5 33.5 8122 32.1"/><polygon class="b" points="8484.6 96.3 8483.2 97.7 8484.6 99.1 8486.1 97.7 8484.6 96.3"/><polygon class="b" points="8599.3 92.4 8597.8 93.9 8599.3 95.3 8600.8 93.9 8599.3 92.4"/><polygon class="b" points="8510.7 323 8509.3 324.4 8510.7 325.8 8512.2 324.4 8510.7 323"/><polygon class="a" points="8852 259.7 8850.6 261.2 8852 262.6 8853.5 261.2 8852 259.7"/><polygon class="b" points="8813 324.7 8811.6 326.2 8813 327.6 8814.5 326.2 8813 324.7"/><polygon class="b" points="8902 306.7 8900.6 308.2 8902 309.6 8903.5 308.2 8902 306.7"/><polygon class="b" points="8061.2 98.8 8060.4 99.6 8061.2 100.4 8062 99.6 8061.2 98.8"/><polygon class="b" points="8275.4 324.7 8274.6 325.5 8275.4 326.3 8276.2 325.5 8275.4 324.7"/><polygon class="b" points="7185.4 270.7 7183.9 272.1 7185.4 273.6 7186.9 272.1 7185.4 270.7"/><polygon class="b" points="7904.4 179.5 7902.9 181 7904.4 182.4 7905.9 181 7904.4 179.5"/><polygon class="b" points="8079.9 137.7 8078.5 139.1 8079.9 140.5 8081.4 139.1 8079.9 137.7"/><polygon class="b" points="7922.9 73.8 7921.5 75.2 7922.9 76.6 7924.4 75.2 7922.9 73.8"/><polygon class="b" points="7791.6 92.9 7790.2 94.3 7791.6 95.7 7793.1 94.3 7791.6 92.9"/><polygon class="b" points="7073.1 116.1 7071.7 117.5 7073.1 119 7074.7 117.5 7073.1 116.1"/><polygon class="b" points="6924 7.2 6922.6 8.6 6924 10.1 6925.5 8.6 6924 7.2"/><polygon class="b" points="7471.7 150 7470.3 151.4 7471.7 152.8 7473.2 151.4 7471.7 150"/><polygon class="b" points="7724.8 139.4 7723.4 140.8 7724.8 142.2 7726.3 140.8 7724.8 139.4"/><polygon class="b" points="7385.7 12.3 7384.9 13.1 7385.7 13.9 7386.5 13.1 7385.7 12.3"/><polygon class="b" points="6299.4 327.7 6297.9 329.1 6299.4 330.6 6300.9 329.1 6299.4 327.7"/><polygon class="b" points="6500.4 83.6 6499 85 6500.4 86.5 6502 85 6500.4 83.6"/><polygon class="b" points="6492.6 142.3 6491.2 143.7 6492.6 145.1 6494.1 143.7 6492.6 142.3"/><polygon class="b" points="6612.3 43.7 6610.8 45.1 6612.3 46.5 6613.8 45.1 6612.3 43.7"/><polygon class="b" points="6958.3 197.4 6956.8 198.9 6958.3 200.3 6959.8 198.9 6958.3 197.4"/><polygon class="c" points="6995.9 229.8 6994.5 231.2 6995.9 232.6 6997.4 231.2 6995.9 229.8"/><polygon class="b" points="6805.5 213.9 6804 215.3 6805.5 216.7 6807 215.3 6805.5 213.9"/><polygon class="b" points="6599.6 284.7 6598.2 286.1 6599.6 287.5 6601.1 286.1 6599.6 284.7"/><polygon class="b" points="6146.1 272.1 6144.7 273.5 6146.1 275 6147.7 273.5 6146.1 272.1"/><polygon class="b" points="6121.9 160.7 6120.5 162.1 6121.9 163.5 6123.4 162.1 6121.9 160.7"/><polygon class="b" points="6004.1 61.7 6002.7 63.1 6004.1 64.5 6005.7 63.1 6004.1 61.7"/><polygon class="b" points="6458.7 79.3 6457.9 80.1 6458.7 80.9 6459.5 80.1 6458.7 79.3"/><polygon class="b" points="6742.6 155 6741.8 155.8 6742.6 156.5 6743.4 155.8 6742.6 155"/><polygon class="b" points="6207.7 3.9 6206.2 5.3 6207.7 6.8 6209.2 5.3 6207.7 3.9"/><polygon class="b" points="6720.5 6 6719 7.4 6720.5 8.8 6722 7.4 6720.5 6"/><polygon class="b" points="8148.1 141.2 8146.7 142.7 8148.1 144.1 8149.7 142.7 8148.1 141.2"/><polygon class="b" points="10778.5 74.2 10777 75.6 10778.5 77 10780 75.6 10778.5 74.2"/><polygon class="b" points="10909.6 81.7 10908.2 83.2 10909.6 84.6 10911.1 83.2 10909.6 81.7"/><polygon class="b" points="10799.6 247.3 10798.1 248.8 10799.6 250.2 10801.1 248.8 10799.6 247.3"/><polygon class="b" points="10489.1 158.8 10487.7 160.2 10489.1 161.6 10490.6 160.2 10489.1 158.8"/><polygon class="b" points="10413.3 59.8 10411.9 61.2 10413.3 62.6 10414.8 61.2 10413.3 59.8"/><polygon class="b" points="10642.7 98.8 10641.9 99.6 10642.7 100.4 10643.6 99.6 10642.7 98.8"/><polygon class="a" points="9696.6 205.8 9695.1 207.3 9696.6 208.7 9698.1 207.3 9696.6 205.8"/><polygon class="b" points="9978.9 26.1 9977.5 27.5 9978.9 28.9 9980.4 27.5 9978.9 26.1"/><polygon class="b" points="10130.8 27.9 10129.3 29.4 10130.8 30.8 10132.3 29.4 10130.8 27.9"/><polygon class="b" points="10277.8 98 10276.3 99.4 10277.8 100.9 10279.3 99.4 10277.8 98"/><polygon class="b" points="10175.7 101 10174.2 102.4 10175.7 103.9 10177.2 102.4 10175.7 101"/><polygon class="b" points="9996.8 162.8 9995.3 164.2 9996.8 165.6 9998.3 164.2 9996.8 162.8"/><polygon class="b" points="9770.6 163.3 9769.1 164.8 9770.6 166.2 9772.1 164.8 9770.6 163.3"/><polygon class="a" points="9968.9 237.1 9967.5 238.5 9968.9 240 9970.4 238.5 9968.9 237.1"/><polygon class="b" points="10195 173.5 10193.6 174.9 10195 176.4 10196.5 174.9 10195 173.5"/><polygon class="b" points="10631.9 8 10630.4 9.4 10631.9 10.9 10633.4 9.4 10631.9 8"/><polygon class="b" points="9198.9 369.6 9197.5 371 9198.9 372.5 9200.4 371 9198.9 369.6"/><polygon class="b" points="8593.4 389 8591.9 390.5 8593.4 391.9 8594.9 390.5 8593.4 389"/><polygon class="d" points="8861.9 445.4 8860.5 446.8 8861.9 448.2 8863.4 446.8 8861.9 445.4"/><polygon class="b" points="8670.4 410.2 8669.6 411 8670.4 411.8 8671.2 411 8670.4 410.2"/><polygon class="b" points="9299.3 329.3 9297.9 330.8 9299.3 332.2 9300.8 330.8 9299.3 329.3"/><polygon class="a" points="8662.8 758.1 8661.4 759.5 8662.8 760.9 8664.3 759.5 8662.8 758.1"/><polygon class="b" points="8876.9 747.4 8875.5 748.8 8876.9 750.3 8878.4 748.8 8876.9 747.4"/><polygon class="b" points="8380.5 296.4 8379 297.9 8380.5 299.3 8382 297.9 8380.5 296.4"/><polygon class="b" points="8755.1 543.3 8753.7 544.7 8755.1 546.2 8756.7 544.7 8755.1 543.3"/><polygon class="b" points="8978.9 609.2 8977.5 610.7 8978.9 612.1 8980.4 610.7 8978.9 609.2"/><polygon class="b" points="8720 818 8718.6 819.4 8720 820.9 8721.5 819.4 8720 818"/><polygon class="b" points="8626.7 539.9 8625.3 541.3 8626.7 542.8 8628.2 541.3 8626.7 539.9"/><polygon class="b" points="8066.6 663.5 8065.2 664.9 8066.6 666.3 8068.1 664.9 8066.6 663.5"/><polygon class="b" points="8832.4 700.9 8830.9 702.3 8832.4 703.8 8833.9 702.3 8832.4 700.9"/><polygon class="b" points="9086.5 691.1 9085 692.5 9086.5 694 9088 692.5 9086.5 691.1"/><polygon class="b" points="7972.8 747.9 7972 748.7 7972.8 749.5 7973.7 748.7 7972.8 747.9"/><polygon class="b" points="8300.6 762.2 8299.8 763 8300.6 763.8 8301.4 763 8300.6 762.2"/><polygon class="a" points="8405.8 756.1 8405 756.9 8405.8 757.7 8406.7 756.9 8405.8 756.1"/><polygon class="b" points="7379.7 584.4 7378.3 585.8 7379.7 587.3 7381.2 585.8 7379.7 584.4"/><polygon class="b" points="7689.3 658.6 7687.8 660 7689.3 661.5 7690.8 660 7689.3 658.6"/><polygon class="b" points="7856.9 644.8 7855.5 646.2 7856.9 647.6 7858.4 646.2 7856.9 644.8"/><polygon class="a" points="7811 887.5 7809.6 889 7811 890.4 7812.5 889 7811 887.5"/><polygon class="b" points="7768.4 875.3 7766.9 876.8 7768.4 878.2 7769.9 876.8 7768.4 875.3"/><polygon class="a" points="8109.7 812.1 8108.3 813.5 8109.7 814.9 8111.2 813.5 8109.7 812.1"/><polygon class="b" points="8070.7 877.1 8069.3 878.5 8070.7 879.9 8072.2 878.5 8070.7 877.1"/><polygon class="b" points="8159.7 859.1 8158.3 860.5 8159.7 861.9 8161.2 860.5 8159.7 859.1"/><polygon class="b" points="7318.8 651.2 7318 652 7318.8 652.8 7319.7 652 7318.8 651.2"/><polygon class="b" points="7655.4 595.7 7654.6 596.5 7655.4 597.3 7656.2 596.5 7655.4 595.7"/><polygon class="b" points="7429 877.1 7428.3 877.9 7429 878.7 7429.9 877.9 7429 877.1"/><polygon class="e" points="6553.9 472.4 6552.5 473.8 6553.9 475.2 6555.5 473.8 6553.9 472.4"/><polygon class="b" points="6834 525.9 6832.6 527.3 6834 528.7 6835.5 527.3 6834 525.9"/><polygon class="b" points="7009.6 484 7008.2 485.4 7009.6 486.8 7011.1 485.4 7009.6 484"/><polygon class="b" points="7180.6 626.1 7179.2 627.5 7180.6 629 7182.1 627.5 7180.6 626.1"/><polygon class="b" points="7049.3 645.2 7047.8 646.6 7049.3 648.1 7050.8 646.6 7049.3 645.2"/><polygon class="b" points="6181.7 559.5 6180.3 561 6181.7 562.4 6183.2 561 6181.7 559.5"/><polygon class="b" points="6306.8 531.2 6306 532 6306.8 532.8 6307.7 532 6306.8 531.2"/><polygon class="b" points="6643.4 564.7 6642.6 565.5 6643.4 566.3 6644.2 565.5 6643.4 564.7"/><polygon class="b" points="5465.3 556.2 5463.9 557.7 5465.3 559.1 5466.9 557.7 5465.3 556.2"/><polygon class="b" points="5703.7 482.2 5702.3 483.7 5703.7 485.1 5705.2 483.7 5703.7 482.2"/><polygon class="b" points="5978.1 558.3 5976.7 559.7 5978.1 561.2 5979.7 559.7 5978.1 558.3"/><polygon class="b" points="7761.6 519.6 7760.2 521 7761.6 522.5 7763.1 521 7761.6 519.6"/><polygon class="b" points="7533.8 474.6 7532.4 476 7533.8 477.4 7535.3 476 7533.8 474.6"/><polygon class="b" points="8021.1 510.3 8019.7 511.7 8021.1 513.2 8022.7 511.7 8021.1 510.3"/><polygon class="b" points="10036.1 626.5 10034.7 627.9 10036.1 629.4 10037.6 627.9 10036.1 626.5"/><polygon class="b" points="10167.3 634.1 10165.9 635.5 10167.3 636.9 10168.8 635.5 10167.3 634.1"/><polygon class="b" points="10057.2 799.7 10055.8 801.1 10057.2 802.5 10058.7 801.1 10057.2 799.7"/><polygon class="b" points="9746.8 711.1 9745.3 712.5 9746.8 714 9748.3 712.5 9746.8 711.1"/><polygon class="b" points="9671 612.1 9669.6 613.5 9671 615 9672.5 613.5 9671 612.1"/><polygon class="b" points="9900.4 651.1 9899.6 651.9 9900.4 652.7 9901.2 651.9 9900.4 651.1"/><polygon class="a" points="8954.2 758.2 8952.8 759.6 8954.2 761 8955.7 759.6 8954.2 758.2"/><polygon class="b" points="8870.1 487.9 8868.6 489.3 8870.1 490.8 8871.6 489.3 8870.1 487.9"/><polygon class="b" points="9024.1 506.5 9022.7 507.9 9024.1 509.4 9025.6 507.9 9024.1 506.5"/><polygon class="b" points="9236.6 578.4 9235.1 579.8 9236.6 581.3 9238.1 579.8 9236.6 578.4"/><polygon class="b" points="9479.8 518.1 9478.3 519.5 9479.8 521 9481.3 519.5 9479.8 518.1"/><polygon class="b" points="9388.4 580.3 9387 581.7 9388.4 583.1 9390 581.7 9388.4 580.3"/><polygon class="b" points="9535.4 650.3 9534 651.8 9535.4 653.2 9537 651.8 9535.4 650.3"/><polygon class="b" points="9433.3 653.3 9431.9 654.8 9433.3 656.2 9434.8 654.8 9433.3 653.3"/><polygon class="b" points="9254.4 715.1 9253 716.5 9254.4 718 9256 716.5 9254.4 715.1"/><polygon class="b" points="9028.2 715.7 9026.8 717.1 9028.2 718.5 9029.7 717.1 9028.2 715.7"/><polygon class="a" points="9226.6 789.4 9225.1 790.9 9226.6 792.3 9228.1 790.9 9226.6 789.4"/><polygon class="b" points="9452.7 725.8 9451.2 727.3 9452.7 728.7 9454.2 727.3 9452.7 725.8"/><polygon class="b" points="9889.5 560.3 9888.1 561.8 9889.5 563.2 9891 561.8 9889.5 560.3"/><polygon class="b" points="10326.1 497.1 10324.7 498.5 10326.1 499.9 10327.6 498.5 10326.1 497.1"/><polygon class="b" points="8456.6 921.9 8455.2 923.4 8456.6 924.8 8458.1 923.4 8456.6 921.9"/><polygon class="b" points="7851 941.4 7849.6 942.8 7851 944.2 7852.5 942.8 7851 941.4"/><polygon class="b" points="7928 962.5 7927.3 963.3 7928 964.1 7928.9 963.3 7928 962.5"/><polygon class="b" points="8557 881.7 8555.5 883.1 8557 884.5 8558.5 883.1 8557 881.7"/><polygon class="a" points="14123.5 329.9 14122 331.3 14123.5 332.8 14125 331.3 14123.5 329.9"/><polygon class="b" points="14337.6 319.2 14336.2 320.7 14337.6 322.1 14339.1 320.7 14337.6 319.2"/><polygon class="b" points="13817.1 35.3 13815.7 36.7 13817.1 38.1 13818.7 36.7 13817.1 35.3"/><polygon class="b" points="14215.8 115.1 14214.4 116.6 14215.8 118 14217.3 116.6 14215.8 115.1"/><polygon class="b" points="14439.6 181.1 14438.2 182.5 14439.6 183.9 14441.1 182.5 14439.6 181.1"/><polygon class="b" points="14180.7 389.8 14179.3 391.3 14180.7 392.7 14182.2 391.3 14180.7 389.8"/><polygon class="b" points="14087.4 111.7 14085.9 113.2 14087.4 114.6 14088.9 113.2 14087.4 111.7"/><polygon class="b" points="13527.3 235.3 13525.8 236.7 13527.3 238.2 13528.8 236.7 13527.3 235.3"/><polygon class="b" points="14293 272.7 14291.6 274.2 14293 275.6 14294.5 274.2 14293 272.7"/><polygon class="b" points="14547.1 262.9 14545.7 264.4 14547.1 265.8 14548.7 264.4 14547.1 262.9"/><polygon class="b" points="13433.5 319.8 13432.7 320.6 13433.5 321.4 13434.3 320.6 13433.5 319.8"/><polygon class="b" points="13761.3 334 13760.5 334.8 13761.3 335.6 13762.1 334.8 13761.3 334"/><polygon class="a" points="13866.5 327.9 13865.7 328.7 13866.5 329.5 13867.3 328.7 13866.5 327.9"/><polygon class="b" points="12840.4 156.2 12838.9 157.7 12840.4 159.1 12841.9 157.7 12840.4 156.2"/><polygon class="b" points="13149.9 230.4 13148.5 231.9 13149.9 233.3 13151.5 231.9 13149.9 230.4"/><polygon class="b" points="13317.6 216.6 13316.2 218 13317.6 219.5 13319.1 218 13317.6 216.6"/><polygon class="a" points="13047.7 337.4 13046.3 338.8 13047.7 340.2 13049.2 338.8 13047.7 337.4"/><polygon class="b" points="13229 447.2 13227.6 448.6 13229 450 13230.5 448.6 13229 447.2"/><polygon class="a" points="13570.4 383.9 13568.9 385.3 13570.4 386.8 13571.9 385.3 13570.4 383.9"/><polygon class="b" points="13531.4 448.9 13529.9 450.3 13531.4 451.8 13532.9 450.3 13531.4 448.9"/><polygon class="b" points="13620.4 430.9 13618.9 432.3 13620.4 433.8 13621.9 432.3 13620.4 430.9"/><polygon class="b" points="12779.5 223 12778.7 223.8 12779.5 224.6 12780.3 223.8 12779.5 223"/><polygon class="b" points="13116 167.5 13115.3 168.3 13116 169.1 13116.9 168.3 13116 167.5"/><polygon class="b" points="12889.7 448.9 12888.9 449.7 12889.7 450.5 12890.5 449.7 12889.7 448.9"/><polygon class="b" points="11903.7 394.9 11902.3 396.3 11903.7 397.7 11905.2 396.3 11903.7 394.9"/><polygon class="e" points="12014.6 44.2 12013.2 45.6 12014.6 47.1 12016.1 45.6 12014.6 44.2"/><polygon class="b" points="12294.7 97.7 12293.3 99.1 12294.7 100.6 12296.2 99.1 12294.7 97.7"/><polygon class="b" points="12470.3 55.8 12468.8 57.3 12470.3 58.7 12471.8 57.3 12470.3 55.8"/><polygon class="b" points="12641.3 197.9 12639.8 199.4 12641.3 200.8 12642.8 199.4 12641.3 197.9"/><polygon class="b" points="12509.9 217 12508.5 218.5 12509.9 219.9 12511.4 218.5 12509.9 217"/><polygon class="b" points="11791.5 240.3 11790 241.7 11791.5 243.1 11793 241.7 11791.5 240.3"/><polygon class="b" points="11642.4 131.4 11640.9 132.8 11642.4 134.2 11643.9 132.8 11642.4 131.4"/><polygon class="b" points="12190 274.2 12188.6 275.6 12190 277 12191.5 275.6 12190 274.2"/><polygon class="b" points="12443.1 263.5 12441.7 265 12443.1 266.4 12444.7 265 12443.1 263.5"/><polygon class="b" points="11767.5 103 11766.7 103.8 11767.5 104.6 11768.3 103.8 11767.5 103"/><polygon class="b" points="12104 136.5 12103.3 137.3 12104 138.1 12104.9 137.3 12104 136.5"/><polygon class="b" points="11017.7 451.9 11016.3 453.3 11017.7 454.7 11019.2 453.3 11017.7 451.9"/><polygon class="b" points="11218.8 207.8 11217.3 209.2 11218.8 210.6 11220.3 209.2 11218.8 207.8"/><polygon class="b" points="11210.9 266.4 11209.5 267.9 11210.9 269.3 11212.5 267.9 11210.9 266.4"/><polygon class="b" points="11330.6 167.8 11329.2 169.3 11330.6 170.7 11332.1 169.3 11330.6 167.8"/><polygon class="b" points="11676.6 321.6 11675.2 323 11676.6 324.5 11678.1 323 11676.6 321.6"/><polygon class="c" points="11714.3 353.9 11712.8 355.4 11714.3 356.8 11715.8 355.4 11714.3 353.9"/><polygon class="b" points="11523.8 338 11522.4 339.5 11523.8 340.9 11525.3 339.5 11523.8 338"/><polygon class="b" points="11317.9 408.8 11316.5 410.3 11317.9 411.7 11319.4 410.3 11317.9 408.8"/><polygon class="b" points="10864.5 396.3 10863 397.7 10864.5 399.1 10866 397.7 10864.5 396.3"/><polygon class="b" points="10840.3 284.8 10838.8 286.3 10840.3 287.7 10841.8 286.3 10840.3 284.8"/><polygon class="b" points="10722.5 185.8 10721 187.3 10722.5 188.7 10724 187.3 10722.5 185.8"/><polygon class="b" points="11177 203.5 11176.3 204.3 11177 205.1 11177.9 204.3 11177 203.5"/><polygon class="b" points="11460.9 279.1 11460.1 279.9 11460.9 280.7 11461.8 279.9 11460.9 279.1"/><polygon class="b" points="10926 128.1 10924.6 129.5 10926 130.9 10927.5 129.5 10926 128.1"/><polygon class="b" points="11164.4 54.1 11162.9 55.5 11164.4 56.9 11165.9 55.5 11164.4 54.1"/><polygon class="b" points="11438.8 130.1 11437.4 131.6 11438.8 133 11440.3 131.6 11438.8 130.1"/><polygon class="b" points="13222.3 91.4 13220.8 92.9 13222.3 94.3 13223.8 92.9 13222.3 91.4"/><polygon class="b" points="12994.5 46.4 12993 47.8 12994.5 49.3 12996 47.8 12994.5 46.4"/><polygon class="b" points="13481.8 82.1 13480.4 83.6 13481.8 85 13483.3 83.6 13481.8 82.1"/><polygon class="b" points="15207.4 282.9 15206 284.4 15207.4 285.8 15209 284.4 15207.4 282.9"/><polygon class="b" points="15131.7 183.9 15130.2 185.4 15131.7 186.8 15133.2 185.4 15131.7 183.9"/><polygon class="b" points="15361.1 223 15360.3 223.8 15361.1 224.6 15361.9 223.8 15361.1 223"/><polygon class="a" points="14414.9 330 14413.5 331.4 14414.9 332.9 14416.4 331.4 14414.9 330"/><polygon class="b" points="14330.7 59.7 14329.3 61.2 14330.7 62.6 14332.2 61.2 14330.7 59.7"/><polygon class="b" points="14484.8 78.3 14483.4 79.8 14484.8 81.2 14486.3 79.8 14484.8 78.3"/><polygon class="b" points="14697.2 150.2 14695.8 151.7 14697.2 153.1 14698.7 151.7 14697.2 150.2"/><polygon class="b" points="14940.4 89.9 14939 91.4 14940.4 92.8 14942 91.4 14940.4 89.9"/><polygon class="b" points="14849.1 152.1 14847.7 153.5 14849.1 155 14850.6 153.5 14849.1 152.1"/><polygon class="b" points="14996.1 222.2 14994.7 223.6 14996.1 225 14997.6 223.6 14996.1 222.2"/><polygon class="b" points="14894 225.2 14892.6 226.6 14894 228 14895.5 226.6 14894 225.2"/><polygon class="b" points="14715.1 286.9 14713.7 288.4 14715.1 289.8 14716.6 288.4 14715.1 286.9"/><polygon class="b" points="14488.9 287.5 14487.5 288.9 14488.9 290.4 14490.4 288.9 14488.9 287.5"/><polygon class="a" points="14687.2 361.3 14685.8 362.7 14687.2 364.1 14688.7 362.7 14687.2 361.3"/><polygon class="b" points="14913.3 297.7 14911.9 299.1 14913.3 300.5 14914.8 299.1 14913.3 297.7"/><polygon class="b" points="15350.2 132.2 15348.8 133.6 15350.2 135 15351.7 133.6 15350.2 132.2"/><polygon class="b" points="13917.3 493.8 13915.8 495.2 13917.3 496.6 13918.8 495.2 13917.3 493.8"/><polygon class="b" points="13311.7 513.2 13310.3 514.6 13311.7 516.1 13313.2 514.6 13311.7 513.2"/><polygon class="d" points="13580.3 569.5 13578.8 571 13580.3 572.4 13581.8 571 13580.3 569.5"/><polygon class="b" points="13388.7 534.4 13387.9 535.2 13388.7 536 13389.5 535.2 13388.7 534.4"/><polygon class="b" points="14017.6 453.5 14016.2 454.9 14017.6 456.4 14019.2 454.9 14017.6 453.5"/><polygon class="b" points="13804.8 815.3 13803.4 816.7 13804.8 818.1 13806.3 816.7 13804.8 815.3"/><polygon class="b" points="10122.1 948.6 10120.7 950 10122.1 951.5 10123.7 950 10122.1 948.6"/><polygon class="b" points="10097.9 837.2 10096.5 838.6 10097.9 840 10099.4 838.6 10097.9 837.2"/><polygon class="b" points="9980.1 738.2 9978.7 739.6 9980.1 741 9981.7 739.6 9980.1 738.2"/><polygon class="b" points="10183.7 680.4 10182.2 681.8 10183.7 683.3 10185.2 681.8 10183.7 680.4"/><polygon class="b" points="14754.5 750.7 14753 752.1 14754.5 753.5 14756 752.1 14754.5 750.7"/><polygon class="b" points="14885.6 758.2 14884.2 759.7 14885.6 761.1 14887.1 759.7 14885.6 758.2"/><polygon class="b" points="14775.6 923.8 14774.1 925.3 14775.6 926.7 14777.1 925.3 14775.6 923.8"/><polygon class="b" points="14465.1 835.3 14463.7 836.7 14465.1 838.1 14466.6 836.7 14465.1 835.3"/><polygon class="b" points="14389.3 736.3 14387.9 737.7 14389.3 739.1 14390.8 737.7 14389.3 736.3"/><polygon class="b" points="14618.7 775.3 14617.9 776.1 14618.7 776.9 14619.6 776.1 14618.7 775.3"/><polygon class="b" points="13954.9 702.6 13953.5 704 13954.9 705.4 13956.4 704 13954.9 702.6"/><polygon class="b" points="14198.1 642.3 14196.7 643.7 14198.1 645.1 14199.6 643.7 14198.1 642.3"/><polygon class="b" points="14106.8 704.4 14105.3 705.9 14106.8 707.3 14108.3 705.9 14106.8 704.4"/><polygon class="b" points="14253.8 774.5 14252.3 775.9 14253.8 777.4 14255.3 775.9 14253.8 774.5"/><polygon class="b" points="14151.7 777.5 14150.2 778.9 14151.7 780.4 14153.2 778.9 14151.7 777.5"/><polygon class="b" points="13972.8 839.3 13971.3 840.7 13972.8 842.1 13974.3 840.7 13972.8 839.3"/><polygon class="a" points="13944.9 913.6 13943.5 915 13944.9 916.5 13946.4 915 13944.9 913.6"/><polygon class="b" points="14171 850 14169.6 851.4 14171 852.9 14172.5 851.4 14171 850"/><polygon class="b" points="14607.9 684.5 14606.4 685.9 14607.9 687.4 14609.4 685.9 14607.9 684.5"/><polygon class="b" points="15044.4 621.2 15043 622.7 15044.4 624.1 15046 622.7 15044.4 621.2"/><polygon class="a" points="4653.5 325.9 4652 327.3 4653.5 328.8 4655 327.3 4653.5 325.9"/><polygon class="b" points="4867.6 315.2 4866.2 316.7 4867.6 318.1 4869.1 316.7 4867.6 315.2"/><polygon class="b" points="4347.1 31.3 4345.7 32.7 4347.1 34.1 4348.7 32.7 4347.1 31.3"/><polygon class="b" points="4745.8 111.1 4744.4 112.6 4745.8 114 4747.3 112.6 4745.8 111.1"/><polygon class="b" points="4969.6 177.1 4968.2 178.5 4969.6 179.9 4971.1 178.5 4969.6 177.1"/><polygon class="b" points="4710.7 385.8 4709.3 387.3 4710.7 388.7 4712.2 387.3 4710.7 385.8"/><polygon class="b" points="4617.4 107.7 4615.9 109.2 4617.4 110.6 4618.9 109.2 4617.4 107.7"/><polygon class="b" points="4057.3 231.3 4055.8 232.7 4057.3 234.2 4058.8 232.7 4057.3 231.3"/><polygon class="b" points="4823 268.7 4821.6 270.2 4823 271.6 4824.5 270.2 4823 268.7"/><polygon class="b" points="5077.1 258.9 5075.7 260.4 5077.1 261.8 5078.7 260.4 5077.1 258.9"/><polygon class="b" points="3963.5 315.8 3962.7 316.6 3963.5 317.4 3964.3 316.6 3963.5 315.8"/><polygon class="b" points="4291.3 330 4290.5 330.8 4291.3 331.6 4292.1 330.8 4291.3 330"/><polygon class="a" points="4396.5 323.9 4395.7 324.7 4396.5 325.5 4397.3 324.7 4396.5 323.9"/><polygon class="b" points="3370.4 152.2 3368.9 153.7 3370.4 155.1 3371.9 153.7 3370.4 152.2"/><polygon class="b" points="3679.9 226.4 3678.5 227.9 3679.9 229.3 3681.5 227.9 3679.9 226.4"/><polygon class="b" points="3847.6 212.6 3846.2 214 3847.6 215.5 3849.1 214 3847.6 212.6"/><polygon class="a" points="3577.7 333.4 3576.3 334.8 3577.7 336.2 3579.2 334.8 3577.7 333.4"/><polygon class="b" points="3759 443.2 3757.6 444.6 3759 446 3760.5 444.6 3759 443.2"/><polygon class="a" points="4100.4 379.9 4098.9 381.3 4100.4 382.8 4101.9 381.3 4100.4 379.9"/><polygon class="b" points="4061.4 444.9 4059.9 446.3 4061.4 447.8 4062.9 446.3 4061.4 444.9"/><polygon class="b" points="4150.4 426.9 4148.9 428.3 4150.4 429.8 4151.9 428.3 4150.4 426.9"/><polygon class="b" points="3309.5 219 3308.7 219.8 3309.5 220.6 3310.3 219.8 3309.5 219"/><polygon class="b" points="3646 163.5 3645.3 164.3 3646 165.1 3646.9 164.3 3646 163.5"/><polygon class="b" points="3419.7 444.9 3418.9 445.7 3419.7 446.5 3420.5 445.7 3419.7 444.9"/><polygon class="b" points="2433.7 390.9 2432.3 392.3 2433.7 393.7 2435.2 392.3 2433.7 390.9"/><polygon class="e" points="2544.6 40.2 2543.2 41.6 2544.6 43.1 2546.1 41.6 2544.6 40.2"/><polygon class="b" points="2824.7 93.7 2823.3 95.1 2824.7 96.6 2826.2 95.1 2824.7 93.7"/><polygon class="b" points="3000.3 51.8 2998.8 53.3 3000.3 54.7 3001.8 53.3 3000.3 51.8"/><polygon class="b" points="3171.3 193.9 3169.8 195.4 3171.3 196.8 3172.8 195.4 3171.3 193.9"/><polygon class="b" points="3039.9 213 3038.5 214.5 3039.9 215.9 3041.4 214.5 3039.9 213"/><polygon class="b" points="2321.5 236.3 2320 237.7 2321.5 239.1 2323 237.7 2321.5 236.3"/><polygon class="b" points="2172.4 127.4 2170.9 128.8 2172.4 130.2 2173.9 128.8 2172.4 127.4"/><polygon class="b" points="2720 270.2 2718.6 271.6 2720 273 2721.5 271.6 2720 270.2"/><polygon class="b" points="2973.1 259.5 2971.7 261 2973.1 262.4 2974.7 261 2973.1 259.5"/><polygon class="b" points="2297.5 99 2296.7 99.8 2297.5 100.6 2298.3 99.8 2297.5 99"/><polygon class="b" points="2634 132.5 2633.3 133.3 2634 134.1 2634.9 133.3 2634 132.5"/><polygon class="b" points="1547.7 447.9 1546.3 449.3 1547.7 450.7 1549.2 449.3 1547.7 447.9"/><polygon class="b" points="1748.8 203.8 1747.3 205.2 1748.8 206.6 1750.3 205.2 1748.8 203.8"/><polygon class="b" points="1740.9 262.4 1739.5 263.9 1740.9 265.3 1742.5 263.9 1740.9 262.4"/><polygon class="b" points="1860.6 163.8 1859.2 165.3 1860.6 166.7 1862.1 165.3 1860.6 163.8"/><polygon class="b" points="2206.6 317.6 2205.2 319 2206.6 320.5 2208.1 319 2206.6 317.6"/><polygon class="c" points="2244.3 349.9 2242.8 351.4 2244.3 352.8 2245.8 351.4 2244.3 349.9"/><polygon class="b" points="2053.8 334 2052.4 335.5 2053.8 336.9 2055.3 335.5 2053.8 334"/><polygon class="b" points="1847.9 404.8 1846.5 406.3 1847.9 407.7 1849.4 406.3 1847.9 404.8"/><polygon class="b" points="1394.5 392.3 1393 393.7 1394.5 395.1 1396 393.7 1394.5 392.3"/><polygon class="b" points="1370.3 280.8 1368.8 282.3 1370.3 283.7 1371.8 282.3 1370.3 280.8"/><polygon class="b" points="1252.5 181.8 1251 183.3 1252.5 184.7 1254 183.3 1252.5 181.8"/><polygon class="b" points="1707 199.5 1706.3 200.3 1707 201.1 1707.9 200.3 1707 199.5"/><polygon class="b" points="1990.9 275.1 1990.1 275.9 1990.9 276.7 1991.8 275.9 1990.9 275.1"/><polygon class="b" points="1456 124.1 1454.6 125.5 1456 126.9 1457.5 125.5 1456 124.1"/><polygon class="b" points="1694.4 50.1 1692.9 51.5 1694.4 52.9 1695.9 51.5 1694.4 50.1"/><polygon class="b" points="1968.8 126.1 1967.4 127.6 1968.8 129 1970.3 127.6 1968.8 126.1"/><polygon class="b" points="3752.3 87.4 3750.8 88.9 3752.3 90.3 3753.8 88.9 3752.3 87.4"/><polygon class="b" points="3524.5 42.4 3523 43.8 3524.5 45.3 3526 43.8 3524.5 42.4"/><polygon class="b" points="4011.8 78.1 4010.4 79.6 4011.8 81 4013.3 79.6 4011.8 78.1"/><polygon class="b" points="6026.8 194.3 6025.4 195.8 6026.8 197.2 6028.3 195.8 6026.8 194.3"/><polygon class="b" points="6158 201.9 6156.5 203.3 6158 204.8 6159.5 203.3 6158 201.9"/><polygon class="b" points="6047.9 367.5 6046.5 368.9 6047.9 370.4 6049.4 368.9 6047.9 367.5"/><polygon class="b" points="5737.4 278.9 5736 280.4 5737.4 281.8 5739 280.4 5737.4 278.9"/><polygon class="b" points="5661.7 179.9 5660.2 181.4 5661.7 182.8 5663.2 181.4 5661.7 179.9"/><polygon class="b" points="5891.1 219 5890.3 219.8 5891.1 220.6 5891.9 219.8 5891.1 219"/><polygon class="a" points="4944.9 326 4943.5 327.4 4944.9 328.9 4946.4 327.4 4944.9 326"/><polygon class="b" points="4860.7 55.7 4859.3 57.2 4860.7 58.6 4862.2 57.2 4860.7 55.7"/><polygon class="b" points="5014.8 74.3 5013.4 75.8 5014.8 77.2 5016.3 75.8 5014.8 74.3"/><polygon class="b" points="5227.2 146.2 5225.8 147.7 5227.2 149.1 5228.7 147.7 5227.2 146.2"/><polygon class="b" points="5470.4 85.9 5469 87.4 5470.4 88.8 5472 87.4 5470.4 85.9"/><polygon class="b" points="5379.1 148.1 5377.7 149.5 5379.1 151 5380.6 149.5 5379.1 148.1"/><polygon class="b" points="5526.1 218.2 5524.7 219.6 5526.1 221 5527.6 219.6 5526.1 218.2"/><polygon class="b" points="5424 221.2 5422.6 222.6 5424 224 5425.5 222.6 5424 221.2"/><polygon class="b" points="5245.1 282.9 5243.7 284.4 5245.1 285.8 5246.6 284.4 5245.1 282.9"/><polygon class="b" points="5018.9 283.5 5017.5 284.9 5018.9 286.4 5020.4 284.9 5018.9 283.5"/><polygon class="a" points="5217.2 357.3 5215.8 358.7 5217.2 360.1 5218.7 358.7 5217.2 357.3"/><polygon class="b" points="5443.3 293.7 5441.9 295.1 5443.3 296.5 5444.8 295.1 5443.3 293.7"/><polygon class="b" points="5880.2 128.2 5878.8 129.6 5880.2 131 5881.7 129.6 5880.2 128.2"/><polygon class="b" points="6316.8 64.9 6315.3 66.3 6316.8 67.8 6318.3 66.3 6316.8 64.9"/><polygon class="b" points="4447.3 489.8 4445.8 491.2 4447.3 492.6 4448.8 491.2 4447.3 489.8"/><polygon class="b" points="4547.6 449.5 4546.2 450.9 4547.6 452.4 4549.2 450.9 4547.6 449.5"/><polygon class="e" points="1802.3 592.5 1800.8 594 1802.3 595.4 1803.8 594 1802.3 592.5"/><polygon class="b" points="1430 679.7 1428.6 681.1 1430 682.6 1431.5 681.1 1430 679.7"/><polygon class="b" points="1555.2 651.3 1554.4 652.1 1555.2 652.9 1556 652.1 1555.2 651.3"/><polygon class="b" points="805.4 1000.2 803.9 1001.6 805.4 1003.1 806.9 1001.6 805.4 1000.2"/><polygon class="b" points="1006.4 756.1 1005 757.5 1006.4 759 1008 757.5 1006.4 756.1"/><polygon class="b" points="998.6 814.8 997.2 816.2 998.6 817.6 1000.1 816.2 998.6 814.8"/><polygon class="b" points="1118.3 716.2 1116.8 717.6 1118.3 719 1119.8 717.6 1118.3 716.2"/><polygon class="b" points="1311.5 886.4 1310 887.8 1311.5 889.2 1313 887.8 1311.5 886.4"/><polygon class="b" points="1105.6 957.2 1104.2 958.6 1105.6 960 1107.1 958.6 1105.6 957.2"/><polygon class="b" points="652.1 944.6 650.7 946 652.1 947.5 653.7 946 652.1 944.6"/><polygon class="b" points="627.9 833.2 626.5 834.6 627.9 836 629.4 834.6 627.9 833.2"/><polygon class="b" points="510.1 734.2 508.7 735.6 510.1 737 511.7 735.6 510.1 734.2"/><polygon class="b" points="964.7 751.8 963.9 752.6 964.7 753.4 965.5 752.6 964.7 751.8"/><polygon class="b" points="1248.6 827.5 1247.8 828.3 1248.6 829 1249.4 828.3 1248.6 827.5"/><polygon class="b" points="713.7 676.4 712.2 677.8 713.7 679.3 715.2 677.8 713.7 676.4"/><polygon class="b" points="952 602.4 950.6 603.8 952 605.3 953.5 603.8 952 602.4"/><polygon class="b" points="1226.5 678.5 1225 679.9 1226.5 681.3 1228 679.9 1226.5 678.5"/></svg>