<svg xmlns="http://www.w3.org/2000/svg" width="15361" height="1440" viewBox="0 0 15361 1440"><defs><style>.a,.b,.c,.d,.e{fill:#fff;}.a{opacity:0.78;}.b{opacity:0.5;}.c{opacity:0.6;}.d{opacity:0.34;}.e{opacity:0.29;}</style></defs><polygon class="a" points="6197.19 301.07 6198.63 302.5 6197.19 303.93 6195.68 302.5 6197.19 301.07"/><polygon class="b" points="5983.08 290.4 5984.52 291.83 5983.08 293.27 5981.57 291.83 5983.08 290.4"/><polygon class="b" points="6503.53 6.43 6504.96 7.86 6503.53 9.29 6502.02 7.86 6503.53 6.43"/><polygon class="b" points="6104.86 86.3 6106.29 87.74 6104.86 89.17 6103.35 87.74 6104.86 86.3"/><polygon class="b" points="5881.08 152.23 5882.52 153.67 5881.08 155.1 5879.57 153.67 5881.08 152.23"/><polygon class="b" points="6139.97 361.01 6141.4 362.44 6139.97 363.88 6138.46 362.44 6139.97 361.01"/><polygon class="b" points="6233.31 82.9 6234.74 84.33 6233.31 85.77 6231.79 84.33 6233.31 82.9"/><polygon class="b" points="6793.42 206.46 6794.85 207.89 6793.42 209.32 6791.9 207.89 6793.42 206.46"/><polygon class="b" points="6027.64 243.9 6029.07 245.33 6027.64 246.77 6026.13 245.33 6027.64 243.9"/><polygon class="b" points="5773.53 234.09 5774.96 235.53 5773.53 236.96 5772.02 235.53 5773.53 234.09"/><polygon class="b" points="6887.18 290.94 6887.97 291.74 6887.18 292.53 6886.34 291.74 6887.18 290.94"/><polygon class="b" points="6559.4 305.21 6560.19 306 6559.4 306.79 6558.56 306 6559.4 305.21"/><polygon class="a" points="6454.18 299.1 6454.97 299.89 6454.18 300.68 6453.34 299.89 6454.18 299.1"/><polygon class="b" points="7480.31 127.4 7481.74 128.83 7480.31 130.27 7478.79 128.83 7480.31 127.4"/><polygon class="b" points="7170.72 201.61 7172.15 203.04 7170.72 204.47 7169.21 203.04 7170.72 201.61"/><polygon class="b" points="7003.08 187.76 7004.52 189.19 7003.08 190.63 7001.57 189.19 7003.08 187.76"/><polygon class="a" points="7272.97 308.54 7274.4 309.97 7272.97 311.4 7271.46 309.97 7272.97 308.54"/><polygon class="b" points="7091.64 418.32 7093.07 419.75 7091.64 421.18 7090.13 419.75 7091.64 418.32"/><polygon class="a" points="6750.31 355.07 6751.74 356.5 6750.31 357.93 6748.79 356.5 6750.31 355.07"/><polygon class="b" points="6789.31 420.07 6790.74 421.5 6789.31 422.93 6787.79 421.5 6789.31 420.07"/><polygon class="b" points="6700.31 402.07 6701.74 403.5 6700.31 404.93 6698.79 403.5 6700.31 402.07"/><polygon class="b" points="7541.18 194.18 7541.97 194.97 7541.18 195.76 7540.34 194.97 7541.18 194.18"/><polygon class="b" points="7204.62 138.67 7205.41 139.46 7204.62 140.25 7203.78 139.46 7204.62 138.67"/><polygon class="b" points="7430.95 420.07 7431.74 420.86 7430.95 421.65 7430.12 420.86 7430.95 420.07"/><polygon class="b" points="8416.97 366.04 8418.4 367.47 8416.97 368.9 8415.46 367.47 8416.97 366.04"/><polygon class="c" points="8306.06 15.36 8307.49 16.79 8306.06 18.22 8304.54 16.79 8306.06 15.36"/><polygon class="b" points="8025.97 68.86 8027.4 70.29 8025.97 71.72 8024.46 70.29 8025.97 68.86"/><polygon class="b" points="7850.42 26.98 7851.85 28.42 7850.42 29.85 7848.9 28.42 7850.42 26.98"/><polygon class="b" points="7679.42 169.09 7680.85 170.53 7679.42 171.96 7677.9 170.53 7679.42 169.09"/><polygon class="b" points="7810.75 188.21 7812.18 189.64 7810.75 191.07 7809.24 189.64 7810.75 188.21"/><polygon class="b" points="8529.19 211.43 8530.63 212.86 8529.19 214.29 8527.68 212.86 8529.19 211.43"/><polygon class="b" points="8678.31 102.54 8679.74 103.97 8678.31 105.41 8676.79 103.97 8678.31 102.54"/><polygon class="b" points="8130.64 245.32 8132.07 246.75 8130.64 248.18 8129.13 246.75 8130.64 245.32"/><polygon class="b" points="7877.53 234.71 7878.96 236.14 7877.53 237.57 7876.02 236.14 7877.53 234.71"/><polygon class="b" points="8553.18 74.18 8553.97 74.97 8553.18 75.76 8552.34 74.97 8553.18 74.18"/><polygon class="b" points="8216.62 107.67 8217.41 108.46 8216.62 109.25 8215.78 108.46 8216.62 107.67"/><polygon class="b" points="9302.97 423.04 9304.4 424.47 9302.97 425.9 9301.46 424.47 9302.97 423.04"/><polygon class="b" points="9101.89 178.94 9103.32 180.38 9101.89 181.81 9100.38 180.38 9101.89 178.94"/><polygon class="b" points="9109.72 237.61 9111.15 239.04 9109.72 240.47 9108.21 239.04 9109.72 237.61"/><polygon class="b" points="8990.08 138.98 8991.51 140.42 8990.08 141.85 8988.57 140.42 8990.08 138.98"/><polygon class="b" points="8644.08 292.76 8645.51 294.19 8644.08 295.63 8642.57 294.19 8644.08 292.76"/><polygon class="d" points="8606.42 325.1 8607.85 326.53 8606.42 327.96 8604.9 326.53 8606.42 325.1"/><polygon class="b" points="8796.86 309.21 8798.29 310.64 8796.86 312.07 8795.35 310.64 8796.86 309.21"/><polygon class="b" points="9002.75 379.98 9004.18 381.42 9002.75 382.85 9001.24 381.42 9002.75 379.98"/><polygon class="b" points="9456.19 367.43 9457.63 368.86 9456.19 370.29 9454.68 368.86 9456.19 367.43"/><polygon class="b" points="9480.42 255.98 9481.85 257.42 9480.42 258.85 9478.9 257.42 9480.42 255.98"/><polygon class="b" points="9598.19 156.98 9599.63 158.42 9598.19 159.85 9596.68 158.42 9598.19 156.98"/><polygon class="b" points="9143.62 174.67 9144.41 175.46 9143.62 176.25 9142.78 175.46 9143.62 174.67"/><polygon class="b" points="8859.73 250.29 8860.52 251.08 8859.73 251.88 8858.9 251.08 8859.73 250.29"/><polygon class="b" points="9394.66 99.22 9396.09 100.65 9394.66 102.08 9393.15 100.65 9394.66 99.22"/><polygon class="b" points="9156.3 25.22 9157.73 26.65 9156.3 28.08 9154.79 26.65 9156.3 25.22"/><polygon class="b" points="8881.86 101.3 8883.29 102.73 8881.86 104.17 8880.34 102.73 8881.86 101.3"/><polygon class="b" points="7098.41 62.61 7099.84 64.04 7098.41 65.47 7096.9 64.04 7098.41 62.61"/><polygon class="b" points="7326.19 17.55 7327.62 18.98 7326.19 20.42 7324.68 18.98 7326.19 17.55"/><polygon class="b" points="6838.86 53.3 6840.29 54.73 6838.86 56.17 6837.34 54.73 6838.86 53.3"/><polygon class="b" points="4823.86 169.49 4825.3 170.92 4823.86 172.35 4822.35 170.92 4823.86 169.49"/><polygon class="b" points="4692.7 177.07 4694.13 178.5 4692.7 179.93 4691.18 178.5 4692.7 177.07"/><polygon class="b" points="4802.78 342.67 4804.21 344.1 4802.78 345.53 4801.27 344.1 4802.78 342.67"/><polygon class="b" points="5113.22 254.11 5114.66 255.54 5113.22 256.98 5111.71 255.54 5113.22 254.11"/><polygon class="b" points="5189 155.11 5190.43 156.54 5189 157.97 5187.49 156.54 5189 155.11"/><polygon class="b" points="4959.59 194.15 4960.39 194.94 4959.59 195.73 4958.76 194.94 4959.59 194.15"/><polygon class="a" points="5905.78 301.17 5907.21 302.6 5905.78 304.03 5904.27 302.6 5905.78 301.17"/><polygon class="b" points="5989.95 30.9 5991.38 32.33 5989.95 33.77 5988.43 32.33 5989.95 30.9"/><polygon class="b" points="5835.86 49.48 5837.3 50.92 5835.86 52.35 5834.35 50.92 5835.86 49.48"/><polygon class="b" points="5623.45 121.4 5624.88 122.83 5623.45 124.27 5621.93 122.83 5623.45 121.4"/><polygon class="b" points="5380.22 61.11 5381.66 62.54 5380.22 63.98 5378.71 62.54 5380.22 61.11"/><polygon class="b" points="5471.56 123.28 5472.99 124.71 5471.56 126.14 5470.05 124.71 5471.56 123.28"/><polygon class="b" points="5324.56 193.33 5325.99 194.76 5324.56 196.2 5323.05 194.76 5324.56 193.33"/><polygon class="b" points="5426.67 196.33 5428.1 197.76 5426.67 199.2 5425.16 197.76 5426.67 196.33"/><polygon class="b" points="5605.56 258.11 5606.99 259.54 5605.56 260.98 5604.05 259.54 5605.56 258.11"/><polygon class="b" points="5831.78 258.67 5833.21 260.1 5831.78 261.53 5830.27 260.1 5831.78 258.67"/><polygon class="a" points="5633.45 332.44 5634.88 333.88 5633.45 335.31 5631.93 333.88 5633.45 332.44"/><polygon class="b" points="5407.33 268.83 5408.77 270.26 5407.33 271.7 5405.82 270.26 5407.33 268.83"/><polygon class="b" points="4970.47 103.34 4971.9 104.78 4970.47 106.21 4968.96 104.78 4970.47 103.34"/><polygon class="b" points="4533.89 40.07 4535.32 41.5 4533.89 42.93 4532.37 41.5 4533.89 40.07"/><polygon class="b" points="6403.42 464.93 6404.85 466.36 6403.42 467.79 6401.9 466.36 6403.42 464.93"/><polygon class="b" points="7008.97 484.37 7010.4 485.81 7008.97 487.24 7007.46 485.81 7008.97 484.37"/><polygon class="e" points="8082.42 794.71 8083.85 796.14 8082.42 797.57 8080.9 796.14 8082.42 794.71"/><polygon class="b" points="6931.95 505.54 6932.74 506.33 6931.95 507.13 6931.12 506.33 6931.95 505.54"/><polygon class="b" points="6303.03 424.68 6304.46 426.11 6303.03 427.54 6301.52 426.11 6303.03 424.68"/><polygon class="a" points="7775.19 903.07 7776.63 904.5 7775.19 905.93 7773.68 904.5 7775.19 903.07"/><polygon class="b" points="7561.08 892.4 7562.52 893.83 7561.08 895.27 7559.57 893.83 7561.08 892.4"/><polygon class="b" points="6739.53 354.43 6740.96 355.86 6739.53 357.29 6738.02 355.86 6739.53 354.43"/><polygon class="b" points="6340.86 434.3 6342.29 435.74 6340.86 437.17 6339.35 435.74 6340.86 434.3"/><polygon class="b" points="7459.08 754.23 7460.52 755.67 7459.08 757.1 7457.57 755.67 7459.08 754.23"/><polygon class="b" points="6469.31 430.9 6470.74 432.33 6469.31 433.77 6467.79 432.33 6469.31 430.9"/><polygon class="b" points="7029.42 554.46 7030.85 555.89 7029.42 557.32 7027.9 555.89 7029.42 554.46"/><polygon class="b" points="7605.64 845.9 7607.07 847.33 7605.64 848.77 7604.13 847.33 7605.64 845.9"/><polygon class="b" points="7351.53 836.1 7352.96 837.53 7351.53 838.96 7350.02 837.53 7351.53 836.1"/><polygon class="b" points="7123.18 638.94 7123.97 639.74 7123.18 640.53 7122.34 639.74 7123.18 638.94"/><polygon class="b" points="6795.4 653.21 6796.19 654 6795.4 654.79 6794.56 654 6795.4 653.21"/><polygon class="a" points="8032.18 901.1 8032.97 901.89 8032.18 902.68 8031.34 901.89 8032.18 901.1"/><polygon class="b" points="7716.31 475.4 7717.74 476.83 7716.31 478.27 7714.79 476.83 7716.31 475.4"/><polygon class="b" points="7406.72 549.61 7408.15 551.04 7406.72 552.47 7405.21 551.04 7406.72 549.61"/><polygon class="b" points="7239.08 535.76 7240.52 537.19 7239.08 538.63 7237.57 537.19 7239.08 535.76"/><polygon class="a" points="7508.97 656.54 7510.4 657.97 7508.97 659.4 7507.46 657.97 7508.97 656.54"/><polygon class="b" points="7327.64 766.32 7329.07 767.75 7327.64 769.18 7326.13 767.75 7327.64 766.32"/><polygon class="a" points="6986.31 703.07 6987.74 704.5 6986.31 705.93 6984.79 704.5 6986.31 703.07"/><polygon class="b" points="7025.31 768.07 7026.74 769.5 7025.31 770.93 7023.79 769.5 7025.31 768.07"/><polygon class="b" points="6936.31 750.07 6937.74 751.5 6936.31 752.93 6934.79 751.5 6936.31 750.07"/><polygon class="b" points="7777.18 542.18 7777.97 542.97 7777.18 543.76 7776.34 542.97 7777.18 542.18"/><polygon class="b" points="7440.62 486.67 7441.41 487.46 7440.62 488.25 7439.78 487.46 7440.62 486.67"/><polygon class="b" points="7666.95 768.07 7667.74 768.86 7666.95 769.65 7666.12 768.86 7666.95 768.07"/><polygon class="b" points="8652.97 714.04 8654.4 715.47 8652.97 716.9 8651.46 715.47 8652.97 714.04"/><polygon class="c" points="8542.06 363.36 8543.49 364.79 8542.06 366.22 8540.54 364.79 8542.06 363.36"/><polygon class="b" points="8261.97 416.86 8263.4 418.29 8261.97 419.72 8260.46 418.29 8261.97 416.86"/><polygon class="b" points="8086.42 374.98 8087.85 376.42 8086.42 377.85 8084.9 376.42 8086.42 374.98"/><polygon class="b" points="7890.42 523.1 7891.85 524.53 7890.42 525.96 7888.9 524.53 7890.42 523.1"/><polygon class="b" points="8046.75 536.21 8048.18 537.64 8046.75 539.07 8045.24 537.64 8046.75 536.21"/><polygon class="b" points="8765.19 559.43 8766.63 560.86 8765.19 562.29 8763.68 560.86 8765.19 559.43"/><polygon class="b" points="8914.31 450.54 8915.74 451.97 8914.31 453.4 8912.79 451.97 8914.31 450.54"/><polygon class="b" points="8366.64 593.32 8368.07 594.75 8366.64 596.18 8365.13 594.75 8366.64 593.32"/><polygon class="b" points="8113.53 582.71 8114.96 584.14 8113.53 585.57 8112.02 584.14 8113.53 582.71"/><polygon class="b" points="8789.18 422.18 8789.97 422.97 8789.18 423.76 8788.34 422.97 8789.18 422.18"/><polygon class="b" points="8452.62 455.67 8453.41 456.46 8452.62 457.25 8451.78 456.46 8452.62 455.67"/><polygon class="b" points="9538.97 771.04 9540.4 772.47 9538.97 773.9 9537.46 772.47 9538.97 771.04"/><polygon class="b" points="9337.89 526.94 9339.32 528.38 9337.89 529.81 9336.38 528.38 9337.89 526.94"/><polygon class="b" points="9345.72 585.61 9347.15 587.04 9345.72 588.47 9344.21 587.04 9345.72 585.61"/><polygon class="b" points="9226.08 486.98 9227.51 488.42 9226.08 489.85 9224.57 488.42 9226.08 486.98"/><polygon class="b" points="8880.08 640.76 8881.51 642.19 8880.08 643.63 8878.57 642.19 8880.08 640.76"/><polygon class="d" points="8842.42 673.1 8843.85 674.53 8842.42 675.96 8840.9 674.53 8842.42 673.1"/><polygon class="b" points="9032.86 657.21 9034.29 658.64 9032.86 660.07 9031.35 658.64 9032.86 657.21"/><polygon class="b" points="9238.75 727.98 9240.18 729.42 9238.75 730.85 9237.24 729.42 9238.75 727.98"/><polygon class="b" points="9834.19 504.98 9835.63 506.42 9834.19 507.85 9832.68 506.42 9834.19 504.98"/><polygon class="b" points="9379.62 522.67 9380.41 523.46 9379.62 524.25 9378.78 523.46 9379.62 522.67"/><polygon class="b" points="9095.73 598.29 9096.52 599.08 9095.73 599.88 9094.9 599.08 9095.73 598.29"/><polygon class="b" points="9630.66 447.22 9632.09 448.65 9630.66 450.08 9629.15 448.65 9630.66 447.22"/><polygon class="b" points="9392.3 373.22 9393.73 374.65 9392.3 376.08 9390.79 374.65 9392.3 373.22"/><polygon class="b" points="9117.86 449.3 9119.29 450.74 9117.86 452.17 9116.34 450.74 9117.86 449.3"/><polygon class="b" points="7334.41 410.61 7335.84 412.04 7334.41 413.47 7332.9 412.04 7334.41 410.61"/><polygon class="b" points="7562.19 365.55 7563.62 366.99 7562.19 368.42 7560.68 366.99 7562.19 365.55"/><polygon class="b" points="7074.86 401.3 7076.29 402.74 7074.86 404.17 7073.34 402.74 7074.86 401.3"/><polygon class="a" points="7482.78 868.17 7484.21 869.6 7482.78 871.03 7481.27 869.6 7482.78 868.17"/><polygon class="b" points="6225.95 378.9 6227.38 380.33 6225.95 381.77 6224.43 380.33 6225.95 378.9"/><polygon class="b" points="7183.56 860.11 7184.99 861.54 7183.56 862.98 7182.05 861.54 7183.56 860.11"/><polygon class="b" points="7409.78 860.67 7411.21 862.1 7409.78 863.53 7408.27 862.1 7409.78 860.67"/><polygon class="a" points="7211.45 934.44 7212.88 935.88 7211.45 937.31 7209.93 935.88 7211.45 934.44"/><polygon class="b" points="7244.97 832.37 7246.4 833.81 7244.97 835.24 7243.46 833.81 7244.97 832.37"/><polygon class="e" points="6976.42 888.71 6977.85 890.14 6976.42 891.57 6974.9 890.14 6976.42 888.71"/><polygon class="b" points="7167.95 853.54 7168.74 854.33 7167.95 855.13 7167.12 854.33 7167.95 853.54"/><polygon class="a" points="11052.69 274.96 11054.13 276.39 11052.69 277.82 11051.18 276.39 11052.69 274.96"/><polygon class="b" points="10838.58 264.29 10840.01 265.72 10838.58 267.15 10837.07 265.72 10838.58 264.29"/><polygon class="b" points="10960.36 60.19 10961.79 61.63 10960.36 63.06 10958.85 61.63 10960.36 60.19"/><polygon class="b" points="10736.58 126.12 10738.01 127.56 10736.58 128.99 10735.07 127.56 10736.58 126.12"/><polygon class="b" points="10995.47 334.9 10996.9 336.33 10995.47 337.77 10993.96 336.33 10995.47 334.9"/><polygon class="b" points="11088.81 56.79 11090.24 58.22 11088.81 59.66 11087.29 58.22 11088.81 56.79"/><polygon class="b" points="11648.92 180.34 11650.35 181.78 11648.92 183.21 11647.4 181.78 11648.92 180.34"/><polygon class="b" points="10883.14 217.79 10884.57 219.22 10883.14 220.66 10881.63 219.22 10883.14 217.79"/><polygon class="b" points="10629.03 207.98 10630.46 209.42 10629.03 210.85 10627.51 209.42 10629.03 207.98"/><polygon class="b" points="11742.68 264.83 11743.47 265.63 11742.68 266.42 11741.84 265.63 11742.68 264.83"/><polygon class="b" points="11414.9 279.1 11415.69 279.89 11414.9 280.68 11414.06 279.89 11414.9 279.1"/><polygon class="a" points="11309.68 272.99 11310.47 273.78 11309.68 274.57 11308.84 273.78 11309.68 272.99"/><polygon class="b" points="12335.81 101.29 12337.24 102.72 12335.81 104.16 12334.29 102.72 12335.81 101.29"/><polygon class="b" points="12026.22 175.5 12027.65 176.93 12026.22 178.36 12024.71 176.93 12026.22 175.5"/><polygon class="b" points="11858.58 161.65 11860.01 163.08 11858.58 164.52 11857.07 163.08 11858.58 161.65"/><polygon class="a" points="12128.47 282.43 12129.9 283.86 12128.47 285.29 12126.96 283.86 12128.47 282.43"/><polygon class="b" points="11947.14 392.21 11948.57 393.64 11947.14 395.07 11945.63 393.64 11947.14 392.21"/><polygon class="a" points="11605.81 328.96 11607.24 330.39 11605.81 331.82 11604.29 330.39 11605.81 328.96"/><polygon class="b" points="11644.81 393.96 11646.24 395.39 11644.81 396.82 11643.29 395.39 11644.81 393.96"/><polygon class="b" points="11555.81 375.96 11557.24 377.39 11555.81 378.82 11554.29 377.39 11555.81 375.96"/><polygon class="b" points="12396.68 168.07 12397.47 168.86 12396.68 169.65 12395.84 168.86 12396.68 168.07"/><polygon class="b" points="12060.12 112.56 12060.91 113.35 12060.12 114.14 12059.28 113.35 12060.12 112.56"/><polygon class="b" points="12286.45 393.96 12287.25 394.75 12286.45 395.54 12285.62 394.75 12286.45 393.96"/><polygon class="b" points="13272.47 339.93 13273.9 341.36 13272.47 342.79 13270.96 341.36 13272.47 339.93"/><polygon class="b" points="12881.47 42.75 12882.9 44.18 12881.47 45.61 12879.96 44.18 12881.47 42.75"/><polygon class="b" points="12705.92 0.87 12707.35 2.31 12705.92 3.74 12704.4 2.31 12705.92 0.87"/><polygon class="b" points="12534.92 142.98 12536.35 144.42 12534.92 145.85 12533.4 144.42 12534.92 142.98"/><polygon class="b" points="12666.25 162.09 12667.68 163.53 12666.25 164.96 12664.74 163.53 12666.25 162.09"/><polygon class="b" points="13384.69 185.32 13386.13 186.75 13384.69 188.18 13383.18 186.75 13384.69 185.32"/><polygon class="b" points="13533.81 76.43 13535.24 77.86 13533.81 79.29 13532.29 77.86 13533.81 76.43"/><polygon class="b" points="12986.14 219.21 12987.57 220.64 12986.14 222.07 12984.63 220.64 12986.14 219.21"/><polygon class="b" points="12733.03 208.59 12734.46 210.03 12733.03 211.46 12731.51 210.03 12733.03 208.59"/><polygon class="b" points="13408.68 48.07 13409.47 48.86 13408.68 49.65 13407.84 48.86 13408.68 48.07"/><polygon class="b" points="13072.12 81.56 13072.91 82.35 13072.12 83.14 13071.28 82.35 13072.12 81.56"/><polygon class="b" points="14158.47 396.93 14159.9 398.36 14158.47 399.79 14156.96 398.36 14158.47 396.93"/><polygon class="b" points="13957.39 152.83 13958.82 154.26 13957.39 155.7 13955.88 154.26 13957.39 152.83"/><polygon class="b" points="13965.22 211.5 13966.65 212.93 13965.22 214.36 13963.71 212.93 13965.22 211.5"/><polygon class="b" points="13845.58 112.87 13847.01 114.31 13845.58 115.74 13844.07 114.31 13845.58 112.87"/><polygon class="b" points="13499.58 266.65 13501.01 268.08 13499.58 269.52 13498.07 268.08 13499.58 266.65"/><polygon class="d" points="13461.92 298.98 13463.35 300.42 13461.92 301.85 13460.4 300.42 13461.92 298.98"/><polygon class="b" points="13652.36 283.1 13653.79 284.53 13652.36 285.96 13650.85 284.53 13652.36 283.1"/><polygon class="b" points="13858.25 353.87 13859.68 355.31 13858.25 356.74 13856.74 355.31 13858.25 353.87"/><polygon class="b" points="14311.69 341.32 14313.13 342.75 14311.69 344.18 14310.18 342.75 14311.69 341.32"/><polygon class="b" points="14335.92 229.87 14337.35 231.31 14335.92 232.74 14334.4 231.31 14335.92 229.87"/><polygon class="b" points="14453.69 130.87 14455.13 132.31 14453.69 133.74 14452.18 132.31 14453.69 130.87"/><polygon class="b" points="13999.12 148.56 13999.91 149.35 13999.12 150.14 13998.28 149.35 13999.12 148.56"/><polygon class="b" points="13715.23 224.18 13716.02 224.97 13715.23 225.76 13714.4 224.97 13715.23 224.18"/><polygon class="b" points="14250.16 73.11 14251.59 74.54 14250.16 75.97 14248.65 74.54 14250.16 73.11"/><polygon class="b" points="14011.8 -0.89 14013.23 0.54 14011.8 1.97 14010.29 0.54 14011.8 -0.89"/><polygon class="b" points="13737.36 75.19 13738.79 76.62 13737.36 78.06 13735.84 76.62 13737.36 75.19"/><polygon class="b" points="11953.91 36.5 11955.34 37.93 11953.91 39.36 11952.4 37.93 11953.91 36.5"/><polygon class="b" points="11694.36 27.19 11695.79 28.62 11694.36 30.06 11692.84 28.62 11694.36 27.19"/><polygon class="b" points="9679.36 143.37 9680.8 144.81 9679.36 146.24 9677.85 144.81 9679.36 143.37"/><polygon class="b" points="9548.2 150.96 9549.63 152.39 9548.2 153.82 9546.68 152.39 9548.2 150.96"/><polygon class="b" points="9658.28 316.56 9659.71 317.99 9658.28 319.42 9656.77 317.99 9658.28 316.56"/><polygon class="b" points="9968.72 228 9970.16 229.43 9968.72 230.86 9967.21 229.43 9968.72 228"/><polygon class="b" points="10044.5 129 10045.93 130.43 10044.5 131.86 10042.99 130.43 10044.5 129"/><polygon class="b" points="9815.09 168.04 9815.89 168.83 9815.09 169.62 9814.26 168.83 9815.09 168.04"/><polygon class="a" points="10761.28 275.06 10762.71 276.49 10761.28 277.92 10759.77 276.49 10761.28 275.06"/><polygon class="b" points="10845.45 4.79 10846.88 6.22 10845.45 7.66 10843.93 6.22 10845.45 4.79"/><polygon class="b" points="10691.36 23.37 10692.8 24.81 10691.36 26.24 10689.85 24.81 10691.36 23.37"/><polygon class="b" points="10478.95 95.29 10480.38 96.72 10478.95 98.16 10477.43 96.72 10478.95 95.29"/><polygon class="b" points="10235.72 35 10237.16 36.43 10235.72 37.86 10234.21 36.43 10235.72 35"/><polygon class="b" points="10327.06 97.17 10328.49 98.6 10327.06 100.03 10325.55 98.6 10327.06 97.17"/><polygon class="b" points="10180.06 167.22 10181.49 168.65 10180.06 170.09 10178.55 168.65 10180.06 167.22"/><polygon class="b" points="10282.17 170.22 10283.6 171.65 10282.17 173.09 10280.66 171.65 10282.17 170.22"/><polygon class="b" points="10461.06 232 10462.49 233.43 10461.06 234.86 10459.55 233.43 10461.06 232"/><polygon class="b" points="10687.28 232.56 10688.71 233.99 10687.28 235.42 10685.77 233.99 10687.28 232.56"/><polygon class="a" points="10488.95 306.33 10490.38 307.76 10488.95 309.2 10487.43 307.76 10488.95 306.33"/><polygon class="b" points="10262.83 242.72 10264.27 244.15 10262.83 245.59 10261.32 244.15 10262.83 242.72"/><polygon class="b" points="9825.97 77.23 9827.4 78.67 9825.97 80.1 9824.46 78.67 9825.97 77.23"/><polygon class="b" points="9389.39 13.96 9390.82 15.39 9389.39 16.82 9387.87 15.39 9389.39 13.96"/><polygon class="b" points="11258.92 438.82 11260.35 440.25 11258.92 441.68 11257.4 440.25 11258.92 438.82"/><polygon class="b" points="11864.47 458.26 11865.9 459.69 11864.47 461.13 11862.96 459.69 11864.47 458.26"/><polygon class="b" points="11787.45 479.43 11788.25 480.22 11787.45 481.01 11786.62 480.22 11787.45 479.43"/><polygon class="b" points="11158.53 398.57 11159.96 400 11158.53 401.43 11157.01 400 11158.53 398.57"/><polygon class="b" points="11595.03 328.32 11596.46 329.75 11595.03 331.18 11593.51 329.75 11595.03 328.32"/><polygon class="b" points="11196.36 408.19 11197.79 409.63 11196.36 411.06 11194.85 409.63 11196.36 408.19"/><polygon class="b" points="11324.81 404.79 11326.24 406.22 11324.81 407.65 11323.29 406.22 11324.81 404.79"/><polygon class="b" points="12571.81 449.29 12573.24 450.72 12571.81 452.15 12570.29 450.72 12571.81 449.29"/><polygon class="b" points="12262.22 523.5 12263.65 524.93 12262.22 526.36 12260.71 524.93 12262.22 523.5"/><polygon class="b" points="12094.58 509.65 12096.01 511.08 12094.58 512.52 12093.07 511.08 12094.58 509.65"/><polygon class="b" points="12632.68 516.07 12633.47 516.86 12632.68 517.65 12631.84 516.86 12632.68 516.07"/><polygon class="b" points="12296.12 460.56 12296.91 461.35 12296.12 462.14 12295.28 461.35 12296.12 460.56"/><polygon class="b" points="13508.47 687.93 13509.9 689.36 13508.47 690.79 13506.96 689.36 13508.47 687.93"/><polygon class="c" points="13397.56 337.25 13398.99 338.68 13397.56 340.11 13396.04 338.68 13397.56 337.25"/><polygon class="b" points="13117.47 390.75 13118.9 392.18 13117.47 393.61 13115.96 392.18 13117.47 390.75"/><polygon class="b" points="12941.92 348.87 12943.35 350.31 12941.92 351.74 12940.4 350.31 12941.92 348.87"/><polygon class="b" points="12770.92 490.98 12772.35 492.42 12770.92 493.85 12769.4 492.42 12770.92 490.98"/><polygon class="b" points="12902.25 510.1 12903.68 511.53 12902.25 512.96 12900.74 511.53 12902.25 510.1"/><polygon class="b" points="13620.69 533.32 13622.13 534.75 13620.69 536.18 13619.18 534.75 13620.69 533.32"/><polygon class="b" points="13769.81 424.43 13771.24 425.86 13769.81 427.29 13768.29 425.86 13769.81 424.43"/><polygon class="b" points="13644.68 396.07 13645.47 396.86 13644.68 397.65 13643.84 396.86 13644.68 396.07"/><polygon class="b" points="13308.12 429.56 13308.91 430.35 13308.12 431.14 13307.28 430.35 13308.12 429.56"/><polygon class="b" points="14394.47 744.93 14395.9 746.36 14394.47 747.79 14392.96 746.36 14394.47 744.93"/><polygon class="b" points="14193.39 500.83 14194.82 502.26 14193.39 503.7 14191.88 502.26 14193.39 500.83"/><polygon class="b" points="14201.22 559.5 14202.65 560.93 14201.22 562.36 14199.71 560.93 14201.22 559.5"/><polygon class="b" points="14081.58 460.87 14083.01 462.31 14081.58 463.74 14080.07 462.31 14081.58 460.87"/><polygon class="b" points="13735.58 614.65 13737.01 616.08 13735.58 617.52 13734.07 616.08 13735.58 614.65"/><polygon class="d" points="13697.92 646.98 13699.35 648.42 13697.92 649.85 13696.4 648.42 13697.92 646.98"/><polygon class="b" points="13888.36 631.1 13889.79 632.53 13888.36 633.96 13886.85 632.53 13888.36 631.1"/><polygon class="b" points="14094.25 701.87 14095.68 703.31 14094.25 704.74 14092.74 703.31 14094.25 701.87"/><polygon class="b" points="14547.69 689.32 14549.13 690.75 14547.69 692.18 14546.18 690.75 14547.69 689.32"/><polygon class="b" points="14571.92 577.87 14573.35 579.31 14571.92 580.74 14570.4 579.31 14571.92 577.87"/><polygon class="b" points="14689.69 478.87 14691.13 480.31 14689.69 481.74 14688.18 480.31 14689.69 478.87"/><polygon class="b" points="14235.12 496.56 14235.91 497.35 14235.12 498.14 14234.28 497.35 14235.12 496.56"/><polygon class="b" points="13951.23 572.18 13952.02 572.97 13951.23 573.76 13950.4 572.97 13951.23 572.18"/><polygon class="b" points="14486.16 421.11 14487.59 422.54 14486.16 423.97 14484.65 422.54 14486.16 421.11"/><polygon class="b" points="14247.8 347.11 14249.23 348.54 14247.8 349.97 14246.29 348.54 14247.8 347.11"/><polygon class="b" points="13973.36 423.19 13974.79 424.62 13973.36 426.06 13971.84 424.62 13973.36 423.19"/><polygon class="b" points="12189.91 384.5 12191.34 385.93 12189.91 387.36 12188.4 385.93 12189.91 384.5"/><polygon class="b" points="12417.69 339.44 12419.12 340.87 12417.69 342.31 12416.18 340.87 12417.69 339.44"/><polygon class="b" points="11930.36 375.19 11931.79 376.62 11930.36 378.06 11928.84 376.62 11930.36 375.19"/><polygon class="b" points="9915.36 491.37 9916.8 492.81 9915.36 494.24 9913.85 492.81 9915.36 491.37"/><polygon class="b" points="9784.2 498.96 9785.63 500.39 9784.2 501.82 9782.68 500.39 9784.2 498.96"/><polygon class="b" points="10280.5 477 10281.93 478.43 10280.5 479.86 10278.99 478.43 10280.5 477"/><polygon class="b" points="10051.09 516.04 10051.89 516.83 10051.09 517.62 10050.26 516.83 10051.09 516.04"/><polygon class="b" points="11081.45 352.79 11082.88 354.22 11081.45 355.66 11079.93 354.22 11081.45 352.79"/><polygon class="b" points="10927.36 371.37 10928.8 372.81 10927.36 374.24 10925.85 372.81 10927.36 371.37"/><polygon class="b" points="10714.95 443.29 10716.38 444.72 10714.95 446.16 10713.43 444.72 10714.95 443.29"/><polygon class="b" points="10471.72 383 10473.16 384.43 10471.72 385.86 10470.21 384.43 10471.72 383"/><polygon class="b" points="10563.06 445.17 10564.49 446.6 10563.06 448.03 10561.55 446.6 10563.06 445.17"/><polygon class="b" points="10416.06 515.22 10417.49 516.65 10416.06 518.09 10414.55 516.65 10416.06 515.22"/><polygon class="b" points="10518.17 518.22 10519.6 519.65 10518.17 521.09 10516.66 519.65 10518.17 518.22"/><polygon class="b" points="10061.97 425.23 10063.4 426.67 10061.97 428.1 10060.46 426.67 10061.97 425.23"/><polygon class="b" points="9625.39 361.96 9626.82 363.39 9625.39 364.82 9623.87 363.39 9625.39 361.96"/><polygon class="a" points="6694.69 115.96 6696.13 117.39 6694.69 118.82 6693.18 117.39 6694.69 115.96"/><polygon class="b" points="6480.58 105.29 6482.02 106.72 6480.58 108.16 6479.07 106.72 6480.58 105.29"/><polygon class="b" points="6880.03 319.32 6881.46 320.75 6880.03 322.18 6878.52 320.75 6880.03 319.32"/><polygon class="b" points="7070.36 533.19 7071.79 534.63 7070.36 536.06 7068.85 534.63 7070.36 533.19"/><polygon class="b" points="6846.58 599.12 6848.02 600.56 6846.58 601.99 6845.07 600.56 6846.58 599.12"/><polygon class="b" points="6637.47 175.9 6638.9 177.33 6637.47 178.77 6635.96 177.33 6637.47 175.9"/><polygon class="b" points="6609.81 395.79 6611.24 397.22 6609.81 398.65 6608.29 397.22 6609.81 395.79"/><polygon class="b" points="7290.92 21.34 7292.35 22.78 7290.92 24.21 7289.4 22.78 7290.92 21.34"/><polygon class="b" points="6525.14 58.79 6526.57 60.22 6525.14 61.66 6523.63 60.22 6525.14 58.79"/><polygon class="b" points="6271.03 48.98 6272.46 50.42 6271.03 51.85 6269.52 50.42 6271.03 48.98"/><polygon class="b" points="7384.68 105.83 7385.47 106.63 7384.68 107.42 7383.84 106.63 7384.68 105.83"/><polygon class="b" points="7056.9 120.1 7057.69 120.89 7056.9 121.68 7056.06 120.89 7056.9 120.1"/><polygon class="a" points="6951.68 113.99 6952.47 114.78 6951.68 115.57 6950.84 114.78 6951.68 113.99"/><polygon class="b" points="7856.81 440.29 7858.24 441.72 7856.81 443.15 7855.29 441.72 7856.81 440.29"/><polygon class="b" points="7668.22 16.5 7669.65 17.93 7668.22 19.36 7666.71 17.93 7668.22 16.5"/><polygon class="b" points="7500.58 2.65 7502.02 4.08 7500.58 5.52 7499.07 4.08 7500.58 2.65"/><polygon class="a" points="7770.47 123.43 7771.9 124.86 7770.47 126.29 7768.96 124.86 7770.47 123.43"/><polygon class="b" points="7589.14 233.21 7590.57 234.64 7589.14 236.07 7587.63 234.64 7589.14 233.21"/><polygon class="a" points="7247.81 169.96 7249.24 171.39 7247.81 172.82 7246.29 171.39 7247.81 169.96"/><polygon class="b" points="7286.81 234.96 7288.24 236.39 7286.81 237.82 7285.29 236.39 7286.81 234.96"/><polygon class="b" points="7197.81 216.96 7199.24 218.39 7197.81 219.82 7196.29 218.39 7197.81 216.96"/><polygon class="b" points="8038.68 9.07 8039.47 9.86 8038.68 10.65 8037.84 9.86 8038.68 9.07"/><polygon class="b" points="6781.12 582.56 6781.91 583.35 6781.12 584.14 6780.28 583.35 6781.12 582.56"/><polygon class="b" points="7928.45 234.96 7929.24 235.75 7928.45 236.54 7927.62 235.75 7928.45 234.96"/><polygon class="b" points="8914.47 180.93 8915.9 182.36 8914.47 183.79 8912.96 182.36 8914.47 180.93"/><polygon class="b" points="8308.25 3.1 8309.68 4.53 8308.25 5.96 8306.74 4.53 8308.25 3.1"/><polygon class="b" points="9026.69 26.32 9028.13 27.75 9026.69 29.18 9025.18 27.75 9026.69 26.32"/><polygon class="b" points="8628.14 60.21 8629.57 61.64 8628.14 63.07 8626.63 61.64 8628.14 60.21"/><polygon class="b" points="8375.03 49.59 8376.46 51.03 8375.03 52.46 8373.51 51.03 8375.03 49.59"/><polygon class="b" points="9800.47 237.93 9801.9 239.36 9800.47 240.79 9798.96 239.36 9800.47 237.93"/><polygon class="b" points="9607.22 52.5 9608.65 53.93 9607.22 55.36 9605.71 53.93 9607.22 52.5"/><polygon class="b" points="9141.58 107.65 9143.01 109.08 9141.58 110.52 9140.07 109.08 9141.58 107.65"/><polygon class="d" points="9103.92 139.98 9105.35 141.42 9103.92 142.85 9102.4 141.42 9103.92 139.98"/><polygon class="b" points="9294.36 124.09 9295.79 125.53 9294.36 126.96 9292.85 125.53 9294.36 124.09"/><polygon class="b" points="9500.25 194.87 9501.68 196.31 9500.25 197.74 9498.74 196.31 9500.25 194.87"/><polygon class="b" points="9953.69 182.32 9955.13 183.75 9953.69 185.18 9952.18 183.75 9953.69 182.32"/><polygon class="b" points="9977.92 70.87 9979.35 72.31 9977.92 73.74 9976.4 72.31 9977.92 70.87"/><polygon class="b" points="9357.23 65.18 9358.02 65.97 9357.23 66.76 9356.4 65.97 9357.23 65.18"/><polygon class="b" points="6674.91 506.5 6676.34 507.93 6674.91 509.36 6673.4 507.93 6674.91 506.5"/><polygon class="b" points="6902.69 461.44 6904.12 462.87 6902.69 464.31 6901.18 462.87 6902.69 461.44"/><polygon class="b" points="6415.36 497.19 6416.79 498.62 6415.36 500.06 6413.84 498.62 6415.36 497.19"/><polygon class="b" points="5300.28 157.56 5301.71 158.99 5300.28 160.42 5298.77 158.99 5300.28 157.56"/><polygon class="b" points="5610.72 69 5612.16 70.43 5610.72 71.86 5609.21 70.43 5610.72 69"/><polygon class="b" points="5457.09 9.04 5457.89 9.83 5457.09 10.62 5456.26 9.83 5457.09 9.04"/><polygon class="a" points="6403.28 116.06 6404.71 117.49 6403.28 118.92 6401.77 117.49 6403.28 116.06"/><polygon class="b" points="6955.45 477.79 6956.88 479.22 6955.45 480.66 6953.93 479.22 6955.45 477.79"/><polygon class="b" points="6801.36 496.37 6802.8 497.81 6801.36 499.24 6799.85 497.81 6801.36 496.37"/><polygon class="b" points="6834.95 376.29 6836.38 377.72 6834.95 379.16 6833.43 377.72 6834.95 376.29"/><polygon class="b" points="6591.72 316 6593.16 317.43 6591.72 318.86 6590.21 317.43 6591.72 316"/><polygon class="b" points="6683.06 378.17 6684.49 379.6 6683.06 381.03 6681.55 379.6 6683.06 378.17"/><polygon class="b" points="5822.06 8.22 5823.49 9.65 5822.06 11.09 5820.55 9.65 5822.06 8.22"/><polygon class="b" points="5924.17 11.22 5925.6 12.65 5924.17 14.09 5922.66 12.65 5924.17 11.22"/><polygon class="b" points="6103.06 73 6104.49 74.43 6103.06 75.86 6101.55 74.43 6103.06 73"/><polygon class="b" points="6329.28 73.56 6330.71 74.99 6329.28 76.42 6327.77 74.99 6329.28 73.56"/><polygon class="a" points="6130.95 147.33 6132.38 148.76 6130.95 150.2 6129.43 148.76 6130.95 147.33"/><polygon class="b" points="5904.83 83.72 5906.27 85.15 5904.83 86.59 5903.32 85.15 5904.83 83.72"/><polygon class="b" points="6900.92 279.82 6902.35 281.25 6900.92 282.68 6899.4 281.25 6900.92 279.82"/><polygon class="b" points="7506.47 299.26 7507.9 300.69 7506.47 302.13 7504.96 300.69 7506.47 299.26"/><polygon class="e" points="8579.92 609.6 8581.35 611.03 8579.92 612.46 8578.4 611.03 8579.92 609.6"/><polygon class="b" points="7429.45 320.43 7430.24 321.22 7429.45 322.01 7428.62 321.22 7429.45 320.43"/><polygon class="b" points="6800.53 239.57 6801.96 241 6800.53 242.43 6799.02 241 6800.53 239.57"/><polygon class="a" points="8272.69 717.96 8274.13 719.39 8272.69 720.82 8271.18 719.39 8272.69 717.96"/><polygon class="b" points="8058.58 707.29 8060.02 708.72 8058.58 710.15 8057.07 708.72 8058.58 707.29"/><polygon class="b" points="7237.03 169.32 7238.46 170.75 7237.03 172.18 7235.52 170.75 7237.03 169.32"/><polygon class="b" points="6838.36 249.19 6839.79 250.63 6838.36 252.06 6836.85 250.63 6838.36 249.19"/><polygon class="b" points="7956.58 569.12 7958.02 570.56 7956.58 571.99 7955.07 570.56 7956.58 569.12"/><polygon class="b" points="8215.47 777.9 8216.9 779.33 8215.47 780.77 8213.96 779.33 8215.47 777.9"/><polygon class="b" points="6966.81 245.79 6968.24 247.22 6966.81 248.66 6965.29 247.22 6966.81 245.79"/><polygon class="b" points="7526.92 369.35 7528.35 370.78 7526.92 372.21 7525.4 370.78 7526.92 369.35"/><polygon class="b" points="8103.14 660.79 8104.57 662.22 8103.14 663.65 8101.63 662.22 8103.14 660.79"/><polygon class="b" points="7849.03 650.98 7850.46 652.42 7849.03 653.85 7847.52 652.42 7849.03 650.98"/><polygon class="b" points="7620.68 453.83 7621.47 454.63 7620.68 455.42 7619.84 454.63 7620.68 453.83"/><polygon class="b" points="7292.9 468.1 7293.69 468.89 7292.9 469.68 7292.06 468.89 7292.9 468.1"/><polygon class="a" points="8529.68 715.99 8530.47 716.78 8529.68 717.57 8528.84 716.78 8529.68 715.99"/><polygon class="b" points="8213.81 290.29 8215.24 291.72 8213.81 293.15 8212.29 291.72 8213.81 290.29"/><polygon class="b" points="7895.22 370.5 7896.65 371.93 7895.22 373.36 7893.71 371.93 7895.22 370.5"/><polygon class="b" points="7736.58 350.65 7738.02 352.08 7736.58 353.52 7735.07 352.08 7736.58 350.65"/><polygon class="a" points="7990.47 141.43 7991.9 142.86 7990.47 144.29 7988.96 142.86 7990.47 141.43"/><polygon class="b" points="7825.14 581.21 7826.57 582.64 7825.14 584.07 7823.63 582.64 7825.14 581.21"/><polygon class="a" points="7483.81 517.96 7485.24 519.39 7483.81 520.82 7482.29 519.39 7483.81 517.96"/><polygon class="b" points="7522.81 582.96 7524.24 584.39 7522.81 585.82 7521.29 584.39 7522.81 582.96"/><polygon class="b" points="7433.81 564.96 7435.24 566.39 7433.81 567.82 7432.29 566.39 7433.81 564.96"/><polygon class="b" points="8274.68 357.07 8275.47 357.86 8274.68 358.65 8273.84 357.86 8274.68 357.07"/><polygon class="b" points="7897.12 154.56 7897.91 155.35 7897.12 156.14 7896.28 155.35 7897.12 154.56"/><polygon class="b" points="8164.45 582.96 8165.24 583.75 8164.45 584.54 8163.62 583.75 8164.45 582.96"/><polygon class="b" points="9150.47 528.93 9151.9 530.36 9150.47 531.79 9148.96 530.36 9150.47 528.93"/><polygon class="c" points="9039.56 178.25 9040.99 179.68 9039.56 181.11 9038.04 179.68 9039.56 178.25"/><polygon class="b" points="8759.47 231.75 8760.9 233.18 8759.47 234.61 8757.96 233.18 8759.47 231.75"/><polygon class="b" points="8583.92 189.87 8585.35 191.31 8583.92 192.74 8582.4 191.31 8583.92 189.87"/><polygon class="b" points="8412.92 331.98 8414.35 333.42 8412.92 334.85 8411.4 333.42 8412.92 331.98"/><polygon class="b" points="8544.25 351.1 8545.68 352.53 8544.25 353.96 8542.74 352.53 8544.25 351.1"/><polygon class="b" points="9262.69 374.32 9264.13 375.75 9262.69 377.18 9261.18 375.75 9262.69 374.32"/><polygon class="b" points="9411.81 265.43 9413.24 266.86 9411.81 268.29 9410.29 266.86 9411.81 265.43"/><polygon class="b" points="8864.14 408.21 8865.57 409.64 8864.14 411.07 8862.63 409.64 8864.14 408.21"/><polygon class="b" points="8611.03 397.6 8612.46 399.03 8611.03 400.46 8609.51 399.03 8611.03 397.6"/><polygon class="b" points="9286.68 237.07 9287.47 237.86 9286.68 238.65 9285.84 237.86 9286.68 237.07"/><polygon class="b" points="8950.12 270.56 8950.91 271.35 8950.12 272.14 8949.28 271.35 8950.12 270.56"/><polygon class="b" points="9835.39 341.83 9836.82 343.26 9835.39 344.7 9833.88 343.26 9835.39 341.83"/><polygon class="b" points="9843.22 400.5 9844.65 401.93 9843.22 403.36 9841.71 401.93 9843.22 400.5"/><polygon class="b" points="9723.58 301.87 9725.01 303.31 9723.58 304.74 9722.07 303.31 9723.58 301.87"/><polygon class="b" points="9377.58 455.65 9379.01 457.08 9377.58 458.52 9376.07 457.08 9377.58 455.65"/><polygon class="d" points="9339.92 487.98 9341.35 489.42 9339.92 490.85 9338.4 489.42 9339.92 487.98"/><polygon class="b" points="9530.36 472.1 9531.79 473.53 9530.36 474.96 9528.85 473.53 9530.36 472.1"/><polygon class="b" points="10213.92 418.87 10215.35 420.31 10213.92 421.74 10212.4 420.31 10213.92 418.87"/><polygon class="b" points="10331.69 319.87 10333.13 321.31 10331.69 322.74 10330.18 321.31 10331.69 319.87"/><polygon class="b" points="9877.12 337.56 9877.91 338.35 9877.12 339.14 9876.28 338.35 9877.12 337.56"/><polygon class="b" points="9593.23 413.18 9594.02 413.97 9593.23 414.76 9592.4 413.97 9593.23 413.18"/><polygon class="b" points="10128.16 262.11 10129.59 263.54 10128.16 264.97 10126.65 263.54 10128.16 262.11"/><polygon class="b" points="9889.8 188.11 9891.23 189.54 9889.8 190.97 9888.29 189.54 9889.8 188.11"/><polygon class="b" points="9615.36 264.19 9616.79 265.62 9615.36 267.06 9613.84 265.62 9615.36 264.19"/><polygon class="b" points="7831.91 225.5 7833.34 226.93 7831.91 228.36 7830.4 226.93 7831.91 225.5"/><polygon class="b" points="8059.69 180.44 8061.12 181.87 8059.69 183.31 8058.18 181.87 8059.69 180.44"/><polygon class="b" points="7572.36 216.19 7573.79 217.62 7572.36 219.06 7570.84 217.62 7572.36 216.19"/><polygon class="b" points="5557.36 332.37 5558.8 333.81 5557.36 335.24 5555.85 333.81 5557.36 332.37"/><polygon class="b" points="5426.2 339.96 5427.63 341.39 5426.2 342.82 5424.68 341.39 5426.2 339.96"/><polygon class="b" points="5922.5 318 5923.93 319.43 5922.5 320.86 5920.99 319.43 5922.5 318"/><polygon class="b" points="5693.09 357.04 5693.89 357.83 5693.09 358.62 5692.26 357.83 5693.09 357.04"/><polygon class="a" points="7980.28 683.05 7981.71 684.49 7980.28 685.92 7978.77 684.49 7980.28 683.05"/><polygon class="b" points="6723.45 193.79 6724.88 195.22 6723.45 196.66 6721.93 195.22 6723.45 193.79"/><polygon class="b" points="6569.36 212.37 6570.8 213.81 6569.36 215.24 6567.85 213.81 6569.36 212.37"/><polygon class="b" points="6356.95 284.29 6358.38 285.72 6356.95 287.16 6355.43 285.72 6356.95 284.29"/><polygon class="b" points="6113.72 224 6115.16 225.43 6113.72 226.86 6112.21 225.43 6113.72 224"/><polygon class="b" points="6205.06 286.17 6206.49 287.6 6205.06 289.03 6203.55 287.6 6205.06 286.17"/><polygon class="b" points="6058.06 356.22 6059.49 357.65 6058.06 359.09 6056.55 357.65 6058.06 356.22"/><polygon class="b" points="6160.17 359.22 6161.6 360.65 6160.17 362.09 6158.66 360.65 6160.17 359.22"/><polygon class="b" points="7681.06 675 7682.49 676.43 7681.06 677.86 7679.55 676.43 7681.06 675"/><polygon class="b" points="7907.28 675.55 7908.71 676.99 7907.28 678.42 7905.77 676.99 7907.28 675.55"/><polygon class="a" points="7708.95 749.33 7710.38 750.76 7708.95 752.2 7707.43 750.76 7708.95 749.33"/><polygon class="b" points="5703.97 266.23 5705.4 267.67 5703.97 269.1 5702.46 267.67 5703.97 266.23"/><polygon class="b" points="5267.39 202.96 5268.82 204.39 5267.39 205.82 5265.87 204.39 5267.39 202.96"/><polygon class="b" points="8478.92 881.82 8480.35 883.25 8478.92 884.68 8477.4 883.25 8478.92 881.82"/><polygon class="b" points="7742.47 647.26 7743.9 648.69 7742.47 650.13 7740.96 648.69 7742.47 647.26"/><polygon class="e" points="7473.92 703.6 7475.35 705.03 7473.92 706.46 7472.4 705.03 7473.92 703.6"/><polygon class="b" points="7665.45 668.43 7666.24 669.22 7665.45 670.01 7664.62 669.22 7665.45 668.43"/><polygon class="b" points="8378.53 841.57 8379.96 843 8378.53 844.43 8377.01 843 8378.53 841.57"/><polygon class="b" points="3361.75 180.83 3363.18 182.26 3361.75 183.7 3360.24 182.26 3361.75 180.83"/><polygon class="b" points="2963.08 260.71 2964.51 262.14 2963.08 263.57 2961.57 262.14 2963.08 260.71"/><polygon class="b" points="2739.3 326.64 2740.74 328.07 2739.3 329.5 2737.79 328.07 2739.3 326.64"/><polygon class="b" points="3091.53 257.3 3092.96 258.74 3091.53 260.17 3090.01 258.74 3091.53 257.3"/><polygon class="b" points="4338.53 301.8 4339.96 303.24 4338.53 304.67 4337.02 303.24 4338.53 301.8"/><polygon class="b" points="3861.3 362.17 3862.74 363.6 3861.3 365.03 3859.79 363.6 3861.3 362.17"/><polygon class="b" points="4062.84 313.07 4063.63 313.86 4062.84 314.65 4062.01 313.86 4062.84 313.07"/><polygon class="b" points="4537.64 343.5 4539.07 344.93 4537.64 346.36 4536.13 344.93 4537.64 343.5"/><polygon class="b" points="4668.97 362.61 4670.4 364.04 4668.97 365.47 4667.46 364.04 4668.97 362.61"/><polygon class="b" points="3956.63 237.01 3958.07 238.44 3956.63 239.88 3955.12 238.44 3956.63 237.01"/><polygon class="b" points="4184.41 191.96 4185.84 193.39 4184.41 194.82 4182.9 193.39 4184.41 191.96"/><polygon class="b" points="3697.08 227.71 3698.51 229.14 3697.08 230.57 3695.57 229.14 3697.08 227.71"/><polygon class="b" points="1682.08 343.89 1683.52 345.32 1682.08 346.75 1680.57 345.32 1682.08 343.89"/><polygon class="b" points="1550.92 351.47 1552.35 352.9 1550.92 354.34 1549.41 352.9 1550.92 351.47"/><polygon class="b" points="1661 517.07 1662.43 518.5 1661 519.93 1659.49 518.5 1661 517.07"/><polygon class="b" points="2047.22 329.51 2048.66 330.94 2047.22 332.38 2045.71 330.94 2047.22 329.51"/><polygon class="b" points="2848.17 205.31 2849.6 206.74 2848.17 208.17 2846.66 206.74 2848.17 205.31"/><polygon class="b" points="2694.08 223.89 2695.52 225.32 2694.08 226.75 2692.57 225.32 2694.08 223.89"/><polygon class="b" points="2481.67 295.81 2483.1 297.24 2481.67 298.67 2480.16 297.24 2481.67 295.81"/><polygon class="b" points="2238.45 235.51 2239.88 236.94 2238.45 238.38 2236.93 236.94 2238.45 235.51"/><polygon class="b" points="2329.78 297.68 2331.21 299.11 2329.78 300.54 2328.27 299.11 2329.78 297.68"/><polygon class="b" points="1828.69 277.75 1830.12 279.18 1828.69 280.61 1827.18 279.18 1828.69 277.75"/><polygon class="b" points="1392.11 214.47 1393.54 215.9 1392.11 217.34 1390.6 215.9 1392.11 214.47"/><polygon class="b" points="1628.11 562.47 1629.54 563.9 1628.11 565.34 1626.6 563.9 1628.11 562.47"/><polygon class="a" points="3552.92 290.36 3554.35 291.79 3552.92 293.22 3551.4 291.79 3552.92 290.36"/><polygon class="b" points="3338.8 279.69 3340.24 281.13 3338.8 282.56 3337.29 281.13 3338.8 279.69"/><polygon class="b" points="3460.58 75.59 3462.01 77.03 3460.58 78.46 3459.07 77.03 3460.58 75.59"/><polygon class="b" points="3236.8 141.53 3238.24 142.96 3236.8 144.39 3235.29 142.96 3236.8 141.53"/><polygon class="b" points="3495.69 350.3 3497.13 351.74 3495.69 353.17 3494.18 351.74 3495.69 350.3"/><polygon class="b" points="3589.03 72.19 3590.46 73.63 3589.03 75.06 3587.51 73.63 3589.03 72.19"/><polygon class="b" points="4149.14 195.75 4150.57 197.18 4149.14 198.61 4147.63 197.18 4149.14 195.75"/><polygon class="b" points="3383.36 233.19 3384.79 234.63 3383.36 236.06 3381.85 234.63 3383.36 233.19"/><polygon class="b" points="3129.25 223.39 3130.68 224.82 3129.25 226.25 3127.74 224.82 3129.25 223.39"/><polygon class="b" points="4242.9 280.24 4243.69 281.03 4242.9 281.82 4242.06 281.03 4242.9 280.24"/><polygon class="b" points="3915.12 294.5 3915.91 295.29 3915.12 296.08 3914.28 295.29 3915.12 294.5"/><polygon class="a" points="3809.9 288.39 3810.69 289.18 3809.9 289.97 3809.06 289.18 3809.9 288.39"/><polygon class="b" points="4526.44 190.9 4527.88 192.33 4526.44 193.77 4524.93 192.33 4526.44 190.9"/><polygon class="b" points="4358.81 177.05 4360.24 178.49 4358.81 179.92 4357.29 178.49 4358.81 177.05"/><polygon class="a" points="4628.69 297.83 4630.13 299.26 4628.69 300.7 4627.18 299.26 4628.69 297.83"/><polygon class="a" points="4106.03 344.36 4107.46 345.79 4106.03 347.22 4104.52 345.79 4106.03 344.36"/><polygon class="b" points="4560.34 127.96 4561.13 128.75 4560.34 129.54 4559.51 128.75 4560.34 127.96"/><polygon class="b" points="4454.13 51.9 4455.57 53.33 4454.13 54.77 4452.62 53.33 4454.13 51.9"/><polygon class="b" points="4194.58 42.59 4196.01 44.03 4194.58 45.46 4193.07 44.03 4194.58 42.59"/><polygon class="b" points="2179.58 158.78 2181.02 160.21 2179.58 161.64 2178.07 160.21 2179.58 158.78"/><polygon class="b" points="2048.42 166.36 2049.85 167.79 2048.42 169.22 2046.91 167.79 2048.42 166.36"/><polygon class="b" points="2158.5 331.96 2159.93 333.39 2158.5 334.82 2156.99 333.39 2158.5 331.96"/><polygon class="b" points="2468.95 243.4 2470.38 244.83 2468.95 246.27 2467.43 244.83 2468.95 243.4"/><polygon class="b" points="2544.72 144.4 2546.16 145.83 2544.72 147.27 2543.21 145.83 2544.72 144.4"/><polygon class="b" points="2315.32 183.44 2316.11 184.23 2315.32 185.02 2314.48 184.23 2315.32 183.44"/><polygon class="a" points="3261.5 290.46 3262.93 291.89 3261.5 293.32 3259.99 291.89 3261.5 290.46"/><polygon class="b" points="3345.67 20.19 3347.1 21.63 3345.67 23.06 3344.16 21.63 3345.67 20.19"/><polygon class="b" points="3191.58 38.78 3193.02 40.21 3191.58 41.64 3190.07 40.21 3191.58 38.78"/><polygon class="b" points="2979.17 110.69 2980.6 112.13 2979.17 113.56 2977.66 112.13 2979.17 110.69"/><polygon class="b" points="2735.95 50.4 2737.38 51.83 2735.95 53.27 2734.43 51.83 2735.95 50.4"/><polygon class="b" points="2827.28 112.57 2828.71 114 2827.28 115.43 2825.77 114 2827.28 112.57"/><polygon class="b" points="2680.28 182.62 2681.71 184.06 2680.28 185.49 2678.77 184.06 2680.28 182.62"/><polygon class="b" points="2782.39 185.62 2783.82 187.06 2782.39 188.49 2780.88 187.06 2782.39 185.62"/><polygon class="b" points="2961.28 247.4 2962.71 248.83 2961.28 250.27 2959.77 248.83 2961.28 247.4"/><polygon class="b" points="3187.5 247.96 3188.93 249.39 3187.5 250.82 3185.99 249.39 3187.5 247.96"/><polygon class="a" points="2989.17 321.74 2990.6 323.17 2989.17 324.6 2987.66 323.17 2989.17 321.74"/><polygon class="b" points="2763.06 258.12 2764.49 259.56 2763.06 260.99 2761.55 259.56 2763.06 258.12"/><polygon class="b" points="2326.19 92.64 2327.62 94.07 2326.19 95.5 2324.68 94.07 2326.19 92.64"/><polygon class="b" points="1889.61 29.36 1891.04 30.79 1889.61 32.22 1888.1 30.79 1889.61 29.36"/><polygon class="b" points="4095.25 343.72 4096.68 345.15 4095.25 346.58 4093.74 345.15 4095.25 343.72"/></svg>