<svg xmlns="http://www.w3.org/2000/svg" width="15361" height="1440" viewBox="0 0 15361 1440"><defs><style>.a{fill:#13181c;}.b,.f{fill:#01579b;}.c,.d,.e,.g,.h{fill:none;}.c,.d,.e,.f,.g,.h{stroke:#01579b;stroke-miterlimit:10;}.c{stroke-width:10px;}.d,.e{stroke-width:4px;}.e{stroke-linecap:round;}.g{stroke-width:3px;}.h{stroke-width:6px;}</style></defs><path class="a" d="M9329.4,1045.5H9224.1a4.7,4.7,0,0,0-1.7.3l-43.7,14.5a5.5,5.5,0,0,0-3.8,5.2v17.2a5.5,5.5,0,0,1-5.6,5.5H9006.4l-1.3.2-36.2,9.1a5.6,5.6,0,0,0-4.2,5.4v278.5a5.5,5.5,0,0,1-5.5,5.5h-5.3a5.4,5.4,0,0,1-5.5-5.5V1236.6a5.6,5.6,0,0,0-5.6-5.5H8804.1a5.5,5.5,0,0,0-5.5,5.5v151.8a5.5,5.5,0,0,1-5.6,5.5h-34.9a5.5,5.5,0,0,1-5.6-5.5V1279.3a5.5,5.5,0,0,0-5.5-5.5H8461.8a5.5,5.5,0,0,0-5.5,5.5v81.1a5.5,5.5,0,0,1-5.5,5.5H8122.6a5.6,5.6,0,0,1-5.6-5.5v-2.3a5.4,5.4,0,0,0-5.5-5.5h-98a5.5,5.5,0,0,1-5.5-5.6v-77.7a5.6,5.6,0,0,0-5.6-5.5H7658.2a5.5,5.5,0,0,0-5.5,5.5v119.1a5.5,5.5,0,0,1-5.6,5.5h-69a5.5,5.5,0,0,1-5.5-5.5V1282a5.5,5.5,0,0,0-2.7-4.8l-33-19.6a4.8,4.8,0,0,0-2.8-.8h-75a5.6,5.6,0,0,0-5.6,5.5v111.4a5.6,5.6,0,0,1-5.5,5.6h-21a5.6,5.6,0,0,1-5.5-5.6v-91.5a5.6,5.6,0,0,0-4.3-5.4l-99.2-21.9h-75.1a5.5,5.5,0,0,0-5.5,5.5v52a5.6,5.6,0,0,1-5.6,5.6h-125a5.5,5.5,0,0,0-5.6,5.5v2.3a5.5,5.5,0,0,1-5.5,5.5h-63a5.5,5.5,0,0,0-5.5,5.5v51.7a5.5,5.5,0,0,1-5.5,5.5H6913.6a5.5,5.5,0,0,1-5.5-5.5V1195.2a5.5,5.5,0,0,0-5.5-5.5h-58a5.6,5.6,0,0,1-5.6-5.5v-13a5.4,5.4,0,0,0-5.5-5.5h-65a5.5,5.5,0,0,0-5.5,5.5v9a5.6,5.6,0,0,1-5.6,5.5h-10.9a5.5,5.5,0,0,1-5.5-5.5V1070.4a5.6,5.6,0,0,0-5.6-5.5h-49a5.5,5.5,0,0,1-5.5-5.5v-12.7a5.5,5.5,0,0,0-2.7-4.8l-28-16.6a5.7,5.7,0,0,0-2.8-.8h-41a5.5,5.5,0,0,0-5.5,5.5v29.4a5.6,5.6,0,0,1-5.6,5.5h-111a5.5,5.5,0,0,0-5.5,5.5v129.8a5.6,5.6,0,0,1-5.6,5.5h-165a5.6,5.6,0,0,1-5.6-5.5v-35a5.4,5.4,0,0,0-4.1-5.3l-33.2-9.1h-32.2a5.4,5.4,0,0,0-5.5,5.5v177.5a5.6,5.6,0,0,1-5.6,5.5h-86a5.5,5.5,0,0,1-5.5-5.5v-30.3a5.6,5.6,0,0,0-5.5-5.6h-72a5.6,5.6,0,0,0-5.6,5.6v60a5.5,5.5,0,0,1-5.5,5.5h-74a5.5,5.5,0,0,1-5.5-5.5v-76.9a5.5,5.5,0,0,0-3-4.9l-37.9-20.2a5.8,5.8,0,0,0-2.6-.6h-73.1a5.5,5.5,0,0,0-5.5,5.5v115.4a5.6,5.6,0,0,1-5.6,5.6h-16.9a5.6,5.6,0,0,1-5.6-5.6v-96.6a5.4,5.4,0,0,0-4.2-5.3l-99.2-24.9h-79.2a5.5,5.5,0,0,0-5.5,5.5V1315a5.5,5.5,0,0,1-5.5,5.5H5506V1441h5124v-73.8h-69.7a5.5,5.5,0,0,1-5.5-6.2c1.4-10.6,3.6-31.1-.9-31.1H10448a5.5,5.5,0,0,0-5.5,6c.9,9.6,2.3,27-.6,27h-53.6a5.5,5.5,0,0,1-5.5-5.5V1254.8a5.5,5.5,0,0,0-5.5-5.5h-113.7l-69.5,11.4a5.4,5.4,0,0,1-6.4-5.4v-80a5.6,5.6,0,0,0-5.6-5.6h-36.6a5.4,5.4,0,0,0-2.8.8l-17.4,10.1a5.5,5.5,0,0,0-2.7,4.8v32.1a5.5,5.5,0,0,1-4.1,5.3l-46,12.1a5.4,5.4,0,0,1-6.9-5.3v-18.4a5.6,5.6,0,0,0-5.6-5.5h-34.9a5.6,5.6,0,0,0-5.6,5.5v148.2a5.5,5.5,0,0,1-5.5,5.5h-17a5.5,5.5,0,0,1-5.5-5.5v-16a5.5,5.5,0,0,0-5.5-5.5h-71a5.6,5.6,0,0,0-5.6,5.5v20a5.5,5.5,0,0,1-5.5,5.5h-53a5.5,5.5,0,0,1-5.5-5.5v-49a5.6,5.6,0,0,0-5.5-5.6H9714.8l-17,3.1a5.6,5.6,0,0,0-4.5,5.5v46.9a5.6,5.6,0,0,1-5.6,5.5h-88a5.5,5.5,0,0,1-5.5-5.5v-78.1a5.5,5.5,0,0,0-5.5-5.5h-25a5.5,5.5,0,0,0-5.5,5.5v81.1a5.6,5.6,0,0,1-5.6,5.5h-33.9a5.6,5.6,0,0,1-5.6-5.5v-40a5.4,5.4,0,0,0-5.5-5.5h-169a5.6,5.6,0,0,1-5.6-5.6l1.9-265.2A5.4,5.4,0,0,0,9329.4,1045.5Z"/><path class="a" d="M4207.2,1045.1H4102.6a6.3,6.3,0,0,0-1.9.3l-43.2,14.3a6.1,6.1,0,0,0-4.2,5.8v16.2a6.1,6.1,0,0,1-6.2,6.1H3885l-1.5.2-35.7,9a6.2,6.2,0,0,0-4.6,6v277.7a6.2,6.2,0,0,1-6.2,6.2h-4a6.2,6.2,0,0,1-6.2-6.2V1237a6.1,6.1,0,0,0-6.1-6.2H3683.3a6.2,6.2,0,0,0-6.2,6.2v150.7a6.2,6.2,0,0,1-6.2,6.2h-33.7a6.1,6.1,0,0,1-6.1-6.2V1279.8a6.2,6.2,0,0,0-6.2-6.2H3341.1a6.2,6.2,0,0,0-6.2,6.2v79.9a6.1,6.1,0,0,1-6.1,6.1H3001.9a6.1,6.1,0,0,1-6.1-6.1v-1.1a6.1,6.1,0,0,0-6.2-6.1h-96.7a6.2,6.2,0,0,1-6.2-6.2v-76.6a6.1,6.1,0,0,0-6.1-6.1H2537.7a6.1,6.1,0,0,0-6.2,6.1v118a6.1,6.1,0,0,1-6.1,6.2h-67.7a6.2,6.2,0,0,1-6.2-6.2V1282.1a6,6,0,0,0-3-5.3l-32.6-19.4a6.5,6.5,0,0,0-3.1-.8h-74.2a6.1,6.1,0,0,0-6.1,6.1V1373a6.2,6.2,0,0,1-6.2,6.2h-19.7a6.2,6.2,0,0,1-6.2-6.2v-90.4a6.3,6.3,0,0,0-4.8-6.1l-98.6-21.8h-74.5a6.1,6.1,0,0,0-6.2,6.1v50.8a6.1,6.1,0,0,1-6.1,6.2H1986.4a6.1,6.1,0,0,0-6.1,6.2v1a6.2,6.2,0,0,1-6.2,6.2h-61.7a6.1,6.1,0,0,0-6.2,6.1v50.5a6.1,6.1,0,0,1-6.1,6.2H1793.3a6.1,6.1,0,0,1-6.1-6.2V1195.6a6.2,6.2,0,0,0-6.2-6.2h-56.7a6.1,6.1,0,0,1-6.1-6.2v-11.7a6.2,6.2,0,0,0-6.2-6.2h-63.7a6.2,6.2,0,0,0-6.2,6.2v7.7a6.1,6.1,0,0,1-6.1,6.2h-9.7a6.2,6.2,0,0,1-6.2-6.2V1070.6a6.2,6.2,0,0,0-6.2-6.2h-47.7a6.1,6.1,0,0,1-6.1-6.1v-11.8a6.2,6.2,0,0,0-3-5.2l-27.6-16.4a5.6,5.6,0,0,0-3.1-.9h-40.2a6.2,6.2,0,0,0-6.2,6.2v28.1a6.1,6.1,0,0,1-6.1,6.1H1364.1a6.1,6.1,0,0,0-6.1,6.2v128.7a6.1,6.1,0,0,1-6.2,6.1H1188a6.1,6.1,0,0,1-6.1-6.1v-33.9a6.3,6.3,0,0,0-4.6-6l-32.6-8.9-1.7-.2h-30a6.1,6.1,0,0,0-6.1,6.2v176.4a6.2,6.2,0,0,1-6.2,6.2H1016a6.2,6.2,0,0,1-6.2-6.2v-29.1a6.1,6.1,0,0,0-6.2-6.1H932.9a6.1,6.1,0,0,0-6.1,6.1v58.9a6.1,6.1,0,0,1-6.2,6.1H847.9a6.1,6.1,0,0,1-6.2-6.1v-76a6.2,6.2,0,0,0-3.2-5.5l-37.4-19.9a5.9,5.9,0,0,0-2.9-.7H725.8a6.1,6.1,0,0,0-6.1,6.1V1381a6.2,6.2,0,0,1-6.2,6.2H697.8a6.2,6.2,0,0,1-6.2-6.2v-95.6a6.2,6.2,0,0,0-4.6-6l-98.7-24.7H509.7a6.1,6.1,0,0,0-6.1,6.1v53.5a6.2,6.2,0,0,1-6.2,6.2H0V1441H5508v-73.8h-76s6-37.5,0-37.5H5326.8a6.3,6.3,0,0,0-6.2,6.8c1,9.6,2.1,26.3-.7,26.3H5267a6.1,6.1,0,0,1-6.1-6.1V1255.2a6.2,6.2,0,0,0-6.2-6.2h-113l-68.8,11.3a6.2,6.2,0,0,1-7.1-6.1v-78.7a6.2,6.2,0,0,0-6.2-6.2h-35.8a6.5,6.5,0,0,0-3.1.8l-16.9,9.9a6,6,0,0,0-3,5.3v31.3a6.2,6.2,0,0,1-4.6,6l-44.7,11.8a6.2,6.2,0,0,1-7.8-6v-16.9a6.1,6.1,0,0,0-6.1-6.2h-33.7a6.2,6.2,0,0,0-6.2,6.2v147.1a6.1,6.1,0,0,1-6.2,6.1h-15.7a6.1,6.1,0,0,1-6.1-6.1v-14.8a6.1,6.1,0,0,0-6.2-6.1h-69.7a6.1,6.1,0,0,0-6.2,6.1v18.8a6.1,6.1,0,0,1-6.1,6.1h-51.7a6.1,6.1,0,0,1-6.2-6.1v-47.9a6.1,6.1,0,0,0-6.1-6.1H4593l-16.4,3a6.2,6.2,0,0,0-5.1,6v45.9a6.1,6.1,0,0,1-6.1,6.1h-86.7a6.1,6.1,0,0,1-6.2-6.1v-76.9a6.2,6.2,0,0,0-6.2-6.2h-23.7a6.1,6.1,0,0,0-6.1,6.2v79.9a6.1,6.1,0,0,1-6.2,6.1h-32.7a6.1,6.1,0,0,1-6.1-6.1v-38.8a6.2,6.2,0,0,0-6.2-6.2H4217.6a6.2,6.2,0,0,1-6.2-6.2l1.9-264.2A6.1,6.1,0,0,0,4207.2,1045.1Z"/><path class="a" d="M14446.8,1045.2h-105.2a5.5,5.5,0,0,0-1.8.2l-43.7,14.6a5.6,5.6,0,0,0-3.8,5.2v17.4a5.4,5.4,0,0,1-5.4,5.5H14124l-1.3.2-36.2,9.2a5.4,5.4,0,0,0-4.2,5.3v280.3a5.4,5.4,0,0,1-5.4,5.5h-5.4a5.5,5.5,0,0,1-5.5-5.5V1237.3a5.5,5.5,0,0,0-5.5-5.5h-138.7a5.5,5.5,0,0,0-5.5,5.5v152.9a5.5,5.5,0,0,1-5.4,5.5h-35.1a5.5,5.5,0,0,1-5.5-5.5V1280.3a5.4,5.4,0,0,0-5.4-5.5h-285.1a5.5,5.5,0,0,0-5.5,5.5V1362a5.5,5.5,0,0,1-5.4,5.5h-328.1a5.5,5.5,0,0,1-5.5-5.5v-2.5a5.5,5.5,0,0,0-5.4-5.5h-98.1a5.5,5.5,0,0,1-5.5-5.4v-78.4a5.5,5.5,0,0,0-5.4-5.5h-344.1a5.5,5.5,0,0,0-5.5,5.5v120a5.5,5.5,0,0,1-5.4,5.5h-69.1a5.5,5.5,0,0,1-5.5-5.5V1282.9a5.6,5.6,0,0,0-2.6-4.7l-33.1-19.7a4.6,4.6,0,0,0-2.8-.8h-75a5.5,5.5,0,0,0-5.5,5.4v112.3a5.5,5.5,0,0,1-5.4,5.5h-21.1a5.5,5.5,0,0,1-5.5-5.5v-92.2a5.3,5.3,0,0,0-4.3-5.3l-99.1-22.1h-75.1a5.5,5.5,0,0,0-5.5,5.4v52.5a5.4,5.4,0,0,1-5.4,5.5h-125.1a5.5,5.5,0,0,0-5.5,5.5v2.5a5.4,5.4,0,0,1-5.4,5.4h-63.1a5.5,5.5,0,0,0-5.5,5.5v52.2a5.5,5.5,0,0,1-5.4,5.5h-108.1a5.5,5.5,0,0,1-5.5-5.5V1195.7a5.4,5.4,0,0,0-5.4-5.5h-58.1a5.5,5.5,0,0,1-5.5-5.5v-13.2a5.5,5.5,0,0,0-5.4-5.5h-65.1a5.5,5.5,0,0,0-5.5,5.5v9.2a5.5,5.5,0,0,1-5.4,5.5h-11.1a5.5,5.5,0,0,1-5.5-5.5V1070.1a5.5,5.5,0,0,0-5.4-5.5h-49.1a5.5,5.5,0,0,1-5.5-5.5v-12.9a5.6,5.6,0,0,0-2.6-4.7l-28.1-16.7a5.4,5.4,0,0,0-2.8-.8h-41a5.5,5.5,0,0,0-5.5,5.5v29.6a5.4,5.4,0,0,1-5.4,5.5h-111.1a5.5,5.5,0,0,0-5.5,5.5v130.7a5.4,5.4,0,0,1-5.4,5.5h-165.1a5.5,5.5,0,0,1-5.5-5.5v-35.3a5.5,5.5,0,0,0-4-5.3l-33.3-9.1-1.4-.2h-30.8a5.5,5.5,0,0,0-5.5,5.5v178.7a5.5,5.5,0,0,1-5.4,5.5h-86.1a5.5,5.5,0,0,1-5.5-5.5v-30.7a5.4,5.4,0,0,0-5.4-5.4h-72.1a5.5,5.5,0,0,0-5.5,5.4V1365a5.5,5.5,0,0,1-5.4,5.5h-74.1a5.5,5.5,0,0,1-5.5-5.5v-77.5a5.6,5.6,0,0,0-2.9-4.9l-37.9-20.2a4.5,4.5,0,0,0-2.5-.7h-73.2a5.5,5.5,0,0,0-5.5,5.5v116.3a5.4,5.4,0,0,1-5.4,5.4h-17.1a5.5,5.5,0,0,1-5.5-5.4v-97.4a5.5,5.5,0,0,0-4.1-5.3l-99.2-25h-79.2a5.5,5.5,0,0,0-5.5,5.4v55.2a5.5,5.5,0,0,1-5.4,5.5h-112.6V1443H15312a7.1,7.1,0,0,0,7.1-7.4h0a7,7,0,0,0-5.7-6.8l-45.5-9.4a6.8,6.8,0,0,1-4.5-3c-9.6-14.2-57.7-85.2-63.1-85.2h-29a12.7,12.7,0,0,0-12.7,13.6c.7,9.2,1,19.6-1.3,19.6h-3.3a12.6,12.6,0,0,1-12.7-12.6v-89a12.6,12.6,0,0,0-12.6-12.7h-5l-2.1.2-68.9,11.4a5.6,5.6,0,0,1-6.4-5.4v-80.7a5.4,5.4,0,0,0-5.4-5.5h-36.7a6.4,6.4,0,0,0-2.8.7L14984,1181a5.7,5.7,0,0,0-2.7,4.8v32.4a5.4,5.4,0,0,1-4,5.3l-46.1,12.2a5.5,5.5,0,0,1-6.9-5.3v-18.6a5.5,5.5,0,0,0-5.4-5.5h-35.1a5.5,5.5,0,0,0-5.5,5.5V1361a5.5,5.5,0,0,1-5.4,5.5h-17.1a5.5,5.5,0,0,1-5.5-5.5v-16.3a5.4,5.4,0,0,0-5.4-5.4h-71.1a5.5,5.5,0,0,0-5.5,5.4V1365a5.5,5.5,0,0,1-5.4,5.5h-53.1a5.5,5.5,0,0,1-5.5-5.5v-49.5a5.5,5.5,0,0,0-5.4-5.5h-20.1l-17,3.2a5.4,5.4,0,0,0-4.5,5.3V1366a5.5,5.5,0,0,1-5.4,5.5h-88.1a5.5,5.5,0,0,1-5.5-5.5v-78.7a5.5,5.5,0,0,0-5.4-5.5h-25.1a5.5,5.5,0,0,0-5.5,5.5V1369a5.4,5.4,0,0,1-5.4,5.5h-34.1a5.5,5.5,0,0,1-5.5-5.5v-40.4a5.5,5.5,0,0,0-5.4-5.5h-16.1a5.4,5.4,0,0,1-5.4-5.5l1.9-266.9A5.4,5.4,0,0,0,14446.8,1045.2Z"/><path class="b" d="M8602,1309l67-.5s19-1.2,17,14.8-8,45-8,45-4,10.8-16,11.4-56,.3-56,.3"/><path class="b" d="M8608,1309h-63s-19-1.2-17,14.8,8,45,8,45,4,10.8,16,11.4,97-.2,97-.2"/><rect class="b" x="8819.8" y="1254.1" width="108" height="17" rx="1.7"/><rect class="b" x="8819.8" y="1328.1" width="108" height="17" rx="1.1"/><path class="b" d="M9032,1143.1h117.5a2.3,2.3,0,0,1,2.3,2.3v69.3a2.4,2.4,0,0,1-2.4,2.4H9032.2a2.4,2.4,0,0,1-2.4-2.4v-69.3A2.3,2.3,0,0,1,9032,1143.1Z"/><path class="b" d="M9064.3,1125h52.3a3.3,3.3,0,0,1,3.3,3.3V1144a0,0,0,0,1,0,0h-59a0,0,0,0,1,0,0v-15.7A3.3,3.3,0,0,1,9064.3,1125Z"/><path class="b" d="M9111.1,1126h-41.2c-1,0-1.9,2.1-1.9,1.1v-10.2a2,2,0,0,1,1.9-1.9h41.2a2,2,0,0,1,1.9,1.9v10.2C9113,1128.1,9112.1,1126,9111.1,1126Z"/><path class="b" d="M7854.3,1286.8v21.7a1.8,1.8,0,0,0,1.8,1.8h8.9a2,2,0,0,1,1.1.3l12.1,7.8a8.3,8.3,0,0,0,4.8,1.5h71.5a6.8,6.8,0,0,0,3.1-.8l13.8-6.9.9-.2h8.2a1.8,1.8,0,0,0,1.8-1.8v-23.4a2.2,2.2,0,0,0-2.2-2.2H7856.5A2.2,2.2,0,0,0,7854.3,1286.8Z"/><rect class="b" x="7438.9" y="1316.6" width="83.8" height="13.19" rx="6.6" transform="translate(6157.6 8804) rotate(-90)"/><path class="b" d="M7053.3,1359.1v19.1a2.4,2.4,0,0,0,2.4,2.4h128.2a2.4,2.4,0,0,0,2.4-2.4V1351a2.4,2.4,0,0,0-2.4-2.4h-119a2.2,2.2,0,0,0-1.5.6l-9.3,8.1A2.5,2.5,0,0,0,7053.3,1359.1Z"/><path class="b" d="M6540.1,1092.1h0s-24.3,6.8-24.3,29.9c0,14.4,2.5,13.7,2.5,13.7h1.4a6.3,6.3,0,0,1,6.3,6.3v5.4s4.1,6.4,20.3,6.4,19.4-5.6,19.4-5.6v-5a6.2,6.2,0,0,1,6.2-6.2h1.9s5-7.5,5-16.2-11.7-28.7-22.7-28.7h0a6.2,6.2,0,0,1-6.2,6.2h-3.6A6.2,6.2,0,0,1,6540.1,1092.1Z"/><rect class="b" x="6537.9" y="1106.7" width="20.6" height="13.72" transform="translate(5434.6 7661.8) rotate(-90)"/><circle class="b" cx="6532" cy="1107.7" r="3.7"/><circle class="b" cx="6527" cy="1124.5" r="3.7"/><circle class="b" cx="6539.5" cy="1141.4" r="3.7"/><circle class="b" cx="6562.6" cy="1107.1" r="3.7"/><circle class="b" cx="6567.5" cy="1123.9" r="3.7"/><circle class="b" cx="6555.1" cy="1140.7" r="3.7"/><rect class="b" x="10301.2" y="1266.1" width="60.5" height="9.53" rx="4.8"/><rect class="b" x="10301.2" y="1297.6" width="60.5" height="9.53" rx="4.8"/><circle class="b" cx="6388.9" cy="1287.7" r="16.1"/><circle class="b" cx="6329" cy="1287.7" r="16.1"/><path class="b" d="M5689,1337v40.9s.7,12.4-9.7,11.1-29.2-5.2-29.2-5.2-7.1-2.6-7.5-10.4,0-36.4,0-36.4"/><path class="b" d="M5689,1337v-41s.7-12.4-9.7-11.1-29.2,5.2-29.2,5.2-7.1,2.6-7.5,10.4,0,36.5,0,36.5"/><circle class="b" cx="5681.2" cy="1295.2" r="4.3"/><circle class="b" cx="5681.2" cy="1315.5" r="4.3"/><circle class="b" cx="5681.2" cy="1331.8" r="4.3"/><circle class="b" cx="5681.2" cy="1348.2" r="4.3"/><circle class="b" cx="5681.2" cy="1364.5" r="4.3"/><circle class="b" cx="5667" cy="1306.3" r="4.3"/><circle class="b" cx="5667" cy="1322.6" r="4.3"/><circle class="b" cx="5667" cy="1338.9" r="4.3"/><circle class="b" cx="5667" cy="1355.3" r="4.3"/><circle class="b" cx="5667" cy="1371.6" r="4.3"/><circle class="b" cx="5654.9" cy="1299.2" r="4.3"/><circle class="b" cx="5654.9" cy="1315.5" r="4.3"/><circle class="b" cx="5654.9" cy="1331.8" r="4.3"/><circle class="b" cx="5654.9" cy="1348.2" r="4.3"/><circle class="b" cx="5654.9" cy="1364.5" r="4.3"/><path class="b" d="M3473.4,1313.1l67-.5s19-1.2,17,14.8-8,45-8,45-4,10.8-16,11.4-56,.3-56,.3"/><path class="b" d="M3479.4,1313.1h-63s-19-1.2-17,14.8,8,45,8,45,4,10.8,16,11.4,97-.2,97-.2"/><rect class="b" x="3695.4" y="1265.1" width="108" height="17"/><rect class="b" x="3695.4" y="1339.1" width="108" height="17"/><circle class="b" cx="4154.4" cy="1115.1" r="19"/><rect class="b" x="3905.4" y="1162.1" width="122" height="74"/><rect class="b" x="3937.4" y="1144.1" width="59" height="19"/><rect class="b" x="3944.4" y="1134.1" width="45" height="11"/><rect class="b" x="2506.9" y="1333.6" width="108" height="17" transform="translate(1218.8 3903) rotate(-90)"/><path class="b" d="M2733.9,1300.8v21.7a1.8,1.8,0,0,0,1.8,1.8h8.9l1.2.3,13.7,8.9a2.8,2.8,0,0,0,1.2.4h75.1l15.2-7.7,1-.2h8.1a1.8,1.8,0,0,0,1.8-1.8v-23.4a2.2,2.2,0,0,0-2.2-2.2H2736.1A2.2,2.2,0,0,0,2733.9,1300.8Z"/><rect class="b" x="2299.9" y="1331.6" width="108" height="17" transform="translate(1013.8 3694) rotate(-90)"/><polyline class="b" points="1939.7 1361.6 2061.9 1361.6 2061.9 1393.6 1928.9 1393.6 1928.9 1371"/><path class="b" d="M1415.8,1117.3v-6.2s-24.4,6.8-24.4,29.9c0,14.4,2.5,13.7,2.5,13.7h7.7v11.7s4.2,6.4,20.4,6.4,19.3-5.6,19.3-5.6V1156h8.1s5-7.5,5-16.2-11.6-28.7-22.6-28.7v6.2Z"/><rect class="b" x="1413.6" y="1125.7" width="20.6" height="13.72" transform="translate(291.3 2556.5) rotate(-90)"/><circle class="b" cx="1407.7" cy="1126.7" r="3.7"/><circle class="b" cx="1402.7" cy="1143.5" r="3.7"/><circle class="b" cx="1415.1" cy="1160.4" r="3.7"/><circle class="b" cx="1438.2" cy="1126.1" r="3.7"/><circle class="b" cx="1443.2" cy="1142.9" r="3.7"/><circle class="b" cx="1430.7" cy="1159.7" r="3.7"/><rect class="b" x="5176.9" y="1275.1" width="60.5" height="9.53"/><rect class="b" x="5176.9" y="1316.6" width="60.5" height="9.53"/><circle class="b" cx="1245.5" cy="1262.7" r="16.1"/><circle class="b" cx="1185.7" cy="1262.7" r="16.1"/><path class="b" d="M568.9,1340.2v44.7s.8,13.5-10.5,12.1-32-5.7-32-5.7a13.2,13.2,0,0,1-8.1-11.3c-.4-8.6,0-39.8,0-39.8"/><path class="b" d="M568.9,1340.2v-44.7s.8-13.5-10.5-12.1-32,5.7-32,5.7a13.2,13.2,0,0,0-8.1,11.3c-.4,8.6,0,39.8,0,39.8"/><circle class="b" cx="556.8" cy="1307.2" r="4.3"/><circle class="b" cx="556.8" cy="1323.5" r="4.3"/><circle class="b" cx="556.8" cy="1339.8" r="4.3"/><circle class="b" cx="556.8" cy="1356.2" r="4.3"/><circle class="b" cx="556.8" cy="1372.5" r="4.3"/><circle class="b" cx="542.6" cy="1314.3" r="4.3"/><circle class="b" cx="542.6" cy="1330.6" r="4.3"/><circle class="b" cx="542.6" cy="1346.9" r="4.3"/><circle class="b" cx="542.6" cy="1363.3" r="4.3"/><circle class="b" cx="542.6" cy="1379.6" r="4.3"/><circle class="b" cx="530.6" cy="1307.2" r="4.3"/><circle class="b" cx="530.6" cy="1323.5" r="4.3"/><circle class="b" cx="530.6" cy="1339.8" r="4.3"/><circle class="b" cx="530.6" cy="1356.2" r="4.3"/><circle class="b" cx="530.6" cy="1372.5" r="4.3"/><path class="b" d="M1502.9,1118.4v-6.2s-24.3,6.9-24.3,30c0,14.3,2.5,13.7,2.5,13.7h7.7v11.6s4.1,6.5,20.4,6.5,19.3-5.7,19.3-5.7v-11.2h8.1s5-7.5,5-16.2-11.6-28.7-22.7-28.7v6.2Z"/><rect class="b" x="1500.7" y="1126.9" width="20.6" height="13.72" transform="translate(377.3 2644.8) rotate(-90)"/><circle class="b" cx="1494.8" cy="1127.8" r="3.7"/><circle class="b" cx="1489.8" cy="1144.6" r="3.7"/><circle class="b" cx="1502.3" cy="1161.5" r="3.7"/><circle class="b" cx="1525.4" cy="1127.2" r="3.7"/><circle class="b" cx="1530.4" cy="1144" r="3.7"/><circle class="b" cx="1517.9" cy="1160.9" r="3.7"/><path class="b" d="M13714.8,1318.1l67-.5s19-1.2,17,14.8-8,45-8,45-4,10.8-16,11.4-56,.3-56,.3"/><path class="b" d="M13720.8,1318.1h-63s-19-1.2-17,14.8,8,45,8,45,4,10.8,16,11.4,97-.2,97-.2"/><rect class="b" x="13936.8" y="1270.1" width="108" height="17"/><rect class="b" x="13936.8" y="1344.1" width="108" height="17"/><circle class="b" cx="14395.8" cy="1120.1" r="19"/><rect class="b" x="14146.8" y="1167.1" width="122" height="74"/><rect class="b" x="14178.8" y="1149.1" width="59" height="19"/><rect class="b" x="14185.8" y="1139.1" width="45" height="11"/><rect class="b" x="12748.3" y="1338.6" width="108" height="17" transform="translate(11455.2 14149.4) rotate(-90)"/><path class="b" d="M12975.3,1305.8v21.7a1.8,1.8,0,0,0,1.8,1.8h8.9a2,2,0,0,1,1.1.3l13.8,8.9a2.1,2.1,0,0,0,1.1.4h75.1l15.3-7.7.9-.2h8.2a1.8,1.8,0,0,0,1.8-1.8v-23.4a2.2,2.2,0,0,0-2.2-2.2h-123.6A2.2,2.2,0,0,0,12975.3,1305.8Z"/><rect class="b" x="12541.3" y="1336.6" width="108" height="17" transform="translate(11250.2 13940.4) rotate(-90)"/><polyline class="b" points="12181 1366.6 12303.3 1366.6 12303.3 1398.6 12170.3 1398.6 12170.3 1376"/><polyline class="b" points="15302.8 1280.1 15302.8 1289.6 15242.2 1289.6 15242.2 1280.1"/><circle class="b" cx="11537.9" cy="1267.7" r="16.1"/><circle class="b" cx="11538" cy="1323.7" r="16.1"/><path class="b" d="M11021,1333v36.8s.7,11.1-8.7,9.9-26.2-4.7-26.2-4.7a10.8,10.8,0,0,1-6.7-9.3c-.3-7,0-32.7,0-32.7"/><path class="b" d="M11021,1333v-36.8s.7-11.1-8.7-9.9-26.2,4.7-26.2,4.7a10.8,10.8,0,0,0-6.7,9.3c-.3,7,0,32.7,0,32.7"/><circle class="b" cx="10797.2" cy="1281.2" r="4.3"/><circle class="b" cx="10797.2" cy="1297.5" r="4.3"/><circle class="b" cx="10797.2" cy="1313.8" r="4.3"/><circle class="b" cx="10797.2" cy="1330.2" r="4.3"/><circle class="b" cx="10797.2" cy="1346.5" r="4.3"/><circle class="b" cx="10783" cy="1288.3" r="4.3"/><circle class="b" cx="10783" cy="1304.6" r="4.3"/><circle class="b" cx="10783" cy="1320.9" r="4.3"/><circle class="b" cx="10783" cy="1337.3" r="4.3"/><circle class="b" cx="10783" cy="1353.6" r="4.3"/><circle class="b" cx="10770.9" cy="1281.2" r="4.3"/><circle class="b" cx="10770.9" cy="1297.5" r="4.3"/><circle class="b" cx="10770.9" cy="1313.8" r="4.3"/><circle class="b" cx="10770.9" cy="1330.2" r="4.3"/><circle class="b" cx="10770.9" cy="1346.5" r="4.3"/><path class="c" d="M6546.5,1141.4v49.8c0,14.9,8.7,29.1,24.2,39.7l11.4,7.8c15.5,10.5,24.2,24.8,24.2,39.7v66.4s.8,19.1,17.3,19.1H6676s18.9.1,18.9-18.9v-66.4c0-14.9-8.7-29.2-24.2-39.7l-11.4-7.8c-15.5-10.6-24.2-24.8-24.2-39.7v-49.8"/><path class="d" d="M7117,1375v15.9a8.4,8.4,0,0,0,2.6,6.2l9.1,9.1a8.3,8.3,0,0,0,6.1,2.6h21.8"/><circle class="d" cx="7163" cy="1409" r="8"/><path class="d" d="M7755.4,1368.5l23.6,23.6a33,33,0,0,0,23.3,9.7h114.9a32.4,32.4,0,0,1,10.2,1.6l21.3,7a35.7,35.7,0,0,0,10.3,1.6h172.1a30.8,30.8,0,0,0,10-1.6l26.2-8.4a34.8,34.8,0,0,1,10.1-1.5H8364"/><circle class="d" cx="7751.8" cy="1363.8" r="5.8"/><circle class="d" cx="8369.7" cy="1400.5" r="5.8"/><path class="d" d="M7927,1384l25.9,7.1a34.8,34.8,0,0,0,12,2.1h109.4"/><circle class="d" cx="8080.8" cy="1393.2" r="5.8"/><circle class="d" cx="7921.4" cy="1381.7" r="5.8"/><path class="d" d="M9476.3,1321.1v34.8a24.4,24.4,0,0,1-7.1,17.3l-32,31.9"/><line class="d" x1="9451.5" y1="1371.5" x2="9476.8" y2="1346.2"/><circle class="b" cx="9451.4" cy="1371" r="6.7"/><circle class="b" cx="9437.1" cy="1405.8" r="6.7"/><path class="d" d="M6171.8,1337.9v15.9a8.9,8.9,0,0,0,2.5,6.2l9.1,9.1a9.1,9.1,0,0,0,6.2,2.6h21.7"/><circle class="d" cx="6217.8" cy="1371.9" r="8"/><path class="d" d="M9391.1,1321.3v34.8a24.5,24.5,0,0,1-7.2,17.3l-31.9,31.9"/><line class="d" x1="9366.2" y1="1371.7" x2="9391.6" y2="1346.4"/><circle class="b" cx="9366.2" cy="1371.2" r="6.7"/><circle class="b" cx="9351.9" cy="1406" r="6.7"/><circle class="e" cx="9788.7" cy="1373.9" r="13"/><path class="e" d="M9797.8,1364.6l6.5-6.6a10.9,10.9,0,0,0,3.3-7.8v-15.4"/><path class="e" d="M9779.5,1364.8l-6.5-6.6a11.1,11.1,0,0,1-3.3-7.9v-15.4"/><path class="e" d="M9798.2,1385.1l6.6,6.5a11.1,11.1,0,0,1,3.3,7.9v15.4"/><path class="e" d="M9780,1384.9l-6.5,6.6a10.9,10.9,0,0,0-3.3,7.8v15.4"/><path class="d" d="M10683,1367.5v-22.7a3.8,3.8,0,0,0-3.7-3.7H10658l-1.5.6c-13.1,5.3-13.1,23.7-.1,29.1l.9.3h22A3.7,3.7,0,0,0,10683,1367.5Z"/><path class="d" d="M10695.8,1344.7v22.6a3.7,3.7,0,0,0,3.7,3.7h21.3l1.6-.6c13-5.2,13.1-23.7,0-29l-.9-.4h-22A3.7,3.7,0,0,0,10695.8,1344.7Z"/><path class="d" d="M12417.2,1329h-37v27.8l.7,1.6c6.9,15.5,28.8,15.6,35.8.2l.5-1.1Z"/><path class="d" d="M12380.2,1318.1h37v-27.8l-.8-1.6c-6.9-15.5-28.8-15.6-35.8-.2l-.4,1.1Z"/><path class="d" d="M14226,1259h-37v27.8l.8,1.6c6.8,15.5,28.7,15.6,35.7.2l.5-1.1Z"/><circle class="b" cx="6081.5" cy="1327.8" r="5"/><path class="b" d="M6084.6,1326.4l5.1-1.4a2.5,2.5,0,0,0,1.6-3.6,8.7,8.7,0,0,0-6.8-4.8,1.2,1.2,0,0,0-1.3,1.1v7.3Z"/><path class="b" d="M6083.2,1331.1l1.4,5.1a2.5,2.5,0,0,0,3.6,1.6,8.7,8.7,0,0,0,4.8-6.8,1.1,1.1,0,0,0-1.1-1.3h-7.3Z"/><path class="b" d="M6077.6,1329.6l-5,1.4a2.6,2.6,0,0,0-1.7,3.6,8.7,8.7,0,0,0,6.9,4.8,1.2,1.2,0,0,0,1.3-1.1V1331Z"/><path class="b" d="M6079.4,1324.3l-1.3-5.1a2.6,2.6,0,0,0-3.7-1.6,8.7,8.7,0,0,0-4.8,6.8,1.2,1.2,0,0,0,1.2,1.3h7.2Z"/><circle class="b" cx="11207.2" cy="1327.9" r="7.9"/><path class="b" d="M11212.1,1325.6l8.1-2.2a4.1,4.1,0,0,0,2.5-5.8,13.9,13.9,0,0,0-10.8-7.6,1.9,1.9,0,0,0-2.1,1.9v11.5Z"/><path class="b" d="M11209.9,1333l2.2,8.1a4,4,0,0,0,5.7,2.6,13.8,13.8,0,0,0,7.7-10.9,1.9,1.9,0,0,0-1.9-2h-11.5Z"/><path class="b" d="M11201,1330.6l-8.1,2.2a4.1,4.1,0,0,0-2.5,5.8,13.7,13.7,0,0,0,10.8,7.6,1.8,1.8,0,0,0,2.1-1.8v-11.5Z"/><path class="b" d="M11203.9,1322.2l-2.2-8.1a4.1,4.1,0,0,0-5.8-2.5,13.9,13.9,0,0,0-7.6,10.8,1.9,1.9,0,0,0,1.8,2.1h11.5Z"/><circle class="b" cx="4829.5" cy="1367.2" r="5"/><path class="b" d="M4832.6,1365.7l5.1-1.3a2.6,2.6,0,0,0,1.6-3.7,8.9,8.9,0,0,0-6.8-4.8,1.2,1.2,0,0,0-1.3,1.2v7.2Z"/><path class="b" d="M4831.2,1370.4l1.4,5.1a2.5,2.5,0,0,0,3.6,1.6,8.5,8.5,0,0,0,4.8-6.8,1.1,1.1,0,0,0-1.1-1.3h-7.3Z"/><path class="b" d="M4825.6,1368.9l-5,1.4a2.6,2.6,0,0,0-1.7,3.6,8.7,8.7,0,0,0,6.9,4.8,1.1,1.1,0,0,0,1.3-1.1v-7.3Z"/><path class="b" d="M4827.4,1363.6l-1.3-5.1a2.6,2.6,0,0,0-3.7-1.6,8.9,8.9,0,0,0-4.8,6.8,1.2,1.2,0,0,0,1.2,1.3h7.2Z"/><circle class="b" cx="960.9" cy="1327.8" r="5"/><path class="b" d="M963.9,1326.4l5.1-1.4a2.5,2.5,0,0,0,1.6-3.6,8.5,8.5,0,0,0-6.8-4.8,1.2,1.2,0,0,0-1.3,1.1v7.3Z"/><path class="b" d="M962.6,1331.1l1.3,5.1a2.6,2.6,0,0,0,3.7,1.6,8.9,8.9,0,0,0,4.8-6.8,1.2,1.2,0,0,0-1.2-1.3H964Z"/><path class="b" d="M957,1329.6l-5.1,1.4a2.5,2.5,0,0,0-1.6,3.6,8.5,8.5,0,0,0,6.8,4.8,1.2,1.2,0,0,0,1.3-1.1V1331Z"/><path class="b" d="M958.8,1324.3l-1.4-5.1a2.5,2.5,0,0,0-3.6-1.6,8.5,8.5,0,0,0-4.8,6.8,1.1,1.1,0,0,0,1.1,1.3h7.3Z"/><circle class="b" cx="9283" cy="1173" r="19"/><rect class="b" x="7636.4" y="1321" width="83.8" height="13.19" rx="6" transform="translate(6350.8 9005.9) rotate(-90)"/><circle class="b" cx="6448.7" cy="1287.8" r="16.1"/><path class="d" d="M4949.3,1396h0a20.3,20.3,0,0,1,20.3,20.3V1438a0,0,0,0,1,0,0H4929a0,0,0,0,1,0,0v-21.7A20.3,20.3,0,0,1,4949.3,1396Z" transform="translate(9898.6 2834) rotate(180)"/><path class="d" d="M5040.5,1211.4V1293a11.9,11.9,0,0,1-9.3,11.5l-76.1,12.2a7.6,7.6,0,0,0-6.1,7.5V1396"/><circle class="d" cx="5041" cy="1199" r="12"/><line class="d" x1="7257.9" y1="1277" x2="7258" y2="1378"/><path class="f" d="M7256.5,1277.5h14a1,1,0,0,1,1,1v20a1,1,0,0,1-1,1h-14a0,0,0,0,1,0,0v-22A0,0,0,0,1,7256.5,1277.5Z"/><circle class="b" cx="6255.1" cy="1182.3" r="5"/><path class="b" d="M6258.2,1180.9l5.1-1.4a2.7,2.7,0,0,0,1.6-3.7,9.1,9.1,0,0,0-6.9-4.8,1.2,1.2,0,0,0-1.2,1.2v7.2Z"/><path class="b" d="M6256.8,1185.5l1.4,5.1a2.5,2.5,0,0,0,3.6,1.6,8.5,8.5,0,0,0,4.8-6.8,1.2,1.2,0,0,0-1.2-1.3h-7.2Z"/><path class="b" d="M6251.2,1184l-5.1,1.4a2.5,2.5,0,0,0-1.6,3.6,9,9,0,0,0,6.8,4.9,1.2,1.2,0,0,0,1.3-1.2v-7.3Z"/><path class="b" d="M6253,1178.7l-1.4-5.1a2.6,2.6,0,0,0-3.6-1.6,8.7,8.7,0,0,0-4.8,6.8,1.1,1.1,0,0,0,1.1,1.3h7.3Z"/><path class="b" d="M6627.9,1091.5h0s-24.3,6.8-24.3,29.9c0,14.3,2.5,13.7,2.5,13.7h1.5a6.3,6.3,0,0,1,6.2,6.3v5.4s4.2,6.4,20.4,6.4,19.3-5.6,19.3-5.6v-5a6.2,6.2,0,0,1,6.2-6.2h1.9s5-7.5,5-16.2-11.6-28.7-22.7-28.7h0a6.2,6.2,0,0,1-6.2,6.2h-3.5A6.3,6.3,0,0,1,6627.9,1091.5Z"/><rect class="b" x="6625.8" y="1106.1" width="20.6" height="13.72" transform="translate(5523.1 7749) rotate(-90)"/><circle class="b" cx="6619.8" cy="1107.1" r="3.7"/><circle class="b" cx="6614.8" cy="1123.9" r="3.7"/><circle class="b" cx="6627.3" cy="1140.7" r="3.7"/><circle class="b" cx="6650.4" cy="1106.4" r="3.7"/><circle class="b" cx="6655.4" cy="1123.3" r="3.7"/><circle class="b" cx="6642.9" cy="1140.1" r="3.7"/><path class="b" d="M11656.6,1094.3h0s-24.4,6.8-24.4,29.9c0,14.4,2.5,13.7,2.5,13.7h1.5a6.3,6.3,0,0,1,6.2,6.3v5.4s4.2,6.4,20.4,6.4,19.3-5.6,19.3-5.6v-5a6.3,6.3,0,0,1,6.3-6.2h1.9s4.9-7.5,4.9-16.2-11.6-28.7-22.6-28.7h0a6.3,6.3,0,0,1-6.3,6.2h-3.5A6.2,6.2,0,0,1,11656.6,1094.3Z"/><rect class="b" x="11654.4" y="1108.9" width="20.6" height="13.72" transform="translate(10548.9 12780.5) rotate(-90)"/><circle class="b" cx="11648.5" cy="1109.9" r="3.7"/><circle class="b" cx="11643.5" cy="1126.7" r="3.7"/><circle class="b" cx="11655.9" cy="1143.5" r="3.7"/><circle class="b" cx="11679" cy="1109.2" r="3.7"/><circle class="b" cx="11684" cy="1126.1" r="3.7"/><circle class="b" cx="11671.5" cy="1142.9" r="3.7"/><path class="b" d="M11744.4,1093.6h0s-24.3,6.9-24.3,30c0,14.3,2.5,13.7,2.5,13.7h1.4a6.3,6.3,0,0,1,6.3,6.2v5.4s4.1,6.5,20.4,6.5,19.3-5.6,19.3-5.6v-5a6.2,6.2,0,0,1,6.2-6.2h1.9s5-7.5,5-16.3-11.7-28.7-22.7-28.7h0a6.3,6.3,0,0,1-6.2,6.3h-3.5A6.3,6.3,0,0,1,11744.4,1093.6Z"/><rect class="b" x="11742.2" y="1108.3" width="20.6" height="13.72" transform="translate(10637.4 12867.7) rotate(-90)"/><circle class="b" cx="11736.3" cy="1109.2" r="3.7"/><circle class="b" cx="11731.3" cy="1126.1" r="3.7"/><circle class="b" cx="11743.8" cy="1142.9" r="3.7"/><circle class="b" cx="11766.9" cy="1108.6" r="3.7"/><circle class="b" cx="11771.9" cy="1125.5" r="3.7"/><circle class="b" cx="11759.4" cy="1142.3" r="3.7"/><circle class="b" cx="10172.8" cy="1192.3" r="2.6"/><circle class="b" cx="10172.8" cy="1202.3" r="2.6"/><circle class="b" cx="10172.8" cy="1212.3" r="2.6"/><circle class="b" cx="10172.8" cy="1222.4" r="2.6"/><circle class="b" cx="10172.8" cy="1232.4" r="2.6"/><circle class="b" cx="10164" cy="1196.6" r="2.6"/><circle class="b" cx="10164" cy="1206.7" r="2.6"/><circle class="b" cx="10164" cy="1216.7" r="2.6"/><circle class="b" cx="10164" cy="1226.8" r="2.6"/><circle class="b" cx="10164" cy="1236.8" r="2.6"/><circle class="b" cx="10156.6" cy="1192.3" r="2.6"/><circle class="b" cx="10156.6" cy="1202.3" r="2.6"/><circle class="b" cx="10156.6" cy="1212.3" r="2.6"/><circle class="b" cx="10156.6" cy="1222.4" r="2.6"/><circle class="b" cx="10156.6" cy="1232.4" r="2.6"/><circle class="b" cx="10173.1" cy="1260.8" r="2.6"/><circle class="b" cx="10173.1" cy="1270.9" r="2.6"/><circle class="b" cx="10173.1" cy="1280.9" r="2.6"/><circle class="b" cx="10173.1" cy="1291" r="2.6"/><circle class="b" cx="10173.1" cy="1301" r="2.6"/><circle class="b" cx="10164.3" cy="1265.2" r="2.6"/><circle class="b" cx="10164.3" cy="1275.3" r="2.6"/><circle class="b" cx="10164.3" cy="1285.3" r="2.6"/><circle class="b" cx="10164.3" cy="1295.3" r="2.6"/><circle class="b" cx="10164.3" cy="1305.4" r="2.6"/><circle class="b" cx="10156.9" cy="1260.8" r="2.6"/><circle class="b" cx="10156.9" cy="1270.9" r="2.6"/><circle class="b" cx="10156.9" cy="1280.9" r="2.6"/><circle class="b" cx="10156.9" cy="1291" r="2.6"/><circle class="b" cx="10156.9" cy="1301" r="2.6"/><circle class="b" cx="10172.9" cy="1330.6" r="2.6"/><circle class="b" cx="10172.9" cy="1340.6" r="2.6"/><circle class="b" cx="10172.9" cy="1350.6" r="2.6"/><circle class="b" cx="10172.9" cy="1360.7" r="2.6"/><circle class="b" cx="10172.9" cy="1370.7" r="2.6"/><circle class="b" cx="10164.2" cy="1334.9" r="2.6"/><circle class="b" cx="10164.2" cy="1345" r="2.6"/><circle class="b" cx="10164.2" cy="1355" r="2.6"/><circle class="b" cx="10164.2" cy="1365" r="2.6"/><circle class="b" cx="10164.2" cy="1375.1" r="2.6"/><circle class="b" cx="10156.8" cy="1330.6" r="2.6"/><circle class="b" cx="10156.8" cy="1340.6" r="2.6"/><circle class="b" cx="10156.8" cy="1350.6" r="2.6"/><circle class="b" cx="10156.8" cy="1360.7" r="2.6"/><circle class="b" cx="10156.8" cy="1370.7" r="2.6"/><ellipse class="b" cx="10113.3" cy="1299.4" rx="4.7" ry="16.7"/><path class="b" d="M10116.9,1293.6l5.5-5.3c1.7-1.6,2.5-8.3,1.7-13.8-1.1-7.5-3.3-16.5-7.3-18.2-.8-.3-1.4,1.8-1.4,4.4v27.5Z"/><path class="b" d="M10115.4,1311.4l1.5,19.4c.5,5.9,2.4,9,3.9,6s4.7-11.7,5.2-25.9c.1-2.6-.5-4.9-1.3-4.9h-7.8Z"/><path class="b" d="M10109.6,1305.2l-4.8,4.7c-1.5,1.4-2.3,7.3-1.5,12,1,6.7,2.9,14.6,6.4,16.1.7.2,1.2-1.6,1.2-3.9v-24.2Z"/><path class="b" d="M10111.3,1287.5l-1.3-17c-.4-5.2-2.1-7.8-3.4-5.3s-4.2,10.3-4.6,22.7c-.1,2.3.4,4.4,1.1,4.4h6.9Z"/><ellipse class="b" cx="10075" cy="1306.4" rx="3.8" ry="13.3"/><path class="b" d="M10077.9,1301.8l4.4-4.2c1.3-1.3,2-6.7,1.4-11-1-6-2.7-13.2-5.9-14.6-.6-.2-1.1,1.4-1.1,3.5v22Z"/><path class="b" d="M10076.7,1316l1.2,15.5c.4,4.7,1.9,7.2,3.1,4.8s3.8-9.4,4.1-20.7c.1-2-.4-3.9-1-3.9h-6.2Z"/><path class="b" d="M10072.1,1311.1l-3.9,3.7c-1.2,1.1-1.8,5.8-1.2,9.6s2.3,11.6,5.1,12.8c.6.3,1-1.2,1-3v-19.3Z"/><path class="b" d="M10073.4,1297l-1-13.6c-.4-4.1-1.7-6.3-2.8-4.3s-3.3,8.3-3.6,18.2c-.1,1.8.4,3.4.9,3.4h5.4Z"/><circle class="b" cx="6786.4" cy="1283.1" r="4.3"/><circle class="b" cx="6786.4" cy="1266.8" r="4.3"/><circle class="b" cx="6786.4" cy="1250.4" r="4.3"/><circle class="b" cx="6786.4" cy="1234.1" r="4.3"/><circle class="b" cx="6786.4" cy="1217.8" r="4.3"/><circle class="b" cx="6800.6" cy="1276" r="4.3"/><circle class="b" cx="6800.6" cy="1259.7" r="4.3"/><circle class="b" cx="6800.6" cy="1243.3" r="4.3"/><circle class="b" cx="6800.6" cy="1227" r="4.3"/><circle class="b" cx="6800.6" cy="1210.7" r="4.3"/><circle class="b" cx="6812.7" cy="1283.1" r="4.3"/><circle class="b" cx="6812.7" cy="1266.8" r="4.3"/><circle class="b" cx="6812.7" cy="1250.4" r="4.3"/><circle class="b" cx="6812.7" cy="1234.1" r="4.3"/><circle class="b" cx="6812.7" cy="1217.8" r="4.3"/><circle class="b" cx="6787.4" cy="1386.1" r="4.3"/><circle class="b" cx="6787.4" cy="1369.8" r="4.3"/><circle class="b" cx="6787.4" cy="1353.4" r="4.3"/><circle class="b" cx="6787.4" cy="1337.1" r="4.3"/><circle class="b" cx="6787.4" cy="1320.8" r="4.3"/><circle class="b" cx="6801.6" cy="1379" r="4.3"/><circle class="b" cx="6801.6" cy="1362.7" r="4.3"/><circle class="b" cx="6801.6" cy="1346.3" r="4.3"/><circle class="b" cx="6801.6" cy="1330" r="4.3"/><circle class="b" cx="6801.6" cy="1313.7" r="4.3"/><circle class="b" cx="6813.7" cy="1386.1" r="4.3"/><circle class="b" cx="6813.7" cy="1369.8" r="4.3"/><circle class="b" cx="6813.7" cy="1353.4" r="4.3"/><circle class="b" cx="6813.7" cy="1337.1" r="4.3"/><circle class="b" cx="6813.7" cy="1320.8" r="4.3"/><path class="g" d="M1430.4,1371.9A84,84,0,1,0,1549.2,1253"/><path class="g" d="M1442.8,1265.5a66.4,66.4,0,0,0,93.9,93.9"/><path class="g" d="M1459,1343.3a43.6,43.6,0,0,0,61.6-61.7"/><circle class="h" cx="1521.8" cy="1281.6" r="2.5"/><circle class="h" cx="1460" cy="1343.4" r="2.5"/><circle class="h" cx="1536.6" cy="1358.2" r="2.5"/><circle class="h" cx="1442.7" cy="1264.3" r="2.5"/><circle class="h" cx="1549" cy="1251.9" r="2.5"/><circle class="h" cx="1427.9" cy="1370.6" r="2.5"/><circle class="b" cx="9283" cy="1096" r="19"/><circle class="b" cx="9284" cy="1249" r="19"/><path class="f" d="M7256.5,1315.5h14a1,1,0,0,1,1,1v20a1,1,0,0,1-1,1h-14a0,0,0,0,1,0,0v-22A0,0,0,0,1,7256.5,1315.5Z"/><path class="f" d="M7256.5,1355.5h14a1,1,0,0,1,1,1v7.9a13.1,13.1,0,0,1-13.1,13.1h-1.9a0,0,0,0,1,0,0v-22a0,0,0,0,1,0,0Z"/><rect class="b" x="10301.7" y="1328.8" width="60.5" height="9.53" rx="4.8"/><rect class="b" x="10301.5" y="1360.2" width="60.5" height="9.53" rx="4.8"/><rect class="b" x="10302" y="1391.4" width="60.5" height="9.53" rx="4.8"/><rect class="b" x="6418.1" y="1381.4" width="60.5" height="9.53" rx="4.8" transform="translate(7834.5 -5062.2) rotate(90)"/><rect class="b" x="6386.6" y="1381.4" width="60.5" height="9.53" rx="4.8" transform="translate(7803 -5030.7) rotate(90)"/><rect class="b" x="6355.4" y="1381.9" width="60.5" height="9.53" rx="4.8" transform="translate(7772.2 -4999) rotate(90)"/><rect class="b" x="6324" y="1381.6" width="60.5" height="9.53" rx="4.8" transform="translate(7740.6 -4967.9) rotate(90)"/><rect class="b" x="6292.7" y="1382.1" width="60.5" height="9.53" rx="4.8" transform="translate(7709.9 -4936.1) rotate(90)"/><rect class="b" x="9031.5" y="1321.7" width="83.8" height="13.19" rx="6.6"/><circle class="d" cx="7724" cy="1326" r="17"/><circle class="b" cx="7724" cy="1326" r="11"/><circle class="d" cx="9156" cy="1328" r="17"/><circle class="b" cx="9156" cy="1328" r="10"/><path class="d" d="M11596,1205l-1.3,181.3a7.2,7.2,0,0,1-2,4.8l-18.5,18.5a7,7,0,0,1-4.9,2h-152.8a6.8,6.8,0,0,1-4.9-2L11399,1397a7,7,0,0,1-2-4.9v-18.8a6.8,6.8,0,0,1,2-4.9l11.2-11.2a7,7,0,0,1,4.9-2h20a7.4,7.4,0,0,0,4.9-2l12.6-12.7"/><circle class="d" cx="11456.8" cy="1336" r="5.8"/><circle class="b" cx="11480.7" cy="1268" r="16.1"/><circle class="b" cx="9576.2" cy="1293.2" r="2.6"/><circle class="b" cx="9576.2" cy="1303.2" r="2.6"/><circle class="b" cx="9576.2" cy="1313.3" r="2.6"/><path class="d" d="M9961.5,1360.4h-22.6a3.6,3.6,0,0,0-3.7,3.6v21.4l.6,1.5c5.2,13.1,23.7,13.1,29,.1l.4-.9V1364A3.6,3.6,0,0,0,9961.5,1360.4Z"/><path class="d" d="M10521.9,1329.7v34.8a24.4,24.4,0,0,1-7.1,17.2l-32,32"/><line class="d" x1="10497.1" y1="1380.1" x2="10522.4" y2="1354.8"/><circle class="b" cx="10497" cy="1379.6" r="6.7"/><circle class="b" cx="10482.7" cy="1414.3" r="6.7"/><path class="d" d="M5900.6,1260.2V1295a24,24,0,0,1-7.2,17.2l-31.9,32"/><line class="d" x1="5875.7" y1="1310.6" x2="5901.1" y2="1285.3"/><circle class="b" cx="5875.7" cy="1310.1" r="6.7"/><circle class="b" cx="5861.4" cy="1344.8" r="6.7"/><circle class="d" cx="5563" cy="1360" r="17"/><circle class="b" cx="5563" cy="1360" r="10"/><circle class="e" cx="5376.5" cy="1388.1" r="13"/><path class="e" d="M5385.5,1378.8l6.6-6.6a11,11,0,0,0,3.2-7.9v-15.4"/><path class="e" d="M5367.3,1378.9l-6.5-6.5a11.1,11.1,0,0,1-3.3-7.9v-15.4"/><path class="e" d="M5386,1399.2l6.6,6.6a11,11,0,0,1,3.2,7.9v15.4"/><path class="e" d="M5367.8,1399.1l-6.5,6.5a11.1,11.1,0,0,0-3.3,7.9v15.4"/><circle class="b" cx="4455.7" cy="1294.5" r="2.6"/><circle class="b" cx="4455.7" cy="1304.5" r="2.6"/><circle class="b" cx="4455.7" cy="1314.5" r="2.6"/><path class="d" d="M4649.8,1361.4v-22.7a3.6,3.6,0,0,0-3.7-3.6h-21.3l-1.5.6c-13.1,5.2-13.1,23.7-.1,29l.9.4h22A3.7,3.7,0,0,0,4649.8,1361.4Z"/><path class="d" d="M4662.7,1338.6v22.7a3.6,3.6,0,0,0,3.6,3.6h21.3l1.6-.6c13-5.2,13.1-23.7.1-29l-1-.4h-22A3.7,3.7,0,0,0,4662.7,1338.6Z"/><path class="d" d="M11361.1,1168.5v15a2.4,2.4,0,0,0,2.4,2.4h14l1-.4a10.3,10.3,0,0,0,.1-19.1l-.6-.3h-14.5A2.4,2.4,0,0,0,11361.1,1168.5Z"/><path class="c" d="M11661.8,1151.7v49.8c0,14.9,8.7,29.2,24.2,39.7l11.4,7.8c15.5,10.6,24.2,24.9,24.2,39.7v66.5s.9,19.1,17.3,19.1h52.4s18.9.1,18.9-18.9v-66.5c0-14.8-8.7-29.1-24.2-39.7l-11.4-7.8c-15.5-10.5-24.2-24.8-24.2-39.7v-49.8"/></svg>