<svg xmlns="http://www.w3.org/2000/svg" width="15361" height="1440" viewBox="0 0 15361 1440"><defs><style>.a{fill:#01579b;}.b{fill:#90caf9;}</style></defs><path class="a" d="M7012.6,922.24h24v-3.65h4.89v3.65h7.35V911.45h7.56l9.74,7.89V892h5.62V876.19h2v15.26h2.89V940h-2.44v9.91h2.44v10.73h-2.22v13.28h19.25v13.17h2.11v2.78h-2.11v225.71h-2.78v28.7s20.38-5,29.76,2.51c13.07,10.54,32.6,2.71,34.1-2.51v-89s.06-13.8,9.79-13.8h36.94a20.08,20.08,0,0,0,13.35-19.16v-47.12L7272,1106v-30.79l217.3,108h7.53v-5s0-3.89,3-3.89,3,3.14,3,3.14v6.22h7.83v-6.17s.18-3.19,3.18-3.19,3,3.14,3,3.14v6.73h13V1048.32s-.5-59.27,47.57-64.49c0,0-4,51.15,49.9,63.6v55.92h11.07v4.81H7645v-2.55h3v-1.74h2.4v-1.56H7654v-61.59l5-5.22h18v-3.13h26v-23.92s1-6.88,10.51-6.88,11.52,5.74,11.52,5.74v24h24v4.18h14l5,5.22v119.87h21v15.83h-14l-6,6.27v108.56h9.18v-4.18h6.84v4.18H7791v-4.35h4.68v-24.6H7801v-26.73h1.16v26.73H7805V1242h2.17v20.29h2.5v29h12.19l10.18-10.61V1175.38l45.73-26.62v38.45h7.51V1203H7903v-4.35h18.86v-87.51h4.5v2.61h17v-95.51h6.34v-4.7l11.85,4.7v-4.88l10.68,4.88v-4.88l10.35,4.88v-5l9.84,5h11v92.9H8030v29.75h-2.51v62.63h19.19l4.84-10.44,5,10.44h25.54v-79.68s.5-11.13,9-11.13h73.27s5.76-.35,5.76-7V1049c0-7.45,8.09-28.1,8.09-36,0,0-5.08,0-5.08-.93V937.65a4.53,4.53,0,0,0-4.44-4.62h0v-7.14l40.82-65.45c13.76-24.84,37.51-18.94,49.57-.72l43.8,66.17v5.86h0a5.12,5.12,0,0,0-5,5.22v74l-5.51,2.09h0a268.79,268.79,0,0,1,11.52,77.93v99.52H8314V1175.2h7.84v15.31h8.68v-16.18h14.36a10.87,10.87,0,0,0-5,9.22v7h14.52v-97.6h33.71v-7.83h-2.84v-21.4l8.68-10.43,10,10.43v21.4h-2.67v7.83H8419V1080h9l8.2,10a10.39,10.39,0,0,1,2.31,6.56v102.75s22,0,22,41.23l4.65,19.68c2.37,10,11,58.61,20.93,58.61h4.34c8.38,0,15.67-47.52,17.59-56l4.56-20.17v-43.32l17.66-16.07v-4.81h5.5l15-13.83v-5.13h5.43l15-13.4.51-224.26h8.51v-8.35h10v-8.47h9v-10h11s8-.52,8-19.31a72.94,72.94,0,0,0-8-32.88h28.54a95.17,95.17,0,0,0-6.51,33.92c0,18.79,6.51,20.36,6.51,20.36h10.57v9.91h11v7.48h11v7.54h10v218.81l13,13.57h7V1159l19,18.45h7v7.3l11.51,11.66v-63s.5-11.83,14-11.83H8799V835.51l27.42-33V790.83h9.35l55.85-70.58-11.12,45.3v496h15.29v-11h26.87v11h16.86V1240.1h9.18v21.42h26.54v-11h23.53V925.72s25-19,25-45.93h24s1.08,24.44,19,43.15v12.35h15v12.52H9163v4.7h87.12v-4h12v151.54h-6v138h5.51v8.35l80.11-35,25.36-35.14H9393l8.62-9h7.79v-8.58h7l13-13.57,18.52-19.32v-33.92L9465,1074v-23.93l15.34-16h17.17v-82.3h5v69.59h20V996.88h14v25h49.07s-29-8.35-29-38.62l78.11,25.05s-7,13.57-28,13.57h84.11l13.52-14.09h11.35v118.48l15.35,22.09h22l14.86-14.26V960.34l91.12,43.84V957.73l62.56,32V937.9s8.79-42.68,44.22-42.68,51.44,42.16,51.44,42.16V1082h24.42v-13.22h17.64V1056.2h12v-16.53h18V1022.1h9v-14.38h4.51V988.53l93.62-139.88-4,26.85v98.58h15V910.76h17V880h9v29.91h4.51V1440H5111V1044.37h34.38v52.72l19.1-24V982.26h12.05V945.73h4.07V977h10v-8.35h5v13.57h47.23V967.65h8.84l10,10.44v4.17h1.88v99.34l15.14-11.65h8v-13.57h6V1070h9l15.86,11.65h6.89v-5.39h5.29V1072h3l11-81.42-10.88-51.26V892.49h97v93L5485,959.3v27.78l56.08-25.7v24l63.08-25v175.37l6,8.35,8,6.27h12v67.33h-3v84s67.1,1,67.1,0v-83.51H5691V916.5h170.48v.06c0,17.84-13.87,32.3-31,32.3h-18.19c-21,0-37.94,17.71-37.94,39.55v.12h29v3.65h45.06v-3.65h14v47h22.75v55.73s.83,30.39,25.59,30.39,28.76,29.75,28.76,29.75v19.85h15v-9.41h2v-12.53h11v12.53h3v9.41h4.61V1280.4h51.3v-41.19h12v-91h-16.86v-87.69h5.84v-8.35h8.18v8.35h5v-44.88h11v4.17h10l4.53-4.73h18v-62.6h10.35l17.19-20.35h14l12.62,20.35h22.26V928H6195l26,12.53h18V952l18.08,11.31h35.16V953l6.23-8.87,22.14-8.35,18,4.18,10.51,7.82h-21.53V977l21,.52-20.53,27.67v71H6382s10.79.7,10.79,11.31v34.1h40.56l10-143.53-9.51-52.2h25l8.23-87.16h8.57l8.74,88.21h28l-16,50.1,3.28,18.27h55.64L6566,967.13l22.53-.53s-36.05-8.35-34.05-50.1l88.62,30.79s-18.86,19.31-39.72,19.84h7.68v19.71h5.51v3.77h23s-.75,3.92,0,4.7,49.68,0,49.68,0v-6.78h18.41A32.11,32.11,0,0,1,6686.15,964l55.08,15.66s-11.52,9.92-20.53,9.92h12v7.31h6v17.22h13.52s-.78,171.89,0,172.7,11.52,0,11.52,0v8.41h-11.52v82.19h10.9v-34.17H6786a9.46,9.46,0,0,1,9.26,9.65v13.36c0,5.7,4.73,10.28,10.17,9.6a1.67,1.67,0,0,0,.84-.25c.76-.78,0-104.37,0-104.37L6828.6,1148v-12.28h12.26l25-26.1V1096h12l21-19.83h23v-23h7V1047h4v-19.83s-1-15.66,10-15.66h21V981.22h5v21.92h2v6.26h9v-25h2v25h13V963.47h3v44.89h7v78.29h8Z"/><path class="a" d="M190.5,1070l15.83,11.65h6.89v-5.39h5.28V1072h3l11-81.42L217,989l4.63-96.51H318.5v93l55-26.21v27.78l56-25.7v24l63-25v175.37l6,8.35,8,6.27h12v67.33h-3v84s67,1,67,0v-83.51h-3.25V916.5H749.5v.06c0,17.84-13.85,32.3-30.94,32.3H700.39c-20.93,0-37.89,17.71-37.89,39.55v.12h29v3.65h45v-3.65h14v47h22.72v55.73s.84,30.39,25.56,30.39,28.72,29.75,28.72,29.75v19.85h15v-9.41h2v-12.53h11v12.53h3v9.41h4.6V1280.4h51.23v-41.19h12v-91H909.5v-87.69h5.83v-8.35h8.17v8.35h5v-44.88h11v4.17h10l4.53-4.73h18v-62.6h10.33l17.17-20.35h14l12.61,20.35h22.22V928h34.23l25.94,12.53h18V952l18.06,11.31h35.11V953l6.22-8.87,22.11-8.35,18,4.18,10.5,7.82H1215V977l21,.52-20.5,27.67v71h53.72s10.78.7,10.78,11.31v34.1h40.5l10-143.53-9.5-52.2h25l8.22-87.16h8.56l8.72,88.21h28l-16,50.1,3.28,18.27h55.55L1453,967.13l22.5-.53s-36-8.35-34-50.1l88.5,30.79s-18.83,19.31-39.67,19.84H1498v19.71h5.5v3.77h23s-.75,3.92,0,4.7,49.61,0,49.61,0v-6.78h18.39A32.08,32.08,0,0,1,1573,964l55,15.66s-11.5,9.92-20.5,9.92h12v7.31h6v17.22H1639s-.78,171.89,0,172.7,11.5,0,11.5,0v8.41H1639v82.19h10.89v-34.17h22.87a9.45,9.45,0,0,1,9.24,9.65v13.36c0,5.7,4.73,10.28,10.15,9.6a1.76,1.76,0,0,0,.85-.25c.75-.78,0-104.37,0-104.37l22.26-23.23v-12.28h12.24l25-26.1V1096h12l21-19.83h23v-23h7V1047h4v-19.83s-1-15.66,10-15.66h21V981.22h5v21.92h2v6.26h9v-25h2v25h13V963.47h3v44.89h7v78.29h8l-.5-164.41h24v-3.65h4.89v3.65h7.33V911.45h7.56l9.72,7.89V892h5.61V876.19h2v15.26H1963V940h-2.44v9.91H1963v10.73h-2.22v13.28H1980v13.17h2.11v2.78H1980v225.71h-2.78v28.7s20.36-5,29.73,2.51c13,10.54,32.55,2.71,34-2.51v-89s.06-13.8,9.78-13.8h36.89a20.07,20.07,0,0,0,13.33-19.16v-47.12l57,30.79v-30.79l217,108h7.53v-5s0-3.89,3-3.89,3,3.14,3,3.14v6.22h7.83v-6.17s.17-3.19,3.17-3.19,3,3.14,3,3.14v6.73h13V1048.32s-.5-59.27,47.5-64.49c0,0-4,51.15,49.83,63.6v55.92h11.06v4.81h6.61v-2.55h3v-1.74h2.39v-1.56h3.61v-61.59l5-5.22h18v-3.13h26v-23.92s1-6.88,10.5-6.88,11.5,5.74,11.5,5.74v24h24v4.18h14l5,5.22v119.87h21v15.83h-14l-6,6.27v108.56h9.17v-4.18h6.83v4.18h5.83v-4.35H2681v-24.6h5.33v-26.73h1.17v26.73h2.83V1242h2.17v20.29h2.5v29h12.17l10.16-10.61V1175.38l45.67-26.62v38.45h7.5V1203h17.67v-4.35H2807v-87.51h4.5v2.61h17v-95.51h6.33v-4.7l11.84,4.7v-4.88l10.66,4.88v-4.88l10.34,4.88v-5l9.83,5h11v92.9H2915v29.75h-2.5v62.63h19.17l4.83-10.44,5,10.44H2967v-79.68s.5-11.13,9-11.13h73.17s5.76-.35,5.76-7V1049c0-7.45,8.07-28.1,8.07-36,0,0-5.07,0-5.07-.93V937.65a4.53,4.53,0,0,0-4.43-4.62h0v-7.14l40.76-65.45c13.74-24.84,37.46-18.94,49.5-.72l43.74,66.17v5.86h0a5.12,5.12,0,0,0-5,5.22v74l-5.5,2.09h0a269.45,269.45,0,0,1,11.5,77.93v99.52h10.17V1175.2h7.83v15.31h8.67v-16.18h14.33a10.88,10.88,0,0,0-5,9.22v7H3239v-97.6h33.67v-7.83h-2.84v-21.4l8.67-10.43,10,10.43v21.4h-2.67v7.83h17.67V1080h9l8.19,10a10.39,10.39,0,0,1,2.31,6.56v102.75s22,0,22,41.23l4.64,19.68c2.36,10,11,58.61,20.9,58.61h4.33c8.38,0,15.65-47.52,17.58-56l4.55-20.17v-43.32l17.64-16.07v-4.81h5.49l15-13.83v-5.13h5.42l15-13.4.5-224.26h8.5v-8.35h10v-8.47h9v-10h11s8-.52,8-19.31a73,73,0,0,0-8-32.88H3523a95.29,95.29,0,0,0-6.5,33.92c0,18.79,6.5,20.36,6.5,20.36h10.56v9.91h10.94v7.48h11v7.54h10v218.81l13,13.57h7V1159l19,18.45h7v7.3l11.5,11.66v-63s.5-11.83,14-11.83h46V835.51l27.39-33V790.83h9.33l55.78-70.58-11.11,45.3v496h15.28v-11h26.83v11h16.83V1240.1h9.17v21.42H3859v-11h23.5V925.72s25-19,25-45.93h24s1.08,24.44,19,43.15v12.35h15v12.52h81v4.7h87v-4h12v151.54h-6v138h5.5v8.35l80-35,25.33-35.14h25.78l8.61-9h7.78v-8.58h7l13-13.57,18.5-19.32v-33.92l17.08-17.83v-23.93l15.32-16h17.16v-82.3h4.94v69.59h20V996.88h14v25h49s-29-8.35-29-38.62l78,25.05s-7,13.57-28,13.57h84l13.5-14.09h11.33v118.48l15.34,22.09h22l14.83-14.26V960.34l91,43.84V957.73l62.47,32V937.9s8.78-42.68,44.16-42.68,51.37,42.16,51.37,42.16V1082h24.39v-13.22h17.61V1056.2h12v-16.53h18V1022.1h9v-14.38h4.5V988.53l93.5-139.88-4,26.85v98.58h15V910.76h17V880h9v29.91h4.5V1440H103"/><path class="a" d="M12133.08,922.24h24v-3.65h4.9v3.65h7.35V911.45h7.57l9.74,7.89V892h5.63V876.19h2v15.26h2.9V940h-2.45v9.91h2.45v10.73H12195v13.28h19.26v13.17h2.12v2.78h-2.12v225.71h-2.78v28.7s20.4-5,29.79,2.51c13.08,10.54,32.62,2.71,34.12-2.51v-89s.06-13.8,9.8-13.8h37a20.07,20.07,0,0,0,13.36-19.16v-47.12l57.13,30.79v-30.79l217.46,108h7.55v-5s0-3.89,3-3.89,3,3.14,3,3.14v6.22h7.85v-6.17s.17-3.19,3.18-3.19,3,3.14,3,3.14v6.73h13V1048.32s-.5-59.27,47.6-64.49c0,0-4,51.15,49.94,63.6v55.92h11.08v4.81h6.63v-2.55h3v-1.74h2.4v-1.56h3.62v-61.59l5-5.22h18v-3.13h26v-23.92s1-6.88,10.52-6.88,11.53,5.74,11.53,5.74v24h24v4.18h14l5,5.22v119.87h21v15.83h-14l-6,6.27v108.56h9.19v-4.18h6.85v4.18h5.84v-4.35h4.68v-24.6h5.34v-26.73h1.17v26.73h2.84V1242h2.17v20.29h2.51v29H12943l10.19-10.61V1175.38l45.77-26.62v38.45h7.51V1203h17.71v-4.35H13043v-87.51h4.51v2.61h17v-95.51h6.34v-4.7l11.86,4.7v-4.88l10.69,4.88v-4.88l10.36,4.88v-5l9.85,5h11v92.9h26.55v29.75h-2.5v62.63H13168l4.84-10.44,5,10.44h25.55v-79.68s.51-11.13,9-11.13h73.33s5.77-.35,5.77-7V1049c0-7.45,8.09-28.1,8.09-36,0,0-5.08,0-5.08-.93V937.65a4.53,4.53,0,0,0-4.44-4.62h0v-7.14l40.85-65.45c13.77-24.84,37.54-18.94,49.61-.72l43.83,66.17v5.86h0a5.12,5.12,0,0,0-5,5.22v74l-5.51,2.09h0a269.13,269.13,0,0,1,11.52,77.93v99.52h10.19V1175.2h7.85v15.31h8.68v-16.18h14.37a10.87,10.87,0,0,0-5,9.22v7H13476v-97.6h33.74v-7.83h-2.84v-21.4l8.68-10.43,10,10.43v21.4h-2.68v7.83h17.71V1080h9l8.2,10a10.34,10.34,0,0,1,2.32,6.56v102.75s22.05,0,22.05,41.23l4.64,19.68c2.37,10,11,58.61,21,58.61h4.34c8.4,0,15.69-47.52,17.61-56l4.57-20.17v-43.32l17.67-16.07v-4.81h5.51l15-13.83v-5.13h5.44l15-13.4.51-224.26h8.51v-8.35h10v-8.47h9v-10h11s8-.52,8-19.31a72.94,72.94,0,0,0-8-32.88h28.56a95,95,0,0,0-6.52,33.92c0,18.79,6.52,20.36,6.52,20.36h10.58v9.91h11v7.48h11v7.54h10v218.81l13,13.57h7V1159l19,18.45h7v7.3l11.52,11.66v-63s.5-11.83,14-11.83h46.1V835.51l27.45-33V790.83h9.35l55.9-70.58-11.13,45.3v496h15.31v-11h26.89v11h16.87V1240.1h9.18v21.42h26.56v-11h23.55V925.72s25.06-19,25.06-45.93H14170s1.08,24.44,19,43.15v12.35h15v12.52h81.17v4.7h87.19v-4h12v151.54h-6v138h5.52v8.35l80.17-35,25.38-35.14h25.84l8.63-9h7.79v-8.58h7l13-13.57,18.53-19.32v-33.92l17.12-17.83v-23.93l15.36-16H14620v-82.3h5v69.59h20V996.88h14v25h49.1s-29.06-8.35-29.06-38.62l78.17,25.05s-7,13.57-28.06,13.57l22.18-3,13.52-14.09h11.36v118.48l15.37,22.09h22l14.86-14.26V957.34l91.2,43.84V954.73l62.6,32V934.9s8.8-42.68,44.25-42.68,51.49,42.16,51.49,42.16V1079h24.44l18.53,86,.12,107.73V1260.2h12v-16.53h18V1226.1h9v-14.38h4.51L15188,1246l2.41,37.65-4,26.85v98.58h15v-63.32h17V1315h9v29.91L15249,1440H10230V1044.37h34.41v52.72l19.11-24V982.26h12.07V945.73h4.06V977h10v-8.35h5v13.57H10362V967.65h8.85l10,10.44v4.17h1.89v99.34l15.15-11.65h8v-13.57h6V1070h9l15.87,11.65h6.9v-5.39h5.29V1072h3l11-81.42-10.89-51.26V892.49h97.07v93l55.12-26.21v27.78l56.12-25.7v24l63.14-25v175.37l6,8.35,8,6.27h12v67.33h-3v84s67.14,1,67.14,0v-83.51h-3.26V916.5h170.62v.06c0,17.84-13.88,32.3-31,32.3h-18.21c-21,0-38,17.71-38,39.55v.12H10923v3.65h45.09v-3.65h14v47h22.77v55.73s.84,30.39,25.61,30.39,28.79,29.75,28.79,29.75v19.85h15v-9.41h2v-12.53h11v12.53h3v9.41h4.61V1280.4h51.35v-41.19h12v-91h-16.87v-87.69h5.85v-8.35h8.18v8.35h5v-44.88h11v4.17h10l4.54-4.73h18v-62.6h10.35l17.21-20.35h14l12.64,20.35h22.27V928h34.29l26,12.53h18V952L11377,963.3h35.19V953l6.24-8.87,22.16-8.35,18,4.18,10.53,7.82h-21.55V977l21,.52-20.55,27.67v71H11502s10.8.7,10.8,11.31v34.1h40.59l10-143.53-9.52-52.2h25l8.24-87.16h8.58l8.74,88.21h28.06l-16,50.1,3.29,18.27h55.67l10.69-28.18,22.55-.53s-36.08-8.35-34.07-50.1l88.69,30.79s-18.88,19.31-39.75,19.84h7.68v19.71h5.51v3.77h23.05s-.75,3.92,0,4.7,49.72,0,49.72,0v-6.78h18.43a32.12,32.12,0,0,1-21.55-24.54l55.12,15.66s-11.53,9.92-20.55,9.92h12v7.31h6v17.22h13.53s-.78,171.89,0,172.7,11.53,0,11.53,0v8.41h-11.53v82.19h10.91v-34.17h22.92a9.46,9.46,0,0,1,9.26,9.65v13.36c0,5.7,4.74,10.28,10.18,9.6a1.76,1.76,0,0,0,.85-.25c.75-.78,0-104.37,0-104.37l22.3-23.23v-12.28h12.27l25.06-26.1V1096h12l21-19.83h23v-23h7V1047h4v-19.83s-1-15.66,10-15.66h21V981.22h5v21.92h2v6.26h9v-25h2v25h13V963.47h3v44.89h7v78.29h8Z"/><path class="a" d="M6966.5,693.16a21.93,21.93,0,0,0-43.85,0c0,12,13.7,29.59,21.92,29.59C6951,722.75,6966.5,705.12,6966.5,693.16Z"/><path class="a" d="M6941.83,725.26h5.48a0,0,0,0,1,0,0v4.81a.6.6,0,0,1-.6.6h-4.27a.6.6,0,0,1-.6-.6v-4.81A0,0,0,0,1,6941.83,725.26Z"/><polyline class="a" points="6938.64 713.07 6942.29 726.62 6946.86 726.62 6949.6 713.07"/><path class="a" d="M5877.5,629.16c0-10.31-8.1-18.67-18.09-18.67s-18.09,8.36-18.09,18.67,11.3,25.5,18.09,25.5C5864.68,654.66,5877.5,639.47,5877.5,629.16Z"/><path class="a" d="M5857.15,656.82h4.52a0,0,0,0,1,0,0v4.06a.6.6,0,0,1-.6.6h-3.31a.6.6,0,0,1-.6-.6v-4.06A0,0,0,0,1,5857.15,656.82Z"/><polyline class="a" points="5854.51 646.32 5857.52 657.99 5861.29 657.99 5863.55 646.32"/><path class="a" d="M2840.35,762.8c0-11.6-8.89-21-19.85-21s-19.85,9.4-19.85,21,12.41,28.7,19.85,28.7C2826.29,791.5,2840.35,774.41,2840.35,762.8Z"/><path class="a" d="M2818,793.93h5a0,0,0,0,1,0,0v4.65a.6.6,0,0,1-.6.6h-3.75a.6.6,0,0,1-.6-.6v-4.65A0,0,0,0,1,2818,793.93Z"/><polyline class="a" points="2815.12 782.11 2818.43 795.24 2822.57 795.24 2825.05 782.11"/><path class="a" d="M1565.35,706.8c0-11.6-8.89-21-19.85-21s-19.85,9.4-19.85,21,12.41,28.7,19.85,28.7C1551.29,735.5,1565.35,718.41,1565.35,706.8Z"/><path class="a" d="M1543,737.93h5a0,0,0,0,1,0,0v4.65a.6.6,0,0,1-.6.6h-3.75a.6.6,0,0,1-.6-.6v-4.65A0,0,0,0,1,1543,737.93Z"/><polyline class="a" points="1540.12 726.11 1543.43 739.24 1547.57 739.24 1550.05 726.11"/><path class="a" d="M12521.35,825.8c0-11.6-8.89-21-19.85-21s-19.85,9.4-19.85,21,12.41,28.7,19.85,28.7C12507.29,854.5,12521.35,837.41,12521.35,825.8Z"/><path class="a" d="M12499,856.93h5a0,0,0,0,1,0,0v4.65a.6.6,0,0,1-.6.6h-3.75a.6.6,0,0,1-.6-.6v-4.65A0,0,0,0,1,12499,856.93Z"/><polyline class="a" points="12496.12 845.11 12499.43 858.24 12503.57 858.24 12506.05 845.11"/><rect class="b" x="7318" y="1146" width="15" height="16"/><rect class="b" x="7349" y="1146" width="15" height="16"/><rect class="b" x="7561" y="1052" width="15" height="16"/><rect class="b" x="7702" y="1316" width="15" height="16"/><rect class="b" x="7411" y="1175" width="15" height="16"/><rect class="b" x="7227" y="1193" width="15" height="16"/><rect class="b" x="7258" y="1193" width="15" height="16"/><rect class="b" x="7989" y="1171" width="4" height="34"/><rect class="b" x="8016" y="1225" width="4" height="37"/><rect class="b" x="7965" y="1044" width="5" height="54"/><rect class="b" x="8199" y="937" width="3" height="483"/><rect class="b" x="8236" y="937" width="3" height="483"/><rect class="b" x="8273" y="937" width="3" height="483"/><rect class="b" x="8623" y="895" width="5" height="373"/><rect class="b" x="8818" y="863" width="15" height="16"/><rect class="b" x="8847" y="863" width="15" height="16"/><rect class="b" x="8847" y="907" width="15" height="16"/><rect class="b" x="8818" y="953" width="15" height="16"/><rect class="b" x="8813" y="998" width="15" height="16"/><rect class="b" x="8813" y="1043" width="15" height="16"/><rect class="b" x="9132.5" y="887.5" width="4" height="203" transform="translate(8145.5 10123.5) rotate(-90)"/><rect class="b" x="9132.5" y="943.5" width="4" height="203" transform="translate(8089.5 10179.5) rotate(-90)"/><rect class="b" x="9132.5" y="964.5" width="4" height="203" transform="translate(8068.5 10200.5) rotate(-90)"/><rect class="b" x="9132.5" y="1024.5" width="4" height="203" transform="translate(8008.5 10260.5) rotate(-90)"/><rect class="b" x="9132.5" y="1045.5" width="4" height="203" transform="translate(7987.5 10281.5) rotate(-90)"/><rect class="b" x="9132.5" y="1066.5" width="4" height="203" transform="translate(7966.5 10302.5) rotate(-90)"/><rect class="b" x="6955" y="1160" width="5" height="39"/><rect class="b" x="6996" y="1070" width="4" height="34"/><rect class="b" x="7038" y="1128" width="4" height="37"/><rect class="b" x="7060" y="1043" width="5" height="54"/><rect class="b" x="6564.5" y="943.5" width="4" height="203" transform="translate(5521.5 7611.5) rotate(-90)"/><rect class="b" x="6564.5" y="997.5" width="4" height="203" transform="translate(5467.5 7665.5) rotate(-90)"/><rect class="b" x="6564.5" y="1068.5" width="4" height="203" transform="translate(5396.5 7736.5) rotate(-90)"/><rect class="b" x="6564.5" y="1089.5" width="4" height="203" transform="translate(5375.5 7757.5) rotate(-90)"/><rect class="b" x="6564.5" y="1110.5" width="4" height="203" transform="translate(5354.5 7778.5) rotate(-90)"/><rect class="b" x="6564.5" y="1131.5" width="4" height="203" transform="translate(5333.5 7799.5) rotate(-90)"/><rect class="b" x="6217.5" y="901.5" width="4" height="203" transform="translate(5216.5 7222.5) rotate(-90)"/><rect class="b" x="6217.5" y="953.5" width="4" height="203" transform="translate(5164.5 7274.5) rotate(-90)"/><rect class="b" x="6217.5" y="974.5" width="4" height="203" transform="translate(5143.5 7295.5) rotate(-90)"/><rect class="b" x="6217.5" y="995.5" width="4" height="203" transform="translate(5122.5 7316.5) rotate(-90)"/><rect class="b" x="6217.5" y="1016.5" width="4" height="203" transform="translate(5101.5 7337.5) rotate(-90)"/><rect class="b" x="6217.5" y="1078.5" width="4" height="203" transform="translate(5039.5 7399.5) rotate(-90)"/><rect class="b" x="5187" y="1132" width="15" height="16"/><rect class="b" x="5218" y="1132" width="15" height="16"/><rect class="b" x="5287" y="1219" width="15" height="16"/><rect class="b" x="5318" y="1219" width="15" height="16"/><rect class="b" x="5497" y="1106" width="15" height="16"/><rect class="b" x="5528" y="1106" width="15" height="16"/><rect class="b" x="5361" y="1014" width="15" height="16"/><rect class="b" x="5392" y="1014" width="15" height="16"/><rect class="b" x="5163" y="1263" width="15" height="16"/><rect class="b" x="5194" y="1263" width="15" height="16"/><rect class="b" x="9510" y="1071" width="15" height="16"/><rect class="b" x="9606" y="1071" width="15" height="16"/><rect class="b" x="9510" y="1116" width="15" height="16"/><rect class="b" x="9606" y="1116" width="15" height="16"/><rect class="b" x="9510" y="1161" width="15" height="16"/><rect class="b" x="9510" y="1206" width="15" height="16"/><rect class="b" x="9827" y="1056" width="15" height="16"/><rect class="b" x="9858" y="1056" width="15" height="16"/><rect class="b" x="9927" y="1143" width="15" height="16"/><rect class="b" x="9958" y="1143" width="15" height="16"/><rect class="b" x="9803" y="1187" width="15" height="16"/><rect class="b" x="9834" y="1187" width="15" height="16"/><rect class="b" x="5777" y="1162" width="4" height="34"/><rect class="b" x="5841" y="1135" width="5" height="54"/><rect class="b" x="5753" y="1035" width="5" height="54"/><rect class="b" x="10151" y="1180" width="4" height="34"/><rect class="b" x="10215" y="1153" width="5" height="54"/><rect class="b" x="10127" y="1053" width="5" height="54"/><rect class="b" x="7865" y="1175" width="4" height="34" transform="translate(15734 2384) rotate(-180)"/><rect class="b" x="7844" y="1229" width="4" height="37" transform="translate(15692 2495) rotate(-180)"/><rect class="b" x="7935" y="1127" width="5" height="54"/><rect class="b" x="7706" y="1116" width="15" height="16"/><rect class="b" x="7737" y="1116" width="15" height="16"/><rect class="b" x="7611" y="1225" width="15" height="16"/><rect class="b" x="7642" y="1225" width="15" height="16"/><rect class="b" x="10041" y="1122" width="5" height="54"/><rect class="b" x="10165" y="968" width="4" height="34"/><rect class="b" x="6423" y="1337" width="432" height="8"/><rect class="b" x="5296" y="1345" width="114" height="8"/><rect class="b" x="6521" y="1362" width="108" height="8"/><rect class="b" x="6897" y="1247" width="5" height="39"/><rect class="b" x="6996" y="1267" width="4" height="34"/><rect class="b" x="7038" y="1325" width="4" height="37"/><rect class="b" x="5867" y="1258" width="4" height="34"/><rect class="b" x="5475" y="1267" width="15" height="16"/><rect class="b" x="5506" y="1267" width="15" height="16"/><rect class="b" x="5751" y="1341" width="4" height="34"/><rect class="b" x="8120" y="1268" width="4" height="34" transform="translate(16244 2570) rotate(-180)"/><rect class="b" x="8086" y="1266" width="4" height="37" transform="translate(16176 2569) rotate(-180)"/><rect class="b" x="8177" y="1164" width="5" height="54"/><rect class="b" x="8096" y="1212.33" width="4" height="34" transform="translate(16196 2458.67) rotate(-180)"/><rect class="b" x="8145" y="1126" width="4" height="34" transform="translate(16294 2286) rotate(-180)"/><rect class="b" x="8163" y="1124" width="4" height="34" transform="translate(16330 2282) rotate(-180)"/><rect class="b" x="9132.5" y="1122.5" width="4" height="203" transform="translate(7910.5 10358.5) rotate(-90)"/><rect class="b" x="9132.5" y="1178.5" width="4" height="203" transform="translate(7854.5 10414.5) rotate(-90)"/><rect class="b" x="9132.5" y="1199.5" width="4" height="203" transform="translate(7833.5 10435.5) rotate(-90)"/><rect class="b" x="9132.5" y="1259.5" width="4" height="203" transform="translate(7773.5 10495.5) rotate(-90)"/><rect class="b" x="9510" y="1250" width="15" height="16"/><rect class="b" x="9606" y="1250" width="15" height="16"/><rect class="b" x="9510" y="1340" width="15" height="16"/><rect class="b" x="9606" y="1340" width="15" height="16"/><rect class="b" x="9737" y="1187" width="15" height="16"/><rect class="b" x="9768" y="1187" width="15" height="16"/><rect class="b" x="10037" y="1184" width="5" height="54"/><rect class="b" x="10075" y="1099" width="4" height="34"/><rect class="b" x="7176.5" y="1296.67" width="15" height="16"/><rect class="b" x="7235" y="1326" width="15" height="16"/><rect class="b" x="7333.17" y="1222.67" width="15" height="16"/><rect class="b" x="7580" y="1201" width="15" height="16"/><rect class="b" x="7727" y="1316" width="15" height="16"/><rect class="b" x="6521" y="1409" width="108" height="8"/><rect class="b" x="2201.17" y="1130" width="15" height="16"/><rect class="b" x="2232.17" y="1130" width="15" height="16"/><rect class="b" x="2444.17" y="1036" width="15" height="16"/><rect class="b" x="2585.17" y="1300" width="15" height="16"/><rect class="b" x="2294.17" y="1159" width="15" height="16"/><rect class="b" x="2110.17" y="1177" width="15" height="16"/><rect class="b" x="2141.17" y="1177" width="15" height="16"/><rect class="b" x="2872.17" y="1155" width="4" height="34"/><rect class="b" x="2899.17" y="1209" width="4" height="37"/><rect class="b" x="2848.17" y="1028" width="5" height="54"/><rect class="b" x="3082.17" y="921" width="3" height="483"/><rect class="b" x="3122.17" y="921" width="3" height="483"/><rect class="b" x="3159.17" y="921" width="3" height="483"/><rect class="b" x="3506.17" y="879" width="5" height="373"/><rect class="b" x="3701.17" y="847" width="15" height="16"/><rect class="b" x="3730.17" y="847" width="15" height="16"/><rect class="b" x="3730.17" y="891" width="15" height="16"/><rect class="b" x="3701.17" y="937" width="15" height="16"/><rect class="b" x="3696.17" y="982" width="15" height="16"/><rect class="b" x="3696.17" y="1027" width="15" height="16"/><rect class="b" x="3696.17" y="1072" width="15" height="16"/><rect class="b" x="3792.17" y="1252" width="15" height="16"/><rect class="b" x="4015.67" y="871.5" width="4" height="203" transform="translate(3044.67 4990.67) rotate(-90)"/><rect class="b" x="4015.67" y="927.5" width="4" height="203" transform="translate(2988.67 5046.67) rotate(-90)"/><rect class="b" x="4015.67" y="948.5" width="4" height="203" transform="translate(2967.67 5067.67) rotate(-90)"/><rect class="b" x="4015.67" y="1008.5" width="4" height="203" transform="translate(2907.67 5127.67) rotate(-90)"/><rect class="b" x="4015.67" y="1029.5" width="4" height="203" transform="translate(2886.67 5148.67) rotate(-90)"/><rect class="b" x="4015.67" y="1050.5" width="4" height="203" transform="translate(2865.67 5169.67) rotate(-90)"/><rect class="b" x="1838.17" y="1144" width="5" height="39"/><rect class="b" x="1879.17" y="1054" width="4" height="34"/><rect class="b" x="1921.17" y="1112" width="4" height="37"/><rect class="b" x="1943.17" y="1027" width="5" height="54"/><rect class="b" x="1447.67" y="927.5" width="4" height="203" transform="translate(420.67 2478.67) rotate(-90)"/><rect class="b" x="1447.67" y="981.5" width="4" height="203" transform="translate(366.67 2532.67) rotate(-90)"/><rect class="b" x="1447.67" y="1052.5" width="4" height="203" transform="translate(295.67 2603.67) rotate(-90)"/><rect class="b" x="1447.67" y="1073.5" width="4" height="203" transform="translate(274.67 2624.67) rotate(-90)"/><rect class="b" x="1447.67" y="1094.5" width="4" height="203" transform="translate(253.67 2645.67) rotate(-90)"/><rect class="b" x="1447.67" y="1115.5" width="4" height="203" transform="translate(232.67 2666.67) rotate(-90)"/><rect class="b" x="1100.67" y="885.5" width="4" height="203" transform="translate(115.67 2089.67) rotate(-90)"/><rect class="b" x="1100.67" y="937.5" width="4" height="203" transform="translate(63.67 2141.67) rotate(-90)"/><rect class="b" x="1100.67" y="958.5" width="4" height="203" transform="translate(42.67 2162.67) rotate(-90)"/><rect class="b" x="237" y="1205" width="15" height="16"/><rect class="b" x="201.17" y="1203" width="15" height="16"/><rect class="b" x="380.17" y="1090" width="15" height="16"/><rect class="b" x="411.17" y="1090" width="15" height="16"/><rect class="b" x="244.17" y="998" width="15" height="16"/><rect class="b" x="275.17" y="998" width="15" height="16"/><rect class="b" x="4393.17" y="1055" width="15" height="16"/><rect class="b" x="4489.17" y="1055" width="15" height="16"/><rect class="b" x="4393.17" y="1100" width="15" height="16"/><rect class="b" x="4489.17" y="1100" width="15" height="16"/><rect class="b" x="4393.17" y="1145" width="15" height="16"/><rect class="b" x="4393.17" y="1190" width="15" height="16"/><rect class="b" x="4710.17" y="1040" width="15" height="16"/><rect class="b" x="4741.17" y="1040" width="15" height="16"/><rect class="b" x="4810.17" y="1127" width="15" height="16"/><rect class="b" x="4841.17" y="1127" width="15" height="16"/><rect class="b" x="4686.17" y="1171" width="15" height="16"/><rect class="b" x="4717.17" y="1171" width="15" height="16"/><rect class="b" x="660.17" y="1146" width="4" height="34"/><rect class="b" x="724.17" y="1119" width="5" height="54"/><rect class="b" x="636.17" y="1019" width="5" height="54"/><rect class="b" x="5034.17" y="1164" width="4" height="34"/><rect class="b" x="5098.17" y="1137" width="5" height="54"/><rect class="b" x="5010.17" y="1037" width="5" height="54"/><rect class="b" x="2748.17" y="1159" width="4" height="34" transform="translate(5500.33 2352) rotate(-180)"/><rect class="b" x="2727.17" y="1213" width="4" height="37" transform="translate(5458.33 2463) rotate(-180)"/><rect class="b" x="2818.17" y="1111" width="5" height="54"/><rect class="b" x="2589.17" y="1100" width="15" height="16"/><rect class="b" x="2620.17" y="1100" width="15" height="16"/><rect class="b" x="2494.17" y="1209" width="15" height="16"/><rect class="b" x="2525.17" y="1209" width="15" height="16"/><rect class="b" x="4924.17" y="1106" width="5" height="54"/><rect class="b" x="5048.17" y="952" width="4" height="34"/><rect class="b" x="2350.17" y="1248" width="15" height="16"/><rect class="b" x="2381.17" y="1248" width="15" height="16"/><rect class="b" x="2259.17" y="1295" width="15" height="16"/><rect class="b" x="2258.17" y="1272" width="15" height="16"/><rect class="b" x="1780.17" y="1231" width="5" height="39"/><rect class="b" x="1879.17" y="1251" width="4" height="34"/><rect class="b" x="1921.17" y="1309" width="4" height="37"/><rect class="b" x="750.17" y="1242" width="4" height="34"/><rect class="b" x="358.17" y="1251" width="15" height="16"/><rect class="b" x="389.17" y="1251" width="15" height="16"/><rect class="b" x="3003.17" y="1252" width="4" height="34" transform="translate(6010.33 2538) rotate(-180)"/><rect class="b" x="2969.17" y="1250" width="4" height="37" transform="translate(5942.33 2537) rotate(-180)"/><rect class="b" x="3060.17" y="1148" width="5" height="54"/><rect class="b" x="2979.17" y="1196.33" width="4" height="34" transform="translate(5962.33 2426.67) rotate(-180)"/><rect class="b" x="3028.17" y="1110" width="4" height="34" transform="translate(6060.33 2254) rotate(-180)"/><rect class="b" x="3046.17" y="1108" width="4" height="34" transform="translate(6096.33 2250) rotate(-180)"/><rect class="b" x="4015.67" y="1106.5" width="4" height="203" transform="translate(2809.67 5225.67) rotate(-90)"/><rect class="b" x="4015.67" y="1162.5" width="4" height="203" transform="translate(2753.67 5281.67) rotate(-90)"/><rect class="b" x="4015.67" y="1183.5" width="4" height="203" transform="translate(2732.67 5302.67) rotate(-90)"/><rect class="b" x="4015.67" y="1243.5" width="4" height="203" transform="translate(2672.67 5362.67) rotate(-90)"/><rect class="b" x="4015.67" y="1264.5" width="4" height="203" transform="translate(2651.67 5383.67) rotate(-90)"/><rect class="b" x="4393.17" y="1234" width="15" height="16"/><rect class="b" x="4489.17" y="1234" width="15" height="16"/><rect class="b" x="4393.17" y="1324" width="15" height="16"/><rect class="b" x="4489.17" y="1324" width="15" height="16"/><rect class="b" x="4620.17" y="1171" width="15" height="16"/><rect class="b" x="4651.17" y="1171" width="15" height="16"/><rect class="b" x="4720.17" y="1258" width="15" height="16"/><rect class="b" x="4751.17" y="1258" width="15" height="16"/><rect class="b" x="4944.17" y="1295" width="4" height="34"/><rect class="b" x="5008.17" y="1268" width="5" height="54"/><rect class="b" x="4920.17" y="1168" width="5" height="54"/><rect class="b" x="4958.17" y="1083" width="4" height="34"/><rect class="b" x="4874.17" y="1331" width="15" height="16" transform="translate(9763.33 2678) rotate(180)"/><rect class="b" x="2059.67" y="1280.67" width="15" height="16"/><rect class="b" x="2118.17" y="1310" width="15" height="16"/><rect class="b" x="2235.17" y="1272" width="15" height="16"/><rect class="b" x="2216.33" y="1206.67" width="15" height="16"/><rect class="b" x="2463.17" y="1185" width="15" height="16"/><rect class="b" x="2610.17" y="1300" width="15" height="16"/><rect class="b" x="12436.5" y="1143" width="15" height="16"/><rect class="b" x="12467.5" y="1143" width="15" height="16"/><rect class="b" x="12679.5" y="1049" width="15" height="16"/><rect class="b" x="12820.5" y="1313" width="15" height="16"/><rect class="b" x="12529.5" y="1172" width="15" height="16"/><rect class="b" x="12345.5" y="1190" width="15" height="16"/><rect class="b" x="12376.5" y="1190" width="15" height="16"/><rect class="b" x="13107.5" y="1168" width="4" height="34"/><rect class="b" x="13134.5" y="1222" width="4" height="37"/><rect class="b" x="13083.5" y="1041" width="5" height="54"/><rect class="b" x="13317.5" y="934" width="3" height="483"/><rect class="b" x="13357.5" y="934" width="3" height="483"/><rect class="b" x="13394.5" y="934" width="3" height="483"/><rect class="b" x="13936.5" y="860" width="15" height="16"/><rect class="b" x="13965.5" y="860" width="15" height="16"/><rect class="b" x="13965.5" y="904" width="15" height="16"/><rect class="b" x="13936.5" y="950" width="15" height="16"/><rect class="b" x="13931.5" y="995" width="15" height="16"/><rect class="b" x="13931.5" y="1040" width="15" height="16"/><rect class="b" x="13931.5" y="1085" width="15" height="16"/><rect class="b" x="14027.5" y="1265" width="15" height="16"/><rect class="b" x="14251" y="884.5" width="4" height="203" transform="translate(13267 15239) rotate(-90)"/><rect class="b" x="14251" y="940.5" width="4" height="203" transform="translate(13211 15295) rotate(-90)"/><rect class="b" x="14251" y="961.5" width="4" height="203" transform="translate(13190 15316) rotate(-90)"/><rect class="b" x="14251" y="1021.5" width="4" height="203" transform="translate(13130 15376) rotate(-90)"/><rect class="b" x="14251" y="1042.5" width="4" height="203" transform="translate(13109 15397) rotate(-90)"/><rect class="b" x="14251" y="1063.5" width="4" height="203" transform="translate(13088 15418) rotate(-90)"/><rect class="b" x="12073.5" y="1157" width="5" height="39"/><rect class="b" x="12114.5" y="1067" width="4" height="34"/><rect class="b" x="12156.5" y="1125" width="4" height="37"/><rect class="b" x="12178.5" y="1040" width="5" height="54"/><rect class="b" x="11683" y="940.5" width="4" height="203" transform="translate(10643 12727) rotate(-90)"/><rect class="b" x="11683" y="994.5" width="4" height="203" transform="translate(10589 12781) rotate(-90)"/><rect class="b" x="11683" y="1065.5" width="4" height="203" transform="translate(10518 12852) rotate(-90)"/><rect class="b" x="11683" y="1086.5" width="4" height="203" transform="translate(10497 12873) rotate(-90)"/><rect class="b" x="11683" y="1107.5" width="4" height="203" transform="translate(10476 12894) rotate(-90)"/><rect class="b" x="11336" y="898.5" width="4" height="203" transform="translate(10338 12338) rotate(-90)"/><rect class="b" x="11336" y="950.5" width="4" height="203" transform="translate(10286 12390) rotate(-90)"/><rect class="b" x="11336" y="971.5" width="4" height="203" transform="translate(10265 12411) rotate(-90)"/><rect class="b" x="10305.5" y="1129" width="15" height="16"/><rect class="b" x="10336.5" y="1129" width="15" height="16"/><rect class="b" x="10405.5" y="1216" width="15" height="16"/><rect class="b" x="10436.5" y="1216" width="15" height="16"/><rect class="b" x="10615.5" y="1103" width="15" height="16"/><rect class="b" x="10646.5" y="1103" width="15" height="16"/><rect class="b" x="10479.5" y="1011" width="15" height="16"/><rect class="b" x="10510.5" y="1011" width="15" height="16"/><rect class="b" x="10281.5" y="1260" width="15" height="16"/><rect class="b" x="10312.5" y="1260" width="15" height="16"/><rect class="b" x="10895.5" y="1159" width="4" height="34"/><rect class="b" x="10959.5" y="1132" width="5" height="54"/><rect class="b" x="10871.5" y="1032" width="5" height="54"/><rect class="b" x="12983.5" y="1172" width="4" height="34" transform="translate(25971 2378) rotate(-180)"/><rect class="b" x="12962.5" y="1226" width="4" height="37" transform="translate(25929 2489) rotate(-180)"/><rect class="b" x="13053.5" y="1124" width="5" height="54"/><rect class="b" x="12824.5" y="1113" width="15" height="16"/><rect class="b" x="12855.5" y="1113" width="15" height="16"/><rect class="b" x="12729.5" y="1222" width="15" height="16"/><rect class="b" x="12760.5" y="1222" width="15" height="16"/><rect class="b" x="12585.5" y="1261" width="15" height="16"/><rect class="b" x="12616.5" y="1261" width="15" height="16"/><rect class="b" x="12494.5" y="1308" width="15" height="16"/><rect class="b" x="12493.5" y="1285" width="15" height="16"/><rect class="b" x="12015.5" y="1244" width="5" height="39"/><rect class="b" x="12114.5" y="1264" width="4" height="34"/><rect class="b" x="10985.5" y="1255" width="4" height="34"/><rect class="b" x="10593.5" y="1264" width="15" height="16"/><rect class="b" x="10624.5" y="1264" width="15" height="16"/><rect class="b" x="13238.5" y="1265" width="4" height="34" transform="translate(26481 2564) rotate(-180)"/><rect class="b" x="13204.5" y="1263" width="4" height="37" transform="translate(26413 2563) rotate(-180)"/><rect class="b" x="13295.5" y="1161" width="5" height="54"/><rect class="b" x="13214.5" y="1209.33" width="4" height="34" transform="translate(26433 2452.67) rotate(-180)"/><rect class="b" x="13263.5" y="1123" width="4" height="34" transform="translate(26531 2280) rotate(-180)"/><rect class="b" x="13281.5" y="1121" width="4" height="34" transform="translate(26567 2276) rotate(-180)"/><rect class="b" x="14251" y="1119.5" width="4" height="203" transform="translate(13032 15474) rotate(-90)"/><rect class="b" x="14251" y="1175.5" width="4" height="203" transform="translate(12976 15530) rotate(-90)"/><rect class="b" x="14251" y="1196.5" width="4" height="203" transform="translate(12955 15551) rotate(-90)"/><rect class="b" x="14628.5" y="1337" width="15" height="16"/><rect class="b" x="14724.5" y="1337" width="15" height="16"/><rect class="b" x="12295" y="1293.67" width="15" height="16"/><rect class="b" x="12353.5" y="1323" width="15" height="16"/><rect class="b" x="12470.5" y="1285" width="15" height="16"/><rect class="b" x="12451.67" y="1219.67" width="15" height="16"/><rect class="b" x="12698.5" y="1198" width="15" height="16"/><rect class="b" x="12845.5" y="1313" width="15" height="16"/><polyline class="b" points="14895 1029 14895 1045 14880 1045 14880 1029"/><rect class="b" x="14880" y="1074" width="15" height="16"/><rect class="b" x="14880" y="1118" width="15" height="16"/><rect class="b" x="14976" y="1118" width="15" height="16"/><rect class="b" x="14880" y="1208" width="15" height="16"/><rect class="b" x="14976" y="1208" width="15" height="16"/><rect class="b" x="15044" y="1178" width="15" height="16"/><polyline class="b" points="15090 1194 15075 1194 15075 1178 15090 1178"/><polyline class="b" points="14646 1058 14646 1074 14631 1074 14631 1058"/><rect class="b" x="14631" y="1103" width="15" height="16"/><rect class="b" x="14631" y="1147" width="15" height="16"/><rect class="b" x="14727" y="1147" width="15" height="16"/><rect class="b" x="14631" y="1237" width="15" height="16"/><rect class="b" x="14727" y="1237" width="15" height="16"/><rect class="b" x="14631" y="1282" width="15" height="16"/><rect class="b" x="14727" y="1282" width="15" height="16"/><rect class="b" x="8602" y="918" width="5" height="373"/><rect class="b" x="8645" y="918" width="5" height="373"/><rect class="b" x="7891" y="1276" width="15" height="16"/><rect class="b" x="7891" y="1321" width="15" height="16"/><rect class="b" x="7959" y="1232" width="15" height="16"/><rect class="b" x="7959" y="1322" width="15" height="16"/><rect class="b" x="8026" y="1325" width="15" height="16"/><rect class="b" x="8857" y="1330" width="15" height="16" transform="translate(17729 2676) rotate(180)"/><rect class="b" x="8857" y="1285" width="15" height="16" transform="translate(17729 2586) rotate(180)"/><rect class="b" x="8789" y="1284" width="15" height="16" transform="translate(17593 2584) rotate(180)"/><rect class="b" x="8722" y="1281" width="15" height="16" transform="translate(17459 2578) rotate(180)"/><rect class="b" x="8840" y="1163" width="15" height="16"/><rect class="b" x="8373" y="1120" width="15" height="16"/><rect class="b" x="8398" y="1120" width="15" height="16"/></svg>