<svg xmlns="http://www.w3.org/2000/svg" width="15361" height="1440" viewBox="0 0 15361 1440"><defs><style>.a{fill:#01579b;}.b{fill:#90caf9;}</style></defs><path class="a" d="M7397.6,922.2h24v-3.6h4.9v3.6h7.4V911.5h7.5l9.8,7.8V892h5.6V876.2h2v15.2h2.9V940h-2.5v9.9h2.5v10.7h-2.2v13.3h19.2v13.2h2.1v2.8h-2.1v225.7h-2.8v28.7s20.4-5.1,29.8,2.5c13.1,10.5,32.6,2.7,34.1-2.5v-89s0-13.8,9.8-13.8h36.9a20.2,20.2,0,0,0,13.4-19.2v-47.1L7657,1106v-30.8l217.2,108h7.6v-5s0-3.9,3-3.9,3,3.2,3,3.2v6.2h7.8v-6.2s.2-3.2,3.2-3.2,3,3.2,3,3.2v6.7h13V1048.3s-.5-59.3,47.6-64.5c0,0-4,51.2,49.9,63.6v56h11v4.8h6.7v-2.6h3v-1.7h2.4v-1.6h3.6v-61.6l5-5.2h18v-3.1h26v-24s1-6.8,10.6-6.8,11.5,5.7,11.5,5.7v24h24v4.2h14l5,5.2v119.9h21.1v15.8h-14.1l-6,6.3v108.5h9.2v-4.1h6.9v4.1h5.8v-4.3h4.7v-24.6h5.3v-26.7h1.2v26.7h2.8V1242h2.2v20.3h2.5v28.9h12.2l10.1-10.6V1175.4l45.8-26.6v38.4h7.5V1203H8288v-4.3h18.8v-87.5h4.5v2.6h17.1v-95.5h6.3v-4.7l11.9,4.7v-4.9l10.6,4.9v-4.9l10.4,4.9v-5.1l9.8,5.1h11v92.9H8415v29.7h-2.5v62.7h19.2l4.8-10.5,5,10.5h25.6v-79.7s.5-11.2,9-11.2h73.2s5.8-.3,5.8-6.9V1049c0-7.4,8.1-28.1,8.1-35.9,0,0-5.1,0-5.1-1V937.6a4.5,4.5,0,0,0-4.4-4.6h0v-7.1l40.8-65.5c13.7-24.8,37.5-18.9,49.6-.7l43.8,66.2v5.9h0a5.1,5.1,0,0,0-5,5.2v74l-5.6,2.1h0a266.8,266.8,0,0,1,11.6,77.9v99.5H8699v-15.3h7.9v15.3h8.7v-16.2h14.3a11,11,0,0,0-5,9.3v6.9h14.5v-97.6h33.7v-7.8h-2.8v-21.4l8.7-10.5,10,10.5v21.4h-2.7v7.8H8804V1080h9l8.2,10.1a10.1,10.1,0,0,1,2.3,6.5v102.8s22.1,0,22.1,41.2l4.6,19.7c2.4,10,11,58.6,20.9,58.6h4.4c8.4,0,15.7-47.5,17.6-56l4.5-20.2v-43.3l17.7-16.1v-4.8h5.5l15-13.8v-5.2h5.4l15-13.4.5-224.2h8.5v-8.4h10.1v-8.4h9v-10h11s8-.5,8-19.3a73.1,73.1,0,0,0-8-32.9h28.5a95,95,0,0,0-6.5,33.9c0,18.8,6.5,20.4,6.5,20.4h10.6v9.9h10.9v7.5h11.1v7.5h10v218.8l13,13.6h7v4.5l19,18.5h7v7.3l11.6,11.6v-63s.5-11.8,14-11.8h46V835.5l27.5-33V790.8h9.3l55.9-70.6-11.2,45.3v496h15.3v-11h26.9v11h16.9v-21.4h9.1v21.4h26.6v-11h23.5V925.7s25-18.9,25-45.9h24.1s1.1,24.4,19,43.1v12.4h15v12.5H9548v4.7h87.2v-4h12V1100h-6v138h5.5v8.4l80.1-35,25.3-35.2H9778l8.6-8.9h7.8v-8.6h7l13-13.6,18.5-19.3v-33.9L9850,1074v-23.9l15.4-16h17.1V951.8h5v69.6h20V996.9h14v25h49.1s-29-8.3-29-38.6l78.1,25.1s-7,13.5-28.1,13.5h84.2l13.5-14.1h11.3v118.5l15.4,22.1h22l14.9-14.3V960.3l91.1,43.9V957.7l62.5,32V937.9s8.8-42.7,44.3-42.7,51.4,42.2,51.4,42.2V1082h24.4v-13.3h17.7v-12.5h12v-16.5h18v-17.6h9v-14.4h4.5V988.5l93.6-139.9-4,26.9v98.6h15.1V910.8h17V880h9v29.9h4.5V1440H5496V1044.4h34.4v52.7l19.1-24V982.3h12V945.7h4.1V977h10v-8.3h5v13.6h47.2V967.6h8.9l10,10.5v4.2h1.9v99.3l15.1-11.7h8v-13.5h6v13.5h9.1l15.8,11.7h6.9v-5.4h5.3V1072h3l11-81.4-10.9-51.3V892.5h97v93l55.1-26.2v27.8l56.1-25.7v24l63.1-25.1v175.4l6,8.4,8,6.2h12v67.4h-3v84s67.1,1,67.1,0v-83.5H6076V916.5h170.5c0,17.8-13.8,32.3-31,32.3h-18.2c-20.9,0-37.9,17.7-37.9,39.5h29v3.7h45.1v-3.7h14v47h22.8v55.7s.8,30.4,25.6,30.4,28.7,29.8,28.7,29.8v19.8h15.1v-9.4h2v-12.5h11v12.5h3v9.4h4.6v109.2h51.3v-41.2h12v-91h-16.9v-87.6h5.9v-8.4h8.2v8.4h5v-44.9h11v4.1h10l4.5-4.7h18V952.5h10.4l17.2-20.3h14l12.6,20.3h22.3V928H6580l26,12.5h18V952l18.1,11.3h35.2V953l6.2-8.8,22.2-8.4,18,4.2,10.5,7.8h-21.5V977l21,.6-20.5,27.6v71H6767s10.7.7,10.7,11.3v34.1h40.6l10-143.5-9.5-52.2h25l8.3-87.2h8.5l8.8,88.2h28l-16,50.1,3.3,18.3h55.6l10.7-28.2,22.5-.5s-36-8.3-34-50.1l88.6,30.8s-18.9,19.3-39.7,19.8h7.6v19.7h5.6v3.8h23s-.8,3.9,0,4.7,49.7,0,49.7,0v-6.8h18.4a32.1,32.1,0,0,1-21.5-24.5l55,15.7s-11.5,9.9-20.5,9.9h12v7.3h6v17.2h13.5s-.7,171.9,0,172.7,11.6,0,11.6,0v8.4h-11.6v82.2h10.9v-34.2H7171a9.4,9.4,0,0,1,9.3,9.7v13.3c0,5.7,4.7,10.3,10.2,9.6l.8-.2c.8-.8,0-104.4,0-104.4l22.3-23.2v-12.3h12.3l25-26.1V1096h12l21-19.8H7307v-23h7V1047h4v-19.9s-1-15.6,10-15.6h21V981.2h5v21.9h2v6.3h9.1V984.3h2v25.1h13V963.5h3v44.9h7v78.2h8Z"/><path class="a" d="M575.5,1069.9l15.8,11.7h6.9v-5.4h5.3V1072h3l11-81.4L602,989l4.6-96.5h96.9v93l55-26.2v27.8l56-25.7v24l63-25.1v175.4l6,8.4,8,6.2h12v67.4h-3v84s67,1,67,0v-83.5h-3.3V916.5h170.3c0,17.8-13.9,32.3-30.9,32.3h-18.2c-20.9,0-37.9,17.7-37.9,39.5h29v3.7h45v-3.7h14v47h22.7v55.7s.9,30.4,25.6,30.4,28.7,29.8,28.7,29.8v19.8h15v-9.4h2v-12.5h11v12.5h3v9.4h4.6v109.2h51.2v-41.2h12v-91h-16.8v-87.6h5.8v-8.4h8.2v8.4h5v-44.9h11v4.1h10l4.5-4.7h18V952.5h10.3l17.2-20.3h14l12.6,20.3h22.2V928h34.3l25.9,12.5h18V952l18.1,11.3h35.1V953l6.2-8.8,22.1-8.4,18,4.2,10.5,7.8H1600V977l21,.6-20.5,27.6v71h53.7s10.8.7,10.8,11.3v34.1h40.5l10-143.5-9.5-52.2h25l8.2-87.2h8.6l8.7,88.2h28l-16,50.1,3.3,18.3h55.5l10.7-28.2,22.5-.5s-36-8.3-34-50.1l88.5,30.8s-18.8,19.3-39.7,19.8h7.7v19.7h5.5v3.8h23s-.8,3.9,0,4.7,49.6,0,49.6,0v-6.8h18.4A32.1,32.1,0,0,1,1958,964l55,15.7s-11.5,9.9-20.5,9.9h12v7.3h6v17.2H2024s-.8,171.9,0,172.7,11.5,0,11.5,0v8.4H2024v82.2h10.9v-34.2h22.9a9.4,9.4,0,0,1,9.2,9.7v13.3c0,5.7,4.7,10.3,10.2,9.6a1.3,1.3,0,0,0,.8-.2c.7-.8,0-104.4,0-104.4l22.3-23.2v-12.3h12.2l25-26.1V1096h12l21-19.8h23v-23h7V1047h4v-19.9s-1-15.6,10-15.6h21V981.2h5v21.9h2v6.3h9V984.3h2v25.1h13V963.5h3v44.9h7v78.2h8l-.5-164.4h24v-3.6h4.9v3.6h7.3V911.5h7.6l9.7,7.8V892h5.6V876.2h2v15.2h2.9V940h-2.4v9.9h2.4v10.7h-2.2v13.3H2365v13.2h2.1v2.8H2365v225.7h-2.8v28.7s20.4-5.1,29.7,2.5c13.1,10.5,32.6,2.7,34.1-2.5v-89s.1-13.8,9.8-13.8h36.9a20.2,20.2,0,0,0,13.3-19.2v-47.1l57,30.8v-30.8l217,108h7.5v-5s0-3.9,3-3.9,3,3.2,3,3.2v6.2h7.8v-6.2s.2-3.2,3.2-3.2,3,3.2,3,3.2v6.7h13V1048.3s-.5-59.3,47.5-64.5c0,0-4,51.2,49.8,63.6v56h11.1v4.8h6.6v-2.6h3v-1.7h2.4v-1.6h3.6v-61.6l5-5.2h18v-3.1h26v-24s1-6.8,10.5-6.8,11.5,5.7,11.5,5.7v24h24v4.2h14l5,5.2v119.9h21v15.8h-14l-6,6.3v108.5h9.2v-4.1h6.8v4.1h5.8v-4.3h4.7v-24.6h5.3v-26.7h1.2v26.7h2.8V1242h2.2v20.3h2.5v28.9h12.2l10.1-10.6V1175.4l45.7-26.6v38.4h7.5V1203h17.7v-4.3H3192v-87.5h4.5v2.6h17v-95.5h6.3v-4.7l11.9,4.7v-4.9l10.6,4.9v-4.9l10.4,4.9v-5.1l9.8,5.1h11v92.9H3300v29.7h-2.5v62.7h19.2l4.8-10.5,5,10.5H3352v-79.7s.5-11.2,9-11.2h73.2s5.7-.3,5.7-6.9V1049c0-7.4,8.1-28.1,8.1-35.9,0,0-5.1,0-5.1-1V937.6a4.5,4.5,0,0,0-4.4-4.6h0v-7.1l40.8-65.5c13.7-24.8,37.4-18.9,49.5-.7l43.7,66.2v5.9h0a5.1,5.1,0,0,0-5,5.2v74l-5.5,2.1h0a270.1,270.1,0,0,1,11.5,77.9v99.5h10.2v-15.3h7.8v15.3h8.7v-16.2h14.3a11,11,0,0,0-5,9.3v6.9H3624v-97.6h33.7v-7.8h-2.9v-21.4l8.7-10.5,10,10.5v21.4h-2.7v7.8h17.7V1080h9l8.2,10.1a10.1,10.1,0,0,1,2.3,6.5v102.8s22,0,22,41.2l4.6,19.7c2.4,10,11,58.6,20.9,58.6h4.4c8.3,0,15.6-47.5,17.5-56l4.6-20.2v-43.3l17.6-16.1v-4.8h5.5l15-13.8v-5.2h5.4l15-13.4.5-224.2h8.5v-8.4h10v-8.4h9v-10h11s8-.5,8-19.3a73.1,73.1,0,0,0-8-32.9H3908a95,95,0,0,0-6.5,33.9c0,18.8,6.5,20.4,6.5,20.4h10.6v9.9h10.9v7.5h11v7.5h10v218.8l13,13.6h7v4.5l19,18.5h7v7.3l11.5,11.6v-63s.5-11.8,14-11.8h46V835.5l27.4-33V790.8h9.3l55.8-70.6-11.1,45.3v496h15.3v-11h26.8v11h16.8v-21.4h9.2v21.4H4244v-11h23.5V925.7s25-18.9,25-45.9h24s1.1,24.4,19,43.1v12.4h15v12.5h81v4.7h87v-4h12V1100h-6v138h5.5v8.4l80-35,25.3-35.2h25.8l8.6-8.9h7.8v-8.6h7l13-13.6,18.5-19.3v-33.9l17.1-17.9v-23.9l15.3-16h17.2V951.8h4.9v69.6h20V996.9h14v25h49s-29-8.3-29-38.6l78,25.1s-7,13.5-28,13.5h84l13.5-14.1h11.3v118.5l15.4,22.1h22l14.8-14.3V960.3l91,43.9V957.7l62.5,32V937.9s8.8-42.7,44.1-42.7,51.4,42.2,51.4,42.2V1082h24.4v-13.3h17.6v-12.5h12v-16.5h18v-17.6h9v-14.4h4.5V988.5l93.5-139.9-4,26.9v98.6h15V910.8h17V880h9v29.9h4.5V1440H488"/><path class="a" d="M12518.1,922.2h24v-3.6h4.9v3.6h7.4V911.5h7.6l9.7,7.8V892h5.6V876.2h2v15.2h2.9V940h-2.4v9.9h2.4v10.7h-2.2v13.3h19.3v13.2h2.1v2.8h-2.1v225.7h-2.8v28.7s20.4-5.1,29.8,2.5c13,10.5,32.6,2.7,34.1-2.5v-89s0-13.8,9.8-13.8h37a20.2,20.2,0,0,0,13.3-19.2v-47.1l57.1,30.8v-30.8l217.5,108h7.5v-5s0-3.9,3-3.9,3,3.2,3,3.2v6.2h7.9v-6.2s.1-3.2,3.2-3.2,3,3.2,3,3.2v6.7h13V1048.3s-.5-59.3,47.6-64.5c0,0-4,51.2,49.9,63.6v56h11.1v4.8h6.6v-2.6h3v-1.7h2.4v-1.6h3.7v-61.6l5-5.2h18v-3.1h26.1v-24s1-6.8,10.5-6.8,11.5,5.7,11.5,5.7v24h24.1v4.2h14l5,5.2v119.9h21v15.8h-14l-6,6.3v108.5h9.2v-4.1h6.8v4.1h5.9v-4.3h4.7v-24.6h5.3v-26.7h1.2v26.7h2.8V1242h2.2v20.3h2.5v28.9h12.2l10.2-10.6V1175.4l45.7-26.6v38.4h7.6V1203h17.7v-4.3h18.8v-87.5h4.5v2.6h17.1v-95.5h6.3v-4.7l11.9,4.7v-4.9l10.7,4.9v-4.9l10.3,4.9v-5.1l9.9,5.1h11v92.9h26.6v29.7h-2.5v62.7h19.2l4.8-10.5,5,10.5h25.6v-79.7s.5-11.2,9-11.2h73.3s5.8-.3,5.8-6.9V1049c0-7.4,8.1-28.1,8.1-35.9,0,0-5.1,0-5.1-1V937.6a4.5,4.5,0,0,0-4.4-4.6h0v-7.1l40.8-65.5c13.8-24.8,37.5-18.9,49.6-.7l43.8,66.2v5.9h0a5.1,5.1,0,0,0-5,5.2v74l-5.5,2.1h0a266.8,266.8,0,0,1,11.6,77.9v99.5h10.1v-15.3h7.9v15.3h8.7v-16.2h14.3a11,11,0,0,0-5,9.3v6.9h14.6v-97.6h33.7v-7.8h-2.8v-21.4l8.6-10.5,10.1,10.5v21.4h-2.7v7.8h17.7V1080h9l8.2,10.1a10.1,10.1,0,0,1,2.3,6.5v102.8s22.1,0,22.1,41.2l4.6,19.7c2.4,10,11.1,58.6,21,58.6h4.3c8.4,0,15.7-47.5,17.6-56l4.6-20.2v-43.3l17.7-16.1v-4.8h5.5l15-13.8v-5.2h5.4l15-13.4.5-224.2h8.5v-8.4h10.1v-8.4h9v-10h11s8-.5,8-19.3a73.1,73.1,0,0,0-8-32.9h28.6a95,95,0,0,0-6.5,33.9c0,18.8,6.5,20.4,6.5,20.4h10.5v9.9h11v7.5h11v7.5h10.1v218.8l13,13.6h7v4.5l19,18.5h7.1v7.3l11.5,11.6v-63s.5-11.8,14-11.8h46.1V835.5l27.5-33V790.8h9.3l55.9-70.6-11.1,45.3v496h15.3v-11h26.9v11h16.8v-21.4h9.2v21.4h26.6v-11h23.5V925.7s25.1-18.9,25.1-45.9h24s1.1,24.4,19.1,43.1v12.4h15v12.5h3.2v4.7h-3.8a2,2,0,0,0,2-2h0a2,2,0,0,1,2-2h8a2,2,0,0,1,2,2V1098a2,2,0,0,1-2,2h-2a2,2,0,0,0-2,2v134a2,2,0,0,0,2,2h1.5a2,2,0,0,1,2,2v3.3a2,2,0,0,0,2.8,1.8l1.9-33.5a1.8,1.8,0,0,0,.8-.7l24.5-33.8a1.9,1.9,0,0,1,1.6-.9h23.9a2,2,0,0,0,1.5-.6l7.4-7.7a2,2,0,0,1,1.5-.6h4.9a2,2,0,0,0,2-2v-4.6a2,2,0,0,1,2-2h4.2a1.8,1.8,0,0,0,1.4-.6l101.5-13-71.1-18.7a2,2,0,0,0,.6-1.4v-32.3a2,2,0,0,1,.6-1.4l16-16.7a2.4,2.4,0,0,0,.5-1.4v-22.3a2,2,0,0,1,.6-1.4l14.2-14.8a2,2,0,0,1,1.4-.6h14.4a2,2,0,0,0,2-2V953.8a2,2,0,0,1,2-2h.9a2,2,0,0,1,2,2v65.6a2,2,0,0,0,2,2h16.1a2,2,0,0,0,2-2V998.9a2,2,0,0,1,2-2h10a2,2,0,0,1,2,2v21a2,2,0,0,0,2,2h37.8a2,2,0,0,0,1-3.7c-8.2-4.7-19.6-14.3-20.7-32a2,2,0,0,1,2.6-2l73,23.3a2,2,0,0,1,.9,3.2c-3.1,3.9,78,11.2,62.5,11.2l-67.5-2.9a1.4,1.4,0,0,0,1.2-.6l12.5-12.9a1.9,1.9,0,0,1,1.4-.7h8.5a2,2,0,0,1,2,2v115.9a1.5,1.5,0,0,0,.4,1.1l14.4,20.8a2.1,2.1,0,0,0,1.6.8h20.2a2.4,2.4,0,0,0,1.4-.5l13.7-13.2a1.8,1.8,0,0,0,.6-1.4V970a2,2,0,0,1,3.9-.6l6.4,19.7a2,2,0,0,0,3.9-.6V958a2,2,0,0,1,2.9-1.8l56.8,29.1a2,2,0,0,0,2.9-1.8V934.7c.8-3.3,99.3-42.5,133.2-42.5s-39.3,37.7-37.6,41.8a2.2,2.2,0,0,1,.1.8V1077a2,2,0,0,0,2,2h20.9a1.9,1.9,0,0,1,1.9,1.5l18.2,84.3v.4l89.1,107.5-89-10.5a2,2,0,0,1,2-2h8a2,2,0,0,0,2-2v-12.5a2,2,0,0,1,2-2h14.1a2,2,0,0,0,2-2v-13.6a2,2,0,0,1,2-2h5a2,2,0,0,0,2-2v-10.4a2,2,0,0,1,2-2h1.5a1.9,1.9,0,0,1,1.6.9l22.4,32.9a1.9,1.9,0,0,1,.3,1l2.4,36.9v.5l-4,26.5v96.7a2,2,0,0,0,2,2h11a2,2,0,0,0,2-2v-59.3a2,2,0,0,1,2-2h13.1a2,2,0,0,0,2-2V1317a2,2,0,0,1,2-2h5a2,2,0,0,1,2,2v28.1l21.1,93.3a2.1,2.1,0,0,0,2,1.6H10538l77-395.6h34.4v52.7l19.1-24V982.3h12.1V945.7h4V977h10.1v-8.3h5v13.6h47.2V967.6h8.9l10,10.5v4.2h1.9v99.3l15.2-11.7h8v-13.5h6v13.5h9l15.9,11.7h6.9v-5.4h5.3V1072h3l11-81.4-10.9-51.3V892.5h97.1v93l55.1-26.2v27.8l56.1-25.7v24l63.2-25.1v175.4l6,8.4,8,6.2h12v67.4h-3v84s67.2,1,67.2,0v-83.5h-3.3V916.5h170.6c0,17.8-13.9,32.3-31,32.3h-18.2c-21,0-38,17.7-38,39.5h29.1v3.7h45.1v-3.7h14v47h22.8v55.7s.8,30.4,25.6,30.4,28.8,29.8,28.8,29.8v19.8h15v-9.4h2v-12.5h11v12.5h3v9.4h4.7v109.2h51.3v-41.2h12v-91h-16.8v-87.6h5.8v-8.4h8.2v8.4h5v-44.9h11v4.1h10l4.6-4.7h18V952.5h10.3l17.2-20.3h14.1l12.6,20.3h22.3V928h34.3l26,12.5h18V952l18.1,11.3h35.2V953l6.2-8.8,22.2-8.4,18,4.2,10.6,7.8h-21.6V977l21.1.6-20.6,27.6v71h53.8s10.9.7,10.9,11.3v34.1h40.5l10.1-143.5-9.6-52.2h25.1l8.2-87.2h8.6l8.7,88.2h28.1l-16,50.1,3.3,18.3h55.6l10.7-28.2,22.6-.5s-36.1-8.3-34.1-50.1l88.7,30.8s-18.9,19.3-39.8,19.8h7.7v19.7h5.5v3.8h23.1s-.8,3.9,0,4.7,49.7,0,49.7,0v-6.8h18.4a32.1,32.1,0,0,1-21.5-24.5l55.1,15.7s-11.5,9.9-20.5,9.9h12v7.3h6v17.2h13.5s-.8,171.9,0,172.7,11.5,0,11.5,0v8.4h-11.5v82.2h10.9v-34.2h23a9.4,9.4,0,0,1,9.2,9.7v13.3c0,5.7,4.8,10.3,10.2,9.6a1.3,1.3,0,0,0,.8-.2c.8-.8,0-104.4,0-104.4l22.3-23.2v-12.3h12.3l25.1-26.1V1096h12l21-19.8h23.1v-23h7V1047h4v-19.9s-1-15.6,10-15.6h21.1V981.2h5v21.9h2v6.3h9V984.3h2v25.1h13V963.5h3v44.9h7.1v78.2h8Z"/><path class="a" d="M7400.5,660.2a22,22,0,0,0-43.9,0c0,11.9,13.8,29.6,22,29.6C7385,689.8,7400.5,672.1,7400.5,660.2Z"/><path class="a" d="M7375.8,692.3h5.5a0,0,0,0,1,0,0v4.8a.6.6,0,0,1-.6.6h-4.3a.6.6,0,0,1-.6-.6v-4.8A0,0,0,0,1,7375.8,692.3Z"/><polyline class="a" points="7372.6 680.1 7376.3 693.6 7380.9 693.6 7383.6 680.1"/><path class="a" d="M6291.5,424.2a18.1,18.1,0,1,0-36.2,0c0,10.3,11.3,25.5,18.1,25.5S6291.5,434.5,6291.5,424.2Z"/><path class="a" d="M6271.1,451.8h4.5a0,0,0,0,1,0,0v4.1a.6.6,0,0,1-.6.6h-3.3a.6.6,0,0,1-.6-.6v-4.1A0,0,0,0,1,6271.1,451.8Z"/><polyline class="a" points="6268.5 441.3 6271.5 453 6275.3 453 6277.6 441.3"/><path class="a" d="M3225.4,762.8c0-11.6-8.9-21-19.9-21s-19.9,9.4-19.9,21,12.5,28.7,19.9,28.7C3211.3,791.5,3225.4,774.4,3225.4,762.8Z"/><path class="a" d="M3203,793.9h5a0,0,0,0,1,0,0v4.6a.6.6,0,0,1-.6.6h-3.8a.6.6,0,0,1-.6-.6v-4.6A0,0,0,0,1,3203,793.9Z"/><polyline class="a" points="3200.1 782.1 3203.4 795.2 3207.6 795.2 3210 782.1"/><path class="a" d="M1950.4,706.8c0-11.6-8.9-21-19.9-21s-19.9,9.4-19.9,21,12.5,28.7,19.9,28.7C1936.3,735.5,1950.4,718.4,1950.4,706.8Z"/><path class="a" d="M1928,737.9h5a0,0,0,0,1,0,0v4.6a.6.6,0,0,1-.6.6h-3.8a.6.6,0,0,1-.6-.6v-4.6A0,0,0,0,1,1928,737.9Z"/><polyline class="a" points="1925.1 726.1 1928.4 739.2 1932.6 739.2 1935 726.1"/><path class="a" d="M12906.4,825.8c0-11.6-8.9-21-19.9-21s-19.9,9.4-19.9,21,12.5,28.7,19.9,28.7C12892.3,854.5,12906.4,837.4,12906.4,825.8Z"/><path class="a" d="M12884,856.9h5a0,0,0,0,1,0,0v4.6a.6.6,0,0,1-.6.6h-3.8a.6.6,0,0,1-.6-.6v-4.6A0,0,0,0,1,12884,856.9Z"/><polyline class="a" points="12881.1 845.1 12884.4 858.2 12888.6 858.2 12891 845.1"/><rect class="b" x="7703" y="1146" width="15" height="16"/><rect class="b" x="7734" y="1146" width="15" height="16"/><rect class="b" x="7946" y="1052" width="15" height="16"/><rect class="b" x="8087" y="1316" width="15" height="16"/><rect class="b" x="7796" y="1175" width="15" height="16"/><rect class="b" x="7612" y="1193" width="15" height="16"/><rect class="b" x="7643" y="1193" width="15" height="16"/><rect class="b" x="8374" y="1171" width="4" height="34"/><rect class="b" x="8401" y="1225" width="4" height="37"/><rect class="b" x="8350" y="1044" width="5" height="54"/><rect class="b" x="8584" y="937" width="3" height="483"/><rect class="b" x="8621" y="937" width="3" height="483"/><rect class="b" x="8658" y="937" width="3" height="483"/><rect class="b" x="9008" y="895" width="5" height="373"/><rect class="b" x="9203" y="863" width="15" height="16"/><rect class="b" x="9232" y="863" width="15" height="16"/><rect class="b" x="9232" y="907" width="15" height="16"/><rect class="b" x="9203" y="953" width="15" height="16"/><rect class="b" x="9198" y="998" width="15" height="16"/><rect class="b" x="9198" y="1043" width="15" height="16"/><rect class="b" x="9517.5" y="887.5" width="4" height="203" transform="translate(8530.5 10508.5) rotate(-90)"/><rect class="b" x="9517.5" y="943.5" width="4" height="203" transform="translate(8474.5 10564.5) rotate(-90)"/><rect class="b" x="9517.5" y="964.5" width="4" height="203" transform="translate(8453.5 10585.5) rotate(-90)"/><rect class="b" x="9517.5" y="1024.5" width="4" height="203" transform="translate(8393.5 10645.5) rotate(-90)"/><rect class="b" x="9517.5" y="1045.5" width="4" height="203" transform="translate(8372.5 10666.5) rotate(-90)"/><rect class="b" x="9517.5" y="1066.5" width="4" height="203" transform="translate(8351.5 10687.5) rotate(-90)"/><rect class="b" x="7340" y="1160" width="5" height="39"/><rect class="b" x="7381" y="1070" width="4" height="34"/><rect class="b" x="7423" y="1128" width="4" height="37"/><rect class="b" x="7445" y="1043" width="5" height="54"/><rect class="b" x="6949.5" y="943.5" width="4" height="203" transform="translate(5906.5 7996.5) rotate(-90)"/><rect class="b" x="6949.5" y="997.5" width="4" height="203" transform="translate(5852.5 8050.5) rotate(-90)"/><rect class="b" x="6949.5" y="1068.5" width="4" height="203" transform="translate(5781.5 8121.5) rotate(-90)"/><rect class="b" x="6949.5" y="1089.5" width="4" height="203" transform="translate(5760.5 8142.5) rotate(-90)"/><rect class="b" x="6949.5" y="1110.5" width="4" height="203" transform="translate(5739.5 8163.5) rotate(-90)"/><rect class="b" x="6949.5" y="1131.5" width="4" height="203" transform="translate(5718.5 8184.5) rotate(-90)"/><rect class="b" x="6602.5" y="901.5" width="4" height="203" transform="translate(5601.5 7607.5) rotate(-90)"/><rect class="b" x="6602.5" y="953.5" width="4" height="203" transform="translate(5549.5 7659.5) rotate(-90)"/><rect class="b" x="6602.5" y="974.5" width="4" height="203" transform="translate(5528.5 7680.5) rotate(-90)"/><rect class="b" x="6602.5" y="995.5" width="4" height="203" transform="translate(5507.5 7701.5) rotate(-90)"/><rect class="b" x="6602.5" y="1016.5" width="4" height="203" transform="translate(5486.5 7722.5) rotate(-90)"/><rect class="b" x="6602.5" y="1078.5" width="4" height="203" transform="translate(5424.5 7784.5) rotate(-90)"/><rect class="b" x="5572" y="1132" width="15" height="16"/><rect class="b" x="5603" y="1132" width="15" height="16"/><rect class="b" x="5672" y="1219" width="15" height="16"/><rect class="b" x="5703" y="1219" width="15" height="16"/><rect class="b" x="5882" y="1106" width="15" height="16"/><rect class="b" x="5913" y="1106" width="15" height="16"/><rect class="b" x="5746" y="1014" width="15" height="16"/><rect class="b" x="5777" y="1014" width="15" height="16"/><rect class="b" x="5548" y="1263" width="15" height="16"/><rect class="b" x="5579" y="1263" width="15" height="16"/><rect class="b" x="9895" y="1071" width="15" height="16"/><rect class="b" x="9991" y="1071" width="15" height="16"/><rect class="b" x="9895" y="1116" width="15" height="16"/><rect class="b" x="9991" y="1116" width="15" height="16"/><rect class="b" x="9895" y="1161" width="15" height="16"/><rect class="b" x="9895" y="1206" width="15" height="16"/><rect class="b" x="10212" y="1056" width="15" height="16"/><rect class="b" x="10243" y="1056" width="15" height="16"/><rect class="b" x="10312" y="1143" width="15" height="16"/><rect class="b" x="10343" y="1143" width="15" height="16"/><rect class="b" x="10188" y="1187" width="15" height="16"/><rect class="b" x="10219" y="1187" width="15" height="16"/><rect class="b" x="6162" y="1162" width="4" height="34"/><rect class="b" x="6226" y="1135" width="5" height="54"/><rect class="b" x="6138" y="1035" width="5" height="54"/><rect class="b" x="10536" y="1180" width="4" height="34"/><rect class="b" x="10600" y="1153" width="5" height="54"/><rect class="b" x="10512" y="1053" width="5" height="54"/><rect class="b" x="8250" y="1175" width="4" height="34" transform="translate(16504 2384) rotate(-180)"/><rect class="b" x="8229" y="1229" width="4" height="37" transform="translate(16462 2495) rotate(-180)"/><rect class="b" x="8320" y="1127" width="5" height="54"/><rect class="b" x="8091" y="1116" width="15" height="16"/><rect class="b" x="8122" y="1116" width="15" height="16"/><rect class="b" x="7996" y="1225" width="15" height="16"/><rect class="b" x="8027" y="1225" width="15" height="16"/><rect class="b" x="10426" y="1122" width="5" height="54"/><rect class="b" x="10550" y="968" width="4" height="34"/><rect class="b" x="6808" y="1337" width="432" height="8"/><rect class="b" x="5681" y="1345" width="114" height="8"/><rect class="b" x="6906" y="1362" width="108" height="8"/><rect class="b" x="7282" y="1247" width="5" height="39"/><rect class="b" x="7381" y="1267" width="4" height="34"/><rect class="b" x="7423" y="1325" width="4" height="37"/><rect class="b" x="6252" y="1258" width="4" height="34"/><rect class="b" x="5860" y="1267" width="15" height="16"/><rect class="b" x="5891" y="1267" width="15" height="16"/><rect class="b" x="6136" y="1341" width="4" height="34"/><rect class="b" x="8505" y="1268" width="4" height="34" transform="translate(17014 2570) rotate(-180)"/><rect class="b" x="8471" y="1266" width="4" height="37" transform="translate(16946 2569) rotate(-180)"/><rect class="b" x="8562" y="1164" width="5" height="54"/><rect class="b" x="8481" y="1212.3" width="4" height="34" transform="translate(16966 2458.7) rotate(-180)"/><rect class="b" x="8530" y="1126" width="4" height="34" transform="translate(17064 2286) rotate(-180)"/><rect class="b" x="8548" y="1124" width="4" height="34" transform="translate(17100 2282) rotate(-180)"/><rect class="b" x="9517.5" y="1122.5" width="4" height="203" transform="translate(8295.5 10743.5) rotate(-90)"/><rect class="b" x="9517.5" y="1178.5" width="4" height="203" transform="translate(8239.5 10799.5) rotate(-90)"/><rect class="b" x="9517.5" y="1199.5" width="4" height="203" transform="translate(8218.5 10820.5) rotate(-90)"/><rect class="b" x="9517.5" y="1259.5" width="4" height="203" transform="translate(8158.5 10880.5) rotate(-90)"/><rect class="b" x="9895" y="1250" width="15" height="16"/><rect class="b" x="9991" y="1250" width="15" height="16"/><rect class="b" x="9895" y="1340" width="15" height="16"/><rect class="b" x="9991" y="1340" width="15" height="16"/><rect class="b" x="10122" y="1187" width="15" height="16"/><rect class="b" x="10153" y="1187" width="15" height="16"/><rect class="b" x="10422" y="1184" width="5" height="54"/><rect class="b" x="10460" y="1099" width="4" height="34"/><rect class="b" x="7561.5" y="1296.7" width="15" height="16"/><rect class="b" x="7620" y="1326" width="15" height="16"/><rect class="b" x="7718.2" y="1222.7" width="15" height="16"/><rect class="b" x="7965" y="1201" width="15" height="16"/><rect class="b" x="8112" y="1316" width="15" height="16"/><rect class="b" x="6906" y="1409" width="108" height="8"/><rect class="b" x="2586.2" y="1130" width="15" height="16"/><rect class="b" x="2617.2" y="1130" width="15" height="16"/><rect class="b" x="2829.2" y="1036" width="15" height="16"/><rect class="b" x="2970.2" y="1300" width="15" height="16"/><rect class="b" x="2679.2" y="1159" width="15" height="16"/><rect class="b" x="2495.2" y="1177" width="15" height="16"/><rect class="b" x="2526.2" y="1177" width="15" height="16"/><rect class="b" x="3257.2" y="1155" width="4" height="34"/><rect class="b" x="3284.2" y="1209" width="4" height="37"/><rect class="b" x="3233.2" y="1028" width="5" height="54"/><rect class="b" x="3467.2" y="921" width="3" height="483"/><rect class="b" x="3507.2" y="921" width="3" height="483"/><rect class="b" x="3544.2" y="921" width="3" height="483"/><rect class="b" x="3891.2" y="879" width="5" height="373"/><rect class="b" x="4086.2" y="847" width="15" height="16"/><rect class="b" x="4115.2" y="847" width="15" height="16"/><rect class="b" x="4115.2" y="891" width="15" height="16"/><rect class="b" x="4086.2" y="937" width="15" height="16"/><rect class="b" x="4081.2" y="982" width="15" height="16"/><rect class="b" x="4081.2" y="1027" width="15" height="16"/><rect class="b" x="4081.2" y="1072" width="15" height="16"/><rect class="b" x="4400.7" y="871.5" width="4" height="203" transform="translate(3429.7 5375.7) rotate(-90)"/><rect class="b" x="4400.7" y="927.5" width="4" height="203" transform="translate(3373.7 5431.7) rotate(-90)"/><rect class="b" x="4400.7" y="948.5" width="4" height="203" transform="translate(3352.7 5452.7) rotate(-90)"/><rect class="b" x="4778.2" y="1055" width="15" height="16"/><rect class="b" x="4874.2" y="1055" width="15" height="16"/><rect class="b" x="4778.2" y="1100" width="15" height="16"/><rect class="b" x="4874.2" y="1100" width="15" height="16"/><rect class="b" x="4778.2" y="1145" width="15" height="16"/><rect class="b" x="4778.2" y="1190" width="15" height="16"/><rect class="b" x="5095.2" y="1040" width="15" height="16"/><rect class="b" x="5126.2" y="1040" width="15" height="16"/><rect class="b" x="5195.2" y="1127" width="15" height="16"/><rect class="b" x="5226.2" y="1127" width="15" height="16"/><rect class="b" x="5071.2" y="1171" width="15" height="16"/><rect class="b" x="5102.2" y="1171" width="15" height="16"/><rect class="b" x="5419.2" y="1164" width="4" height="34"/><rect class="b" x="5483.2" y="1137" width="5" height="54"/><rect class="b" x="5395.2" y="1037" width="5" height="54"/><rect class="b" x="3133.2" y="1159" width="4" height="34" transform="translate(6270.3 2352) rotate(-180)"/><rect class="b" x="3112.2" y="1213" width="4" height="37" transform="translate(6228.3 2463) rotate(-180)"/><rect class="b" x="3203.2" y="1111" width="5" height="54"/><rect class="b" x="2974.2" y="1100" width="15" height="16"/><rect class="b" x="3005.2" y="1100" width="15" height="16"/><rect class="b" x="2879.2" y="1209" width="15" height="16"/><rect class="b" x="2910.2" y="1209" width="15" height="16"/><rect class="b" x="5309.2" y="1106" width="5" height="54"/><rect class="b" x="5433.2" y="952" width="4" height="34"/><rect class="b" x="2766.2" y="1248" width="15" height="16"/><rect class="b" x="3388.2" y="1252" width="4" height="34" transform="translate(6780.3 2538) rotate(-180)"/><rect class="b" x="3354.2" y="1250" width="4" height="37" transform="translate(6712.3 2537) rotate(-180)"/><rect class="b" x="3445.2" y="1148" width="5" height="54"/><rect class="b" x="3364.2" y="1196.3" width="4" height="34" transform="translate(6732.3 2426.7) rotate(-180)"/><rect class="b" x="3413.2" y="1110" width="4" height="34" transform="translate(6830.3 2254) rotate(-180)"/><rect class="b" x="3431.2" y="1108" width="4" height="34" transform="translate(6866.3 2250) rotate(-180)"/><rect class="b" x="4778.2" y="1234" width="15" height="16"/><rect class="b" x="4874.2" y="1234" width="15" height="16"/><rect class="b" x="4778.2" y="1324" width="15" height="16"/><rect class="b" x="4874.2" y="1324" width="15" height="16"/><rect class="b" x="5005.2" y="1171" width="15" height="16"/><rect class="b" x="5036.2" y="1171" width="15" height="16"/><rect class="b" x="5105.2" y="1258" width="15" height="16"/><rect class="b" x="5136.2" y="1258" width="15" height="16"/><rect class="b" x="5329.2" y="1295" width="4" height="34"/><rect class="b" x="5393.2" y="1268" width="5" height="54"/><rect class="b" x="5305.2" y="1168" width="5" height="54"/><rect class="b" x="5343.2" y="1083" width="4" height="34"/><rect class="b" x="5259.2" y="1331" width="15" height="16" transform="translate(10533.3 2678) rotate(180)"/><rect class="b" x="2848.2" y="1185" width="15" height="16"/><rect class="b" x="2995.2" y="1300" width="15" height="16"/><rect class="b" x="12821.5" y="1143" width="15" height="16"/><rect class="b" x="12852.5" y="1143" width="15" height="16"/><rect class="b" x="13064.5" y="1049" width="15" height="16"/><rect class="b" x="13205.5" y="1313" width="15" height="16"/><rect class="b" x="12914.5" y="1172" width="15" height="16"/><rect class="b" x="12730.5" y="1190" width="15" height="16"/><rect class="b" x="12761.5" y="1190" width="15" height="16"/><rect class="b" x="13492.5" y="1168" width="4" height="34"/><rect class="b" x="13468.5" y="1041" width="5" height="54"/><rect class="b" x="14321.5" y="860" width="15" height="16"/><rect class="b" x="14350.5" y="860" width="15" height="16"/><rect class="b" x="14350.5" y="904" width="15" height="16"/><rect class="b" x="14321.5" y="950" width="15" height="16"/><rect class="b" x="14316.5" y="995" width="15" height="16"/><rect class="b" x="14316.5" y="1040" width="15" height="16"/><rect class="b" x="14316.5" y="1085" width="15" height="16"/><rect class="b" x="14412.5" y="1265" width="15" height="16"/><rect class="b" x="12458.5" y="1157" width="5" height="39"/><rect class="b" x="12499.5" y="1067" width="4" height="34"/><rect class="b" x="12541.5" y="1125" width="4" height="37"/><rect class="b" x="12563.5" y="1040" width="5" height="54"/><rect class="b" x="12068" y="940.5" width="4" height="203" transform="translate(11028 13112) rotate(-90)"/><rect class="b" x="12068" y="994.5" width="4" height="203" transform="translate(10974 13166) rotate(-90)"/><rect class="b" x="12068" y="1065.5" width="4" height="203" transform="translate(10903 13237) rotate(-90)"/><rect class="b" x="12068" y="1086.5" width="4" height="203" transform="translate(10882 13258) rotate(-90)"/><rect class="b" x="12068" y="1107.5" width="4" height="203" transform="translate(10861 13279) rotate(-90)"/><rect class="b" x="11721" y="898.5" width="4" height="203" transform="translate(10723 12723) rotate(-90)"/><rect class="b" x="11721" y="950.5" width="4" height="203" transform="translate(10671 12775) rotate(-90)"/><rect class="b" x="11721" y="971.5" width="4" height="203" transform="translate(10650 12796) rotate(-90)"/><rect class="b" x="10690.5" y="1129" width="15" height="16"/><rect class="b" x="10721.5" y="1129" width="15" height="16"/><rect class="b" x="10790.5" y="1216" width="15" height="16"/><rect class="b" x="10821.5" y="1216" width="15" height="16"/><rect class="b" x="11000.5" y="1103" width="15" height="16"/><rect class="b" x="11031.5" y="1103" width="15" height="16"/><rect class="b" x="10864.5" y="1011" width="15" height="16"/><rect class="b" x="10895.5" y="1011" width="15" height="16"/><rect class="b" x="10666.5" y="1260" width="15" height="16"/><rect class="b" x="10697.5" y="1260" width="15" height="16"/><rect class="b" x="11280.5" y="1159" width="4" height="34"/><rect class="b" x="11344.5" y="1132" width="5" height="54"/><rect class="b" x="11256.5" y="1032" width="5" height="54"/><rect class="b" x="13368.5" y="1172" width="4" height="34" transform="translate(26741 2378) rotate(-180)"/><rect class="b" x="13347.5" y="1226" width="4" height="37" transform="translate(26699 2489) rotate(-180)"/><rect class="b" x="13438.5" y="1124" width="5" height="54"/><rect class="b" x="13209.5" y="1113" width="15" height="16"/><rect class="b" x="13240.5" y="1113" width="15" height="16"/><rect class="b" x="13114.5" y="1222" width="15" height="16"/><rect class="b" x="13145.5" y="1222" width="15" height="16"/><rect class="b" x="12970.5" y="1261" width="15" height="16"/><rect class="b" x="13001.5" y="1261" width="15" height="16"/><rect class="b" x="12879.5" y="1308" width="15" height="16"/><rect class="b" x="12878.5" y="1285" width="15" height="16"/><rect class="b" x="12400.5" y="1244" width="5" height="39"/><rect class="b" x="12499.5" y="1264" width="4" height="34"/><rect class="b" x="11370.5" y="1255" width="4" height="34"/><rect class="b" x="10978.5" y="1264" width="15" height="16"/><rect class="b" x="11009.5" y="1264" width="15" height="16"/><rect class="b" x="13648.5" y="1123" width="4" height="34" transform="translate(27301 2280) rotate(-180)"/><rect class="b" x="13666.5" y="1121" width="4" height="34" transform="translate(27337 2276) rotate(-180)"/><rect class="b" x="12680" y="1293.7" width="15" height="16"/><rect class="b" x="12738.5" y="1323" width="15" height="16"/><rect class="b" x="12855.5" y="1285" width="15" height="16"/><rect class="b" x="12836.7" y="1219.7" width="15" height="16"/><rect class="b" x="13083.5" y="1198" width="15" height="16"/><rect class="b" x="13230.5" y="1313" width="15" height="16"/><rect class="b" x="8987" y="918" width="5" height="373"/><rect class="b" x="9030" y="918" width="5" height="373"/><rect class="b" x="8276" y="1276" width="15" height="16"/><rect class="b" x="8276" y="1321" width="15" height="16"/><rect class="b" x="8344" y="1232" width="15" height="16"/><rect class="b" x="8344" y="1322" width="15" height="16"/><rect class="b" x="8411" y="1325" width="15" height="16"/><rect class="b" x="9242" y="1330" width="15" height="16" transform="translate(18499 2676) rotate(180)"/><rect class="b" x="9242" y="1285" width="15" height="16" transform="translate(18499 2586) rotate(180)"/><rect class="b" x="9174" y="1284" width="15" height="16" transform="translate(18363 2584) rotate(180)"/><rect class="b" x="9107" y="1281" width="15" height="16" transform="translate(18229 2578) rotate(180)"/><rect class="b" x="9225" y="1163" width="15" height="16"/><rect class="b" x="8758" y="1120" width="15" height="16"/><rect class="b" x="8783" y="1120" width="15" height="16"/></svg>