<svg xmlns="http://www.w3.org/2000/svg" width="5120" height="1320" viewBox="0 0 5120 1320"><defs><style>.a{fill:#42a5f5;}</style></defs><path class="a" d="M1703,427s9-2,11-3,5-6,8-8,11-6,11-6,5-2,6-4a12.1,12.1,0,0,1,6.5-5.5c3-1,6-2,9-1s13.6-.8,14.3-.4,1.4-2.6,3.5-.1,5.2,1.5,6.2,3.5,2.4,5,4.7,6.5,6-.5,9.1,0,1.4.5,7.8,0,8.4.5,10.9,0,5.5-1.5,7.5-1.5,6-1,6,0,3,0,4,0h7c1,0,6-1,7,0s2,0,4,0h13a2.2,2.2,0,0,0,3-1,7.7,7.7,0,0,1,2-3,14.4,14.4,0,0,1,3-2l1-2a32.1,32.1,0,0,0,5-3c1-1,4-2,4-2s0-1,2-2,2,0,3-1,1-2,3-3a47.1,47.1,0,0,1,5-2l4-1s-1-1,0-1.5,7-5.5,7-5.5l2-1s4,0,5-1l3-3a22.7,22.7,0,0,1,4-1c1,0,3,0,3-1s4-5,3-5,.3-.2.2-1.6a7.4,7.4,0,0,1,.8-3.4l-1-6,1-1.9s2-3.1,2-5.1,2-5,2-5,.3,1,1.2,0a14.7,14.7,0,0,1,5.8-3c1,0,5-3,5-3l1-2c1-2,1-4,2-4s1.8,1,2.4,0,.6-2,2.6-3,5-3,6-3,5-2,5-2a4.4,4.4,0,0,1,3-1c2,0-.2,1,5.4,0a85.4,85.4,0,0,1,12.6-1s3,0,4-1,1,0,2.5,0l8.4-.4s-4.5.5,3.8,0,8.3.4,9.3-1.6a7.7,7.7,0,0,0,1-3s0-3,1-3,1,0,3-1,3,1,3-1,0-3,2-3,3,1,4-1-1-2,2-2h4.9l-2.9-3s-2-1,0-2,1.9-.8,2.9-1.4,2.1-3.6,4.1-3.6a10.3,10.3,0,0,0,4-1,2,2,0,0,1,2-2h4.7c1.3,0,2.3-2,3.3-1s5,0,6,1,2,1,4,1h5a10.1,10.1,0,0,1,3,1,22.7,22.7,0,0,1,4-1c1,0,4,0,5-1l3-3a3.5,3.5,0,0,1,1,2c0,1-1,0,0,1a3.7,3.7,0,0,0,3,1h2s1-3,2-2a14.4,14.4,0,0,0,3,2,10.1,10.1,0,0,1,3-1c1,0,4-2,4-1s2,1,2,2,3,0,3,1-1,2-1,4,0,1,1,2.5,1-.5,1,1.5,1,0,1,2,1,2,1,3-2-1,0,1,4,3,4,4,3,2,4,3,0,2,2,3,4,1,6,2,2,1,2,2,1,2,1,3,6,1,6,2,0,1,2,2,7-1,8,1,4.1,2.4,5.9,2.8l1.1.2s3,0,4,2,1,1,1,2,2,2,3,3,5,0,5,3,3,5,3,5l1,2s4-1,4,0-1,1.2,0,2.6,2,1.4,3,2.4,3,1,4,3,2,2,5,3,5,1,6,2,4,0,4,2,1,2.9,0,3.9-2,2.1-1,1.1,4-2,4-2-4-2,0-1,3,2,5,2,5-1,5,1-1,2,2,3a4.4,4.4,0,0,1,3,4,12.4,12.4,0,0,1,2,3,47.1,47.1,0,0,1,2,5s0,3,1,4,1,2,2,3,1,3,1,4,2,0,3,2,2,3,1,4-1.2,1.7.4,2.8,3.6,1.2,3.6,3.2-4-2,0,3,6,4,6,6,0,0,1,0,4,0,4,1,2,1,2,2,2,0,3,1,4,1,3,2-.6,1.1.2,3.1,1.8,2.9,2.8,2.9,2,0,2,2,2,3,2,4-1,1,0,2,3,2,3,3,2,0,2,1,0,1,2,2-3-4,3,1,8,6,8,6,2,2,3,2a10.6,10.6,0,0,1,5,2c1,1,4,1,5,2l2,2c1,1,5,0,5,1s3,2,3,3,3,1,3,1,.4-3,.7-1a8.9,8.9,0,0,0,2.3,4l3,1s2.3-1,2.2,0,2.8,2,3.8,3,0,1,2,2a7.7,7.7,0,0,0,3,1,3.1,3.1,0,0,1,2,1,32.1,32.1,0,0,1,3,5l2,1s.2-1,.6,0,1.4,1,2.4,2,4,1,4,2,1,1,2,2,3,2,4,3,3-1,4,2,2,3,3,4,4,1,4,1l2,2c1,1,0,1,3,2s7,1,7,3,3,4,3,4,4,0,5,1,5,2,5,2,1-2,1,1,2,4,2,5,0,1-1,3-1,1,0,3,1,0,1,2.5,0,2.5,1,3.5a14.4,14.4,0,0,0,3,2s1.3-1,4.2,0,4.8,0,6.8,1a68.9,68.9,0,0,0,8,3c3,1,3,0,7,1s6,2,7,2,3-1,6,0,4.9,1,5.9,0a3.4,3.4,0,0,1,2.1-1l2,4v1.6c0,1.4,0-.6,2,1.4s3,1,5,3l4,4c1,1,0,1,5,3s7,1,8,3,3,2,4,4,2,1,2,1a3.1,3.1,0,0,1,2,1,4.9,4.9,0,0,0,3,1s1.2-1,1.1,0a3,3,0,0,0,.9,2h1.3a4.3,4.3,0,0,1,2.7,1,14.4,14.4,0,0,0,3,2,1,1,0,0,0,1,1c1,0,3-2,4,0s2,2,3,3,2,0,4,1,1,0,3,1,2,0,3,1,3,0,3,1-1,0,1,1,4,1,4,2,4,2,4,2a10.3,10.3,0,0,0,4,1c2,0,3,1,4,1s2.8-1,3.9,0,3.1,1,3.1,2,1,1,1,3,0,2,2,2,1,0,2-1a4.9,4.9,0,0,1,3-1l2,1v2l1,1c1,1,1,0,2,2s2,3,3,3,3,0,4-1,0-3,2-2,3.2,2,3.6,3,1.4,2,1.4,3v2.2c0,.8,1,.8,2,.8h7c1,0,5-3,4,0s-2,2,0,4,4,2,5,3a5.2,5.2,0,0,0,4,2c2,0,1,0,4,1s4,1,5,2,2,1,4,2a12.4,12.4,0,0,1,3,2l2,1s3.5-1,3.3,0,.7,3,1.7,3,3.7-1,3.3,0,2.7,2,1.7,3-2.6.3.2,2.2,3.8-.2,4.8,1.8,3,1,3,2,2,1,4,1,0-1,3,0,4-1,6,0a10.9,10.9,0,0,0,5,1,22.7,22.7,0,0,0,4-1s-1-2,0-1,.8,2,1.4,2,.6-2,1.6-1a3.7,3.7,0,0,0,3,1c1,0,2-2,3-1s3,0,3,1,1.3,0,2.7,0a21.1,21.1,0,0,1,4.3,1s1-2,2-1,5.7,0,5.3,1,.7,1,1.7,0,2-4,4-2,3,1,4,2,2,0,4,0,4,0,5,1-1,3,2,3,3,0,4,1,0,1,2,2,3,2,5,3a13.4,13.4,0,0,0,5,1s2-1,3.5,0,2.5,1,2.5,2,2,1,2,1,4,0,5,1,7,1,7,2,1,1,2,2,2,0,2,1,1,2,2,3,6,2,6,3,2,0,3,2,3,1,3,2,5,1,5,2,3,2,4,2,0,0,1,1,3,0,4,1-1-1,3,2,6,3,6,3l3,1s3,0,3,1,2,2,3,2h4.1l1.9,1,3,1,2,1s4,1,4,2,2,0,1,2-.4,1.3.3,3.2,2.7,2.8,2.7,3.8v3a10.1,10.1,0,0,0,3,1h2c1,0,2-1,3,0s4,0,4,1,1,1,2,1,2,1,3,1,2-1,2,0,2,1,4,2,2,2,3,2a22.7,22.7,0,0,1,4,1s.3-1,2.7,0a9.1,9.1,0,0,0,4.3,1h3.2c1.8,0,1.8,0,2.8,1a7.6,7.6,0,0,0,4,2c1,0,2,1,3,1s0,0,1,2,2,2,2,2a4.9,4.9,0,0,1,3,1c1,1,3,0,4,1s4,1,4,1a4.4,4.4,0,0,0,3,1c2,0,5,2,6,1s0-2,2-1a15,15,0,0,0,3.8,1.3s.9,1.5,1.5,1.1.7.4,2.2,0,2.8-1.4,3.7.1,3.8.5,3.8.5v-1a2.2,2.2,0,0,0,2,2c1,0,0-2,2-1s4-1,5,0a7.6,7.6,0,0,0,4,2h2c1,0,2,1,3,1s1-2,2-1a3.7,3.7,0,0,0,3,1c1,0,2,1,3,1s2-2,3-1l3,3a10.1,10.1,0,0,0,3,1h5.8c3.2,0,4.2,1,5.2,1s4-1,4,0,1,2,3,2h4.3a36.3,36.3,0,0,0,5.7-1l3,1c6,2,8,2,8,2s.5-1,1.7,0a19.6,19.6,0,0,0,4.3,2,10.1,10.1,0,0,0,3,1,7.6,7.6,0,0,1,4,1,47.1,47.1,0,0,0,5,2h3.1l4.9,2,3,2,6,1s3,0,3,1a2.2,2.2,0,0,0,2,2c1,0,2-1,3,0s4,2,4,1,1-1,2-1,0-1,2-2,4-2,4-1-3,2-2,3,0,1,2,2,5,0,5,1,4,2,4,2,1,2,2,0,0-1,2-1,2-1,3,0,1-1,2,1a5.4,5.4,0,0,0,4,3c1,0-.2,1,2.9,0a16.8,16.8,0,0,1,4.1-1l1,1c1,1,4,2,4,2h3v2s3,0,3,1,0,0,1,2,3,1,4,3,4,3,4,4a10.1,10.1,0,0,0,1,3l3,2h3s7,1,7,2,2,1,3,2l2,2c1,1,5,2,5,2s2,1,2,2,3,2,3,2l3,2a3.1,3.1,0,0,1,2,1,5.2,5.2,0,0,0,4,2c2,0,4,1,5,1s5,2,5,2a3.1,3.1,0,0,1,2,1c1,1,0,1,1,2s0-1,1,3,1,5,2,5-1-4,3,0,3,2,4,4,1,0,2,2-2,1,2,3,6,2,7,3,2-1,2,0,7,5,7,5h3a10.6,10.6,0,0,1,5,2c1,1,6,3,6,3l3,1,2,1v1l16,7s4-6,3.5,0-7.5,3-.5,6,25,7,25,7a18.7,18.7,0,0,1,3,4c1,2,5,3,6,7s10,6,15,9,18,6,18,11,9,9,9,12,23,5,22,9,2.1,2,0,11.5-5.5,13.5.7,18,29.3,6.5,32.3,15.5,3,11,5,16,0,19-1,21-2-1,6,10,9,10,14,17,10,10,12,17,15,10,12,16-3.1,4,.4,7.5,16.6,14.5,15.6,20.5,1.1,6,.1,11.5,2.9,8.5,3.9,11.5-2-5,1,3,4,6,4,12v14H0V409H8.3s2.3-1.5,2.3,0,2.7-1.5,3.3,0,3.4-2.5,4,0,2.6.5,3.6,1.5,7-2,9,0,3,0,6,3,8,1,10,3,1,0,4,4S61,424.7,61,424.7c2.5,1.8,6.5,1.8,5.5,3.8s1,4,2,5,5-2,5,2,4,3,5,5,3,1,4,3,5,1,6,4,1,2,4,5,8,5,8,7,0,1,1,5-1,4,3,5,7,0,9-3,6-5,7-6,8-3,9-3h10s-1-1,3-1,5-3,8,0,9,5,12,4,8-2,8-2,8-1,8,1,2,3,4,5,5,2,6,3,7,0,8,4-2,5,3,6,10,1,10,3,3,2,4,5,2,3,4,5,8,3,8,2-2-1,0-3,4-4,5-4-2-3,4-1,6-1,10,2,9,2,12,4,7,1,8,2,5,0,5,1,7,1,7,1l3-5,8-1,9-1s-1-2,3-2,5-1,8,0,9,0,10,0,7-1,7-1h6c-1,0-2,0,0-2s8-7,8-7a10.1,10.1,0,0,0,1-3c0-1-1-1,1-2s8-3,8-3a3.6,3.6,0,0,1,2-3c2-1,9-5,9-5a2.2,2.2,0,0,1,1-3c2-1,8-5,9-3s9,1,10-1,4-4,5-4,9-2,10-2,3-2,5-3,10-2,11,0,3,3,7,5,11,3,13,5,8,2,9,3,5,0,6,2,2,1,4,5,11,3,12,7,0,3,3,6,1-1,8,6,11,6,12,8,4,3,6,4-6-3,8,1,16,3,18,5,8,5,10,6,11,3,11,3h9c4,0,6-1,13-1s11,0,14,1,1,1,9,0a34.8,34.8,0,0,1,14,1l5,4,9-1s-2-4,7,0,20,5,22,4,0-7,8-3,16,3,18,4-4,2,5-2,14-9,19-9,18-1,20-1,10-1,12-3,3-3,8-5,13-5,15-8,6-4,7-5,12-2,14-4,5-5,6-3,22,4,22,4-7-2,2,1,15,4,18,5,8,6,8,6-1-4,3,0,5,3,13,5,16,1,16,4,8,3,9,5,14,2,15,4,3,0,8,5,16,9,16,9-1,1,3,0,6-2,12-1,13,2,17,1,13-3,16-3,3,1,9-1a130.1,130.1,0,0,0,14-5c10-4,22-6,21-7s-11,5,1-3,25-11,25-12,2-4,2-4l2-6s9-2,14-1,9,2,12,2,18,1,20,1,12,0,14-1-6-3,12,0,13,0,13,0,12-4,12-2,7,0,7,0,6-4,9-4,19-2,19-2l16-5s7-4,12-2,23-2,23-2,3-4,5-3,12-1,15,0,11-2,13-1,13-5,17-4,23,1.9,23.5.9,5.5-3.9,5.5-3.9,15-4,16-4,21-5,23-6,12-3,16-5,12-4,17-5,13,0,23-5,11-6,15-7,25-4,27-5,9-5,10-7,4.3-4,7.2-5.5,8.8-2.5,10.8-2.5,13-2,15-2,10,0,12,2,5.7-2,12.8,2.5,15.2,1.5,17.2,5.5,7,7,10,8,10-2,13,0,14,6,14,6,10-2,11,1,9,2,12,4,7-1,9,2,10,2,16,5,10,1,22,3,14,1,17,2l3,1,10-5c4-2,7-5,8-4s26.7-1.7,26.7-1.7-1.7-.3,7.3-3.3,9-2,13-4S1703,427,1703,427Z"/></svg>