<svg xmlns="http://www.w3.org/2000/svg" xmlns:xlink="http://www.w3.org/1999/xlink" width="15361" height="1440" viewBox="0 0 15361 1440"><defs><style>.a{fill:#42a5f5;}.b,.c{opacity:0.5;}.b{fill:url(#a);}.c{fill:url(#b);}</style><linearGradient id="a" x1="6652.38" y1="167.46" x2="6993.46" y2="167.46" gradientUnits="userSpaceOnUse"><stop offset="0.28" stop-color="#fff" stop-opacity="0"/><stop offset="0.46" stop-color="#fff" stop-opacity="0.01"/><stop offset="0.58" stop-color="#fff" stop-opacity="0.05"/><stop offset="0.69" stop-color="#fff" stop-opacity="0.11"/><stop offset="0.79" stop-color="#fff" stop-opacity="0.19"/><stop offset="0.88" stop-color="#fff" stop-opacity="0.31"/><stop offset="0.97" stop-color="#fff" stop-opacity="0.44"/><stop offset="1" stop-color="#fff" stop-opacity="0.5"/></linearGradient><linearGradient id="b" x1="6648.71" y1="166.85" x2="6990.26" y2="166.85" gradientUnits="userSpaceOnUse"><stop offset="0.49" stop-color="#fff" stop-opacity="0"/><stop offset="0.62" stop-color="#fff" stop-opacity="0.01"/><stop offset="0.7" stop-color="#fff" stop-opacity="0.05"/><stop offset="0.78" stop-color="#fff" stop-opacity="0.11"/><stop offset="0.85" stop-color="#fff" stop-opacity="0.19"/><stop offset="0.92" stop-color="#fff" stop-opacity="0.31"/><stop offset="0.98" stop-color="#fff" stop-opacity="0.44"/><stop offset="1" stop-color="#fff" stop-opacity="0.5"/></linearGradient></defs><path class="a" d="M6962.9,110.5l-4.3-1.4,1.4-.7,3.2.3-3.5-6.4,1.2-.5,7.3,4.8h5s7.1-1.4,7.1-2.1-5.7-2.9-5.7-2.9l-2.1-2.8h.7l2.8,2.1,7.9,2.1,17.1-5s5.7-1.4,7.1-.7,2.9,0,2.9.7-2.2,2.9-4.3,3.6l-12.8,3.6s.7,0,.7,2.1l-4.7,1.1h-.7l-.7-.7-5.7,1.4s-7.1,2.1-12.1,2.1h-7.3l-.5-.7"/><path class="b" d="M6989.8,107.7s-1.4,2.1-10.7,4.3-172.4,57.7-197.3,66.2-119,49.2-119,49.2L6650.7,201s103.3-21.3,127.5-27.8S6975.6,112,6977,111.3s10-3,14.3-3.3C6991.3,108,6991.3,107.2,6989.8,107.7Z"/><path class="c" d="M6986.2,107.2s-1.5,2.1-10.7,4.3-172.4,57.7-197.4,66.2-118.9,49.2-118.9,49.2L6647,200.5s103.3-21.3,127.6-27.8,197.3-61.2,198.7-61.9,10-3,14.3-3.3C6987.6,107.5,6989.3,106.2,6986.2,107.2Z"/></svg>