<svg xmlns="http://www.w3.org/2000/svg" width="15361" height="1440" viewBox="0 0 15361 1440"><defs><style>.a,.b,.c,.d{fill:#fff;}.a{opacity:0.33;}.b{opacity:0.2;}.c{opacity:0.23;}.d{opacity:0.14;}</style></defs><path class="a" d="M6960.6,619s-1.31,7.07-26.08,8.64-67.8,1.57-67.8,1.57,4.35,4.65-20,5.47-112.13,1.54-136-3.93c0,0-76.93,1.54-113,0s-222.52,2.33-230.34-3.93c0,0-44.33.82-56.06-3.11s18.25-7.85,23.47-7.85,28.68-6.29,43-5.5,42.16-2.5,49.11-.07c0,0,14.78-2.67,26.51-.91,0,0,2.61-4.52,10.43-3.74,0,0,11.74-10.07,35.21-7.07,0,0,22.16-14,84.74-5.5,0,0,10.43-9.5,79.54-9.5,0,0,87.35,7,88.66,18.93,0,0,74.31-7.93,73,5.5,0,0,87.36.79,83.44,6.29C6908.44,614.26,6958,611.9,6960.6,619Z"/><path class="b" d="M6151.41,889.71s-15.61,3.31-22.46,3-19.17-2-23.65-.69-17.07-2.23-21.57-11.75c0,0-5.47-20.29,18.93-16.83,0,0-12.38-1.24-6.35,14.08,0,0,1.3-4.65,10.32-5.46,0,0,2.19-5.87,13.14-5.45,0,0,20.8-1.2,20.78,8.62,0,0,17.58-1.69,17.68,4.44,0,0,16.05,1.06,12.12,6.46C6167.77,889.65,6151.41,889.71,6151.41,889.71Z"/><path class="c" d="M9806.6,725.54s-71,1-84-2,14-6,20-6,14-4,23-4,9-18,53-18c0,0,9.77-6.25,20-2,0,0,14-12,33-12s44.81,6.86,58,14c24,13,37,9,37,9s10,2,14,8c0,0,7,0,12,2,0,0,16,0,24,5s33,4,33,4,9,1-2,3c-12,0-82.67,2-94.34,0s-50.66-3-58.66-1S9818.6,725.54,9806.6,725.54Z"/><path class="c" d="M7459.67,495h367s8,0,5-2-11-3-11-4-5-1-9-2-11-1-17-3-20-3-25-2-5,1-11,2-9-5-14,0c0,0-7-13-14-13s-16,2-21,3-15-1-20-1-14-1-18,1-7,3-11,3-25-5-29-5-3.11-1-10.55-1-8.45,1-11.45,2-5,3-9,4-4,3-10,4-26-1-29-2-5-2-10-2-8-2-13-1a31,31,0,0,0-7,2c-3,1-8,4-9,4s-4,7-14,7-16-1-24-1-13,0-17,1-2,1.33-8,1.67-13,1.33-11,2.33S7452.67,495,7459.67,495Z"/><path class="a" d="M7728.07,607.37s1.93,7.07,38.62,8.64,100.4,1.57,100.4,1.57-6.43,4.65,29.61,5.47,166.06,1.54,201.46-3.93c0,0,113.93,1.54,167.35,0s329.55,2.32,341.13-3.93c0,0,65.65.82,83-3.11s-27-7.86-34.75-7.86-42.49-6.28-63.73-5.5-62.43-2.49-72.73-.06c0,0-21.88-2.68-39.26-.91,0,0-3.86-4.53-15.45-3.74,0,0-17.38-10.07-52.13-7.07,0,0-32.83-14-125.51-5.5,0,0-15.45-9.5-117.79-9.5,0,0-129.37,7-131.3,18.93,0,0-110.07-7.93-108.14,5.5,0,0-129.37.78-123.58,6.28C7805.3,602.65,7731.93,600.3,7728.07,607.37Z"/><path class="c" d="M5513.67,281.94s-9,1-9,6,2,7.33,4.5,7.16,5.5-1.16,8.5-1.16,8,1.35,12.5,1.17,10.17.21,14.84,0,13.33.3,14.5.05,18.16-.24-6.84-4.24c0,0-1-5-12-4,0,0-4-3-11,0C5529.67,286.94,5528.67,279.94,5513.67,281.94Z"/><path class="c" d="M2702.21,733.41h367s8,0,5-2-11-3-11-4-5-1-9-2-11-1-17-3-20-3-25-2-5,1-11,2-9-5-14,0c0,0-7-13-14-13s-16,2-21,3-15-1-20-1-14-1-18,1-7,3-11,3-25-5-29-5-3.11-1-10.56-1-8.44,1-11.44,2-5,3-9,4-4,3-10,4-26-1-29-2-5-2-10-2-8-2-13-1a31,31,0,0,0-7,2c-3,1-8,4-9,4s-4,7-14,7-16-1-24-1-13,0-17,1-2,1.34-8,1.67-13,1.33-11,2.33S2695.21,733.41,2702.21,733.41Z"/><path class="d" d="M1620.21,511.41s27,11,45,8c0,0,96,4,124,2,0,0,40-2,56-2s48-2,53-5c0,0,12.77-3,17.89-3s36.11,0,15.11-3-21-1-28-2-22-2-27-3-11-5-20-6-11,1-18-1-22-6-28-6-8,2-13,0c-11.09-4.43-26-11-35-10s-13,2-13,5,3.17,4,6,4c2,0,1.75-1,2.83-1.16a2.37,2.37,0,0,1,2.11,3.85c-.6.75-.94,1.31-1.94,1.31a18.54,18.54,0,0,1-7-2c-2-1-10-2-12-2s-10-1-18,2-8,6-16,7-12-1-23,0-17,1-21,3-6,7-16,7S1617.21,508.41,1620.21,511.41Z"/><path class="c" d="M4794.2,639.57s29.73,2.48,29.73,14.91-6.61,18.22-14.86,17.8-18.17-2.9-28.08-2.9-26.43,3.36-41.29,2.92-33.59.51-49,0-44,.75-47.89.14-60-.61,22.57-10.55c0,0,3.3-12.42,39.64-9.94,0,0,13.21-7.45,36.34,0C4741.35,652,4744.65,634.6,4794.2,639.57Z"/><path class="d" d="M4314,344.41s-61.29,47.29-102.14,34.4c0,0-217.91,17.19-281.47,8.59,0,0-90.79-8.59-127.11-8.59s-109-8.6-120.3-21.5c0,0-29-12.9-40.61-12.9s-82,0-34.3-12.89,47.67-4.3,63.56-8.6,49.93-8.6,61.28-12.9,25-21.49,45.4-25.79,25,4.3,40.86-4.3,49.94-25.8,63.56-25.8,18.15,8.6,29.5,0c25.16-19.06,59-47.28,79.45-43s29.51,8.6,29.51,21.5-7.2,17.2-13.62,17.2c-4.54,0-4-4.42-6.44-5-4.78-1.15-7.77,9.43-4.77,16.57,1.35,3.22,2.13,5.64,4.4,5.64,4.54,0,11.35-4.3,15.89-8.6s22.7-8.59,27.24-8.59,22.69-4.3,40.85,8.59,18.16,25.8,36.32,30.1,27.24-4.3,52.21,0,38.59,4.3,47.67,12.89,13.61,30.1,36.31,30.1S4320.79,331.52,4314,344.41Z"/><path class="c" d="M1938.13,167.81s-71,1-84-2,14-6,20-6,14-4,23-4,9-18,53-18c0,0,9.78-6.25,20-2,0,0,14-12,33-12s44.81,6.85,58,14c24,13,37,9,37,9s10,2,14,8c0,0,7,0,12,2,0,0,16,0,24,5s33,4,33,4,9,1-2,3c-12,0-82.67,2-94.33,0s-50.67-3-58.67-1S1950.13,167.81,1938.13,167.81Z"/><path class="c" d="M888.12,232.21s-40.71,2.32-40.71,13.93,9,17,20.35,16.64,24.89-2.71,38.46-2.71,36.19,3.13,56.55,2.73,46,.48,67.11,0,60.33.7,65.6.13,82.19-.57-30.91-9.86c0,0-4.53-11.61-54.29-9.29,0,0-18.1-7-49.77,0C960.51,243.81,956,227.56,888.12,232.21Z"/><path class="a" d="M12945.21,557.84s1.3,7.07,26.07,8.65,67.8,1.57,67.8,1.57-4.35,4.65,20,5.46,112.13,1.54,136-3.92c0,0,76.93,1.53,113,0s222.52,2.32,230.34-3.93c0,0,44.33.82,56.07-3.11s-18.26-7.86-23.47-7.86-28.69-6.29-43-5.5-42.16-2.49-49.11-.07c0,0-14.78-2.67-26.51-.91,0,0-2.61-4.52-10.43-3.73,0,0-11.74-10.08-35.2-7.08,0,0-22.17-14-84.75-5.5,0,0-10.43-9.5-79.53-9.5,0,0-87.36,7-88.66,18.93,0,0-74.32-7.93-73,5.5,0,0-87.35.79-83.44,6.29C12997.36,553.13,12947.81,550.77,12945.21,557.84Z"/><path class="b" d="M14050.07,691.65s47.91,10.14,68.93,9.14,58.86-6.27,72.59-2.13,52.4-6.85,66.2-36c0,0,16.8-62.28-58.1-51.66,0,0,38-3.81,19.49,43.21,0,0-4-14.26-31.65-16.76,0,0-6.74-18-40.35-16.71,0,0-63.84-3.69-63.78,26.45,0,0-53.94-5.21-54.25,13.62,0,0-49.28,3.24-37.2,19.83C13999.86,691.45,14050.07,691.65,14050.07,691.65Z"/><path class="d" d="M11274.21,537.41s27,11,45,8c0,0,96,4,124,2,0,0,40-2,56-2s48-2,53-5c0,0,12.77-3,17.89-3s36.11,0,15.11-3-21-1-28-2-22-2-27-3-11-5-20-6-11,1-18-1-22-6-28-6-8,2-13,0c-11.09-4.43-26-11-35-10s-13,2-13,5,3.17,4,6,4c2,0,1.75-1,2.83-1.16a2.37,2.37,0,0,1,2.11,3.85c-.6.75-.94,1.31-1.94,1.31a18.54,18.54,0,0,1-7-2c-2-1-10-2-12-2s-10-1-18,2-8,6-16,7-12-1-23,0-17,1-21,3-6,7-16,7S11271.21,534.41,11274.21,537.41Z"/><path class="c" d="M12785.13,286.81h-367s-8,0-5-2,11-3,11-4,5-1,9-2,11-1,17-3,20-3,25-2,5,1,11,2,9-5,14,0c0,0,7-13,14-13s16,2,21,3,15-1,20-1,14-1,18,1,7,3,11,3,25-5,29-5,3.11-1,10.56-1,8.44,1,11.44,2,5,3,9,4,4,3,10,4,26-1,29-2,5-2,10-2,8-2,13-1a31,31,0,0,1,7,2c3,1,8,4,9,4s4,7,14,7,16-1,24-1,13,0,17,1,2,1.33,8,1.67,13,1.33,11,2.33S12792.13,286.81,12785.13,286.81Z"/><path class="c" d="M10542.12,258.21s-40.71,2.32-40.71,13.93,9,17,20.35,16.64,24.89-2.71,38.46-2.71,36.19,3.13,56.55,2.73,46,.48,67.11,0,60.33.7,65.6.13,82.19-.57-30.91-9.86c0,0-4.53-11.61-54.29-9.29,0,0-18.1-7-49.77,0C10614.51,269.81,10610,253.56,10542.12,258.21Z"/></svg>