<svg xmlns="http://www.w3.org/2000/svg" width="15361" height="1440" viewBox="0 0 15361 1440"><defs><style>.a{fill:#fff;opacity:0.16;}</style></defs><path class="a" d="M7345.6,619s-1.3,7-26.1,8.6-67.8,1.6-67.8,1.6,4.4,4.6-20,5.5-112.1,1.5-136-4c0,0-76.9,1.6-113,0s-222.5,2.3-230.3-3.9c0,0-44.4.8-56.1-3.1s18.3-7.9,23.5-7.9,28.6-6.3,43-5.5,42.1-2.5,49.1,0c0,0,14.8-2.7,26.5-1,0,0,2.6-4.5,10.4-3.7,0,0,11.8-10.1,35.2-7.1,0,0,22.2-14,84.8-5.5,0,0,10.4-9.5,79.5-9.5,0,0,87.4,7,88.7,19,0,0,74.3-8,73,5.5,0,0,87.4.8,83.4,6.3C7293.4,614.3,7343,611.9,7345.6,619Z"/><path class="a" d="M6536.4,889.7s-15.6,3.3-22.4,3-19.2-2-23.7-.7-17.1-2.2-21.6-11.7c0,0-5.4-20.3,19-16.9,0,0-12.4-1.2-6.4,14.1,0,0,1.3-4.6,10.3-5.5,0,0,2.2-5.8,13.2-5.4,0,0,20.8-1.2,20.8,8.6,0,0,17.5-1.7,17.6,4.4,0,0,16.1,1.1,12.1,6.5C6552.8,889.7,6536.4,889.7,6536.4,889.7Z"/><path class="a" d="M10191.6,725.5s-71,1-84-2,14-6,20-6,14-4,23-4,9-18,53-18c0,0,9.8-6.2,20-2,0,0,14-12,33-12s44.8,6.9,58,14c24,13,37,9,37,9s10,2,14,8c0,0,7,0,12,2,0,0,16,0,24,5s33,4,33,4,9,1-2,3c-12,0-82.7,2-94.3,0s-50.7-3-58.7-1S10203.6,725.5,10191.6,725.5Z"/><path class="a" d="M7844.7,495h367s8,0,5-2-11-3-11-4-5-1-9-2-11-1-17-3-20-3-25-2l-11,2c-6,1-9-5-14,0,0,0-7-13-14-13s-16,2-21,3-15-1-20-1-14-1-18,1-7,3-11,3-25-5-29-5-3.1-1-10.6-1-8.4,1-11.4,2-5,3-9,4-4,3-10,4-26-1-29-2-5-2-10-2-8-2-13-1a31,31,0,0,0-7,2c-3,1-8,4-9,4s-4,7-14,7-16-1-24-1-13,0-17,1-2,1.3-8,1.7-13,1.3-11,2.3S7837.7,495,7844.7,495Z"/><path class="a" d="M8113.1,607.4s1.9,7,38.6,8.6,100.4,1.6,100.4,1.6-6.4,4.6,29.6,5.4,166.1,1.6,201.5-3.9c0,0,113.9,1.6,167.3,0s329.6,2.3,341.1-3.9c0,0,65.7.8,83.1-3.1s-27.1-7.9-34.8-7.9-42.5-6.3-63.7-5.5-62.4-2.5-72.7,0c0,0-21.9-2.7-39.3-1,0,0-3.9-4.5-15.4-3.7,0,0-17.4-10.1-52.2-7.1,0,0-32.8-14-125.5-5.5,0,0-15.4-9.5-117.8-9.5,0,0-129.4,7-131.3,19,0,0-110-8-108.1,5.5,0,0-129.4.8-123.6,6.3C8190.3,602.7,8116.9,600.3,8113.1,607.4Z"/><path class="a" d="M5898.7,281.9s-9,1-9,6,2,7.4,4.5,7.2,5.5-1.2,8.5-1.2,8,1.4,12.5,1.2,10.1.2,14.8,0,13.3.3,14.5.1,18.2-.3-6.8-4.3c0,0-1-5-12-4,0,0-4-3-11,0C5914.7,286.9,5913.7,279.9,5898.7,281.9Z"/><path class="a" d="M3087.2,733.4h367s8,0,5-2-11-3-11-4-5-1-9-2-11-1-17-3-20-3-25-2l-11,2c-6,1-9-5-14,0,0,0-7-13-14-13s-16,2-21,3-15-1-20-1-14-1-18,1-7,3-11,3-25-5-29-5-3.1-1-10.5-1-8.5,1-11.5,2-5,3-9,4-4,3-10,4-26-1-29-2-5-2-10-2-8-2-13-1a31,31,0,0,0-7,2c-3,1-8,4-9,4s-4,7-14,7-16-1-24-1-13,0-17,1-2,1.3-8,1.7-13,1.3-11,2.3S3080.2,733.4,3087.2,733.4Z"/><path class="a" d="M2005.2,511.4s27,11,45,8c0,0,96,4,124,2,0,0,40-2,56-2s48-2,53-5c0,0,12.8-3,17.9-3s36.1,0,15.1-3-21-1-28-2-22-2-27-3-11-5-20-6-11,1-18-1-22-6-28-6-8,2-13,0c-11.1-4.4-26-11-35-10s-13,2-13,5,3.2,4,6,4,1.8-1,2.8-1.2a2.4,2.4,0,0,1,2.1,3.9c-.6.7-.9,1.3-1.9,1.3a18.5,18.5,0,0,1-7-2c-2-1-10-2-12-2s-10-1-18,2-8,6-16,7-12-1-23,0-17,1-21,3-6,7-16,7S2002.2,508.4,2005.2,511.4Z"/><path class="a" d="M5179.2,639.6s29.7,2.5,29.7,14.9-6.6,18.2-14.8,17.8-18.2-2.9-28.1-2.9-26.4,3.3-41.3,2.9-33.6.5-49,0-44.1.8-47.9.2-60-.6,22.6-10.6c0,0,3.3-12.4,39.6-9.9,0,0,13.2-7.5,36.3,0C5126.3,652,5129.7,634.6,5179.2,639.6Z"/><path class="a" d="M4699,344.4s-61.3,47.3-102.2,34.4c0,0-217.9,17.2-281.4,8.6,0,0-90.8-8.6-127.1-8.6s-109-8.6-120.3-21.5c0,0-29-12.9-40.6-12.9s-82,0-34.3-12.9,47.6-4.3,63.5-8.6,49.9-8.6,61.3-12.9,25-21.5,45.4-25.8,25,4.3,40.8-4.3,50-25.8,63.6-25.8,18.2,8.6,29.5,0c25.2-19,59-47.3,79.5-43s29.5,8.6,29.5,21.5-7.2,17.2-13.7,17.2c-4.5,0-3.9-4.4-6.4-5-4.8-1.1-7.8,9.4-4.8,16.6,1.4,3.2,2.2,5.6,4.4,5.6,4.6,0,11.4-4.3,15.9-8.6s22.7-8.6,27.3-8.6,22.7-4.3,40.8,8.6,18.2,25.8,36.3,30.1,27.3-4.3,52.2,0,38.6,4.3,47.7,12.9,13.6,30.1,36.3,30.1S4705.8,331.5,4699,344.4Z"/><path class="a" d="M2323.1,167.8s-71,1-84-2,14-6,20-6,14-4,23-4,9-18,53-18c0,0,9.8-6.2,20-2,0,0,14-12,33-12s44.8,6.9,58,14c24,13,37,9,37,9s10,2,14,8c0,0,7,0,12,2,0,0,16,0,24,5s33,4,33,4,9,1-2,3c-12,0-82.6,2-94.3,0s-50.7-3-58.7-1S2335.1,167.8,2323.1,167.8Z"/><path class="a" d="M1273.1,232.2s-40.7,2.3-40.7,13.9,9.1,17.1,20.4,16.7,24.8-2.7,38.4-2.7,36.2,3.1,56.6,2.7,46,.5,67.1,0,60.3.7,65.6.2,82.2-.6-30.9-9.9c0,0-4.6-11.6-54.3-9.3,0,0-18.1-7-49.8,0C1345.5,243.8,1341,227.6,1273.1,232.2Z"/><path class="a" d="M13330.2,557.8s1.3,7.1,26.1,8.7,67.8,1.6,67.8,1.6-4.4,4.6,20,5.4,112.1,1.6,136-3.9c0,0,76.9,1.5,113,0s222.5,2.3,230.3-3.9c0,0,44.4.8,56.1-3.1s-18.2-7.9-23.5-7.9-28.6-6.3-43-5.5-42.1-2.5-49.1-.1c0,0-14.8-2.6-26.5-.9,0,0-2.6-4.5-10.4-3.7,0,0-11.8-10.1-35.2-7.1,0,0-22.2-14-84.8-5.5,0,0-10.4-9.5-79.5-9.5,0,0-87.4,7-88.7,18.9,0,0-74.3-7.9-73,5.5,0,0-87.4.8-83.4,6.3C13382.4,553.1,13332.8,550.8,13330.2,557.8Z"/><path class="a" d="M14435.1,691.7s47.9,10.1,68.9,9.1,58.9-6.3,72.6-2.1,52.4-6.9,66.2-36.1c0,0,16.8-62.3-58.1-51.7,0,0,38-3.8,19.5,43.3,0,0-4-14.3-31.7-16.8,0,0-6.7-18-40.3-16.7,0,0-63.9-3.7-63.8,26.4,0,0-53.9-5.2-54.3,13.7,0,0-49.2,3.2-37.2,19.8C14384.9,691.5,14435.1,691.7,14435.1,691.7Z"/><path class="a" d="M11659.2,537.4s27,11,45,8c0,0,96,4,124,2,0,0,40-2,56-2s48-2,53-5c0,0,12.8-3,17.9-3s36.1,0,15.1-3-21-1-28-2-22-2-27-3-11-5-20-6-11,1-18-1-22-6-28-6-8,2-13,0c-11.1-4.4-26-11-35-10s-13,2-13,5,3.2,4,6,4,1.8-1,2.8-1.2a2.4,2.4,0,0,1,2.1,3.9c-.6.7-.9,1.3-1.9,1.3a18.5,18.5,0,0,1-7-2c-2-1-10-2-12-2s-10-1-18,2-8,6-16,7-12-1-23,0-17,1-21,3-6,7-16,7S11656.2,534.4,11659.2,537.4Z"/><path class="a" d="M13170.1,286.8h-367s-8,0-5-2,11-3,11-4,5-1,9-2,11-1,17-3,20-3,25-2l11,2c6,1,9-5,14,0,0,0,7-13,14-13s16,2,21,3,15-1,20-1,14-1,18,1,7,3,11,3,25-5,29-5,3.1-1,10.6-1,8.4,1,11.4,2,5,3,9,4,4,3,10,4,26-1,29-2,5-2,10-2,8-2,13-1a31,31,0,0,1,7,2c3,1,8,4,9,4s4,7,14,7,16-1,24-1,13,0,17,1,2,1.3,8,1.7,13,1.3,11,2.3S13177.1,286.8,13170.1,286.8Z"/><path class="a" d="M10927.1,258.2s-40.7,2.3-40.7,13.9,9.1,17.1,20.4,16.7,24.8-2.7,38.4-2.7,36.2,3.1,56.6,2.7,46,.5,67.1,0,60.3.7,65.6.2,82.2-.6-30.9-9.9c0,0-4.6-11.6-54.3-9.3,0,0-18.1-7-49.8,0C10999.5,269.8,10995,253.6,10927.1,258.2Z"/></svg>