<svg xmlns="http://www.w3.org/2000/svg" width="15361" height="1440" viewBox="0 0 15361 1440"><defs><style>.a{fill:#1976d2;}.b{fill:#0288d1;}.c{fill:#90caf9;}</style></defs><path class="a" d="M10319.9,1304.58,10323,392s-2.07-1.2-2.07,2.93c0,4.87-1,0-1,0l-1,0L10305.79,414l-6-4s0,12.39-9.81,13.93-8.78.52-15.83-4.27-4.3-5.53-13.77-19.52-26.67,28.44-34.76,19.66-15.66-9.8-33.73-18.58-17,74.34-22.72,67.11-19.1,22-22.71,24.78c-14.46,11.27-8.09,13.94-14.46,13.43s-14.8-4.89-14.8-4.89l-3.78-.28-9.29,9.3L10102,520.9s-3.61,1.55-4.13,0-4.65-8.78-15.14-12.59-22.55-4.45-23.33-10.6-1.28-10.37-.08-14-11.53-4.65-17.89-12.39-6-2.58-11-7.55-7.4-6.39-7.13-9-8.53-10.84-10.08-14.36-8.77-2.68-17.8-7-1.3-6-.09-10-9.47-15.66-13.08-17-13.94-9-24.85-10.6-13.6-8.81-13.6-8.81-3.37.06-3.37-1-8.26-4.13-9.29-5.17-12.39-2.06-12.91-2-10.84-1.08-13.08,0-5-2.12-7.11-3.18-7.17,0-9.18,0-10.38,2.1-10.38,2.1l-2.06-8.26-5.17,1.2V358.28l-6.19,16.52-3.1-4.13-3.15,5.13s-3,2.1-4.08,1.06-2.06-1-2.06-2.06-3.1,0-5.17,0-2.46,1-2.46,1l-3.73-19.59s-2.07,22.72-3.1,21.69-5.16,1-7.63,1.08-2.69,4.08-2.75,4.71,0,5.89,0,5.89-1,7.94-2,7.42,0,2.58,0,2.58-1,6.2-2.06,7a88.83,88.83,0,0,1-8.26,4.4c-4.13,2.06-2.07,4.13-2.07,7.23s-2.06,2.92-2.06,2.92-4.13,1.21-15.43,8.77-6.26,5.86-8.32,7.92-6.2-1-11.36-1-6.19,1-10.84,3.71-5.51,0-5.51,0l-2.06-13.78-4.3,8-1.67-8s-4.53,15.23-5.56,16.27-1-3.1-1-3.1-6.2,10.32-8.26,11.36-5.17,4.13-7.23,5.16-8.26,0-12.39,1-11.88,9.58-11.88,9.58-11.87,4.88-17,4.59-7.23,2.35-10.33,4.42-8.26,10.32-11.36,11.35-7.22-1-12.39-2.06-10.32,3.1-11.35,3.1-12.39,2.92-12.39,2.92V473.92s-5.17,20.65-6.2,21.68-2.06,8.26-2.06,9.3-8.26,1-11.36,2.06-5.16,3.1-8.26,6.2-6.2,3.09-9.29,4.13-11.36,0-21.69-1-12.39-1-17.55,0-14.46,2.07-16.52,1-12.39,0-11.36-3.1-5.16-2.07-11.36-2.07a32.5,32.5,0,0,1-9.29-1s-12.39,0-19.62-4.13-4.13-3.1-5.16-6.19-3.1-2.07-10.32-2.07-8.26-2.06-11.36-7.23-5.16-10.32-5.16-11.35-7.23-2.07-11.08-3.62-10.61-5.68-10.61-8.14v-3.73a96,96,0,0,0-12.39-10.33c-6.19-4.13-2.06,0-9.29,4.13s-8.26,2.07-8.26,0-11.36-4.13-12.39-4.13-10.33,3.1-10.33,3.1l-1-13.42-6.6,11.87-1.66-3.61-4.13,7.23-4.65-15.89s-2.58,14.85-4.64,16.92-9.29,2.06-12.91,1-8.77.06-9.81-1-9.29,0-9.29.52-10.32-5.68-12.39-8.78-2.07-7.23-2.07-10.33-5.16-7.22-4.64-8-7.75-8.55-16-13.71-10.32-1-10.32-1-9.29-6.2-9.29-8.26-15.49-4.13-15.49-4.13l-8.26-3.1-7.23-2.06-4.13-6.2s-1-1-6.19-2.06-2.07-4.13-2.07-4.13-2.06-7.23-2.06-8.27-2.07-2.06-2.07-3v-5.22l-2.06-7.22-3.1,3.09-4.13-16.52s-5.16,16.52-6.2,16.52-2.06-3.09-3.09-4.13a22.08,22.08,0,0,1-4.13-5.16c-1-2.06-5.17,0-9.3,1s-4.13-4.13-4.13-4.13l-4.13-11.35s-3.09,9.29-3.09,10.32-4.14,1-5.17,0-7.23,0-8.26,0a46.64,46.64,0,0,1-8.26-2.06c-3.1-1-2.06-1-6.19,1s-2.07-3.1-2.07-3.1l-4.13,3.1-5.16-8.26-3.1,4.13L9133,337.63l-6.19,17.55s-2.07,2.07-4.13,8.26-3.1,4.13-4.13,5.16-9.3,5.17-9.3,5.17a113.29,113.29,0,0,1-8.26,10.32c-3.09,3.1-3.09,2.07-6.19,5.17s-5.16,3.09-5.16,4.13-4.13,5.16-7.23,8.26-3.1,5.16-3.1,7.22-3.1,7.23-4.13,10.33-2.06,5.16-3.1,6.19-4.13,3.1-6.19,6.2,0,2.06,2.06,4.13-2.06,7.23-2.06,7.23-6.2,1-7.23,2.06-3.1,1-5.16,2.07-3.1,4.13-5.16,7.22-3.1,5.17-4.13,6.2-6.2,4.13-10.33,7.23,0,4.13-5.16,7.22,0,11.36-6.2,17.56-12.39,1-14.45,0-4.13-1-8.26-2.07-6.2,2.07-13.43,2.07-3.09-1-8.26,1-5.16,6.19-6.19,7.23-4.13,2.06-7.23,13.42-4.13,3.1-6.19,4.13-9.3,2.07-13.43,4.13-3.09,0-8.26-1-3.09,0-4.13,0h-8.26l-1-1-3.1-9.3-2.06,3.1-2.07-7.23-3.09,13.43s-1,0-5.17,2.06-4.13,0-9.29,0h-18.59v-2.06l-3.09-9.3-2.07,4.13-2.06-8.26-4.13,10.33-1-2.07-3.09,6.2-2.07,1s-4.13,1-6.19,0-5.17-1-5.17,0-5.16,0-8.26,0-1-2.06-1-2.06l-3.1-9.3-2.06,3.1-3.1-8.26s-3.1,15.49-3.1,16.52-2.06,0-5.16,1-4.13,0-8.26,1-4.13,0-5.16-1-2.07-1-6.2-2.06-5.16,1-10.32,2.06-8.26,13.43-10.33,15.49,2.07,8.26,3.1,13.42-4.13,9.3-2.64,13.94-1.49,6.71-.46,8.61,0,7.4,0,11.53-2.06,2.06-6.69,4.64-.53,6.71,0,11.36-8.78,10.84-11.7,17.11-6.37,7.15-6.37,7.15l-2.06-8.26-2.07,6.2a43.08,43.08,0,0,0-2.06,5.16c-1,3.1-3.1,1-8.26,1s-1,0-4.13,2.07-2.07-1-2.07-1l-2.06-14.46-4.13,15.83v4.82c0,2.07-6.2,4.13-7.23,4.13s-7.23,2.07-10.33,3.1-8.26,0-12.39,0-2.06,2.06-6.19,4.13-4.13,0-9.29,0-5.17-1-9.3,2.06-10.32,1-10.32,1l-4.13-4.13-3.1,6.19-3.1-5.16-3.09,6.2-1-6.2-6.19,12.39-1.72-1.55-1.38,2.58-3.1-12.39L8638.45,666a28.19,28.19,0,0,1-7.77,5.16c-4.66,2.07-3.59,10.33-7.72,16.52s-18.59,2.07-22.43,1.55-10.61,5.68-13.71,8.78-13.42,4.13-17.5,8.26-14.51-1-20.19-5.68-17-2.58-22.2-2.58-13.42,4.13-16.52,6.19-13.42,1-20.65,0-4.13-2.06-13.94,2.07-13.94,2.06-13.94,2.06-8.26-2.06-9.12-2.06-8.43-1-11.53-1H8435c-2.07,0-9.29-2.07-11.42-4.65s-2-1.55-6.13-3.61-7.23-4.13-7.23-6.2-5.16-5.16-7.29-8.78-10.26-4.64-11-6-5.44-5.91-5.44-6.94-7.23-4.13-8-4.76-6.5-2.47-7.48-4-8.32-4.64-8.32-5.68-4.13-3.1-8.06-2.92-4-2.3-4-2.3l-5.36-5.27-2-6-2,3.44L8339,634l-3.09,9.29s-2.07,1-3.1,0-3.1-1-10.33-4.13-3.09-3.09-4.13-5.16,0-6.19-1-6.19c0,0-5.16-3.1-7.23-4.13s-5.16,2.06-5.16,3.09-5.16-4.13-5.16-4.13l-3.1,2.07-5.16-10.33-2.07,2.07-1-7.23-4.13,14.46-4.13-9.3-4.13,9.3-2.06-5.17-3.1,6.2-4.13-12.39s-3.1,11.36-4.13,12.39-3.1-1-4.13-2.07-2.07-2.06-5.16-1-4.13-1-6.2-1-2.06-3.1-2.06-3.1l-2.07-8.26-5.16,8.26-1-16.52s-2.07,13.42-4.13,16.52-2.07-1-4.14-3.1-8.26-3.09-8.26-4.13-2.06-4.13-8.26-6.19,0-4.13-2.06-6.2-4.13-2.06-4.13-3.09-4.13-6.2-5.16-8.26-5.17-6.2-5.34-6.86.17-4.5-.86-6.57-4.13-4.13-5.16-5.16-3.1,0-6.2-1-2.06-1-2.06-4.13-5.16-2.07-9.29-2.07h-3.1l-6.2-11.35-3.09,6.19L8155.23,540l-3.1,10.33s-2.07,2.06-2.07,0-2.06,0-4.13,0-3.09,4.13-4.13,3.1-2.06,0-5.16,1-3.1,3.1-3.1,3.1l-4.13-11.36-2.06,7.23-2.07-15.49-5.16,27.88-4.13-4.13-1,8.26-3.1-15.49s-3.1,22.71-3.1,23.75-1,6.19-3.15,12.9-3,.52-11.3,3.62-5.17,6.19-7.23,7.22-4.13,6.2-5.16,9.3-2.07,10.32-3.1,12.39-7.23,7.22-7.23,7.22-5.16,6.2-6.19,7.23-5.17,1-6.2,1-3.1,4.13-3.1,4.13l-5.16-22.71-3.1,23.75s0,3.09-2.06,2.06-3.1,2.07-4.13,2.07-4.13,4.13-4.13,4.13,0,9.29-1,10.32a85.12,85.12,0,0,0-6.2,8.26c-2.06,3.1,0,5.17-3.1,9.3s-5.16,4.13-7.22,6.19-2.07,3.1-3.1,8.26-3.1,3.1-4.13,4.13-3.1,0-5.16,0-4.13,1-6.2,1-5.16,4.13-6.19,5.17-1,5.16-2.07,7.22-4.13,1-4.13,1-3.1-12.39-3.1-13.43-2.06,14.46-2.06,14.46-5.16,2.06-5.16,3.1-4.13,3.09-4.13,4.13-1,6.19-2.07,7.22-1,4.13-1,4.65v3.61a28.92,28.92,0,0,1-3.1,4c-1,.86,0,3.27,0,4.3s-2.06,1-5.16,2.07-4.13,2.06-9.3,5.16-3.09,3.1-7.22,7.23-3.1,1-6.2,0-4.13,1-7.23,3.1-4.13,1-4.13,1l-1-11.36-4.13,8.26-1-4.13-2.07,3.1-2.06-10.33s-4.13,16.52-3.79,16-14.8,2.58-18.93,2.58-5.16,6.19-9.29,10.32-11.36,8.26-13.42,9.3-6.2,1-12.39,2.06-7.23,4.13-14.46,8.26-5.16,3.1-5.16,3.1l-2.06-6.19-2.07,5.16-3.1-14.46L7831,803.3l-2.07,6.19c-1,3.1-9.29,3.1-10.33,3.1s-2.06,4.13-2.75,7.64-5.51-1.45-6.54-3.51-5.16,3.1-9.18,5.68S7799,824,7800,826s-5.16,4.13-9.29,2.9-6.2,3.3-7.23,4.33-7.23,2.06-11.7,2-4.82-2-13.43-1a39.61,39.61,0,0,0-15.14,5.18s-6.19-.87-7.23-.87-7.22,1-9.29,1-6.19-1-7.23-2.07-3.09,0-4.13,0-7.22,2.07-7.22,2.07l-4.13-8.43-3.1,6.2-3.1-17.55-8.26,17.55-2.07-7.23-3.09,5.16L7681.3,825s-2.67,11.64-3.3,13-2.9-1-2.9-1l-2.06,2.54s-3.1,0-4.13-1-5.16-1-8.26-1a12.52,12.52,0,0,0-5.16,1l-3.1-7.36-3.1,7.23-3.1-17.55L7640,835.47s-4.13,3.09-7.29,1.12-10.26-2.16-16.46,1.69-39.75-4.53-39.75-4.53a56.58,56.58,0,0,1-21.8,3.18c-.05,0-11.78,4.11-14.34,9.21-1,2.07.29,2.29-1,6.2-.7,2.08-6.18,1.38-6.2,4.13,0,2.07-5.81,4.95-12.39,6.2l-3.09-8.27s-5.17,10.33-5.27,10.39c-5.76,1.27-10.21,2.82-10.22,5.1l-6.15,5.17s1.09,2.4,0,3.78-4.41,2.75-4.29,4.13-5.05,4.48-5.05,4.48-2.07,3.09-4.13,4.13-1,3.09-8.26,5.16-5.16-1-8.26,3.1-3.1,8.26-6.2,10.32-1,3.1-5.16,5.16a43.73,43.73,0,0,1-11.76,4.13c-4.76,1-8.64,3.1-11.35,4.13s-5.8,2.07-11,4.13-7.23,3.1-8.26,4.13,0,3.1-2.07,3.1-9.24,4.13-10.81,5.16-.54-1-4.67,3.1-1,6.2-6.2,8.26-6.19,3.1-10.32,4.13-5.25.69-7.27,1.38a5.89,5.89,0,0,1-4.09-.35l-1-4.13-1,1-2.06-8.26-6.2,17.55-3.1-3.1-7.22,14.46-1,2.06c-1,2.07,2.07,4.13-1,6.2s-4.13,2.06-5.16,4.13-2.07,4.13-2.07,5.16-2.06,5.16-3.09,5.16-2.07,1-4.13,3.1l-4.13,4.13c-2.07,2.07-2.07,4.13-3.1,5.16s-1.61,2.07-3.9,2.07-1.26-1-3.33,1-1,1.61-4.13,3.9a15.35,15.35,0,0,1-9.29,3.33c-3.1,0-3.1-1-4.13-1h-6.2a7.69,7.69,0,0,1-3.09,3.09c-2.07,1-4.13,3.1-5.17,3.1s-5.16,4.13-5.16,4.13a3.19,3.19,0,0,0-2.06,1,22.37,22.37,0,0,1-5.17,4.13c-2.06,1-4.13,4.13-4.13,6.2s4.13.57,0,3.9-5.16,2.29-9.29,3.33-5.85,2.63-6.54,3.89-1.72,1.27-1.72,2.3.23,1-1.95,2-4,2.89-5.16,3.52a15.67,15.67,0,0,0-3.21,2.7c-1,1-.81.12-4,2.64s-5.28,2.52-9.41,2.52-2.06-1-12.39,0-10.55-.5-14.57,1.82-6.08,2.31-6.08,3.35,5.16,0,1,1-6.19,1-8.26,2.06-8.26,1-9.29,2.07-2.06,0-6.19,3.1-2.07,3.09-5.17,4.13-11.35,5.16-14.45,6.19-7.23,4.13-10.33,5.16-4.13,4.13-6.19,4.13-1-2.06-8.26,1-7.23,4-10.33,4.59,1-.46-5.16,2.63-3.1,3.1-8.26,5.17-4.13,2.06-5.16,2.06-9.29-2.06-13.43,0,0,1-4.13,2.07-3.09,1-6.19,2.06a13.14,13.14,0,0,1-6.2,1h-7.11c-1.15,0-1.15-2.06-7.34,1l-6.2,3.1a7.8,7.8,0,0,1-4.13,1c-1,0-9.8-9.81-9.8-9.81V1125l-5.68-5.28-3.1,6.2s-19.62,8-25.81,9.17-8.61,1.23-12.05,3.26-5.51,5.54-9.64,6.88-14.11,5.47-17.89,6.5-5.85,0-17.21,4.65-16.52,6.71-20.65,12.9-3.44,7.23-8.95,10.84-.35,2.5-13.77,7.71-12,2.25-16.86,11.47,4.47,7.64-5.85,17.21-16.52,13.69-21.69,15.76-8.26,2-13.42,7.18-6.19,9.34-12.39,15.53-8.26,9.3-15.49,13.43-22.48,4.47-25.18,7.91-8.43,11.36-8.66,14.11,0,14.11,0,14.11H10319.9"/><path class="a" d="M10322.79,391.79l17.79,19.06,8.2-4.05s0,12.39,13.34,13.94,11.94.52,21.54-4.28,5.85-5.53,18.72-19.51,36.28,28.44,47.29,19.66,21.3-9.81,45.88-18.59,23.17,74.35,30.89,67.12,26,22,30.9,24.78c19.67,11.26,11,13.94,19.67,13.42s20.13-4.89,20.13-4.89l5.15-.27,12.64,9.29,2.81,10.33s4.91,1.54,5.61,0,6.32-8.78,20.6-12.59,30.67-4.45,31.73-10.61,1.75-10.36.11-14,15.68-4.65,24.34-12.39,8.2-2.59,15-7.56,10.07-6.38,9.7-9,11.61-10.84,13.71-14.35,11.94-2.68,24.22-7,1.76-6,.13-10,12.87-15.66,17.79-17,19-9,33.8-10.61,18.5-8.8,18.5-8.8,4.58.05,4.58-1,11.23-4.13,12.64-5.16,16.85-2.07,17.55-2,14.75-1.08,17.79,0,6.79-2.11,9.68-3.18,9.75,0,12.48,0,14.13,2.1,14.13,2.1l2.81-8.26,7,1.21V355.17l8.43,16.52,4.21-4.13,4.29,5.13s4.14,2.1,5.54,1.07,2.81-1,2.81-2.07,4.21,0,7,0,3.36,1,3.36,1l5.07-19.58s2.81,22.71,4.21,21.68,7,1,10.38,1.08,3.67,4.08,3.74,4.72,0,5.88,0,5.88,1.33,7.94,2.74,7.42,0,2.59,0,2.59,1.4,6.19,2.8,7,5.62,2.33,11.24,4.39,2.81,4.13,2.81,7.23a2.66,2.66,0,0,0,2.81,2.93s5.62,1.2,21,8.77,8.5,5.85,11.31,7.92,8.43-1,15.45-1,8.43,1,14.75,3.71,7.49,0,7.49,0l2.81-13.78,5.85,8,2.26-8s6.17,15.23,7.57,16.26,1.41-3.1,1.41-3.1,8.42,10.33,11.23,11.36,7,4.13,9.83,5.16,11.24,0,16.86,1,16.15,9.58,16.15,9.58,16.15,4.87,23.17,4.58,9.83,2.36,14.05,4.42,11.23,10.33,15.45,11.36,9.83-1,16.85-2.07,14,3.1,15.45,3.1,16.85,2.93,16.85,2.93V470.82s7,20.65,8.43,21.68,2.81,8.26,2.81,9.29,11.24,1,15.45,2.07,7,3.09,11.23,6.19,8.43,3.1,12.64,4.13,15.45,0,29.5-1,16.85-1,23.88,0,19.66,2.06,22.47,1,16.85,0,15.45-3.1,7-2.06,15.45-2.06,12.64-1,12.64-1,16.85,0,26.68-4.13,5.62-3.1,7-6.2,4.22-2.06,14-2.06,11.23-2.07,15.45-7.23,7-10.33,7-11.36,9.83-2.06,15.06-3.61,14.43-5.68,14.43-8.15v-3.73a129.84,129.84,0,0,1,16.86-10.32c8.42-4.13,2.81,0,12.64,4.13s11.23,2.06,11.23,0,15.45-4.13,16.86-4.13,14,3.1,14,3.1l1.41-13.43,9,11.88,2.26-3.62,5.62,7.23,6.32-15.89s3.51,14.86,6.32,16.92,12.64,2.07,17.56,1,11.94.06,13.34-1,12.64,0,12.64.52,14-5.68,16.85-8.78,2.81-7.22,2.81-10.32,7-7.23,6.32-8,10.54-8.54,21.77-13.7,14-1,14-1,12.64-6.19,12.64-8.26,21.07-4.13,21.07-4.13l11.23-3.09,9.83-2.07,5.62-6.2s1.41-1,8.43-2.06,2.81-4.13,2.81-4.13,2.81-7.23,2.81-8.26,2.8-2.07,2.8-3v-5.22l2.81-7.23,4.22,3.1,5.61-16.52s7,16.52,8.43,16.52,2.81-3.1,4.22-4.13,4.21-3.1,5.61-5.16,7,0,12.64,1,5.62-4.13,5.62-4.13l5.62-11.36s4.21,9.29,4.21,10.33,5.62,1,7,0,9.83,0,11.23,0a83.25,83.25,0,0,0,11.24-2.07c4.21-1,2.81-1,8.42,1s2.81-3.09,2.81-3.09L11919,351l7-8.26,4.22,4.13,5.61-12.39,8.43,17.56s2.81,2.06,5.62,8.26,4.21,4.13,5.62,5.16,12.64,5.16,12.64,5.16,7,7.23,11.23,10.33,4.22,2.06,8.43,5.16,7,3.1,7,4.13,5.62,5.16,9.83,8.26,4.22,5.16,4.22,7.23,4.21,7.23,5.62,10.32,2.8,5.17,4.21,6.2,5.62,3.1,8.43,6.19,0,2.07-2.81,4.13,2.81,7.23,2.81,7.23,8.42,1,9.83,2.07,4.21,1,7,2.06,4.21,4.13,7,7.23,4.22,5.16,5.62,6.19,8.43,4.13,14,7.23,0,4.13,7,7.23,0,11.36,8.42,17.55,16.86,1,19.67,0,5.61-1,11.23-2.06,8.43,2.06,18.26,2.06,4.21-1,11.24,1,7,6.2,8.42,7.23,5.62,2.07,9.84,13.42,5.61,3.1,8.42,4.13,12.64,2.07,18.26,4.13,4.21,0,11.24-1,4.21,0,5.61,0h11.24l1.4-1,4.22-9.29,2.81,3.09,2.81-7.22,4.21,13.42s1.4,0,7,2.06,5.62,0,12.64,0h25.28v-2.06l4.22-9.29,2.81,4.13,2.8-8.26,5.62,10.32,1.41-2.06,4.21,6.19,2.81,1s5.62,1,8.43,0,7-1,7,0,7,0,11.23,0,1.41-2.06,1.41-2.06l4.21-9.29,2.81,3.09,4.21-8.26s4.22,15.49,4.22,16.52,2.81,0,7,1,5.62,0,11.24,1,5.61,0,7-1,2.81-1,8.43-2.07,7,1,14,2.07,11.24,13.42,14,15.49-2.81,8.26-4.22,13.42,5.62,9.29,3.59,13.94,2,6.71.63,8.6,0,7.4,0,11.53,2.8,2.07,9.1,4.65.73,6.71,0,11.36,11.94,10.84,15.92,17.11,8.66,7.15,8.66,7.15l2.81-8.26,2.81,6.19a37.56,37.56,0,0,1,2.81,5.17c1.4,3.09,4.21,1,11.24,1s1.4,0,5.61,2.06,2.81-1,2.81-1l2.81-14.45,5.62,15.83V635c0,2.06,8.43,4.13,9.83,4.13s9.83,2.06,14.05,3.09,11.23,0,16.85,0,2.81,2.07,8.43,4.13,5.61,0,12.64,0,7-1,12.64,2.07,14,1,14,1l5.62-4.13,4.21,6.2,4.22-5.17,4.21,6.2,1.4-6.2,8.43,12.39,2.34-1.54,1.88,2.58,4.21-12.39,4.21,15.48a41.06,41.06,0,0,0,10.56,5.17c6.34,2.06,4.89,10.32,10.51,16.52s25.28,2.06,30.51,1.55,14.43,5.68,18.65,8.77,18.25,4.13,23.79,8.26,19.75-1,27.47-5.68,23.17-2.58,30.2-2.58,18.25,4.13,22.47,6.2,18.26,1,28.09,0,5.62-2.07,19,2.06,19,2.07,19,2.07,11.23-2.07,12.41-2.07,11.47-1,15.68-1h8.43c2.8,0,12.64-2.06,15.52-4.65s2.73-1.54,8.35-3.61,9.83-4.13,9.83-6.19,7-5.17,9.91-8.78,14-4.65,15-6,7.4-5.9,7.4-6.94,9.83-4.13,10.81-4.76,8.85-2.47,10.18-4,11.31-4.65,11.31-5.68,5.62-3.1,11-2.93,5.47-2.29,5.47-2.29l7.28-5.28,2.73-6,2.73,3.45,3.12-7.63,4.22,9.29s2.8,1,4.21,0,4.21-1,14-4.13,4.22-3.1,5.62-5.16,0-6.2,1.41-6.2c0,0,7-3.1,9.83-4.13s7,2.07,7,3.1,7-4.13,7-4.13l4.22,2.06,7-10.32,2.81,2.06,1.4-7.22,5.62,14.45,5.62-9.29,5.62,9.29,2.8-5.16,4.22,6.19,5.62-12.39s4.21,11.36,5.61,12.39,4.22-1,5.62-2.06,2.81-2.07,7-1,5.62-1,8.43-1,2.81-3.09,2.81-3.09l2.81-8.26,7,8.26,1.41-16.52s2.81,13.42,5.61,16.52,2.81-1,5.62-3.1,11.24-3.1,11.24-4.13,2.81-4.13,11.23-6.2,0-4.13,2.81-6.19,5.62-2.07,5.62-3.1,5.62-6.19,7-8.26,7-6.19,7.26-6.86-.23-4.5,1.17-6.56,5.62-4.13,7-5.16,4.22,0,8.43-1,2.81-1,2.81-4.13,7-2.06,12.64-2.06h4.21l8.43-11.36,4.21,6.2,5.62-15.49,4.21,10.32s2.81,2.07,2.81,0,2.81,0,5.62,0,4.21,4.13,5.62,3.1,2.81,0,7,1,4.21,3.1,4.21,3.1l5.62-11.36,2.81,7.23,2.81-15.49,7,27.88,5.62-4.13,1.41,8.26,4.21-15.49s4.21,22.72,4.21,23.75,1.41,6.2,4.29,12.91,4.14.51,15.38,3.61,7,6.2,9.83,7.23,5.61,6.19,7,9.29,2.81,10.33,4.21,12.39,9.83,7.23,9.83,7.23,7,6.19,8.43,7.23,7,1,8.43,1,4.21,4.13,4.21,4.13l7-22.72,4.22,23.75s0,3.1,2.81,2.07,4.21,2.06,5.61,2.06,5.62,4.13,5.62,4.13,0,9.29,1.41,10.33a92.38,92.38,0,0,1,8.42,8.26c2.81,3.1,0,5.16,4.22,9.29s7,4.13,9.83,6.2,2.81,3.09,4.21,8.26,4.21,3.09,5.62,4.13,4.21,0,7,0,5.62,1,8.43,1,7,4.13,8.43,5.16,1.4,5.16,2.8,7.23,5.62,1,5.62,1,4.22-12.39,4.22-13.42,2.8,14.45,2.8,14.45,7,2.07,7,3.1,5.62,3.1,5.62,4.13,1.4,6.2,2.8,7.23,1.41,4.13,1.41,4.64v3.62a32.07,32.07,0,0,0,4.21,4c1.41.86,0,3.27,0,4.3s2.81,1,7,2.06,5.62,2.07,12.64,5.17,4.22,3.09,9.84,7.22,4.21,1,8.42,0,5.62,1,9.83,3.1,5.62,1,5.62,1l1.41-11.35,5.61,8.26,1.41-4.13,2.81,3.09,2.81-10.32s5.62,16.52,5.15,16,20.13,2.58,25.75,2.58,7,6.2,12.64,10.33,15.45,8.26,18.25,9.29,8.43,1,16.86,2.07,9.83,4.13,19.66,8.26,7,3.09,7,3.09l2.81-6.19,2.81,5.16,4.22-14.45,4.21,17.55,2.81,6.2c1.4,3.09,12.64,3.09,14,3.09s2.81,4.13,3.75,7.65,7.49-1.45,8.89-3.52,7,3.1,12.49,5.68,1.56,1.55.15,3.62,7,4.13,12.64,2.89,8.43,3.3,9.83,4.33,9.84,2.07,15.92,2,6.56-2,18.26-1a67.14,67.14,0,0,1,20.6,5.19s8.43,4.13,9.83,4.13,9.83,1,12.64,1,8.43-1,9.83-2.06,4.22,0,5.62,0,9.83,2.06,9.83,2.06l5.62-13.42,4.21,6.19,4.22-17.55,11.23,17.55,2.81-7.22,4.22,5.16,4.21-10.33s4.21,14.46,5.07,15.83,3.36-3.78,3.36-3.78l2.8,6.54s4.22,0,5.62-1,7-1,11.24-1a22.11,22.11,0,0,1,7,1l4.21-11.36,4.22,7.23,4.21-17.56,8.43,19.62s5.62,3.1,9.91,1.12,14-2.15,22.39,1.69,54.07-9.52,54.07-9.52a102.17,102.17,0,0,0,29.66,3.18c.07,0,16,4.1,19.5,9.21,1.41,2.06-.39,2.29,1.41,6.19,1,2.09,8.4,1.39,8.42,4.13,0,2.07,7.91,4.95,16.86,6.2l4.21-8.26s7,10.32,7.16,10.38c7.84,1.28,13.89,2.82,13.91,5.11l8.35,5.16s-1.47,2.41,0,3.79,6,2.75,5.85,4.13,6.86,4.47,6.86,4.47,2.81,3.1,5.62,4.13,1.41,3.1,11.24,5.16,7-1,11.23,3.1,4.22,8.26,8.43,10.33,1.4,3.09,7,5.16a75.26,75.26,0,0,0,16,4.13c6.47,1,11.76,3.1,15.44,4.13s7.89,2.06,14.91,4.13,9.83,3.1,11.24,4.13,0,3.1,2.81,3.1,12.56,4.13,14.71,5.16.73-1,6.35,3.1,1.41,6.19,8.43,8.26,8.43,3.09,14,4.13,7.13.68,9.89,1.37a10.67,10.67,0,0,0,5.56-.34l1.41-4.13,1.4,1,2.81-8.26,8.43,17.55,4.21-3.09,9.83,14.45,1.41,2.07c1.4,2.06-2.81,4.13,1.4,6.19s5.62,2.07,7,4.13,2.8,4.13,2.8,5.16,2.81,5.17,4.22,5.17,2.81,1,5.62,3.09l5.61,4.13c2.81,2.07,2.81,4.14,4.22,5.17s2.18,2.06,5.3,2.06,1.72-1,4.53,1,1.4,1.6,5.62,3.9a26.06,26.06,0,0,0,12.64,3.32c4.21,0,4.21-1,5.61-1h8.43a9.33,9.33,0,0,0,4.21,3.1c2.81,1,5.62,3.1,7,3.1s7,4.13,7,4.13a5.23,5.23,0,0,1,2.81,1,30.68,30.68,0,0,0,7,4.13c2.81,1,5.62,4.13,5.62,6.19s-5.62.58,0,3.9,7,2.3,12.64,3.33,8,2.63,8.89,3.9,2.35,1.26,2.35,2.3-.32,1,2.65,2,5.46,2.89,7,3.53a20.4,20.4,0,0,1,4.37,2.7c1.4,1,1.09.11,5.46,2.63s7.18,2.53,12.8,2.53,2.81-1,16.85,0,14.36-.5,19.82,1.81,8.27,2.32,8.27,3.35-7,0-1.4,1,8.42,1,11.23,2.07,11.24,1,12.64,2.06,2.81,0,8.43,3.1,2.81,3.1,7,4.13,15.45,5.16,19.67,6.2,9.83,4.13,14,5.16,5.62,4.13,8.43,4.13,1.4-2.07,11.23,1,9.83,4,14,4.59-1.41-.46,7,2.64,4.21,3.1,11.24,5.16,5.61,2.07,7,2.07,12.64-2.07,18.26,0,0,1,5.61,2.06,4.22,1,8.43,2.07a23.73,23.73,0,0,0,8.43,1h9.67c1.56,0,1.56-2.07,10,1l8.43,3.1a13.86,13.86,0,0,0,5.62,1c1.4,0,13.34-9.81,13.34-9.81v8.89l7.72-5.27,4.22,6.19s26.68,8,35.11,9.17,11.7,1.24,16.38,3.26,7.5,5.54,13.11,6.88,19.2,5.47,24.35,6.51,8,0,23.41,4.64,22.47,6.71,28.09,12.91,4.68,7.23,12.17,10.84.47,2.5,18.72,7.7,16.39,2.25,22.94,11.47-6.08,7.64,8,17.21,22.47,13.7,29.5,15.76,11.23,2,18.26,7.18,8.42,9.34,16.85,15.54,11.23,9.29,21.07,13.42,30.57,4.47,34.25,7.92,11.47,11.35,11.78,14.11,0,14.11,0,14.11H10321.39"/><path class="a" d="M5613.24,251.56a13.74,13.74,0,1,0-27.48,0c0,7.59,8.59,18.76,13.74,18.76C5603.51,270.32,5613.24,259.15,5613.24,251.56Z"/><path class="a" d="M5597.78,271.91h3.43a0,0,0,0,1,0,0v2.83a.6.6,0,0,1-.6.6h-2.23a.6.6,0,0,1-.6-.6v-2.83A0,0,0,0,1,5597.78,271.91Z"/><polyline class="a" points="5595.78 264.18 5598.07 272.77 5600.93 272.77 5602.65 264.18"/><path class="a" d="M10306.9,337.89a13.74,13.74,0,1,0-27.47,0c0,7.59,8.58,18.77,13.74,18.77C10297.17,356.66,10306.9,345.48,10306.9,337.89Z"/><path class="a" d="M10291.45,358.25h3.43a0,0,0,0,1,0,0v2.83a.6.6,0,0,1-.6.6h-2.23a.6.6,0,0,1-.6-.6v-2.83A0,0,0,0,1,10291.45,358.25Z"/><polyline class="a" points="10289.45 350.52 10291.74 359.1 10294.6 359.1 10296.32 350.52"/><path class="a" d="M12943.46,389a13.74,13.74,0,0,0-27.48,0c0,7.59,8.59,18.77,13.74,18.77C12933.73,407.77,12943.46,396.59,12943.46,389Z"/><path class="a" d="M12928,409.36h3.43a0,0,0,0,1,0,0v2.83a.6.6,0,0,1-.6.6h-2.23a.6.6,0,0,1-.6-.6v-2.83a0,0,0,0,1,0,0Z"/><polyline class="a" points="12926 401.63 12928.29 410.21 12931.15 410.21 12932.87 401.63"/><path class="a" d="M4295,199a13.74,13.74,0,0,0-27.48,0c0,7.59,8.59,18.77,13.74,18.77C4285.28,217.77,4295,206.59,4295,199Z"/><path class="a" d="M4279.56,219.36H4283a0,0,0,0,1,0,0v2.83a.6.6,0,0,1-.6.6h-2.23a.6.6,0,0,1-.6-.6v-2.83A0,0,0,0,1,4279.56,219.36Z"/><polyline class="a" points="4277.56 211.63 4279.85 220.22 4282.71 220.22 4284.43 211.63"/><path class="a" d="M8557.61,537.8a13.74,13.74,0,1,0-27.48,0c0,7.58,8.59,18.76,13.74,18.76C8547.88,556.56,8557.61,545.38,8557.61,537.8Z"/><path class="a" d="M8542.15,558.15h3.43a0,0,0,0,1,0,0V561a.6.6,0,0,1-.6.6h-2.23a.6.6,0,0,1-.6-.6v-2.83A0,0,0,0,1,8542.15,558.15Z"/><polyline class="a" points="8540.15 550.42 8542.44 559.01 8545.3 559.01 8547.02 550.42"/><path class="a" d="M610.57,810.06a13.74,13.74,0,1,0-27.47,0c0,7.59,8.58,18.76,13.73,18.76C600.84,828.82,610.57,817.65,610.57,810.06Z"/><path class="a" d="M595.12,830.41h3.43a0,0,0,0,1,0,0v2.83a.6.6,0,0,1-.6.6h-2.23a.6.6,0,0,1-.6-.6v-2.83A0,0,0,0,1,595.12,830.41Z"/><polyline class="a" points="593.11 822.68 595.4 831.27 598.26 831.27 599.98 822.68"/><path class="a" d="M1833.24,316.39a13.74,13.74,0,1,0-27.48,0c0,7.59,8.59,18.77,13.74,18.77C1823.51,335.16,1833.24,324,1833.24,316.39Z"/><path class="a" d="M1817.78,336.75h3.43a0,0,0,0,1,0,0v2.83a.6.6,0,0,1-.6.6h-2.23a.6.6,0,0,1-.6-.6v-2.83A0,0,0,0,1,1817.78,336.75Z"/><polyline class="a" points="1815.78 329.02 1818.07 337.6 1820.93 337.6 1822.65 329.02"/><path class="a" d="M14353.57,195.56a13.74,13.74,0,1,0-27.47,0c0,7.59,8.58,18.76,13.73,18.76C14343.84,214.32,14353.57,203.15,14353.57,195.56Z"/><path class="a" d="M14338.12,215.91h3.43a0,0,0,0,1,0,0v2.83a.6.6,0,0,1-.6.6h-2.23a.6.6,0,0,1-.6-.6v-2.83A0,0,0,0,1,14338.12,215.91Z"/><polyline class="a" points="14336.11 208.18 14338.4 216.77 14341.26 216.77 14342.98 208.18"/><path class="b" d="M7624,1009.9l3,3,3.5-1.5s-1.5-3.5-.5-5.5a18.66,18.66,0,0,1,3-4Z"/><path class="b" d="M7652,941.1s3.09-6.18,4.64-6.18,1.54-3.09,9.27-4.64l7.72-1.54-12.87,6.18Z"/><path class="b" d="M7553,1031.1l3-3s4-3,5-2,5.5-.2,5.5-.2h-10Z"/><path class="b" d="M7654,990.9s3,0,3.5-1,3.5-3,4.5-3-2.5,4-2.5,4Z"/><polygon class="b" points="7944.52 782.42 7948.82 768.1 7946.67 779.92 7944.52 782.42"/><polyline class="b" points="7951.93 792.75 7949.78 795.25 7954.07 780.93"/><polyline class="b" points="7980.57 762.67 7978.42 765.18 7982.72 750.86"/><path class="b" d="M9599,596.9l-1,3-3,2-2,6s-1,3-2,3-5,3-5,5,0,6-1,7-3,3-3,5,1,2,1,3a7.56,7.56,0,0,1-1,4,32.08,32.08,0,0,1-3,5c-2,3,0,2-3,5a23.08,23.08,0,0,1-7,5c-2,1-9,3-12,3s-4,1-6,1-7,1-12,2-5-1-8,4-2,6-4,8,.17,1.5-3.92,3.75-5.08,3.25-5.08,2.25,2-6,3-6,6-2,6-3-3,0-1-3,5-3,5-5-2-2,0-3a20,20,0,0,1,9-2c4,0,3,0,7-1s2-1,7-1h8a5.2,5.2,0,0,0,4-2c1-1,3,0,2-2s-2-3-1-3a12.32,12.32,0,0,0,7-2c3-2,4-1,4-2s-1-1,0-3a9,9,0,0,0,1-5c0-2,1-2,1-3s-4-1-1-3,3-2,4-3a4.94,4.94,0,0,0,1-3s-3-2-1-4,6-3,6-4,1-2,2-4,2-2,2-3a8.28,8.28,0,0,1,1.25-4c.75-1,3.75,0,3.75-1A3.49,3.49,0,0,1,9599,596.9Z"/><path class="b" d="M8114,884.32c0,1.21,4.83,8.45,4.83,8.45H8123c1.88,0,9.12,2.42,10.33,3.63s2.41,3.62,9.65,7.24,13.28,2.41,14.49,4.83,1.21,1.2,3.62,7.24,6,6,2.42,13.28-2.42,10.87-1.21,13.28,7.24,2.41,7.24,3.62,1.21,2.42,1.21,7.24,2.41,6,4.83,7.25,4.83,3.62,6,3.62,3.62-2.41,1.2-3.62-2.41-4.83-4.83-7.25l-3.62-3.62c-1.21-1.2,7.25,4.83,0-2.41l-8.45-8.45c-3.62-3.62-2.41-6-1.21-6a2.6,2.6,0,0,0,2.42-2.41,12.1,12.1,0,0,1,1.21-3.62,4.22,4.22,0,0,1-1.21-2.42c0-1.21-1.21-2.41,0-2.41s-3.62,0-2.42-2.42,0-1.2,1.21-3.62,2.42-4.83,3.62-4.83-3.62-2.41-6-2.41h-4.83s-2.42-1.21-2.42-2.42-2.41-2.41-3.62-2.41h-4.83c-1.2,0-7.24-1.21-7.24-2.42a12.21,12.21,0,0,0-1.21-3.62s12.07-2.41,7.25-2.41a93.17,93.17,0,0,1-12.08-1.21h-1.2c-2.42,0-4.83,1.21-4.83,0s0-3.62-3.62-3.62h-6s1.21,0-1.21-2.42Z"/><polygon class="b" points="8020.65 867.07 8024.27 855 8022.46 864.96 8020.65 867.07"/><polyline class="b" points="8051.62 851.39 8050.29 852.93 8052.94 844.08"/><polyline class="b" points="8038.96 858.87 8037.15 860.98 8040.77 848.91"/><path class="b" d="M7850,897c4.3-2.46,14.14-4.92,14.76-4.92a5.32,5.32,0,0,0,3.31-.25l1-.36c3.08-1.23,4.3-2.46,5.53-1.85s4.72,4.14,1.44,3.61-9.7-.7-12.33,0S7850,897,7850,897Z"/><path class="b" d="M8565,757.9v13.66c0,2.34-1,7.34-1,9.34s1,6.55,1,9.78-2,7.22-5,8.22-4,2-3,4-3,6-5,10-4,4-2,4,5-7,8-9-2,2,4-3,9-5,9-5v6.55l5-3.55s-1-4,4-3,8,1,8,0-3-4-8-5a55.5,55.5,0,0,0-7.74-1.11s-.26,4.11-1.26-.89-3.83-4.89-2.41-8.45,4.41-2.55,1.41-9.55-5-4-4-9,3.17-5,2.59-8-4.59-5-4.59-6a10.56,10.56,0,0,0-2-5C8561,745.9,8562,754.9,8565,757.9Z"/><polygon class="b" points="8416.29 868.47 8419.29 858.47 8417.79 866.72 8416.29 868.47"/><polyline class="b" points="8431.46 861.68 8429.96 863.43 8432.96 853.43"/><polygon class="b" points="8600.63 733.36 8603.63 723.36 8602.13 731.61 8600.63 733.36"/><polyline class="b" points="8639.27 724.37 8638.17 725.65 8640.38 718.32"/><polyline class="b" points="8632.79 731.57 8631.29 733.32 8634.29 723.32"/><polygon class="b" points="8680.13 731.36 8683.13 721.36 8681.63 729.61 8680.13 731.36"/><polyline class="b" points="8692.77 726.37 8691.67 727.65 8693.88 720.32"/><polyline class="b" points="8733.29 718.57 8731.79 720.32 8734.79 710.32"/><polyline class="b" points="8676 730.23 8674.9 731.51 8677.1 724.18"/><path class="b" d="M8811,672.9c-5.66,2.83,10,1,11.5-1s2.5-6,3.5-8,3-7,4-7,3-1,5-3,4-5,9-4,13-2,14-3,1.83,2.8,1.83,2.8l4.17-3.8s-12-3-15-3-5,3-7,3-2,3-5,4a21.46,21.46,0,0,0-7,4,21.86,21.86,0,0,0-3,5c-1,2-5,2-6,4s0,3,0,4-2,2-3,2S8813,671.9,8811,672.9Z"/><polygon class="b" points="8889 561.9 8883 577.9 8887 573.9 8889 561.9"/><polyline class="b" points="8887.94 585.87 8886.84 587.15 8889.04 579.82"/><polyline class="b" points="8881.46 593.07 8879.96 594.82 8882.96 584.82"/><path class="b" d="M9911,634.9c1,2,5,4,4,6s2,6,4,7-2,4-1,7,2,6,2,7,9,3,10,5,3,4,3,6-2-1-3-3-2-1-4-2-4-2-6-2-4-3-4-5,1-2,0-5a13.38,13.38,0,0,1-1-5c0-1-5-6-5-4s-1,5-2,8a17.5,17.5,0,0,0-1,5s-4-7-3-7,3-3,4-6-1-3,1-6A11.91,11.91,0,0,0,9911,634.9Z"/><rect class="b" x="8674" y="696.9" width="15" height="2"/><rect class="b" x="8667" y="716.9" width="1" height="3"/><path class="b" d="M7602,987s6-4,7-5,4-6,4-7,7-8,9-9,7-3,8-6,2-9,4-10,13.18-5.56,13.18-5.56S7644,949,7640,950a13.63,13.63,0,0,0-6,3,12.13,12.13,0,0,0-1,5c0,3,1,3-1,5s-3,1-4,3-7,2-8,3-1,4-2,5-1,1-4,6-2,5-5,6A26.39,26.39,0,0,1,7602,987Z"/><path class="b" d="M8191,733s-9.14,2-8,4,20,4.22,16,7.11-37.43,4.92-42.78,6.75C8147,754,8147,789,8147,789l-1-3-1,3-1-1-1,2s-1-41,15-42,36.55-2.66,37-4c1-3-14-5-14-7C8181,736,8187,733,8191,733Z"/><polygon class="b" points="8152 696 8158 714 8160 709 8164 726 8159 715 8157 718 8152 696"/><path class="b" d="M8219,762l4,5h4c1,0,8-1,9-1s5,6,5,6l2,4a49.14,49.14,0,0,1,3.37,5.91A5.9,5.9,0,0,1,8247,784c0,2-2,6-2,8s4,5,4,5l3,4-2,5-2-6s2-1,0-2a13.8,13.8,0,0,1-4-3c-1-1-1-4-1-5s-1.33-5,.83-6-.83-6-1.83-7-4-5-5-6,0-2.67-1.5-3.33-.5-1.67-3.5-.67-4,0-6,1-3,0-4,0-3-2.67-3-2.67Z"/><path class="b" d="M8022,949l-2-6s1-2,2-2,5,0,5-1,3-7,3-7l6-2,7,2s-1.44,3-1.22,4,3.22,4,4.22,5,2.33.78,2.67,1.89S8048,951,8048,951h-4.22a2.59,2.59,0,0,0,1.22-2c0-1,0-3-1-4s-1,0-2-1-2.22-2-3.11-3-2.89,0-1.89-2,5-3,2-4-7-4-7-1-2,5-2,6,3,3,1,4-6,1-6,1-1,0-1,2A2,2,0,0,1,8022,949Z"/><polygon class="b" points="8007.31 843.67 8012.5 826.38 8009.9 840.64 8007.31 843.67"/><polyline class="b" points="7990.8 799.98 7989.48 801.52 7992.13 792.67"/><polyline class="b" points="8033.53 831.92 8030.94 834.95 8036.13 817.66"/><polygon class="b" points="8006.29 934.94 8013.69 910.29 8009.99 930.63 8006.29 934.94"/><polyline class="b" points="8069.52 902.91 8066.81 906.08 8072.24 888"/><polyline class="b" points="8043.68 918.2 8039.98 922.51 8047.38 897.86"/><polygon class="b" points="8010.29 889.02 8013.29 879.02 8011.79 887.27 8010.29 889.02"/><polyline class="b" points="8071.99 957.15 8069.28 960.31 8074.7 942.23"/><polyline class="b" points="8025.46 882.23 8023.96 883.98 8026.96 873.98"/><polygon class="b" points="7766 906.02 7767.8 900.76 7766.9 905.1 7766 906.02"/><polyline class="b" points="7781.38 899.18 7780.72 899.86 7782.04 896"/><polyline class="b" points="7775.1 902.45 7774.2 903.37 7775.99 898.11"/><polygon class="b" points="7679.49 1031.42 7684.13 1015.97 7681.81 1028.71 7679.49 1031.42"/><polyline class="b" points="7719.12 1011.35 7717.42 1013.33 7720.82 1002"/><polyline class="b" points="7702.93 1020.92 7700.61 1023.63 7705.24 1008.18"/><polygon class="b" points="7713.48 997.43 7718.12 981.98 7715.8 994.72 7713.48 997.43"/><polyline class="b" points="7720.67 1045.34 7718.97 1047.32 7722.37 1035.99"/><polygon class="b" points="8089.79 1018.35 8092.79 1008.35 8091.29 1016.6 8089.79 1018.35"/><polyline class="b" points="8115.44 1005.36 8114.34 1006.65 8116.54 999.31"/><polyline class="b" points="8104.96 1011.56 8103.46 1013.31 8106.46 1003.31"/><polygon class="b" points="8111.79 996.35 8114.79 986.35 8113.29 994.6 8111.79 996.35"/><polyline class="b" points="8116.44 1027.36 8115.34 1028.65 8117.54 1021.31"/><polygon class="b" points="8132.79 987.35 8135.79 977.35 8134.29 985.6 8132.79 987.35"/><polyline class="b" points="8158.44 974.36 8157.34 975.65 8159.54 968.31"/><polyline class="b" points="8147.96 980.56 8146.46 982.31 8149.46 972.31"/><polygon class="b" points="8154.79 965.35 8157.79 955.35 8156.29 963.6 8154.79 965.35"/><polyline class="b" points="8159.44 996.36 8158.34 997.65 8160.54 990.31"/><polygon class="b" points="7811.68 974.7 7818.79 951 7815.23 970.56 7811.68 974.7"/><polygon class="b" points="7915.12 958.8 7919.76 943.35 7917.44 956.09 7915.12 958.8"/><polyline class="b" points="7954.76 938.73 7953.06 940.71 7956.45 929.38"/><polyline class="b" points="7938.56 948.3 7936.24 951.01 7940.88 935.56"/><polygon class="b" points="7949.12 924.8 7953.75 909.35 7951.43 922.1 7949.12 924.8"/><polyline class="b" points="7956.3 972.72 7954.6 974.7 7958 963.37"/><polygon class="b" points="7513.63 905.22 7519.31 891.43 7516.47 902.81 7513.63 905.22"/><polygon class="b" points="7553.42 892.81 7559.1 879.02 7556.26 890.4 7553.42 892.81"/><polyline class="b" points="7602.02 874.9 7599.94 876.67 7604.1 866.55"/><polyline class="b" points="7582.16 883.45 7579.31 885.86 7585 872.07"/><polygon class="b" points="7595.1 862.48 7600.79 848.69 7597.95 860.06 7595.1 862.48"/><polyline class="b" points="7603.92 905.23 7601.83 907 7606 896.89"/><polygon class="b" points="8049.71 715.79 8053.33 703.72 8051.52 713.68 8049.71 715.79"/><polygon class="b" points="8075.06 704.93 8078.68 692.86 8076.87 702.82 8075.06 704.93"/><polyline class="b" points="8106.03 689.25 8104.7 690.79 8107.35 681.94"/><polyline class="b" points="8093.37 696.73 8091.56 698.84 8095.18 686.77"/><polygon class="b" points="8101.62 678.37 8105.24 666.3 8103.43 676.26 8101.62 678.37"/><polyline class="b" points="8107.23 715.8 8105.91 717.35 8108.56 708.5"/><path class="b" d="M7905.33,879c-1.33,0-4.75.65-6,.81S7897,880,7897,881s0,3,1,4,0,7,0,8a7.58,7.58,0,0,1-2,4c-1,1,0,1-5,1s-8-2-11-1-13,4-14,4-3,1-5,1-5.33,4-5.33,4a8,8,0,0,0,3.33-1c2-1,2-2,4-2s2-1,4-1a8.46,8.46,0,0,0,4.78-1c2.22-1,2.22-1,3.22-1s2.78,1,1.89,1a22.11,22.11,0,0,0-3.89,1,3.49,3.49,0,0,1-2,1h-4s-3,1-1,1h4c2,0,2,1,4,0s1-1,2-1,2-1,3-1,.44-1,3.22-1,4.22,0,4.22,0,1.56,1-.44,1a10.34,10.34,0,0,0-4,1h2s2,1,3,0,1,0,2-1,.89,0,1.44-1,1.23-2.36,2.89-1.67.67.69,2.67.69,1,0,2-1,1.58-.22,1.29-2.11.29-1.27,0-2.58-.29.69.71-3.31a30.93,30.93,0,0,0,.79-4.78c.21-.22-1.5-2.2-1.5-2.2s.29,1.2,0-.91S7899,881,7900,881s2-1,4-1,2.44-1,3.22-1-.22,0,1.78,0,3,0,3-1,3-1,3-1-5.22-1-6.11,0A5.24,5.24,0,0,1,7905.33,879Z"/><polygon class="b" points="7651.51 909.98 7655.68 896.08 7653.6 907.55 7651.51 909.98"/><polygon class="b" points="7680.71 897.47 7684.88 883.57 7682.79 895.04 7680.71 897.47"/><polyline class="b" points="7716.36 879.41 7714.84 881.19 7717.89 871"/><polyline class="b" points="7701.79 888.03 7699.71 890.46 7703.88 876.56"/><polyline class="b" points="7717.76 909.99 7716.23 911.78 7719.28 901.58"/><polygon class="b" points="8178.03 779.17 8179.44 774.47 8178.74 778.35 8178.03 779.17"/><polygon class="b" points="8187.9 774.94 8189.31 770.25 8188.6 774.12 8187.9 774.94"/><polyline class="b" points="8199.94 768.84 8199.43 769.44 8200.46 766"/><polyline class="b" points="8195.02 771.75 8194.32 772.58 8195.73 767.88"/><polyline class="b" points="8200.41 779.17 8199.9 779.78 8200.93 776.33"/><polyline class="b" points="8249.11 675.03 8248.01 676.31 8250.21 668.98"/><polyline class="b" points="8238.63 681.23 8237.13 682.98 8240.13 672.98"/><polygon class="b" points="8245.46 666.02 8248.46 656.02 8246.96 664.27 8245.46 666.02"/><path class="b" d="M9362.67,749.4l-3,3-3.5-1.5s1.5-3.5.5-5.5a18.66,18.66,0,0,0-3-4Z"/><path class="b" d="M9236.67,690.4s-2-4-3-4-1-2-6-3l-5-1,8.33,4Z"/><path class="b" d="M9433.67,770.6l-3-3s-4-3-5-2-5.5-.2-5.5-.2h10Z"/><path class="b" d="M9332.67,730.4s-3,0-3.5-1-3.5-3-4.5-3,2.5,4,2.5,4Z"/><polygon class="b" points="10160.67 619.4 10157.67 609.4 10159.17 617.65 10160.67 619.4"/><polyline class="b" points="10155.5 626.61 10157 628.36 10154 618.36"/><polyline class="b" points="10135.5 605.61 10137 607.36 10134 597.36"/><path class="b" d="M9950.67,693.4c0,1-4,7-4,7h-3.45c-1.55,0-7.55,2-8.55,3s-2,3-8,6-11,2-12,4-1,1-3,6-5,5-2,11,2,9,1,11-6,2-6,3-1,2-1,6-2,5-4,6-4,3-5,3-3-2-1-3,2-4,4-6l3-3c1-1-6,4,0-2l7-7c3-3,2-5,1-5a2.15,2.15,0,0,1-2-2,10.07,10.07,0,0,0-1-3,3.49,3.49,0,0,0,1-2c0-1,1-2,0-2s3,0,2-2,0-1-1-3-2-4-3-4,3-2,5-2h4s2-1,2-2,2-2,3-2h4c1,0,6-1,6-2a10.07,10.07,0,0,1,1-3s-10-2-6-2a77.21,77.21,0,0,0,10-1h1c2,0,4,1,4,0s0-3,3-3h5s-1,0,1-2Z"/><polygon class="b" points="8938 572.11 8935 562.11 8936.5 570.36 8938 572.11"/><polyline class="b" points="10002.35 666.12 10003.45 667.4 10001.25 660.07"/><polyline class="b" points="10012.83 672.32 10014.33 674.07 10011.33 664.07"/><path class="b" d="M9136.67,592.4c-3-1.72-9.88-3.44-10.31-3.44a3.69,3.69,0,0,1-2.31-.17c-.21-.07-.44-.15-.69-.26-2.15-.85-3-1.71-3.87-1.28s-3.29,2.89-1,2.51a29.19,29.19,0,0,1,8.61,0C9128.94,590.25,9136.67,592.4,9136.67,592.4Z"/><path class="b" d="M9511.67,604.4v13.66c0,2.34,1,7.34,1,9.34s-1,6.55-1,9.78,2,7.22,5,8.22,4,2,3,4,3,6,5,10,4,4,2,4-5-7-8-9,2,2-4-3-9-5-9-5V653l-5-3.55s1-4-4-3-8,1-8,0,3-4,8-5a55.5,55.5,0,0,1,7.73-1.11s.27,4.11,1.27-.89,3.83-4.89,2.41-8.45-4.41-2.55-1.41-9.55,5-4,4-9-3.17-5-2.59-8,4.59-5,4.59-6a10.56,10.56,0,0,1,2-5C9515.67,592.4,9514.67,601.4,9511.67,604.4Z"/><polygon class="b" points="9660.38 714.97 9657.38 704.97 9658.88 713.22 9660.38 714.97"/><polyline class="b" points="9645.21 708.18 9646.71 709.93 9643.71 699.93"/><polygon class="b" points="9476.04 579.86 9473.04 569.86 9474.54 578.11 9476.04 579.86"/><polyline class="b" points="9437.39 570.87 9438.49 572.15 9436.29 564.82"/><polyline class="b" points="9443.88 578.07 9445.38 579.82 9442.38 569.82"/><polygon class="b" points="9396.54 577.86 9393.54 567.86 9395.04 576.11 9396.54 577.86"/><polyline class="b" points="9383.89 572.87 9384.99 574.15 9382.79 566.82"/><polyline class="b" points="9343.38 565.07 9344.88 566.82 9341.88 556.82"/><polyline class="b" points="9400.67 576.73 9401.77 578.01 9399.57 570.68"/><path class="b" d="M9265.67,519.4c5.65,2.83-10,1-11.5-1s-2.5-6-3.5-8-3-7-4-7-3-1-5-3-4-5-9-4-13-2-14-3-1.84,2.8-1.84,2.8l-4.16-3.8s12-3,15-3,5,3,7,3,2,3,5,4a21.46,21.46,0,0,1,7,4,21.86,21.86,0,0,1,3,5c1,2,5,2,6,4s0,3,0,4,2,2,3,2S9263.67,518.4,9265.67,519.4Z"/><polygon class="b" points="9187.67 408.4 9193.67 424.4 9189.67 420.4 9187.67 408.4"/><polyline class="b" points="9188.73 432.37 9189.83 433.65 9187.63 426.31"/><polyline class="b" points="9195.21 439.56 9196.71 441.31 9193.71 431.31"/><rect class="b" x="9387.67" y="543.4" width="15" height="2" transform="translate(18790.33 1088.8) rotate(-180)"/><rect class="b" x="9408.67" y="563.4" width="1" height="3" transform="translate(18818.33 1129.8) rotate(-180)"/><path class="b" d="M9369.67,673.5s-6-4-7-5-4-6-4-7-7-8-9-9-7-3-8-6-2-9-4-10-13.18-5.56-13.18-5.56,3.18,4.56,7.18,5.56a13.63,13.63,0,0,1,6,3,12.13,12.13,0,0,1,1,5c0,3-1,3,1,5s3,1,4,3,7,2,8,3,1,4,2,5,1,1,4,6,2,5,5,6A26.39,26.39,0,0,0,9369.67,673.5Z"/><path class="b" d="M9885.67,579.5s9.14,2,8,4-20,4.22-16,7.11,37.43,4.92,42.77,6.75c9.23,3.14,9.23,38.14,9.23,38.14l1-3,1,3,1-1,1,2s1-41-15-42-36.56-2.66-37-4c-1-3,14-5,14-7C9895.67,582.5,9889.67,579.5,9885.67,579.5Z"/><polygon class="b" points="9924.67 542.5 9918.67 560.5 9916.67 555.5 9912.67 572.5 9917.67 561.5 9919.67 564.5 9924.67 542.5"/><path class="b" d="M9857.67,608.5l-4,5h-4c-1,0-8-1-9-1s-5,6-5,6l-2,4a50.11,50.11,0,0,0-3.38,5.91,6.06,6.06,0,0,0-.62,2.09c0,2,2,6,2,8s-4,5-4,5l-3,4,2,5,2-6s-2-1,0-2a13.8,13.8,0,0,0,4-3c1-1,1-4,1-5s1.33-5-.84-6,.84-6,1.84-7,4-5,5-6,0-2.67,1.5-3.33.5-1.67,3.5-.67,4,0,6,1,3,0,4,0,3-2.67,3-2.67Z"/><path class="b" d="M8964.67,688.5l2-6s-1-2-2-2-5,0-5-1-3-7-3-7l-6-2-7,2s1.44,3,1.22,4-3.22,4-4.22,5-2.34.78-2.67,1.89.67,7.11.67,7.11h4.22a2.59,2.59,0,0,1-1.22-2c0-1,0-3,1-4s1,0,2-1,2.22-2,3.11-3,2.89,0,1.89-2-5-3-2-4,7-4,7-1,2,5,2,6-3,3-1,4,6,1,6,1,1,0,1,2A2,2,0,0,0,8964.67,688.5Z"/><polygon class="b" points="10078.38 636.52 10075.38 626.52 10076.88 634.77 10078.38 636.52"/><polyline class="b" points="10052.73 623.53 10053.83 624.81 10051.63 617.48"/><polyline class="b" points="10063.21 629.73 10064.71 631.48 10061.71 621.48"/><polygon class="b" points="8998.38 650.52 8995.38 640.52 8996.88 648.77 8998.38 650.52"/><polyline class="b" points="8972.73 637.53 8973.83 638.81 8971.63 631.48"/><polyline class="b" points="8983.21 643.73 8984.71 645.48 8981.71 635.48"/><polygon class="b" points="8976.38 628.52 8973.38 618.52 8974.88 626.77 8976.38 628.52"/><polyline class="b" points="8971.73 659.53 8972.83 660.81 8970.63 653.48"/><polyline class="b" points="8961.21 621.73 8962.71 623.48 8959.71 613.48"/><polygon class="b" points="9220.67 645.52 9218.87 640.26 9219.77 644.6 9220.67 645.52"/><polyline class="b" points="9205.28 638.68 9205.94 639.36 9204.63 635.5"/><polyline class="b" points="9211.57 641.95 9212.47 642.87 9210.67 637.61"/><polygon class="b" points="9218.88 748.85 9215.88 738.85 9217.38 747.1 9218.88 748.85"/><polyline class="b" points="9193.23 735.86 9194.33 737.15 9192.13 729.81"/><polyline class="b" points="9203.71 742.06 9205.21 743.81 9202.21 733.81"/><polygon class="b" points="9196.88 726.85 9193.88 716.85 9195.38 725.1 9196.88 726.85"/><polyline class="b" points="9192.23 757.86 9193.33 759.15 9191.13 751.81"/><polygon class="b" points="9986.88 864.85 9983.88 854.85 9985.38 863.1 9986.88 864.85"/><polyline class="b" points="9961.23 851.86 9962.33 853.15 9960.13 845.81"/><polyline class="b" points="9971.71 858.06 9973.21 859.81 9970.21 849.81"/><polygon class="b" points="9964.88 842.85 9961.88 832.85 9963.38 841.1 9964.88 842.85"/><polyline class="b" points="9960.23 873.86 9961.33 875.15 9959.13 867.81"/><polygon class="b" points="9943.88 833.85 9940.88 823.85 9942.38 832.1 9943.88 833.85"/><polyline class="b" points="9918.23 820.86 9919.33 822.15 9917.13 814.81"/><polyline class="b" points="9928.71 827.06 9930.21 828.81 9927.21 818.81"/><polygon class="b" points="9921.88 811.85 9918.88 801.85 9920.38 810.1 9921.88 811.85"/><polyline class="b" points="9917.23 842.86 9918.33 844.15 9916.13 836.81"/><polygon class="b" points="9087.38 710.85 9084.38 700.85 9085.88 709.1 9087.38 710.85"/><polygon class="b" points="9066.38 701.85 9063.38 691.85 9064.88 700.1 9066.38 701.85"/><polyline class="b" points="9040.73 688.86 9041.83 690.15 9039.63 682.81"/><polyline class="b" points="9051.21 695.06 9052.71 696.81 9049.71 686.81"/><polygon class="b" points="9044.38 679.85 9041.38 669.85 9042.88 678.1 9044.38 679.85"/><polyline class="b" points="9039.73 710.86 9040.83 712.15 9038.63 704.81"/><polygon class="b" points="9445.04 644.19 9442.04 634.19 9443.54 642.44 9445.04 644.19"/><polygon class="b" points="9424.04 635.19 9421.04 625.19 9422.54 633.44 9424.04 635.19"/><polyline class="b" points="9398.39 622.2 9399.49 623.48 9397.29 616.15"/><polyline class="b" points="9408.88 628.4 9410.38 630.15 9407.38 620.15"/><polygon class="b" points="9402.04 613.19 9399.04 603.19 9400.54 611.44 9402.04 613.19"/><polyline class="b" points="9397.39 644.2 9398.49 645.48 9396.29 638.15"/><polygon class="b" points="10003.93 553.8 10000.93 543.8 10002.43 552.05 10003.93 553.8"/><polygon class="b" points="9982.93 544.8 9979.93 534.8 9981.43 543.05 9982.93 544.8"/><polyline class="b" points="9957.28 531.81 9958.38 533.09 9956.18 525.76"/><polyline class="b" points="9967.76 538.01 9969.26 539.76 9966.26 529.76"/><polygon class="b" points="9960.93 522.8 9957.93 512.8 9959.43 521.05 9960.93 522.8"/><polyline class="b" points="9956.28 553.81 9957.38 555.09 9955.18 547.76"/><path class="b" d="M9081.33,618.52c1.34,0,4.75.65,6,.81s2.3.17,2.3,1.17,0,3-1,4,0,7,0,8a7.58,7.58,0,0,0,2,4c1,1,0,1,5,1s8-2,11-1,13,4,14,4,3,1,5,1,5.33,4,5.33,4a8,8,0,0,1-3.33-1c-2-1-2-2-4-2s-2-1-4-1a8.46,8.46,0,0,1-4.78-1c-2.22-1-2.22-1-3.22-1s-2.78,1-1.89,1a22.11,22.11,0,0,1,3.89,1,3.49,3.49,0,0,0,2,1h4s3,1,1,1h-4c-2,0-2,1-4,0s-1-1-2-1-2-1-3-1-.45-1-3.23-1-4.22,0-4.22,0-1.55,1,.45,1a10.34,10.34,0,0,1,4,1h-2s-2,1-3,0-1,0-2-1-.89,0-1.45-1-1.22-2.35-2.89-1.67-.66.69-2.66.69-1,0-2-1-1.59-.22-1.3-2.11-.29-1.26,0-2.58.3.69-.7-3.31a32.52,32.52,0,0,1-.8-4.78c-.2-.22,1.5-2.2,1.5-2.2s-.29,1.2,0-.91.3-2.11-.7-2.11-2-1-4-1-2.45-1-3.23-1,.23,0-1.77,0-3,0-3-1-3-1-3-1,5.22-1,6.11,0A5.24,5.24,0,0,0,9081.33,618.52Z"/><polygon class="b" points="9335.15 650.72 9333.85 646.36 9334.5 649.95 9335.15 650.72"/><polygon class="b" points="9326 646.79 9324.7 642.44 9325.35 646.03 9326 646.79"/><polyline class="b" points="9314.83 641.13 9315.31 641.69 9314.35 638.5"/><polyline class="b" points="9319.4 643.84 9320.05 644.6 9318.75 640.24"/><polyline class="b" points="9314.4 650.72 9314.88 651.28 9313.92 648.08"/><polygon class="b" points="9898.63 625.67 9897.23 620.97 9897.93 624.85 9898.63 625.67"/><polygon class="b" points="9888.77 621.44 9887.36 616.75 9888.07 620.62 9888.77 621.44"/><polyline class="b" points="9876.72 615.34 9877.24 615.94 9876.21 612.5"/><polyline class="b" points="9881.65 618.25 9882.35 619.08 9880.94 614.38"/><polyline class="b" points="9876.25 625.67 9876.77 626.28 9875.74 622.83"/><polyline class="b" points="9827.56 521.53 9828.66 522.81 9826.46 515.48"/><polyline class="b" points="9838.04 527.73 9839.54 529.48 9836.54 519.48"/><polygon class="b" points="9831.21 512.52 9828.21 502.52 9829.71 510.77 9831.21 512.52"/><path class="b" d="M9801.69,751l-1,3-3,2-2,6s-1,3-2,3-5,3-5,5,0,6-1,7-3,3-3,5,1,2,1,3a7.56,7.56,0,0,1-1,4,32.08,32.08,0,0,1-3,5c-2,3,0,2-3,5a23.08,23.08,0,0,1-7,5c-2,1-9,3-12,3s-4,1-6,1-7,1-12,2-5-1-8,4-2,6-4,8,.16,1.5-3.92,3.75-5.08,3.25-5.08,2.25,2-6,3-6,6-2,6-3-3,0-1-3,5-3,5-5-2-2,0-3a20,20,0,0,1,9-2c4,0,3,0,7-1s2-1,7-1h8a5.2,5.2,0,0,0,4-2c1-1,3,0,2-2s-2-3-1-3a12.32,12.32,0,0,0,7-2c3-2,4-1,4-2s-1-1,0-3a9,9,0,0,0,1-5c0-2,1-2,1-3s-4-1-1-3,3-2,4-3a4.94,4.94,0,0,0,1-3s-3-2-1-4,6-3,6-4,1-2,2-4,2-2,2-3a8.28,8.28,0,0,1,1.25-4c.75-1,3.75,0,3.75-1A3.49,3.49,0,0,1,9801.69,751Z"/><path class="b" d="M9714.35,758.54V772.2c0,2.34,1,7.34,1,9.34s-1,6.55-1,9.78,2,7.22,5,8.22,4,2,3,4,3,6,5,10,4,4,2,4-5-7-8-9,2,2-4-3-9-5-9-5v6.55l-5-3.55s1-4-4-3-8,1-8,0,3-4,8-5a55.5,55.5,0,0,1,7.74-1.11s.26,4.11,1.26-.89,3.83-4.89,2.42-8.45-4.42-2.55-1.42-9.55,5-4,4-9-3.17-5-2.58-8,4.58-5,4.58-6a10.56,10.56,0,0,1,2-5C9718.35,746.54,9717.35,755.54,9714.35,758.54Z"/><polygon class="b" points="9678.73 734 9675.73 724 9677.23 732.25 9678.73 734"/><polyline class="b" points="9640.08 725.01 9641.18 726.29 9638.98 718.96"/><polyline class="b" points="9646.56 732.21 9648.06 733.96 9645.06 723.96"/><polygon class="b" points="9647.73 798.33 9644.73 788.33 9646.23 796.58 9647.73 798.33"/><path class="b" d="M8170.22,1000.17c-2.22.83-6.22,6.54-8.22,8.18s-6.14,3-7.07,7.32,2.73,1.88-2.6,6.11-14.75,6.78-16.54,9-7.79,6.33-9.79,9.78-3.78,3.8-6.89,6.12-17.63,7.28-20.37,8.3-6.73,5.78-7.73,7.9-4.68,8.93-4.34,12.52,1,21.6.68,23.6-1.06,6.81-.7,8.41,1.57,4.95,1.57,4.95S8091,1100,8091,1099s.74-2-.64-6-.07-7.33-1.22-8.67.6-8.52,1.22-8.93.21-2.4.92-4.4.48-1.12,5.6-6.56,3.51-6.65,6.31-7.55,3.62.07,6.71-1.91,5.17-2.1,7.63-3.54,1.89,0,4.18-1.22,5.05-1.64,6.67-3.93S8130,1045,8131,1042s-.42-3.07,1.79-5.53a44.52,44.52,0,0,1,5.29-4.58c.92-.89-.26-1.56,2.83-2.22s4-.38,5.55-1,6.4,1.13,8.47-1.76,1.65-1.89,2.86-3.89,2.29-3.11,2.75-5.56-1.46-2.82,0-4.13-.65-2,1.46-3.31,4-5,4-5l4-4"/><path class="b" d="M13088.67,877.52s-2-4-3-4-1-2-6-3l-5-1,8.33,4Z"/><polygon class="b" points="12922.67 699.52 12919.67 689.52 12921.17 697.77 12922.67 699.52"/><polyline class="b" points="12917.5 706.73 12919 708.48 12916 698.48"/><polyline class="b" points="12897.5 685.73 12899 687.48 12896 677.48"/><path class="b" d="M11226.67,767.52l1,3,3,2,2,6s1,3,2,3,5,3,5,5,0,6,1,7,3,3,3,5-1,2-1,3a7.56,7.56,0,0,0,1,4,32.08,32.08,0,0,0,3,5c2,3,0,2,3,5a23.08,23.08,0,0,0,7,5c2,1,9,3,12,3s4,1,6,1,7,1,12,2,5-1,8,4,2,6,4,8-.17,1.5,3.91,3.75,5.09,3.25,5.09,2.25-2-6-3-6-6-2-6-3,3,0,1-3-5-3-5-5,2-2,0-3a20,20,0,0,0-9-2c-4,0-3,0-7-1s-2-1-7-1h-8a5.2,5.2,0,0,1-4-2c-1-1-3,0-2-2s2-3,1-3a12.32,12.32,0,0,1-7-2c-3-2-4-1-4-2s1-1,0-3a9,9,0,0,1-1-5c0-2-1-2-1-3s4-1,1-3-3-2-4-3a4.94,4.94,0,0,1-1-3s3-2,1-4-6-3-6-4-1-2-2-4-2-2-2-3a8.28,8.28,0,0,0-1.25-4c-.75-1-3.75,0-3.75-1A3.49,3.49,0,0,0,11226.67,767.52Z"/><path class="b" d="M12712.67,773.52c0,1-4,7-4,7h-3.45c-1.55,0-7.55,2-8.55,3s-2,3-8,6-11,2-12,4-1,1-3,6-5,5-2,11,2,9,1,11-6,2-6,3-1,2-1,6-2,5-4,6-4,3-5,3-3-2-1-3,2-4,4-6l3-3c1-1-6,4,0-2l7-7c3-3,2-5,1-5a2.15,2.15,0,0,1-2-2,10.07,10.07,0,0,0-1-3,3.49,3.49,0,0,0,1-2c0-1,1-2,0-2s3,0,2-2,0-1-1-3-2-4-3-4,3-2,5-2h4s2-1,2-2,2-2,3-2h4c1,0,6-1,6-2a10.07,10.07,0,0,1,1-3s-10-2-6-2a77.21,77.21,0,0,0,10-1h1c2,0,4,1,4,0s0-3,3-3h5s-1,0,1-2Z"/><polygon class="b" points="12790 759.23 12787 749.23 12788.5 757.48 12790 759.23"/><polyline class="b" points="12764.35 746.23 12765.45 747.52 12763.25 740.18"/><polyline class="b" points="12774.83 752.43 12776.33 754.18 12773.33 744.18"/><path class="b" d="M12988.67,779.52c-3-1.72-9.88-3.44-10.31-3.44a3.69,3.69,0,0,1-2.31-.17l-.69-.26c-2.15-.86-3-1.71-3.87-1.28s-3.29,2.89-1,2.51a29.19,29.19,0,0,1,8.61,0C12980.94,777.37,12988.67,779.52,12988.67,779.52Z"/><path class="b" d="M12273.67,684.52v13.66c0,2.34,1,7.34,1,9.34s-1,6.55-1,9.77,2,7.23,5,8.23,4,2,3,4,3,6,5,10,4,4,2,4-5-7-8-9,2,2-4-3-9-5-9-5v6.55l-5-3.55s1-4-4-3-8,1-8,0,3-4,8-5a55.5,55.5,0,0,1,7.73-1.11s.27,4.11,1.27-.89,3.83-4.89,2.41-8.45-4.41-2.55-1.41-9.55,5-4,4-9-3.17-5-2.59-8,4.59-5,4.59-6a10.56,10.56,0,0,1,2-5C12277.67,672.52,12276.67,681.52,12273.67,684.52Z"/><polygon class="b" points="12422.38 795.09 12419.38 785.09 12420.88 793.34 12422.38 795.09"/><polyline class="b" points="12407.21 788.3 12408.71 790.05 12405.71 780.05"/><polygon class="b" points="12238.04 659.98 12235.04 649.98 12236.54 658.23 12238.04 659.98"/><polyline class="b" points="12199.39 650.99 12200.49 652.27 12198.29 644.94"/><polyline class="b" points="12205.88 658.19 12207.38 659.94 12204.38 649.94"/><polygon class="b" points="12158.54 657.98 12155.54 647.98 12157.04 656.23 12158.54 657.98"/><polyline class="b" points="12145.89 652.99 12146.99 654.27 12144.79 646.94"/><polyline class="b" points="12105.38 645.19 12106.88 646.94 12103.88 636.94"/><polyline class="b" points="12162.67 656.85 12163.77 658.13 12161.57 650.79"/><path class="b" d="M12027.67,599.52c5.65,2.83-10,1-11.5-1s-2.5-6-3.5-8-3-7-4-7-3-1-5-3-4-5-9-4-13-2-14-3-1.84,2.8-1.84,2.8l-4.16-3.8s12-3,15-3,5,3,7,3,2,3,5,4a21.46,21.46,0,0,1,7,4,21.86,21.86,0,0,1,3,5c1,2,5,2,6,4s0,3,0,4,2,2,3,2S12025.67,598.52,12027.67,599.52Z"/><polygon class="b" points="11949.67 488.52 11955.67 504.52 11951.67 500.52 11949.67 488.52"/><polyline class="b" points="11950.73 512.48 11951.83 513.77 11949.63 506.43"/><polyline class="b" points="11957.21 519.68 11958.71 521.43 11955.71 511.43"/><path class="b" d="M10927.67,561.52c-1,2-5,4-4,6s-2,6-4,7,2,4,1,7-2,6-2,7-9,3-10,5-3,4-3,6,2-1,3-3,2-1,4-2,4-2,6-2,4-3,4-5-1-2,0-5a13.38,13.38,0,0,0,1-5c0-1,5-6,5-4s1,5,2,8a17.5,17.5,0,0,1,1,5s4-7,3-7-3-3-4-6,1-3-1-6A11.91,11.91,0,0,1,10927.67,561.52Z"/><rect class="b" x="12149.67" y="623.52" width="15" height="2" transform="translate(24314.33 1249.03) rotate(-180)"/><rect class="b" x="12170.67" y="643.52" width="1" height="3" transform="translate(24342.33 1290.03) rotate(-180)"/><path class="b" d="M12327,862s9.14,2,8,4-20,4.22-16,7.11,37.43,4.92,42.78,6.75C12371,883,12371,918,12371,918l1-3,1,3,1-1,1,2s1-41-15-42-36.55-2.66-37-4c-1-3,14-5,14-7C12337,865,12331,862,12327,862Z"/><polygon class="b" points="12366 825 12360 843 12358 838 12354 855 12359 844 12361 847 12366 825"/><path class="b" d="M12299,891l-4,5h-4c-1,0-8-1-9-1s-5,6-5,6l-2,4a49.14,49.14,0,0,0-3.37,5.91,5.9,5.9,0,0,0-.63,2.09c0,2,2,6,2,8s-4,5-4,5l-3,4,2,5,2-6s-2-1,0-2a13.8,13.8,0,0,0,4-3c1-1,1-4,1-5s1.33-5-.83-6,.83-6,1.83-7,4-5,5-6,0-2.67,1.5-3.33.5-1.67,3.5-.67,4,0,6,1,3,0,4,0,3-2.67,3-2.67Z"/><path class="b" d="M12816.67,875.62l2-6s-1-2-2-2-5,0-5-1-3-7-3-7l-6-2-7,2s1.44,3,1.22,4-3.22,4-4.22,5-2.34.78-2.67,1.89.67,7.11.67,7.11h4.22a2.59,2.59,0,0,1-1.22-2c0-1,0-3,1-4s1,0,2-1,2.22-2,3.11-3,2.89,0,1.89-2-5-3-2-4,7-4,7-1,2,5,2,6-3,3-1,4,6,1,6,1,1,0,1,2A2,2,0,0,0,12816.67,875.62Z"/><polygon class="b" points="12840.38 716.64 12837.38 706.64 12838.88 714.89 12840.38 716.64"/><polyline class="b" points="12494.06 906.03 12495.16 907.31 12492.96 899.98"/><polyline class="b" points="12504.54 912.23 12506.04 913.98 12503.04 903.98"/><polygon class="b" points="12850.38 837.64 12847.38 827.64 12848.88 835.89 12850.38 837.64"/><polyline class="b" points="12824.73 824.65 12825.83 825.93 12823.63 818.6"/><polyline class="b" points="12835.21 830.85 12836.71 832.6 12833.71 822.6"/><polygon class="b" points="12828.38 815.64 12825.38 805.64 12826.88 813.89 12828.38 815.64"/><polyline class="b" points="12823.73 846.65 12824.83 847.93 12822.63 840.6"/><polyline class="b" points="12813.21 808.85 12814.71 810.6 12811.71 800.6"/><polygon class="b" points="13072.67 832.64 13070.87 827.38 13071.77 831.72 13072.67 832.64"/><polyline class="b" points="13057.28 825.8 13057.94 826.48 13056.63 822.62"/><polyline class="b" points="13063.57 829.07 13064.47 829.99 13062.67 824.72"/><polygon class="b" points="13070.88 935.97 13067.88 925.97 13069.38 934.22 13070.88 935.97"/><polyline class="b" points="13045.23 922.98 13046.33 924.26 13044.13 916.93"/><polyline class="b" points="13055.71 929.18 13057.21 930.93 13054.21 920.93"/><polygon class="b" points="13048.88 913.97 13045.88 903.97 13047.38 912.22 13048.88 913.97"/><polyline class="b" points="13044.23 944.98 13045.33 946.26 13043.13 938.93"/><polygon class="b" points="12748.88 944.97 12745.88 934.97 12747.38 943.22 12748.88 944.97"/><polyline class="b" points="12723.23 931.98 12724.33 933.26 12722.13 925.93"/><polyline class="b" points="12733.71 938.18 12735.21 939.93 12732.21 929.93"/><polygon class="b" points="12726.88 922.97 12723.88 912.97 12725.38 921.22 12726.88 922.97"/><polyline class="b" points="12722.23 953.98 12723.33 955.26 12721.13 947.93"/><polygon class="b" points="12705.88 913.97 12702.88 903.97 12704.38 912.22 12705.88 913.97"/><polyline class="b" points="12680.23 900.98 12681.33 902.26 12679.13 894.93"/><polyline class="b" points="12690.71 907.18 12692.21 908.93 12689.21 898.93"/><polygon class="b" points="12683.88 891.97 12680.88 881.97 12682.38 890.22 12683.88 891.97"/><polyline class="b" points="12679.23 922.98 12680.33 924.26 12678.13 916.93"/><polygon class="b" points="12939.38 897.97 12936.38 887.97 12937.88 896.22 12939.38 897.97"/><polygon class="b" points="12918.38 888.97 12915.38 878.97 12916.88 887.22 12918.38 888.97"/><polyline class="b" points="12892.73 875.98 12893.83 877.26 12891.63 869.93"/><polyline class="b" points="12903.21 882.18 12904.71 883.93 12901.71 873.93"/><polygon class="b" points="12896.38 866.97 12893.38 856.97 12894.88 865.22 12896.38 866.97"/><polyline class="b" points="12891.73 897.98 12892.83 899.26 12890.63 891.93"/><polygon class="b" points="12445.26 836.3 12442.26 826.3 12443.76 834.55 12445.26 836.3"/><polygon class="b" points="12424.26 827.3 12421.26 817.3 12422.76 825.55 12424.26 827.3"/><polyline class="b" points="12398.61 814.31 12399.71 815.59 12397.51 808.26"/><polyline class="b" points="12409.1 820.51 12410.6 822.26 12407.6 812.26"/><polygon class="b" points="12402.26 805.3 12399.26 795.3 12400.76 803.55 12402.26 805.3"/><polyline class="b" points="12397.61 836.31 12398.71 837.59 12396.51 830.26"/><path class="b" d="M12933.33,805.64c1.34,0,4.75.65,6,.81s2.3.17,2.3,1.17,0,3-1,4,0,7,0,8a7.58,7.58,0,0,0,2,4c1,1,0,1,5,1s8-2,11-1,13,4,14,4,3,1,5,1,5.33,4,5.33,4a8,8,0,0,1-3.33-1c-2-1-2-2-4-2s-2-1-4-1a8.46,8.46,0,0,1-4.78-1c-2.22-1-2.22-1-3.22-1s-2.78,1-1.89,1a22.11,22.11,0,0,1,3.89,1,3.49,3.49,0,0,0,2,1h4s3,1,1,1h-4c-2,0-2,1-4,0s-1-1-2-1-2-1-3-1-.45-1-3.23-1-4.22,0-4.22,0-1.55,1,.45,1a10.34,10.34,0,0,1,4,1h-2s-2,1-3,0-1,0-2-1-.89,0-1.45-1-1.22-2.36-2.89-1.67-.66.69-2.66.69-1,0-2-1-1.59-.22-1.3-2.11-.29-1.27,0-2.58.3.69-.7-3.31a32.52,32.52,0,0,1-.8-4.78c-.2-.22,1.5-2.2,1.5-2.2s-.29,1.2,0-.91.3-2.11-.7-2.11-2-1-4-1-2.45-1-3.23-1,.23,0-1.77,0-3,0-3-1-3-1-3-1,5.22-1,6.11,0A5.24,5.24,0,0,0,12933.33,805.64Z"/><polygon class="b" points="12339.97 908.17 12338.56 903.47 12339.26 907.35 12339.97 908.17"/><polygon class="b" points="12330.1 903.94 12328.69 899.25 12329.4 903.12 12330.1 903.94"/><polyline class="b" points="12318.06 897.84 12318.57 898.44 12317.54 895"/><polyline class="b" points="12322.98 900.75 12323.68 901.58 12322.27 896.88"/><polyline class="b" points="12317.59 908.17 12318.1 908.78 12317.07 905.33"/><polyline class="b" points="12268.89 804.03 12269.99 805.31 12267.79 797.98"/><polyline class="b" points="12279.38 810.23 12280.88 811.98 12277.88 801.98"/><polygon class="b" points="12272.54 795.02 12269.54 785.02 12271.04 793.27 12272.54 795.02"/><path class="b" d="M11476,676l3,3,3.5-1.5s-1.5-3.5-.5-5.5a18.66,18.66,0,0,1,3-4Z"/><path class="b" d="M11602,617s2-4,3-4,1-2,6-3l5-1-8.33,4Z"/><path class="b" d="M11405,697.22l3-3s4-3,5-2,5.5-.2,5.5-.2h-10Z"/><path class="b" d="M11506,657s3,0,3.5-1,3.5-3,4.5-3-2.5,4-2.5,4Z"/><polygon class="b" points="10678 546.02 10681 536.02 10679.5 544.27 10678 546.02"/><polyline class="b" points="10683.17 553.23 10681.67 554.98 10684.67 544.98"/><polyline class="b" points="10703.17 532.23 10701.67 533.98 10704.67 523.98"/><path class="b" d="M10888,620c0,1,4,7,4,7h3.44c1.56,0,7.56,2,8.56,3s2,3,8,6,11,2,12,4,1,1,3,6,5,5,2,11-2,9-1,11,6,2,6,3,1,2,1,6,2,5,4,6,4,3,5,3,3-2,1-3-2-4-4-6l-3-3c-1-1,6,4,0-2l-7-7c-3-3-2-5-1-5a2.15,2.15,0,0,0,2-2,10.07,10.07,0,0,1,1-3,3.49,3.49,0,0,1-1-2c0-1-1-2,0-2s-3,0-2-2,0-1,1-3,2-4,3-4-3-2-5-2h-4s-2-1-2-2-2-2-3-2h-4c-1,0-6-1-6-2a10.07,10.07,0,0,0-1-3s10-2,6-2a77.21,77.21,0,0,1-10-1h-1c-2,0-4,1-4,0s0-3-3-3h-5s1,0-1-2Z"/><polygon class="b" points="11900.67 498.73 11903.67 488.73 11902.17 496.98 11900.67 498.73"/><polyline class="b" points="10836.32 592.73 10835.22 594.02 10837.42 586.68"/><polyline class="b" points="10825.83 598.93 10824.33 600.68 10827.33 590.68"/><path class="b" d="M11689,763c3-1.72,9.87-3.44,10.3-3.44a3.72,3.72,0,0,0,2.32-.17l.69-.26c2.15-.86,3-1.71,3.86-1.28s3.29,2.89,1,2.51a29.12,29.12,0,0,0-8.6,0C11696.73,760.87,11689,763,11689,763Z"/><path class="b" d="M11314,775v13.66c0,2.34-1,7.34-1,9.34s1,6.55,1,9.77-2,7.23-5,8.23-4,2-3,4-3,6-5,10-4,4-2,4,5-7,8-9-2,2,4-3,9-5,9-5v6.55l5-3.55s-1-4,4-3,8,1,8,0-3-4-8-5a55.5,55.5,0,0,0-7.74-1.11s-.26,4.11-1.26-.89-3.83-4.89-2.41-8.45S11322,799,11319,792s-5-4-4-9,3.17-5,2.59-8-4.59-5-4.59-6a10.56,10.56,0,0,0-2-5C11310,763,11311,772,11314,775Z"/><polygon class="b" points="11178.29 641.59 11181.29 631.59 11179.79 639.84 11178.29 641.59"/><polyline class="b" points="11193.46 634.8 11191.96 636.55 11194.96 626.55"/><polygon class="b" points="11349.63 750.48 11352.63 740.48 11351.13 748.73 11349.63 750.48"/><polyline class="b" points="11388.27 741.49 11387.17 742.77 11389.38 735.44"/><polyline class="b" points="11381.79 748.69 11380.29 750.44 11383.29 740.44"/><polygon class="b" points="11429.13 748.48 11432.13 738.48 11430.63 746.73 11429.13 748.48"/><polyline class="b" points="11441.77 743.49 11440.67 744.77 11442.88 737.44"/><polyline class="b" points="11482.29 735.69 11480.79 737.44 11483.79 727.44"/><polyline class="b" points="11425 747.35 11423.9 748.63 11426.1 741.29"/><path class="b" d="M11560,690c-5.66,2.83,10,1,11.5-1s2.5-6,3.5-8,3-7,4-7,3-1,5-3,4-5,9-4,13-2,14-3,1.83,2.8,1.83,2.8l4.17-3.8s-12-3-15-3-5,3-7,3-2,3-5,4a21.46,21.46,0,0,0-7,4,21.86,21.86,0,0,0-3,5c-1,2-5,2-6,4s0,3,0,4-2,2-3,2S11562,689,11560,690Z"/><polygon class="b" points="11638 579.02 11632 595.02 11636 591.02 11638 579.02"/><polyline class="b" points="11636.94 602.98 11635.84 604.27 11638.04 596.93"/><polyline class="b" points="11630.46 610.18 11628.96 611.93 11631.96 601.93"/><rect class="b" x="11423" y="714.02" width="15" height="2"/><rect class="b" x="11416" y="734.02" width="1" height="3"/><path class="b" d="M11469,600.12s6-4,7-5,4-6,4-7,7-8,9-9,7-3,8-6,2-9,4-10,13.18-5.56,13.18-5.56-3.18,4.56-7.18,5.56a13.63,13.63,0,0,0-6,3,12.13,12.13,0,0,0-1,5c0,3,1,3-1,5s-3,1-4,3-7,2-8,3-1,4-2,5-1,1-4,6-2,5-5,6A26.39,26.39,0,0,1,11469,600.12Z"/><path class="b" d="M10953,506.12s-9.14,2-8,4,20,4.22,16,7.11-37.43,4.92-42.78,6.75c-9.22,3.14-9.22,38.14-9.22,38.14l-1-3-1,3-1-1-1,2s-1-41,15-42,36.55-2.66,37-4c1-3-14-5-14-7C10943,509.12,10949,506.12,10953,506.12Z"/><polygon class="b" points="10914 469.12 10920 487.12 10922 482.12 10926 499.12 10921 488.12 10919 491.12 10914 469.12"/><path class="b" d="M10981,535.12l4,5h4c1,0,8-1,9-1s5,6,5,6l2,4a49.14,49.14,0,0,1,3.37,5.91,5.9,5.9,0,0,1,.63,2.09c0,2-2,6-2,8s4,5,4,5l3,4-2,5-2-6s2-1,0-2a13.8,13.8,0,0,1-4-3c-1-1-1-4-1-5s-1.33-5,.83-6-.83-6-1.83-7-4-5-5-6,0-2.67-1.5-3.33-.5-1.67-3.5-.67-4,0-6,1-3,0-4,0-3-2.67-3-2.67Z"/><path class="b" d="M11874,615.12l-2-6s1-2,2-2,5,0,5-1,3-7,3-7l6-2,7,2s-1.44,3-1.22,4,3.22,4,4.22,5,2.33.78,2.67,1.89-.67,7.11-.67,7.11h-4.22a2.59,2.59,0,0,0,1.22-2c0-1,0-3-1-4s-1,0-2-1-2.22-2-3.11-3-2.89,0-1.89-2,5-3,2-4-7-4-7-1-2,5-2,6,3,3,1,4-6,1-6,1-1,0-1,2A2,2,0,0,1,11874,615.12Z"/><polygon class="b" points="10760.29 563.14 10763.29 553.14 10761.79 561.39 10760.29 563.14"/><polyline class="b" points="10785.94 550.15 10784.84 551.43 10787.04 544.1"/><polyline class="b" points="10775.46 556.35 10773.96 558.1 10776.96 548.1"/><polygon class="b" points="11840.29 577.14 11843.29 567.14 11841.79 575.39 11840.29 577.14"/><polyline class="b" points="11865.94 564.15 11864.84 565.43 11867.04 558.1"/><polyline class="b" points="11855.46 570.35 11853.96 572.1 11856.96 562.1"/><polygon class="b" points="11849.29 799.14 11852.29 789.14 11850.79 797.39 11849.29 799.14"/><polyline class="b" points="11866.94 586.15 11865.84 587.43 11868.04 580.1"/><polyline class="b" points="11864.46 792.35 11862.96 794.1 11865.96 784.1"/><polygon class="b" points="11618 572.14 11619.8 566.88 11618.9 571.22 11618 572.14"/><polyline class="b" points="11633.38 565.3 11632.72 565.98 11634.04 562.12"/><polyline class="b" points="11627.09 568.57 11626.2 569.49 11628 564.22"/><polygon class="b" points="11619.79 675.47 11622.79 665.47 11621.29 673.72 11619.79 675.47"/><polyline class="b" points="11645.44 662.48 11644.34 663.76 11646.54 656.43"/><polyline class="b" points="11634.96 668.68 11633.46 670.43 11636.46 660.43"/><polygon class="b" points="11641.79 653.47 11644.79 643.47 11643.29 651.72 11641.79 653.47"/><polyline class="b" points="11646.44 684.48 11645.34 685.76 11647.54 678.43"/><polygon class="b" points="10851.79 791.47 10854.79 781.47 10853.29 789.72 10851.79 791.47"/><polyline class="b" points="10877.44 778.48 10876.34 779.76 10878.54 772.43"/><polyline class="b" points="10866.96 784.68 10865.46 786.43 10868.46 776.43"/><polygon class="b" points="10873.79 769.47 10876.79 759.47 10875.29 767.72 10873.79 769.47"/><polyline class="b" points="10878.44 800.48 10877.34 801.76 10879.54 794.43"/><polygon class="b" points="10894.79 760.47 10897.79 750.47 10896.29 758.72 10894.79 760.47"/><polyline class="b" points="10920.44 747.48 10919.34 748.76 10921.54 741.43"/><polyline class="b" points="10909.96 753.68 10908.46 755.43 10911.46 745.43"/><polygon class="b" points="10916.79 738.47 10919.79 728.47 10918.29 736.72 10916.79 738.47"/><polyline class="b" points="10921.44 769.48 10920.34 770.76 10922.54 763.43"/><polygon class="b" points="11751.29 637.47 11754.29 627.47 11752.79 635.72 11751.29 637.47"/><polygon class="b" points="11772.29 628.47 11775.29 618.47 11773.79 626.72 11772.29 628.47"/><polyline class="b" points="11797.94 615.48 11796.84 616.76 11799.04 609.43"/><polyline class="b" points="11787.46 621.68 11785.96 623.43 11788.96 613.43"/><polygon class="b" points="11794.29 606.47 11797.29 596.47 11795.79 604.72 11794.29 606.47"/><polyline class="b" points="11798.94 637.48 11797.84 638.76 11800.04 631.43"/><polygon class="b" points="11393.63 570.81 11396.63 560.81 11395.13 569.06 11393.63 570.81"/><polygon class="b" points="11414.63 561.81 11417.63 551.81 11416.13 560.06 11414.63 561.81"/><polyline class="b" points="11427.27 792.82 11426.17 794.1 11428.38 786.76"/><polyline class="b" points="11416.79 799.01 11415.29 800.76 11418.29 790.76"/><polygon class="b" points="11423.63 783.81 11426.63 773.81 11425.13 782.06 11423.63 783.81"/><polyline class="b" points="11441.27 570.82 11440.17 572.1 11442.38 564.76"/><polygon class="b" points="10834.74 480.42 10837.74 470.42 10836.24 478.67 10834.74 480.42"/><polygon class="b" points="10855.74 471.42 10858.74 461.42 10857.24 469.67 10855.74 471.42"/><polyline class="b" points="10881.39 458.43 10880.29 459.71 10882.49 452.38"/><polyline class="b" points="10870.9 464.63 10869.4 466.38 10872.4 456.38"/><polygon class="b" points="10877.74 449.42 10880.74 439.42 10879.24 447.67 10877.74 449.42"/><polyline class="b" points="10882.39 480.43 10881.29 481.71 10883.49 474.38"/><path class="b" d="M11744.33,789.14c-1.33,0-4.75.65-6,.81s-2.29.17-2.29,1.17,0,3,1,4,0,7,0,8a7.58,7.58,0,0,1-2,4c-1,1,0,1-5,1s-8-2-11-1-13,4-14,4-3,1-5,1-5.33,4-5.33,4a8,8,0,0,0,3.33-1c2-1,2-2,4-2s2-1,4-1a8.46,8.46,0,0,0,4.78-1c2.22-1,2.22-1,3.22-1s2.78,1,1.89,1a22.11,22.11,0,0,0-3.89,1,3.49,3.49,0,0,1-2,1h-4s-3,1-1,1h4c2,0,2,1,4,0s1-1,2-1,2-1,3-1,.44-1,3.22-1,4.22,0,4.22,0,1.56,1-.44,1a10.34,10.34,0,0,0-4,1h2s2,1,3,0,1,0,2-1,.89,0,1.44-1,1.23-2.36,2.89-1.67.67.69,2.67.69,1,0,2-1,1.58-.22,1.29-2.11.29-1.27,0-2.58-.29.69.71-3.31a30.93,30.93,0,0,0,.79-4.78c.21-.22-1.5-2.2-1.5-2.2s.29,1.2,0-.91-.29-2.11.71-2.11,2-1,4-1,2.44-1,3.22-1-.22,0,1.78,0,3,0,3-1,3-1,3-1-5.22-1-6.11,0A5.24,5.24,0,0,1,11744.33,789.14Z"/><polygon class="b" points="11503.51 577.33 11504.82 572.98 11504.17 576.57 11503.51 577.33"/><polygon class="b" points="11512.66 573.41 11513.97 569.06 11513.32 572.65 11512.66 573.41"/><polyline class="b" points="11523.83 567.75 11523.36 568.31 11524.31 565.12"/><polyline class="b" points="11519.27 570.46 11518.61 571.22 11519.92 566.86"/><polyline class="b" points="11524.27 577.34 11523.79 577.9 11524.75 574.7"/><polygon class="b" points="10940.03 552.29 10941.44 547.59 10940.74 551.47 10940.03 552.29"/><polygon class="b" points="10949.9 548.06 10951.31 543.37 10950.6 547.24 10949.9 548.06"/><polyline class="b" points="10961.94 541.96 10961.43 542.56 10962.46 539.12"/><polyline class="b" points="10957.02 544.87 10956.32 545.7 10957.73 541"/><polyline class="b" points="10962.41 552.29 10961.9 552.9 10962.93 549.45"/><polyline class="b" points="11011.11 448.15 11010.01 449.43 11012.21 442.1"/><polyline class="b" points="11000.63 454.35 10999.13 456.1 11002.13 446.1"/><polygon class="b" points="11007.46 439.14 11010.46 429.14 11008.96 437.39 11007.46 439.14"/><path class="b" d="M11037,677.66l1,3,3,2,2,6s1,3,2,3,5,3,5,5,0,6,1,7,3,3,3,5-1,2-1,3a7.56,7.56,0,0,0,1,4,32.08,32.08,0,0,0,3,5c2,3,0,2,3,5a23.08,23.08,0,0,0,7,5c2,1,9,3,12,3s4,1,6,1,7,1,12,2,5-1,8,4,2,6,4,8-.17,1.5,3.92,3.75,5.08,3.25,5.08,2.25-2-6-3-6-6-2-6-3,3,0,1-3-5-3-5-5,2-2,0-3a20,20,0,0,0-9-2c-4,0-3,0-7-1s-2-1-7-1h-8a5.2,5.2,0,0,1-4-2c-1-1-3,0-2-2s2-3,1-3a12.32,12.32,0,0,1-7-2c-3-2-4-1-4-2s1-1,0-3a9,9,0,0,1-1-5c0-2-1-2-1-3s4-1,1-3-3-2-4-3a4.94,4.94,0,0,1-1-3s3-2,1-4-6-3-6-4-1-2-2-4-2-2-2-3a8.28,8.28,0,0,0-1.25-4c-.75-1-3.75,0-3.75-1A3.49,3.49,0,0,0,11037,677.66Z"/><path class="b" d="M11124.31,685.16v13.66c0,2.34-1,7.34-1,9.34s1,6.55,1,9.77-2,7.23-5,8.23-4,2-3,4-3,6-5,10-4,4-2,4,5-7,8-9-2,2,4-3,9-5,9-5v6.55l5-3.55s-1-4,4-3,8,1,8,0-3-4-8-5a55.5,55.5,0,0,0-7.73-1.11s-.27,4.11-1.27-.89-3.83-4.89-2.41-8.45,4.41-2.55,1.41-9.55-5-4-4-9,3.17-5,2.59-8-4.59-5-4.59-6a10.56,10.56,0,0,0-2-5C11120.31,673.16,11121.31,682.16,11124.31,685.16Z"/><polygon class="b" points="11159.94 660.62 11162.94 650.62 11161.44 658.87 11159.94 660.62"/><polyline class="b" points="11198.59 651.63 11197.49 652.91 11199.69 645.58"/><polyline class="b" points="11192.1 658.83 11190.6 660.58 11193.6 650.58"/><polygon class="b" points="11190.94 724.95 11193.94 714.95 11192.44 723.2 11190.94 724.95"/><path class="b" d="M12668.44,926.78c2.23.84,6.23,6.55,8.23,8.19s6.14,3,7.07,7.32-2.73,1.88,2.6,6.1,14.74,6.78,16.53,9,7.8,6.33,9.8,9.77,3.77,3.81,6.89,6.13,17.63,7.28,20.37,8.3,6.73,5.78,7.73,7.9,4.67,8.93,4.34,12.52-1,21.6-.68,23.6,1.06,6.81.7,8.4-1.58,5-1.58,5-2.78-12.36-2.78-13.36-.74-2,.63-6,.07-7.33,1.22-8.67-.59-8.52-1.22-8.93-.21-2.4-.92-4.4-.48-1.12-5.59-6.56-3.51-6.65-6.31-7.55-3.63.07-6.72-1.91-5.17-2.1-7.63-3.54-1.89,0-4.17-1.22-5.05-1.64-6.67-3.93-1.61-1.29-2.61-4.29.41-3.07-1.8-5.53a44.66,44.66,0,0,0-5.28-4.58c-.92-.89.26-1.56-2.83-2.22s-4-.38-5.55-1-6.4,1.14-8.47-1.75-1.66-1.89-2.87-3.89-2.29-3.11-2.75-5.56,1.46-2.82,0-4.13.66-2-1.45-3.31-4-5-4-5l-4-4"/><path class="b" d="M8884.24,501.34h28.91a0,0,0,0,1,0,0V520a7.8,7.8,0,0,1-7.8,7.8h-16.18a4.93,4.93,0,0,1-4.93-4.93v-21.5a0,0,0,0,1,0,0Z"/><circle class="b" cx="8898.7" cy="500.93" r="14.46"/><path class="b" d="M8884,491.54l5.43,3.83-2,2.46-5.64-3.32a1.15,1.15,0,0,1-.36-1.73l.8-1A1.3,1.3,0,0,1,8884,491.54Z"/><path class="b" d="M8909,515.39H8918a2.42,2.42,0,0,1,2.42,2.42V521a2.64,2.64,0,0,1-2.64,2.64H8909a0,0,0,0,1,0,0v-8.26A0,0,0,0,1,8909,515.39Z"/><path class="a" d="M8881.15,528.22c-.15-.22,4.68-12.83,4.68-12.83L8890,525l1.06-3.2L8896,529l4-5,4,2,4-5,1,1.78,3-4.78,4,7,1.44-2.81.56.81,1.72-3.48L8923,527l-22,4Z"/><polygon class="b" points="9496 521 9496 511 9567 511 9567 498.17 9569 493 9571 498 9571 500.89 9576 500.89 9576 478 9578 472 9580 478 9583 478 9583 469 9586 462 9589 469 9589 478 9592 478 9594 472 9596 478 9596 501 9601.05 501 9601.05 498 9603 492 9605 498 9605 518 9496 521"/><polygon class="a" points="9539 521 9543.5 516.5 9547.5 520.5 9550 515 9551 518 9553.08 515.92 9554 517 9556 514 9557 518 9560.01 515.45 9561.25 517.5 9565 515 9566 518 9571 511 9571 517.25 9574 515 9576 517 9578 515 9580 518 9580.67 516 9581 517 9582 515 9582.42 516 9586 510 9588 513 9589 511 9591 514 9593 511 9595 513 9595 512 9596 514 9598 509 9600 511 9601 508 9603 512 9604 503.42 9608 520 9539 521"/><polygon class="a" points="9549 522 9545.15 517.5 9541.73 521.5 9539.59 516 9538.74 519 9536.96 516.92 9536.17 518 9534.46 515 9533.61 519 9531.04 516.45 9529.98 518.5 9526.77 516 9525.91 519 9521.64 512 9521.64 518.25 9519.07 516 9517.36 518 9515.65 516 9513.94 519 9513.37 517 9513.09 518 9512.23 516 9511.88 517 9508.81 511 9507.1 514 9506.25 512 9504.54 515 9502.83 512 9501.12 514 9501.12 513 9500.26 515 9498.55 510 9496.84 512 9495.99 509 9494.27 513 9493.42 504.42 9490 521 9549 522"/><path class="c" d="M6540.57,467.52s7.13,7.85,8.56,12.13c0,0,5-5.71,11.42-7.13a26.17,26.17,0,0,0-10.71,4.28A16.66,16.66,0,0,0,6540.57,467.52Z"/><path class="c" d="M6465.65,453.25s5.71,2.86,9.28-4.28c0,0,4.28,2.85,10,12.13,0,0-3.57-12.13-11.42-16.41C6473.5,444.69,6472.08,451.82,6465.65,453.25Z"/><path class="c" d="M6493.48,427.57s2.85-.72,10,7.84a20.74,20.74,0,0,0,7.85-10,28.28,28.28,0,0,1-6.42,5.7A10.77,10.77,0,0,0,6493.48,427.57Z"/><path class="c" d="M6432.12,409s4.28.71,12.13,11.41c0,0,8.56-6.42,13.56-6.42,0,0,1.42-3.21-12.85,3C6445,417,6437.83,409,6432.12,409Z"/></svg>