<svg xmlns="http://www.w3.org/2000/svg" xmlns:xlink="http://www.w3.org/1999/xlink" width="15361" height="1440" viewBox="0 0 15361 1440"><defs><style>.a{fill:#42a5f5;}.b{fill:#fff;opacity:0.59;}.c,.d{opacity:0.72;}.c{fill:url(#a);}.d{fill:url(#b);}</style><linearGradient id="a" x1="7353.33" y1="837.93" x2="7455.05" y2="837.93" gradientUnits="userSpaceOnUse"><stop offset="0" stop-color="#fff"/><stop offset="1" stop-color="#fff" stop-opacity="0"/></linearGradient><linearGradient id="b" x1="7819.67" y1="837.93" x2="7921.38" y2="837.93" gradientTransform="matrix(-1, 0, 0, 1, 14845, 0)" xlink:href="#a"/></defs><path class="a" d="M7031.94,831h315.11a5.94,5.94,0,0,1,5.94,5.94v1.82a.24.24,0,0,1-.24.24H7026.24a.24.24,0,0,1-.24-.24v-1.82A5.94,5.94,0,0,1,7031.94,831Z"/><rect class="b" x="7278.17" y="833.17" width="4.49" height="2.76"/><rect class="b" x="7284.39" y="833.17" width="4.49" height="2.76"/><rect class="b" x="7290.96" y="833.17" width="4.49" height="2.76"/><rect class="b" x="7297.18" y="833.17" width="4.49" height="2.76"/><rect class="b" x="7303.4" y="833.17" width="4.49" height="2.76"/><rect class="b" x="7309.62" y="833.17" width="4.49" height="2.76"/><rect class="b" x="7315.84" y="833.17" width="4.49" height="2.76"/><rect class="b" x="7322.06" y="833.17" width="4.49" height="2.76"/><rect class="b" x="7328.28" y="833.17" width="4.49" height="2.76"/><rect class="b" x="7334.5" y="833.17" width="4.49" height="2.76"/><path class="b" d="M7343.48,833.17h3.7a.79.79,0,0,1,.79.79v2a0,0,0,0,1,0,0h-4.49a0,0,0,0,1,0,0v-2.76A0,0,0,0,1,7343.48,833.17Z"/><rect class="b" x="7199.05" y="833.17" width="4.49" height="2.76"/><rect class="b" x="7205.27" y="833.17" width="4.49" height="2.76"/><rect class="b" x="7211.83" y="833.17" width="4.49" height="2.76"/><rect class="b" x="7218.05" y="833.17" width="4.49" height="2.76"/><rect class="b" x="7224.27" y="833.17" width="4.49" height="2.76"/><rect class="b" x="7230.49" y="833.17" width="4.49" height="2.76"/><rect class="b" x="7236.71" y="833.17" width="4.49" height="2.76"/><rect class="b" x="7242.93" y="833.17" width="4.49" height="2.76"/><rect class="b" x="7249.15" y="833.17" width="4.49" height="2.76"/><rect class="b" x="7255.37" y="833.17" width="4.49" height="2.76"/><rect class="b" x="7261.93" y="833.17" width="4.49" height="2.76"/><rect class="b" x="7120.61" y="833.17" width="4.49" height="2.76"/><rect class="b" x="7126.83" y="833.17" width="4.49" height="2.76"/><rect class="b" x="7133.4" y="833.17" width="4.49" height="2.76"/><rect class="b" x="7139.62" y="833.17" width="4.49" height="2.76"/><rect class="b" x="7145.84" y="833.17" width="4.49" height="2.76"/><rect class="b" x="7152.05" y="833.17" width="4.49" height="2.76"/><rect class="b" x="7158.27" y="833.17" width="4.49" height="2.76"/><rect class="b" x="7164.49" y="833.17" width="4.49" height="2.76"/><rect class="b" x="7170.71" y="833.17" width="4.49" height="2.76"/><rect class="b" x="7176.93" y="833.17" width="4.49" height="2.76"/><rect class="b" x="7183.5" y="833.17" width="4.49" height="2.76"/><rect class="b" x="7041.49" y="833.17" width="4.49" height="2.76"/><rect class="b" x="7047.7" y="833.17" width="4.49" height="2.76"/><rect class="b" x="7054.27" y="833.17" width="4.49" height="2.76"/><rect class="b" x="7060.49" y="833.17" width="4.49" height="2.76"/><rect class="b" x="7066.71" y="833.17" width="4.49" height="2.76"/><rect class="b" x="7072.93" y="833.17" width="4.49" height="2.76"/><rect class="b" x="7079.15" y="833.17" width="4.49" height="2.76"/><rect class="b" x="7085.37" y="833.17" width="4.49" height="2.76"/><rect class="b" x="7091.59" y="833.17" width="4.49" height="2.76"/><rect class="b" x="7097.81" y="833.17" width="4.49" height="2.76"/><rect class="b" x="7104.37" y="833.17" width="4.49" height="2.76"/><path class="b" d="M7032.6,833.17h3.7a0,0,0,0,1,0,0v2.76a0,0,0,0,1,0,0h-4.49a0,0,0,0,1,0,0v-2A.79.79,0,0,1,7032.6,833.17Z"/><polygon class="c" points="7353.33 837.02 7455.05 838.83 7353.33 838.83 7353.33 837.02"/><polygon class="d" points="7025.33 837.02 6923.62 838.83 7025.33 838.83 7025.33 837.02"/></svg>