<svg xmlns="http://www.w3.org/2000/svg" xmlns:xlink="http://www.w3.org/1999/xlink" width="15361" height="1440" viewBox="0 0 15361 1440"><defs><style>.a{fill:#42a5f5;}.b{fill:#fff;opacity:0.59;}.c,.d{opacity:0.72;}.c{fill:url(#a);}.d{fill:url(#b);}</style><linearGradient id="a" x1="7738.33" y1="837.93" x2="7840.05" y2="837.93" gradientUnits="userSpaceOnUse"><stop offset="0" stop-color="#fff"/><stop offset="1" stop-color="#fff" stop-opacity="0"/></linearGradient><linearGradient id="b" x1="7434.67" y1="837.93" x2="7536.38" y2="837.93" gradientTransform="matrix(-1, 0, 0, 1, 14845, 0)" xlink:href="#a"/></defs><path class="a" d="M7416.9,831h315.1a5.9,5.9,0,0,1,5.9,5.9v1.8a.2.2,0,0,1-.2.2H7411.2a.2.2,0,0,1-.2-.2v-1.8A5.9,5.9,0,0,1,7416.9,831Z"/><rect class="b" x="7663.2" y="833.2" width="4.5" height="2.76"/><rect class="b" x="7669.4" y="833.2" width="4.5" height="2.76"/><rect class="b" x="7676" y="833.2" width="4.5" height="2.76"/><rect class="b" x="7682.2" y="833.2" width="4.5" height="2.76"/><rect class="b" x="7688.4" y="833.2" width="4.5" height="2.76"/><rect class="b" x="7694.6" y="833.2" width="4.5" height="2.76"/><rect class="b" x="7700.8" y="833.2" width="4.5" height="2.76"/><rect class="b" x="7707.1" y="833.2" width="4.5" height="2.76"/><rect class="b" x="7713.3" y="833.2" width="4.5" height="2.76"/><rect class="b" x="7719.5" y="833.2" width="4.5" height="2.76"/><path class="b" d="M7728.5,833.2h3.7a.8.8,0,0,1,.8.8v2a0,0,0,0,1,0,0h-4.5a0,0,0,0,1,0,0v-2.8A0,0,0,0,1,7728.5,833.2Z"/><rect class="b" x="7584" y="833.2" width="4.5" height="2.76"/><rect class="b" x="7590.3" y="833.2" width="4.5" height="2.76"/><rect class="b" x="7596.8" y="833.2" width="4.5" height="2.76"/><rect class="b" x="7603.1" y="833.2" width="4.5" height="2.76"/><rect class="b" x="7609.3" y="833.2" width="4.5" height="2.76"/><rect class="b" x="7615.5" y="833.2" width="4.5" height="2.76"/><rect class="b" x="7621.7" y="833.2" width="4.5" height="2.76"/><rect class="b" x="7627.9" y="833.2" width="4.5" height="2.76"/><rect class="b" x="7634.1" y="833.2" width="4.5" height="2.76"/><rect class="b" x="7640.4" y="833.2" width="4.5" height="2.76"/><rect class="b" x="7646.9" y="833.2" width="4.5" height="2.76"/><rect class="b" x="7505.6" y="833.2" width="4.5" height="2.76"/><rect class="b" x="7511.8" y="833.2" width="4.5" height="2.76"/><rect class="b" x="7518.4" y="833.2" width="4.5" height="2.76"/><rect class="b" x="7524.6" y="833.2" width="4.5" height="2.76"/><rect class="b" x="7530.8" y="833.2" width="4.5" height="2.76"/><rect class="b" x="7537.1" y="833.2" width="4.5" height="2.76"/><rect class="b" x="7543.3" y="833.2" width="4.5" height="2.76"/><rect class="b" x="7549.5" y="833.2" width="4.5" height="2.76"/><rect class="b" x="7555.7" y="833.2" width="4.5" height="2.76"/><rect class="b" x="7561.9" y="833.2" width="4.5" height="2.76"/><rect class="b" x="7568.5" y="833.2" width="4.5" height="2.76"/><rect class="b" x="7426.5" y="833.2" width="4.5" height="2.76"/><rect class="b" x="7432.7" y="833.2" width="4.5" height="2.76"/><rect class="b" x="7439.3" y="833.2" width="4.5" height="2.76"/><rect class="b" x="7445.5" y="833.2" width="4.5" height="2.76"/><rect class="b" x="7451.7" y="833.2" width="4.5" height="2.76"/><rect class="b" x="7457.9" y="833.2" width="4.5" height="2.76"/><rect class="b" x="7464.1" y="833.2" width="4.5" height="2.76"/><rect class="b" x="7470.4" y="833.2" width="4.5" height="2.76"/><rect class="b" x="7476.6" y="833.2" width="4.5" height="2.76"/><rect class="b" x="7482.8" y="833.2" width="4.5" height="2.76"/><rect class="b" x="7489.4" y="833.2" width="4.5" height="2.76"/><path class="b" d="M7417.6,833.2h3.7a0,0,0,0,1,0,0v2.8a0,0,0,0,1,0,0h-4.5a0,0,0,0,1,0,0v-2A.8.8,0,0,1,7417.6,833.2Z"/><polygon class="c" points="7738.3 837 7840 838.8 7738.3 838.8 7738.3 837"/><polygon class="d" points="7410.3 837 7308.6 838.8 7410.3 838.8 7410.3 837"/></svg>