<svg xmlns="http://www.w3.org/2000/svg" width="15361" height="1440" viewBox="0 0 15361 1440"><defs><style>.a{fill:#01579b;}</style></defs><path class="a" d="M6015.7,298.3s9.9-2.4,12.1-3.5,5.5-7,8.8-9.4,12.1-7,12.1-7,5.5-2.3,6.6-4.6a13.4,13.4,0,0,1,7.1-6.5c3.3-1.1,6.6-2.3,9.9-1.1s14.9-1,15.7-.5,1.5-3,3.9-.1,5.7,1.7,6.7,4.1,2.7,5.8,5.2,7.6,6.6-.6,10,0,1.6.5,8.6,0,9.2.5,11.9,0,6.1-1.8,8.3-1.8,6.6-1.2,6.6,0,3.3,0,4.4,0h7.7c1.1,0,6.6-1.2,7.7,0s2.1,0,4.3,0h14.3a2.3,2.3,0,0,0,3.3-1.2c1.1-2.3,1.1-2.3,2.2-3.5a18.2,18.2,0,0,1,3.3-2.3l1.1-2.3a40.8,40.8,0,0,0,5.5-3.5c1.1-1.2,4.4-2.4,4.4-2.4s0-1.1,2.2-2.3,2.2,0,3.3-1.2,1.1-2.3,3.3-3.5,5.5-2.3,5.5-2.3l4.4-1.2s-1.1-1.1,0-1.7,7.7-6.4,7.7-6.4l2.2-1.2s4.4,0,5.5-1.2l3.2-3.5a25,25,0,0,1,4.4-1.1c1.1,0,3.3,0,3.3-1.2s4.4-5.8,3.3-5.8.4-.3.2-1.9a9.6,9.6,0,0,1,.9-4l-1.1-7,1.1-2.2s2.2-3.6,2.2-5.9,2.2-5.9,2.2-5.9.4,1.2,1.3,0,5.3-3.5,6.4-3.5,5.5-3.5,5.5-3.5l1.1-2.3c1.1-2.3,1.1-4.7,2.2-4.7s2,1.2,2.6,0,.7-2.3,2.9-3.5,5.5-3.5,6.6-3.5,5.5-2.3,5.5-2.3a4.6,4.6,0,0,1,3.3-1.2c2.2,0-.3,1.2,5.9,0a93.7,93.7,0,0,1,13.8-1.1s3.3,0,4.4-1.2,1.1,0,2.8,0l9.3-.5s-5,.6,4.1,0,9.1.5,10.2-1.8a9.8,9.8,0,0,0,1.1-3.5s0-3.5,1.1-3.5,1.1,0,3.3-1.2,3.3,1.2,3.3-1.2,0-3.5,2.2-3.5,3.3,1.2,4.4-1.1-1.1-2.4,2.2-2.4h5.4l-3.2-3.5s-2.2-1.1,0-2.3,2.1-.9,3.2-1.6,2.3-4.2,4.5-4.2a10.7,10.7,0,0,0,4.4-1.2,2.2,2.2,0,0,1,2.2-2.3h5.1c1.4,0,2.5-2.4,3.6-1.2s5.5,0,6.6,1.2,2.2,1.1,4.4,1.1h5.5a10.5,10.5,0,0,1,3.3,1.2,23.3,23.3,0,0,1,4.4-1.2c1.1,0,4.4,0,5.5-1.1l3.3-3.5a3.9,3.9,0,0,1,1.1,2.3c0,1.2-1.1,0,0,1.2a4,4,0,0,0,3.3,1.1h2.2s1.1-3.5,2.2-2.3a13.9,13.9,0,0,0,3.3,2.3,11.1,11.1,0,0,1,3.3-1.1c1.1,0,4.4-2.4,4.4-1.2s2.2,1.2,2.2,2.3,3.3,0,3.3,1.2-1.1,2.3-1.1,4.7,0,1.1,1.1,2.9,1.1-.6,1.1,1.7,1.1,0,1.1,2.4,1.1,2.3,1.1,3.5-2.2-1.2,0,1.1,4.4,3.5,4.4,4.7,3.2,2.3,4.3,3.5,0,2.3,2.2,3.5,4.4,1.2,6.6,2.3,2.2,1.2,2.2,2.4,1.1,2.3,1.1,3.5,6.6,1.1,6.6,2.3,0,1.2,2.2,2.3,7.7-1.1,8.8,1.2,4.5,2.8,6.5,3.2l1.2.3s3.3,0,4.4,2.3,1.1,1.2,1.1,2.4,2.2,2.3,3.3,3.5,5.5,0,5.5,3.5,3.3,5.8,3.3,5.8l1.1,2.3s4.4-1.1,4.4,0-1.1,1.5,0,3.1,2.2,1.6,3.3,2.8,3.3,1.1,4.4,3.5,2.1,2.3,5.4,3.5,5.5,1.1,6.6,2.3,4.4,0,4.4,2.3,1.1,3.4,0,4.6-2.2,2.4-1.1,1.3,4.4-2.4,4.4-2.4-4.4-2.3,0-1.1,3.3,2.3,5.5,2.3,5.5-1.2,5.5,1.2-1.1,2.3,2.2,3.5a5,5,0,0,1,3.3,4.6,15.4,15.4,0,0,1,2.2,3.5,62.1,62.1,0,0,1,2.2,5.9s0,3.5,1.1,4.6,1.1,2.4,2.2,3.5,1.1,3.5,1.1,4.7,2.2,0,3.3,2.3,2.2,3.5,1.1,4.7-1.3,1.9.4,3.3,4,1.4,4,3.7-4.4-2.3,0,3.5,6.6,4.7,6.6,7,0,0,1.1,0,4.4,0,4.4,1.2,2.2,1.1,2.2,2.3,2.2,0,3.3,1.2,4.3,1.1,3.2,2.3-.6,1.3.3,3.6,1.9,3.4,3,3.4,2.2,0,2.2,2.3,2.2,3.5,2.2,4.7-1.1,1.2,0,2.3,3.3,2.4,3.3,3.5,2.2,0,2.2,1.2,0,1.2,2.2,2.3-3.3-4.6,3.3,1.2,8.8,7,8.8,7,2.2,2.3,3.3,2.3a11.1,11.1,0,0,1,5.5,2.4c1.1,1.1,4.4,1.1,5.5,2.3l2.2,2.3c1.1,1.2,5.5,0,5.5,1.2s3.3,2.3,3.3,3.5,3.3,1.2,3.3,1.2.5-3.5.8-1.2,2.5,4.7,2.5,4.7l3.3,1.1s2.5-1.1,2.3,0,3.2,2.4,4.3,3.5,0,1.2,2.2,2.4a7.9,7.9,0,0,0,3.2,1.1,3.3,3.3,0,0,1,2.2,1.2c1.1,1.2,3.3,5.8,3.3,5.8l2.2,1.2s.3-1.2.7,0,1.5,1.2,2.6,2.3,4.4,1.2,4.4,2.4,1.1,1.1,2.2,2.3,3.3,2.3,4.4,3.5,3.3-1.2,4.4,2.3,2.2,3.5,3.3,4.7,4.4,1.2,4.4,1.2l2.2,2.3c1.1,1.2,0,1.2,3.3,2.3s7.7,1.2,7.7,3.5,3.3,4.7,3.3,4.7,4.4,0,5.5,1.2,5.5,2.3,5.5,2.3,1.1-2.3,1.1,1.2,2.2,4.6,2.2,5.8,0,1.2-1.1,3.5-1.1,1.2,0,3.5,1.1,0,1.1,2.9,0,2.9,1.1,4.1a13.9,13.9,0,0,0,3.3,2.3s1.4-1.1,4.5,0,5.3,0,7.5,1.2a73.1,73.1,0,0,0,8.8,3.5c3.3,1.2,3.3,0,7.7,1.2s6.6,2.3,7.7,2.3,3.3-1.2,6.6,0,5.4,1.2,6.5,0a3.6,3.6,0,0,1,2.3-1.2l2.2,4.7v1.9c0,1.6,0-.7,2.2,1.6s3.3,1.2,5.5,3.5l4.4,4.7c1.1,1.1,0,1.1,5.5,3.5s7.6,1.1,8.7,3.5,3.3,2.3,4.4,4.6,2.2,1.2,2.2,1.2a3.3,3.3,0,0,1,2.2,1.2,5.4,5.4,0,0,0,3.3,1.1s1.3-1.1,1.2,0a3.8,3.8,0,0,0,1,2.4h1.5a4.6,4.6,0,0,1,2.9,1.1,15.8,15.8,0,0,0,3.3,2.4,1.1,1.1,0,0,0,1.1,1.1c1.1,0,3.3-2.3,4.4,0s2.2,2.4,3.3,3.5,2.2,0,4.4,1.2,1.1,0,3.3,1.2,2.2,0,3.3,1.1,3.3,0,3.3,1.2-1.1,0,1.1,1.2,4.4,1.1,4.4,2.3,4.4,2.3,4.4,2.3a10.7,10.7,0,0,0,4.4,1.2c2.2,0,3.3,1.2,4.4,1.2s3.1-1.2,4.3,0,3.3,1.1,3.3,2.3,1.1,1.2,1.1,3.5,0,2.3,2.2,2.3,1.1,0,2.2-1.1a5.1,5.1,0,0,1,3.3-1.2l2.2,1.2V489l1.1,1.2c1.1,1.1,1.1,0,2.2,2.3s2.2,3.5,3.3,3.5,3.3,0,4.4-1.2,0-3.5,2.2-2.3,3.5,2.3,3.9,3.5,1.6,2.3,1.6,3.5v2.6c0,.9,1.1.9,2.2.9h7.7c1.1,0,5.5-3.5,4.4,0s-2.2,2.3,0,4.7,4.4,2.3,5.5,3.5,2.2,2.3,4.4,2.3,1.1,0,4.4,1.2,4.4,1.1,5.5,2.3,2.1,1.2,4.3,2.3a13.7,13.7,0,0,1,3.3,2.4l2.2,1.1s3.9-1.1,3.6,0,.8,3.5,1.9,3.5,4.1-1.1,3.7,0,2.9,2.4,1.8,3.5-2.8.4.2,2.6,4.2-.2,5.3,2.1,3.3,1.2,3.3,2.3,2.2,1.2,4.4,1.2,0-1.2,3.3,0,4.4-1.2,6.6,0a11.1,11.1,0,0,0,5.5,1.2,23.3,23.3,0,0,0,4.4-1.2s-1.1-2.3,0-1.2.9,2.4,1.5,2.4.7-2.4,1.8-1.2a3.8,3.8,0,0,0,3.3,1.2c1.1,0,2.2-2.4,3.3-1.2s3.3,0,3.3,1.2,1.4,0,2.9,0a21.6,21.6,0,0,1,4.7,1.1s1.1-2.3,2.2-1.1,6.3,0,5.9,1.1.7,1.2,1.8,0,2.2-4.6,4.4-2.3,3.3,1.2,4.4,2.3,2.2,0,4.4,0,4.4,0,5.5,1.2-1.1,3.5,2.2,3.5,3.3,0,4.4,1.2,0,1.1,2.2,2.3,3.3,2.3,5.5,3.5a13.6,13.6,0,0,0,5.5,1.2s2.2-1.2,3.8,0,2.8,1.1,2.8,2.3,2.2,1.2,2.2,1.2,4.4,0,5.5,1.1,7.7,1.2,7.7,2.4,1.1,1.1,2.1,2.3,2.2,0,2.2,1.2,1.1,2.3,2.2,3.5,6.6,2.3,6.6,3.5,2.2,0,3.3,2.3,3.3,1.2,3.3,2.3,5.5,1.2,5.5,2.4,3.3,2.3,4.4,2.3,0,0,1.1,1.2,3.3,0,4.4,1.1-1.1-1.1,3.3,2.4,6.6,3.5,6.6,3.5l3.3,1.1s3.3,0,3.3,1.2,2.2,2.3,3.3,2.3h4.5l2.1,1.2,3.3,1.2,2.2,1.1s4.4,1.2,4.4,2.4,2.2,0,1.1,2.3-.5,1.6.3,3.7,2.9,3.3,2.9,4.5v3.5a11.1,11.1,0,0,0,3.3,1.1h2.2c1.1,0,2.2-1.1,3.3,0s4.4,0,4.4,1.2,1.1,1.2,2.2,1.2,2.2,1.1,3.3,1.1,2.2-1.1,2.2,0,2.2,1.2,4.4,2.4,2.2,2.3,3.3,2.3a23.3,23.3,0,0,1,4.4,1.2s.4-1.2,2.9,0a10.4,10.4,0,0,0,4.8,1.1h3.5c2,0,2,0,3.1,1.2a7.9,7.9,0,0,0,4.4,2.3c1.1,0,2.2,1.2,3.3,1.2s0,0,1.1,2.3,2.2,2.4,2.2,2.4a5.4,5.4,0,0,1,3.3,1.1c1.1,1.2,3.3,0,4.4,1.2s4.4,1.2,4.4,1.2a4.4,4.4,0,0,0,3.2,1.1c2.2,0,5.5,2.4,6.6,1.2s0-2.3,2.2-1.2a14.2,14.2,0,0,0,4.2,1.5s1,1.8,1.7,1.3.7.5,2.4,0,3.1-1.6,4,.2,4.2.5,4.2.5v-1.1a2.5,2.5,0,0,0,2.2,2.3c1.1,0,0-2.3,2.2-1.2s4.4-1.1,5.5,0a8.1,8.1,0,0,0,4.4,2.4h2.2c1.1,0,2.2,1.1,3.3,1.1s1.1-2.3,2.2-1.1a4,4,0,0,0,3.3,1.1c1.1,0,2.2,1.2,3.3,1.2s2.2-2.3,3.3-1.2l3.3,3.5a10.5,10.5,0,0,0,3.3,1.2h6.4c3.4,0,4.5,1.2,5.6,1.2s4.4-1.2,4.4,0,1.1,2.3,3.3,2.3h4.7a36.8,36.8,0,0,0,6.3-1.2s-3.3-1.1,3.3,1.2,8.8,2.3,8.8,2.3.5-1.1,1.9,0a20.2,20.2,0,0,0,4.7,2.4,11.1,11.1,0,0,0,3.3,1.1,7.8,7.8,0,0,1,4.4,1.2,41.4,41.4,0,0,0,5.5,2.3h3.4l5.4,2.4,3.3,2.3,6.5,1.2s3.3,0,3.3,1.1a2.5,2.5,0,0,0,2.2,2.4c1.1,0,2.2-1.2,3.3,0s4.4,2.3,4.4,1.1,1.1-1.1,2.2-1.1,0-1.2,2.2-2.4,4.4-2.3,4.4-1.1-3.3,2.3-2.2,3.5,0,1.1,2.2,2.3,5.5,0,5.5,1.2,4.4,2.3,4.4,2.3,1.1,2.3,2.2,0,0-1.2,2.2-1.2,2.2-1.1,3.3,0,1.1-1.1,2.2,1.2,3.3,3.5,4.4,3.5-.2,1.2,3.2,0a17.1,17.1,0,0,1,4.5-1.2l1.1,1.2c1.1,1.2,4.4,2.3,4.4,2.3h3.3v2.4s3.3,0,3.3,1.1,0,0,1.1,2.4,3.2,1.1,4.3,3.5,4.4,3.5,4.4,4.6a11.9,11.9,0,0,0,1.1,3.5l3.3,2.4h3.3s7.7,1.1,7.7,2.3,2.2,1.2,3.3,2.3l2.2,2.4c1.1,1.1,5.5,2.3,5.5,2.3s2.2,1.2,2.2,2.3,3.3,2.4,3.3,2.4l3.3,2.3a3.3,3.3,0,0,1,2.2,1.2c1.1,1.1,2.2,2.3,4.4,2.3s4.4,1.2,5.5,1.2,5.5,2.3,5.5,2.3a3.3,3.3,0,0,1,2.2,1.2c1.1,1.1,0,1.1,1.1,2.3s0-1.2,1.1,3.5,1.1,5.8,2.2,5.8-1.1-4.6,3.3,0,3.2,2.4,4.3,4.7,1.1,0,2.2,2.3-2.2,1.2,2.2,3.5,6.6,2.4,7.7,3.5,2.2-1.1,2.2,0,7.7,5.9,7.7,5.9h3.3c1.1,0,4.4,1.1,5.5,2.3s6.6,3.5,6.6,3.5l3.3,1.2,2.2,1.1V769l17.6,8.2s4.4-7,3.8,0-8.2,3.5-.5,7,27.4,8.1,27.4,8.1a23.4,23.4,0,0,1,3.3,4.7c1.1,2.3,5.5,3.5,6.6,8.2s11,7,16.5,10.5,19.8,7,19.8,12.8,9.8,10.5,9.8,14,25.3,5.8,24.2,10.5,2.3,2.3,0,13.4-6,15.8.8,21,32.2,7.6,35.5,18.1,3.3,12.8,5.5,18.7,0,22.1-1.1,24.5-2.2-1.2,6.5,11.6,9.9,11.7,15.4,19.9,11,11.6,13.2,19.8,16.5,11.7,13.2,18.7-3.4,4.6.5,8.7,18.2,16.9,17.1,23.9,1.2,7,0,13.5,3.3,9.9,4.4,13.4-2.2-5.9,1.1,3.5,4.3,7,4.3,14V1112H4145V277.3h9.2s2.5-1.8,2.4,0,3-1.8,3.7,0,3.7-3,4.4,0,2.8.5,3.9,1.7,7.7-2.3,9.9,0,3.3,0,6.6,3.5,8.8,1.2,11,3.5,1.1,0,4.4,4.7,11.5,4.8,11.5,4.8c2.8,2.2,7.1,2.2,6,4.5s1.1,4.7,2.2,5.8,5.5-2.3,5.5,2.4,4.4,3.5,5.5,5.8,3.3,1.2,4.4,3.5,5.5,1.2,6.6,4.7,1.1,2.3,4.4,5.8,8.8,5.8,8.8,8.2,0,1.1,1.1,5.8-1.1,4.7,3.3,5.8,7.7,0,9.9-3.5,6.6-5.8,7.7-7,8.8-3.5,9.9-3.5h10.9s-1.1-1.1,3.3-1.1,5.5-3.5,8.8,0,9.9,5.8,13.2,4.6,8.8-2.3,8.8-2.3,8.8-1.2,8.8,1.2,2.2,3.5,4.4,5.8,5.5,2.3,6.6,3.5,7.7,0,8.8,4.7-2.2,5.8,3.2,7,11,1.1,11,3.5,3.3,2.3,4.4,5.8,2.2,3.5,4.4,5.8,8.8,3.5,8.8,2.4-2.2-1.2,0-3.5,4.4-4.7,5.5-4.7-2.2-3.5,4.4-1.2,6.6-1.1,11,2.4,9.9,2.3,13.2,4.6,7.6,1.2,8.7,2.4,5.5,0,5.5,1.1,7.7,1.2,7.7,1.2l3.3-5.8,8.8-1.2,9.9-1.2s-1.1-2.3,3.3-2.3,5.5-1.2,8.8,0,9.9,0,11,0,7.7-1.2,7.7-1.2h6.5c-1.1,0-2.1,0,0-2.3s8.8-8.2,8.8-8.2a11.9,11.9,0,0,0,1.1-3.5c0-1.1-1.1-1.1,1.1-2.3s8.8-3.5,8.8-3.5a4.2,4.2,0,0,1,2.2-3.5l9.9-5.8s-1.1-2.4,1.1-3.5,8.8-5.9,9.9-3.5,9.9,1.1,11-1.2,4.4-4.7,5.5-4.7,9.9-2.3,11-2.3,3.2-2.3,5.4-3.5,11-2.3,12.1,0,3.3,3.5,7.7,5.8,12.1,3.5,14.3,5.9,8.8,2.3,9.9,3.5,5.5,0,6.6,2.3,2.2,1.2,4.4,5.8,12.1,3.5,13.1,8.2,0,3.5,3.3,7,1.1-1.2,8.8,7,12.1,7,13.2,9.3,4.4,3.5,6.6,4.7-6.6-3.5,8.8,1.2,17.6,3.5,19.8,5.8,8.8,5.8,11,7,12,3.5,12,3.5h9.9c4.4,0,6.6-1.2,14.3-1.2s12.1,0,15.4,1.2,1.1,1.2,9.9,0a34.7,34.7,0,0,1,15.3,1.2l5.5,4.6,9.9-1.1s-2.2-4.7,7.7,0,22,5.8,24.2,4.6,0-8.1,8.8-3.5,17.5,3.5,19.7,4.7-4.4,2.3,5.5-2.3,15.4-10.5,20.9-10.5,19.8-1.2,22-1.2,11-1.2,13.2-3.5,3.2-3.5,8.7-5.8,14.3-5.9,16.5-9.4,6.6-4.6,7.7-5.8,13.2-2.3,15.4-4.7,5.5-5.8,6.6-3.5,24.1,4.7,24.1,4.7-7.6-2.3,2.2,1.2,16.5,4.6,19.8,5.8,8.8,7,8.8,7-1.1-4.7,3.3,0,5.5,3.5,14.3,5.8,17.6,1.2,17.6,4.7,8.7,3.5,9.8,5.8,15.4,2.4,16.5,4.7,3.3,0,8.8,5.8,17.6,10.5,17.6,10.5-1.1,1.2,3.3,0,6.6-2.3,13.2-1.1,14.2,2.3,18.6,1.1,14.3-3.5,17.6-3.5,3.3,1.2,9.9-1.1,4.4-1.2,15.4-5.9,24.1-7,23-8.1-12,5.8,1.1-3.5,27.5-12.9,27.5-14,2.2-4.7,2.2-4.7l2.2-7s9.9-2.3,15.4-1.2,9.9,2.4,13.2,2.4,19.7,1.1,21.9,1.1,13.2,0,15.4-1.1-6.6-3.5,13.2,0,14.3,0,14.3,0,13.1-4.7,13.1-2.4,7.7,0,7.7,0,6.6-4.6,9.9-4.6,20.9-2.4,20.9-2.4l17.6-5.8s7.7-4.7,13.2-2.3,25.2-2.4,25.2-2.4,3.3-4.6,5.5-3.5,13.2-1.1,16.5,0,12.1-2.3,14.3-1.1,14.2-5.9,18.6-4.7,25.3,2.2,25.9,1.1,6-4.6,6-4.6,16.5-4.7,17.6-4.7,23-5.8,25.2-7,13.2-3.5,17.6-5.8,13.2-4.7,18.7-5.8,14.3,0,25.3-5.9,12-7,16.4-8.1,27.5-4.7,29.7-5.9,9.9-5.8,11-8.1,4.7-4.7,7.8-6.4,9.8-3,11.9-3,14.3-2.3,16.5-2.3,11,0,13.2,2.3,6.2-2.3,14.1,3,16.7,1.7,18.9,6.4,7.7,8.1,10.9,9.3,11-2.3,14.3,0,15.4,7,15.4,7,11-2.3,12.1,1.2,9.9,2.3,13.2,4.6,7.7-1.1,9.9,2.4,10.9,2.3,17.5,5.8,11,1.2,24.2,3.5,15.4,1.2,18.7,2.3l3.3,1.2,11-5.8c4.3-2.4,7.6-5.9,8.7-4.7s29.4-2,29.4-2-1.9-.3,8-3.8,9.9-2.4,14.3-4.7S6015.7,298.3,6015.7,298.3Z"/><path class="a" d="M2542.3,232.6s-8.6-2.3-10.5-3.5-4.8-7-7.7-9.3a126.5,126.5,0,0,0-10.6-7s-4.8-2.4-5.8-4.7a12.1,12.1,0,0,0-6.2-6.4c-2.9-1.2-5.8-2.4-8.6-1.2s-13.1-1-13.8-.5-1.3-2.9-3.4-.1-4.9,1.8-5.9,4.1-2.3,5.8-4.5,7.6-5.7-.6-8.8,0-1.3.6-7.5,0-8,.6-10.4,0-5.3-1.8-7.2-1.8-5.8-1.1-5.8,0-2.9,0-3.8,0H2415c-.9,0-5.7-1.1-6.7,0s-1.9,0-3.8,0H2392a1.9,1.9,0,0,1-2.9-1.1c-1-2.4-1-2.4-1.9-3.5a15,15,0,0,0-2.9-2.4l-1-2.3s-3.8-2.3-4.8-3.5-3.8-2.3-3.8-2.3,0-1.2-1.9-2.4-1.9,0-2.9-1.1-1-2.4-2.9-3.5a38.8,38.8,0,0,0-4.8-2.4l-3.8-1.1s.9-1.2,0-1.8-6.8-6.4-6.8-6.4l-1.9-1.2s-3.8,0-4.8-1.1l-2.9-3.5a17.1,17.1,0,0,0-3.8-1.2c-1,0-2.9,0-2.9-1.2s-3.8-5.8-2.9-5.8-.3-.3-.1-1.9a11.6,11.6,0,0,0-.8-3.9l.9-7-.9-2.3s-1.9-3.6-1.9-5.9-2-5.8-2-5.8-.3,1.1-1.1,0-4.6-3.5-5.6-3.5-4.8-3.5-4.8-3.5l-1-2.4c-.9-2.3-.9-4.6-1.9-4.6s-1.7,1.1-2.3,0-.6-2.4-2.5-3.5-4.8-3.5-5.7-3.5-4.9-2.4-4.9-2.4a3.7,3.7,0,0,0-2.8-1.1c-2,0,.2,1.1-5.2,0a66.1,66.1,0,0,0-12.1-1.2s-2.9,0-3.9-1.2-.9,0-2.4,0l-8.1-.5s4.3.7-3.6,0-8,.5-8.9-1.8a10,10,0,0,1-1-3.5s0-3.5-.9-3.5-1,0-2.9-1.2-2.9,1.2-2.9-1.1,0-3.5-1.9-3.5-2.9,1.1-3.9-1.2,1-2.3-1.9-2.3h-4.7l2.8-3.5s1.9-1.2,0-2.4-1.8-.9-2.8-1.6-2-4.2-3.9-4.2a8.4,8.4,0,0,1-3.9-1.2s0-2.3-1.9-2.3h-4.5c-1.3,0-2.2-2.3-3.2-1.2s-4.8,0-5.8,1.2-1.9,1.2-3.8,1.2h-4.8a8.7,8.7,0,0,0-2.9,1.1,20.3,20.3,0,0,0-3.8-1.1c-1,0-3.9,0-4.8-1.2l-2.9-3.5a4.4,4.4,0,0,0-1,2.3c0,1.2,1,0,0,1.2a3,3,0,0,1-2.8,1.2h-2s-.9-3.5-1.9-2.4a15,15,0,0,1-2.9,2.4,8.2,8.2,0,0,0-2.9-1.2c-.9,0-3.8-2.3-3.8-1.2s-1.9,1.2-1.9,2.4-2.9,0-2.9,1.1,1,2.4,1,4.7,0,1.2-1,2.9-1-.6-1,1.8-.9,0-.9,2.3-1,2.3-1,3.5,1.9-1.2,0,1.2-3.8,3.5-3.8,4.6-2.9,2.4-3.9,3.5,0,2.4-1.9,3.5-3.8,1.2-5.8,2.4-1.9,1.1-1.9,2.3-.9,2.3-.9,3.5-5.8,1.2-5.8,2.3,0,1.2-1.9,2.4-6.7-1.2-7.7,1.1-4,2.8-5.7,3.3l-1,.2s-2.9,0-3.9,2.4-.9,1.1-.9,2.3-2,2.3-2.9,3.5-4.8,0-4.8,3.5a8.2,8.2,0,0,1-2.9,5.8l-1,2.4s-3.8-1.2-3.8,0,1,1.4,0,3-1.9,1.6-2.9,2.8-2.9,1.2-3.8,3.5-1.9,2.3-4.8,3.5-4.8,1.2-5.8,2.3-3.8,0-3.8,2.4-1,3.3,0,4.6,1.9,2.4.9,1.2-3.8-2.3-3.8-2.3,3.8-2.4,0-1.2-2.9,2.3-4.8,2.3-4.8-1.1-4.8,1.2.9,2.3-1.9,3.5-2.9,4.7-2.9,4.7a11.6,11.6,0,0,0-1.9,3.5,58.2,58.2,0,0,0-2,5.8s0,3.5-.9,4.7-1,2.3-2,3.5-.9,3.5-.9,4.6-1.9,0-2.9,2.4-1.9,3.5-1,4.6,1.2,2-.4,3.3-3.4,1.4-3.4,3.7,3.8-2.3,0,3.5-5.8,4.7-5.8,7,0,0-.9,0-3.9,0-3.9,1.2-1.9,1.2-1.9,2.3-1.9,0-2.9,1.2-3.8,1.2-2.8,2.3.5,1.3-.2,3.6-1.8,3.4-2.7,3.4-2,0-2,2.4-1.9,3.5-1.9,4.6,1,1.2,0,2.4-2.9,2.3-2.9,3.5-1.9,0-1.9,1.1,0,1.2-1.9,2.4,2.9-4.7-2.9,1.1-7.7,7-7.7,7-1.9,2.4-2.8,2.4a9.2,9.2,0,0,0-4.9,2.3c-.9,1.2-3.8,1.2-4.8,2.3l-1.9,2.4c-.9,1.1-4.8,0-4.8,1.1s-2.9,2.4-2.9,3.5-2.8,1.2-2.8,1.2-.5-3.5-.7-1.2a10.9,10.9,0,0,1-2.2,4.7l-2.9,1.2s-2.2-1.2-2.1,0-2.7,2.3-3.7,3.5,0,1.1-1.9,2.3a6.3,6.3,0,0,1-2.9,1.2,2.9,2.9,0,0,0-1.9,1.1c-1,1.2-2.9,5.9-2.9,5.9l-1.9,1.1s-.2-1.1-.6,0-1.3,1.2-2.3,2.4-3.8,1.1-3.8,2.3-1,1.2-1.9,2.3-2.9,2.4-3.9,3.5-2.9-1.1-3.8,2.4-1.9,3.5-2.9,4.6-3.9,1.2-3.9,1.2l-1.9,2.3c-.9,1.2,0,1.2-2.9,2.4s-6.7,1.1-6.7,3.5-2.9,4.6-2.9,4.6-3.8,0-4.8,1.2-4.8,2.3-4.8,2.3-.9-2.3-.9,1.2-2,4.7-2,5.8,0,1.2,1,3.5,1,1.2,0,3.5-1,0-1,3,0,2.9-.9,4a15,15,0,0,1-2.9,2.4s-1.3-1.2-4,0-4.6,0-6.6,1.1a49.8,49.8,0,0,1-7.6,3.5c-2.9,1.2-2.9,0-6.8,1.2s-5.7,2.3-6.7,2.3-2.9-1.1-5.8,0-4.7,1.2-5.7,0a2.9,2.9,0,0,0-1.9-1.1l-2,4.6v1.9c0,1.6,0-.7-1.9,1.6s-2.9,1.2-4.8,3.5l-3.8,4.7c-1,1.2,0,1.2-4.8,3.5s-6.8,1.2-7.7,3.5-2.9,2.3-3.9,4.7-1.9,1.1-1.9,1.1a2.8,2.8,0,0,0-1.9,1.2,4.2,4.2,0,0,1-2.9,1.2s-1.1-1.2-1,0a3.9,3.9,0,0,1-.9,2.3h-1.3a3.4,3.4,0,0,0-2.5,1.2,17.4,17.4,0,0,1-2.9,2.3s0,1.2-1,1.2-2.9-2.4-3.8,0-2,2.3-2.9,3.5-1.9,0-3.9,1.1-.9,0-2.8,1.2-2,0-2.9,1.2-2.9,0-2.9,1.1,1,0-1,1.2-3.8,1.2-3.8,2.3-3.9,2.4-3.9,2.4a8.8,8.8,0,0,1-3.8,1.1c-1.9,0-2.9,1.2-3.8,1.2s-2.8-1.2-3.8,0-3,1.2-3,2.3-.9,1.2-.9,3.5,0,2.4-1.9,2.4-1,0-2-1.2a3.9,3.9,0,0,0-2.8-1.2l-2,1.2v2.3l-.9,1.2c-1,1.2-1,0-1.9,2.3s-2,3.5-2.9,3.5-2.9,0-3.9-1.1,0-3.5-1.9-2.4a7.9,7.9,0,0,0-3.4,3.5c-.4,1.2-1.4,2.4-1.4,3.5v2.7c0,.8-1,.8-1.9.8H1734c-1,0-4.8-3.5-3.9,0s1.9,2.4,0,4.7-3.8,2.3-4.8,3.5-1.9,2.3-3.8,2.3-1,0-3.9,1.2-3.8,1.2-4.8,2.3-1.9,1.2-3.8,2.4a11.6,11.6,0,0,0-2.9,2.3l-1.9,1.2s-3.4-1.2-3.1,0-.8,3.5-1.7,3.5-3.5-1.2-3.2,0-2.6,2.3-1.6,3.5,2.5.4-.2,2.5-3.7-.2-4.6,2.1-2.9,1.2-2.9,2.4-1.9,1.1-3.9,1.1,0-1.1-2.8,0-3.9-1.1-5.8,0a8.5,8.5,0,0,1-4.8,1.2,17.1,17.1,0,0,1-3.8-1.2s.9-2.3,0-1.1-.8,2.3-1.4,2.3-.6-2.3-1.5-1.2a3.2,3.2,0,0,1-2.9,1.2c-1,0-1.9-2.3-2.9-1.2s-2.9,0-2.9,1.2-1.3,0-2.5,0a17.1,17.1,0,0,0-4.2,1.2s-1-2.4-1.9-1.2-5.5,0-5.1,1.2-.7,1.1-1.6,0-2-4.7-3.9-2.4-2.9,1.2-3.8,2.4-2,0-3.9,0-3.8,0-4.8,1.1,1,3.5-1.9,3.5-2.9,0-3.8,1.2,0,1.2-2,2.3-2.8,2.4-4.8,3.5a10.5,10.5,0,0,1-4.8,1.2s-1.9-1.2-3.3,0-2.4,1.2-2.4,2.3-2,1.2-2,1.2-3.8,0-4.8,1.2-6.7,1.1-6.7,2.3-.9,1.2-1.9,2.3-1.9,0-1.9,1.2-1,2.3-1.9,3.5-5.8,2.3-5.8,3.5-1.9,0-2.9,2.3-2.9,1.2-2.9,2.4-4.8,1.1-4.8,2.3-2.9,2.3-3.8,2.3,0,0-1,1.2-2.9,0-3.8,1.2.9-1.2-2.9,2.3-5.8,3.5-5.8,3.5l-2.8,1.2s-2.9,0-2.9,1.1-2,2.4-2.9,2.4h-3.9l-1.9,1.1-2.9,1.2-1.9,1.2s-3.8,1.1-3.8,2.3-1.9,0-1,2.3.4,1.6-.3,3.7-2.6,3.3-2.6,4.5V547a8.4,8.4,0,0,1-2.8,1.2h-2c-.9,0-1.9-1.2-2.8,0s-3.9,0-3.9,1.1-1,1.2-1.9,1.2-1.9,1.2-2.9,1.2-1.9-1.2-1.9,0-1.9,1.1-3.9,2.3-1.9,2.3-2.8,2.3a18.3,18.3,0,0,0-3.9,1.2s-.3-1.2-2.5,0a7.6,7.6,0,0,1-4.2,1.2h-3.1c-1.7,0-1.7,0-2.7,1.1a6.8,6.8,0,0,1-3.8,2.4c-1,0-1.9,1.1-2.9,1.1s0,0-1,2.4-1.9,2.3-1.9,2.3a4.2,4.2,0,0,0-2.9,1.2c-.9,1.1-2.8,0-3.8,1.1s-3.8,1.2-3.8,1.2a3.9,3.9,0,0,1-2.9,1.2c-1.9,0-4.8,2.3-5.8,1.1s0-2.3-1.9-1.1a14.6,14.6,0,0,1-3.7,1.5s-.8,1.7-1.4,1.3-.7.4-2.1,0-2.7-1.6-3.5.1-3.7.6-3.7.6V575a2.3,2.3,0,0,1-1.9,2.3c-1,0,0-2.3-2-1.1s-3.8-1.2-4.8,0-2.8,2.3-3.8,2.3h-1.9c-1,0-2,1.2-2.9,1.2s-1-2.4-1.9-1.2a3.2,3.2,0,0,1-2.9,1.2c-1,0-1.9,1.1-2.9,1.1s-1.9-2.3-2.9-1.1l-2.9,3.5a8.8,8.8,0,0,1-2.8,1.1h-5.6c-3.1,0-4.1,1.2-5,1.2s-3.9-1.2-3.9,0-.9,2.3-2.8,2.3h-4.1a30,30,0,0,1-5.5-1.1s2.8-1.2-2.9,1.1-7.7,2.4-7.7,2.4-.5-1.2-1.7,0a18.6,18.6,0,0,1-4.1,2.3,8.2,8.2,0,0,1-2.9,1.2,6.5,6.5,0,0,0-3.8,1.1,38.8,38.8,0,0,1-4.8,2.4h-3l-4.7,2.3-2.9,2.3-5.7,1.2s-2.9,0-2.9,1.2a2.4,2.4,0,0,1-1.9,2.3c-1,0-2-1.2-2.9,0s-3.9,2.3-3.9,1.2-.9-1.2-1.9-1.2,0-1.2-1.9-2.3-3.8-2.4-3.8-1.2,2.8,2.3,1.9,3.5,0,1.2-1.9,2.3-4.8,0-4.8,1.2-3.9,2.3-3.9,2.3-1,2.4-1.9,0,0-1.1-1.9-1.1-2-1.2-2.9,0-1-1.2-1.9,1.1-2.9,3.5-3.9,3.5.2,1.2-2.8,0a13.7,13.7,0,0,0-3.9-1.1l-1,1.1c-.9,1.2-3.8,2.4-3.8,2.4h-2.9v2.3s-2.9,0-2.9,1.2,0,0-.9,2.3-2.9,1.2-3.9,3.5-3.8,3.5-3.8,4.7a14,14,0,0,1-1,3.5l-2.9,2.3h-2.8s-6.8,1.2-6.8,2.3-1.9,1.2-2.8,2.4l-2,2.3c-.9,1.2-4.8,2.3-4.8,2.3s-1.9,1.2-1.9,2.4-2.9,2.3-2.9,2.3l-2.9,2.3a2.8,2.8,0,0,0-1.9,1.2c-.9,1.2-1.9,2.3-3.8,2.3s-3.9,1.2-4.8,1.2-4.8,2.3-4.8,2.3a2.6,2.6,0,0,0-1.9,1.2c-1,1.2,0,1.2-1,2.3s0-1.1-1,3.5-.9,5.9-1.9,5.9,1-4.7-2.9,0-2.9,2.3-3.8,4.6-1,0-1.9,2.4,1.9,1.1-2,3.5-5.7,2.3-6.7,3.5-1.9-1.2-1.9,0-6.7,5.8-6.7,5.8h-2.9a9.3,9.3,0,0,0-4.8,2.3c-1,1.2-5.8,3.5-5.8,3.5l-2.9,1.2-1.9,1.2v1.1l-15.3,8.2s-3.9-7-3.4,0,7.2,3.5.5,7-24,8.2-24,8.2a18.9,18.9,0,0,0-2.9,4.6c-1,2.4-4.8,3.5-5.8,8.2s-9.6,7-14.4,10.5-17.3,7-17.3,12.8-8.6,10.5-8.6,14-22.1,5.9-21.2,10.5-2,2.4,0,13.4,5.3,15.8-.7,21-28.1,7.6-31,18.1-2.9,12.9-4.8,18.7,0,22.2,1,24.5,1.9-1.2-5.8,11.7-8.6,11.6-13.4,19.8-9.6,11.7-11.6,19.8S973.1,946,976,953s3,4.7-.4,8.7-15.9,17-15,24-1,7,0,13.4-2.8,9.9-3.8,13.4,1.9-5.8-1,3.5-3.8,7-3.8,14v16.3H4178.3L4194,287l-4-14-6-4s-5.1-9.7-5-8-9.4-8.7-10-7-6.4-11.9-7-9-3.4,3.2-4.4,4.3-6.7-18.3-8.6-16-2.9-20-5.8-16.5-7.7,1.2-9.6,3.5-.9,0-3.8,4.7-10.1,4.9-10.1,4.9c-2.4,2.1-6.3,2.1-5.3,4.4s-1,4.7-1.9,5.9-4.8-2.4-4.8,2.3-3.9,3.5-4.8,5.8-2.9,1.2-3.9,3.5-4.8,1.2-5.7,4.7-1,2.3-3.9,5.8-7.7,5.9-7.7,8.2,0,1.2-.9,5.8.9,4.7-2.9,5.9-6.7,0-8.6-3.5-5.8-5.9-6.8-7-7.6-3.5-8.6-3.5h-9.6s.9-1.2-2.9-1.2-4.8-3.5-7.7,0-8.6,5.8-11.5,4.7a70.3,70.3,0,0,0-7.7-2.4s-7.7-1.1-7.7,1.2-1.9,3.5-3.8,5.8-4.8,2.4-5.8,3.5-6.7,0-7.7,4.7,1.9,5.8-2.9,7-9.6,1.2-9.6,3.5-2.8,2.3-3.8,5.8-1.9,3.5-3.8,5.9-7.7,3.5-7.7,2.3,1.9-1.2,0-3.5-3.9-4.7-4.8-4.7,1.9-3.5-3.9-1.1-5.7-1.2-9.6,2.3-8.6,2.3-11.5,4.7-6.7,1.1-7.7,2.3-4.8,0-4.8,1.2-6.7,1.1-6.7,1.1l-2.9-5.8-7.7-1.2-8.6-1.1s.9-2.4-2.9-2.4-4.8-1.1-7.7,0-8.6,0-9.6,0-6.7-1.1-6.7-1.1h-5.8c1,0,1.9,0,0-2.4s-7.7-8.1-7.7-8.1a15.2,15.2,0,0,1-.9-3.5c0-1.2.9-1.2-1-2.4s-7.7-3.5-7.7-3.5a4.4,4.4,0,0,0-1.9-3.5c-1.9-1.1-8.7-5.8-8.7-5.8s1-2.3-.9-3.5-7.7-5.8-8.7-3.5-8.6,1.2-9.6-1.2-3.8-4.6-4.8-4.6-8.6-2.4-9.6-2.4-2.9-2.3-4.8-3.5-9.6-2.3-10.5,0-2.9,3.5-6.8,5.9-10.5,3.5-12.5,5.8-7.6,2.3-8.6,3.5-4.8,0-5.8,2.3-1.9,1.2-3.8,5.9-10.6,3.5-11.5,8.1,0,3.5-2.9,7-1-1.1-7.7,7-10.6,7-11.5,9.4-3.9,3.5-5.8,4.6,5.8-3.5-7.7,1.2-15.4,3.5-17.3,5.8-7.7,5.9-9.6,7-10.5,3.5-10.5,3.5h-8.7c-3.8,0-5.8-1.1-12.5-1.1s-10.6,0-13.4,1.1-1,1.2-8.7,0a28.3,28.3,0,0,0-13.4,1.2l-4.8,4.7-8.7-1.2s1.9-4.7-6.7,0-19.2,5.8-21.1,4.7,0-8.2-7.7-3.5-15.4,3.5-17.3,4.6,3.8,2.4-4.8-2.3-13.5-10.5-18.3-10.5-17.3-1.2-19.2-1.2-9.6-1.1-11.5-3.5-2.9-3.5-7.7-5.8-12.5-5.8-14.4-9.3-5.8-4.7-6.7-5.9-11.6-2.3-13.5-4.6-4.8-5.9-5.7-3.5-21.2,4.6-21.2,4.6,6.8-2.3-1.9,1.2-14.4,4.7-17.3,5.8-7.7,7-7.7,7,1-4.6-2.9,0-4.8,3.5-12.4,5.9-15.4,1.1-15.4,4.6-7.7,3.5-8.7,5.9-13.4,2.3-14.4,4.6-2.8,0-7.7,5.9-15.3,10.5-15.3,10.5.9,1.1-2.9,0-5.8-2.4-11.5-1.2-12.5,2.3-16.4,1.2-12.4-3.5-15.3-3.5-2.9,1.1-8.7-1.2a119.9,119.9,0,0,1-13.4-5.8c-9.6-4.7-21.2-7-20.2-8.2s10.6,5.8-1-3.5-24-12.8-24-14-1.9-4.7-1.9-4.7l-1.9-7s-8.7-2.3-13.5-1.1-8.6,2.3-11.5,2.3-17.3,1.2-19.2,1.2-11.5,0-13.5-1.2,5.8-3.5-11.5,0-12.5,0-12.5,0-11.5-4.7-11.5-2.3-6.7,0-6.7,0-5.8-4.7-8.7-4.7-18.2-2.3-18.2-2.3l-15.4-5.9s-6.7-4.6-11.5-2.3-22.1-2.3-22.1-2.3-2.9-4.7-4.8-3.5-11.5-1.2-14.4,0-10.6-2.4-12.5-1.2-12.5-5.8-16.3-4.7-22.1,2.2-22.6,1.1-5.3-4.6-5.3-4.6-14.4-4.6-15.4-4.6-20.1-5.9-22.1-7-11.5-3.5-15.3-5.9-11.6-4.6-16.4-5.8-12.5,0-22.1-5.8-10.5-7-14.4-8.2-24-4.7-25.9-5.8-8.7-5.9-9.6-8.2-4.2-4.7-6.9-6.4-8.5-2.9-10.4-2.9-12.5-2.4-14.4-2.4-9.6,0-11.5,2.4-5.5-2.4-12.4,2.9-14.5,1.7-16.5,6.4-6.7,8.2-9.6,9.3-9.6-2.3-12.5,0-13.4,7-13.4,7-9.6-2.3-10.6,1.2-8.6,2.3-11.5,4.7-6.7-1.2-8.6,2.3-9.7,2.3-15.4,5.8-9.6,1.2-21.2,3.5-13.4,1.2-16.3,2.4l-2.9,1.1-9.6-5.8c-3.8-2.3-6.7-5.8-7.7-4.7s-25.7-2-25.7-2,1.7-.3-6.9-3.8-8.7-2.3-12.5-4.7S2542.3,232.6,2542.3,232.6Z"/><path class="a" d="M10646,300.5s9-4.8,10.8-6.5,3.5-8.2,6.1-11.3,9.9-9.9,9.9-9.9,4.7-3.6,5.2-6.2a13.2,13.2,0,0,1,5.2-8c2.9-2,5.8-3.9,9.3-3.7s14.1-4.7,15-4.4.7-3.3,3.8-1.1,5.9.2,7.6,2.2,4.1,4.9,6.9,6,6.2-2.3,9.7-2.6,1.6.2,8.3-2.2,9-1.8,11.5-3.1,5.4-3.2,7.5-3.8,6.1-2.8,6.4-1.7,3.2-.8,4.2-1.1l7.5-2c1-.2,6.1-2.8,7.4-1.9s2.1-.6,4.3-1.2l8.5-2.2,5.3-1.4a2.3,2.3,0,0,0,2.8-2c.5-2.5.5-2.5,1.3-3.9a11.7,11.7,0,0,1,2.6-3.1l.4-2.6s3.7-3.4,4.4-4.8,3.7-3.4,3.7-3.4-.3-1.1,1.5-2.8,2.1-.5,2.9-2,.5-2.5,2.3-4.2a41.4,41.4,0,0,1,4.7-3.6l3.9-2.3s-1.3-.8-.4-1.7,5.8-8.2,5.8-8.2l1.8-1.7s4.2-1.1,5-2.5l2.3-4.2a26.7,26.7,0,0,1,3.9-2.3c1.1-.3,3.2-.8,2.9-2s2.8-6.7,1.7-6.4.3-.4-.3-1.9a9.3,9.3,0,0,1-.1-4.1l-2.9-6.4.5-2.5s1.2-4,.6-6.3.6-6.2.6-6.2.7,1.1,1.3-.3,4.2-4.8,5.3-5,4.4-4.8,4.4-4.8l.4-2.6c.5-2.5-.1-4.8,1-5s2.2.6,2.5-.7.1-2.4,1.9-4.1,4.4-4.8,5.5-5.1,4.7-3.7,4.7-3.7a4.2,4.2,0,0,1,2.8-1.9c2.2-.6.1,1.1,5.8-1.6a82.7,82.7,0,0,1,13.1-4.6s3.1-.9,3.9-2.3,1.1-.3,2.7-.7,8.8-2.9,8.8-2.9-4.6,1.9,4-1,8.9-1.9,9.4-4.4a12.8,12.8,0,0,0,.2-3.7s-.9-3.4.1-3.6,1.1-.3,2.9-2,3.5.3,2.9-2-.9-3.4,1.2-3.9,3.5.2,4-2.3-1.7-2,1.5-2.8l5.2-1.4-4-2.6s-2.4-.5-.6-2.2,1.8-1.4,2.7-2.4,1.1-4.7,3.2-5.2a10.9,10.9,0,0,0,4-2.3,2.2,2.2,0,0,1,1.5-2.8l5-1.3c1.4-.4,1.8-2.9,3.2-2.1s5.3-1.4,6.7-.5,2.4.5,4.5,0l5.3-1.5a13.3,13.3,0,0,1,3.5.3,25.2,25.2,0,0,1,4-2.2c1-.3,4.2-1.2,5-2.6l2.3-4.2a4.5,4.5,0,0,1,1.6,2c.3,1.1-1,.3.3,1.1a3.7,3.7,0,0,0,3.5.3l2.1-.6s.2-3.6,1.6-2.8a12.6,12.6,0,0,0,3.7,1.4,12.4,12.4,0,0,1,2.9-2c1.1-.2,3.7-3.3,4-2.2s2.4.5,2.7,1.7,3.2-.9,3.5.3-.5,2.5.1,4.8.3,1.1,1.8,2.5.9-.9,1.5,1.4,1.1-.3,1.7,2,1.7,1.9,2,3.1-2.5-.6.3,1.1,5.1,2.3,5.4,3.4,3.8,1.4,5.1,2.2.6,2.3,3.1,2.9,4.5,0,6.9.5,2.5.6,2.8,1.7,1.6,2,1.9,3.1,6.7-.5,7,.6.3,1.1,2.7,1.7,7.1-3.1,8.8-1.2,5.1,1.6,7.1,1.5h1.2s3.2-.9,4.9,1.1,1.3.8,1.6,2,2.8,1.6,4.1,2.5,5.3-1.4,6.2,2,4.7,4.8,4.7,4.8l1.7,1.9s3.9-2.2,4.2-1.1-.7,1.7.8,2.9,2.5,1,3.9,1.9,3.5.3,5.1,2.2,2.8,1.7,6.2,2,5.7-.3,7,.6,4.3-1.1,4.9,1.1,1.9,3,1.1,4.5-1.5,2.8-.7,1.4,3.6-3.3,3.6-3.3-4.8-1.2-.3-1.2,3.8,1.4,6,.9,5-2.6,5.6-.3-.5,2.5,3,2.8a5.2,5.2,0,0,1,4.4,3.7,14.4,14.4,0,0,1,3,2.8c1.6,2,3.6,5.1,3.6,5.1s.9,3.3,2.3,4.2,1.6,2,3,2.8,1.9,3.1,2.2,4.2,2.2-.5,3.8,1.5,3.1,2.8,2.3,4.2-.8,2.2,1.3,3.1,4.1.3,4.7,2.5-4.8-1.1.9,3.4,7.6,2.8,8.2,5.1,0,0,1.1-.3,4.2-1.1,4.5,0,2.4.6,2.7,1.7,2.2-.6,3.5.3,4.6,0,3.8,1.4-.3,1.4,1.1,3.4,2.8,2.8,3.9,2.5,2.1-.6,2.7,1.7,3,2.8,3.3,3.9-.7,1.4.6,2.3,3.8,1.4,4.1,2.5,2.1-.5,2.4.6.3,1.1,2.7,1.7-4.3-3.7,3.5.3,10.3,4.5,10.3,4.5,2.7,1.7,3.8,1.4a11.3,11.3,0,0,1,5.9.8c1.4.9,4.6,0,5.9.9l2.7,1.7c1.4.8,5.4-1.4,5.7-.3s3.7,1.4,4,2.5,3.5.3,3.5.3-.4-3.5.5-1.3,3.6,3.8,3.6,3.8l3.5.3s2.2-1.8,2.3-.6,3.6,1.5,5,2.3.3,1.1,2.7,1.7a7.8,7.8,0,0,0,3.5.3,3.1,3.1,0,0,1,2.4.6c1.3.8,4.7,4.7,4.7,4.7l2.4.6s-.1-1.2.6-.2,1.8.8,3.2,1.6,4.5,0,4.8,1.1,1.4.9,2.7,1.7,3.8,1.4,5.2,2.3,2.9-2,4.8,1.1,3.1,2.8,4.4,3.7,4.6,0,4.6,0l2.7,1.7c1.3.8.3,1.1,3.8,1.4s7.7-.9,8.3,1.4,4.4,3.7,4.4,3.7,4.2-1.2,5.6-.3,5.9.8,5.9.8.5-2.5,1.4.9,3.3,3.9,3.6,5,.3,1.2-.2,3.7-.8,1.4.9,3.4,1.1-.3,1.8,2.5.8,2.8,2.1,3.7a18.8,18.8,0,0,0,3.8,1.4s1.1-1.5,4.4-1.2,5.2-1.3,7.6-.8a68.1,68.1,0,0,0,9.4,1.2c3.5.2,3.2-.9,7.7-.9s7,.6,8,.3,2.9-2,6.4-1.7,5.5-.2,6.3-1.7a3.5,3.5,0,0,1,1.9-1.7l3.3,4,.5,1.8c.4,1.6-.2-.7,2.6,1s3.4.3,6.2,2l5.4,3.3c1.4.9.3,1.2,6.2,2s7.7-.8,9.4,1.1,3.8,1.5,5.4,3.4,2.5.6,2.5.6a3.1,3.1,0,0,1,2.4.6,5.3,5.3,0,0,0,3.5.2s.9-1.4,1.1-.3a3.5,3.5,0,0,0,1.6,2l1.4-.3a4.4,4.4,0,0,1,3.1.3,13.9,13.9,0,0,0,3.8,1.4s.3,1.2,1.4.9,2.6-3.1,4.2-1.1,2.8,1.6,4.1,2.5,2.1-.6,4.6,0,1-.3,3.4.3,2.2-.6,3.5.3,3.2-.9,3.5.2-1,.3,1.4.9,4.5,0,4.8,1.1,4.9,1.1,4.9,1.1a10,10,0,0,0,4.5,0c2.1-.5,3.5.3,4.6,0s2.7-1.9,4.1-1.1,3.6.3,3.9,1.4,1.4.9,2,3.1.6,2.3,2.7,1.7,1-.3,1.8-1.7a5.1,5.1,0,0,1,2.9-1.9l2.4.5.6,2.3,1.4.8c1.3.9,1-.3,2.7,1.7s3,2.8,4.1,2.5,3.2-.8,3.9-2.2-.9-3.4,1.5-2.8,4,1.3,4.7,2.3,2.1,1.9,2.4,3l.7,2.6c.2.8,1.3.5,2.4.2l3.7-.9,3.7-1c1.1-.3,4.4-4.8,4.2-1.2s-1.5,2.9,1.2,4.6,4.9,1.1,6.3,1.9a5.5,5.5,0,0,0,4.8,1.2c2.1-.6,1.1-.3,4.5,0s4.6,0,6,.8,2.4.6,4.8,1.1a16.3,16.3,0,0,1,3.8,1.4l2.4.6s3.4-2.1,3.5-.9,1.6,3.2,2.7,2.9,3.6-2.2,3.6-1,3.4,1.5,2.6,3-2.6,1.1.9,2.3,4-1.2,5.6.8,3.5.2,3.8,1.4,2.4.5,4.6,0-.3-1.2,3.1-.9,4-2.2,6.4-1.7a10.6,10.6,0,0,0,5.6-.3c1.1-.2,4-2.2,4-2.2s-1.7-2-.3-1.1,1.4,2,2.1,1.8,0-2.4,1.3-1.6a3.7,3.7,0,0,0,3.5.3c1.1-.3,1.6-2.8,2.9-1.9s3.2-.9,3.5.2,1.4-.3,2.8-.7a20.6,20.6,0,0,1,4.9-.1s.5-2.6,1.9-1.7,6-1.6,5.9-.4,1,1,1.8-.5.9-5,3.6-3.3,3.5.2,4.9,1.1,2.1-.6,4.2-1.1,4.3-1.2,5.6-.3-.1,3.7,3.1,2.8,3.1-.8,4.5,0,.3,1.1,2.7,1.7,3.8,1.4,6.2,2a14.9,14.9,0,0,0,5.6-.3s1.9-1.7,3.8-1,2.9.4,3.2,1.6,2.4.5,2.4.5,4.3-1.1,5.6-.3,7.8-.8,8.1.3,1.3.9,2.7,1.7,2.1-.6,2.4.6,1.7,1.9,3,2.8,7,.6,7.3,1.7,2.1-.6,3.8,1.4,3.5.3,3.8,1.4,5.6-.3,5.9.8,3.8,1.5,4.8,1.2,0,0,1.4.8,3.2-.8,4.5,0-1.3-.8,3.8,1.4,7.3,1.7,7.3,1.7l3.5.3s3.2-.8,3.5.3,2.7,1.7,3.7,1.4l4.4-1.2a15.5,15.5,0,0,0,2.3.6l3.5.3,2.4.6s4.6,0,4.9,1.1,2.1-.6,1.6,2,0,1.6,1.3,3.5,3.7,2.4,4,3.5l.9,3.4a10,10,0,0,0,3.5.3l2.1-.6c1.1-.3,1.8-1.7,3.2-.8s4.2-1.1,4.5,0,1.4.8,2.5.5,2.4.6,3.4.3,1.9-1.7,2.2-.5,2.4.5,4.8,1.1,2.7,1.7,3.8,1.4a21.8,21.8,0,0,1,4.5,0s.1-1.2,2.9-.8a10.8,10.8,0,0,0,4.9,0l3.3-.9c2-.6,2-.6,3.3.3s3.8,1.4,4.9,1.1,2.4.6,3.5.3,0,0,1.6,2,2.8,1.7,2.8,1.7a5,5,0,0,1,3.4.2c1.4.9,3.2-.8,4.6,0s4.5,0,4.5,0a4.5,4.5,0,0,0,3.5.3c2.1-.5,5.9.9,6.7-.5s-.6-2.3,1.8-1.7a16.8,16.8,0,0,0,4.5.3s1.3,1.5,1.9.9.8.2,2.3-.6,2.6-2.4,3.9-.9,4.2-.6,4.2-.6l-.3-1.1a2.5,2.5,0,0,0,2.8,1.7c1-.3-.6-2.3,1.8-1.7s3.9-2.3,5.3-1.4,3.8,1.4,4.8,1.1l2.2-.5c1-.3,2.4.5,3.4.2s.5-2.5,1.9-1.7a3.7,3.7,0,0,0,3.5.3c1-.3,2.4.6,3.4.3s1.6-2.8,2.9-2l4.1,2.6a13.3,13.3,0,0,0,3.5.3l4.2-1.2,2-.5c3.4-.9,4.7,0,5.8-.3s3.9-2.3,4.2-1.1,1.7,1.9,3.8,1.4l4.5-1.2a35,35,0,0,0,5.8-2.8l3.5.3c7,.6,9.1,0,9.1,0s.2-1.3,1.9-.5a19.2,19.2,0,0,0,5.1,1.1,10.8,10.8,0,0,0,3.5.2,9.3,9.3,0,0,1,4.5,0,46.5,46.5,0,0,0,5.9.9l3.3-.9,5.8.9,3.8,1.4,6.7-.6s3.1-.8,3.4.3a2.4,2.4,0,0,0,2.8,1.7c1-.3,1.8-1.7,3.1-.8s4.9,1.1,4.6,0,.8-1.4,1.8-1.7-.3-1.2,1.5-2.8,3.7-3.4,4-2.3-2.6,3.1-1.2,4,.3,1.1,2.7,1.6,5.3-1.4,5.6-.2,4.8,1.1,4.8,1.1,1.7,2,2.2-.6-.3-1.1,1.8-1.7,1.8-1.7,3.2-.8.7-1.4,2.4.6,4.1,2.5,5.1,2.2.2,1.2,3.1-.8a18,18,0,0,1,4.1-2.3l1.3.9c1.4.8,4.9,1.1,4.9,1.1l3.2-.9.6,2.3s3.1-.9,3.4.3,0,0,1.7,1.9,3.5.3,5.1,2.3,5.2,2.3,5.5,3.4a12.6,12.6,0,0,0,2,3.1l3.7,1.4,3.2-.9s7.8-.8,8.1.3,2.4.6,3.7,1.4l2.8,1.7c1.3.9,5.9.9,5.9.9s2.4.5,2.7,1.7,3.8,1.4,3.8,1.4l3.8,1.4a3.1,3.1,0,0,1,2.4.6,5.8,5.8,0,0,0,4.8,1.1c2.1-.6,4.6,0,5.6-.3s5.9.8,5.9.8a4,4,0,0,1,2.5.6c1.3.9.3,1.1,1.6,2s-.3-1.1,2,3.1,2.5,5.3,3.6,5.1-2.3-4.3,3.2-.9,3.8,1.4,5.4,3.4,1.1-.3,2.8,1.7-1.9,1.7,3,2.8,6.9.6,8.3,1.4,1.8-1.7,2.1-.6,9,3.7,9,3.7l3.1-.8a11.3,11.3,0,0,1,5.9.8c1.4.9,7.3,1.7,7.3,1.7l3.5.3,2.4.6.3,1.1,19.1,3.4s2.5-7.9,3.7-1-7,5.5,1.3,6.9,28.6.8,28.6.8a22.5,22.5,0,0,1,4.4,3.7c1.7,2,6.2,2,8.5,6.2s12.4,3.9,18.6,5.9,20.9,1.7,22.4,7.3,12.2,7.7,13.1,11,26-.8,26.1,4,2.8,1.7,3.5,12.9-1.9,16.8,6.1,20.1,33-.9,38.9,8.4,6.5,11.6,10.1,16.7,5.7,21.4,5.2,23.9-2.4-.5,9.4,9.6,12.5,8.7,19.9,15.2,13.7,8.5,17.9,15.8,18.9,7.1,17.5,14.7-2.1,5.4,2.7,8.3,21.9,11.7,22.7,18.7,2.9,6.5,3.5,13,5.6,8.7,7.6,11.8-3.6-5,2,3.1,6,5.7,7.8,12.4l3.6,13.8.6,2L9455,1149,8832.6,760.2l4.6-1.2,4.2-1.1s2-2.4,2.4-.7,2.4-2.4,3.5-.9,2.9-3.8,4.3-1.1,2.9-.2,4.3.6,6.8-4.2,9.5-2.5,3.2-.8,7.3,1.7,8.8-1.1,11.5.6,1.1-.3,5.4,3.3,12.4,1.8,12.4,1.8c3.2,1.3,7.5.2,7,2.8s2.3,4.2,3.6,5,4.7-3.6,5.9.9,5.2,2.2,6.8,4.2,3.5.3,5.2,2.3,5.6-.3,7.6,2.8,1.6,1.9,5.7,4.5,10,3.4,10.6,5.6.3,1.2,2.6,5.4.1,4.8,4.6,4.8,7.5-2,8.7-5.9,4.9-7.4,5.6-8.8,7.6-5.6,8.7-5.9l10.6-2.8s-1.4-.9,2.9-2,4.4-4.8,8.5-2.3,11,3.1,13.9,1.2a83.5,83.5,0,0,1,7.9-4.5s8.2-3.4,8.8-1.2,3,2.9,5.8,4.5,5.9.9,7.2,1.7,7.5-1.9,9.7,2.3-.6,6.2,5,5.9,10.9-1.7,11.5.6,3.8,1.4,5.8,4.5,3,2.8,5.7,4.5,9.4,1.1,9.1,0-2.4-.6-.9-3.4,3-5.6,4.1-5.9-3-2.8,3.9-2.3,6.1-2.8,11.3-.5,10.1-.3,13.9,1.1,7.7-.8,9.1,0,5.3-1.4,5.6-.3,7.7-.8,7.7-.8l1.7-6.5,8.2-3.4,9.3-3.7s-1.7-1.9,2.6-3.1,5-2.5,8.5-2.2,9.5-2.5,10.6-2.8,7.1-3.1,7.1-3.1l6.4-1.7c-1.1.3-2.2.5-.6-2.3s6.4-10.1,6.4-10.1a13.2,13.2,0,0,0,.1-3.7c-.3-1.1-1.3-.8.5-2.5s7.6-5.7,7.6-5.7a4.1,4.1,0,0,1,1.2-3.9c1.8-1.7,8.1-8.2,8.1-8.2s-1.7-2,.1-3.6,7-7.9,8.7-6,9.9-1.4,10.3-3.9,3.1-5.7,4.1-5.9,9-4.8,10-5.1,2.6-3.1,4.5-4.8,10-5.1,11.6-3.1,4.1,2.5,9,3.7,12.5.2,15.3,1.9,9.1,0,10.4.9,5.3-1.4,7,.5,2.4.6,5.7,4.6,12.6.2,14.9,4.5.9,3.4,4.9,5.9.8-1.4,10.3,4.5,13.5,3.7,15.2,5.6,5.1,2.3,7.5,2.9-7.2-1.7,8.8-1.2,17.9-1.1,20.6.6,10,3.4,12.5,3.9,12.5.3,12.5.3l9.6-2.5c4.2-1.1,6.1-2.8,13.5-4.8s11.7-3.1,15.1-2.8,1.4.8,9.6-2.6a37.7,37.7,0,0,1,15.2-2.8l6.5,3.1,9.2-3.6s-3.3-4,7.5-2,22.7,0,24.5-1.7-2.1-7.9,7.6-5.6,17.9-1.2,20.3-.6-3.6,3.4,4.7-3.7,12.2-14.1,17.5-15.5,18.8-6.2,20.9-6.7,10.4-4,11.9-6.8,2.3-4.2,7-7.9,12.3-9.3,13.5-13.2,5.2-6.2,5.9-7.7,12.2-5.6,13.7-8.4,3.8-7.1,5.5-5.1,24.5-1.7,24.5-1.7-8-.3,2.5.6,17.1.3,20.6.5,10.3,4.6,10.3,4.6-2.3-4.3,3.1-.9,6.3,2,15.3,2,17.3-3.4,18.2,0,9.4,1.1,11.1,3.1,15.4-1.7,17.1.3,3.2-.9,10,3.4,19.7,5.6,19.7,5.6-.8,1.4,3.2-.9,5.7-3.9,12.4-4.5,14.4-1.4,18.4-3.6,12.9-7.1,16-7.9,3.5.3,9.3-3.7a124.4,124.4,0,0,0,13.4-9.6c9.4-7.3,21.5-12.9,20.2-13.8s-10.2,8.8.1-3.6,23.3-19.5,23-20.6.9-5.1.9-5.1l.3-7.3s9-4.8,14.6-5.1,10.1-.3,13.3-1.1,19.4-4,21.6-4.5,12.7-3.4,14.5-5.1-7.2-1.7,12.8-3.4,13.8-3.7,13.8-3.7,11.5-7.9,12.1-5.6,7.4-2,7.4-2,5.2-6.2,8.4-7,19.6-7.6,19.6-7.6l15.5-10.2s6.2-6.5,12.1-5.6,23.8-8.8,23.8-8.8,2-5.3,4.4-4.7,12.5-4.6,16-4.3,11-5.3,13.5-4.8,12.3-9.3,16.8-9.3,25-4.3,25.3-5.5,4.6-6,4.6-6,14.7-8.8,15.8-9,20.8-11.6,22.6-13.3,11.9-6.8,15.5-10.1,11.6-7.9,16.6-10.5,13.8-3.6,22.9-12.1,9.9-9.9,13.8-12.1,25.4-11.6,27.2-13.3,8-8.1,8.5-10.7,3.4-5.7,6-8.2,8.6-5.3,10.7-5.9,13.2-5.9,15.4-6.5,10.6-2.8,13.3-1.1,5.4-3.8,14.4-.8,16.5-2.6,19.8,1.4,9.6,5.9,13,6.2,10.1-5.1,13.9-3.7,16.6,2.8,16.6,2.8,10-5,12-1.9,10.1-.3,13.9,1.1,7.2-3.1,10.2-.3,11.2-.5,18.5,1.1,10.9-1.6,24.2-2.8,15.2-2.8,18.7-2.5l3.5.3,9.1-8.5c3.6-3.4,5.9-7.6,7.3-6.8s27.9-9.4,27.9-9.4-2,.1,6.7-5.8,8.9-4.8,12.6-8.1S10646,300.5,10646,300.5Z"/><path class="a" d="M13346.8,420.4s6.6-1.3,8.1-2,3.8-4.6,6.1-6.1,8.2-4.4,8.2-4.4,3.7-1.4,4.4-3a9.2,9.2,0,0,1,4.9-4.1c2.3-.7,4.5-1.4,6.6-.6s10-.3,10.5.1,1.1-2,2.6,0,3.8,1.3,4.4,2.8,1.7,4,3.3,5.2,4.4-.3,6.7.2,1,.4,5.7.2,6.1.6,8,.2a43.1,43.1,0,0,1,5.5-1c1.4.1,4.4-.6,4.4.2s2.2,0,2.9.1h5.1c.8.1,4.4-.6,5.1.2s1.5,0,3,.1l5.8.2h3.7a1.6,1.6,0,0,0,2.2-.7,5.9,5.9,0,0,1,1.5-2.3,9.8,9.8,0,0,1,2.3-1.5l.8-1.5a31,31,0,0,0,3.7-2.2,10,10,0,0,1,3-1.5s0-.8,1.5-1.5,1.5,0,2.2-.7.8-1.6,2.3-2.3a38,38,0,0,1,3.7-1.4l2.9-.7s-.7-.8.1-1.2,5.2-4.1,5.2-4.1l1.5-.7s2.9.1,3.7-.7l2.3-2.2a11.1,11.1,0,0,1,2.9-.7c.8,0,2.2,0,2.2-.7s3.1-3.8,2.4-3.9.2-.1.1-1.2a5.9,5.9,0,0,1,.7-2.6l-.6-4.7.8-1.5a10.8,10.8,0,0,0,1.6-3.9c0-1.5,1.6-3.8,1.6-3.8s.2.8.8,0a12.1,12.1,0,0,1,4.4-2.2c.7,0,3.7-2.2,3.7-2.2l.8-1.5c.8-1.6.8-3.1,1.5-3.1s1.3.8,1.8.1.5-1.6,2-2.3,3.7-2.2,4.4-2.2a19.4,19.4,0,0,0,3.8-1.4,3,3,0,0,1,2.2-.8c1.4.1-.2.8,3.9.2a53.8,53.8,0,0,1,9.3-.5s2.2.1,2.9-.7.8,0,1.8.1l6.2-.2s-3.3.3,2.8.1,6.1.5,6.8-1a5.6,5.6,0,0,0,.8-2.3s.1-2.3.8-2.3.8,0,2.3-.7,2.1.8,2.2-.7.1-2.4,1.5-2.3,2.2.8,3-.7-.7-1.6,1.5-1.5h3.6l-2.1-2.4s-1.4-.8.1-1.6a17.2,17.2,0,0,0,2.2-1c.7-.4,1.5-2.7,3-2.7a6.4,6.4,0,0,0,3-.7,1.5,1.5,0,0,1,1.5-1.5h3.4c1,.1,1.7-1.5,2.5-.7s3.6.1,4.3.9,1.5.9,2.9.9h3.7a10.4,10.4,0,0,1,2.2.9,17.6,17.6,0,0,1,2.9-.7c.7,0,2.9.1,3.7-.7l2.3-2.2a2.3,2.3,0,0,1,.6,1.5c0,.8-.7,0,0,.8a3,3,0,0,0,2.2.9h1.4s.9-2.3,1.6-1.5a10,10,0,0,0,2.1,1.6,8,8,0,0,1,2.2-.7c.8,0,3-1.4,3-.7s1.4.9,1.4,1.6,2.2.1,2.2.9-.8,1.5-.9,3.1,0,.7.7,1.9.7-.3.7,1.2.7,0,.7,1.6.7,1.6.6,2.4-1.4-.9,0,.7,2.9,2.5,2.8,3.2,2.2,1.7,2.9,2.5,0,1.5,1.4,2.3,2.9.9,4.3,1.7,1.5.9,1.4,1.6.7,1.6.7,2.4,4.4.9,4.3,1.7,0,.8,1.5,1.6,5.1-.6,5.8.9,3,2,4.2,2.3l.8.2s2.2.1,2.9,1.7.7.8.7,1.6,1.4,1.6,2.1,2.4,3.7.1,3.6,2.4,2.1,4,2.1,4l.7,1.5s2.9-.7,2.9.1-.8,1-.1,2.1,1.5,1.1,2.2,1.9,2.1.8,2.8,2.4,1.4,1.6,3.6,2.4,3.6.9,4.3,1.7,3,.1,2.9,1.7.7,2.3-.1,3.1-1.5,1.5-.7.8a8.7,8.7,0,0,1,2.9-1.5s-2.8-1.7.1-.8,2.1,1.6,3.6,1.7,3.7-.7,3.6.9-.8,1.5,1.4,2.4a3.2,3.2,0,0,1,2.1,3.1,10,10,0,0,1,1.4,2.4,32.1,32.1,0,0,1,1.3,3.9s0,2.4.7,3.2.6,1.5,1.4,2.3.6,2.4.6,3.2,1.5,0,2.1,1.6,1.4,2.4.7,3.1-.9,1.3.2,2.2,2.6,1,2.6,2.6-2.9-1.7-.1,2.3,4.3,3.3,4.2,4.8,0,0,.8,0,2.9.1,2.9.9,1.4.8,1.4,1.6,1.4.1,2.1.9,2.9.8,2.2,1.6-.5.8.1,2.4,1.2,2.3,1.9,2.3,1.5.1,1.5,1.6,1.3,2.4,1.3,3.2-.7.7,0,1.5,2.1,1.6,2.1,2.4,1.5.1,1.4.8,0,.8,1.4,1.6-2.1-3.1,2.2.9a41.7,41.7,0,0,0,5.7,4.8s1.4,1.6,2.2,1.7a7.2,7.2,0,0,1,3.6,1.6c.7.8,2.9.9,3.6,1.7l1.4,1.6c.7.8,3.7.1,3.6.9s2.2,1.6,2.2,2.4,2.1.8,2.1.8.4-2.3.6-.7a6.3,6.3,0,0,0,1.6,3.1l2.1.9s1.8-.7,1.6,0,2,1.7,2.7,2.5,0,.7,1.5,1.6a4.9,4.9,0,0,0,2.1.8,2.2,2.2,0,0,1,1.5.8,24.2,24.2,0,0,1,2,4l1.5.8s.2-.8.4,0,1,.8,1.7,1.6,2.9.9,2.9,1.7.7.8,1.4,1.6,2.2,1.6,2.9,2.4,2.2-.7,2.8,1.6,1.4,2.4,2.1,3.2,2.9.9,2.9.9l1.5,1.6c.7.8-.1.8,2.1,1.6s5.1,1,5.1,2.5,2.1,3.2,2.1,3.2,2.9.1,3.6.9,3.6,1.7,3.6,1.7.8-1.6.7.8,1.4,3.1,1.3,3.9,0,.8-.8,2.3-.7.7,0,2.3.7,0,.6,2,0,1.9.7,2.7a12.3,12.3,0,0,0,2.1,1.7s1-.8,3.1.1,3.5.1,5,.9a45.7,45.7,0,0,0,5.7,2.5c2.2.8,2.2.1,5.1.9s4.4,1.7,5.1,1.8,2.2-.8,4.4.1,3.6.9,4.3.1a2.7,2.7,0,0,1,1.6-.7l1.3,3.2v1.2c0,1.1,0-.5,1.4,1.1s2.2.9,3.6,2.5l2.8,3.2c.8.8,0,.8,3.6,2.4s5.1,1,5.8,2.5,2.2,1.7,2.8,3.2,1.5.9,1.5.9a2.1,2.1,0,0,1,1.4.8,3.4,3.4,0,0,0,2.2.8s.9-.7.8.1a2.3,2.3,0,0,0,.6,1.5h1a2.8,2.8,0,0,1,1.9.8,9.7,9.7,0,0,0,2.2,1.6.7.7,0,0,0,.7.8c.7.1,2.2-1.5,2.9.1s1.4,1.6,2.1,2.4,1.5.1,2.9.9.7,0,2.2.8,1.4.1,2.2.9,2.2.1,2.1.8-.7,0,.7.8,2.9.9,2.9,1.7,2.9,1.6,2.9,1.6a7.7,7.7,0,0,0,2.9.9c1.5,0,2.2.8,2.9.9s2.1-.8,2.9.1,2.2.8,2.2,1.6.7.8.6,2.3,0,1.6,1.4,1.6.8.1,1.5-.7a3.2,3.2,0,0,1,2.2-.7l1.5.8v1.6l.7.8c.8.8.8,0,1.5,1.6s1.4,2.3,2.1,2.4,2.2,0,2.9-.7.1-2.3,1.5-1.5a5.1,5.1,0,0,1,2.6,2.4c.3.8,1,1.6,1,2.4v1.7c0,.6.7.6,1.4.6h5.2c.7,0,3.7-2.2,2.9.1s-1.5,1.5-.1,3.1,2.9,1.6,3.6,2.4a3.9,3.9,0,0,0,2.9,1.7c1.4,0,.7,0,2.9.9s2.9.8,3.6,1.6,1.4.9,2.9,1.7a8.8,8.8,0,0,1,2.1,1.6l1.4.8s2.6-.7,2.4.1.5,2.3,1.2,2.4,2.7-.7,2.5,0,1.9,1.7,1.1,2.4-1.9.2.1,1.7,2.8,0,3.5,1.5,2.1.9,2.1,1.7,1.5.8,2.9.8,0-.7,2.2.1,3-.7,4.4.1a6.5,6.5,0,0,0,3.6.9,11,11,0,0,0,3-.7s-.7-1.5,0-.7.6,1.5,1,1.6.5-1.6,1.2-.8a2.9,2.9,0,0,0,2.2.9c.7,0,1.5-1.5,2.2-.7s2.2,0,2.1.8,1,0,2,.1a13,13,0,0,1,3.1.8s.8-1.5,1.5-.7,4.2.1,3.9.9.5.8,1.2,0,1.6-3,3-1.4,2.2.8,2.9,1.6,1.5.1,2.9.1,2.9.1,3.6.9-.8,2.3,1.4,2.4,2.2.1,2.9.9,0,.7,1.5,1.6,2.1,1.6,3.5,2.4a10.3,10.3,0,0,0,3.7.9,2.7,2.7,0,0,1,2.5.1c1.1.8,1.8.8,1.8,1.6s1.5.8,1.5.8,2.9.1,3.6.9,5.1.9,5.1,1.7.7.8,1.4,1.6,1.4.1,1.4.8a4.3,4.3,0,0,0,1.4,2.4c.7.8,4.3,1.7,4.3,2.5s1.5,0,2.2,1.6,2.1.9,2.1,1.6,3.7.9,3.6,1.7,2.2,1.6,2.9,1.7,0,0,.7.8,2.2,0,2.9.8-.7-.8,2.2,1.6,4.3,2.5,4.3,2.5l2.2.9s2.1,0,2.1.8,1.4,1.6,2.2,1.6h3l1.3.8,2.2.9,1.4.8s2.9.9,2.9,1.7,1.5,0,.7,1.5-.4,1.1.1,2.5,2,2.3,1.9,3v2.4a6.5,6.5,0,0,0,2.1.8h1.5c.7,0,1.5-.8,2.2,0s2.9.1,2.9.9.7.8,1.4.8,1.5.9,2.2.9,1.5-.8,1.5,0,1.4.9,2.8,1.7,1.5,1.6,2.2,1.6a14.4,14.4,0,0,1,2.9.9s.3-.8,1.9,0a5.9,5.9,0,0,0,3.2.9h2.3c1.3,0,1.3,0,2.1.8a6,6,0,0,0,2.8,1.7c.8,0,1.5.8,2.2.8s0,0,.7,1.6,1.4,1.6,1.4,1.6a3.4,3.4,0,0,1,2.2.8c.7.8,2.2.1,2.9.9s2.9.9,2.9.9a2.9,2.9,0,0,0,2.1.8c1.5.1,3.7,1.7,4.4.9s.1-1.5,1.5-.7a11,11,0,0,0,2.8,1.1s.5,1.2,1,.9.5.3,1.6,0,2.1-1,2.7.2,2.8.5,2.8.5.1-1.6,0-.8a1.6,1.6,0,0,0,1.4,1.6c.8,0,.1-1.5,1.5-.7s3-.7,3.7.1a5,5,0,0,0,2.9,1.6h1.4c.8,0,1.5.8,2.2.8s.8-1.5,1.5-.7a2.5,2.5,0,0,0,2.2.8c.7.1,1.4.9,2.1.9s1.5-1.5,2.2-.7l2.2,2.4a6.5,6.5,0,0,0,2.1.8h4.3c2.3,0,3,.8,3.8.9s2.9-.7,2.9,0,.7,1.6,2.1,1.7h3.2a29.3,29.3,0,0,0,4.2-.7l2.2.9c4.3,1.7,5.8,1.7,5.8,1.7s.3-.8,1.2.1a12.8,12.8,0,0,0,3.1,1.6,6.4,6.4,0,0,0,2.2.8,6.8,6.8,0,0,1,2.9.9,38.2,38.2,0,0,0,3.6,1.7h2.2l3.6,1.6,2.1,1.7,4.4.9s2.2,0,2.2.8a1.5,1.5,0,0,0,1.4,1.6c.7,0,1.5-.7,2.2.1s2.9,1.6,2.9.9.7-.8,1.5-.8,0-.8,1.5-1.5,3-1.5,2.9-.7-2.2,1.5-1.5,2.3,0,.8,1.4,1.6,3.7.1,3.6.9,2.9,1.7,2.9,1.7.7,1.5,1.5,0,0-.8,1.5-.7,1.5-.8,2.2,0,.7-.7,1.4.9a4,4,0,0,0,2.9,2.4c.7,0-.2.8,2.1,0a8.8,8.8,0,0,1,3-.6l.7.8a9.7,9.7,0,0,0,2.9,1.6h2.2v1.5s2.2.1,2.2.9,0,0,.7,1.6,2.2.8,2.9,2.4,2.8,2.4,2.8,3.2a8.8,8.8,0,0,0,.6,2.3l2.2,1.7h2.2s5.1,1,5.1,1.7,1.4.9,2.1,1.7l1.4,1.6c.7.8,3.6,1.6,3.6,1.6s1.5.9,1.4,1.6,2.2,1.7,2.2,1.7l2.1,1.6a2.2,2.2,0,0,1,1.5.8,3.9,3.9,0,0,0,2.8,1.7c1.5,0,3,.8,3.7.8a25,25,0,0,1,3.6,1.7,2.1,2.1,0,0,1,1.4.8c.7.8,0,.8.7,1.6s0-.8.7,2.4.6,3.9,1.3,3.9-.6-3.1,2.2.1,2.2,1.6,2.8,3.2.8,0,1.5,1.6-1.5.7,1.3,2.4,4.4,1.6,5.1,2.4,1.5-.7,1.5.1,5,4,5,4h2.2a7.4,7.4,0,0,1,3.6,1.7c.7.8,4.3,2.4,4.3,2.4l2.1.9,1.5.8v.8l11.5,5.8s3.1-4.6,2.6.1-5.6,2.1-.6,4.6,18.2,6,18.2,6a14.9,14.9,0,0,1,2.1,3.2c.7,1.6,3.6,2.5,4.2,5.6s7.2,4.9,10.7,7.3,13.1,5.1,12.9,9,6.4,7.2,6.3,9.5,16.7,4.5,15.9,7.5,1.5,1.6-.2,9-4.4,10.3,0,14,21.3,5.7,23.3,12.8,1.9,8.6,3.2,12.5-.4,14.8-1.2,16.3-1.4-.8,4.1,7.9,6.4,8,9.9,13.6,7,8,8.3,13.5,10.8,8.1,8.4,12.7-2.3,3,.2,5.8,11.7,11.7,10.8,16.3.7,4.7-.2,8.9,2,6.7,2.6,9.1-1.3-4,.7,2.3,2.7,4.8,2.6,9.4l-.3,9.5v1.4L12424.1,734.5l-323-367.3h6.1s1.7-1.1,1.6.1,2-1.1,2.4.1,2.6-1.9,2.9.1,1.9.4,2.7,1.2,5.1-1.4,6.5.2,2.2.1,4.4,2.5,5.8.9,7.2,2.5.7.1,2.8,3.2,7.6,3.5,7.6,3.5c1.8,1.5,4.7,1.6,3.9,3.1s.7,3.2,1.4,4,3.7-1.5,3.6,1.6,2.8,2.5,3.5,4,2.2.9,2.9,2.5,3.6.9,4.3,3.2.7,1.6,2.8,4,5.7,4.1,5.7,5.6-.1.8.6,3.9-.9,3.1,2,4,5.2.1,6.7-2.2,4.5-3.7,5.3-4.5,5.9-2.1,6.6-2.1l7.4.3s-.8-.8,2.2-.8,3.7-2.2,5.8.2,6.5,4.1,8.7,3.4,5.9-1.4,5.9-1.4,5.9-.6,5.8,1,1.4,2.4,2.8,4,3.7,1.7,4.4,2.5,5.1.1,5.7,3.2-1.6,3.9,2.1,4.8,7.3,1,7.2,2.5,2.2,1.7,2.8,4,1.4,2.4,2.8,4,5.8,2.5,5.8,1.7-1.4-.8.1-2.3,3-3,3.8-3-1.4-2.4,2.9-.7,4.4-.6,7.3,1.8,6.5,1.8,8.7,3.4,5.1.9,5.8,1.7,3.6.1,3.6.9,5.1,1,5.1,1l2.3-3.9,5.9-.5,6.6-.6s-.7-1.6,2.2-1.5,3.7-.7,5.9.2,6.6.2,7.3.2l5.2-.6h4.4c-.8,0-1.5,0,0-1.5s6-5.3,6-5.3a7.2,7.2,0,0,0,.8-2.3c.1-.8-.7-.8.8-1.5s5.9-2.2,5.9-2.2a3,3,0,0,1,1.6-2.3c1.5-.7,6.7-3.6,6.7-3.6a1.7,1.7,0,0,1,.8-2.3c1.5-.8,6-3.7,6.7-2.2s6.5,1,7.3-.5,3-3,3.8-3,6.6-1.4,7.3-1.3,2.3-1.5,3.7-2.2,7.4-1.4,8.1.2,2.1,2.4,5,4.1,8,2.5,9.4,4.1,5.8,1.8,6.5,2.6,3.7.1,4.3,1.7,1.5.8,2.8,4,8,2.5,8.7,5.7-.1,2.3,2,4.7.8-.8,5.7,4.8,7.9,5,8.6,6.5,2.9,2.5,4.3,3.3-4.3-2.5,5.8.9,11.7,2.7,13.1,4.3,5.7,4.1,7.1,4.9,8,2.6,8,2.6l6.6.2c2.9.1,4.4-.6,9.5-.4s8.1.2,10.3,1.1.7.8,6.5.2a24.4,24.4,0,0,1,10.3,1.1l3.5,3.2,6.6-.6s-1.3-3.1,5.2.2,14.5,4.3,16,3.6.1-5.4,5.9-2.2,11.6,2.7,13.1,3.6-3,1.4,3.7-1.5,10.4-6.6,14.1-6.5,13.2-.4,14.7-.3,7.3-.6,8.8-2.1,2.3-2.3,6-3.7,9.6-3.6,11.2-5.9,4.4-2.9,5.2-3.7,8.8-1.3,10.3-2.8,3.8-3.8,4.5-2.2,16,3.6,16,3.6-5.1-1.7,1.4.9,10.9,3.4,13.1,4.3,5.7,4.8,5.7,4.8-.6-3.1,2.2.1,3.6,2.4,9.4,4.2,11.7,1.1,11.6,3.4,5.8,2.6,6.5,4.1,10.2,1.9,10.8,3.5,2.2.1,5.8,4.1,11.5,7.3,11.5,7.3-.8.8,2.2.1,4.4-1.4,8.8-.5,9.4,1.8,12.4,1.2,9.6-2.1,11.8-2,2.1.8,6.6-.6a103.9,103.9,0,0,0,10.3-3.5c7.5-2.9,16.3-4.2,15.6-5s-8.2,3.6.8-2.3,18.5-8,18.6-8.8,1.5-3,1.5-3l1.6-4.6s6.7-1.4,10.3-.5,6.5,1.8,8.7,1.8l14.6,1.3c1.5,0,8.8.2,10.3-.5s-4.3-2.5,8.8.3,9.5.3,9.5.3,8.9-2.8,8.8-1.3,5.2.2,5.2.2,4.5-3,6.6-2.9,14-1.1,14-1.1l11.8-3.6s5.2-2.9,8.9-1.2,16.8-1.1,16.8-1.1,2.3-3,3.8-2.2,8.8-.5,10.9.4,8.1-1.3,9.6-.5,9.6-3.6,12.5-2.7,16.8,2,17.2,1.2,4.1-2.9,4.1-2.9,11.1-2.8,11.8-2.7,15.5-3.4,17-4.2,8.9-2,11.8-3.5,8.9-2.8,12.6-3.5,9.5.3,16.9-3.3,8.2-4.4,11.2-5.1,18.4-2.6,19.9-3.3,6.7-3.7,7.5-5.2,3.2-3,5.3-4.1a21.7,21.7,0,0,1,8-1.7c1.5,0,9.6-1.3,11.1-1.2s7.3.2,8.7,1.8,4.2-1.4,9.3,2.2,11.1,1.6,12.4,4.7,5,5.6,7.2,6.5,7.3-1.4,9.5.3,10.1,5,10.1,5,7.3-1.4,8,1,6.5,1.7,8.7,3.4,5.1-.6,6.5,1.7,7.3,1.8,11.6,4.3,7.3,1,16,2.8,10.2,1.1,12.4,2l2.2.8,7.4-3.6c3-1.5,5.3-3.8,6-3s19.6-.7,19.6-.7-1.3-.2,5.4-2.4,6.6-1.3,9.6-2.8S13346.8,420.4,13346.8,420.4Z"/></svg>