<svg xmlns="http://www.w3.org/2000/svg" width="15361" height="1440" viewBox="0 0 15361 1440"><defs><style>.a{fill:#196ad2;}.b{fill:#0288d1;}</style></defs><path class="a" d="M10704.9,1304.6,10708,392s-2.1-1.2-2.1,2.9-1,0-1,0h-1l-13.1,19.1-6-4.1s0,12.4-9.8,13.9-8.8.6-15.9-4.2-4.3-5.6-13.7-19.5-26.7,28.4-34.8,19.6-15.7-9.8-33.7-18.6-17.1,74.4-22.7,67.1-19.1,22-22.8,24.8c-14.4,11.3-8,14-14.4,13.4s-14.8-4.8-14.8-4.8l-3.8-.3-9.3,9.3-2.1,10.3s-3.6,1.6-4.1,0-4.6-8.8-15.1-12.6-22.6-4.4-23.4-10.6-1.2-10.4,0-14-11.6-4.6-17.9-12.4-6.1-2.5-11-7.5-7.4-6.4-7.2-9-8.5-10.8-10.1-14.3-8.7-2.7-17.8-7-1.3-6-.1-10-9.4-15.7-13-17-14-9-24.9-10.6-13.6-8.8-13.6-8.8-3.3.1-3.3-.9-8.3-4.2-9.3-5.2-12.4-2.1-12.9-2-10.9-1.1-13.1,0-5-2.1-7.1-3.2-7.2,0-9.2,0-10.4,2.1-10.4,2.1l-2.1-8.3-5.1,1.2V358.3l-6.2,16.5-3.1-4.1-3.2,5.1s-3,2.1-4,1.1-2.1-1.1-2.1-2.1-3.1,0-5.2,0-2.4,1-2.4,1l-3.8-19.6s-2,22.7-3.1,21.7-5.1,1-7.6,1.1-2.7,4.1-2.8,4.7v5.9s-.9,7.9-2,7.4,0,2.6,0,2.6-1,6.2-2,6.9a79.8,79.8,0,0,1-8.3,4.4c-4.1,2.1-2,4.2-2,7.3s-2.1,2.9-2.1,2.9-4.1,1.2-15.4,8.8-6.3,5.8-8.4,7.9-6.2-1-11.3-1-6.2,1-10.9,3.7-5.5,0-5.5,0l-2-13.8-4.3,8-1.7-8s-4.5,15.2-5.6,16.2-1-3.1-1-3.1-6.2,10.4-8.3,11.4-5.1,4.1-7.2,5.2-8.2,0-12.4,1-11.8,9.6-11.8,9.6-11.9,4.9-17.1,4.6-7.2,2.3-10.3,4.4-8.3,10.3-11.4,11.3-7.2-1-12.4-2-10.3,3.1-11.3,3.1-12.4,2.9-12.4,2.9V473.9s-5.2,20.7-6.2,21.7-2.1,8.3-2.1,9.3-8.2,1-11.3,2.1-5.2,3.1-8.3,6.2-6.2,3.1-9.3,4.1-11.3,0-21.7-1-12.3-1.1-17.5,0-14.5,2-16.5,1-12.4,0-11.4-3.1-5.2-2.1-11.3-2.1a33.5,33.5,0,0,1-9.3-1s-12.4,0-19.7-4.1-4.1-3.1-5.1-6.2-3.1-2.1-10.3-2.1-8.3-2.1-11.4-7.2-5.2-10.4-5.2-11.4-7.2-2-11-3.6-10.6-5.7-10.6-8.1v-3.8a94.8,94.8,0,0,0-12.4-10.3c-6.2-4.1-2.1,0-9.3,4.1s-8.3,2.1-8.3,0-11.3-4.1-12.4-4.1-10.3,3.1-10.3,3.1l-1-13.4-6.6,11.9-1.7-3.7-4.1,7.3-4.7-15.9s-2.6,14.8-4.6,16.9-9.3,2.1-12.9,1-8.8,0-9.8-1-9.3,0-9.3.5-10.4-5.7-12.4-8.8-2.1-7.2-2.1-10.3-5.1-7.2-4.6-8-7.8-8.5-16-13.7-10.4-1-10.4-1-9.3-6.2-9.3-8.3-15.4-4.1-15.4-4.1l-8.3-3.1-7.2-2.1-4.2-6.1s-1-1.1-6.2-2.1-2-4.1-2-4.1-2.1-7.3-2.1-8.3-2-2.1-2-3v-5.3l-2.1-7.2-3.1,3.1-4.1-16.5s-5.2,16.5-6.2,16.5-2.1-3.1-3.1-4.1a23.6,23.6,0,0,1-4.2-5.2c-1-2.1-5.1,0-9.3,1s-4.1-4.1-4.1-4.1l-4.1-11.3s-3.1,9.2-3.1,10.3-4.1,1-5.2,0-7.2,0-8.2,0a49.2,49.2,0,0,1-8.3-2.1c-3.1-1-2.1-1-6.2,1s-2.1-3-2.1-3l-4.1,3-5.2-8.2-3,4.1-4.2-12.4-6.2,17.6s-2,2-4.1,8.2-3.1,4.2-4.1,5.2-9.3,5.2-9.3,5.2a116.9,116.9,0,0,1-8.3,10.3c-3.1,3.1-3.1,2.1-6.2,5.2s-5.1,3.1-5.1,4.1-4.2,5.1-7.3,8.2-3.1,5.2-3.1,7.3-3.1,7.2-4.1,10.3-2.1,5.2-3.1,6.2-4.1,3.1-6.2,6.2,0,2.1,2.1,4.1-2.1,7.2-2.1,7.2-6.2,1.1-7.2,2.1-3.1,1-5.2,2.1-3.1,4.1-5.1,7.2-3.1,5.2-4.2,6.2-6.2,4.1-10.3,7.2,0,4.2-5.2,7.3,0,11.3-6.2,17.5-12.3,1-14.4,0-4.1-1-8.3-2.1-6.2,2.1-13.4,2.1-3.1-1-8.3,1-5.1,6.2-6.2,7.3-4.1,2-7.2,13.4-4.1,3.1-6.2,4.1-9.3,2.1-13.4,4.2-3.1,0-8.3-1.1-3.1,0-4.1,0h-8.2l-1.1-1-3.1-9.3-2,3.1-2.1-7.2-3.1,13.4s-1,0-5.2,2.1-4.1,0-9.3,0h-18.5v-2.1l-3.1-9.3-2.1,4.1-2.1-8.2-4.1,10.3-1-2.1-3.1,6.2-2.1,1.1s-4.1,1-6.2,0-5.2-1.1-5.2,0-5.1,0-8.2,0-1-2.1-1-2.1l-3.1-9.3-2.1,3.1-3.1-8.3s-3.1,15.5-3.1,16.6-2.1,0-5.2,1-4.1,0-8.2,1-4.2,0-5.2-1-2.1-1-6.2-2.1-5.1,1.1-10.3,2.1-8.3,13.4-10.3,15.5,2,8.2,3.1,13.4-4.2,9.3-2.7,13.9-1.5,6.7-.4,8.6,0,7.4,0,11.6-2.1,2-6.7,4.6-.6,6.7,0,11.4-8.8,10.8-11.8,17.1-6.3,7.1-6.3,7.1l-2.1-8.2-2,6.2a32,32,0,0,0-2.1,5.1c-1,3.1-3.1,1.1-8.3,1.1s-1,0-4.1,2-2.1-1-2.1-1l-2-14.5-4.2,15.9v4.8c0,2.1-6.2,4.1-7.2,4.1s-7.2,2.1-10.3,3.1-8.3,0-12.4,0-2.1,2.1-6.2,4.1-4.1,0-9.3,0-5.2-1-9.3,2.1-10.3,1-10.3,1l-4.1-4.1-3.1,6.2-3.1-5.2-3.1,6.2-1.1-6.2-6.2,12.4-1.7-1.5-1.4,2.6-3.1-12.4-3.1,15.5a27.6,27.6,0,0,1-7.7,5.1c-4.7,2.1-3.6,10.4-7.7,16.6s-18.6,2-22.5,1.5-10.6,5.7-13.7,8.8-13.4,4.1-17.5,8.2-14.5-1-20.2-5.6-17-2.6-22.2-2.6-13.4,4.1-16.5,6.2-13.4,1-20.6,0-4.2-2.1-14,2-13.9,2.1-13.9,2.1-8.3-2.1-9.1-2.1-8.5-1-11.6-1H8820c-2,0-9.3-2.1-11.4-4.6s-2-1.6-6.1-3.7-7.2-4.1-7.2-6.1-5.2-5.2-7.3-8.8-10.3-4.7-11.1-6-5.4-5.9-5.4-6.9-7.2-4.2-7.9-4.8-6.5-2.5-7.5-4-8.3-4.7-8.3-5.7-4.2-3.1-8.1-2.9-4-2.3-4-2.3l-5.4-5.3-2-6-2,3.5L8724,634l-3.1,9.3s-2,1-3.1,0-3.1-1.1-10.3-4.2-3.1-3.1-4.1-5.1,0-6.2-1.1-6.2-5.1-3.1-7.2-4.2-5.2,2.1-5.2,3.1-5.1-4.1-5.1-4.1l-3.1,2.1-5.2-10.4-2,2.1-1.1-7.2-4.1,14.4-4.1-9.3-4.2,9.3-2-5.1-3.1,6.2-4.2-12.4s-3.1,11.3-4.1,12.4-3.1-1.1-4.1-2.1-2.1-2.1-5.2-1-4.1-1.1-6.2-1.1-2-3.1-2-3.1l-2.1-8.2-5.2,8.2-1-16.5s-2.1,13.4-4.1,16.5-2.1-1-4.2-3.1-8.2-3.1-8.2-4.1-2.1-4.1-8.3-6.2,0-4.1-2.1-6.2-4.1-2-4.1-3.1-4.1-6.2-5.1-8.2-5.2-6.2-5.4-6.9.2-4.5-.8-6.6-4.2-4.1-5.2-5.1-3.1,0-6.2-1.1-2.1-1-2.1-4.1-5.1-2-9.3-2h-3.1l-6.1-11.4-3.1,6.2-4.2-15.5-3.1,10.3s-2,2.1-2,0-2.1,0-4.2,0-3.1,4.2-4.1,3.1-2.1,0-5.2,1.1-3.1,3.1-3.1,3.1l-4.1-11.4-2.1,7.2-2-15.5-5.2,27.9-4.1-4.1-1,8.2-3.1-15.4s-3.1,22.7-3.1,23.7-1.1,6.2-3.2,12.9-3,.5-11.3,3.6-5.2,6.2-7.2,7.3-4.2,6.1-5.2,9.2-2,10.4-3.1,12.4-7.2,7.3-7.2,7.3-5.2,6.2-6.2,7.2-5.2,1-6.2,1-3.1,4.2-3.1,4.2l-5.2-22.8-3.1,23.8s0,3.1-2,2.1-3.1,2-4.2,2-4.1,4.1-4.1,4.1,0,9.3-1,10.4a88,88,0,0,0-6.2,8.2c-2.1,3.1,0,5.2-3.1,9.3s-5.2,4.2-7.2,6.2-2.1,3.1-3.1,8.3-3.1,3.1-4.2,4.1-3.1,0-5.1,0-4.2,1-6.2,1-5.2,4.2-6.2,5.2-1,5.2-2.1,7.2-4.1,1.1-4.1,1.1-3.1-12.4-3.1-13.5-2.1,14.5-2.1,14.5-5.1,2.1-5.1,3.1-4.2,3.1-4.2,4.1-1,6.2-2,7.3-1.1,4.1-1.1,4.6v3.6a25.8,25.8,0,0,1-3.1,4c-1,.8,0,3.2,0,4.3s-2,1-5.1,2-4.2,2.1-9.3,5.2-3.1,3.1-7.2,7.2-3.1,1.1-6.2,0-4.2,1.1-7.3,3.1-4.1,1.1-4.1,1.1l-1-11.4-4.2,8.3-1-4.2-2.1,3.1-2-10.3s-4.2,16.5-3.8,16-14.8,2.6-18.9,2.6-5.2,6.2-9.3,10.3a64.4,64.4,0,0,1-13.5,9.3c-2,1-6.1,1-12.3,2.1s-7.3,4.1-14.5,8.2l-5.2,3.1-2-6.2-2.1,5.2-3.1-14.5-3.1,17.6-2,6.2c-1.1,3.1-9.3,3.1-10.4,3.1s-2,4.1-2.7,7.6-5.5-1.4-6.6-3.5-5.1,3.1-9.1,5.7-1.2,1.5-.2,3.6-5.1,4.1-9.3,2.9-6.1,3.3-7.2,4.3-7.2,2.1-11.7,2-4.8-2-13.4-1a41.1,41.1,0,0,0-15.1,5.2s-6.2-.8-7.3-.8-7.2,1-9.3,1-6.2-1-7.2-2.1-3.1,0-4.1,0-7.3,2.1-7.3,2.1l-4.1-8.4-3.1,6.2-3.1-17.6-8.2,17.6-2.1-7.3-3.1,5.2-3.1-10.3s-2.7,11.6-3.3,13-2.9-1-2.9-1l-2.1,2.6s-3.1,0-4.1-1.1-5.2-1-8.3-1a12.9,12.9,0,0,0-5.1,1l-3.1-7.3-3.1,7.2-3.1-17.6-6.2,14.7s-4.1,3.1-7.3,1.1-10.3-2.2-16.4,1.7-39.8-4.5-39.8-4.5a56.5,56.5,0,0,1-21.8,3.1c-.1,0-11.8,4.1-14.3,9.2-1.1,2.1.2,2.3-1.1,6.2-.7,2.1-6.1,1.4-6.2,4.2s-5.8,4.9-12.4,6.2l-3.1-8.3s-5.1,10.3-5.2,10.4c-5.8,1.3-10.2,2.8-10.2,5.1l-6.2,5.2s1.1,2.4,0,3.7-4.4,2.8-4.3,4.2-5,4.4-5,4.4-2.1,3.1-4.2,4.2-1,3.1-8.2,5.1-5.2-1-8.3,3.1-3.1,8.3-6.2,10.4-1,3.1-5.1,5.1a45.9,45.9,0,0,1-11.8,4.2c-4.8,1-8.6,3.1-11.3,4.1s-5.8,2-11,4.1-7.2,3.1-8.3,4.1,0,3.1-2,3.1-9.3,4.2-10.9,5.2-.5-1-4.6,3.1-1.1,6.2-6.2,8.3-6.2,3.1-10.3,4.1-5.3.7-7.3,1.4a5.8,5.8,0,0,1-4.1-.4l-1-4.1-1.1,1-2-8.2-6.2,17.5-3.1-3.1-7.3,14.5-1,2c-1,2.1,2.1,4.2-1,6.2s-4.1,2.1-5.2,4.2-2,4.1-2,5.1-2.1,5.2-3.1,5.2-2.1,1-4.2,3.1l-4.1,4.1c-2.1,2.1-2.1,4.2-3.1,5.2s-1.6,2-3.9,2-1.3-1-3.3,1.1-1.1,1.6-4.2,3.9a15.3,15.3,0,0,1-9.3,3.3c-3,0-3-1-4.1-1h-6.2a7.9,7.9,0,0,1-3.1,3.1c-2,1-4.1,3.1-5.1,3.1s-5.2,4.1-5.2,4.1a3.4,3.4,0,0,0-2.1,1,22.8,22.8,0,0,1-5.1,4.2c-2.1,1-4.2,4.1-4.2,6.2s4.2.5,0,3.9-5.1,2.3-9.2,3.3-5.9,2.6-6.6,3.9-1.7,1.2-1.7,2.3.2,1-2,2-4,2.9-5.1,3.5a16.4,16.4,0,0,0-3.2,2.7c-1.1,1.1-.8.2-4,2.7s-5.3,2.5-9.5,2.5-2-1-12.3,0-10.6-.5-14.6,1.8-6.1,2.3-6.1,3.4,5.2,0,1,1-6.2,1-8.2,2.1-8.3,1-9.3,2-2.1,0-6.2,3.1-2.1,3.1-5.2,4.2-11.3,5.1-14.4,6.2-7.3,4.1-10.4,5.1-4.1,4.1-6.2,4.1-1-2-8.2,1.1-7.2,4-10.3,4.6,1-.5-5.2,2.6-3.1,3.1-8.3,5.2-4.1,2-5.1,2-9.3-2-13.4,0,0,1.1-4.2,2.1-3.1,1-6.2,2.1a13.5,13.5,0,0,1-6.2,1h-7.1c-1.1,0-1.1-2.1-7.3,1l-6.2,3.1a7.5,7.5,0,0,1-4.1,1.1c-1.1,0-9.9-9.9-9.9-9.9v8.9l-5.6-5.2-3.1,6.2s-19.6,8-25.8,9.1-8.6,1.3-12.1,3.3-5.5,5.5-9.6,6.9-14.1,5.4-17.9,6.5-5.9,0-17.2,4.6-16.6,6.7-20.7,12.9-3.4,7.3-8.9,10.9-.4,2.5-13.8,7.7-12,2.2-16.9,11.4,4.5,7.7-5.8,17.2-16.5,13.7-21.7,15.8-8.3,2-13.4,7.2-6.2,9.3-12.4,15.5-8.3,9.3-15.5,13.4-22.5,4.5-25.2,8-8.4,11.3-8.6,14.1,0,14.1,0,14.1h3542.3"/><path class="a" d="M10707.8,391.8l17.8,19.1,8.2-4.1s0,12.4,13.3,13.9,12,.6,21.6-4.2,5.8-5.6,18.7-19.6,36.3,28.5,47.3,19.7,21.3-9.8,45.8-18.6,23.2,74.4,30.9,67.1,26,22,30.9,24.8c19.7,11.3,11,14,19.7,13.4s20.1-4.8,20.1-4.8l5.2-.3,12.6,9.3,2.8,10.3s5,1.5,5.7,0,6.3-8.8,20.6-12.6,30.6-4.4,31.7-10.6,1.7-10.4.1-14,15.7-4.6,24.3-12.4,8.2-2.5,15-7.5,10.1-6.4,9.7-9,11.6-10.8,13.7-14.3,12-2.7,24.2-7,1.8-6,.2-10,12.8-15.7,17.8-17,18.9-9,33.8-10.6,18.5-8.8,18.5-8.8,4.5.1,4.5-.9,11.3-4.2,12.7-5.2,16.8-2.1,17.5-2,14.8-1.1,17.8,0,6.8-2.1,9.7-3.2,9.8,0,12.5,0,14.1,2.1,14.1,2.1l2.8-8.3,7,1.2V355.2l8.5,16.5,4.2-4.1,4.3,5.1s4.1,2.1,5.5,1.1,2.8-1.1,2.8-2.1,4.2,0,7,0,3.4,1,3.4,1l5.1-19.6s2.8,22.7,4.2,21.7,7,1,10.4,1.1,3.6,4.1,3.7,4.7,0,5.9,0,5.9,1.3,7.9,2.7,7.4,0,2.6,0,2.6,1.4,6.2,2.8,6.9a112.2,112.2,0,0,0,11.3,4.4c5.6,2.1,2.8,4.2,2.8,7.3a2.6,2.6,0,0,0,2.8,2.9s5.6,1.2,21,8.8,8.5,5.8,11.3,7.9,8.4-1.1,15.5-1.1,8.4,1.1,14.7,3.8,7.5,0,7.5,0l2.8-13.8,5.8,8,2.3-8s6.2,15.2,7.6,16.2,1.4-3.1,1.4-3.1,8.4,10.4,11.2,11.4,7,4.1,9.9,5.2,11.2,0,16.8,1,16.2,9.6,16.2,9.6,16.1,4.9,23.1,4.6,9.9,2.3,14.1,4.4,11.2,10.3,15.4,11.3,9.9-1,16.9-2,14,3.1,15.4,3.1,16.9,2.9,16.9,2.9V470.8s7,20.7,8.4,21.7,2.8,8.3,2.8,9.3,11.3,1,15.5,2.1,7,3.1,11.2,6.2,8.4,3,12.6,4.1,15.5,0,29.5-1.1,16.9-1,23.9,0,19.7,2.1,22.5,1.1,16.8,0,15.4-3.1,7.1-2.1,15.5-2.1a60.6,60.6,0,0,0,12.6-1s16.9,0,26.7-4.1,5.6-3.1,7-6.2,4.2-2.1,14.1-2.1,11.2-2.1,15.4-7.2,7.1-10.4,7.1-11.4,9.8-2.1,15-3.6,14.4-5.7,14.4-8.1v-3.8a131.5,131.5,0,0,1,16.9-10.3c8.4-4.1,2.8,0,12.6,4.1s11.3,2.1,11.3,0,15.4-4.1,16.8-4.1,14.1,3.1,14.1,3.1l1.4-13.4,9,11.8,2.2-3.6,5.6,7.3,6.4-15.9s3.5,14.8,6.3,16.9,12.6,2.1,17.5,1,12,0,13.4-1,12.6,0,12.6.5,14.1-5.7,16.9-8.8,2.8-7.2,2.8-10.3,7-7.2,6.3-8,10.5-8.5,21.8-13.7,14-1,14-1,12.6-6.2,12.6-8.3,21.1-4.1,21.1-4.1l11.3-3.1,9.8-2.1,5.6-6.2s1.4-1,8.4-2,2.8-4.2,2.8-4.2,2.8-7.2,2.8-8.2,2.9-2.1,2.9-3.1v-5.2l2.8-7.2,4.2,3.1,5.6-16.5s7,16.5,8.4,16.5,2.8-3.1,4.2-4.1,4.2-3.1,5.7-5.2,7,0,12.6,1,5.6-4.1,5.6-4.1l5.6-11.3s4.2,9.2,4.2,10.3,5.7,1,7.1,0,9.8,0,11.2,0a89.3,89.3,0,0,0,11.2-2.1c4.3-1,2.8-1,8.5,1s2.8-3.1,2.8-3.1l5.6,3.1,7-8.2,4.2,4.1,5.6-12.4,8.5,17.6s2.8,2,5.6,8.2,4.2,4.2,5.6,5.2,12.6,5.2,12.6,5.2,7.1,7.2,11.3,10.3,4.2,2.1,8.4,5.1,7,3.1,7,4.2,5.7,5.1,9.9,8.2,4.2,5.2,4.2,7.3,4.2,7.2,5.6,10.3,2.8,5.2,4.2,6.2,5.6,3.1,8.4,6.2,0,2-2.8,4.1,2.8,7.2,2.8,7.2,8.5,1.1,9.9,2.1,4.2,1,7,2.1,4.2,4.1,7,7.2,4.2,5.2,5.6,6.2,8.5,4.1,14.1,7.2,0,4.2,7,7.2,0,11.4,8.4,17.6,16.9,1,19.7,0,5.6-1,11.2-2.1,8.4,2.1,18.3,2.1,4.2-1,11.2,1,7,6.2,8.4,7.3,5.7,2,9.9,13.4,5.6,3.1,8.4,4.1,12.6,2.1,18.3,4.1,4.2,0,11.2-1,4.2,0,5.6,0h11.3l1.4-1,4.2-9.3,2.8,3.1,2.8-7.2,4.2,13.4s1.4,0,7,2,5.6,0,12.7,0h25.2v-2l4.3-9.3,2.8,4.1,2.8-8.2,5.6,10.3,1.4-2.1,4.2,6.2,2.8,1s5.6,1.1,8.4,0,7.1-1,7.1,0,7,0,11.2,0,1.4-2,1.4-2l4.2-9.3,2.8,3.1,4.2-8.3s4.3,15.5,4.3,16.5,2.8,0,7,1.1,5.6,0,11.2,1,5.6,0,7-1,2.8-1.1,8.5-2.1,7,1,14,2.1,11.2,13.4,14.1,15.5-2.9,8.2-4.3,13.4,5.7,9.3,3.6,13.9,2.1,6.7.7,8.6,0,7.4,0,11.6,2.8,2,9.1,4.6.7,6.7,0,11.4,11.9,10.8,15.9,17.1,8.7,7.1,8.7,7.1l2.8-8.2,2.8,6.2a34.6,34.6,0,0,1,2.8,5.1c1.4,3.1,4.2,1.1,11.2,1.1s1.4,0,5.6,2,2.9-1,2.9-1l2.8-14.5,5.6,15.9V635c0,2.1,8.4,4.1,9.8,4.1s9.8,2.1,14.1,3.1,11.2,0,16.8,0,2.8,2.1,8.4,4.1,5.7,0,12.7,0,7-1,12.6,2.1,14.1,1,14.1,1l5.6-4.1,4.2,6.2,4.2-5.2,4.2,6.2,1.4-6.2,8.5,12.4,2.3-1.5,1.9,2.6,4.2-12.4,4.2,15.5a39.5,39.5,0,0,0,10.5,5.1c6.4,2.1,4.9,10.4,10.6,16.5s25.2,2.1,30.5,1.6,14.4,5.7,18.6,8.8,18.3,4.1,23.8,8.2,19.8-1,27.5-5.6,23.2-2.6,30.2-2.6,18.2,4.1,22.4,6.2,18.3,1,28.1,0,5.7-2.1,19,2,19,2.1,19,2.1,11.2-2.1,12.4-2.1,11.4-1,15.6-1h8.5c2.8,0,12.6-2.1,15.5-4.6s2.7-1.6,8.4-3.7,9.8-4.1,9.8-6.2,7-5.1,9.9-8.7,14-4.7,15-6,7.4-5.9,7.4-6.9,9.8-4.2,10.8-4.8,8.8-2.5,10.2-4,11.3-4.7,11.3-5.7,5.6-3.1,11-2.9,5.4-2.3,5.4-2.3l7.3-5.3,2.7-6,2.8,3.5,3.1-7.6,4.2,9.2s2.8,1.1,4.2,0,4.2-1,14.1-4.1,4.2-3.1,5.6-5.1,0-6.2,1.4-6.2,7-3.1,9.8-4.2,7,2.1,7,3.1,7.1-4.1,7.1-4.1l4.2,2.1,7-10.4,2.8,2.1,1.4-7.2,5.6,14.4,5.6-9.3,5.7,9.3,2.8-5.1,4.2,6.2,5.6-12.4s4.2,11.3,5.6,12.4,4.2-1.1,5.6-2.1,2.9-2.1,7.1-1,5.6-1.1,8.4-1.1,2.8-3.1,2.8-3.1l2.8-8.2,7,8.2,1.4-16.5s2.8,13.4,5.7,16.5,2.8-1,5.6-3.1,11.2-3.1,11.2-4.1,2.8-4.1,11.2-6.2,0-4.1,2.9-6.2,5.6-2,5.6-3.1,5.6-6.2,7-8.2,7-6.2,7.2-6.9-.2-4.5,1.2-6.6,5.6-4.1,7-5.1,4.3,0,8.5-1.1,2.8-1,2.8-4.1,7-2.1,12.6-2.1h4.2l8.5-11.3,4.2,6.2,5.6-15.5,4.2,10.3s2.8,2.1,2.8,0,2.8,0,5.6,0,4.2,4.2,5.6,3.1,2.9,0,7.1,1.1,4.2,3.1,4.2,3.1l5.6-11.4,2.8,7.2,2.8-15.5,7,27.9,5.7-4.1,1.4,8.2,4.2-15.4s4.2,22.7,4.2,23.7,1.4,6.2,4.3,12.9,4.1.5,15.4,3.6,7,6.2,9.8,7.2,5.6,6.2,7,9.3,2.8,10.4,4.2,12.4,9.9,7.3,9.9,7.3,7,6.2,8.4,7.2,7,1,8.4,1,4.2,4.1,4.2,4.1l7-22.7,4.3,23.8s0,3.1,2.8,2,4.2,2.1,5.6,2.1,5.6,4.1,5.6,4.1,0,9.3,1.4,10.4a85.5,85.5,0,0,1,8.4,8.2c2.8,3.1,0,5.2,4.2,9.3s7.1,4.2,9.9,6.2,2.8,3.1,4.2,8.3,4.2,3.1,5.6,4.1,4.2,0,7,0,5.6,1,8.5,1,7,4.2,8.4,5.2,1.4,5.2,2.8,7.2,5.6,1.1,5.6,1.1,4.2-12.4,4.2-13.5,2.8,14.5,2.8,14.5,7.1,2.1,7.1,3.1,5.6,3.1,5.6,4.1,1.4,6.2,2.8,7.2,1.4,4.2,1.4,4.7v3.6a34.2,34.2,0,0,0,4.2,4c1.4.8,0,3.2,0,4.3s2.8,1,7,2,5.6,2.1,12.7,5.2,4.2,3.1,9.8,7.2,4.2,1.1,8.4,0,5.6,1.1,9.9,3.1,5.6,1.1,5.6,1.1l1.4-11.4,5.6,8.3,1.4-4.2,2.8,3.1,2.8-10.3s5.6,16.5,5.2,16,20.1,2.6,25.7,2.6,7,6.2,12.7,10.3,15.4,8.3,18.2,9.3,8.4,1,16.9,2.1,9.8,4.1,19.6,8.2,7.1,3.1,7.1,3.1l2.8-6.2,2.8,5.2,4.2-14.5,4.2,17.6,2.8,6.2c1.4,3.1,12.6,3.1,14.1,3.1s2.8,4.1,3.7,7.6,7.5-1.4,8.9-3.5,7,3.1,12.5,5.7,1.5,1.5.1,3.6,7.1,4.1,12.7,2.9,8.4,3.3,9.8,4.3,9.8,2.1,15.9,2,6.6-2,18.3-1a66.6,66.6,0,0,1,20.6,5.2s8.4,4.2,9.8,4.2,9.8,1,12.7,1,8.4-1,9.8-2.1,4.2,0,5.6,0,9.8,2.1,9.8,2.1l5.7-13.4,4.2,6.2,4.2-17.6,11.2,17.6,2.8-7.3,4.2,5.2,4.2-10.3s4.3,14.4,5.1,15.8,3.4-3.8,3.4-3.8l2.8,6.6s4.2,0,5.6-1.1,7-1,11.2-1a23.1,23.1,0,0,1,7.1,1l4.2-11.3,4.2,7.2,4.2-17.6,8.4,19.7s5.6,3.1,9.9,1.1,14-2.2,22.4,1.7,54.1-9.6,54.1-9.6a99.7,99.7,0,0,0,29.7,3.2s16,4.1,19.5,9.2c1.4,2.1-.4,2.3,1.4,6.2.9,2.1,8.4,1.4,8.4,4.2s7.9,4.9,16.8,6.2l4.3-8.3,7.1,10.4c7.9,1.3,13.9,2.8,13.9,5.1l8.4,5.2s-1.5,2.4,0,3.7,6,2.8,5.8,4.2,6.9,4.4,6.9,4.4a18.6,18.6,0,0,0,5.6,4.2c2.8,1,1.4,3.1,11.2,5.1s7.1-1,11.3,3.1,4.2,8.3,8.4,10.4,1.4,3.1,7,5.1a73.6,73.6,0,0,0,16,4.1c6.5,1.1,11.8,3.1,15.5,4.2s7.9,2,14.9,4.1,9.8,3.1,11.2,4.1,0,3.1,2.8,3.1,12.6,4.2,14.7,5.2.8-1,6.4,3.1,1.4,6.2,8.4,8.3,8.4,3.1,14.1,4.1,7.1.7,9.8,1.4a10.4,10.4,0,0,0,5.6-.4l1.4-4.1,1.4,1,2.8-8.2,8.5,17.5,4.2-3.1,9.8,14.5,1.4,2c1.4,2.1-2.8,4.2,1.4,6.2s5.6,2.1,7,4.2,2.8,4.1,2.8,5.1,2.9,5.2,4.3,5.2,2.8,1,5.6,3.1l5.6,4.1c2.8,2.1,2.8,4.1,4.2,5.2s2.2,2,5.3,2,1.7-1,4.5,1.1,1.4,1.6,5.7,3.9a25.8,25.8,0,0,0,12.6,3.3c4.2,0,4.2-1,5.6-1h8.4a9.8,9.8,0,0,0,4.3,3.1c2.8,1,5.6,3.1,7,3.1s7,4.1,7,4.1a5.3,5.3,0,0,1,2.8,1,30.6,30.6,0,0,0,7,4.2c2.8,1,5.6,4.1,5.6,6.2s-5.6.5,0,3.9,7.1,2.2,12.7,3.3,7.9,2.6,8.9,3.9,2.3,1.2,2.3,2.3-.3,1,2.7,2,5.4,2.9,7,3.5a24.7,24.7,0,0,1,4.4,2.7c1.4,1.1,1.1.2,5.4,2.7s7.2,2.5,12.8,2.5,2.8-1,16.9,0,14.3-.5,19.8,1.8,8.3,2.3,8.3,3.4-7.1,0-1.4,1,8.4,1,11.2,2.1,11.2,1,12.6,2,2.9,0,8.5,3.1,2.8,3.1,7,4.2,15.4,5.1,19.7,6.1,9.8,4.2,14,5.2,5.6,4.1,8.4,4.1,1.4-2,11.3,1.1,9.8,4,14,4.6-1.4-.5,7,2.6,4.2,3.1,11.3,5.2,5.6,2,7,2,12.6-2,18.2,0,0,1.1,5.7,2.1,4.2,1,8.4,2.1a24.2,24.2,0,0,0,8.4,1h9.7c1.6,0,1.6-2.1,10,1l8.4,3.1c2.8,1.1-152.8,1.1-151.4,1.1s13.4-9.9,13.4-9.9v8.9l7.7-5.2,4.2,6.2s26.7,8,35.1,9.1,11.7,1.3,16.4,3.3,7.5,5.5,13.1,6.9,19.2,5.4,24.4,6.5,7.9,0,23.4,4.6,3.4,6.7,9.1,12.9-152.4,7.2-144.9,10.9.5,2.5,18.8,7.7,16.3,2.2,22.9,11.4-4.1,7.7,10,17.2,22.4,13.7,29.4,15.8,11.3,2,18.3,7.2,8.4,9.3,16.9,15.5,11.2,9.3,21,13.4,30.6,4.5,34.3,8,11.4,11.3,11.8,14.1,0,14.1,0,14.1H10706.4"/><path class="a" d="M6158.2,326.6a13.7,13.7,0,1,0-27.4,0c0,7.5,8.5,18.7,13.7,18.7S6158.2,334.1,6158.2,326.6Z"/><path class="a" d="M6142.8,346.9h3.4a0,0,0,0,1,0,0v2.8a.6.6,0,0,1-.6.6h-2.2a.6.6,0,0,1-.6-.6v-2.8A0,0,0,0,1,6142.8,346.9Z"/><polyline class="a" points="6140.8 339.2 6143.1 347.8 6145.9 347.8 6147.6 339.2"/><path class="a" d="M10824.9,288.9a13.8,13.8,0,0,0-27.5,0c0,7.6,8.6,18.8,13.8,18.8S10824.9,296.5,10824.9,288.9Z"/><path class="a" d="M10809.4,309.2h3.4a0,0,0,0,1,0,0v2.8a.6.6,0,0,1-.6.6h-2.2a.6.6,0,0,1-.6-.6v-2.8A0,0,0,0,1,10809.4,309.2Z"/><polyline class="a" points="10807.4 301.5 10809.7 310.1 10812.6 310.1 10814.3 301.5"/><path class="a" d="M13328.5,389a13.8,13.8,0,0,0-27.5,0c0,7.6,8.6,18.8,13.7,18.8S13328.5,396.6,13328.5,389Z"/><path class="a" d="M13313,409.4h3.4a0,0,0,0,1,0,0v2.8a.6.6,0,0,1-.6.6h-2.2a.6.6,0,0,1-.6-.6v-2.8A0,0,0,0,1,13313,409.4Z"/><polyline class="a" points="13311 401.6 13313.3 410.2 13316.2 410.2 13317.9 401.6"/><path class="a" d="M4680,199a13.8,13.8,0,0,0-27.5,0c0,7.6,8.6,18.8,13.8,18.8S4680,206.6,4680,199Z"/><path class="a" d="M4664.6,219.4h3.4a0,0,0,0,1,0,0v2.8a.6.6,0,0,1-.6.6h-2.2a.6.6,0,0,1-.6-.6v-2.8A0,0,0,0,1,4664.6,219.4Z"/><polyline class="a" points="4662.6 211.6 4664.8 220.2 4667.7 220.2 4669.4 211.6"/><path class="a" d="M8801.6,449.8a13.8,13.8,0,0,0-27.5,0c0,7.6,8.6,18.8,13.8,18.8S8801.6,457.4,8801.6,449.8Z"/><path class="a" d="M8786.2,470.1h3.4a0,0,0,0,1,0,0V473a.6.6,0,0,1-.6.6h-2.2a.6.6,0,0,1-.6-.6v-2.8A0,0,0,0,1,8786.2,470.1Z"/><polyline class="a" points="8784.1 462.4 8786.4 471 8789.3 471 8791 462.4"/><path class="a" d="M995.6,810.1a13.8,13.8,0,1,0-27.5,0c0,7.5,8.6,18.7,13.7,18.7S995.6,817.6,995.6,810.1Z"/><path class="a" d="M980.1,830.4h3.4a0,0,0,0,1,0,0v2.8a.6.6,0,0,1-.6.6h-2.2a.6.6,0,0,1-.6-.6v-2.8A0,0,0,0,1,980.1,830.4Z"/><polyline class="a" points="978.1 822.7 980.4 831.3 983.3 831.3 985 822.7"/><path class="a" d="M2218.2,316.4a13.7,13.7,0,1,0-27.4,0c0,7.6,8.5,18.8,13.7,18.8S2218.2,324,2218.2,316.4Z"/><path class="a" d="M2202.8,336.7h3.4a0,0,0,0,1,0,0v2.8a.6.6,0,0,1-.6.6h-2.2a.6.6,0,0,1-.6-.6v-2.8A0,0,0,0,1,2202.8,336.7Z"/><polyline class="a" points="2200.8 329 2203.1 337.6 2205.9 337.6 2207.6 329"/><path class="a" d="M14738.6,195.6a13.8,13.8,0,1,0-27.5,0c0,7.5,8.6,18.7,13.7,18.7S14738.6,203.1,14738.6,195.6Z"/><path class="a" d="M14723.1,215.9h3.4a0,0,0,0,1,0,0v2.8a.6.6,0,0,1-.6.6h-2.2a.6.6,0,0,1-.6-.6v-2.8A0,0,0,0,1,14723.1,215.9Z"/><polyline class="a" points="14721.1 208.2 14723.4 216.8 14726.3 216.8 14728 208.2"/><path class="b" d="M8009,1009.9l3,3,3.5-1.5s-1.5-3.5-.5-5.5a18.7,18.7,0,0,1,3-4Z"/><path class="b" d="M8037,941.1s3.1-6.2,4.6-6.2,1.6-3.1,9.3-4.6l7.7-1.6-12.8,6.2Z"/><path class="b" d="M7938,1031.1l3-3s4-3,5-2,5.5-.2,5.5-.2h-10Z"/><path class="b" d="M8039,990.9s3,0,3.5-1,3.5-3,4.5-3-2.5,4-2.5,4Z"/><polygon class="b" points="8329.5 782.4 8333.8 768.1 8331.7 779.9 8329.5 782.4"/><polyline class="b" points="8336.9 792.7 8334.8 795.3 8339.1 780.9"/><polyline class="b" points="8365.6 762.7 8363.4 765.2 8367.7 750.9"/><path class="b" d="M9984,596.9l-1,3-3,2-2,6s-1,3-2,3-5,3-5,5,0,6-1,7-3,3-3,5,1,2,1,3a7.6,7.6,0,0,1-1,4,32.1,32.1,0,0,1-3,5c-2,3,0,2-3,5a23.1,23.1,0,0,1-7,5c-2,1-9,3-12,3s-4,1-6,1-7,1-12,2-5-1-8,4-2,6-4,8,.2,1.5-3.9,3.7-5.1,3.3-5.1,2.3,2-6,3-6,6-2,6-3-3,0-1-3,5-3,5-5-2-2,0-3a20,20,0,0,1,9-2c4,0,3,0,7-1s2-1,7-1h8a5.2,5.2,0,0,0,4-2c1-1,3,0,2-2s-2-3-1-3a12.3,12.3,0,0,0,7-2c3-2,4-1,4-2s-1-1,0-3a9,9,0,0,0,1-5c0-2,1-2,1-3s-4-1-1-3,3-2,4-3a4.9,4.9,0,0,0,1-3s-3-2-1-4,6-3,6-4,1-2,2-4,2-2,2-3a7.6,7.6,0,0,1,1.3-4c.7-1,3.7,0,3.7-1A3.5,3.5,0,0,1,9984,596.9Z"/><path class="b" d="M8499,884.3c0,1.2,4.8,8.5,4.8,8.5h4.2c1.9,0,9.1,2.4,10.3,3.6s2.4,3.6,9.7,7.2,13.3,2.5,14.5,4.9,1.2,1.2,3.6,7.2,6,6,2.4,13.3-2.4,10.9-1.2,13.3,7.2,2.4,7.2,3.6,1.3,2.4,1.3,7.2,2.4,6.1,4.8,7.3,4.8,3.6,6,3.6,3.6-2.4,1.2-3.6-2.4-4.9-4.8-7.3l-3.6-3.6c-1.2-1.2,7.2,4.8,0-2.4l-8.5-8.5c-3.6-3.6-2.4-6-1.2-6a2.6,2.6,0,0,0,2.4-2.4,12.1,12.1,0,0,1,1.2-3.6,4.2,4.2,0,0,1-1.2-2.4c0-1.2-1.2-2.5,0-2.5s-3.6,0-2.4-2.4,0-1.2,1.2-3.6,2.4-4.8,3.6-4.8-3.6-2.4-6-2.4h-4.8s-2.4-1.2-2.4-2.4-2.5-2.5-3.7-2.5h-4.8c-1.2,0-7.2-1.2-7.2-2.4a12.1,12.1,0,0,0-1.2-3.6s12-2.4,7.2-2.4a95.1,95.1,0,0,1-12.1-1.2h-1.2c-2.4,0-4.8,1.2-4.8,0s0-3.6-3.6-3.6h-6.1s1.2,0-1.2-2.5Z"/><polygon class="b" points="8405.7 867.1 8409.3 855 8407.5 865 8405.7 867.1"/><polyline class="b" points="8436.6 851.4 8435.3 852.9 8437.9 844.1"/><polyline class="b" points="8424 858.9 8422.2 861 8425.8 848.9"/><path class="b" d="M8235,897c4.3-2.5,14.1-4.9,14.8-4.9a4.9,4.9,0,0,0,3.3-.3l1-.3c3-1.3,4.3-2.5,5.5-1.9s4.7,4.2,1.4,3.6-9.7-.7-12.3,0Z"/><path class="b" d="M8950,757.9v13.7c0,2.3-1,7.3-1,9.3s1,6.6,1,9.8-2,7.2-5,8.2-4,2-3,4-3,6-5,10-4,4-2,4,5-7,8-9-2,2,4-3,9-5,9-5v6.6l5-3.6s-1-4,4-3,8,1,8,0-3-4-8-5a54.2,54.2,0,0,0-7.7-1.1s-.3,4.1-1.3-.9-3.8-4.9-2.4-8.4,4.4-2.6,1.4-9.6-5-4-4-9,3.2-5,2.6-8-4.6-5-4.6-6a10.6,10.6,0,0,0-2-5C8946,745.9,8947,754.9,8950,757.9Z"/><polygon class="b" points="8801.3 868.5 8804.3 858.5 8802.8 866.7 8801.3 868.5"/><polyline class="b" points="8816.5 861.7 8815 863.4 8818 853.4"/><polygon class="b" points="8985.6 733.4 8988.6 723.4 8987.1 731.6 8985.6 733.4"/><polyline class="b" points="9024.3 724.4 9023.2 725.7 9025.4 718.3"/><polyline class="b" points="9017.8 731.6 9016.3 733.3 9019.3 723.3"/><polygon class="b" points="9065.1 731.4 9068.1 721.4 9066.6 729.6 9065.1 731.4"/><polyline class="b" points="9077.8 726.4 9076.7 727.7 9078.9 720.3"/><polyline class="b" points="9118.3 718.6 9116.8 720.3 9119.8 710.3"/><polyline class="b" points="9061 730.2 9059.9 731.5 9062.1 724.2"/><path class="b" d="M9196,672.9c-5.7,2.8,10,1,11.5-1s2.5-6,3.5-8,3-7,4-7,3-1,5-3,4-5,9-4,13-2,14-3,1.8,2.8,1.8,2.8l4.2-3.8s-12-3-15-3-5,3-7,3-2,3-5,4a21.5,21.5,0,0,0-7,4,21.9,21.9,0,0,0-3,5c-1,2-5,2-6,4s0,3,0,4-2,2-3,2S9198,671.9,9196,672.9Z"/><polygon class="b" points="9274 561.9 9268 577.9 9272 573.9 9274 561.9"/><polyline class="b" points="9272.9 585.9 9271.8 587.1 9274 579.8"/><polyline class="b" points="9266.5 593.1 9265 594.8 9268 584.8"/><path class="b" d="M10296,634.9c1,2,5,4,4,6s2,6,4,7-2,4-1,7,2,6,2,7,9,3,10,5,3,4,3,6-2-1-3-3-2-1-4-2-4-2-6-2-4-3-4-5,1-2,0-5a13.4,13.4,0,0,1-1-5c0-1-5-6-5-4s-1,5-2,8a17.5,17.5,0,0,0-1,5s-4-7-3-7,3-3,4-6-1-3,1-6A11.9,11.9,0,0,0,10296,634.9Z"/><rect class="b" x="9059" y="696.9" width="15" height="2"/><rect class="b" x="9052" y="716.9" width="1" height="3"/><path class="b" d="M7987,987s6-4,7-5,4-6,4-7,7-8,9-9,7-3,8-6,2-9,4-10,13.2-5.6,13.2-5.6-3.2,4.6-7.2,5.6a13.6,13.6,0,0,0-6,3,12.1,12.1,0,0,0-1,5c0,3,1,3-1,5s-3,1-4,3-7,2-8,3-1,4-2,5-1,1-4,6-2,5-5,6A26.4,26.4,0,0,1,7987,987Z"/><path class="b" d="M8576,733s-9.1,2-8,4,20,4.2,16,7.1-37.4,4.9-42.8,6.8C8532,754,8532,789,8532,789l-1-3-1,3-1-1-1,2s-1-41,15-42,36.6-2.7,37-4c1-3-14-5-14-7S8572,733,8576,733Z"/><polygon class="b" points="8537 696 8543 714 8545 709 8549 726 8544 715 8542 718 8537 696"/><path class="b" d="M8604,762l4,5h4c1,0,8-1,9-1s5,6,5,6l2,4a67.3,67.3,0,0,1,3.4,5.9,7.6,7.6,0,0,1,.6,2.1c0,2-2,6-2,8s4,5,4,5l3,4-2,5-2-6s2-1,0-2a13.8,13.8,0,0,1-4-3c-1-1-1-4-1-5s-1.3-5,.8-6-.8-6-1.8-7-4-5-5-6,0-2.7-1.5-3.3-.5-1.7-3.5-.7-4,0-6,1-3,0-4,0-3-2.7-3-2.7Z"/><path class="b" d="M8407,949l-2-6s1-2,2-2,5,0,5-1,3-7,3-7l6-2,7,2s-1.4,3-1.2,4,3.2,4,4.2,5,2.3.8,2.7,1.9-.7,7.1-.7,7.1h-4.2a2.6,2.6,0,0,0,1.2-2c0-1,0-3-1-4s-1,0-2-1-2.2-2-3.1-3-2.9,0-1.9-2,5-3,2-4-7-4-7-1-2,5-2,6,3,3,1,4-6,1-6,1-1,0-1,2A2,2,0,0,1,8407,949Z"/><polygon class="b" points="8392.3 843.7 8397.5 826.4 8394.9 840.6 8392.3 843.7"/><polyline class="b" points="8375.8 800 8374.5 801.5 8377.1 792.7"/><polyline class="b" points="8418.5 831.9 8415.9 835 8421.1 817.7"/><polygon class="b" points="8391.3 934.9 8398.7 910.3 8395 930.6 8391.3 934.9"/><polyline class="b" points="8454.5 902.9 8451.8 906.1 8457.2 888"/><polyline class="b" points="8428.7 918.2 8425 922.5 8432.4 897.9"/><polygon class="b" points="8395.3 889 8398.3 879 8396.8 887.3 8395.3 889"/><polyline class="b" points="8457 957.1 8454.3 960.3 8459.7 942.2"/><polyline class="b" points="8410.5 882.2 8409 884 8412 874"/><polygon class="b" points="8151 906 8152.8 900.8 8151.9 905.1 8151 906"/><polyline class="b" points="8166.4 899.2 8165.7 899.9 8167 896"/><polyline class="b" points="8160.1 902.4 8159.2 903.4 8161 898.1"/><polygon class="b" points="8064.5 1031.4 8069.1 1016 8066.8 1028.7 8064.5 1031.4"/><polyline class="b" points="8104.1 1011.3 8102.4 1013.3 8105.8 1002"/><polyline class="b" points="8087.9 1020.9 8085.6 1023.6 8090.2 1008.2"/><polygon class="b" points="8098.5 997.4 8103.1 982 8100.8 994.7 8098.5 997.4"/><polyline class="b" points="8105.7 1045.3 8104 1047.3 8107.4 1036"/><polygon class="b" points="8474.8 1018.4 8477.8 1008.4 8476.3 1016.6 8474.8 1018.4"/><polyline class="b" points="8500.4 1005.4 8499.3 1006.6 8501.5 999.3"/><polyline class="b" points="8490 1011.6 8488.5 1013.3 8491.5 1003.3"/><polygon class="b" points="8496.8 996.4 8499.8 986.4 8498.3 994.6 8496.8 996.4"/><polyline class="b" points="8501.4 1027.4 8500.3 1028.6 8502.5 1021.3"/><polygon class="b" points="8517.8 987.4 8520.8 977.4 8519.3 985.6 8517.8 987.4"/><polyline class="b" points="8543.4 974.4 8542.3 975.6 8544.5 968.3"/><polyline class="b" points="8533 980.6 8531.5 982.3 8534.5 972.3"/><polygon class="b" points="8539.8 965.4 8542.8 955.4 8541.3 963.6 8539.8 965.4"/><polyline class="b" points="8544.4 996.4 8543.3 997.6 8545.5 990.3"/><polygon class="b" points="8196.7 974.7 8203.8 951 8200.2 970.6 8196.7 974.7"/><polygon class="b" points="8300.1 958.8 8304.8 943.3 8302.4 956.1 8300.1 958.8"/><polyline class="b" points="8339.8 938.7 8338.1 940.7 8341.5 929.4"/><polyline class="b" points="8323.6 948.3 8321.2 951 8325.9 935.6"/><polygon class="b" points="8334.1 924.8 8338.8 909.4 8336.4 922.1 8334.1 924.8"/><polyline class="b" points="8341.3 972.7 8339.6 974.7 8343 963.4"/><polygon class="b" points="7898.6 905.2 7904.3 891.4 7901.5 902.8 7898.6 905.2"/><polygon class="b" points="7938.4 892.8 7944.1 879 7941.3 890.4 7938.4 892.8"/><polyline class="b" points="7987 874.9 7984.9 876.7 7989.1 866.6"/><polyline class="b" points="7967.2 883.4 7964.3 885.9 7970 872.1"/><polygon class="b" points="7980.1 862.5 7985.8 848.7 7982.9 860.1 7980.1 862.5"/><polyline class="b" points="7988.9 905.2 7986.8 907 7991 896.9"/><polygon class="b" points="8434.7 715.8 8438.3 703.7 8436.5 713.7 8434.7 715.8"/><polygon class="b" points="8460.1 704.9 8463.7 692.9 8461.9 702.8 8460.1 704.9"/><polyline class="b" points="8491 689.2 8489.7 690.8 8492.4 681.9"/><polyline class="b" points="8478.4 696.7 8476.6 698.8 8480.2 686.8"/><polygon class="b" points="8486.6 678.4 8490.2 666.3 8488.4 676.3 8486.6 678.4"/><polyline class="b" points="8492.2 715.8 8490.9 717.4 8493.6 708.5"/><path class="b" d="M8290.3,879c-1.3,0-4.7.7-6,.8s-2.3.2-2.3,1.2,0,3,1,4,0,7,0,8a7.6,7.6,0,0,1-2,4c-1,1,0,1-5,1s-8-2-11-1-13,4-14,4-3,1-5,1-5.3,4-5.3,4a8.2,8.2,0,0,0,3.3-1c2-1,2-2,4-2s2-1,4-1a8.7,8.7,0,0,0,4.8-1c2.2-1,2.2-1,3.2-1s2.8,1,1.9,1a23.6,23.6,0,0,0-3.9,1,3.5,3.5,0,0,1-2,1h-4s-3,1-1,1h4c2,0,2,1,4,0s1-1,2-1,2-1,3-1,.4-1,3.2-1h4.2s1.6,1-.4,1a10.3,10.3,0,0,0-4,1h2s2,1,3,0,1,0,2-1,.9,0,1.4-1,1.3-2.4,2.9-1.7.7.7,2.7.7,1,0,2-1,1.6-.2,1.3-2.1.3-1.3,0-2.6-.3.7.7-3.3a30.9,30.9,0,0,0,.8-4.8c.2-.2-1.5-2.2-1.5-2.2s.3,1.2,0-.9-.3-2.1.7-2.1,2-1,4-1,2.4-1,3.2-1h1.8c2,0,3,0,3-1s3-1,3-1-5.2-1-6.1,0A5.3,5.3,0,0,1,8290.3,879Z"/><polygon class="b" points="8036.5 910 8040.7 896.1 8038.6 907.5 8036.5 910"/><polygon class="b" points="8065.7 897.5 8069.9 883.6 8067.8 895 8065.7 897.5"/><polyline class="b" points="8101.4 879.4 8099.8 881.2 8102.9 871"/><polyline class="b" points="8086.8 888 8084.7 890.5 8088.9 876.6"/><polyline class="b" points="8102.8 910 8101.2 911.8 8104.3 901.6"/><polygon class="b" points="8563 779.2 8564.4 774.5 8563.7 778.3 8563 779.2"/><polygon class="b" points="8572.9 774.9 8574.3 770.2 8573.6 774.1 8572.9 774.9"/><polyline class="b" points="8584.9 768.8 8584.4 769.4 8585.5 766"/><polyline class="b" points="8580 771.8 8579.3 772.6 8580.7 767.9"/><polyline class="b" points="8585.4 779.2 8584.9 779.8 8585.9 776.3"/><polyline class="b" points="8634.1 675 8633 676.3 8635.2 669"/><polyline class="b" points="8623.6 681.2 8622.1 683 8625.1 673"/><polygon class="b" points="8630.5 666 8633.5 656 8632 664.3 8630.5 666"/><path class="b" d="M9747.7,749.4l-3,3-3.5-1.5s1.5-3.5.5-5.5a18.7,18.7,0,0,0-3-4Z"/><path class="b" d="M9621.7,690.4s-2-4-3-4-1-2-6-3l-5-1,8.3,4Z"/><path class="b" d="M9818.7,770.6l-3-3s-4-3-5-2-5.5-.2-5.5-.2h10Z"/><path class="b" d="M9717.7,730.4s-3,0-3.5-1-3.5-3-4.5-3,2.5,4,2.5,4Z"/><polygon class="b" points="10545.7 619.4 10542.7 609.4 10544.2 617.6 10545.7 619.4"/><polyline class="b" points="10540.5 626.6 10542 628.4 10539 618.4"/><polyline class="b" points="10520.5 605.6 10522 607.4 10519 597.4"/><path class="b" d="M10335.7,693.4c0,1-4,7-4,7h-3.5c-1.5,0-7.5,2-8.5,3s-2,3-8,6-11,2-12,4-1,1-3,6-5,5-2,11,2,9,1,11-6,2-6,3-1,2-1,6-2,5-4,6-4,3-5,3-3-2-1-3,2-4,4-6l3-3c1-1-6,4,0-2l7-7c3-3,2-5,1-5a2.2,2.2,0,0,1-2-2,10.1,10.1,0,0,0-1-3,3.5,3.5,0,0,0,1-2c0-1,1-2,0-2s3,0,2-2,0-1-1-3-2-4-3-4,3-2,5-2h4s2-1,2-2,2-2,3-2h4c1,0,6-1,6-2a10.1,10.1,0,0,1,1-3s-10-2-6-2a77.2,77.2,0,0,0,10-1h1c2,0,4,1,4,0s0-3,3-3h5s-1,0,1-2Z"/><polygon class="b" points="9323 572.1 9320 562.1 9321.5 570.4 9323 572.1"/><polyline class="b" points="10387.4 666.1 10388.5 667.4 10386.3 660.1"/><polyline class="b" points="10397.8 672.3 10399.3 674.1 10396.3 664.1"/><path class="b" d="M9521.7,592.4c-3-1.7-9.9-3.4-10.3-3.4a3.9,3.9,0,0,1-2.3-.2l-.7-.3c-2.2-.8-3-1.7-3.9-1.3s-3.3,2.9-1,2.6a27.5,27.5,0,0,1,8.6,0Z"/><path class="b" d="M9896.7,604.4v13.7c0,2.3,1,7.3,1,9.3s-1,6.6-1,9.8,2,7.2,5,8.2,4,2,3,4,3,6,5,10,4,4,2,4-5-7-8-9,2,2-4-3-9-5-9-5V653l-5-3.6s1-4-4-3-8,1-8,0,3-4,8-5a54.2,54.2,0,0,1,7.7-1.1s.3,4.1,1.3-.9,3.8-4.9,2.4-8.4-4.4-2.6-1.4-9.6,5-4,4-9-3.2-5-2.6-8,4.6-5,4.6-6a10.6,10.6,0,0,1,2-5C9900.7,592.4,9899.7,601.4,9896.7,604.4Z"/><polygon class="b" points="10045.4 715 10042.4 705 10043.9 713.2 10045.4 715"/><polyline class="b" points="10030.2 708.2 10031.7 709.9 10028.7 699.9"/><polygon class="b" points="9861 579.9 9858 569.9 9859.5 578.1 9861 579.9"/><polyline class="b" points="9822.4 570.9 9823.5 572.2 9821.3 564.8"/><polyline class="b" points="9828.9 578.1 9830.4 579.8 9827.4 569.8"/><polygon class="b" points="9781.5 577.9 9778.5 567.9 9780 576.1 9781.5 577.9"/><polyline class="b" points="9768.9 572.9 9770 574.2 9767.8 566.8"/><polyline class="b" points="9728.4 565.1 9729.9 566.8 9726.9 556.8"/><polyline class="b" points="9785.7 576.7 9786.8 578 9784.6 570.7"/><path class="b" d="M9650.7,519.4c5.6,2.8-10,1-11.5-1s-2.5-6-3.5-8-3-7-4-7-3-1-5-3-4-5-9-4-13-2-14-3-1.9,2.8-1.9,2.8l-4.1-3.8s12-3,15-3,5,3,7,3,2,3,5,4a21.5,21.5,0,0,1,7,4,21.9,21.9,0,0,1,3,5c1,2,5,2,6,4s0,3,0,4,2,2,3,2S9648.7,518.4,9650.7,519.4Z"/><polygon class="b" points="9572.7 408.4 9578.7 424.4 9574.7 420.4 9572.7 408.4"/><polyline class="b" points="9573.7 432.4 9574.8 433.6 9572.6 426.3"/><polyline class="b" points="9580.2 439.6 9581.7 441.3 9578.7 431.3"/><rect class="b" x="9772.7" y="543.4" width="15" height="2" transform="translate(19560.3 1088.8) rotate(-180)"/><rect class="b" x="9793.7" y="563.4" width="1" height="3" transform="translate(19588.3 1129.8) rotate(-180)"/><path class="b" d="M9754.7,673.5s-6-4-7-5-4-6-4-7-7-8-9-9-7-3-8-6-2-9-4-10-13.2-5.6-13.2-5.6,3.2,4.6,7.2,5.6a13.6,13.6,0,0,1,6,3,12.1,12.1,0,0,1,1,5c0,3-1,3,1,5s3,1,4,3,7,2,8,3,1,4,2,5,1,1,4,6,2,5,5,6A26.4,26.4,0,0,0,9754.7,673.5Z"/><path class="b" d="M10270.7,579.5s9.1,2,8,4-20,4.2-16,7.1,37.4,4.9,42.7,6.8c9.3,3.1,9.3,38.1,9.3,38.1l1-3,1,3,1-1,1,2s1-41-15-42-36.6-2.7-37-4c-1-3,14-5,14-7S10274.7,579.5,10270.7,579.5Z"/><polygon class="b" points="10309.7 542.5 10303.7 560.5 10301.7 555.5 10297.7 572.5 10302.7 561.5 10304.7 564.5 10309.7 542.5"/><path class="b" d="M10242.7,608.5l-4,5h-4c-1,0-8-1-9-1s-5,6-5,6l-2,4a47.7,47.7,0,0,0-3.4,5.9,5.2,5.2,0,0,0-.6,2.1c0,2,2,6,2,8s-4,5-4,5l-3,4,2,5,2-6s-2-1,0-2a13.8,13.8,0,0,0,4-3c1-1,1-4,1-5s1.3-5-.9-6,.9-6,1.9-7,4-5,5-6,0-2.7,1.5-3.3.5-1.7,3.5-.7,4,0,6,1,3,0,4,0,3-2.7,3-2.7Z"/><path class="b" d="M9349.7,688.5l2-6s-1-2-2-2-5,0-5-1-3-7-3-7l-6-2-7,2s1.4,3,1.2,4-3.2,4-4.2,5-2.4.8-2.7,1.9.7,7.1.7,7.1h4.2a2.6,2.6,0,0,1-1.2-2c0-1,0-3,1-4s1,0,2-1,2.2-2,3.1-3,2.9,0,1.9-2-5-3-2-4,7-4,7-1,2,5,2,6-3,3-1,4,6,1,6,1,1,0,1,2A2,2,0,0,0,9349.7,688.5Z"/><polygon class="b" points="10463.4 636.5 10460.4 626.5 10461.9 634.8 10463.4 636.5"/><polyline class="b" points="10437.7 623.5 10438.8 624.8 10436.6 617.5"/><polyline class="b" points="10448.2 629.7 10449.7 631.5 10446.7 621.5"/><polygon class="b" points="9383.4 650.5 9380.4 640.5 9381.9 648.8 9383.4 650.5"/><polyline class="b" points="9357.7 637.5 9358.8 638.8 9356.6 631.5"/><polyline class="b" points="9368.2 643.7 9369.7 645.5 9366.7 635.5"/><polygon class="b" points="9361.4 628.5 9358.4 618.5 9359.9 626.8 9361.4 628.5"/><polyline class="b" points="9356.7 659.5 9357.8 660.8 9355.6 653.5"/><polyline class="b" points="9346.2 621.7 9347.7 623.5 9344.7 613.5"/><polygon class="b" points="9605.7 645.5 9603.9 640.3 9604.8 644.6 9605.7 645.5"/><polyline class="b" points="9590.3 638.7 9590.9 639.4 9589.6 635.5"/><polyline class="b" points="9596.6 641.9 9597.5 642.9 9595.7 637.6"/><polygon class="b" points="9603.9 748.9 9600.9 738.9 9602.4 747.1 9603.9 748.9"/><polyline class="b" points="9578.2 735.9 9579.3 737.1 9577.1 729.8"/><polyline class="b" points="9588.7 742.1 9590.2 743.8 9587.2 733.8"/><polygon class="b" points="9581.9 726.9 9578.9 716.9 9580.4 725.1 9581.9 726.9"/><polyline class="b" points="9577.2 757.9 9578.3 759.1 9576.1 751.8"/><polygon class="b" points="10371.9 864.9 10368.9 854.9 10370.4 863.1 10371.9 864.9"/><polyline class="b" points="10346.2 851.9 10347.3 853.1 10345.1 845.8"/><polyline class="b" points="10356.7 858.1 10358.2 859.8 10355.2 849.8"/><polygon class="b" points="10349.9 842.9 10346.9 832.9 10348.4 841.1 10349.9 842.9"/><polyline class="b" points="10345.2 873.9 10346.3 875.1 10344.1 867.8"/><polygon class="b" points="10328.9 833.9 10325.9 823.9 10327.4 832.1 10328.9 833.9"/><polyline class="b" points="10303.2 820.9 10304.3 822.1 10302.1 814.8"/><polyline class="b" points="10313.7 827.1 10315.2 828.8 10312.2 818.8"/><polygon class="b" points="10306.9 811.9 10303.9 801.9 10305.4 810.1 10306.9 811.9"/><polyline class="b" points="10302.2 842.9 10303.3 844.1 10301.1 836.8"/><polygon class="b" points="9472.4 710.9 9469.4 700.9 9470.9 709.1 9472.4 710.9"/><polygon class="b" points="9451.4 701.9 9448.4 691.9 9449.9 700.1 9451.4 701.9"/><polyline class="b" points="9425.7 688.9 9426.8 690.1 9424.6 682.8"/><polyline class="b" points="9436.2 695.1 9437.7 696.8 9434.7 686.8"/><polygon class="b" points="9429.4 679.9 9426.4 669.9 9427.9 678.1 9429.4 679.9"/><polyline class="b" points="9424.7 710.9 9425.8 712.1 9423.6 704.8"/><polygon class="b" points="9830 644.2 9827 634.2 9828.5 642.4 9830 644.2"/><polygon class="b" points="9809 635.2 9806 625.2 9807.5 633.4 9809 635.2"/><polyline class="b" points="9783.4 622.2 9784.5 623.5 9782.3 616.1"/><polyline class="b" points="9793.9 628.4 9795.4 630.1 9792.4 620.1"/><polygon class="b" points="9787 613.2 9784 603.2 9785.5 611.4 9787 613.2"/><polyline class="b" points="9782.4 644.2 9783.5 645.5 9781.3 638.1"/><polygon class="b" points="10388.9 553.8 10385.9 543.8 10387.4 552 10388.9 553.8"/><polygon class="b" points="10367.9 544.8 10364.9 534.8 10366.4 543 10367.9 544.8"/><polyline class="b" points="10342.3 531.8 10343.4 533.1 10341.2 525.8"/><polyline class="b" points="10352.8 538 10354.3 539.8 10351.3 529.8"/><polygon class="b" points="10345.9 522.8 10342.9 512.8 10344.4 521 10345.9 522.8"/><polyline class="b" points="10341.3 553.8 10342.4 555.1 10340.2 547.8"/><path class="b" d="M9466.3,618.5c1.4,0,4.8.7,6.1.8s2.3.2,2.3,1.2,0,3-1,4,0,7,0,8a7.6,7.6,0,0,0,2,4c1,1,0,1,5,1s8-2,11-1,13,4,14,4,3,1,5,1,5.3,4,5.3,4a8.2,8.2,0,0,1-3.3-1c-2-1-2-2-4-2s-2-1-4-1a8.7,8.7,0,0,1-4.8-1c-2.2-1-2.2-1-3.2-1s-2.8,1-1.9,1a23.6,23.6,0,0,1,3.9,1,3.5,3.5,0,0,0,2,1h4s3,1,1,1h-4c-2,0-2,1-4,0s-1-1-2-1-2-1-3-1-.5-1-3.3-1h-4.2s-1.5,1,.5,1a10.3,10.3,0,0,1,4,1h-2s-2,1-3,0-1,0-2-1-.9,0-1.5-1-1.2-2.4-2.9-1.7-.6.7-2.6.7-1,0-2-1-1.6-.2-1.3-2.1-.3-1.3,0-2.6.3.7-.7-3.3a30.9,30.9,0,0,1-.8-4.8c-.2-.2,1.5-2.2,1.5-2.2s-.3,1.2,0-.9.3-2.1-.7-2.1-2-1-4-1-2.5-1-3.3-1h-1.7c-2,0-3,0-3-1s-3-1-3-1,5.2-1,6.1,0A5.3,5.3,0,0,0,9466.3,618.5Z"/><polygon class="b" points="9720.2 650.7 9718.8 646.4 9719.5 650 9720.2 650.7"/><polygon class="b" points="9711 646.8 9709.7 642.4 9710.4 646 9711 646.8"/><polyline class="b" points="9699.8 641.1 9700.3 641.7 9699.4 638.5"/><polyline class="b" points="9704.4 643.8 9705.1 644.6 9703.7 640.2"/><polyline class="b" points="9699.4 650.7 9699.9 651.3 9698.9 648.1"/><polygon class="b" points="10283.6 625.7 10282.2 621 10282.9 624.8 10283.6 625.7"/><polygon class="b" points="10273.8 621.4 10272.4 616.7 10273.1 620.6 10273.8 621.4"/><polyline class="b" points="10261.7 615.3 10262.2 615.9 10261.2 612.5"/><polyline class="b" points="10266.6 618.3 10267.4 619.1 10265.9 614.4"/><polyline class="b" points="10261.3 625.7 10261.8 626.3 10260.7 622.8"/><polyline class="b" points="10212.6 521.5 10213.7 522.8 10211.5 515.5"/><polyline class="b" points="10223 527.7 10224.5 529.5 10221.5 519.5"/><polygon class="b" points="10216.2 512.5 10213.2 502.5 10214.7 510.8 10216.2 512.5"/><path class="b" d="M10186.7,751l-1,3-3,2-2,6s-1,3-2,3-5,3-5,5,0,6-1,7-3,3-3,5,1,2,1,3a7.6,7.6,0,0,1-1,4,32.1,32.1,0,0,1-3,5c-2,3,0,2-3,5a23.1,23.1,0,0,1-7,5c-2,1-9,3-12,3s-4,1-6,1-7,1-12,2-5-1-8,4-2,6-4,8,.2,1.5-3.9,3.8-5.1,3.2-5.1,2.2,2-6,3-6,6-2,6-3-3,0-1-3,5-3,5-5-2-2,0-3a20,20,0,0,1,9-2c4,0,3,0,7-1s2-1,7-1h8a5.2,5.2,0,0,0,4-2c1-1,3,0,2-2s-2-3-1-3a12.3,12.3,0,0,0,7-2c3-2,4-1,4-2s-1-1,0-3a9,9,0,0,0,1-5c0-2,1-2,1-3s-4-1-1-3,3-2,4-3a4.9,4.9,0,0,0,1-3s-3-2-1-4,6-3,6-4,1-2,2-4,2-2,2-3a8.8,8.8,0,0,1,1.2-4c.8-1,3.8,0,3.8-1A3.5,3.5,0,0,1,10186.7,751Z"/><path class="b" d="M10099.4,758.5v13.7c0,2.3,1,7.3,1,9.3s-1,6.6-1,9.8,2,7.2,5,8.2,4,2,3,4,3,6,5,10,4,4,2,4-5-7-8-9,2,2-4-3-9-5-9-5v6.6l-5-3.6s1-4-4-3-8,1-8,0,3-4,8-5a54.2,54.2,0,0,1,7.7-1.1s.3,4.1,1.3-.9,3.8-4.9,2.4-8.4-4.4-2.6-1.4-9.6,5-4,4-9-3.2-5-2.6-8,4.6-5,4.6-6a10.6,10.6,0,0,1,2-5C10103.4,746.5,10102.4,755.5,10099.4,758.5Z"/><polygon class="b" points="10063.7 734 10060.7 724 10062.2 732.3 10063.7 734"/><polyline class="b" points="10025.1 725 10026.2 726.3 10024 719"/><polyline class="b" points="10031.6 732.2 10033.1 734 10030.1 724"/><polygon class="b" points="10032.7 798.3 10029.7 788.3 10031.2 796.6 10032.7 798.3"/><path class="b" d="M8555.2,1000.2c-2.2.8-6.2,6.5-8.2,8.2s-6.1,2.9-7.1,7.3,2.8,1.9-2.6,6.1-14.7,6.8-16.5,9-7.8,6.3-9.8,9.8-3.8,3.8-6.9,6.1-17.6,7.3-20.4,8.3-6.7,5.8-7.7,7.9-4.7,8.9-4.3,12.5,1,21.6.6,23.6-1,6.8-.7,8.4,1.6,5,1.6,5,2.8-12.4,2.8-13.4a10.6,10.6,0,0,0-.6-6c-1.4-4-.1-7.3-1.2-8.7s.5-8.5,1.2-8.9.2-2.4.9-4.4.5-1.1,5.6-6.6,3.5-6.6,6.3-7.5,3.6.1,6.7-1.9,5.2-2.1,7.6-3.6,1.9,0,4.2-1.2,5.1-1.6,6.7-3.9,1.6-1.3,2.6-4.3-.4-3.1,1.8-5.5,4.4-3.7,5.3-4.6-.3-1.6,2.8-2.2,4-.4,5.6-1.1,6.4,1.2,8.4-1.7,1.7-1.9,2.9-3.9,2.3-3.1,2.7-5.6-1.4-2.8,0-4.1-.6-1.9,1.5-3.3,4-5,4-5l4-4"/><path class="b" d="M13473.7,877.5s-2-4-3-4-1-2-6-3l-5-1,8.3,4Z"/><polygon class="b" points="13307.7 699.5 13304.7 689.5 13306.2 697.8 13307.7 699.5"/><polyline class="b" points="13302.5 706.7 13304 708.5 13301 698.5"/><polyline class="b" points="13282.5 685.7 13284 687.5 13281 677.5"/><path class="b" d="M11611.7,767.5l1,3,3,2,2,6s1,3,2,3,5,3,5,5,0,6,1,7,3,3,3,5-1,2-1,3a7.6,7.6,0,0,0,1,4,32.1,32.1,0,0,0,3,5c2,3,0,2,3,5a23.1,23.1,0,0,0,7,5c2,1,9,3,12,3s4,1,6,1,7,1,12,2,5-1,8,4,2,6,4,8-.2,1.5,3.9,3.8,5.1,3.2,5.1,2.2-2-6-3-6-6-2-6-3,3,0,1-3-5-3-5-5,2-2,0-3a20,20,0,0,0-9-2c-4,0-3,0-7-1s-2-1-7-1h-8a5.2,5.2,0,0,1-4-2c-1-1-3,0-2-2s2-3,1-3a12.3,12.3,0,0,1-7-2c-3-2-4-1-4-2s1-1,0-3a9,9,0,0,1-1-5c0-2-1-2-1-3s4-1,1-3-3-2-4-3a4.9,4.9,0,0,1-1-3s3-2,1-4-6-3-6-4-1-2-2-4-2-2-2-3a7.6,7.6,0,0,0-1.3-4c-.7-1-3.7,0-3.7-1A3.5,3.5,0,0,0,11611.7,767.5Z"/><path class="b" d="M13097.7,773.5c0,1-4,7-4,7h-3.5c-1.5,0-7.5,2-8.5,3s-2,3-8,6-11,2-12,4-1,1-3,6-5,5-2,11,2,9,1,11-6,2-6,3-1,2-1,6-2,5-4,6-4,3-5,3-3-2-1-3,2-4,4-6l3-3c1-1-6,4,0-2l7-7c3-3,2-5,1-5a2.2,2.2,0,0,1-2-2,10.1,10.1,0,0,0-1-3,3.5,3.5,0,0,0,1-2c0-1,1-2,0-2s3,0,2-2,0-1-1-3-2-4-3-4,3-2,5-2h4s2-1,2-2,2-2,3-2h4c1,0,6-1,6-2a10.1,10.1,0,0,1,1-3s-10-2-6-2a77.2,77.2,0,0,0,10-1h1c2,0,4,1,4,0s0-3,3-3h5s-1,0,1-2Z"/><polygon class="b" points="13175 759.2 13172 749.2 13173.5 757.5 13175 759.2"/><polyline class="b" points="13149.4 746.2 13150.5 747.5 13148.3 740.2"/><polyline class="b" points="13159.8 752.4 13161.3 754.2 13158.3 744.2"/><path class="b" d="M13373.7,779.5c-3-1.7-9.9-3.4-10.3-3.4a3.9,3.9,0,0,1-2.3-.2l-.7-.2c-2.2-.9-3-1.8-3.9-1.3s-3.3,2.9-1,2.5a27.5,27.5,0,0,1,8.6,0Z"/><path class="b" d="M12658.7,684.5v13.7c0,2.3,1,7.3,1,9.3s-1,6.6-1,9.8,2,7.2,5,8.2,4,2,3,4,3,6,5,10,4,4,2,4-5-7-8-9,2,2-4-3-9-5-9-5v6.6l-5-3.6s1-4-4-3-8,1-8,0,3-4,8-5a54.2,54.2,0,0,1,7.7-1.1s.3,4.1,1.3-.9,3.8-4.9,2.4-8.4-4.4-2.6-1.4-9.6,5-4,4-9-3.2-5-2.6-8,4.6-5,4.6-6a10.6,10.6,0,0,1,2-5C12662.7,672.5,12661.7,681.5,12658.7,684.5Z"/><polygon class="b" points="12807.4 795.1 12804.4 785.1 12805.9 793.3 12807.4 795.1"/><polyline class="b" points="12792.2 788.3 12793.7 790.1 12790.7 780.1"/><polygon class="b" points="12623 660 12620 650 12621.5 658.2 12623 660"/><polyline class="b" points="12584.4 651 12585.5 652.3 12583.3 644.9"/><polyline class="b" points="12590.9 658.2 12592.4 659.9 12589.4 649.9"/><polygon class="b" points="12543.5 658 12540.5 648 12542 656.2 12543.5 658"/><polyline class="b" points="12530.9 653 12532 654.3 12529.8 646.9"/><polyline class="b" points="12490.4 645.2 12491.9 646.9 12488.9 636.9"/><polyline class="b" points="12547.7 656.8 12548.8 658.1 12546.6 650.8"/><path class="b" d="M12412.7,599.5c5.6,2.8-10,1-11.5-1s-2.5-6-3.5-8-3-7-4-7-3-1-5-3-4-5-9-4-13-2-14-3-1.9,2.8-1.9,2.8l-4.1-3.8s12-3,15-3,5,3,7,3,2,3,5,4a21.5,21.5,0,0,1,7,4,21.9,21.9,0,0,1,3,5c1,2,5,2,6,4s0,3,0,4,2,2,3,2S12410.7,598.5,12412.7,599.5Z"/><polygon class="b" points="12334.7 488.5 12340.7 504.5 12336.7 500.5 12334.7 488.5"/><polyline class="b" points="12335.7 512.5 12336.8 513.8 12334.6 506.4"/><polyline class="b" points="12342.2 519.7 12343.7 521.4 12340.7 511.4"/><path class="b" d="M11312.7,561.5c-1,2-5,4-4,6s-2,6-4,7,2,4,1,7-2,6-2,7-9,3-10,5-3,4-3,6,2-1,3-3,2-1,4-2,4-2,6-2,4-3,4-5-1-2,0-5a13.4,13.4,0,0,0,1-5c0-1,5-6,5-4s1,5,2,8a17.5,17.5,0,0,1,1,5s4-7,3-7-3-3-4-6,1-3-1-6A11.9,11.9,0,0,1,11312.7,561.5Z"/><rect class="b" x="12534.7" y="623.5" width="15" height="2" transform="translate(25084.3 1249) rotate(-180)"/><rect class="b" x="12555.7" y="643.5" width="1" height="3" transform="translate(25112.3 1290) rotate(-180)"/><path class="b" d="M12712,862s9.1,2,8,4-20,4.2-16,7.1,37.4,4.9,42.8,6.8c9.2,3.1,9.2,38.1,9.2,38.1l1-3,1,3,1-1,1,2s1-41-15-42-36.6-2.7-37-4c-1-3,14-5,14-7S12716,862,12712,862Z"/><polygon class="b" points="12751 825 12745 843 12743 838 12739 855 12744 844 12746 847 12751 825"/><path class="b" d="M12684,891l-4,5h-4c-1,0-8-1-9-1s-5,6-5,6l-2,4a67.3,67.3,0,0,0-3.4,5.9,7.6,7.6,0,0,0-.6,2.1c0,2,2,6,2,8s-4,5-4,5l-3,4,2,5,2-6s-2-1,0-2a13.8,13.8,0,0,0,4-3c1-1,1-4,1-5s1.3-5-.8-6,.8-6,1.8-7,4-5,5-6,0-2.7,1.5-3.3.5-1.7,3.5-.7,4,0,6,1,3,0,4,0,3-2.7,3-2.7Z"/><path class="b" d="M13201.7,875.6l2-6s-1-2-2-2-5,0-5-1-3-7-3-7l-6-2-7,2s1.4,3,1.2,4-3.2,4-4.2,5-2.4.8-2.7,1.9.7,7.1.7,7.1h4.2a2.6,2.6,0,0,1-1.2-2c0-1,0-3,1-4s1,0,2-1,2.2-2,3.1-3,2.9,0,1.9-2-5-3-2-4,7-4,7-1,2,5,2,6-3,3-1,4,6,1,6,1,1,0,1,2A2,2,0,0,0,13201.7,875.6Z"/><polygon class="b" points="13225.4 716.6 13222.4 706.6 13223.9 714.9 13225.4 716.6"/><polyline class="b" points="12879.1 906 12880.2 907.3 12878 900"/><polyline class="b" points="12889.5 912.2 12891 914 12888 904"/><polygon class="b" points="13235.4 837.6 13232.4 827.6 13233.9 835.9 13235.4 837.6"/><polyline class="b" points="13209.7 824.6 13210.8 825.9 13208.6 818.6"/><polyline class="b" points="13220.2 830.8 13221.7 832.6 13218.7 822.6"/><polygon class="b" points="13213.4 815.6 13210.4 805.6 13211.9 813.9 13213.4 815.6"/><polyline class="b" points="13208.7 846.6 13209.8 847.9 13207.6 840.6"/><polyline class="b" points="13198.2 808.8 13199.7 810.6 13196.7 800.6"/><polygon class="b" points="13457.7 832.6 13455.9 827.4 13456.8 831.7 13457.7 832.6"/><polyline class="b" points="13442.3 825.8 13442.9 826.5 13441.6 822.6"/><polyline class="b" points="13448.6 829.1 13449.5 830 13447.7 824.7"/><polygon class="b" points="13455.9 936 13452.9 926 13454.4 934.2 13455.9 936"/><polyline class="b" points="13430.2 923 13431.3 924.3 13429.1 916.9"/><polyline class="b" points="13440.7 929.2 13442.2 930.9 13439.2 920.9"/><polygon class="b" points="13433.9 914 13430.9 904 13432.4 912.2 13433.9 914"/><polyline class="b" points="13429.2 945 13430.3 946.3 13428.1 938.9"/><polygon class="b" points="13133.9 945 13130.9 935 13132.4 943.2 13133.9 945"/><polyline class="b" points="13108.2 932 13109.3 933.3 13107.1 925.9"/><polyline class="b" points="13118.7 938.2 13120.2 939.9 13117.2 929.9"/><polygon class="b" points="13111.9 923 13108.9 913 13110.4 921.2 13111.9 923"/><polyline class="b" points="13107.2 954 13108.3 955.3 13106.1 947.9"/><polygon class="b" points="13090.9 914 13087.9 904 13089.4 912.2 13090.9 914"/><polyline class="b" points="13065.2 901 13066.3 902.3 13064.1 894.9"/><polyline class="b" points="13075.7 907.2 13077.2 908.9 13074.2 898.9"/><polygon class="b" points="13068.9 892 13065.9 882 13067.4 890.2 13068.9 892"/><polyline class="b" points="13064.2 923 13065.3 924.3 13063.1 916.9"/><polygon class="b" points="13324.4 898 13321.4 888 13322.9 896.2 13324.4 898"/><polygon class="b" points="13303.4 889 13300.4 879 13301.9 887.2 13303.4 889"/><polyline class="b" points="13277.7 876 13278.8 877.3 13276.6 869.9"/><polyline class="b" points="13288.2 882.2 13289.7 883.9 13286.7 873.9"/><polygon class="b" points="13281.4 867 13278.4 857 13279.9 865.2 13281.4 867"/><polyline class="b" points="13276.7 898 13277.8 899.3 13275.6 891.9"/><polygon class="b" points="12830.3 836.3 12827.3 826.3 12828.8 834.5 12830.3 836.3"/><polygon class="b" points="12809.3 827.3 12806.3 817.3 12807.8 825.5 12809.3 827.3"/><polyline class="b" points="12783.6 814.3 12784.7 815.6 12782.5 808.3"/><polyline class="b" points="12794.1 820.5 12795.6 822.3 12792.6 812.3"/><polygon class="b" points="12787.3 805.3 12784.3 795.3 12785.8 803.5 12787.3 805.3"/><polyline class="b" points="12782.6 836.3 12783.7 837.6 12781.5 830.3"/><path class="b" d="M13318.3,805.6a59.7,59.7,0,0,1,6.1.9c1.3.1,2.3.1,2.3,1.1s0,3-1,4,0,7,0,8a7.6,7.6,0,0,0,2,4c1,1,0,1,5,1s8-2,11-1,13,4.1,14,4,3,1,5,1,5.3,4,5.3,4a8.2,8.2,0,0,1-3.3-1c-2-1-2-2-4-2s-2-1-4-1a7.9,7.9,0,0,1-4.8-1c-2.2-1-2.2-1-3.2-1s-2.8,1.1-1.9,1a23.6,23.6,0,0,1,3.9,1,3.5,3.5,0,0,0,2,1h4s3,1,1,1h-4c-2,0-2,1-4,0s-1-1-2-1-2-1-3-1-.5-1-3.3-1h-4.2s-1.5,1,.5,1a10.3,10.3,0,0,1,4,1h-2s-2,1-3,0-1,0-2-1-.9,0-1.5-1-1.2-2.4-2.9-1.7-.6.7-2.6.7-1,0-2-1-1.6-.2-1.3-2.1-.3-1.3,0-2.6.3.7-.7-3.3a28.9,28.9,0,0,1-.8-4.8c-.2-.2,1.5-2.2,1.5-2.2s-.3,1.2,0-.9.3-2.1-.7-2.1-2-1-4-1-2.5-.9-3.3-1h-1.7c-2,0-3,0-3-1s-3-1-3-1,5.2-1,6.1,0S13317,805.7,13318.3,805.6Z"/><polygon class="b" points="12725 908.2 12723.6 903.5 12724.3 907.3 12725 908.2"/><polygon class="b" points="12715.1 903.9 12713.7 899.2 12714.4 903.1 12715.1 903.9"/><polyline class="b" points="12703.1 897.8 12703.6 898.4 12702.5 895"/><polyline class="b" points="12708 900.8 12708.7 901.6 12707.3 896.9"/><polyline class="b" points="12702.6 908.2 12703.1 908.8 12702.1 905.3"/><polyline class="b" points="12653.9 804 12655 805.3 12652.8 798"/><polyline class="b" points="12664.4 810.2 12665.9 812 12662.9 802"/><polygon class="b" points="12657.5 795 12654.5 785 12656 793.3 12657.5 795"/><path class="b" d="M11861,676l3,3,3.5-1.5s-1.5-3.5-.5-5.5a18.7,18.7,0,0,1,3-4Z"/><path class="b" d="M11987,617s2-4,3-4,1-2,6-3l5-1-8.3,4Z"/><path class="b" d="M11790,697.2l3-3s4-3,5-2,5.5-.2,5.5-.2h-10Z"/><path class="b" d="M11891,657s3,0,3.5-1,3.5-3,4.5-3-2.5,4-2.5,4Z"/><polygon class="b" points="11063 546 11066 536 11064.5 544.3 11063 546"/><polyline class="b" points="11068.2 553.2 11066.7 555 11069.7 545"/><polyline class="b" points="11088.2 532.2 11086.7 534 11089.7 524"/><path class="b" d="M11273,620c0,1,4,7,4,7h3.4c1.6,0,7.6,2,8.6,3s2,3,8,6,11,2,12,4,1,1,3,6,5,5,2,11-2,9-1,11,6,2,6,3,1,2,1,6,2,5,4,6,4,3,5,3,3-2,1-3-2-4-4-6l-3-3c-1-1,6,4,0-2l-7-7c-3-3-2-5-1-5a2.2,2.2,0,0,0,2-2,10.1,10.1,0,0,1,1-3,3.5,3.5,0,0,1-1-2c0-1-1-2,0-2s-3,0-2-2,0-1,1-3,2-4,3-4-3-2-5-2h-4s-2-1-2-2-2-2-3-2h-4c-1,0-6-1-6-2a10.1,10.1,0,0,0-1-3s10-2,6-2a77.2,77.2,0,0,1-10-1h-1c-2,0-4,1-4,0s0-3-3-3h-5s1,0-1-2Z"/><polygon class="b" points="12285.7 498.7 12288.7 488.7 12287.2 497 12285.7 498.7"/><polyline class="b" points="11221.3 592.7 11220.2 594 11222.4 586.7"/><polyline class="b" points="11210.8 598.9 11209.3 600.7 11212.3 590.7"/><path class="b" d="M12074,763c3-1.7,9.9-3.4,10.3-3.4a3.9,3.9,0,0,0,2.3-.2l.7-.2c2.2-.9,3-1.8,3.9-1.3s3.3,2.9,1,2.5a27.5,27.5,0,0,0-8.6,0Z"/><path class="b" d="M11699,775v13.7c0,2.3-1,7.3-1,9.3s1,6.6,1,9.8-2,7.2-5,8.2-4,2-3,4-3,6-5,10-4,4-2,4,5-7,8-9-2,2,4-3,9-5,9-5v6.6l5-3.6s-1-4,4-3,8,1,8,0-3-4-8-5a54.2,54.2,0,0,0-7.7-1.1s-.3,4.1-1.3-.9-3.8-4.9-2.4-8.4,4.4-2.6,1.4-9.6-5-4-4-9,3.2-5,2.6-8-4.6-5-4.6-6a10.6,10.6,0,0,0-2-5C11695,763,11696,772,11699,775Z"/><polygon class="b" points="11563.3 641.6 11566.3 631.6 11564.8 639.8 11563.3 641.6"/><polyline class="b" points="11578.5 634.8 11577 636.6 11580 626.6"/><polygon class="b" points="11734.6 750.5 11737.6 740.5 11736.1 748.7 11734.6 750.5"/><polyline class="b" points="11773.3 741.5 11772.2 742.8 11774.4 735.4"/><polyline class="b" points="11766.8 748.7 11765.3 750.4 11768.3 740.4"/><polygon class="b" points="11814.1 748.5 11817.1 738.5 11815.6 746.7 11814.1 748.5"/><polyline class="b" points="11826.8 743.5 11825.7 744.8 11827.9 737.4"/><polyline class="b" points="11867.3 735.7 11865.8 737.4 11868.8 727.4"/><polyline class="b" points="11810 747.3 11808.9 748.6 11811.1 741.3"/><path class="b" d="M11945,690c-5.7,2.8,10,1,11.5-1s2.5-6,3.5-8,3-7,4-7,3-1,5-3,4-5,9-4,13-2,14-3,1.8,2.8,1.8,2.8l4.2-3.8s-12-3-15-3-5,3-7,3-2,3-5,4a21.5,21.5,0,0,0-7,4,21.9,21.9,0,0,0-3,5c-1,2-5,2-6,4s0,3,0,4-2,2-3,2S11947,689,11945,690Z"/><polygon class="b" points="12023 579 12017 595 12021 591 12023 579"/><polyline class="b" points="12021.9 603 12020.8 604.3 12023 596.9"/><polyline class="b" points="12015.5 610.2 12014 611.9 12017 601.9"/><rect class="b" x="11808" y="714" width="15" height="2"/><rect class="b" x="11801" y="734" width="1" height="3"/><path class="b" d="M11854,600.1s6-4,7-5,4-6,4-7,7-8,9-9,7-3,8-6,2-9,4-10,13.2-5.5,13.2-5.5-3.2,4.5-7.2,5.5a13.6,13.6,0,0,0-6,3,12.1,12.1,0,0,0-1,5c0,3,1,3-1,5s-3,1-4,3-7,2-8,3-1,4-2,5-1,1-4,6-2,5-5,6A26.4,26.4,0,0,1,11854,600.1Z"/><path class="b" d="M11338,506.1s-9.1,2-8,4,20,4.2,16,7.1-37.4,5-42.8,6.8c-9.2,3.1-9.2,38.1-9.2,38.1l-1-3-1,3-1-1-1,2s-1-41,15-42,36.6-2.6,37-4c1-3-14-5-14-7S11334,506.1,11338,506.1Z"/><polygon class="b" points="11299 469.1 11305 487.1 11307 482.1 11311 499.1 11306 488.1 11304 491.1 11299 469.1"/><path class="b" d="M11366,535.1l4,5h4c1,0,8-1,9-1s5,6,5,6l2,4a67.3,67.3,0,0,1,3.4,5.9,8.7,8.7,0,0,1,.6,2.1c0,2-2,6-2,8s4,5,4,5l3,4-2,5-2-6s2-1,0-2a13.8,13.8,0,0,1-4-3c-1-1-1-4-1-5s-1.3-5,.8-6-.8-6-1.8-7-4-5-5-6,0-2.6-1.5-3.3-.5-1.7-3.5-.7-4,0-6,1-3,0-4,0-3-2.6-3-2.6Z"/><path class="b" d="M12259,615.1l-2-6s1-2,2-2,5,0,5-1,3-7,3-7l6-2,7,2s-1.4,3-1.2,4,3.2,4,4.2,5,2.3.8,2.7,1.9-.7,7.1-.7,7.1h-4.2a2.6,2.6,0,0,0,1.2-2c0-1,0-3-1-4s-1,0-2-1-2.2-2-3.1-3-2.9,0-1.9-2,5-3,2-4-7-4-7-1-2,5-2,6,3,3,1,4-6,1-6,1-1,0-1,2A2,2,0,0,1,12259,615.1Z"/><polygon class="b" points="11145.3 563.1 11148.3 553.1 11146.8 561.4 11145.3 563.1"/><polyline class="b" points="11170.9 550.1 11169.8 551.4 11172 544.1"/><polyline class="b" points="11160.5 556.3 11159 558.1 11162 548.1"/><polygon class="b" points="12225.3 577.1 12228.3 567.1 12226.8 575.4 12225.3 577.1"/><polyline class="b" points="12250.9 564.1 12249.8 565.4 12252 558.1"/><polyline class="b" points="12240.5 570.3 12239 572.1 12242 562.1"/><polygon class="b" points="12234.3 799.1 12237.3 789.1 12235.8 797.4 12234.3 799.1"/><polyline class="b" points="12251.9 586.1 12250.8 587.4 12253 580.1"/><polyline class="b" points="12249.5 792.3 12248 794.1 12251 784.1"/><polygon class="b" points="12003 572.1 12004.8 566.9 12003.9 571.2 12003 572.1"/><polyline class="b" points="12018.4 565.3 12017.7 566 12019 562.1"/><polyline class="b" points="12012.1 568.6 12011.2 569.5 12013 564.2"/><polygon class="b" points="12004.8 675.5 12007.8 665.5 12006.3 673.7 12004.8 675.5"/><polyline class="b" points="12030.4 662.5 12029.3 663.8 12031.5 656.4"/><polyline class="b" points="12020 668.7 12018.5 670.4 12021.5 660.4"/><polygon class="b" points="12026.8 653.5 12029.8 643.5 12028.3 651.7 12026.8 653.5"/><polyline class="b" points="12031.4 684.5 12030.3 685.8 12032.5 678.4"/><polygon class="b" points="11236.8 791.5 11239.8 781.5 11238.3 789.7 11236.8 791.5"/><polyline class="b" points="11262.4 778.5 11261.3 779.8 11263.5 772.4"/><polyline class="b" points="11252 784.7 11250.5 786.4 11253.5 776.4"/><polygon class="b" points="11258.8 769.5 11261.8 759.5 11260.3 767.7 11258.8 769.5"/><polyline class="b" points="11263.4 800.5 11262.3 801.8 11264.5 794.4"/><polygon class="b" points="11279.8 760.5 11282.8 750.5 11281.3 758.7 11279.8 760.5"/><polyline class="b" points="11305.4 747.5 11304.3 748.8 11306.5 741.4"/><polyline class="b" points="11295 753.7 11293.5 755.4 11296.5 745.4"/><polygon class="b" points="11301.8 738.5 11304.8 728.5 11303.3 736.7 11301.8 738.5"/><polyline class="b" points="11306.4 769.5 11305.3 770.8 11307.5 763.4"/><polygon class="b" points="12136.3 637.5 12139.3 627.5 12137.8 635.7 12136.3 637.5"/><polygon class="b" points="12157.3 628.5 12160.3 618.5 12158.8 626.7 12157.3 628.5"/><polyline class="b" points="12182.9 615.5 12181.8 616.8 12184 609.4"/><polyline class="b" points="12172.5 621.7 12171 623.4 12174 613.4"/><polygon class="b" points="12179.3 606.5 12182.3 596.5 12180.8 604.7 12179.3 606.5"/><polyline class="b" points="12183.9 637.5 12182.8 638.8 12185 631.4"/><polygon class="b" points="11778.6 570.8 11781.6 560.8 11780.1 569.1 11778.6 570.8"/><polygon class="b" points="11799.6 561.8 11802.6 551.8 11801.1 560.1 11799.6 561.8"/><polyline class="b" points="11812.3 792.8 11811.2 794.1 11813.4 786.8"/><polyline class="b" points="11801.8 799 11800.3 800.8 11803.3 790.8"/><polygon class="b" points="11808.6 783.8 11811.6 773.8 11810.1 782.1 11808.6 783.8"/><polyline class="b" points="11826.3 570.8 11825.2 572.1 11827.4 564.8"/><polygon class="b" points="11219.7 480.4 11222.7 470.4 11221.2 478.7 11219.7 480.4"/><polygon class="b" points="11240.7 471.4 11243.7 461.4 11242.2 469.7 11240.7 471.4"/><polyline class="b" points="11266.4 458.4 11265.3 459.7 11267.5 452.4"/><polyline class="b" points="11255.9 464.6 11254.4 466.4 11257.4 456.4"/><polygon class="b" points="11262.7 449.4 11265.7 439.4 11264.2 447.7 11262.7 449.4"/><polyline class="b" points="11267.4 480.4 11266.3 481.7 11268.5 474.4"/><path class="b" d="M12129.3,789.1c-1.3,0-4.7.7-6,.9s-2.3.1-2.3,1.1,0,3,1,4,0,7,0,8a7.6,7.6,0,0,1-2,4c-1,1,0,1-5,1s-8-2-11-1-13,4.1-14,4-3,1-5,1-5.3,4-5.3,4a8.2,8.2,0,0,0,3.3-1c2-1,2-2,4-2s2-1,4-1a7.9,7.9,0,0,0,4.8-1c2.2-1,2.2-1,3.2-1s2.8,1.1,1.9,1a23.6,23.6,0,0,0-3.9,1,3.5,3.5,0,0,1-2,1h-4s-3,1-1,1h4c2,0,2,1,4,0s1-1,2-1,2-1,3-1,.4-1,3.2-1h4.2s1.6,1-.4,1a10.3,10.3,0,0,0-4,1h2s2,1,3,0,1,0,2-1,.9,0,1.4-1,1.3-2.4,2.9-1.7.7.7,2.7.7,1,0,2-1,1.6-.2,1.3-2.1.3-1.3,0-2.6-.3.7.7-3.3a28.9,28.9,0,0,0,.8-4.8c.2-.2-1.5-2.2-1.5-2.2s.3,1.2,0-.9-.3-2.1.7-2.1,2-1,4-1,2.4-.9,3.2-1h1.8c2,0,3,0,3-1s3-1,3-1-5.2-1-6.1,0S12130.7,789.2,12129.3,789.1Z"/><polygon class="b" points="11888.5 577.3 11889.8 573 11889.2 576.6 11888.5 577.3"/><polygon class="b" points="11897.7 573.4 11899 569.1 11898.3 572.7 11897.7 573.4"/><polyline class="b" points="11908.8 567.8 11908.4 568.3 11909.3 565.1"/><polyline class="b" points="11904.3 570.5 11903.6 571.2 11904.9 566.9"/><polyline class="b" points="11909.3 577.3 11908.8 577.9 11909.8 574.7"/><polygon class="b" points="11325 552.3 11326.4 547.6 11325.7 551.5 11325 552.3"/><polygon class="b" points="11334.9 548.1 11336.3 543.4 11335.6 547.2 11334.9 548.1"/><polyline class="b" points="11346.9 542 11346.4 542.6 11347.5 539.1"/><polyline class="b" points="11342 544.9 11341.3 545.7 11342.7 541"/><polyline class="b" points="11347.4 552.3 11346.9 552.9 11347.9 549.5"/><polyline class="b" points="11396.1 448.1 11395 449.4 11397.2 442.1"/><polyline class="b" points="11385.6 454.3 11384.1 456.1 11387.1 446.1"/><polygon class="b" points="11392.5 439.1 11395.5 429.1 11394 437.4 11392.5 439.1"/><path class="b" d="M11422,677.7l1,3,3,2,2,6s1,3,2,3,5,3,5,5,0,6,1,7,3,3,3,5-1,2-1,3a7.6,7.6,0,0,0,1,4,32.1,32.1,0,0,0,3,5c2,3,0,2,3,5a23.1,23.1,0,0,0,7,5c2,1,9,3,12,3s4,1,6,1,7,1,12,2,5-1,8,4,2,6,4,8-.2,1.5,3.9,3.7,5.1,3.3,5.1,2.3-2-6-3-6-6-2-6-3,3,0,1-3-5-3-5-5,2-2,0-3a20,20,0,0,0-9-2c-4,0-3,0-7-1s-2-1-7-1h-8a5.2,5.2,0,0,1-4-2c-1-1-3,0-2-2s2-3,1-3a12.3,12.3,0,0,1-7-2c-3-2-4-1-4-2s1-1,0-3a9,9,0,0,1-1-5c0-2-1-2-1-3s4-1,1-3-3-2-4-3a4.9,4.9,0,0,1-1-3s3-2,1-4-6-3-6-4-1-2-2-4-2-2-2-3a8.2,8.2,0,0,0-1.3-4.1c-.7-.9-3.7.1-3.7-.9A3.5,3.5,0,0,0,11422,677.7Z"/><path class="b" d="M11509.3,685.2v13.6c0,2.4-1,7.4-1,9.4s1,6.5,1,9.7-2,7.3-5,8.3-4,2-3,4-3,6-5,10-4,4-2,4,5-7,8-9-2,2,4-3,9-5,9-5v6.5l5-3.5s-1-4,4-3,8,1,8,0-3-4-8-5a70.6,70.6,0,0,0-7.7-1.2s-.3,4.2-1.3-.8-3.8-4.9-2.4-8.5,4.4-2.5,1.4-9.5-5-4-4-9,3.2-5,2.6-8-4.6-5-4.6-6a10.6,10.6,0,0,0-2-5C11505.3,673.2,11506.3,682.2,11509.3,685.2Z"/><polygon class="b" points="11544.9 660.6 11547.9 650.6 11546.4 658.9 11544.9 660.6"/><polyline class="b" points="11583.6 651.6 11582.5 652.9 11584.7 645.6"/><polyline class="b" points="11577.1 658.8 11575.6 660.6 11578.6 650.6"/><polygon class="b" points="11575.9 724.9 11578.9 714.9 11577.4 723.2 11575.9 724.9"/><path class="b" d="M13053.4,926.8c2.3.8,6.3,6.5,8.3,8.2s6.1,3,7,7.3-2.7,1.9,2.6,6.1,14.8,6.8,16.6,9,7.8,6.3,9.8,9.8,3.7,3.8,6.9,6.1,17.6,7.3,20.3,8.3,6.8,5.8,7.8,7.9,4.6,8.9,4.3,12.5-1,21.6-.7,23.6,1.1,6.8.7,8.4a43.1,43.1,0,0,1-1.6,5s-2.7-12.4-2.7-13.4-.8-2,.6-6,.1-7.3,1.2-8.6-.6-8.6-1.2-9-.2-2.4-.9-4.4-.5-1.1-5.6-6.5-3.5-6.7-6.3-7.6-3.7.1-6.7-1.9-5.2-2.1-7.7-3.5-1.9,0-4.2-1.3-5-1.6-6.6-3.9-1.6-1.3-2.6-4.3.4-3-1.8-5.5-4.4-3.7-5.3-4.6.2-1.5-2.8-2.2-4.1-.4-5.6-1-6.4,1.1-8.5-1.8-1.6-1.9-2.8-3.9-2.3-3.1-2.8-5.5,1.5-2.9,0-4.2.7-1.9-1.4-3.3-4-5-4-5l-4-4"/><path class="b" d="M9269.2,501.3h28.9a0,0,0,0,1,0,0V520a7.8,7.8,0,0,1-7.8,7.8h-16.2a4.9,4.9,0,0,1-4.9-4.9V501.3a0,0,0,0,1,0,0Z"/><circle class="b" cx="9283.7" cy="500.9" r="14.5"/><path class="b" d="M9269,491.5l5.4,3.9-2,2.4-5.6-3.3a1.1,1.1,0,0,1-.4-1.7l.8-1A1.3,1.3,0,0,1,9269,491.5Z"/><path class="b" d="M9294,515.4h8.9a2.4,2.4,0,0,1,2.4,2.4V521a2.6,2.6,0,0,1-2.6,2.6H9294a0,0,0,0,1,0,0v-8.3A0,0,0,0,1,9294,515.4Z"/><path class="a" d="M9266.1,528.2c-.1-.2,4.7-12.8,4.7-12.8l4.2,9.6,1.1-3.2,4.9,7.2,4-5,4,2,4-5,1,1.8,3-4.8,4,7,1.4-2.8.6.8,1.7-3.5,3.3,7.5-22,4Z"/><polygon class="b" points="9881 521 9881 511 9952 511 9952 498.2 9954 493 9956 498 9956 500.9 9961 500.9 9961 478 9963 472 9965 478 9968 478 9968 469 9971 462 9974 469 9974 478 9977 478 9979 472 9981 478 9981 501 9986.1 501 9986.1 498 9988 492 9990 498 9990 518 9881 521"/><polygon class="a" points="9924 521 9928.5 516.5 9932.5 520.5 9935 515 9936 518 9938.1 515.9 9939 517 9941 514 9942 518 9945 515.5 9946.3 517.5 9950 515 9951 518 9956 511 9956 517.3 9959 515 9961 517 9963 515 9965 518 9965.7 516 9966 517 9967 515 9967.4 516 9971 510 9973 513 9974 511 9976 514 9978 511 9980 513 9980 512 9981 514 9983 509 9985 511 9986 508 9988 512 9989 503.4 9993 520 9924 521"/><polygon class="a" points="9934 522 9930.2 517.5 9926.7 521.5 9924.6 516 9923.7 519 9922 516.9 9921.2 518 9919.5 515 9918.6 519 9916 516.5 9915 518.5 9911.8 516 9910.9 519 9906.6 512 9906.6 518.3 9904.1 516 9902.4 518 9900.7 516 9898.9 519 9898.4 517 9898.1 518 9897.2 516 9896.9 517 9893.8 511 9892.1 514 9891.2 512 9889.5 515 9887.8 512 9886.1 514 9886.1 513 9885.3 515 9883.6 510 9881.8 512 9881 509 9879.3 513 9878.4 504.4 9875 521 9934 522"/><path class="b" d="M7239.6,501.5s7.1,7.9,8.5,12.2c0,0,5-5.8,11.4-7.2a25.9,25.9,0,0,0-10.7,4.3A16.6,16.6,0,0,0,7239.6,501.5Z"/><path class="b" d="M7164.7,487.3s5.7,2.8,9.2-4.3c0,0,4.3,2.8,10,12.1,0,0-3.5-12.1-11.4-16.4C7172.5,478.7,7171.1,485.8,7164.7,487.3Z"/><path class="b" d="M7192.5,461.6s2.8-.7,10,7.8a20.8,20.8,0,0,0,7.8-10,26,26,0,0,1-6.4,5.7S7199.6,459.4,7192.5,461.6Z"/><path class="b" d="M7131.1,443s4.3.7,12.1,11.4c0,0,8.6-6.4,13.6-6.4,0,0,1.4-3.2-12.8,3C7144,451,7136.8,443,7131.1,443Z"/></svg>