<svg xmlns="http://www.w3.org/2000/svg" width="15361" height="1440" viewBox="0 0 15361 1440"><defs><style>.a{fill:#1565c0;}.b{fill:#196ad2;}</style></defs><path class="a" d="M7951,1302.1H4910l-1.3-769.7s11.7-9,15.8-10,12.5-10,14.3-12.5,10.7-20.1,11.3-22.3,9.5-1.2,13.1-4.2,11.4-11.4,13.5-12.7,34.4,6,34.4,6,1.9,1.1,6.5-.9,15.6-2.9,15.6-2.9l6,2,16,18.8,2.5,4.9,8,9.8,13.5-8.4,6-29.1,3,19,4-6,4,14h-3l-1,5h7l3,2,5.5-9.5s4.5-5.5,5.5-4.5,13.5,2.2,13.5,2.2,7.2-.7,9.3,0,10.2-.7,11.7,0,8.5,1.8,9.5,1.8,4.7.5,5.8-1.8,5.2-4.2,5.2-4.2,6,9,8,9,15,2,17,1,8-1,12-3,7-3,11-1,16,4,17,4,10-2,15-2a10.3,10.3,0,0,0,7.8-3.8V481.4s-5.8-2.5-4.8-3.5,4.8-6.2,4.8-6.2a4.3,4.3,0,0,0,0-3.7,67.7,67.7,0,0,1-1.8-8.1s4-6,7-4,9,5,9,5l16.4,5.5,9.6-2.5,2-5,6-3s9.7-3,10.8-2,6.2,1,7.2,2,1,0,4-1a14.1,14.1,0,0,0,5-3l11-27,4,9,10-22,4,20h-4v6l2,4s3,2,4,2,7-1,7-1l5,2v-5.2a30.9,30.9,0,0,0,4-2.8c1-1,6-10,6-10l5-23,4,22,8,1s2-4,3-3,8,4,9,5,7-2,14-5,9-7,9-7l9-6,5-25,4,17,4-10,6,14,6.2-21,4.8,11s6-1,7-2-6-3,3-2l19,2s7-5,9-6,14.7-1,15.8-3,11.2-1,14.2-3,4-3,6-3,16-4,16-4l9-8s1,10,2,9,10-21,10-21l4,20,7-8,6,7,5-5,9,14,7-6,3,6,6-1,3,7s14,1,15,2,12,3,12,3a11.9,11.9,0,0,0,2,6c2,3,8,1,15,5s19,9,19,11,13,10,13,10,23,13,27,19,25,21,37,30,29,26,31,31,.7,23,9.8,26.5l4.2-12.5,1,9,2-2,4,15h7l1,4s20,1.6,21,1.3,8,.7,8,.7l6,3s4,3,5,3,13,8,13.5,8,3.8,1,7.2,1.5,8.6-1.5,9.5,0,5.8,3.5,7.8,4.5,6,1,7.5,2,7.5-1,9.5,1,6,3,7,5,5,8,6,8,6,5,7.5,11.5H5986s-.5-6.5,4.9-9.5,16.3-10,19.3-14,4-11,8-13,5-3,9-4,12-3,14-4,14-2,18-6,8-11,9-12a55.5,55.5,0,0,0,6-8c1-2,6-33,6-33l3,13,5-31,3,21h-2l1,4s4,2,6,1,7-1,7-3,2-7,3-8,8-3,11-4,10-1,10-1l4-21,6,30,4-3,6,2s6,3,7,4,4,2,8,3,10,6,10,7,11,6,14,6,8.3,4,8.2,5.5,10.8,7.5,11.8,8.5,11,5,12,7,5,9,6,10,14,3,19,5,6-1,9,3,10,9,11,10,1-7,8-11,20-5,27-7,7-4,7-4l6-17,3,8,5-17,2,7h2c2,0,3-1,5-2s3,0,5-1,5-2,5-3,4-16,4-16l1,10s-1-1,4-3,5-2,8-2a8.5,8.5,0,0,0,6-2,7.7,7.7,0,0,1,3-2c2-1,4-2,5-2s8-3,8-3l3-16,3,15,3-7,5,10s0,2,4,2,5,0,7,2,4,5,5,6,6,8,7,9,6,4,6,6,4,5,4,7,3,4,5,6,7,1,12,5-3,3,8,8,17,3,24,3,24-5,25-7-1-1,3-5,2-7,11-8,10-4,10-4l4-21,4,14h-2s2,5,2,5.5,2,2.5,5-.5,5-4,6-6,5-4,9-7,8-4,9-5a17.1,17.1,0,0,1,11-6c7-1,20-1,21-6s9-30,9-30l2.7,11.2,3.3-5.2,5,8,7-14,3,8,4-5,4,14,8-16,2,17s1,3,4,0,4-3,7-3a22,22,0,0,1,8,1c3,1,5,2,7,0s4,3,4,3l3-14,2,11,3-9,2.5,4.2,2.5-3.2,3,12,4-4s1-1,6-1,5-2,9,0,7,4,8,2-1-5,3-3,9,3,9,4,3,2,2,5,1,4,2,5,7,3,8,4,4,4,4,5,3,5,4,6,10,3,11,5a14.5,14.5,0,0,0,9,8c6,2,12-1,13,3s0,6,4,8,17,8,17,8,5,6,6,10,8,10,13,11,15,3,15,7,3,7,10,9,16,3,15,6-8,3,1,8,15,4,23,10,17,10,21,13,1,9,1,10,3,11,3,12-2,1-1,4a37.1,37.1,0,0,1,2,9c0,2,4,4,6,6s10,4,12,1,5-3,7-3,7,2,7,2l8-24,5,17,3-8,5.3,17.5a10,10,0,0,0,7.7-.5c4-2,8-4,11-3a117.3,117.3,0,0,1,11,5c2,1,10,3,13,2s5,0,14,3,14,4,16,6,27,8,24,12-5,13-3,15,4,7,11,8,11.7,1,15.8,0,23.5,0,25.4,0,17.8-2,19.8,5,7,5,5,12,8,21,12,25,5,14,15,18,20,4,27,10,14,17,22,23a38.6,38.6,0,0,0,17,7l7-19,5,17,4-5,3.2,7s6.5,2,8.6,0,6.2-2,7.2-1,9.3.8,10.2,1.9,4.1.9,7,0,10.8,2.1,10.8,2.1l4-13,4.8,13s-4.5-2-2.6-1a50,50,0,0,1,6.8,5c1,1,4,7,6,11s3,19,2,22,6,13,9,15l3-4,2,6,2-2,1.5,8.5a6.9,6.9,0,0,0,3,2c2.1.7,19.4-3.1,20.5-3a55,55,0,0,0,22.5-3s32.5,12.9,38.5,9.2c0,0,5.8,5.5,8.8,4.5s8.7-7,8.8-3,9.8,9,9.8,9h6.7c2.7,0,6.4-3,11.5,0l12.7,7.5s3.7,3.2,5.6,3.9,6.4,1.1,10.6,3.9,7.8,6.1,8,8.4a19.5,19.5,0,0,0,3.6,8.4c1.7,1.9,12.4,3.2,15.5,2.1s5.6,3,5.4-2.1,8.4-6.4,8.4-6.4a19.6,19.6,0,0,1-.9,5.2c-.7,2.1-1.1,3.3-.4,5.2s10.7,3.5,13.2,4.2a49.2,49.2,0,0,0,7.5,1l8.9-8.9v6.6l2-2v7l8,2s6,1,7,2,1,2,2,2h3c2,0,3-1,6,0s4,1,6,3,5,3,6,4,8,2,8,1,5-3,6-3,7,1,8,2l3,3,3-9,1,11,2-3,1,4,5-6v6s2,3,4,2a5.4,5.4,0,0,1,5.5,0,11.4,11.4,0,0,1,2.5,2.1c1,.9,2,.9,3,1.9s4.3,2.6,6.1,2.3,3.2,1.6,5,2.7,5.2,3,7.5,2.5,4.4,1.7,4.4,2.6,1,.3,4,1.6,6.3,1.5,7.6,1.9a28.8,28.8,0,0,1,5.2,1.7c1.2.7,1.8.3,2.5,2.5a3.6,3.6,0,0,0,4.2,2.7c1.5-.5,6.1.5,6.1.5s4,0,3.7,1,.7,1.3,2.2,2.7-.5-1.5,4,1.9,4.8,2.3,5.1,3.9,1.5,2.5.9,5.5-4.4,2.3,1,4.2,13.3,3.5,13.3,3.5,5.5,1,6.8,1.7,6.7,2.4,9,3.5,9.3,3.1,9.8,2.6,12.9-1.9,14.3-.7,2.3,1.3,3.3,3.3,3,4.9,5.5,4.9,8.8-1,9.6,0,5.7,3,5.7,3a13.9,13.9,0,0,1,3.2,2c1,1,10.5,3,10.5,3a8.6,8.6,0,0,0,2.5,4.2,31.4,31.4,0,0,0,7,4.5c1,.3,7-.4,8.5,1s8.5,3.1,10,3.2,8.5.7,11.5-1.6,6.3-5,9.1-5.2,5.9,3.6,7.4,3.3,4.6-8.7,6-10.1,10.5-3.3,14-5.8,1.9-5.5,4.2-3.5,10.9,5.7,8.6,9.3-7.7,7.2-7.5,8.4,4.2,2.3,4.2,4.3,1.6,3.1,3.8,7.1,2.2,2.9,5.2,6.9,7,4,7,6-2,0,2,3.5,14.8,14.6,14.8,14.6c8.2,4.9,10.9,5.6,11,7.8s1-1.2-.4,6.5,3.6,15.1,7.6,18.4,8.8,5.2,8.4,7.2.6,15-.4,16,.4,4,.4,4v172"/><path class="a" d="M7313,894.7V875.8s2.1-24.5,23.5-24.5,24.5,24.5,24.5,24.5v26.7h8.9V875.8s2.1-24.5,24.1-24.5,24,24.5,24,24.5v37.8h9V875.8s1.9-24.5,23.4-24.5,24.6,24.5,24.6,24.5v56.7h9V875.8s2-24.5,24-24.5,24,24.5,24,24.5v90.1h9V875.8s1.6-24.5,22.8-24.5,25.2,18.9,25.2,24.5V983.6h9V875.8s1-24.5,25-24.5,23,24.5,23,24.5v125.6h9V875.8s1.3-24.5,22.6-24.5,25.4,18.9,25.4,24.5V1047h9V875.8s2-24.5,24-24.5,24,24.5,24,24.5v179h8v-179s1-24.5,24-24.5,24,24.5,24,24.5v207.9h9V875.8s0-24.5,24-24.5,24.5,27.3,24.5,27.3v191.8h7.5V878s.5-26.7,23.7-26.7,25.3,24.5,25.3,24.5v289.1h9V875.8s0-24.5,24-24.5,24,24.5,24,24.5v291.3h9V839.5H7254v56.3Z"/><path class="a" d="M819.6,1303.1H4908.1l1.7-769.7s-15.7-9-21.3-10-16.7-10-19.2-12.5-14.4-20.1-15.2-22.3-12.8-1.2-17.5-4.2-15.5-11.4-18.2-12.7-46.3,6-46.3,6-2.5,1.1-8.7-.9-21-2.9-21-2.9l-8.1,2-21.5,18.8-3.3,4.9-10.8,9.8-18.2-8.4-8-29.1-4.1,19-5.3-6-5.4,14h4l1.4,5h-9.5l-4,2-7.4-9.5s-6-5.5-7.4-4.5-18.1,2.2-18.1,2.2-9.7-.7-12.6,0-13.6-.7-15.7,0-11.4,1.8-12.7,1.8-6.3.5-7.9-1.8-6.9-4.2-6.9-4.2-8.1,9-10.8,9-20.1,2-22.8,1-10.8-1-16.2-3-9.4-3-14.8-1-21.5,4-22.8,4-13.5-2-20.2-2a15.6,15.6,0,0,1-10.5-3.8V482.4s7.8-2.5,6.5-3.5-6.5-6.2-6.5-6.2a3.6,3.6,0,0,1,0-3.7c1.1-2.1,2.5-8.1,2.5-8.1s-5.4-6-9.5-4-12.1,5-12.1,5l-22,5.5-12.9-2.5-2.7-5-8.1-3s-13-3-14.5-2-8.3,1-9.7,2-1.3,0-5.3-1a20.7,20.7,0,0,1-6.8-3l-14.8-27-5.3,9-13.5-22-5.4,20h5.4v6l-2.7,4s-4,2-5.3,2-9.5-1-9.5-1l-6.7,2v-5.2a48.5,48.5,0,0,1-5.4-2.8c-1.3-1-8-10-8-10l-6.7-23-5.4,22-10.8,1s-2.7-4-4-3-10.8,4-12.1,5-9.4-2-18.8-5-12.1-7-12.1-7l-12.1-6-6.8-25-5.3,17-5.4-10-8.1,14-8.3-21-6.5,11s-8-1-9.4-2,8.1-3-4-2l-25.6,2s-9.4-5-12.1-6-19.7-1-21.2-3-15.1-1-19.1-3-5.4-3-8.1-3-21.5-4-21.5-4l-12.1-8s-1.3,10-2.7,9-13.4-21-13.4-21l-5.4,20-9.4-8-8.1,7-6.7-5-12.1,14-9.4-6-4,6-8.1-1-4,7s-18.8,1-20.2,2-16.1,3-16.1,3a9.8,9.8,0,0,1-2.7,6c-2.7,3-10.8,1-20.2,5s-25.5,9-25.5,11-17.5,10-17.5,10-30.9,13-36.3,19-33.6,21-49.7,30-39,26-41.7,31-.9,23-13.2,26.5l-5.6-12.5-1.4,9-2.7-2-5.4,15h-9.4l-1.3,4s-26.9,1.6-28.2,1.3-10.8.7-10.8.7l-8.1,3s-5.3,3-6.7,3-17.5,8-18.1,8-5.2,1-9.7,1.5-11.6-1.5-12.7,0-7.9,3.5-10.6,4.5-8,1-10.1,2-10-1-12.7,1-8.1,3-9.4,5-6.8,8-8.1,8-8.1,5-10.1,11.5h-46.1s.6-6.5-6.5-9.5-22-10-26-14-5.4-11-10.8-13-6.7-3-12.1-4-16.1-3-18.8-4-18.8-2-24.2-6-10.8-11-12.1-12a60.7,60.7,0,0,1-8.1-8c-1.3-2-8-33-8-33l-4.1,13-6.7-31-4,21h2.7l-1.4,4s-5.4,2-8.1,1-9.4-1-9.4-3-2.7-7-4-8-10.8-3-14.8-4-13.4-1-13.4-1l-5.4-21-8.1,30-5.4-3-8,2s-8.1,3-9.4,4-5.4,2-10.8,3-13.4,6-13.4,7-14.8,6-18.9,6-11.2,4-10.9,5.5-14.6,7.5-15.9,8.5-14.8,5-16.2,7-6.7,9-8,10-18.9,3-25.6,5-8.1-1-12.1,3-13.4,9-14.8,10-1.3-7-10.7-11-26.9-5-36.3-7-9.4-4-9.4-4l-8.1-17-4,8-6.8-17-2.7,7h-2.6c-2.7,0-4.1-1-6.8-2s-4,0-6.7-1-6.7-2-6.7-3-5.4-16-5.4-16l-1.3,10s1.3-1-5.4-3-6.7-2-10.8-2-6.7-1-8-2-1.4-1-4.1-2-5.3-2-6.7-2-10.7-3-10.7-3l-4.1-16-4,15-4-7-6.8,10s0,2-5.3,2-6.8,0-9.5,2-5.3,5-6.7,6-8,8-9.4,9-8.1,4-8.1,6-5.3,5-5.3,7-4.1,4-6.8,6-9.4,1-16.1,5,4,3-10.7,8-22.9,3-32.3,3-32.3-5-33.6-7,1.3-1-4.1-5-2.6-7-14.7-8-13.5-4-13.5-4l-5.4-21-5.3,14h2.6a57.6,57.6,0,0,0-2.6,5.5c0,.5-2.7,2.5-6.8-.5s-6.7-4-8-6-6.8-4-12.1-7-10.8-4-12.1-5-5.4-5-14.8-6-26.9-1-28.3-6-12.1-30-12.1-30l-3.5,11.2-4.5-5.2-6.7,8-9.5-14-4,8-5.4-5-5.3,14-10.8-16-2.7,17s-1.3,3-5.4,0-5.3-3-9.4-3a38.8,38.8,0,0,0-10.7,1c-4.1,1-6.8,2-9.4,0s-5.4,3-5.4,3l-4.1-14-2.6,11-4.1-9-3.3,4.2-3.4-3.2-4,12-5.4-4s-1.4-1-8.1-1-6.7-2-12.1,0-9.4,4-10.7,2,1.3-5-4.1-3-12.1,3-12.1,4-4,2-2.7,5-1.3,4-2.6,5-9.5,3-10.8,4-5.4,4-5.4,5-4,5-5.4,6-13.4,3-14.7,5-4.1,6-12.1,8-16.2-1-17.5,3,0,6-5.4,8-22.9,8-22.9,8-6.7,6-8,10-10.8,10-17.5,11-20.2,3-20.2,7-4,7-13.4,9-21.5,3-20.2,6,10.8,3-1.3,8-20.2,4-30.9,10-22.9,10-28.3,13-1.3,9-1.3,10-4.1,11-4.1,12,2.7,1,1.4,4-2.7,7-2.7,9-5.4,4-8.1,6-13.4,4-16.1,1-6.7-3-9.4-3-9.4,2-9.4,2l-10.8-24-6.7,17-4-8-7.2,17.5a17.6,17.6,0,0,1-10.3-.5c-5.4-2-10.8-4-14.8-3s-12.1,4-14.8,5-13.4,3-17.5,2-6.7,0-18.8,3-18.8,4-21.5,6-36.3,8-32.3,12,6.8,13,4.1,15-5.4,7-14.8,8-15.7,1-21.3,0-31.6,0-34.1,0-23.9-2-26.6,5-9.4,5-6.8,12-10.7,21-16.1,25-6.7,14-20.2,18-26.8,4-36.3,10-18.8,17-29.5,23a64.1,64.1,0,0,1-22.9,7l-9.4-19-6.7,17-5.4-5-4.3,7s-8.7,2-11.6,0-8.3-2-9.6-1-12.6.8-13.7,1.9-5.6.9-9.4,0-14.6,2.1-14.6,2.1l-5.4-13-6.5,13s6.1-2,3.6-1a76.3,76.3,0,0,0-9.2,5c-1.3,1-5.3,7-8,11s-4.1,19-2.7,22-8.1,13-12.1,15l-4.1-4-2.6,6-2.7-2-2.1,8.5a8.5,8.5,0,0,1-4,2c-2.7.7-26-3.1-27.5-3a97.2,97.2,0,0,1-30.3-3s-43.7,12.9-51.8,9.2c0,0-7.7,5.5-11.7,4.5s-11.8-7-12-3-13.1,9-13.1,9h-9c-3.6,0-8.6-3-15.5,0l-17,7.5s-5,3.2-7.5,3.9-8.7,1.1-14.4,3.9-10.4,6.1-10.7,8.4a17.2,17.2,0,0,1-4.8,8.4c-2.2,1.9-16.7,3.2-20.9,2.1s-7.5,3-7.2-2.1-11.3-6.4-11.3-6.4a14.3,14.3,0,0,0,1.2,5.2c1,2.1,1.5,3.3.6,5.2s-14.4,3.5-17.7,4.2a88.9,88.9,0,0,1-10.1,1l-12-8.9v6.6l-2.7-2v7l-10.8,2s-8,1-9.4,2-1.3,2-2.7,2h-4c-2.7,0-4-1-8.1,0s-5.3,1-8,3-6.8,3-8.1,4-10.8,2-10.8,1-6.7-3-8-3-9.4,1-10.8,2l-4,3-4-9-1.4,11-2.7-3-1.3,4-6.7-6v6s-2.7,3-5.4,2a9.5,9.5,0,0,0-7.4,0,16.8,16.8,0,0,0-3.5,2.1c-1.2.9-2.6.9-3.9,1.9s-5.8,2.6-8.3,2.3-4.3,1.6-6.7,2.7-7,3-10.1,2.5-5.8,1.7-5.8,2.6-1.4.3-5.4,1.6-8.5,1.5-10.3,1.9a51.1,51.1,0,0,0-7,1.7c-1.5.7-2.4.3-3.3,2.5s-3.6,3.1-5.6,2.7-8.3.5-8.3.5-5.3,0-4.9,1-.9,1.3-3,2.7.7-1.5-5.3,1.9-6.5,2.3-7,3.9-2,2.5-1.2,5.5,6,2.3-1.3,4.2-17.8,3.5-17.8,3.5-7.5,1-9.3,1.7-8.9,2.4-12.1,3.5-12.4,3.1-13.2,2.6-17.3-1.9-19.1-.7-3.1,1.3-4.4,3.3-4,4.9-7.4,4.9-11.9-1-13,0-7.6,3-7.6,3a22.1,22.1,0,0,0-4.3,2c-1.3,1-14.1,3-14.1,3a8.5,8.5,0,0,1-3.4,4.2,42.9,42.9,0,0,1-9.4,4.5c-1.3.3-9.4-.4-11.4,1s-11.4,3.1-13.4,3.2-11.5.7-15.5-1.6-8.5-5-12.3-5.2-7.9,3.6-9.9,3.3-6.2-8.7-8.1-10.1-14.1-3.3-18.8-5.8-2.6-5.5-5.7-3.5-14.7,5.7-11.5,9.3,10.3,7.2,10.1,8.4-5.6,2.3-5.6,4.3-2.3,3.1-5.2,7.1-2.9,2.9-6.9,6.9-9.5,4-9.5,6,2.7,0-2.6,3.5-20,14.6-20,14.6c-11,4.9-14.7,5.6-14.8,7.8s-1.4-1.2.5,6.5-4.7,15.1-10.1,18.4-12,5.2-11.4,7.2-.7,15,.6,16-.6,4-.6,4v172"/><path class="a" d="M5446.7,315.6c-.1-14.8-22.7-14.8-22.7,0,0,6.3,7.1,15.5,11.3,15.5S5446.7,321.9,5446.7,315.6Z"/><path class="a" d="M5436.2,335.3c-2.9.3-2.2-.7-2.3-2.8h2.9C5436.6,333,5437.2,335.4,5436.2,335.3Z"/><polyline class="a" points="5432.3 326.1 5434.2 333.2 5436.5 333.2 5437.9 326.1"/><path class="a" d="M4851.7,128.6c-.1-14.8-22.7-14.8-22.7,0,0,6.3,7.1,15.5,11.3,15.5S4851.7,134.9,4851.7,128.6Z"/><path class="a" d="M4841.2,148.3c-2.9.3-2.2-.7-2.3-2.8h2.9C4841.6,146,4842.2,148.4,4841.2,148.3Z"/><polyline class="a" points="4837.3 139.1 4839.2 146.2 4841.5 146.2 4842.9 139.1"/><path class="a" d="M4649.3,184.2c.2-12.9-19.5-12.9-19.3,0,0,5.5,6,13.6,9.7,13.6S4649.3,189.7,4649.3,184.2Z"/><path class="a" d="M4640.3,201.5c-2.3.3-1.8-.9-1.9-2.5h2.5C4640.7,199.5,4641.3,201.5,4640.3,201.5Z"/><polyline class="a" points="4637 193.4 4638.6 199.6 4640.7 199.6 4641.9 193.4"/><path class="a" d="M2200.6,282.8a7.2,7.2,0,1,0-14.3,0c0,4,4.5,9.8,7.2,9.8S2200.6,286.8,2200.6,282.8Z"/><path class="a" d="M2192.6,293.4h1.8a0,0,0,0,1,0,0v1.2a.6.6,0,0,1-.6.6h-.6a.6.6,0,0,1-.6-.6v-1.2A0,0,0,0,1,2192.6,293.4Z"/><polyline class="a" points="2191.6 289.4 2192.7 293.8 2194.2 293.8 2195.1 289.4"/><path class="a" d="M2313.3,286.6a7.2,7.2,0,1,0-14.3,0c0,3.9,4.4,9.7,7.1,9.7S2313.3,290.5,2313.3,286.6Z"/><path class="a" d="M2305.2,297.2h1.8a0,0,0,0,1,0,0v1.2a.6.6,0,0,1-.6.6h-.6a.6.6,0,0,1-.6-.6v-1.2A0,0,0,0,1,2305.2,297.2Z"/><polyline class="a" points="2304.2 293.1 2305.4 297.6 2306.9 297.6 2307.7 293.1"/><path class="a" d="M10669.7,170.6c-.1-14.8-22.7-14.8-22.7,0,0,6.3,7.1,15.5,11.3,15.5S10669.7,176.9,10669.7,170.6Z"/><path class="a" d="M10659.2,190.3c-2.9.3-2.2-.7-2.3-2.8h2.9C10659.6,188,10660.2,190.4,10659.2,190.3Z"/><polyline class="a" points="10655.3 181.1 10657.2 188.2 10659.5 188.2 10660.9 181.1"/><path class="a" d="M13196.7,354.6c-.1-14.8-22.7-14.8-22.7,0,0,6.3,7.1,15.5,11.3,15.5S13196.7,360.9,13196.7,354.6Z"/><path class="a" d="M13186.2,374.3c-2.9.3-2.2-.7-2.3-2.8h2.9C13186.6,372,13187.2,374.4,13186.2,374.3Z"/><polyline class="a" points="13182.3 365.1 13184.2 372.2 13186.5 372.2 13187.9 365.1"/><path class="a" d="M13342.5,403.9c.2-12.5-19.4-12.5-19.2,0,0,5.3,6,13.1,9.6,13.1S13342.5,409.2,13342.5,403.9Z"/><path class="a" d="M13333.5,420.5c-2.2.3-1.8-.8-1.8-2.4h2.4C13334,418.6,13334.5,420.5,13333.5,420.5Z"/><polyline class="a" points="13330.3 412.7 13331.9 418.7 13333.9 418.7 13335.1 412.7"/><path class="a" d="M8908.3,376.5c.2-13.3-18.8-13.3-18.7,0,0,5.6,5.9,13.9,9.4,13.9S8908.3,382.1,8908.3,376.5Z"/><path class="a" d="M8899.6,394.1c-2.3.4-1.7-.9-1.8-2.5h2.4C8900,392.1,8900.6,394.2,8899.6,394.1Z"/><polyline class="a" points="8896.5 385.9 8898 392.2 8900 392.2 8901.1 385.9"/><path class="a" d="M7448.9,733.3c-.1-17-23.8-17-23.9,0,0,7.2,7.5,17.8,11.9,17.8S7448.9,740.5,7448.9,733.3Z"/><path class="a" d="M7437.8,755.9c-3.2.3-2.2-.9-2.4-3.3h3C7438.3,753.2,7438.9,755.9,7437.8,755.9Z"/><polyline class="a" points="7433.7 745.3 7435.7 753.4 7438.2 753.4 7439.7 745.3"/><path class="b" d="M7165.3,941.3s3,13.7,6,15.2,1.5,24.2,1.5,24.2-3-7.5-4.5-9.1,1.5-13.6-1.5-15.1-1.5-15.2-1.5-15.2"/><polygon class="b" points="7509 978.3 7504 964.3 7507 976.3 7509 978.3"/><polygon class="b" points="7426 886.3 7428 891.3 7427 890.3 7426 886.3"/><polygon class="b" points="7230 839.3 7233.1 848.3 7232 847.3 7230 839.3"/><path class="b" d="M7189,786.3a80.4,80.4,0,0,1-7-4.6c-1-1-4,2.6-4,2.6s1,0,1,2,1,11,6,16a15.4,15.4,0,0,1-1-7.6s2,1.6,4,3.6C7188,798.3,7183,791.3,7189,786.3Z"/><polygon class="b" points="7309.2 869.3 7314 880.7 7310.8 877.4 7309.2 869.3"/><polygon class="b" points="7299 865.9 7302.2 875.7 7299 872.1 7299 865.9"/><path class="b" d="M7110,757.3a2.9,2.9,0,0,1-3,3s2,0,5,4A13.8,13.8,0,0,1,7110,757.3Z"/><polygon class="b" points="7008 714.3 7011 725.3 7009 722.3 7008 714.3"/><path class="b" d="M6812,644c1.1,0,8.1-1.7,8.1-1.7a33.1,33.1,0,0,1,3.9.7,2.5,2.5,0,0,1,1,.4c.6.6,4.9,9.3,5.5,9.3s4.9,2.1,4.9,2.7,3.2,3.2,3.2,4.9,1.7,4.3,1.7,4.3l7,3.3s4.4,4.9,5.5,6,4.9,2.7,6,4.3,2.1,3.8,5.4,4.4,4.4.5,4.9,1.1a52.7,52.7,0,0,0,4.9,2.7s-5.9,1.6-6.2,1.1a5.1,5.1,0,0,0-3.6-2.2c-1.6,0-2.7-.5-3.8-.5a17.3,17.3,0,0,1-4.9-1.1c-1.1-.6,0,0-2.7-2.7s-2.7-2.2-3.8-3.3l-3.3-3.3c-1.1-1.1-2.7-3.2-3.3-3.8a9.1,9.1,0,0,0-3.2-2.2c-1.7-.5-3.8-1.6-4.9-1.6s-1.1-2.7-1.7-3.8a3.8,3.8,0,0,1,0-3.3c.6-1.1,1.1-.5-.5-2.1s-1.6-2.8-3.3-2.8-1.1,2.8-2.7-.5-1.6-3.8-2.2-4.4-2.7-2.1-2.7-3.2-3.8-3.3-5.4-2.7A8.7,8.7,0,0,1,6812,644Z"/><polygon class="b" points="6457.9 574.3 6464 596.6 6460 590.5 6457.9 574.3"/><polyline class="b" points="6421.3 592.3 6420.1 583.3 6423.5 595.7"/><polyline class="b" points="6460 590.5 6457.9 574.3 6464 596.6"/><polyline class="b" points="6437.5 586.3 6436.3 577.3 6439.7 589.6"/><polygon class="b" points="6416.8 609.7 6422.8 631.9 6418.8 625.9 6416.8 609.7"/><polyline class="b" points="6380.1 627.7 6379 618.7 6382.3 631.1"/><polyline class="b" points="6418.8 625.9 6416.8 609.7 6422.8 631.9"/><path class="b" d="M6188.6,568s.9-1.3,6.4,1.4,11,0,11,2.8,13.7,8.2,13.7,8.2,11,0,13.7,2.7,13.7,11,13.7,11,5.5,0,8.2,2.7,13.7,2.8,16.5,8.2,8.2,11,8.2,11-13.7-8.2-16.4-8.2-13.8-2.8-22-8.2-13.7-13.7-16.4-13.7-5.5-2.8-11-2.8-11,2.8-13.7-2.7-2.7-5.5-5.5-8.2A19.8,19.8,0,0,0,6188.6,568Z"/><path class="b" d="M6457.6,615.9s20.5,4,17.7,6.8,2.8,5.5,5.6,5.5,28,5.6,30.8,5.6,5.6,11.2,5.6,11.2a38.5,38.5,0,0,1,13.9-8.4c8.4-2.8,5.6-6.7,23.8-6.1,0,0-12.6-2.3-21,.5s-16.7-2.8-22.3-2.8-25.2,0-28-2.8-8.5-6.2-16.8-8.7Z"/><polygon class="b" points="6732.6 552.3 6736 565 6733.7 561.5 6732.6 552.3"/><polyline class="b" points="6711.8 562.5 6711.1 557.4 6713 564.5"/><polyline class="b" points="6733.7 561.5 6732.6 552.3 6736 565"/><polyline class="b" points="6720.9 559.1 6720.3 554 6722.2 561"/><polygon class="b" points="6709.2 572.4 6712.7 585 6710.4 581.6 6709.2 572.4"/><polyline class="b" points="6688.4 582.6 6687.8 577.5 6689.7 584.5"/><polyline class="b" points="6710.4 581.6 6709.2 572.4 6712.7 585"/><path class="b" d="M5664,514.3c1,.4,7-4.6,16-2.6,4.2,1,16.3,6,17,6.6s10,17,10,19,4,7,10,12,14,11,19,16,27,25,27,25,2-2,16,6,19,7,27,19-4,11,15,23,32,15,34,18,11,3,11,3-31,1-34-1-29-16-31-17-13-4-14-8,1-9,1-9-1-6-4-8-3-6-7-8,0,0-9-3a71.4,71.4,0,0,1-15-7c-2-1-9-4-12-4s1-3-1-5-13-6-15-8-5-3-9-10-3-6-9-9-8-4-11-5-5-2-6-6-6-13-6-13-1,3-1-2-2-8-3-8,0,0-2-4S5664,514.3,5664,514.3Z"/><path class="b" d="M5372.5,565l15.2-6.8,3.4,13.6-3.4,6.8,15.3,1.7v-8.8s-10.2-6.5-8.5-9.9,1.7-10.1,0-11.8S5372.5,565,5372.5,565Z"/><path class="b" d="M5422.1,531.5l-3.4,6.8,10.2,1.7s-2.3-6.8-1.1-8.5,6.2-3.4,6.2-3.4l-5.1-6.8Z"/><path class="b" d="M5340,540.2l10.2,3.4s4,1.7,3.7,3.4-.3,1.7,3.1,3.4,8.8,0,8.8,0-10.5,6.8-13.9,5.1-13.6-2.3-11.9-4.6a41.4,41.4,0,0,0,3.4-5.6Z"/><polygon class="b" points="5127.3 566.6 5130.3 577.6 5128.3 574.6 5127.3 566.6"/><polyline class="b" points="5109.2 575.6 5108.6 571.1 5110.3 577.2"/><polyline class="b" points="5128.3 574.6 5128 574.3 5130.3 577.6"/><polyline class="b" points="5117.2 572.6 5116.6 568.1 5118.3 574.2"/><polygon class="b" points="5094 541.1 5097 552.1 5095 549.1 5094 541.1"/><polyline class="b" points="5075.9 550 5075.3 545.6 5077 551.7"/><polyline class="b" points="5095 549.1 5094 541.1 5097 552.1"/><path class="b" d="M7003.8,423.3s5,0,9.3,7.8c0,0,10-7.1,11.4-4.9,0,0,2.2-4.3-10.7,1.4C7013.8,427.6,7008.8,420.4,7003.8,423.3Z"/><path class="b" d="M6992,375.5a16.2,16.2,0,0,0,5.7-11.4s7.9,7.8,10,17.8c0,0-5.7-10.7-8.5-12.1C6999.2,369.8,6997,375.5,6992,375.5Z"/><polygon class="b" points="6648.1 501 6652.3 516.1 6649.5 512 6648.1 501"/><polyline class="b" points="6623.2 513.2 6622.5 507.1 6624.8 515.5"/><polyline class="b" points="6649.5 512 6648.1 501 6652.3 516.1"/><polyline class="b" points="6634.2 509.1 6633.5 503 6635.8 511.4"/><polygon class="b" points="6620.2 525 6624.3 540.1 6621.6 536 6620.2 525"/><polyline class="b" points="6595.3 537.2 6594.5 531.1 6596.8 539.5"/><polyline class="b" points="6621.6 536 6620.2 525 6624.3 540.1"/><polygon class="b" points="6802 671.2 6805.6 684.2 6803.2 680.7 6802 671.2"/><polyline class="b" points="6899.4 869.9 6898.6 863 6901.1 872.5"/><polyline class="b" points="6803.2 680.7 6802 671.2 6805.6 684.2"/><polyline class="b" points="7001.1 788.2 7000.4 783 7002.4 790.2"/><polygon class="b" points="6989 801.8 6992.6 814.8 6990.2 811.3 6989 801.8"/><polyline class="b" points="6967.7 812.3 6967 807.1 6969 814.3"/><polyline class="b" points="6990.2 811.3 6989 801.8 6992.6 814.8"/><polygon class="b" points="6967.8 749.9 6971.3 762.9 6969 759.3 6967.8 749.9"/><polyline class="b" points="6634.4 616.4 6633.8 611.1 6635.7 618.3"/><polyline class="b" points="6969 759.3 6967.8 749.9 6971.3 762.9"/><polyline class="b" points="6955.9 756.8 6955.2 751.6 6957.2 758.8"/><polygon class="b" points="6631.8 626.5 6635.3 639.5 6633 635.9 6631.8 626.5"/><polyline class="b" points="6711.4 671 6710.8 665.7 6712.7 673"/><polyline class="b" points="6633 635.9 6631.8 626.5 6635.3 639.5"/><polygon class="b" points="6493.8 668.5 6497.3 681.5 6495 678 6493.8 668.5"/><polyline class="b" points="6472.4 679.1 6471.8 673.8 6473.7 681"/><polyline class="b" points="6495 678 6493.8 668.5 6497.3 681.5"/><polyline class="b" points="6481.9 675.5 6481.2 670.3 6483.2 677.5"/><polygon class="b" points="6587.8 733.2 6591.3 746.1 6589 742.6 6587.8 733.2"/><polyline class="b" points="6566.4 743.7 6565.8 738.4 6567.7 745.6"/><polyline class="b" points="6589 742.6 6587.8 733.2 6591.3 746.1"/><polygon class="b" points="6566.6 681.2 6570.1 694.2 6567.8 690.6 6566.6 681.2"/><polyline class="b" points="6567.8 690.6 6566.6 681.2 6570.1 694.2"/><polygon class="b" points="6805.8 864.5 6809.3 877.5 6807 874 6805.8 864.5"/><polyline class="b" points="6784.4 875.1 6783.8 869.8 6785.7 877"/><polyline class="b" points="6807 874 6805.8 864.5 6809.3 877.5"/><polyline class="b" points="6812.9 801.5 6812.2 796.3 6814.2 803.5"/><polygon class="b" points="6748.8 794.2 6752.3 807.1 6750 803.6 6748.8 794.2"/><polyline class="b" points="6727.4 804.7 6726.8 799.4 6728.7 806.6"/><polyline class="b" points="6750 803.6 6748.8 794.2 6752.3 807.1"/><polygon class="b" points="6727.6 742.2 6731.1 755.2 6728.8 751.6 6727.6 742.2"/><polyline class="b" points="6728.8 751.6 6727.6 742.2 6731.1 755.2"/><polyline class="b" points="6650.8 732.9 6650.2 727.6 6652.1 734.9"/><polyline class="b" points="6645.6 814.6 6644.9 809.4 6646.9 816.6"/><polygon class="b" points="6643 824.7 6646.5 837.7 6644.2 834.1 6643 824.7"/><polyline class="b" points="6644.2 834.1 6643 824.7 6646.5 837.7"/><polygon class="b" points="6840.7 591.9 6844.1 604.6 6841.8 601.1 6840.7 591.9"/><polyline class="b" points="6819.9 602.2 6819.2 597.1 6821.1 604.1"/><polyline class="b" points="6841.8 601.1 6840.7 591.9 6844.1 604.6"/><polyline class="b" points="6829.1 598.7 6828.4 593.6 6830.3 600.6"/><path class="b" d="M6614.7,701s-5.4,3.7,4.9,5.3,22.3-1,26.4,3.4,5.1,5.9,9.6,5.6a94.7,94.7,0,0,1,9.8,0l6.6-1.3-1,3s-5,3-8,3-7-1-11-2-7.7-5.7-8.4-5.8-4.1-2.2-5.8-1.7-4.8,1.5-7.8.5-10-3-12-3S6608.5,704,6614.7,701Z"/><path class="b" d="M6674,714s13,0,14,2,1,2.5,8,4.2,9,1.8,11,2.8,2.7,1.1,2.8,2.5a3,3,0,0,0,2,2.8c1.2.7.7,2.4,0,4a17,17,0,0,1-2.8,3.7h-3.2c-2.8,0-3.1-2-5.5,0s-.6,3.3-3.5,3.6-6.1-1.3-7.5,0a7,7,0,0,1-4,2.6,17.9,17.9,0,0,1-6.3.8c-2,0-5-1-8,0s-4,1-6,2-6,8.4-6,10.2.7,4.8-.7,5.3-2.3,7.5-2.3,8.5-1,4.3,0,6.2,0,3.9,0,4.8-3.9-9.7-3.9-9.7S6655,740,6670,740s17,0,18-1,1-1,4-1,3,1,4,0,1-2,3-3a10,10,0,0,1,4-1h3c2,0,2,1,3,0l1-1c1-1,1.4-.5,1.7-1.7s1.3-2.3.3-2.3a3.1,3.1,0,0,1-2.3-1.4c-.7-.6-1.7.4-1.7-1.6s-1-1-1-2-1-1-3-1-2,1-5,0l-6-2c-3-1-3,1-4,0s-2.1-1-3.6-2-1.4-2-2.4-2h-8Z"/><polygon class="b" points="6682.2 703 6683 706.6 6682.4 705.6 6682.2 703"/><polyline class="b" points="6705.1 707.9 6705 706.5 6705.4 708.5"/><polyline class="b" points="6682.4 705.6 6682.2 703 6683 706.6"/><polyline class="b" points="6662.3 694.9 6662.2 693.5 6662.7 695.5"/><polyline class="b" points="6675.8 723.4 6675 719 6677.5 725"/><polyline class="b" points="6689.1 734.4 6688.4 729.3 6690.4 736.4"/><polyline class="b" points="6671.3 731 6670.6 725.9 6672.6 732.9"/><polygon class="b" points="6739 655 6739 651.8 6741 650 6756 650 6758 652 6758 655 6742.4 655 6739 655"/><polygon class="b" points="6740 656 6741 652 6741.5 654 6742 653 6742.7 656 6740 656"/><polygon class="b" points="6755.3 660 6757.1 654 6757.9 657 6758.8 655.5 6760 660 6755.3 660"/><rect class="b" x="6744" y="653" width="1" height="1"/><rect class="b" x="6746" y="653" width="1" height="1"/><rect class="b" x="6748" y="653" width="1" height="1"/><rect class="b" x="6750" y="653" width="1" height="1"/><rect class="b" x="6752" y="653" width="1" height="1"/><path class="b" d="M5298.9,938.5s-3,13.6-6,15.1-1.5,24.3-1.5,24.3,3-7.6,4.5-9.1-1.5-13.7,1.5-15.2,1.5-15.1,1.5-15.1"/><polygon class="b" points="5411.2 915.5 5416.2 901.5 5413.2 913.5 5411.2 915.5"/><polygon class="b" points="5421.2 902.5 5419.2 907.5 5420.2 906.5 5421.2 902.5"/><polygon class="b" points="5428.2 898.5 5425.1 907.5 5426.2 906.5 5428.2 898.5"/><path class="b" d="M5469.2,845.5a80.4,80.4,0,0,0,7-4.6c1-1,4,2.6,4,2.6s-1,0-1,2-1,11-6,16a15.7,15.7,0,0,0,1-7.6s-2,1.6-4,3.6C5470.2,857.5,5475.2,850.5,5469.2,845.5Z"/><polygon class="b" points="5349 928.5 5344.1 939.8 5347.4 936.5 5349 928.5"/><polygon class="b" points="5359.2 925.1 5355.9 934.8 5359.2 931.2 5359.2 925.1"/><path class="b" d="M5548.2,816.5a2.9,2.9,0,0,0,3,3s-2,0-5,4A13.8,13.8,0,0,0,5548.2,816.5Z"/><polygon class="b" points="5650.2 773.5 5647.2 784.5 5649.2 781.5 5650.2 773.5"/><path class="b" d="M5846.2,704.5c-2,0-15-3-15-3a62.1,62.1,0,0,0-7.1,1.2,5.9,5.9,0,0,0-1.9.8c-1,1-9,17-10,17s-9,4-9,5-6,6-6,9-3,8-3,8l-13,6s-8,9-10,11-9,5-11,8-4,7-10,8-8,1-9,2-9,5-9,5,10.9,3,11.5,2,3.5-4,6.5-4,5-1,7-1a29.2,29.2,0,0,0,9-2c2-1,0,0,5-5s5-4,7-6l6-6c2-2,5-6,6-7a15.4,15.4,0,0,1,6-4c3-1,7-3,9-3s2-5,3-7a6.4,6.4,0,0,0,0-6c-1-2-2-1,1-4s3-5,6-5,2,5,5-1,3-7,4-8,5-4,5-6,7-6,10-5S5846.2,704.5,5846.2,704.5Z"/><polygon class="b" points="6200.3 633.5 6194.2 655.7 6198.2 649.7 6200.3 633.5"/><polyline class="b" points="6236.9 651.5 6238.1 642.5 6234.7 654.9"/><polyline class="b" points="6198.2 649.7 6200.3 633.5 6194.2 655.7"/><polyline class="b" points="6220.7 645.4 6221.9 636.4 6218.5 648.8"/><polygon class="b" points="6241.4 668.8 6235.4 691.1 6239.4 685 6241.4 668.8"/><polyline class="b" points="6278.1 686.8 6279.2 677.8 6275.8 690.2"/><polyline class="b" points="6239.4 685 6241.4 668.8 6235.4 691.1"/><path class="b" d="M6200.5,675s-20.4,4-17.6,6.8-2.8,5.6-5.6,5.6-28,5.6-30.8,5.6-5.6,11.2-5.6,11.2a39.6,39.6,0,0,0-13.9-8.4c-8.4-2.8-5.6-6.8-23.8-6.2,0,0,12.6-2.2,21,.6s16.7-2.8,22.3-2.8,25.2,0,28-2.8,8.5-6.3,16.8-8.8Z"/><polygon class="b" points="5925.6 611.5 5922.2 624.1 5924.5 620.6 5925.6 611.5"/><polyline class="b" points="5946.4 621.7 5947.1 616.6 5945.1 623.6"/><polyline class="b" points="5924.5 620.6 5925.6 611.5 5922.2 624.1"/><polyline class="b" points="5937.2 618.2 5937.9 613.1 5936 620.1"/><polygon class="b" points="5949 631.5 5945.5 644.1 5947.8 640.7 5949 631.5"/><polyline class="b" points="5969.8 641.7 5970.4 636.6 5968.5 643.6"/><polyline class="b" points="5947.8 640.7 5949 631.5 5945.5 644.1"/><polygon class="b" points="6038 584.1 6033.9 599.2 6036.6 595.1 6038 584.1"/><polyline class="b" points="6062.9 596.4 6063.6 590.2 6061.4 598.6"/><polyline class="b" points="6036.6 595.1 6038 584.1 6033.9 599.2"/><polygon class="b" points="5856.2 730.4 5852.6 743.3 5855 739.8 5856.2 730.4"/><polyline class="b" points="5822.5 824.9 5823.2 819.6 5821.2 826.8"/><polyline class="b" points="5855 739.8 5856.2 730.4 5852.6 743.3"/><polyline class="b" points="5657.1 847.3 5657.7 842.1 5655.8 849.3"/><polygon class="b" points="5669.2 861 5665.6 874 5668 870.4 5669.2 861"/><polyline class="b" points="5690.5 871.5 5691.2 866.2 5689.2 873.4"/><polyline class="b" points="5668 870.4 5669.2 861 5665.6 874"/><polygon class="b" points="5690.4 809 5686.8 822 5689.2 818.4 5690.4 809"/><polyline class="b" points="6023.8 675.5 6024.4 670.3 6022.4 677.5"/><polyline class="b" points="5689.2 818.4 5690.4 809 5686.8 822"/><polyline class="b" points="5702.3 816 5703 810.7 5701 817.9"/><polygon class="b" points="6026.4 685.6 6022.8 698.6 6025.2 695.1 6026.4 685.6"/><polyline class="b" points="5946.8 730.1 5947.4 724.9 5945.4 732.1"/><polyline class="b" points="6025.2 695.1 6026.4 685.6 6022.8 698.6"/><polygon class="b" points="6164.4 727.7 6160.8 740.7 6163.2 737.1 6164.4 727.7"/><polyline class="b" points="6185.8 738.2 6186.4 732.9 6184.4 740.2"/><polyline class="b" points="6163.2 737.1 6164.4 727.7 6160.8 740.7"/><polyline class="b" points="6176.3 734.6 6177 729.4 6175 736.6"/><polygon class="b" points="6070.4 792.3 6066.8 805.3 6069.2 801.7 6070.4 792.3"/><polyline class="b" points="6091.8 802.8 6092.4 797.6 6090.4 804.8"/><polyline class="b" points="6069.2 801.7 6070.4 792.3 6066.8 805.3"/><polygon class="b" points="6091.6 740.3 6088.1 753.3 6090.4 749.8 6091.6 740.3"/><polyline class="b" points="6090.4 749.8 6091.6 740.3 6088.1 753.3"/><polygon class="b" points="5885.4 832.7 5881.8 845.7 5884.2 842.1 5885.4 832.7"/><polyline class="b" points="5906.8 843.2 5907.4 837.9 5905.4 845.2"/><polyline class="b" points="5884.2 842.1 5885.4 832.7 5881.8 845.7"/><polyline class="b" points="5845.3 860.6 5846 855.4 5844 862.6"/><polygon class="b" points="5909.4 853.3 5905.8 866.3 5908.2 862.7 5909.4 853.3"/><polyline class="b" points="5930.8 863.8 5931.4 858.6 5929.4 865.8"/><polyline class="b" points="5908.2 862.7 5909.4 853.3 5905.8 866.3"/><polygon class="b" points="5930.6 801.3 5927.1 814.3 5929.4 810.8 5930.6 801.3"/><polyline class="b" points="5929.4 810.8 5930.6 801.3 5927.1 814.3"/><polyline class="b" points="6007.4 792 6008 786.8 6006 794"/><polyline class="b" points="6012.6 873.7 6013.2 868.5 6011.3 875.7"/><polygon class="b" points="6015.2 883.8 6011.7 896.8 6014 893.3 6015.2 883.8"/><polyline class="b" points="6014 893.3 6015.2 883.8 6011.7 896.8"/><polygon class="b" points="5817.5 651.1 5814.1 663.7 5816.4 660.3 5817.5 651.1"/><polyline class="b" points="5838.3 661.3 5839 656.2 5837 663.2"/><polyline class="b" points="5816.4 660.3 5817.5 651.1 5814.1 663.7"/><polyline class="b" points="5829.1 657.8 5829.8 652.7 5827.9 659.8"/><path class="b" d="M6043.5,760.1s5.4,3.7-4.9,5.4-22.4-1-26.4,3.3-5.1,6-9.6,5.7a71.1,71.1,0,0,0-9.8,0l-6.6-1.4,1,3s5,3,8,3,7-1,11-2,7.7-5.6,8.3-5.8,4.2-2.2,5.9-1.7,4.8,1.5,7.8.5,10-3,12-3S6049.7,763.1,6043.5,760.1Z"/><path class="b" d="M5984.2,773.1s-13,0-14,2-1,2.5-8,4.3-9,1.7-11,2.7-2.7,1.1-2.8,2.6a3.3,3.3,0,0,1-2,2.8c-1.2.6-.7,2.3,0,4a18.2,18.2,0,0,0,2.8,3.6h3.2c2.8,0,3.1-2,5.5,0s.6,3.3,3.5,3.7,6.1-1.4,7.5,0a7.5,7.5,0,0,0,4,2.5,17.9,17.9,0,0,0,6.3.8c2,0,5-1,8,0s4,1,6,2,6,8.4,6,10.2-.7,4.8.7,5.3,2.3,7.5,2.3,8.5,1,4.4,0,6.2,0,3.9,0,4.9,3.8-9.7,3.8-9.7-2.8-30.4-17.8-30.4-17,0-18-1-1-1-4-1-3,1-4,0-1-2-3-3a10,10,0,0,0-4-1h-3c-2,0-2,1-3,0l-1-1c-1-1-1.5-.5-1.7-1.7s-1.3-2.3-.3-2.3a3.4,3.4,0,0,0,2.3-1.3c.7-.7,1.7.3,1.7-1.7s1-1,1-2,1-1,3-1,2,1,5,0l6-2c3-1,3,1,4,0s2.1-1,3.5-2,1.5-2,2.5-2h8Z"/><polygon class="b" points="5976 762.1 5975.2 765.8 5975.7 764.8 5976 762.1"/><polyline class="b" points="5953.1 767.1 5953.2 765.6 5952.8 767.6"/><polyline class="b" points="5975.7 764.8 5976 762.1 5975.2 765.8"/><polyline class="b" points="5995.8 754.1 5996 752.6 5995.5 754.6"/><polyline class="b" points="5982.4 782.5 5983.2 778.1 5980.7 784.1"/><polyline class="b" points="5969.1 793.6 5969.7 788.5 5967.8 795.5"/><polyline class="b" points="5986.9 790.1 5987.5 785 5985.6 792"/><polygon class="b" points="5919.2 714.1 5919.2 710.9 5917.2 709.1 5902.2 709.1 5900.2 711.1 5900.2 714.1 5915.8 714.1 5919.2 714.1"/><polygon class="b" points="5918.2 715.1 5917.2 711.1 5916.7 713.1 5916.2 712.1 5915.5 715.1 5918.2 715.1"/><polygon class="b" points="5902.9 719.1 5901.1 713.1 5900.3 716.1 5899.4 714.6 5898.2 719.1 5902.9 719.1"/><rect class="b" x="5913.2" y="712.1" width="1" height="1" transform="translate(11827.4 1425.3) rotate(-180)"/><rect class="b" x="5911.2" y="712.1" width="1" height="1" transform="translate(11823.4 1425.3) rotate(-180)"/><rect class="b" x="5909.2" y="712.1" width="1" height="1" transform="translate(11819.4 1425.3) rotate(-180)"/><rect class="b" x="5907.2" y="712.1" width="1" height="1" transform="translate(11815.4 1425.3) rotate(-180)"/><rect class="b" x="5905.2" y="712.1" width="1" height="1" transform="translate(11811.4 1425.3) rotate(-180)"/><path class="b" d="M5424.3,848.5s3,13.6,6,15.1,1.5,24.3,1.5,24.3-3-7.6-4.5-9.1,1.5-13.7-1.5-15.2-1.5-15.1-1.5-15.1"/><polygon class="b" points="5312 825.5 5307 811.5 5310 823.5 5312 825.5"/><polygon class="b" points="5302 812.5 5304 817.5 5303 816.5 5302 812.5"/><polygon class="b" points="5295 808.5 5298.1 817.5 5297 816.5 5295 808.5"/><path class="b" d="M5254,755.5a80.4,80.4,0,0,1-7-4.6c-1-1-4,2.6-4,2.6s1,0,1,2,1,11,6,16a15.7,15.7,0,0,1-1-7.6s2,1.6,4,3.6C5253,767.5,5248,760.5,5254,755.5Z"/><polygon class="b" points="5374.2 838.5 5379 849.8 5375.8 846.5 5374.2 838.5"/><polygon class="b" points="5364 835.1 5367.2 844.8 5364 841.2 5364 835.1"/><path class="b" d="M5175,726.5a2.9,2.9,0,0,1-3,3s2,0,5,4A13.8,13.8,0,0,1,5175,726.5Z"/><polygon class="b" points="5073 683.5 5076 694.5 5074 691.5 5073 683.5"/><path class="b" d="M4877,614.5c2,0,15-3,15-3a62.1,62.1,0,0,1,7.1,1.2,5.9,5.9,0,0,1,1.9.8c1,1,9,17,10,17s9,4,9,5,6,6,6,9,3,8,3,8l13,6s8,9,10,11,9,5,11,8,4,7,10,8,8,1,9,2,9,5,9,5-10.9,3-11.5,2-3.5-4-6.5-4-5-1-7-1a29.2,29.2,0,0,1-9-2c-2-1,0,0-5-5s-5-4-7-6l-6-6c-2-2-5-6-6-7a15.4,15.4,0,0,0-6-4c-3-1-7-3-9-3s-2-5-3-7a6.4,6.4,0,0,1,0-6c1-2,2-1-1-4s-3-5-6-5-2,5-5-1-3-7-4-8-5-4-5-6-7-6-10-5S4877,614.5,4877,614.5Z"/><polygon class="b" points="4522.9 543.5 4529 565.7 4525 559.7 4522.9 543.5"/><polyline class="b" points="4486.3 561.5 4485.1 552.5 4488.5 564.9"/><polyline class="b" points="4525 559.7 4522.9 543.5 4529 565.7"/><polyline class="b" points="4502.5 555.4 4501.3 546.4 4504.7 558.8"/><polygon class="b" points="4481.8 578.8 4487.8 601.1 4483.8 595 4481.8 578.8"/><polyline class="b" points="4445.1 596.8 4444 587.8 4447.3 600.2"/><polyline class="b" points="4483.8 595 4481.8 578.8 4487.8 601.1"/><path class="b" d="M4522.7,585s20.4,4,17.6,6.8,2.8,5.6,5.6,5.6,28,5.6,30.8,5.6,5.6,11.2,5.6,11.2a39.6,39.6,0,0,1,13.9-8.4c8.4-2.8,5.6-6.8,23.8-6.2,0,0-12.6-2.2-21,.6s-16.7-2.8-22.3-2.8-25.2,0-28-2.8-8.5-6.3-16.8-8.8Z"/><polygon class="b" points="4797.6 521.5 4801 534.1 4798.7 530.6 4797.6 521.5"/><polyline class="b" points="4776.8 531.7 4776.1 526.6 4778 533.6"/><polyline class="b" points="4798.7 530.6 4797.6 521.5 4801 534.1"/><polyline class="b" points="4786 528.2 4785.3 523.1 4787.2 530.1"/><polygon class="b" points="4774.2 541.5 4777.7 554.1 4775.4 550.7 4774.2 541.5"/><polyline class="b" points="4753.4 551.7 4752.8 546.6 4754.7 553.6"/><polyline class="b" points="4775.4 550.7 4774.2 541.5 4777.7 554.1"/><polygon class="b" points="4685.2 494.1 4689.3 509.2 4686.6 505.1 4685.2 494.1"/><polyline class="b" points="4660.3 506.4 4659.5 500.2 4661.8 508.6"/><polyline class="b" points="4686.6 505.1 4685.2 494.1 4689.3 509.2"/><polygon class="b" points="4867 640.4 4870.6 653.3 4868.2 649.8 4867 640.4"/><polyline class="b" points="4900.7 734.9 4900 729.6 4902 736.8"/><polyline class="b" points="4868.2 649.8 4867 640.4 4870.6 653.3"/><polyline class="b" points="5066.1 757.3 5065.5 752.1 5067.4 759.3"/><polygon class="b" points="5054 771 5057.6 784 5055.2 780.4 5054 771"/><polyline class="b" points="5032.7 781.5 5032 776.2 5034 783.4"/><polyline class="b" points="5055.2 780.4 5054 771 5057.6 784"/><polygon class="b" points="5032.8 719 5036.4 732 5034 728.4 5032.8 719"/><polyline class="b" points="4699.4 585.5 4698.8 580.3 4700.7 587.5"/><polyline class="b" points="5034 728.4 5032.8 719 5036.4 732"/><polyline class="b" points="5020.9 726 5020.2 720.7 5022.2 727.9"/><polygon class="b" points="4696.8 595.6 4700.4 608.6 4698 605.1 4696.8 595.6"/><polyline class="b" points="4776.4 640.1 4775.8 634.9 4777.7 642.1"/><polyline class="b" points="4698 605.1 4696.8 595.6 4700.4 608.6"/><polygon class="b" points="4558.8 637.7 4562.4 650.7 4560 647.1 4558.8 637.7"/><polyline class="b" points="4537.4 648.2 4536.8 642.9 4538.7 650.2"/><polyline class="b" points="4560 647.1 4558.8 637.7 4562.4 650.7"/><polyline class="b" points="4546.9 644.6 4546.2 639.4 4548.2 646.6"/><polygon class="b" points="4652.8 702.3 4656.4 715.3 4654 711.7 4652.8 702.3"/><polyline class="b" points="4631.4 712.8 4630.8 707.6 4632.7 714.8"/><polyline class="b" points="4654 711.7 4652.8 702.3 4656.4 715.3"/><polygon class="b" points="4631.6 650.3 4635.1 663.3 4632.8 659.8 4631.6 650.3"/><polyline class="b" points="4632.8 659.8 4631.6 650.3 4635.1 663.3"/><polygon class="b" points="4837.8 742.7 4841.4 755.7 4839 752.1 4837.8 742.7"/><polyline class="b" points="4816.4 753.2 4815.8 747.9 4817.7 755.2"/><polyline class="b" points="4839 752.1 4837.8 742.7 4841.4 755.7"/><polyline class="b" points="4877.9 770.6 4877.2 765.4 4879.2 772.6"/><polygon class="b" points="4813.8 763.3 4817.4 776.3 4815 772.7 4813.8 763.3"/><polyline class="b" points="4792.4 773.8 4791.8 768.6 4793.7 775.8"/><polyline class="b" points="4815 772.7 4813.8 763.3 4817.4 776.3"/><polygon class="b" points="4792.6 711.3 4796.1 724.3 4793.8 720.8 4792.6 711.3"/><polyline class="b" points="4793.8 720.8 4792.6 711.3 4796.1 724.3"/><polyline class="b" points="4715.8 702 4715.2 696.8 4717.1 704"/><polyline class="b" points="4710.6 783.7 4710 778.5 4711.9 785.7"/><polygon class="b" points="4708 793.8 4711.5 806.8 4709.2 803.3 4708 793.8"/><polyline class="b" points="4709.2 803.3 4708 793.8 4711.5 806.8"/><polygon class="b" points="4905.7 561.1 4909.1 573.7 4906.8 570.3 4905.7 561.1"/><polyline class="b" points="4884.9 571.3 4884.2 566.2 4886.2 573.2"/><polyline class="b" points="4906.8 570.3 4905.7 561.1 4909.1 573.7"/><polyline class="b" points="4894.1 567.8 4893.4 562.7 4895.3 569.8"/><path class="b" d="M4679.7,670.1s-5.4,3.7,4.9,5.4,22.4-1,26.4,3.3,5.1,6,9.6,5.7a71.1,71.1,0,0,1,9.8,0l6.6-1.4-1,3s-5,3-8,3-7-1-11-2-7.7-5.6-8.3-5.8-4.2-2.2-5.9-1.7-4.8,1.5-7.8.5-10-3-12-3S4673.5,673.1,4679.7,670.1Z"/><path class="b" d="M4739,683.1s13,0,14,2,1,2.5,8,4.3,9,1.7,11,2.7,2.7,1.1,2.8,2.6a3.3,3.3,0,0,0,2,2.8c1.2.6.7,2.3,0,4a18.2,18.2,0,0,1-2.8,3.6h-3.2c-2.8,0-3.1-2-5.5,0s-.6,3.3-3.5,3.7-6.1-1.4-7.5,0a7.5,7.5,0,0,1-4,2.5,17.9,17.9,0,0,1-6.3.8c-2,0-5-1-8,0s-4,1-6,2-6,8.4-6,10.2.7,4.8-.7,5.3-2.3,7.5-2.3,8.5-1,4.4,0,6.2,0,3.9,0,4.9-3.9-9.7-3.9-9.7,2.9-30.4,17.9-30.4,17,0,18-1,1-1,4-1,3,1,4,0,1-2,3-3a10,10,0,0,1,4-1h3c2,0,2,1,3,0l1-1c1-1,1.5-.5,1.7-1.7s1.3-2.3.3-2.3a3.4,3.4,0,0,1-2.3-1.3c-.7-.7-1.7.3-1.7-1.7s-1-1-1-2-1-1-3-1-2,1-5,0l-6-2c-3-1-3,1-4,0s-2.1-1-3.5-2-1.5-2-2.5-2h-8Z"/><polygon class="b" points="4747.2 672.1 4748 675.8 4747.5 674.8 4747.2 672.1"/><polyline class="b" points="4770.1 677.1 4770 675.6 4770.4 677.6"/><polyline class="b" points="4747.5 674.8 4747.2 672.1 4748 675.8"/><polyline class="b" points="4727.4 664.1 4727.2 662.6 4727.7 664.6"/><polyline class="b" points="4740.8 692.5 4740 688.1 4742.5 694.1"/><polyline class="b" points="4754.1 703.6 4753.5 698.5 4755.4 705.5"/><polyline class="b" points="4736.3 700.1 4735.6 695 4737.6 702"/><polygon class="b" points="4804 624.1 4804 620.9 4806 619.1 4821 619.1 4823 621.1 4823 624.1 4807.4 624.1 4804 624.1"/><polygon class="b" points="4805 625.1 4806 621.1 4806.5 623.1 4807 622.1 4807.7 625.1 4805 625.1"/><polygon class="b" points="4820.3 629.1 4822.1 623.1 4822.9 626.1 4823.8 624.6 4825 629.1 4820.3 629.1"/><rect class="b" x="4809" y="622.1" width="1" height="1"/><rect class="b" x="4811" y="622.1" width="1" height="1"/><rect class="b" x="4813" y="622.1" width="1" height="1"/><rect class="b" x="4815" y="622.1" width="1" height="1"/><rect class="b" x="4817" y="622.1" width="1" height="1"/><path class="b" d="M4527.9,867.5s-3,13.6-6,15.1-1.5,24.3-1.5,24.3,3-7.6,4.5-9.1-1.5-13.7,1.5-15.2,1.5-15.1,1.5-15.1"/><polygon class="b" points="4640.2 844.5 4645.2 830.5 4642.2 842.5 4640.2 844.5"/><polygon class="b" points="4650.2 831.5 4648.2 836.5 4649.2 835.5 4650.2 831.5"/><polygon class="b" points="4657.2 827.5 4654.1 836.5 4655.2 835.5 4657.2 827.5"/><path class="b" d="M4698.2,774.5a80.4,80.4,0,0,0,7-4.6c1-1,4,2.6,4,2.6s-1,0-1,2-1,11-6,16a15.7,15.7,0,0,0,1-7.6s-2,1.6-4,3.6C4699.2,786.5,4704.2,779.5,4698.2,774.5Z"/><polygon class="b" points="4578 857.5 4573.1 868.8 4576.4 865.5 4578 857.5"/><polygon class="b" points="4588.2 854.1 4584.9 863.8 4588.2 860.2 4588.2 854.1"/><path class="b" d="M4777.2,745.5a2.9,2.9,0,0,0,3,3s-2,0-5,4A13.8,13.8,0,0,0,4777.2,745.5Z"/><polygon class="b" points="4879.2 702.5 4876.2 713.5 4878.2 710.5 4879.2 702.5"/><path class="b" d="M5075.2,633.5c-2,0-15-3-15-3a62.1,62.1,0,0,0-7.1,1.2,5.9,5.9,0,0,0-1.9.8c-1,1-9,17-10,17s-9,4-9,5-6,6-6,9-3,8-3,8l-13,6s-8,9-10,11-9,5-11,8-4,7-10,8-8,1-9,2-9,5-9,5,10.9,3,11.5,2,3.5-4,6.5-4,5-1,7-1a29.2,29.2,0,0,0,9-2c2-1,0,0,5-5s5-4,7-6l6-6c2-2,5-6,6-7a15.4,15.4,0,0,1,6-4c3-1,7-3,9-3s2-5,3-7a6.4,6.4,0,0,0,0-6c-1-2-2-1,1-4s3-5,6-5,2,5,5-1,3-7,4-8,5-4,5-6,7-6,10-5S5075.2,633.5,5075.2,633.5Z"/><polygon class="b" points="5429.3 562.5 5423.2 584.7 5427.2 578.7 5429.3 562.5"/><polyline class="b" points="5465.9 580.5 5467.1 571.5 5463.7 583.9"/><polyline class="b" points="5427.2 578.7 5429.3 562.5 5423.2 584.7"/><polyline class="b" points="5449.7 574.4 5450.9 565.4 5447.5 577.8"/><polygon class="b" points="5470.4 597.8 5464.4 620.1 5468.4 614 5470.4 597.8"/><polyline class="b" points="5507.1 615.8 5508.2 606.8 5504.8 619.2"/><polyline class="b" points="5468.4 614 5470.4 597.8 5464.4 620.1"/><path class="b" d="M5429.5,604s-20.4,4-17.6,6.8-2.8,5.6-5.6,5.6-28,5.6-30.8,5.6-5.6,11.2-5.6,11.2a39.6,39.6,0,0,0-13.9-8.4c-8.4-2.8-5.6-6.8-23.8-6.2,0,0,12.6-2.2,21,.6s16.7-2.8,22.3-2.8,25.2,0,28-2.8,8.5-6.3,16.8-8.8Z"/><polygon class="b" points="5154.6 540.5 5151.2 553.1 5153.5 549.6 5154.6 540.5"/><polyline class="b" points="5175.4 550.7 5176.1 545.6 5174.1 552.6"/><polyline class="b" points="5153.5 549.6 5154.6 540.5 5151.2 553.1"/><polyline class="b" points="5166.2 547.2 5166.9 542.1 5165 549.1"/><polygon class="b" points="5178 560.5 5174.5 573.1 5176.8 569.7 5178 560.5"/><polyline class="b" points="5198.8 570.7 5199.4 565.6 5197.5 572.6"/><polyline class="b" points="5176.8 569.7 5178 560.5 5174.5 573.1"/><polygon class="b" points="5267 513.1 5262.9 528.2 5265.6 524.1 5267 513.1"/><polyline class="b" points="5291.9 525.4 5292.6 519.2 5290.4 527.6"/><polyline class="b" points="5265.6 524.1 5267 513.1 5262.9 528.2"/><polygon class="b" points="5085.2 659.4 5081.6 672.3 5084 668.8 5085.2 659.4"/><polyline class="b" points="5051.5 753.9 5052.2 748.6 5050.2 755.8"/><polyline class="b" points="5084 668.8 5085.2 659.4 5081.6 672.3"/><polyline class="b" points="4886.1 776.3 4886.7 771.1 4884.8 778.3"/><polygon class="b" points="4898.2 790 4894.6 803 4897 799.4 4898.2 790"/><polyline class="b" points="4919.5 800.5 4920.2 795.2 4918.2 802.4"/><polyline class="b" points="4897 799.4 4898.2 790 4894.6 803"/><polygon class="b" points="4919.4 738 4915.8 751 4918.2 747.4 4919.4 738"/><polyline class="b" points="5252.8 604.5 5253.4 599.3 5251.4 606.5"/><polyline class="b" points="4918.2 747.4 4919.4 738 4915.8 751"/><polyline class="b" points="4931.3 745 4932 739.7 4930 746.9"/><polygon class="b" points="5255.4 614.6 5251.8 627.6 5254.2 624.1 5255.4 614.6"/><polyline class="b" points="5175.8 659.1 5176.4 653.9 5174.4 661.1"/><polyline class="b" points="5254.2 624.1 5255.4 614.6 5251.8 627.6"/><polygon class="b" points="5393.4 656.7 5389.8 669.7 5392.2 666.1 5393.4 656.7"/><polyline class="b" points="5414.8 667.2 5415.4 661.9 5413.4 669.2"/><polyline class="b" points="5392.2 666.1 5393.4 656.7 5389.8 669.7"/><polyline class="b" points="5405.3 663.6 5406 658.4 5404 665.6"/><polygon class="b" points="5299.4 721.3 5295.8 734.3 5298.2 730.7 5299.4 721.3"/><polyline class="b" points="5320.8 731.8 5321.4 726.6 5319.4 733.8"/><polyline class="b" points="5298.2 730.7 5299.4 721.3 5295.8 734.3"/><polygon class="b" points="5320.6 669.3 5317.1 682.3 5319.4 678.8 5320.6 669.3"/><polyline class="b" points="5319.4 678.8 5320.6 669.3 5317.1 682.3"/><polygon class="b" points="5114.4 761.7 5110.8 774.7 5113.2 771.1 5114.4 761.7"/><polyline class="b" points="5135.8 772.2 5136.4 766.9 5134.4 774.2"/><polyline class="b" points="5113.2 771.1 5114.4 761.7 5110.8 774.7"/><polyline class="b" points="5074.3 789.6 5075 784.4 5073 791.6"/><polygon class="b" points="5138.4 782.3 5134.8 795.3 5137.2 791.7 5138.4 782.3"/><polyline class="b" points="5159.8 792.8 5160.4 787.6 5158.4 794.8"/><polyline class="b" points="5137.2 791.7 5138.4 782.3 5134.8 795.3"/><polygon class="b" points="5159.6 730.3 5156.1 743.3 5158.4 739.8 5159.6 730.3"/><polyline class="b" points="5158.4 739.8 5159.6 730.3 5156.1 743.3"/><polyline class="b" points="5236.4 721 5237 715.8 5235 723"/><polyline class="b" points="5241.6 802.7 5242.2 797.5 5240.3 804.7"/><polygon class="b" points="5244.2 812.8 5240.7 825.8 5243 822.3 5244.2 812.8"/><polyline class="b" points="5243 822.3 5244.2 812.8 5240.7 825.8"/><polygon class="b" points="5046.5 580.1 5043.1 592.7 5045.4 589.3 5046.5 580.1"/><polyline class="b" points="5067.3 590.3 5068 585.2 5066 592.2"/><polyline class="b" points="5045.4 589.3 5046.5 580.1 5043.1 592.7"/><polyline class="b" points="5058.1 586.8 5058.8 581.7 5056.9 588.8"/><path class="b" d="M5272.5,689.1s5.4,3.7-4.9,5.4-22.4-1-26.4,3.3-5.1,6-9.6,5.7a71.1,71.1,0,0,0-9.8,0l-6.6-1.4,1,3s5,3,8,3,7-1,11-2,7.7-5.6,8.3-5.8,4.2-2.2,5.9-1.7,4.8,1.5,7.8.5,10-3,12-3S5278.7,692.1,5272.5,689.1Z"/><path class="b" d="M5213.2,702.1s-13,0-14,2-1,2.5-8,4.3-9,1.7-11,2.7-2.7,1.1-2.8,2.6a3.3,3.3,0,0,1-2,2.8c-1.2.6-.7,2.3,0,4a18.2,18.2,0,0,0,2.8,3.6h3.2c2.8,0,3.1-2,5.5,0s.6,3.3,3.5,3.7,6.1-1.4,7.5,0a7.5,7.5,0,0,0,4,2.5,17.9,17.9,0,0,0,6.3.8c2,0,5-1,8,0s4,1,6,2,6,8.4,6,10.2-.7,4.8.7,5.3,2.3,7.5,2.3,8.5,1,4.4,0,6.2,0,3.9,0,4.9,3.8-9.7,3.8-9.7-2.8-30.4-17.8-30.4-17,0-18-1-1-1-4-1-3,1-4,0-1-2-3-3a10,10,0,0,0-4-1h-3c-2,0-2,1-3,0l-1-1c-1-1-1.5-.5-1.7-1.7s-1.3-2.3-.3-2.3a3.4,3.4,0,0,0,2.3-1.3c.7-.7,1.7.3,1.7-1.7s1-1,1-2,1-1,3-1,2,1,5,0l6-2c3-1,3,1,4,0s2.1-1,3.5-2,1.5-2,2.5-2h8Z"/><polygon class="b" points="5205 691.1 5204.2 694.8 5204.7 693.8 5205 691.1"/><polyline class="b" points="5182.1 696.1 5182.2 694.6 5181.8 696.6"/><polyline class="b" points="5204.7 693.8 5205 691.1 5204.2 694.8"/><polyline class="b" points="5224.8 683.1 5225 681.6 5224.5 683.6"/><polyline class="b" points="5211.4 711.5 5212.2 707.1 5209.7 713.1"/><polyline class="b" points="5198.1 722.6 5198.7 717.5 5196.8 724.5"/><polyline class="b" points="5215.9 719.1 5216.5 714 5214.6 721"/><polygon class="b" points="5148.2 643.1 5148.2 639.9 5146.2 638.1 5131.2 638.1 5129.2 640.1 5129.2 643.1 5144.8 643.1 5148.2 643.1"/><polygon class="b" points="5147.2 644.1 5146.2 640.1 5145.7 642.1 5145.2 641.1 5144.5 644.1 5147.2 644.1"/><polygon class="b" points="5131.9 648.1 5130.1 642.1 5129.3 645.1 5128.4 643.6 5127.2 648.1 5131.9 648.1"/><rect class="b" x="5142.2" y="641.1" width="1" height="1" transform="translate(10285.4 1283.3) rotate(-180)"/><rect class="b" x="5140.2" y="641.1" width="1" height="1" transform="translate(10281.4 1283.3) rotate(-180)"/><rect class="b" x="5138.2" y="641.1" width="1" height="1" transform="translate(10277.4 1283.3) rotate(-180)"/><rect class="b" x="5136.2" y="641.1" width="1" height="1" transform="translate(10273.4 1283.3) rotate(-180)"/><rect class="b" x="5134.2" y="641.1" width="1" height="1" transform="translate(10269.4 1283.3) rotate(-180)"/><path class="b" d="M4414,487.3c2,0,15-3,15-3s4.5.6,7.1,1.3a6.3,6.3,0,0,1,1.9.7c1,1,9,17,10,17s9,4,9,5,6,6,6,9,3,8,3,8l13,6s8,9,10,11,9,5,11,8,4,7,10,8,8,1,9,2,9,5,9,5-10.9,3-11.5,2-3.5-4-6.5-4-5-1-7-1a29.2,29.2,0,0,1-9-2c-2-1,0,0-5-5s-5-4-7-6l-6-6c-2-2-5-6-6-7a15.4,15.4,0,0,0-6-4c-3-1-7-3-9-3s-2-5-3-7a6.4,6.4,0,0,1,0-6c1-2,2-1-1-4s-3-5-6-5-2,5-5-1-3-7-4-8-5-4-5-6-7-6-10-5S4414,487.3,4414,487.3Z"/><polygon class="b" points="5614.6 422.3 5618 435 5615.7 431.5 5614.6 422.3"/><polyline class="b" points="5593.8 432.5 5593.1 427.4 5595 434.5"/><polyline class="b" points="5615.7 431.5 5614.6 422.3 5618 435"/><polyline class="b" points="5602.9 429.1 5602.3 424 5604.2 431"/><polygon class="b" points="5591.2 442.4 5594.7 455 5592.4 451.6 5591.2 442.4"/><polyline class="b" points="5570.4 452.6 5569.8 447.5 5571.7 454.5"/><polyline class="b" points="5592.4 451.6 5591.2 442.4 5594.7 455"/><polygon class="b" points="5502.2 395 5506.3 410.1 5503.6 406 5502.2 395"/><polyline class="b" points="5503.6 406 5502.2 395 5506.3 410.1"/><polyline class="b" points="5516.4 486.4 5515.8 481.1 5517.7 488.3"/><polygon class="b" points="5513.8 496.5 5517.3 509.5 5515 505.9 5513.8 496.5"/><polyline class="b" points="5515 505.9 5513.8 496.5 5517.3 509.5"/><polygon class="b" points="5722.7 461.9 5726.1 474.6 5723.8 471.1 5722.7 461.9"/><polyline class="b" points="5701.9 472.2 5701.2 467.1 5703.1 474.1"/><polyline class="b" points="5723.8 471.1 5722.7 461.9 5726.1 474.6"/><polyline class="b" points="5711.1 468.7 5710.4 463.6 5712.3 470.6"/><polygon class="b" points="5621 525 5621 521.8 5623 520 5638 520 5640 522 5640 525 5624.4 525 5621 525"/><path class="b" d="M3815.8,586.6l15.2-6.8,3.4,13.6-3.4,6.8,15.3,1.7v-8.8s-10.2-6.5-8.5-9.9,1.7-10.2,0-11.9S3815.8,586.6,3815.8,586.6Z"/><path class="b" d="M3865.4,553.1l-3.4,6.8,10.2,1.6s-2.3-6.7-1.1-8.4,6.2-3.4,6.2-3.4l-5.1-6.8Z"/><path class="b" d="M3645.3,643.8l10.2,3.4s4,1.7,3.7,3.3-.3,1.7,3.1,3.4,8.8,0,8.8,0-10.5,6.8-13.9,5.1-13.6-2.2-11.9-4.5a49.3,49.3,0,0,0,3.4-5.6Z"/><polygon class="b" points="3247.6 573.2 3250.6 584.2 3248.6 581.2 3247.6 573.2"/><polyline class="b" points="3229.5 582.1 3228.9 577.7 3230.6 583.8"/><polyline class="b" points="3248.6 581.2 3248.2 580.9 3250.6 584.2"/><polyline class="b" points="3237.5 579.1 3236.9 574.7 3238.6 580.8"/><polygon class="b" points="3399.2 644.7 3402.2 655.7 3400.2 652.7 3399.2 644.7"/><polyline class="b" points="3381.1 653.6 3380.6 649.1 3382.2 655.2"/><polyline class="b" points="3400.2 652.7 3399.2 644.7 3402.2 655.7"/><path class="b" d="M3742.2,960s-3,13.7-6,15.2-1.6,24.2-1.6,24.2,3-7.5,4.6-9.1-1.6-13.6,1.5-15.1,1.5-15.2,1.5-15.2"/><polygon class="b" points="3854.5 937 3859.5 923 3856.5 935 3854.5 937"/><polygon class="b" points="3864.5 924 3862.5 929 3863.5 928 3864.5 924"/><polygon class="b" points="3871.5 920 3868.3 929 3869.5 928 3871.5 920"/><path class="b" d="M3912.5,867a80.4,80.4,0,0,0,7-4.6c1-1,4,2.6,4,2.6s-1,0-1,2-1,11-6,16a15.4,15.4,0,0,0,1-7.6s-2,1.6-4,3.6C3913.5,879,3918.5,872,3912.5,867Z"/><polygon class="b" points="3792.3 950 3787.4 961.4 3790.7 958.1 3792.3 950"/><polygon class="b" points="3802.5 946.6 3799.2 956.4 3802.5 952.8 3802.5 946.6"/><path class="b" d="M3991.5,838a2.9,2.9,0,0,0,3,3s-2,0-5,4A13.8,13.8,0,0,0,3991.5,838Z"/><polygon class="b" points="4093.5 795 4090.5 806 4092.5 803 4093.5 795"/><path class="b" d="M4289.5,726c-2,0-15-3-15-3s-4.5.6-7.2,1.3a5.5,5.5,0,0,0-1.8.7c-1,1-9,17-10,17s-9,4-9,5-6,6-6,9-3,8-3,8l-13,6s-8,9-10,11-9,5-11,8-4,7-10,8-8,1-9,2-9,5-9,5,10.9,3,11.5,2,3.5-4,6.5-4,5-1,7-1a29.2,29.2,0,0,0,9-2c2-1,0,0,5-5s5-4,7-6l6-6c2-2,5-6,6-7a15.4,15.4,0,0,1,6-4c3-1,7-3,9-3s2-5,3-7a6.4,6.4,0,0,0,0-6c-1-2-2-1,1-4s3-5,6-5,2,5,5-1,3-7,4-8,5-4,5-6,7-6,10-5S4289.5,726,4289.5,726Z"/><polyline class="b" points="4100.4 868.9 4101 863.6 4099.1 870.9"/><polygon class="b" points="4112.4 882.5 4108.9 895.5 4111.3 892 4112.4 882.5"/><polyline class="b" points="4133.8 893 4134.5 887.8 4132.5 895"/><polyline class="b" points="4111.3 892 4112.4 882.5 4108.9 895.5"/><polygon class="b" points="4133.7 830.6 4130.1 843.6 4132.5 840 4133.7 830.6"/><polyline class="b" points="4132.5 840 4133.7 830.6 4130.1 843.6"/><polyline class="b" points="4145.6 837.5 4146.3 832.3 4144.3 839.5"/><path class="b" d="M3867.5,870s3.1,13.7,6.1,15.2,1.5,24.2,1.5,24.2-3-7.5-4.5-9.1,1.5-13.6-1.5-15.1-1.6-15.2-1.6-15.2"/><polygon class="b" points="3617.3 929 3612.3 915 3615.3 927 3617.3 929"/><polygon class="b" points="3607.3 916 3609.3 921 3608.3 920 3607.3 916"/><polygon class="b" points="3600.3 912 3603.4 921 3602.3 920 3600.3 912"/><path class="b" d="M3559.3,859a80.4,80.4,0,0,1-7-4.6c-1-1-4,2.6-4,2.6s1,0,1,2,1,11,6,16a15.4,15.4,0,0,1-1-7.6s2,1.6,4,3.6C3558.3,871,3553.3,864,3559.3,859Z"/><polygon class="b" points="3817.5 860 3822.3 871.4 3819.1 868.1 3817.5 860"/><polygon class="b" points="3807.3 856.6 3810.5 866.4 3807.3 862.8 3807.3 856.6"/><path class="b" d="M3480.3,830a2.9,2.9,0,0,1-3,3s2,0,5,4A13.8,13.8,0,0,1,3480.3,830Z"/><polygon class="b" points="3378.3 787 3381.3 798 3379.3 795 3378.3 787"/><path class="b" d="M3182.3,718c2,0,15-3,15-3s4.5.6,7.1,1.3a6.3,6.3,0,0,1,1.9.7c1,1,9,17,10,17s9,4,9,5,6,6,6,9,3,8,3,8l13,6s8,9,10,11,9,5,11,8,4,7,10,8,8,1,9,2,9,5,9,5-10.9,3-11.5,2-3.5-4-6.5-4-5-1-7-1a29.2,29.2,0,0,1-9-2c-2-1,0,0-5-5s-5-4-7-6l-6-6c-2-2-5-6-6-7a15.4,15.4,0,0,0-6-4c-3-1-7-3-9-3s-2-5-3-7a6.4,6.4,0,0,1,0-6c1-2,2-1-1-4s-3-5-6-5-2,5-5-1-3-7-4-8-5-4-5-6-7-6-10-5S3182.3,718,3182.3,718Z"/><polygon class="b" points="3102.9 625 3106.3 637.7 3104 634.2 3102.9 625"/><polyline class="b" points="3082.1 635.2 3081.4 630.1 3083.3 637.2"/><polyline class="b" points="3104 634.2 3102.9 625 3106.3 637.7"/><polyline class="b" points="3091.2 631.8 3090.6 626.7 3092.5 633.7"/><polygon class="b" points="3079.5 645.1 3082.9 657.7 3080.7 654.3 3079.5 645.1"/><polyline class="b" points="3058.7 655.3 3058.1 650.2 3060 657.2"/><polyline class="b" points="3080.7 654.3 3079.5 645.1 3082.9 657.7"/><polygon class="b" points="2990.5 597.7 2994.6 612.8 2991.9 608.7 2990.5 597.7"/><polyline class="b" points="2991.9 608.7 2990.5 597.7 2994.6 612.8"/><polygon class="b" points="3172.3 743.9 3175.9 756.9 3173.5 753.4 3172.3 743.9"/><polyline class="b" points="3206 838.4 3205.3 833.2 3207.3 840.4"/><polyline class="b" points="3173.5 753.4 3172.3 743.9 3175.9 756.9"/><polyline class="b" points="4345.4 655.9 4344.7 650.6 4346.7 657.9"/><polygon class="b" points="4333.3 669.5 4336.9 682.5 4334.5 679 4333.3 669.5"/><polyline class="b" points="4312 680 4311.3 674.8 4313.3 682"/><polyline class="b" points="4334.5 679 4333.3 669.5 4336.9 682.5"/><polygon class="b" points="3338.1 822.6 3341.6 835.6 3339.3 832 3338.1 822.6"/><polyline class="b" points="3004.7 689.1 3004.1 683.8 3006 691"/><polyline class="b" points="3339.3 832 3338.1 822.6 3341.6 835.6"/><polyline class="b" points="3326.2 829.5 3325.5 824.3 3327.5 831.5"/><polygon class="b" points="3002.1 699.2 3005.6 712.2 3003.3 708.6 3002.1 699.2"/><polyline class="b" points="3081.7 743.7 3081.1 738.4 3083 745.7"/><polyline class="b" points="3003.3 708.6 3002.1 699.2 3005.6 712.2"/><polygon class="b" points="4117.1 641.2 4120.6 654.2 4118.3 650.7 4117.1 641.2"/><polyline class="b" points="4095.7 651.8 4095.1 646.5 4097 653.7"/><polyline class="b" points="4118.3 650.7 4117.1 641.2 4120.6 654.2"/><polyline class="b" points="4157.2 669.2 4156.5 664 4158.5 671.2"/><polygon class="b" points="4093.1 661.9 4096.6 674.8 4094.3 671.3 4093.1 661.9"/><polyline class="b" points="3097.7 877.4 3097.1 872.1 3099 879.3"/><polyline class="b" points="4094.3 671.3 4093.1 661.9 4096.6 674.8"/><polygon class="b" points="3097.9 814.9 3101.4 827.9 3099 824.3 3097.9 814.9"/><polyline class="b" points="3099 824.3 3097.9 814.9 3101.4 827.9"/><polyline class="b" points="3021.1 805.6 3020.5 800.3 3022.4 807.6"/><polyline class="b" points="3015.9 887.3 3015.2 882.1 3017.2 889.3"/><polygon class="b" points="3013.3 897.4 3016.8 910.4 3014.4 906.8 3013.3 897.4"/><polyline class="b" points="3014.4 906.8 3013.3 897.4 3016.8 910.4"/><polygon class="b" points="3211 664.6 3214.4 677.3 3212.1 673.8 3211 664.6"/><polyline class="b" points="3190.2 674.9 3189.5 669.8 3191.4 676.8"/><polyline class="b" points="3212.1 673.8 3211 664.6 3214.4 677.3"/><polyline class="b" points="3199.3 671.4 3198.7 666.3 3200.6 673.3"/><path class="b" d="M2985,773.7s-5.4,3.7,4.9,5.3,22.3-1,26.4,3.4,5.1,5.9,9.6,5.6a94.7,94.7,0,0,1,9.8,0l6.6-1.3-1,3s-5,3-8,3-7-1-11-2-7.7-5.7-8.4-5.8-4.1-2.2-5.9-1.7-4.7,1.5-7.7.5-10-3-12-3S2978.8,776.7,2985,773.7Z"/><path class="b" d="M3044.3,786.7s13,0,14,2,1,2.5,8,4.2,9,1.8,11,2.8,2.7,1.1,2.8,2.5a3.1,3.1,0,0,0,1.9,2.8c1.3.7.8,2.4,0,4a14.7,14.7,0,0,1-2.7,3.7h-3.2c-2.8,0-3.1-2-5.5,0s-.6,3.3-3.5,3.6-6.1-1.3-7.5,0a7,7,0,0,1-4,2.6,17.9,17.9,0,0,1-6.3.8c-2,0-5-1-8,0s-4,1-6,2-6,8.4-6,10.2.7,4.8-.7,5.3-2.3,7.5-2.3,8.5-1,4.3,0,6.2,0,3.9,0,4.8-3.9-9.7-3.9-9.7,2.9-30.3,17.9-30.3,17,0,18-1,1-1,4-1,3,1,4,0,1-2,3-3a10,10,0,0,1,4-1h3c2,0,2,1,3,0l1-1c1-1,1.4-.5,1.7-1.7s1.3-2.3.3-2.3a3.1,3.1,0,0,1-2.3-1.4c-.7-.6-1.7.4-1.7-1.6s-1-1-1-2-1-1-3-1-2,1-5,0l-6-2c-3-1-3,1-4,0s-2.1-1-3.6-2-1.4-2-2.4-2h-8Z"/><polygon class="b" points="3052.5 775.7 3053.3 779.3 3052.7 778.3 3052.5 775.7"/><polyline class="b" points="3075.4 780.6 3075.3 779.2 3075.7 781.2"/><polyline class="b" points="3052.7 778.3 3052.5 775.7 3053.3 779.3"/><polyline class="b" points="3032.6 767.6 3032.5 766.2 3033 768.2"/><polyline class="b" points="3046.1 796.1 3045.3 791.7 3047.8 797.7"/><polyline class="b" points="3059.4 807.1 3058.7 802 3060.7 809.1"/><polyline class="b" points="3041.6 803.7 3040.9 798.6 3042.8 805.6"/><polygon class="b" points="3109.3 727.7 3109.3 724.5 3111.3 722.7 3126.3 722.7 3128.3 724.7 3128.3 727.7 3112.7 727.7 3109.3 727.7"/><polygon class="b" points="3110.3 728.7 3111.3 724.7 3111.8 726.7 3112.3 725.7 3113 728.7 3110.3 728.7"/><polygon class="b" points="3125.6 732.7 3127.4 726.7 3128.2 729.7 3129.1 728.2 3130.3 732.7 3125.6 732.7"/><rect class="b" x="3114.3" y="725.7" width="1" height="1"/><rect class="b" x="3116.3" y="725.7" width="1" height="1"/><rect class="b" x="3118.3" y="725.7" width="1" height="1"/><rect class="b" x="3120.3" y="725.7" width="1" height="1"/><rect class="b" x="3122.3" y="725.7" width="1" height="1"/><path class="b" d="M3003.5,878a80.4,80.4,0,0,0,7-4.6c1-1,4,2.6,4,2.6s-1,0-1,2-1,11-6,16a15.4,15.4,0,0,0,1-7.6s-2,1.6-4,3.6C3004.5,890,3009.5,883,3003.5,878Z"/><path class="b" d="M3082.5,849a2.9,2.9,0,0,0,3,3s-2,0-5,4A13.8,13.8,0,0,0,3082.5,849Z"/><polygon class="b" points="3184.5 806 3181.5 817 3183.5 814 3184.5 806"/><path class="b" d="M2796,904.8c-1,0-7.6-1.5-7.6-1.5a24.7,24.7,0,0,0-3.6.6c-.4.1-.8.2-.9.4s-4.5,8.5-5,8.5-4.6,2.1-4.6,2.6-3,3-3,4.5-1.5,4-1.5,4l-6.6,3.1s-4,4.5-5,5.5-4.6,2.5-5.6,4.1-2,3.5-5,4-4,.5-4.6,1a45.1,45.1,0,0,1-4.5,2.5s5.5,1.5,5.8,1a4.8,4.8,0,0,1,3.3-2c1.5,0,2.5-.5,3.5-.5a15.9,15.9,0,0,0,4.6-1c1-.5,0,0,2.5-2.5s2.5-2,3.5-3.1l3-3c1-1,2.6-3,3.1-3.5a7.7,7.7,0,0,1,3-2c1.5-.5,3.5-1.5,4.5-1.5s1-2.6,1.5-3.6a3.2,3.2,0,0,0,0-3c-.5-1-1-.5.5-2s1.6-2.5,3.1-2.5,1,2.5,2.5-.5,1.5-3.6,2-4.1,2.5-2,2.5-3,3.6-3,5.1-2.5A7.4,7.4,0,0,0,2796,904.8Z"/><polygon class="b" points="3872.5 584 3866.5 606.3 3870.5 600.2 3872.5 584"/><polyline class="b" points="3909.2 602 3910.3 593 3907 605.4"/><polyline class="b" points="3870.5 600.2 3872.5 584 3866.5 606.3"/><polyline class="b" points="3893 596 3894.1 587 3890.8 599.3"/><polygon class="b" points="3913.7 619.4 3907.6 641.6 3911.7 635.6 3913.7 619.4"/><polyline class="b" points="3950.4 637.4 3951.5 628.4 3948.1 640.8"/><polyline class="b" points="3911.7 635.6 3913.7 619.4 3907.6 641.6"/><path class="b" d="M3734.8,707.6s-20.4,4-17.6,6.8-2.8,5.5-5.6,5.5-28,5.6-30.8,5.6-5.6,11.2-5.6,11.2a39.5,39.5,0,0,0-14-8.4c-8.4-2.8-5.6-6.7-23.7-6.1,0,0,12.6-2.3,20.9.5s16.8-2.8,22.4-2.8,25.2,0,28-2.8,8.5-6.2,16.8-8.7Z"/><polygon class="b" points="3274.9 547 3271.5 559.7 3273.8 556.2 3274.9 547"/><polyline class="b" points="3295.7 557.2 3296.3 552.1 3294.4 559.2"/><polyline class="b" points="3273.8 556.2 3274.9 547 3271.5 559.7"/><polyline class="b" points="3286.5 553.8 3287.2 548.7 3285.3 555.7"/><polygon class="b" points="3298.3 567.1 3294.8 579.7 3297.1 576.3 3298.3 567.1"/><polyline class="b" points="3319.1 577.3 3319.7 572.2 3317.8 579.2"/><polyline class="b" points="3297.1 576.3 3298.3 567.1 3294.8 579.7"/><polygon class="b" points="3572.3 616.7 3568.2 631.8 3570.9 627.7 3572.3 616.7"/><polyline class="b" points="3597.2 628.9 3597.9 622.8 3595.6 631.2"/><polyline class="b" points="3570.9 627.7 3572.3 616.7 3568.2 631.8"/><polygon class="b" points="3390.4 762.9 3386.9 775.9 3389.3 772.4 3390.4 762.9"/><polyline class="b" points="4330.8 652.4 4331.5 647.2 4329.5 654.4"/><polyline class="b" points="3389.3 772.4 3390.4 762.9 3386.9 775.9"/><polyline class="b" points="4165.4 674.9 4166 669.6 4164.1 676.9"/><polygon class="b" points="4177.4 688.5 4173.9 701.5 4176.3 698 4177.4 688.5"/><polyline class="b" points="4198.8 699 4199.5 693.8 4197.5 701"/><polyline class="b" points="4176.3 698 4177.4 688.5 4173.9 701.5"/><polygon class="b" points="4198.7 636.6 4195.1 649.6 4197.5 646 4198.7 636.6"/><polyline class="b" points="3558 708.1 3558.7 702.8 3556.7 710"/><polyline class="b" points="4197.5 646 4198.7 636.6 4195.1 649.6"/><polyline class="b" points="4210.6 643.5 4211.3 638.3 4209.3 645.5"/><polygon class="b" points="3560.7 718.2 3557.1 731.2 3559.5 727.6 3560.7 718.2"/><polyline class="b" points="3481 762.7 3481.7 757.4 3479.7 764.7"/><polyline class="b" points="3559.5 727.6 3560.7 718.2 3557.1 731.2"/><polygon class="b" points="3836.7 678.2 3833.1 691.2 3835.5 687.7 3836.7 678.2"/><polyline class="b" points="3858 688.8 3858.7 683.5 3856.7 690.7"/><polyline class="b" points="3835.5 687.7 3836.7 678.2 3833.1 691.2"/><polyline class="b" points="3848.6 685.2 3849.3 680 3847.3 687.2"/><polygon class="b" points="3046.7 725.2 3043.1 738.1 3045.5 734.6 3046.7 725.2"/><polyline class="b" points="3068 735.7 3068.7 730.4 3066.7 737.6"/><polyline class="b" points="3045.5 734.6 3046.7 725.2 3043.1 738.1"/><polygon class="b" points="3067.9 673.2 3064.4 686.2 3066.7 682.6 3067.9 673.2"/><polyline class="b" points="3066.7 682.6 3067.9 673.2 3064.4 686.2"/><polygon class="b" points="4393.7 660.2 4390.1 673.2 4392.5 669.7 4393.7 660.2"/><polyline class="b" points="4415 670.8 4415.7 665.5 4413.7 672.7"/><polyline class="b" points="4392.5 669.7 4393.7 660.2 4390.1 673.2"/><polyline class="b" points="4353.6 688.2 4354.3 683 4352.3 690.2"/><polygon class="b" points="4417.7 680.9 4414.1 693.8 4416.5 690.3 4417.7 680.9"/><polyline class="b" points="3465 896.4 3465.7 891.1 3463.7 898.3"/><polyline class="b" points="4416.5 690.3 4417.7 680.9 4414.1 693.8"/><polygon class="b" points="3464.9 833.9 3461.4 846.9 3463.7 843.3 3464.9 833.9"/><polyline class="b" points="3463.7 843.3 3464.9 833.9 3461.4 846.9"/><polyline class="b" points="2983.6 724.9 2984.3 719.6 2982.3 726.9"/><polyline class="b" points="3546.9 906.3 3547.5 901.1 3545.6 908.3"/><polygon class="b" points="3549.5 916.4 3546 929.4 3548.3 925.8 3549.5 916.4"/><polyline class="b" points="3548.3 925.8 3549.5 916.4 3546 929.4"/><polygon class="b" points="3351.8 683.6 3348.4 696.3 3350.7 692.8 3351.8 683.6"/><polyline class="b" points="3372.6 693.9 3373.2 688.8 3371.3 695.8"/><polyline class="b" points="3350.7 692.8 3351.8 683.6 3348.4 696.3"/><polyline class="b" points="3363.4 690.4 3364.1 685.3 3362.1 692.3"/><path class="b" d="M3019.7,693s5.5,3.7-4.9,5.3-22.3-1-26.3,3.4-5.1,5.9-9.6,5.6a94.7,94.7,0,0,0-9.8,0l-6.6-1.3,1,3s5,3,8,3,7-1,11-2,7.7-5.7,8.3-5.8,4.2-2.2,5.9-1.7,4.8,1.5,7.8.5,10-3,12-3S3026,696,3019.7,693Z"/><path class="b" d="M2960.5,706s-13,0-14,2-1,2.5-8,4.3-9,1.7-11,2.7-2.7,1.1-2.9,2.5a2.8,2.8,0,0,1-1.9,2.8c-1.2.7-.7,2.4,0,4a17,17,0,0,0,2.8,3.7h3.1c2.9,0,3.2-2,5.5,0s.7,3.3,3.5,3.6,6.2-1.3,7.5,0a7.8,7.8,0,0,0,4,2.6,18.7,18.7,0,0,0,6.4.8c2,0,5-1,8,0s4,1,6,2,6,8.4,6,10.2-.7,4.8.6,5.3,2.4,7.5,2.4,8.5,1,4.3,0,6.2,0,3.9,0,4.8,3.8-9.7,3.8-9.7-2.8-30.3-17.8-30.3-17,0-18-1-1-1-4-1-3,1-4,0-1-2-3-3a10,10,0,0,0-4-1h-3c-2,0-2,1-3,0l-1-1c-1-1-1.5-.5-1.8-1.7s-1.2-2.3-.2-2.3,1.6-.7,2.3-1.4,1.7.4,1.7-1.6,1-1,1-2,1-1,3-1,2,1,5,0l6-2c3-1,3,1,4,0s2.1-1,3.5-2,1.5-2,2.5-2h8Z"/><polygon class="b" points="2952.3 695 2951.5 698.6 2952 697.6 2952.3 695"/><polyline class="b" points="2929.4 699.9 2929.5 698.5 2929 700.5"/><polyline class="b" points="2952 697.6 2952.3 695 2951.5 698.6"/><polyline class="b" points="2972.1 686.9 2972.3 685.5 2971.8 687.5"/><polyline class="b" points="2958.6 715.4 2959.5 711 2957 717"/><polyline class="b" points="2945.4 726.4 2946 721.3 2944.1 728.4"/><polyline class="b" points="2963.2 723 2963.8 717.9 2961.9 724.9"/><polygon class="b" points="3453.5 746.7 3453.5 743.5 3451.5 741.7 3436.5 741.7 3434.5 743.7 3434.5 746.7 3450.1 746.7 3453.5 746.7"/><polygon class="b" points="3452.5 747.7 3451.5 743.7 3451 745.7 3450.5 744.7 3449.8 747.7 3452.5 747.7"/><polygon class="b" points="3437.1 751.7 3435.4 745.7 3434.6 748.7 3433.6 747.2 3432.5 751.7 3437.1 751.7"/><rect class="b" x="3447.5" y="744.7" width="1" height="1" transform="translate(6895.9 1490.4) rotate(-180)"/><rect class="b" x="3445.5" y="744.7" width="1" height="1" transform="translate(6891.9 1490.4) rotate(-180)"/><rect class="b" x="3443.5" y="744.7" width="1" height="1" transform="translate(6887.9 1490.4) rotate(-180)"/><rect class="b" x="3441.5" y="744.7" width="1" height="1" transform="translate(6883.9 1490.4) rotate(-180)"/><rect class="b" x="3439.5" y="744.7" width="1" height="1" transform="translate(6879.9 1490.4) rotate(-180)"/><polygon class="b" points="4057.8 443.9 4061.3 456.5 4059 453.1 4057.8 443.9"/><polyline class="b" points="4037 454.1 4036.4 449 4038.3 456"/><polyline class="b" points="4059 453.1 4057.8 443.9 4061.3 456.5"/><polyline class="b" points="4046.2 450.7 4045.6 445.6 4047.5 452.6"/><polygon class="b" points="4034.5 463.9 4037.9 476.6 4035.6 473.1 4034.5 463.9"/><polyline class="b" points="4013.7 474.2 4013.1 469.1 4015 476.1"/><polyline class="b" points="4035.6 473.1 4034.5 463.9 4037.9 476.6"/><polygon class="b" points="3945.5 416.6 3949.6 431.7 3946.8 427.5 3945.5 416.6"/><polyline class="b" points="3946.8 427.5 3945.5 416.6 3949.6 431.7"/><polyline class="b" points="3959.7 507.9 3959.1 502.7 3961 509.9"/><polygon class="b" points="3957.1 518 3960.6 531 3958.3 527.5 3957.1 518"/><polyline class="b" points="3958.3 527.5 3957.1 518 3960.6 531"/><polygon class="b" points="4165.9 483.5 4169.4 496.1 4167.1 492.7 4165.9 483.5"/><polyline class="b" points="4145.2 493.7 4144.5 488.6 4146.4 495.6"/><polyline class="b" points="4167.1 492.7 4165.9 483.5 4169.4 496.1"/><polyline class="b" points="4154.3 490.3 4153.7 485.2 4155.6 492.2"/><polygon class="b" points="4064.3 546.6 4064.3 543.3 4066.3 541.6 4081.3 541.6 4083.3 543.6 4083.3 546.6 4067.7 546.6 4064.3 546.6"/><polygon class="b" points="2592.7 558.7 2595.7 569.7 2593.7 566.7 2592.7 558.7"/><polyline class="b" points="2574.6 567.6 2574 563.2 2575.7 569.3"/><polyline class="b" points="2593.7 566.7 2593.4 566.4 2595.7 569.7"/><polyline class="b" points="2582.6 564.6 2582 560.2 2583.7 566.3"/><polygon class="b" points="2744.4 630.2 2747.4 641.2 2745.4 638.2 2744.4 630.2"/><polyline class="b" points="2726.3 639.1 2725.7 634.6 2727.4 640.7"/><polyline class="b" points="2745.4 638.2 2744.4 630.2 2747.4 641.2"/><polygon class="b" points="2448 610.5 2451.4 623.1 2449.1 619.7 2448 610.5"/><polyline class="b" points="2427.2 620.7 2426.5 615.6 2428.5 622.6"/><polyline class="b" points="2449.1 619.7 2448 610.5 2451.4 623.1"/><polyline class="b" points="2436.4 617.3 2435.7 612.2 2437.6 619.2"/><polygon class="b" points="2424.6 630.5 2428.1 643.2 2425.8 639.7 2424.6 630.5"/><polyline class="b" points="2425.8 639.7 2424.6 630.5 2428.1 643.2"/><polygon class="b" points="2556.1 650.1 2559.5 662.7 2557.2 659.3 2556.1 650.1"/><polyline class="b" points="2535.3 660.3 2534.6 655.2 2536.6 662.2"/><polyline class="b" points="2557.2 659.3 2556.1 650.1 2559.5 662.7"/><polyline class="b" points="2544.5 656.9 2543.8 651.8 2545.7 658.8"/><polygon class="b" points="2454.4 713.2 2454.4 709.9 2456.4 708.2 2471.4 708.2 2473.4 710.2 2473.4 713.2 2457.8 713.2 2454.4 713.2"/><polygon class="b" points="2455.4 714.2 2456.4 710.2 2456.9 712.2 2457.4 711.2 2458.1 714.2 2455.4 714.2"/><polygon class="b" points="2470.8 718.2 2472.5 712.2 2473.3 715.2 2474.3 713.7 2475.4 718.2 2470.8 718.2"/><rect class="b" x="2459.4" y="711.2" width="1" height="1"/><rect class="b" x="2461.4" y="711.2" width="1" height="1"/><rect class="b" x="2463.4" y="711.2" width="1" height="1"/><rect class="b" x="2465.4" y="711.2" width="1" height="1"/><rect class="b" x="2467.4" y="711.2" width="1" height="1"/><polygon class="b" points="2620 532.5 2616.6 545.1 2618.9 541.7 2620 532.5"/><polyline class="b" points="2640.8 542.7 2641.5 537.6 2639.6 544.6"/><polyline class="b" points="2618.9 541.7 2620 532.5 2616.6 545.1"/><polyline class="b" points="2631.7 539.3 2632.3 534.2 2630.4 541.2"/><polygon class="b" points="2643.4 552.5 2639.9 565.2 2642.2 561.7 2643.4 552.5"/><polyline class="b" points="2664.2 562.8 2664.8 557.7 2662.9 564.7"/><polyline class="b" points="2642.2 561.7 2643.4 552.5 2639.9 565.2"/><polygon class="b" points="2696.9 669.1 2693.5 681.7 2695.8 678.3 2696.9 669.1"/><polyline class="b" points="2717.7 679.3 2718.4 674.2 2716.5 681.2"/><polyline class="b" points="2695.8 678.3 2696.9 669.1 2693.5 681.7"/><polyline class="b" points="2708.5 675.9 2709.2 670.8 2707.3 677.8"/><path class="b" d="M2063.7,938.8s-3,13.6-6,15.2-1.5,24.2-1.5,24.2,3-7.6,4.5-9.1-1.5-13.6,1.5-15.1,1.5-15.2,1.5-15.2"/><polygon class="b" points="2176 915.8 2181 901.8 2178 913.8 2176 915.8"/><polygon class="b" points="2186 902.8 2184 907.8 2185 906.8 2186 902.8"/><polygon class="b" points="2193 898.8 2189.9 907.8 2191 906.8 2193 898.8"/><path class="b" d="M2234,845.8a80.4,80.4,0,0,0,7-4.6c1-1,4,2.6,4,2.6s-1,0-1,2-1,11-6,16a15.4,15.4,0,0,0,1-7.6s-2,1.6-4,3.6C2235,857.8,2240,850.8,2234,845.8Z"/><polygon class="b" points="2113.8 928.8 2109 940.1 2112.2 936.9 2113.8 928.8"/><polygon class="b" points="2124 925.4 2120.8 935.1 2124 931.5 2124 925.4"/><path class="b" d="M2313,816.8a2.9,2.9,0,0,0,3,3s-2,0-5,4A13.8,13.8,0,0,0,2313,816.8Z"/><polygon class="b" points="2415 773.8 2412 784.8 2414 781.8 2415 773.8"/><path class="b" d="M2611,704.8c-2,0-15-3-15-3s-4.5.6-7.1,1.3a4.4,4.4,0,0,0-1.9.7c-1,1-9,17-10,17s-9,4-9,5-6,6-6,9-3,8-3,8l-13,6s-8,9-10,11-9,5-11,8-4,7-10,8-8,1-9,2-9,5-9,5,10.9,3,11.5,2,3.5-4,6.5-4,5-1,7-1a29.2,29.2,0,0,0,9-2c2-1,0,0,5-5s5-4,7-6l6-6c2-2,5-6,6-7a15.4,15.4,0,0,1,6-4c3-1,7-3,9-3s2-5,3-7a6.4,6.4,0,0,0,0-6c-1-2-2-1,1-4s3-5,6-5,2,5,5-1,3-7,4-8,5-4,5-6,7-6,10-5S2611,704.8,2611,704.8Z"/><polyline class="b" points="2587.3 825.2 2588 820 2586 827.2"/><polyline class="b" points="2421.9 847.7 2422.6 842.4 2420.6 849.6"/><polygon class="b" points="2434 861.3 2430.4 874.3 2432.8 870.7 2434 861.3"/><polyline class="b" points="2455.3 871.8 2456 866.6 2454 873.8"/><polyline class="b" points="2432.8 870.7 2434 861.3 2430.4 874.3"/><polygon class="b" points="2455.2 809.3 2451.7 822.3 2454 818.8 2455.2 809.3"/><polyline class="b" points="2454 818.8 2455.2 809.3 2451.7 822.3"/><polyline class="b" points="2467.1 816.3 2467.8 811.1 2465.8 818.3"/><polygon class="b" points="2831.4 747.1 2834.4 758.1 2832.4 755.1 2831.4 747.1"/><polyline class="b" points="2813.3 756 2812.8 751.6 2814.4 757.7"/><polyline class="b" points="2832.4 755.1 2832.1 754.8 2834.4 758.1"/><polyline class="b" points="2821.3 753 2820.8 748.6 2822.4 754.7"/><polyline class="b" points="2965 827.5 2964.4 823 2966.1 829.1"/><polygon class="b" points="2686.7 798.9 2690.1 811.6 2687.8 808.1 2686.7 798.9"/><polyline class="b" points="2665.9 809.1 2665.3 804 2667.2 811.1"/><polyline class="b" points="2687.8 808.1 2686.7 798.9 2690.1 811.6"/><polyline class="b" points="2675.1 805.7 2674.4 800.6 2676.4 807.6"/><polygon class="b" points="2663.3 819 2666.8 831.6 2664.5 828.2 2663.3 819"/><polyline class="b" points="2642.5 829.2 2641.9 824.1 2643.8 831.1"/><polyline class="b" points="2664.5 828.2 2663.3 819 2666.8 831.6"/><polygon class="b" points="2794.8 838.5 2798.2 851.2 2795.9 847.7 2794.8 838.5"/><polyline class="b" points="2774 848.8 2773.4 843.7 2775.3 850.7"/><polyline class="b" points="2795.9 847.7 2794.8 838.5 2798.2 851.2"/><polyline class="b" points="2783.2 845.3 2782.6 840.2 2784.5 847.2"/><polygon class="b" points="2858.8 720.9 2855.3 733.6 2857.6 730.1 2858.8 720.9"/><polyline class="b" points="2879.6 731.1 2880.2 726 2878.3 733.1"/><polyline class="b" points="2857.6 730.1 2858.8 720.9 2855.3 733.6"/><polyline class="b" points="2870.4 727.7 2871 722.6 2869.1 729.6"/><polygon class="b" points="2882.1 741 2878.7 753.6 2881 750.2 2882.1 741"/><polyline class="b" points="2902.9 751.2 2903.5 746.1 2901.6 753.1"/><polyline class="b" points="2881 750.2 2882.1 741 2878.7 753.6"/><polygon class="b" points="2651.7 847.1 2648.2 860.1 2650.6 856.5 2651.7 847.1"/><polyline class="b" points="2650.6 856.5 2651.7 847.1 2648.2 860.1"/><polygon class="b" points="1963.4 816.6 1957.3 838.9 1961.4 832.8 1963.4 816.6"/><polyline class="b" points="2000.1 834.7 2001.2 825.7 1997.8 838"/><polyline class="b" points="1961.4 832.8 1963.4 816.6 1957.3 838.9"/><polyline class="b" points="1983.9 828.6 1985 819.6 1981.6 832"/><polygon class="b" points="2004.6 852 1998.5 874.3 2002.6 868.2 2004.6 852"/><polyline class="b" points="2041.3 870 2042.4 861 2039 873.4"/><polyline class="b" points="2002.6 868.2 2004.6 852 1998.5 874.3"/><polyline class="b" points="1948.9 921.4 1949.6 916.1 1947.6 923.4"/><polygon class="b" points="7235.7 944.2 7239.1 956.8 7236.8 953.3 7235.7 944.2"/><polyline class="b" points="7197.9 906.4 7197.2 901.3 7199.1 908.3"/><polyline class="b" points="7236.8 953.3 7235.7 944.2 7239.1 956.8"/><polyline class="b" points="7224.1 950.9 7223.4 945.8 7225.3 952.9"/><polygon class="b" points="7195.3 916.2 7198.8 928.8 7196.5 925.4 7195.3 916.2"/><polyline class="b" points="7392.5 915.4 7391.9 910.3 7393.8 917.3"/><polyline class="b" points="7196.5 925.4 7195.3 916.2 7198.8 928.8"/><polyline class="b" points="7333.4 996.9 7332.8 991.6 7334.7 998.9"/><path class="b" d="M7298.2,971s10.4,0,11.2,2.6.8,3.3,6.4,5.5,7.2,2.3,8.8,3.6,2.1,1.4,2.3,3.3.5,2.8,1.5,3.6.6,3.1,0,5.3a23.4,23.4,0,0,1-2.2,4.7h-2.5c-2.3,0-2.6-2.6-4.4,0s-.6,4.3-2.8,4.8-5-1.8-6,0a7.8,7.8,0,0,1-3.2,3.3,9.9,9.9,0,0,1-5.1,1c-1.6,0-4-1.3-6.4,0s-3.2,1.3-4.8,2.6-4.8,10.9-4.8,13.3.6,6.2-.5,6.9-1.9,9.8-1.9,11.1-.8,5.6,0,8,0,5.1,0,6.3-3.1-12.6-3.1-12.6,2.3-39.5,14.3-39.5,13.6,0,14.4-1.3.8-1.3,3.2-1.3,2.4,1.3,3.2,0,.8-2.6,2.4-3.9a5.6,5.6,0,0,1,3.2-1.3h2.4c1.6,0,1.6,1.3,2.4,0l.8-1.3c.8-1.3,1.1-.6,1.4-2.3s1-2.9.2-2.9-1.3-.9-1.9-1.7-1.3.4-1.3-2.2-.8-1.3-.8-2.6-.8-1.3-2.4-1.3-1.6,1.3-4,0l-4.8-2.6c-2.4-1.3-2.4,1.3-3.2,0s-1.7-1.3-2.8-2.6-1.2-2.6-2-2.6-2.1-1.3-2.9-1.3Z"/><polyline class="b" points="7345 958.9 7344.8 957.5 7345.3 959.5"/><polyline class="b" points="7358.4 987.4 7357.6 983 7360.1 989"/><polyline class="b" points="7353.9 995 7353.2 989.9 7355.2 996.9"/><path class="b" d="M7021.1,982.5l-3.4,6.8,10.2,1.7s-2.3-6.8-1.1-8.5,6.2-3.4,6.2-3.4l-5.1-6.8Z"/><polygon class="b" points="7028.3 1013.5 7022.2 1035.7 7026.2 1029.7 7028.3 1013.5"/><polyline class="b" points="7064.9 1031.5 7066.1 1022.5 7062.7 1034.9"/><polyline class="b" points="7026.2 1029.7 7028.3 1013.5 7022.2 1035.7"/><polyline class="b" points="7048.7 1025.4 7049.9 1016.4 7046.5 1028.8"/><polygon class="b" points="7069.4 1048.8 7063.4 1071.1 7067.4 1065 7069.4 1048.8"/><polyline class="b" points="7067.4 1065 7069.4 1048.8 7063.4 1071.1"/><polygon class="b" points="7213.6 873.3 7217 886 7214.7 882.5 7213.6 873.3"/><polyline class="b" points="7334.8 937.5 7334.1 932.4 7336 939.5"/><polyline class="b" points="7214.7 882.5 7213.6 873.3 7217 886"/><polyline class="b" points="7201.9 880.1 7201.3 875 7203.2 882"/><polygon class="b" points="7361.2 957.4 7364.7 970 7362.4 966.6 7361.2 957.4"/><polyline class="b" points="7169.4 903.6 7168.8 898.5 7170.7 905.5"/><polyline class="b" points="7197.4 983.6 7196.2 974.4 7199.7 987"/><polygon class="b" points="7101.2 846 7105.3 861.1 7102.6 857 7101.2 846"/><polyline class="b" points="7102.6 857 7101.2 846 7105.3 861.1"/><polyline class="b" points="7115.4 937.4 7114.8 932.1 7116.7 939.3"/><polygon class="b" points="7112.8 947.5 7116.3 960.5 7114 956.9 7112.8 947.5"/><polyline class="b" points="7114 956.9 7112.8 947.5 7116.3 960.5"/><path class="b" d="M6291.7,516.9a7.9,7.9,0,1,0-15.7,0c0,4.3,4.9,10.7,7.8,10.7S6291.7,521.2,6291.7,516.9Z"/><path class="b" d="M6282.9,528.6h2a0,0,0,0,1,0,0v1.4a.6.6,0,0,1-.6.6h-.8a.6.6,0,0,1-.6-.6v-1.4A0,0,0,0,1,6282.9,528.6Z"/><polyline class="b" points="6281.7 524.1 6283 529 6284.7 529 6285.7 524.1"/><path class="b" d="M6850.1,703l2.9-4,4,2s-2,3.6,0,3.8a17.9,17.9,0,0,0,3.6,0l1.3,1.8-1.8,3.9s-3.1.5-4.1,0a11.8,11.8,0,0,1-2.3-2c-.7-.5-3.5.5-3.6,0s-1.4.5-1.8-1-1.4-2.8-.9-2.6S6850.1,703,6850.1,703Z"/><path class="b" d="M6770,824.3c1.3,0,25.1-1.3,48.5-1.3s51.5,2.8,51.5,2.8-12.1,1.2-25.2,1.2l-1.3-1.4-1.3,2.7-1.4-1.3-.5,1.3-2.1-2.7V827l-1.3-1.4-3.9,2.7-1.3-1.3-4,3.9-1.3-1.3-1.3,1.3-1.3-3.9-1.3,3.9-2.6-2.6-2.7,2.6-1.3-3.9-1.3,2.6-1.3-1.3-2.6,2.6-2.7-1.3-1.3-2.6h-2.6l-1.3-2.7-1.3,4-1.3-2.7-1.3,2.7-2.7-4-1.1,2.2-.2-.9-2.9,5.3-1-6.6-1.3,2.7-1.3-1.4-1.3,2.7-5.3-4-1.3,1.3-1.3-1.3-2.6,1.3-2.7-1.3-1.3,1.3-1.3,1.4Z"/><path class="b" d="M6893.3,825.6s15.8,0,19.7,1.4h-5.6l-1-.7-1.3.7-.7-.7-1.9,2-1.3-1.3-1.3,1.3-2.6-1.3-1.4,1.3Z"/><polyline class="b" points="6887.3 833.5 6886.2 827.8 6889.5 835.7"/><polyline class="b" points="6881.4 843.5 6880.5 836.8 6883 846"/><polyline class="b" points="6841.4 838.8 6840.3 833 6843.6 840.9"/><polyline class="b" points="6864.3 821.2 6863.5 814.5 6866 823.7"/><polyline class="b" points="6805.9 836.4 6805 829.7 6807.6 838.9"/></svg>