<svg xmlns="http://www.w3.org/2000/svg" width="5120" height="1320" viewBox="0 0 5120 1320"><defs><style>.a{fill:#fff;}.b,.d{opacity:0.32;}.c,.d{fill:#90caf9;}</style></defs><path class="a" d="M3826,925H3714.3L3666,941v26.7H3497L3456,978v288h-16.3V1110.3H3290V1273h-46V1153H2948v92H2609v-13.3H2500V1143H2145v130h-80V1158l-37-22h-82v122.3h-32V1157l-104-23h-80v63H1594v13.3h-74V1273H1401V1069h-69v-24h-76v20h-22V944.3h-60V923l-32-19h-48v40.3H972V1085H796v-44.7L758,1030H721v188.3H624V1177H541v71H456v-85.7L414,1140H334v126.3H306V1160l-104-26H118v65.7H0V1320H5120v-73.7h-76s6-37.3,0-37.3H4932s4,33,0,33h-59V1128.5H4754.3L4678,1141v-92h-43.7l-21.3,12.5V1101l-57,15v-31h-46v159h-28v-27h-82v31h-64v-60H4206l-22,4v57h-99v-89h-36v92h-45v-51H3824Z"/><g class="b"><path class="c" d="M3084,1180h63s19-1.2,17,14.8-8,45-8,45-4,10.8-16,11.4-56,0-56,0"/><path class="c" d="M3097,1180l-65-.5s-19-1.2-17,14.8,8,45,8,45,4,10.8,16,11.4,100,.3,100,.3"/></g><rect class="d" x="3313" y="1132" width="108" height="17"/><rect class="d" x="3313" y="1206" width="108" height="17"/><circle class="d" cx="3772" cy="982" r="19"/><g class="b"><rect class="c" x="3523" y="1029" width="122" height="74"/><rect class="c" x="3555" y="1011" width="59" height="19"/><rect class="c" x="3562" y="1001" width="45" height="12"/></g><rect class="d" x="2124.5" y="1200.5" width="108" height="17" transform="translate(969.5 3387.5) rotate(-90)"/><path class="d" d="M2351.5,1167.7v21.7a1.8,1.8,0,0,0,1.8,1.8h8.9a2,2,0,0,1,1.1.3l13.8,8.9a2.1,2.1,0,0,0,1.2.4h75.1l15.2-7.6a1.7,1.7,0,0,1,1-.3h8.1a1.8,1.8,0,0,0,1.8-1.8v-23.4a2.2,2.2,0,0,0-2.2-2.2H2353.7A2.2,2.2,0,0,0,2351.5,1167.7Z"/><rect class="d" x="1917.5" y="1198.5" width="108" height="17" transform="translate(764.5 3178.5) rotate(-90)"/><polyline class="d" points="1557.3 1228.5 1679.5 1228.5 1679.5 1260.5 1546.5 1260.5 1546.5 1237.9"/><path class="d" d="M1033.3,984.2V978s-24.3,6.9-24.3,29.9c0,14.4,2.5,13.8,2.5,13.8h7.7v11.6s4.1,6.5,20.4,6.5,19.3-5.7,19.3-5.7v-11.2h8.1s5-7.5,5-16.2-11.6-28.7-22.7-28.7v6.2Z"/><rect class="d" x="4794.5" y="1142" width="60.5" height="9.53"/><rect class="d" x="4794.5" y="1183.5" width="60.5" height="9.53"/><circle class="d" cx="863.1" cy="1129.6" r="16.1"/><circle class="d" cx="803.3" cy="1129.6" r="16.1"/><line class="d" x1="597" y1="1197.4" x2="561.5" y2="1197.4"/><g class="b"><path class="c" d="M186.5,1207.1v44.7s.8,13.5-10.6,12.1-31.9-5.7-31.9-5.7-7.7-2.8-8.1-11.3,0-39.8,0-39.8"/><path class="c" d="M186.5,1207.1v-44.7s.8-13.5-10.6-12.1S144,1156,144,1156s-7.7,2.8-8.1,11.3,0,39.8,0,39.8"/></g><circle class="d" cx="174.4" cy="1174.1" r="4.3"/><circle class="d" cx="174.4" cy="1190.4" r="4.3"/><circle class="d" cx="174.4" cy="1206.8" r="4.3"/><circle class="d" cx="174.4" cy="1223.1" r="4.3"/><circle class="d" cx="174.4" cy="1239.4" r="4.3"/><circle class="d" cx="160.2" cy="1181.2" r="4.3"/><circle class="d" cx="160.2" cy="1197.5" r="4.3"/><circle class="d" cx="160.2" cy="1213.9" r="4.3"/><circle class="d" cx="160.2" cy="1230.2" r="4.3"/><circle class="d" cx="160.2" cy="1246.5" r="4.3"/><circle class="d" cx="148.1" cy="1174.1" r="4.3"/><circle class="d" cx="148.1" cy="1190.4" r="4.3"/><circle class="d" cx="148.1" cy="1206.8" r="4.3"/><circle class="d" cx="148.1" cy="1223.1" r="4.3"/><circle class="d" cx="148.1" cy="1239.4" r="4.3"/><path class="d" d="M1120.5,985.4v-6.3s-24.3,6.9-24.3,30c0,14.3,2.5,13.7,2.5,13.7h7.7v11.6s4.1,6.5,20.3,6.5,19.4-5.6,19.4-5.6V1024h8.1s5-7.5,5-16.2-11.7-28.7-22.7-28.7v6.3Z"/></svg>