<svg xmlns="http://www.w3.org/2000/svg" width="15361" height="1440" viewBox="0 0 15361 1440"><defs><style>.a{fill:#fff;opacity:0.08;}</style></defs><path class="a" d="M8394.9,755h-367s-8,0-5-2,11-3,11-4,5-1,9-2,11-1,17-3,20-3,25-2l11,2c6,1,9-5,14,0,0,0,7-13,14-13s16,2,21,3,15-1,20-1,14-1,18,1,7,3,11,3,25-5,29-5,3.1-1,10.6-1,8.4,1,11.4,2,5,3,9,4,4,3,10,4,26-1,29-2,5-2,10-2,8-2,13-1a31,31,0,0,1,7,2c3,1,8,4,9,4s4,7,14,7,16-1,24-1,13,0,17,1,2,1.3,8,1.7,13,1.3,11,2.3S8401.9,755,8394.9,755Z"/><path class="a" d="M9458.9,652.6s-27,11-45,8c0,0-96,4-124,2,0,0-40-2-56-2s-48-2-53-5c0,0-12.7-3-17.9-3s-36.1,0-15.1-3,21-1,28-2,22-2,27-3,11-5,20-6,11,1,18-1,22-6,28-6,8,2,13,0c11.1-4.4,26-11,35-10s13,2,13,5-3.1,4-6,4-1.7-1-2.8-1.2a2.4,2.4,0,0,0-2.1,3.9c.6.7.9,1.3,1.9,1.3a18.5,18.5,0,0,0,7-2c2-1,10-2,12-2s10-1,18,2,8,6,16,7,12-1,23,0,17,1,21,3,6,7,16,7S9461.9,649.6,9458.9,652.6Z"/><path class="a" d="M10416.9,832.6s9,1,9,6-2,7.3-4.5,7.2-5.5-1.2-8.5-1.2-8,1.4-12.5,1.2-10.1.2-14.8,0-13.3.3-14.5,0-18.2-.2,6.8-4.2c0,0,1-5,12-4,0,0,4-3,11,0C10400.9,837.6,10401.9,830.6,10416.9,832.6Z"/><path class="a" d="M6122.9,825.8s-29.7,2.4-29.7,14.9,6.6,18.2,14.9,17.8,18.1-2.9,28-2.9,26.5,3.3,41.3,2.9,33.6.5,49,0,44.1.8,47.9.2,60-.6-22.5-10.6c0,0-3.3-12.4-39.7-9.9,0,0-13.2-7.5-36.3,0C6175.8,838.2,6172.5,820.8,6122.9,825.8Z"/><path class="a" d="M6054.9,240.5s38.4,22.8,63.9,16.6c0,0,136.5,8.3,176.3,4.2,0,0,56.9-4.2,79.6-4.2s68.2-4.2,75.4-10.4c0,0,18.1-6.2,25.4-6.2s51.3,0,21.5-6.2-29.9-2.1-39.8-4.2-31.3-4.2-38.4-6.2-15.7-10.4-28.5-12.5-15.6,2.1-25.5-2.1-31.3-12.4-39.8-12.4-11.4,4.1-18.5,0c-15.8-9.2-37-22.9-49.8-20.8s-16.7-2.3-16.7,3.9-3.2,3.4-5,7c-1,2-3.7,1.1-5,2-4,3-1.1,1.6-3,5-.8,1.6-5.6,5-7,5s-3.1,0-5.9-2-14.2-4.2-17.1-4.2-6.2-3.1-17.6,3.2-11.3,12.4-22.7,14.5,1.9.9-13.7,3-24.2,2.1-29.8,6.2-8.6,14.6-22.8,14.6S6050.6,234.3,6054.9,240.5Z"/><path class="a" d="M9141,309s71,1,84-2-14-6-20-6-14-4-23-4-9-18-53-18c0,0-9.8-6.2-20-2,0,0-14-12-33-12s-44.8,6.9-58,14c-24,13-37,9-37,9s-10,2-14,8c0,0-7,0-12,2,0,0-16,0-24,5s-33,4-33,4-9,1,2,3c12,0,82.7,2,94.3,0s50.7-3,58.7-1S9129,309,9141,309Z"/><path class="a" d="M10191,373.4s40.7,2.3,40.7,13.9-9,17.1-20.3,16.7-24.9-2.7-38.5-2.7-36.2,3.1-56.5,2.7-46,.5-67.1,0-60.4.7-65.6.2-82.2-.6,30.9-9.9c0,0,4.5-11.6,54.3-9.3,0,0,18.1-7,49.7,0C10118.6,385,10123.1,368.8,10191,373.4Z"/><path class="a" d="M3887.5,914.9s1.3,7.1,26.1,8.6,67.8,1.6,67.8,1.6-4.3,4.7,20,5.5,112.1,1.5,136-3.9c0,0,77,1.5,113,0s222.6,2.3,230.4-4c0,0,44.3.8,56-3.1s-18.2-7.8-23.4-7.8-28.7-6.3-43.1-5.5-42.1-2.5-49.1-.1c0,0-14.7-2.7-26.5-.9,0,0-2.6-4.5-10.4-3.8,0,0-11.7-10-35.2-7,0,0-22.2-14-84.8-5.5,0,0-10.4-9.5-79.5-9.5,0,0-87.3,7-88.7,18.9,0,0-74.3-7.9-73,5.5,0,0-87.3.8-83.4,6.3C3939.7,910.2,3890.1,907.8,3887.5,914.9Z"/><path class="a" d="M4672.4,662.7s47.9,10.2,68.9,9.2,58.9-6.3,72.6-2.2,52.4-6.8,66.2-36c0,0,16.8-62.3-58.1-51.7,0,0,38-3.8,19.5,43.2,0,0-4-14.2-31.6-16.7,0,0-6.8-18.1-40.4-16.7,0,0-63.8-3.7-63.8,26.4,0,0-53.9-5.2-54.2,13.6,0,0-49.3,3.3-37.2,19.9C4622.2,662.5,4672.4,662.7,4672.4,662.7Z"/><path class="a" d="M1272.5,740.5s71,1,84-2-14-6-20-6-14-4-23-4-9-18-53-18c0,0-9.7-6.3-20-2,0,0-14-12-33-12s-44.8,6.8-58,14c-24,13-37,9-37,9s-10,2-14,8c0,0-7,0-12,2,0,0-16,0-24,5s-33,4-33,4-9,1,2,3c12,0,82.7,2,94.4,0s50.6-3,58.6-1S1260.5,740.5,1272.5,740.5Z"/><path class="a" d="M3943.5,655.5s-9,1-9,6,2,7.3,4.5,7.1,5.5-1.1,8.5-1.1,8,1.3,12.5,1.2,10.2.2,14.9,0,13.3.3,14.5,0,18.1-.2-6.9-4.2c0,0-1-5-12-4,0,0-4-3-11,0C3959.5,660.5,3958.5,653.5,3943.5,655.5Z"/><path class="a" d="M3525.5,338.9h-367s-8,0-5-2,11-3,11-4,5-1,9-2,11-1,17-3,20-3,25-2l11,2c6,1,9-5,14,0,0,0,7-13,14-13s16,2,21,3,15-1,20-1,14-1,18,1,7,3,11,3,25-5,29-5,3.1-1,10.5-1,8.5,1,11.5,2,5,3,9,4,4,3,10,4,26-1,29-2,5-2,10-2,8-2,13-1a31,31,0,0,1,7,2c3,1,8,4,9,4s4,7,14,7,16-1,24-1,13,0,17,1,2,1.3,8,1.6,13,1.4,11,2.4S3532.5,338.9,3525.5,338.9Z"/><path class="a" d="M3318.1,490.3s-2,7.1-38.7,8.6-100.4,1.6-100.4,1.6,6.5,4.7-29.6,5.5-166,1.5-201.4-3.9c0,0-114,1.5-167.4,0s-329.5,2.3-341.1-4c0,0-65.7.8-83-3.1s27-7.8,34.7-7.8,42.5-6.3,63.7-5.5,62.5-2.5,72.8-.1c0,0,21.9-2.7,39.2-.9,0,0,3.9-4.5,15.5-3.8,0,0,17.4-10,52.1-7,0,0,32.8-14,125.5-5.5,0,0,15.5-9.5,117.8-9.5,0,0,129.4,7,131.3,18.9,0,0,110.1-7.9,108.1,5.5,0,0,129.4.8,123.6,6.3C3240.8,485.6,3314.2,483.2,3318.1,490.3Z"/><path class="a" d="M5565.5,296.9s9,1,9,6-2,7.3-4.5,7.1-5.5-1.1-8.5-1.1-8,1.3-12.5,1.1-10.2.3-14.9.1-13.3.3-14.5,0-18.1-.2,6.9-4.2c0,0,1-5,12-4,0,0,4-3,11,0C5549.5,301.9,5550.5,294.9,5565.5,296.9Z"/><path class="a" d="M12750.5,837.5h367s8,0,5-2-11-3-11-4-5-1-9-2-11-1-17-3-20-3-25-2l-11,2c-6,1-9-5-14,0,0,0-7-13-14-13s-16,2-21,3-15-1-20-1-14-1-18,1-7,3-11,3-25-5-29-5-3.1-1-10.5-1-8.5,1-11.5,2-5,3-9,4-4,3-10,4-26-1-29-2-5-2-10-2-8-2-13-1a31,31,0,0,0-7,2c-3,1-8,4-9,4s-4,7-14,7-16-1-24-1-13,0-17,1-2,1.3-8,1.6-13,1.4-11,2.4S12743.5,837.5,12750.5,837.5Z"/><path class="a" d="M11462.6,723s140.7,1.8,166.5-3.6-27.7-10.7-39.6-10.7-27.8-7.1-45.6-7.1-17.9-32.2-105.1-32.2c0,0-19.4-11.1-39.7-3.5,0,0-27.7-21.5-65.4-21.5s-88.8,12.3-114.9,25c-47.6,23.2-73.4,16.1-73.4,16.1s-19.8,3.6-27.7,14.3c0,0-13.9,0-23.8,3.6,0,0-31.8,0-47.6,8.9s-65.4,7.1-65.4,7.1-17.9,1.8,3.9,5.4c23.8,0,163.9,3.5,187,0s100.5-5.4,116.3-1.8S11438.8,723,11462.6,723Z"/><path class="a" d="M7278.5,655.5s-9,1-9,6,2,7.3,4.5,7.1,5.5-1.1,8.5-1.1,8,1.3,12.5,1.2,10.2.2,14.9,0,13.3.3,14.5,0,18.1-.2-6.9-4.2c0,0-1-5-12-4,0,0-4-3-11,0C7294.5,660.5,7293.5,653.5,7278.5,655.5Z"/><path class="a" d="M15004.5,788.6s29.8,2.5,29.8,14.9-6.6,18.3-14.9,17.8-18.2-2.9-28.1-2.9-26.4,3.4-41.3,3-33.6.5-49,0-44,.8-47.9.1-60-.6,22.6-10.5c0,0,3.3-12.4,39.6-9.9,0,0,13.3-7.5,36.4,0C14951.7,801.1,14955,783.7,15004.5,788.6Z"/><path class="a" d="M12972.1,516.3s-2,7.1-38.7,8.6-100.4,1.6-100.4,1.6,6.5,4.7-29.6,5.5-166,1.5-201.4-3.9c0,0-114,1.5-167.4,0s-329.5,2.3-341.1-4c0,0-65.7.8-83-3.1s27-7.8,34.7-7.8,42.5-6.3,63.7-5.5,62.5-2.5,72.8-.1c0,0,21.9-2.7,39.2-.9,0,0,3.9-4.5,15.5-3.8,0,0,17.4-10,52.1-7,0,0,32.8-14,125.5-5.5,0,0,15.5-9.5,117.8-9.5,0,0,129.4,7,131.3,18.9,0,0,110.1-7.9,108.1,5.5,0,0,129.4.8,123.6,6.3C12894.8,511.6,12968.2,509.2,12972.1,516.3Z"/><path class="a" d="M14362.6,379.4s-38.4,22.8-64,16.6c0,0-136.4,8.3-176.2,4.1,0,0-56.9-4.1-79.6-4.1s-68.3-4.2-75.4-10.4c0,0-18.1-6.2-25.4-6.2s-51.3,0-21.5-6.3,29.9-2,39.8-4.1,31.3-4.2,38.4-6.3,15.6-10.3,28.4-12.4,15.7,2.1,25.6-2.1,31.3-12.5,39.8-12.5,11.4,4.2,18.5,0c15.7-9.2,36.9-22.8,49.7-20.7s18.5,4.1,18.5,10.4-4.5,8.3-8.5,8.3-2.5-2.2-4-2.5-4.9,4.6-3,8.1c.8,1.5,1.3,2.7,2.7,2.7,2.9,0,7.1-2.1,10-4.2s14.2-4.1,17-4.1,14.2-2.1,25.6,4.1,11.4,12.5,22.8,14.6,17-2.1,32.7,0,24.1,2,29.8,6.2,8.5,14.5,22.8,14.5S14366.9,373.1,14362.6,379.4Z"/><path class="a" d="M11986.5,271.9s-71,1-84-2,14-6,20-6,14-4,23-4,9-18,53-18c0,0,9.7-6.3,20-2,0,0,14-12,33-12s44.8,6.8,58,14c24,13,37,9,37,9s10,2,14,8c0,0,7,0,12,2,0,0,16,0,24,5s33,4,33,4,9,1-2,3c-12,0-82.7,2-94.4,0s-50.6-3-58.6-1S11998.5,271.9,11986.5,271.9Z"/><path class="a" d="M15219.5,322.9s9,1,9,6-2,7.3-4.5,7.1-5.5-1.1-8.5-1.1-8,1.3-12.5,1.1-10.2.3-14.9.1-13.3.3-14.5,0-18.1-.2,6.9-4.2c0,0,1-5,12-4,0,0,4-3,11,0C15203.5,327.9,15204.5,320.9,15219.5,322.9Z"/></svg>