<svg xmlns="http://www.w3.org/2000/svg" width="5120" height="1320" viewBox="0 0 5120 1320"><defs><style>.cls-1{fill:#1565c0;}.cls-2{fill:#1976d2;}</style></defs><g id="Layer_24" data-name="Layer 24"><path class="cls-1" d="M1899,828h24v-3.5h4.88889V828h7.33333V817.66667h7.55556l9.72222,7.55555V799h5.61111V783.88889h2V798.5H1963V845h-2.44444v9.5H1963v10.27778h-2.22222V877.5H1980v12.61111h2.11111v2.66667H1980V1109h-2.77778v27.5s20.35967-4.838,29.72551,2.40548C2020,1149,2039.5,1141.5,2041,1136.5v-85.27778S2041.05556,1038,2050.77778,1038h36.8889A19.2981,19.2981,0,0,0,2101,1019.64685V974.5l57,29.5V974.5L2375,1078h7.52745v-4.77778S2382.5,1069.5,2385.5,1069.5a2.93816,2.93816,0,0,1,3,3v5.96552h7.82713v-5.91A3.18241,3.18241,0,0,1,2399.5,1069.5a2.93816,2.93816,0,0,1,3,3v6.44828h13V948.77778S2415,892,2463,887c0,0-4,49,49.82951,60.93369V1001.5h11.05938v4.61111H2530.5v-2.44444h3V1002h2.38889v-1.5H2539.5v-59l5-5h18v-3h26V910.58333S2589.5,904,2599,904s11.5,5.5,11.5,5.5v23h24v4h14l5,5v114.83333h21V1071.5h-14l-6,6v104h9.16667v-4H2670.5v4h5.83333v-4.16665H2681v-23.568h5.33333v-25.59864H2687.5v25.59864h2.83333v-19.432H2692.5v19.432h2.5V1181.5h12.16667l10.16665-10.16666V1070.5L2763,1045v36.83333h7.5V1097h17.66667v-4.16667H2807V1009h4.5v2.5h17V920h6.33333v-4.5l11.83334,4.5v-4.66667L2857.33333,920v-4.66667L2867.66667,920v-4.83333L2877.5,920h11v89H2915v28.5h-2.5v60h19.16667l4.83333-10,5,10H2967v-76.33333s.5-10.66667,9-10.66667h73.16667a6.249,6.249,0,0,0,5.75958-6.66667V949.44444c0-7.1358,8.07375-26.92278,8.07375-34.44444,0,0-5.07375,0-5.07375-.88889V842.75958a4.42625,4.42625,0,0,0-4.42625-4.42625h0V831.5l40.75779-62.70429C3108,745,3131.71946,750.65864,3143.7625,768.11231L3187.5,831.5v5.61111h0a5,5,0,0,0-5,5V913l-5.5,2,0,0a248.104,248.104,0,0,1,11.5,74.66016V1085h10.16667v-14.66667H3206.5V1085h8.66667v-15.5H3229.5a10.29856,10.29856,0,0,0-5,8.831V1085H3239V991.5h33.66667V984h-2.83334V963.5l8.66667-10,10,10V984h-2.66667v7.5H3303.5V979.16667h9l8.18726,9.61678A9.69422,9.69422,0,0,1,3323,995.06768V1093.5s22,0,22,39.5l4.63679,18.85253C3352.0032,1161.474,3360.63166,1208,3370.5399,1208h4.33324c8.37543,0,15.6511-45.52282,17.57237-53.67491L3397,1135v-41.5l17.63531-15.39353V1073.5h5.492l14.96584-13.25084v-4.91583h5.4215L3455.5,1042.5l.5-214.83333h8.5v-8h10v-8.11111h9V802h11s8-.5,8-18.5a67.73056,67.73056,0,0,0-8-31.5H3523a88.09089,88.09089,0,0,0-6.5,32.5c0,18,6.5,19.5,6.5,19.5h10.55556v9.5H3544.5v7.16667h11v7.22222h10V1037.5l13,13h7v4.33333l19,17.66667h7v7l11.5,11.16667v-60.33334S3623.5,1019,3637,1019h46V744.91965l27.388-31.65167V702.11111h9.33534L3775.5,634.5l-11.11009,43.39458V1153.0198h15.27676V1142.5H3806.5v10.5198h16.83333V1132.5H3832.5v20.5198H3859V1142.5h23.5V831.33333s25-18.16666,25-44h24s1.08333,23.41667,19,41.33334V840.5h15v12h81V857h87v-3.83333h12V998.33333h-6V1130.5h5.5v8l80-33.5,25.33333-33.66665h25.77778l8.61111-8.61111H4292.5V1054.5h7l13-13L4331,1023V990.5l17.08333-17.08333V950.5l15.31945-15.31944h17.15278V856.33333H4385.5V923h20V899.5h14v24h49s-29-8-29-37l78,24s-7,13-28,13h84L4587,910h11.33333v113.5l15.33334,21.16667h22L4650.5,1031V864.5l91,42V862l62.4703,30.66667V843s8.78439-40.8794,44.157-40.8794S4899.5,842.5,4899.5,842.5V981h24.38889V968.33333H4941.5v-12h12V940.5h18V923.66667h9V909.88889h4.5V891.5l93.5-134-4,25.72222v94.44445h15V817h17V787.5h9v28.64754h4.5V1324H0V945H34.33333v50.5l19.07341-22.94668V885.5h12.0377v-35H69.5v30h10v-8h5v13h47.16667v-14H140.5l10,10v4h1.88616v95.16667L167.5,969.5h8v-13h6v13h9l15.83333,11.16667h6.88889V975.5H218.5v-4h3l11-78-10.86656-49.112V799.5H318.5v89.11617L373.5,863.5v26.61111L429.5,865.5v23l63-24v168l6,8,8,6h12V1111h-3v80.5s67,1,67,0v-80h-3.25v-289H749.5v.05556A30.94444,30.94444,0,0,1,718.55556,853.5H700.38889A37.88889,37.88889,0,0,0,662.5,891.38889V891.5h29V895h45v-3.5h14v45h22.72222v53.38889S774.05556,1019,798.77778,1019,827.5,1047.5,827.5,1047.5v19.01724h15V1057.5h2v-12h11v12h3v9.01724h4.59689v104.594h51.23644v-39.459h12V1044.5H909.5v-84h5.83333v-8H923.5v8h5v-43h11v4h10l4.52778-4.52778H972V857h10.33333L999.5,837.5h14l12.61111,19.5h22.22222V833.5h34.22223l25.94444,12h18v11l18.05556,10.83333h35.11111V857.5l6.22222-8.5L1208,841l18,4,10.5,7.5H1215v28l21,.5-20.5,26.5v68h53.72222S1280,976.16667,1280,986.33333V1019h40.5l10-137.5-9.5-50h25l8.22222-83.5h8.55556L1371.5,832.5h28l-16,48,3.27778,17.5h55.55555L1453,871l22.5-.5s-36-8-34-48L1530,852s-18.83333,18.5-39.66667,19H1498v18.88889h5.5V893.5h23s-.75,3.75,0,4.5,49.61111,0,49.61111,0v-6.5H1594.5S1577,887,1573,868l55,15s-11.5,9.5-20.5,9.5h12v7h6V916H1639s-.77778,164.66667,0,165.44444,11.5,0,11.5,0V1089.5H1639v78.73746h10.88889V1135.5h22.86821a9.2429,9.2429,0,0,1,9.2429,9.2429v12.79541a9.18611,9.18611,0,0,0,10.15452,9.19784A1.72409,1.72409,0,0,0,1693,1166.5c.75-.75,0-99.98276,0-99.98276l22.25862-22.25862V1032.5H1727.5l25-25v-13h12l21-19h23v-22h7v-6h4v-19s-1-15,10-15h21v-29h5v21h2v6h9v-24h2v24h13v-44h3v43h7v75h8Z"/></g><g id="Town_Accents" data-name="Town Accents"><rect class="cls-2" x="2201" y="1046" width="15" height="16"/><rect class="cls-2" x="2232" y="1046" width="15" height="16"/><rect class="cls-2" x="2444" y="952" width="15" height="16"/><rect class="cls-2" x="2585" y="1216" width="15" height="16"/><rect class="cls-2" x="2294" y="1075" width="15" height="16"/><rect class="cls-2" x="2110" y="1093" width="15" height="16"/><rect class="cls-2" x="2141" y="1093" width="15" height="16"/><rect class="cls-2" x="2872" y="1071" width="4" height="34"/><rect class="cls-2" x="2899" y="1125" width="4" height="37"/><rect class="cls-2" x="2848" y="944" width="5" height="54"/><rect class="cls-2" x="3082" y="837" width="3" height="483"/><rect class="cls-2" x="3122" y="837" width="3" height="483"/><rect class="cls-2" x="3159" y="837" width="3" height="483"/><rect class="cls-2" x="3506" y="795" width="5" height="373"/><rect class="cls-2" x="3701" y="763" width="15" height="16"/><rect class="cls-2" x="3730" y="763" width="15" height="16"/><rect class="cls-2" x="3730" y="807" width="15" height="16"/><rect class="cls-2" x="3701" y="853" width="15" height="16"/><rect class="cls-2" x="3696" y="898" width="15" height="16"/><rect class="cls-2" x="3696" y="943" width="15" height="16"/><rect class="cls-2" x="3696" y="988" width="15" height="16"/><rect class="cls-2" x="3696" y="1168" width="15" height="16"/><rect class="cls-2" x="3792" y="1168" width="15" height="16"/><rect class="cls-2" x="4015.5" y="787.5" width="4" height="203" transform="translate(3128.5 4906.5) rotate(-90)"/><rect class="cls-2" x="4015.5" y="843.5" width="4" height="203" transform="translate(3072.5 4962.5) rotate(-90)"/><rect class="cls-2" x="4015.5" y="864.5" width="4" height="203" transform="translate(3051.5 4983.5) rotate(-90)"/><rect class="cls-2" x="4015.5" y="924.5" width="4" height="203" transform="translate(2991.5 5043.5) rotate(-90)"/><rect class="cls-2" x="4015.5" y="945.5" width="4" height="203" transform="translate(2970.5 5064.5) rotate(-90)"/><rect class="cls-2" x="4015.5" y="966.5" width="4" height="203" transform="translate(2949.5 5085.5) rotate(-90)"/><rect class="cls-2" x="1838" y="1060" width="5" height="39"/><rect class="cls-2" x="1879" y="970" width="4" height="34"/><rect class="cls-2" x="1921" y="1028" width="4" height="37"/><rect class="cls-2" x="1943" y="943" width="5" height="54"/><rect class="cls-2" x="1447.5" y="843.5" width="4" height="203" transform="translate(504.5 2394.5) rotate(-90)"/><rect class="cls-2" x="1447.5" y="897.5" width="4" height="203" transform="translate(450.5 2448.5) rotate(-90)"/><rect class="cls-2" x="1447.5" y="968.5" width="4" height="203" transform="translate(379.5 2519.5) rotate(-90)"/><rect class="cls-2" x="1447.5" y="989.5" width="4" height="203" transform="translate(358.5 2540.5) rotate(-90)"/><rect class="cls-2" x="1447.5" y="1010.5" width="4" height="203" transform="translate(337.5 2561.5) rotate(-90)"/><rect class="cls-2" x="1447.5" y="1031.5" width="4" height="203" transform="translate(316.5 2582.5) rotate(-90)"/><rect class="cls-2" x="1100.5" y="801.5" width="4" height="203" transform="translate(199.5 2005.5) rotate(-90)"/><rect class="cls-2" x="1100.5" y="853.5" width="4" height="203" transform="translate(147.5 2057.5) rotate(-90)"/><rect class="cls-2" x="1100.5" y="874.5" width="4" height="203" transform="translate(126.5 2078.5) rotate(-90)"/><rect class="cls-2" x="1100.5" y="895.5" width="4" height="203" transform="translate(105.5 2099.5) rotate(-90)"/><rect class="cls-2" x="1100.5" y="916.5" width="4" height="203" transform="translate(84.5 2120.5) rotate(-90)"/><rect class="cls-2" x="1100.5" y="978.5" width="4" height="203" transform="translate(22.5 2182.5) rotate(-90)"/><rect class="cls-2" x="70" y="1032" width="15" height="16"/><rect class="cls-2" x="101" y="1032" width="15" height="16"/><rect class="cls-2" x="170" y="1119" width="15" height="16"/><rect class="cls-2" x="201" y="1119" width="15" height="16"/><rect class="cls-2" x="380" y="1006" width="15" height="16"/><rect class="cls-2" x="411" y="1006" width="15" height="16"/><rect class="cls-2" x="244" y="914" width="15" height="16"/><rect class="cls-2" x="275" y="914" width="15" height="16"/><rect class="cls-2" x="46" y="1163" width="15" height="16"/><rect class="cls-2" x="77" y="1163" width="15" height="16"/><rect class="cls-2" x="4393" y="971" width="15" height="16"/><rect class="cls-2" x="4489" y="971" width="15" height="16"/><rect class="cls-2" x="4393" y="1016" width="15" height="16"/><rect class="cls-2" x="4489" y="1016" width="15" height="16"/><rect class="cls-2" x="4393" y="1061" width="15" height="16"/><rect class="cls-2" x="4393" y="1106" width="15" height="16"/><rect class="cls-2" x="4710" y="956" width="15" height="16"/><rect class="cls-2" x="4741" y="956" width="15" height="16"/><rect class="cls-2" x="4810" y="1043" width="15" height="16"/><rect class="cls-2" x="4841" y="1043" width="15" height="16"/><rect class="cls-2" x="4686" y="1087" width="15" height="16"/><rect class="cls-2" x="4717" y="1087" width="15" height="16"/><rect class="cls-2" x="660" y="1062" width="4" height="34"/><rect class="cls-2" x="724" y="1035" width="5" height="54"/><rect class="cls-2" x="636" y="935" width="5" height="54"/><rect class="cls-2" x="5034" y="1080" width="4" height="34"/><rect class="cls-2" x="5098" y="1053" width="5" height="54"/><rect class="cls-2" x="5010" y="953" width="5" height="54"/><rect class="cls-2" x="2748" y="1075" width="4" height="34" transform="translate(5500 2184) rotate(-180)"/><rect class="cls-2" x="2727" y="1129" width="4" height="37" transform="translate(5458 2295) rotate(-180)"/><rect class="cls-2" x="2818" y="1027" width="5" height="54"/><rect class="cls-2" x="2589" y="1016" width="15" height="16"/><rect class="cls-2" x="2620" y="1016" width="15" height="16"/><rect class="cls-2" x="2494" y="1125" width="15" height="16"/><rect class="cls-2" x="2525" y="1125" width="15" height="16"/><rect class="cls-2" x="4924" y="1022" width="5" height="54"/><rect class="cls-2" x="5048" y="868" width="4" height="34"/><rect class="cls-2" x="1306" y="1237" width="432" height="8"/><rect class="cls-2" x="1280" y="1262" width="108" height="8"/><rect class="cls-2" x="662" y="1309" width="271" height="8"/><rect class="cls-1" x="179" y="1245" width="114" height="8"/><rect class="cls-2" x="3267" y="1245" width="312" height="4"/><rect class="cls-2" x="1404" y="1262" width="108" height="8"/><rect class="cls-2" x="1524" y="1262" width="108" height="8"/><rect class="cls-2" x="1644" y="1262" width="108" height="8"/><rect class="cls-2" x="2767" y="1293" width="13" height="8"/><rect class="cls-2" x="2785" y="1293" width="13" height="8"/><rect class="cls-2" x="2804" y="1293" width="13" height="8"/><rect class="cls-2" x="2822" y="1293" width="13" height="8"/><rect class="cls-2" x="2840" y="1293" width="13" height="8"/><rect class="cls-2" x="2858" y="1293" width="13" height="8"/><rect class="cls-2" x="2876" y="1293" width="13" height="8"/><rect class="cls-2" x="2894" y="1293" width="13" height="8"/><rect class="cls-2" x="2912" y="1293" width="13" height="8"/><rect class="cls-2" x="2930" y="1293" width="13" height="8"/><path class="cls-2" d="M2956,1293h5a8,8,0,0,1,8,8v0a0,0,0,0,1,0,0h-13a0,0,0,0,1,0,0v-8A0,0,0,0,1,2956,1293Z"/><rect class="cls-2" x="2538" y="1293" width="13" height="8"/><rect class="cls-2" x="2556" y="1293" width="13" height="8"/><rect class="cls-2" x="2575" y="1293" width="13" height="8"/><rect class="cls-2" x="2593" y="1293" width="13" height="8"/><rect class="cls-2" x="2611" y="1293" width="13" height="8"/><rect class="cls-2" x="2629" y="1293" width="13" height="8"/><rect class="cls-2" x="2647" y="1293" width="13" height="8"/><rect class="cls-2" x="2665" y="1293" width="13" height="8"/><rect class="cls-2" x="2683" y="1293" width="13" height="8"/><rect class="cls-2" x="2701" y="1293" width="13" height="8"/><rect class="cls-2" x="2720" y="1293" width="13" height="8"/><rect class="cls-2" x="2311" y="1293" width="13" height="8"/><rect class="cls-2" x="2329" y="1293" width="13" height="8"/><rect class="cls-2" x="2348" y="1293" width="13" height="8"/><rect class="cls-2" x="2366" y="1293" width="13" height="8"/><rect class="cls-2" x="2384" y="1293" width="13" height="8"/><rect class="cls-2" x="2402" y="1293" width="13" height="8"/><rect class="cls-2" x="2420" y="1293" width="13" height="8"/><rect class="cls-2" x="2438" y="1293" width="13" height="8"/><rect class="cls-2" x="2456" y="1293" width="13" height="8"/><rect class="cls-2" x="2474" y="1293" width="13" height="8"/><rect class="cls-2" x="2493" y="1293" width="13" height="8"/><rect class="cls-2" x="2082" y="1293" width="13" height="8"/><rect class="cls-2" x="2100" y="1293" width="13" height="8"/><rect class="cls-2" x="2119" y="1293" width="13" height="8"/><rect class="cls-2" x="2137" y="1293" width="13" height="8"/><rect class="cls-2" x="2155" y="1293" width="13" height="8"/><rect class="cls-2" x="2173" y="1293" width="13" height="8"/><rect class="cls-2" x="2191" y="1293" width="13" height="8"/><rect class="cls-2" x="2209" y="1293" width="13" height="8"/><rect class="cls-2" x="2227" y="1293" width="13" height="8"/><rect class="cls-2" x="2245" y="1293" width="13" height="8"/><rect class="cls-2" x="2264" y="1293" width="13" height="8"/><rect class="cls-2" x="2350" y="1164" width="15" height="16"/><rect class="cls-2" x="2381" y="1164" width="15" height="16"/><rect class="cls-2" x="2259" y="1211" width="15" height="16"/><rect class="cls-2" x="2258" y="1188" width="15" height="16"/><rect class="cls-2" x="1780" y="1147" width="5" height="39"/><rect class="cls-2" x="1879" y="1167" width="4" height="34"/><rect class="cls-2" x="1921" y="1225" width="4" height="37"/><rect class="cls-2" x="750" y="1158" width="4" height="34"/><rect class="cls-2" x="814" y="1131" width="5" height="54"/><rect class="cls-2" x="365" y="1297" width="15" height="16"/><rect class="cls-2" x="396" y="1297" width="15" height="16"/><rect class="cls-2" x="358" y="1167" width="15" height="16"/><rect class="cls-2" x="389" y="1167" width="15" height="16"/><rect class="cls-2" x="152" y="1305" width="15" height="16"/><rect class="cls-2" x="183" y="1305" width="15" height="16"/><rect class="cls-2" x="634" y="1241" width="4" height="34"/><rect class="cls-2" x="1100.5" y="1029.5" width="4" height="203" transform="translate(-28.5 2233.5) rotate(-90)"/><rect class="cls-2" x="1100.5" y="1081.5" width="4" height="203" transform="translate(-80.5 2285.5) rotate(-90)"/><rect class="cls-2" x="1100.5" y="1102.5" width="4" height="203" transform="translate(-101.5 2306.5) rotate(-90)"/><rect class="cls-2" x="1100.5" y="1123.5" width="4" height="203" transform="translate(-122.5 2327.5) rotate(-90)"/><rect class="cls-2" x="1100.5" y="1144.5" width="4" height="203" transform="translate(-143.5 2348.5) rotate(-90)"/><rect class="cls-2" x="1100.5" y="1206.5" width="4" height="203" transform="translate(-205.5 2410.5) rotate(-90)"/><rect class="cls-2" x="3003" y="1168" width="4" height="34" transform="translate(6010 2370) rotate(-180)"/><rect class="cls-2" x="2969" y="1166" width="4" height="37" transform="translate(5942 2369) rotate(-180)"/><rect class="cls-2" x="3060" y="1064" width="5" height="54"/><rect class="cls-2" x="2979" y="1112.33333" width="4" height="34" transform="translate(5962 2258.66667) rotate(-180)"/><rect class="cls-2" x="3028" y="1026" width="4" height="34" transform="translate(6060 2086) rotate(-180)"/><rect class="cls-2" x="3046" y="1024" width="4" height="34" transform="translate(6096 2082) rotate(-180)"/><rect class="cls-2" x="3267" y="1267" width="312" height="4"/><rect class="cls-2" x="3267" y="1293" width="312" height="4"/><rect class="cls-2" x="3732" y="1168" width="15" height="16"/><rect class="cls-2" x="3727" y="1213" width="15" height="16"/><rect class="cls-2" x="3727" y="1258" width="15" height="16"/><rect class="cls-2" x="3727" y="1303" width="15" height="16"/><rect class="cls-2" x="4015.5" y="1022.5" width="4" height="203" transform="translate(2893.5 5141.5) rotate(-90)"/><rect class="cls-2" x="4015.5" y="1078.5" width="4" height="203" transform="translate(2837.5 5197.5) rotate(-90)"/><rect class="cls-2" x="4015.5" y="1099.5" width="4" height="203" transform="translate(2816.5 5218.5) rotate(-90)"/><rect class="cls-2" x="4015.5" y="1159.5" width="4" height="203" transform="translate(2756.5 5278.5) rotate(-90)"/><rect class="cls-2" x="4015.5" y="1180.5" width="4" height="203" transform="translate(2735.5 5299.5) rotate(-90)"/><rect class="cls-2" x="4015.5" y="1201.5" width="4" height="203" transform="translate(2714.5 5320.5) rotate(-90)"/><rect class="cls-2" x="4393" y="1150" width="15" height="16"/><rect class="cls-2" x="4489" y="1150" width="15" height="16"/><rect class="cls-2" x="4393" y="1240" width="15" height="16"/><rect class="cls-2" x="4489" y="1240" width="15" height="16"/><rect class="cls-2" x="4393" y="1285" width="15" height="16"/><rect class="cls-2" x="4489" y="1285" width="15" height="16"/><rect class="cls-2" x="4620" y="1087" width="15" height="16"/><rect class="cls-2" x="4651" y="1087" width="15" height="16"/><rect class="cls-2" x="4720" y="1174" width="15" height="16"/><rect class="cls-2" x="4751" y="1174" width="15" height="16"/><rect class="cls-2" x="4596" y="1218" width="15" height="16"/><rect class="cls-2" x="4627" y="1218" width="15" height="16"/><rect class="cls-2" x="4944" y="1211" width="4" height="34"/><rect class="cls-2" x="5008" y="1184" width="5" height="54"/><rect class="cls-2" x="4920" y="1084" width="5" height="54"/><rect class="cls-2" x="5065" y="1255" width="5" height="54"/><rect class="cls-2" x="4958" y="999" width="4" height="34"/><rect class="cls-2" x="4750" y="1291" width="15" height="16" transform="translate(9515 2598) rotate(180)"/><rect class="cls-2" x="4719" y="1291" width="15" height="16" transform="translate(9453 2598) rotate(180)"/><rect class="cls-2" x="4874" y="1247" width="15" height="16" transform="translate(9763 2510) rotate(180)"/><rect class="cls-2" x="4843" y="1247" width="15" height="16" transform="translate(9701 2510) rotate(180)"/><rect class="cls-2" x="2059.5" y="1196.66667" width="15" height="16"/><rect class="cls-2" x="2118" y="1226" width="15" height="16"/><rect class="cls-2" x="2235" y="1188" width="15" height="16"/><rect class="cls-2" x="2216.16667" y="1122.66667" width="15" height="16"/><rect class="cls-2" x="2463" y="1101" width="15" height="16"/><rect class="cls-2" x="2610" y="1216" width="15" height="16"/><path class="cls-2" d="M2062,1293h5a0,0,0,0,1,0,0v8a0,0,0,0,1,0,0h-13a0,0,0,0,1,0,0v0A8,8,0,0,1,2062,1293Z"/><rect class="cls-2" x="1280" y="1309" width="108" height="8"/><rect class="cls-2" x="1404" y="1309" width="108" height="8"/><rect class="cls-2" x="1524" y="1309" width="108" height="8"/><rect class="cls-2" x="1644" y="1309" width="108" height="8"/></g></svg>