<svg xmlns="http://www.w3.org/2000/svg" width="5120" height="1320" viewBox="0 0 5120 1320"><defs><style>.cls-1{fill:#1565c0;}.cls-2{fill:#1976d2;}</style></defs><g id="Town"><path class="cls-1" d="M5120,816v504H0c.5-6.5,0-375,0-375H34.33333v50.5S57,998,54.5,995.5s0-110,0-110h97.88616v95.16667H221.5V845.5s4-45,46-45,48,41,48,41v48l58-26v40l92-38v167h53v103.63265h60.75v-307.466H662.5V857h28v79.5h23.83333v-45H746.5v45h27.83333V1019h53.33334v47.51724h35.43022v104.594s51.23644,4.61122,51.23644,0v-39.459h12V1044.5H910.5v-84h15v-43H972V857h85V834h54v33.33333h68.66667V849H1215V976.5h65V1019h41V831.5h28V748h21.5v81.5h14V898H1453V871h45v27h91v18h50v252.23746h54V1066.51724h44V1019h48V945h38V915h76V828h53.5V798H1963v79.5h17v259s61,7,61,0V1038h60V974.5l57,29.5V974.5l84,38.5,133,65,29,1h11.5V968s-2.5-59,47.5-59c56,0,52.5,62,52.5,62v31H2539V936.5h50V910.58333c0-3.912,6.088-6.58333,10-6.58333h2c3.31371,0,9.5,2.18629,9.5,5.5v27H2655v245h26v-27.73467h14V1181.5h21V1045h47v52h44v-88h22V920h59.5v89H2915v88h52v-86.5h87.92625v-179L3118.5,731.5l70,100V1085H3239V991.5h84v102h22v74.73746h52V1093.5l59-51.5V826h18.5V802h20V752H3523v52h21.5v28H3562v206l61,55.5V1019h60V746l82-98-2,98v407.0198h119.5V831.33333h25v-44h24v41.33334h19V857H4145v324.5h105.33333V1071.33333H4299.5V1027.5H4353V935h233V909h12.33333v135.66667H4650.5V864.5l91,42V862l62.4703,30.66667V842S4810.5,802,4852,802s47.5,40.5,47.5,40.5V981H4945V945.66667h40V890l89.5-127V877.66667h15V817Z"/></g><g id="Town_Accents" data-name="Town Accents"><rect class="cls-2" x="2201" y="1046" width="15" height="16"/><rect class="cls-2" x="2232" y="1046" width="15" height="16"/><rect class="cls-2" x="2444" y="952" width="15" height="16"/><rect class="cls-2" x="2475" y="952" width="15" height="16"/><rect class="cls-2" x="2294" y="1075" width="15" height="16"/><rect class="cls-2" x="2110" y="1093" width="15" height="16"/><rect class="cls-2" x="2141" y="1093" width="15" height="16"/><rect class="cls-2" x="2780" y="1049" width="5" height="39"/><rect class="cls-2" x="2872" y="1071" width="4" height="34"/><rect class="cls-2" x="2899" y="1125" width="4" height="37"/><rect class="cls-2" x="2931" y="976" width="5" height="54"/><rect class="cls-2" x="2848" y="944" width="5" height="54"/><rect class="cls-2" x="3082" y="837" width="3" height="419"/><rect class="cls-2" x="3122" y="837" width="3" height="419"/><rect class="cls-2" x="3159" y="837" width="3" height="419"/><rect class="cls-2" x="3506" y="795" width="5" height="462"/><rect class="cls-2" x="3701" y="763" width="15" height="16"/><rect class="cls-2" x="3730" y="763" width="15" height="16"/><rect class="cls-2" x="3730" y="807" width="15" height="16"/><rect class="cls-2" x="3701" y="853" width="15" height="16"/><rect class="cls-2" x="3792" y="853" width="15" height="16"/><rect class="cls-2" x="3696" y="898" width="15" height="16"/><rect class="cls-2" x="3696" y="943" width="15" height="16"/><rect class="cls-2" x="3696" y="988" width="15" height="16"/><rect class="cls-2" x="3792" y="988" width="15" height="16"/><rect class="cls-2" x="3792" y="1033" width="15" height="16"/><rect class="cls-2" x="3696" y="1168" width="15" height="16"/><rect class="cls-2" x="3792" y="1168" width="15" height="16"/><rect class="cls-2" x="4015.5" y="787.5" width="4" height="203" transform="translate(3128.5 4906.5) rotate(-90)"/><rect class="cls-2" x="4015.5" y="843.5" width="4" height="203" transform="translate(3072.5 4962.5) rotate(-90)"/><rect class="cls-2" x="4015.5" y="864.5" width="4" height="203" transform="translate(3051.5 4983.5) rotate(-90)"/><rect class="cls-2" x="4015.5" y="924.5" width="4" height="203" transform="translate(2991.5 5043.5) rotate(-90)"/><rect class="cls-2" x="4015.5" y="945.5" width="4" height="203" transform="translate(2970.5 5064.5) rotate(-90)"/><rect class="cls-2" x="4015.5" y="966.5" width="4" height="203" transform="translate(2949.5 5085.5) rotate(-90)"/><rect class="cls-2" x="1838" y="1060" width="5" height="39"/><rect class="cls-2" x="1879" y="970" width="4" height="34"/><rect class="cls-2" x="1921" y="1028" width="4" height="37"/><rect class="cls-2" x="1943" y="943" width="5" height="54"/><rect class="cls-2" x="1447.5" y="843.5" width="4" height="203" transform="translate(504.5 2394.5) rotate(-90)"/><rect class="cls-2" x="1447.5" y="897.5" width="4" height="203" transform="translate(450.5 2448.5) rotate(-90)"/><rect class="cls-2" x="1447.5" y="968.5" width="4" height="203" transform="translate(379.5 2519.5) rotate(-90)"/><rect class="cls-2" x="1447.5" y="989.5" width="4" height="203" transform="translate(358.5 2540.5) rotate(-90)"/><rect class="cls-2" x="1447.5" y="1010.5" width="4" height="203" transform="translate(337.5 2561.5) rotate(-90)"/><rect class="cls-2" x="1447.5" y="1031.5" width="4" height="203" transform="translate(316.5 2582.5) rotate(-90)"/><rect class="cls-2" x="1100.5" y="801.5" width="4" height="203" transform="translate(199.5 2005.5) rotate(-90)"/><rect class="cls-2" x="1100.5" y="853.5" width="4" height="203" transform="translate(147.5 2057.5) rotate(-90)"/><rect class="cls-2" x="1100.5" y="874.5" width="4" height="203" transform="translate(126.5 2078.5) rotate(-90)"/><rect class="cls-2" x="1100.5" y="895.5" width="4" height="203" transform="translate(105.5 2099.5) rotate(-90)"/><rect class="cls-2" x="1100.5" y="916.5" width="4" height="203" transform="translate(84.5 2120.5) rotate(-90)"/><rect class="cls-2" x="1100.5" y="978.5" width="4" height="203" transform="translate(22.5 2182.5) rotate(-90)"/><rect class="cls-2" x="70" y="1032" width="15" height="16"/><rect class="cls-2" x="101" y="1032" width="15" height="16"/><rect class="cls-2" x="170" y="1119" width="15" height="16"/><rect class="cls-2" x="201" y="1119" width="15" height="16"/><rect class="cls-2" x="380" y="1006" width="15" height="16"/><rect class="cls-2" x="411" y="1006" width="15" height="16"/><rect class="cls-2" x="244" y="914" width="15" height="16"/><rect class="cls-2" x="275" y="914" width="15" height="16"/><rect class="cls-2" x="46" y="1163" width="15" height="16"/><rect class="cls-2" x="77" y="1163" width="15" height="16"/><rect class="cls-2" x="4393" y="971" width="15" height="16"/><rect class="cls-2" x="4489" y="971" width="15" height="16"/><rect class="cls-2" x="4393" y="1016" width="15" height="16"/><rect class="cls-2" x="4489" y="1016" width="15" height="16"/><rect class="cls-2" x="4393" y="1061" width="15" height="16"/><rect class="cls-2" x="4489" y="1061" width="15" height="16"/><rect class="cls-2" x="4393" y="1106" width="15" height="16"/><rect class="cls-2" x="4489" y="1106" width="15" height="16"/><rect class="cls-2" x="4710" y="956" width="15" height="16"/><rect class="cls-2" x="4741" y="956" width="15" height="16"/><rect class="cls-2" x="4810" y="1043" width="15" height="16"/><rect class="cls-2" x="4841" y="1043" width="15" height="16"/><rect class="cls-2" x="4686" y="1087" width="15" height="16"/><rect class="cls-2" x="4717" y="1087" width="15" height="16"/><rect class="cls-2" x="660" y="1062" width="4" height="34"/><rect class="cls-2" x="724" y="1035" width="5" height="54"/><rect class="cls-2" x="636" y="935" width="5" height="54"/><rect class="cls-2" x="5034" y="1080" width="4" height="34"/><rect class="cls-2" x="5098" y="1053" width="5" height="54"/><rect class="cls-2" x="5010" y="953" width="5" height="54"/><rect class="cls-2" x="2748" y="1075" width="4" height="34" transform="translate(5500 2184) rotate(-180)"/><rect class="cls-2" x="2727" y="1129" width="4" height="37" transform="translate(5458 2295) rotate(-180)"/><rect class="cls-2" x="2818" y="1027" width="5" height="54"/><rect class="cls-2" x="2589" y="1016" width="15" height="16"/><rect class="cls-2" x="2620" y="1016" width="15" height="16"/><rect class="cls-2" x="2494" y="1125" width="15" height="16"/><rect class="cls-2" x="2525" y="1125" width="15" height="16"/><rect class="cls-2" x="4924" y="1022" width="5" height="54"/><rect class="cls-2" x="5048" y="868" width="4" height="34"/></g></svg>