<svg xmlns="http://www.w3.org/2000/svg" width="5120" height="1320" viewBox="0 0 5120 1320"><defs><style>.cls-1{fill:#01579b;}.cls-2{fill:#1565c0;}.cls-3,.cls-4,.cls-5{fill:none;stroke:#1565c0;stroke-miterlimit:10;}.cls-3{stroke-width:16px;}.cls-4{stroke-linecap:round;stroke-width:13px;}.cls-5{stroke-width:9px;}</style></defs><g id="Motherboard"><path class="cls-1" d="M3826,925H3714.33333L3666,941v26.66667H3497L3456,978v288h-16.33333V1110.33333H3290V1273h-46V1153H2948v92H2609v-13.33333H2500V1143H2145v130h-80V1158l-37-22h-82v122.33333h-32V1157l-104-23h-80v63H1594v13.33333h-74V1273H1401V1069h-69v-24h-76v20h-22V944.33333h-60V923l-32-19h-48v40.33333H972V1085H796v-44.66667L758,1030H721v188.33333H624V1177H541v71H456v-85.66667L414,1140H334v126.33333H306V1160l-104-26H118v65.66667H0V1320H5120v-73.66667h-76S5050,1209,5044,1209H4932s4,33,0,33h-59V1128.5H4754.33333L4678,1141v-91.95333h-43.66667L4613,1061.5V1101l-57,15v-31h-46v159h-28v-27h-82v31h-64v-60H4206l-22,4v57h-99v-89h-36v92h-45v-51H3824Z"/></g><g id="MB_Accents" data-name="MB Accents"><path class="cls-2" d="M3095,1179.5h63s19-1.16667,17,14.83333-8,45-8,45-4,10.77778-16,11.38889-56,0-56,0"/><path class="cls-2" d="M3095,1179.5h-63s-19-1.16667-17,14.83333,8,45,8,45,4,10.77778,16,11.38889,56,0,56,0"/><rect class="cls-2" x="3313" y="1132" width="108" height="17"/><rect class="cls-2" x="3313" y="1206" width="108" height="17"/><circle class="cls-3" cx="3772" cy="982" r="19"/><rect class="cls-2" x="3523" y="1029" width="122" height="74"/><rect class="cls-2" x="3555" y="1011" width="59" height="18"/><rect class="cls-2" x="3562" y="1001" width="45" height="10"/><rect class="cls-2" x="2124.5" y="1200.5" width="108" height="17" transform="translate(969.5 3387.5) rotate(-90)"/><line class="cls-4" x1="2244.5" y1="1183.5" x2="2244.5" y2="1235.5"/><path class="cls-2" d="M2351.5,1167.71315V1189.373a1.81405,1.81405,0,0,0,1.81406,1.814h8.8752a2.13494,2.13494,0,0,1,1.15979.34251l13.74408,8.89322a2.13483,2.13483,0,0,0,1.15979.34251h75.12463l15.22269-7.61135a2.135,2.135,0,0,1,.95476-.22539h8.13094a1.81406,1.81406,0,0,0,1.81406-1.81406v-23.40136a2.21315,2.21315,0,0,0-2.21315-2.21315h-123.5737A2.21315,2.21315,0,0,0,2351.5,1167.71315Z"/><rect class="cls-2" x="1917.5" y="1198.5" width="108" height="17" transform="translate(764.5 3178.5) rotate(-90)"/><line class="cls-4" x1="1798.50002" y1="1160.5" x2="1746.50002" y2="1160.49998"/><polyline class="cls-2" points="1557.278 1228.5 1679.5 1228.5 1679.5 1260.5 1546.5 1260.5 1546.5 1237.944"/><path class="cls-2" d="M1033.32673,984.23762V978S1009,984.86139,1009,1007.94059c0,14.34654,2.495,13.72278,2.495,13.72278h7.69307v11.64356s4.15842,6.44555,20.37624,6.44555,19.33663-5.61387,19.33663-5.61387v-11.22772h8.10891s4.9901-7.48515,4.9901-16.21782S1060.35644,978,1049.33663,978v6.23762Z"/><rect class="cls-1" x="1031.14356" y="992.65842" width="20.58416" height="13.72277" transform="translate(41.91584 2040.95545) rotate(-90)"/><circle class="cls-1" cx="1025.21782" cy="993.59406" r="3.74257"/><circle class="cls-1" cx="1020.22772" cy="1010.43564" r="3.74257"/><circle class="cls-1" cx="1032.70297" cy="1027.27723" r="3.74257"/><circle class="cls-1" cx="1055.78218" cy="992.9703" r="3.74257"/><circle class="cls-1" cx="1060.77228" cy="1009.81188" r="3.74257"/><circle class="cls-1" cx="1048.29703" cy="1026.65347" r="3.74257"/><rect class="cls-2" x="4794.47253" y="1142" width="60.52747" height="9.52747"/><rect class="cls-2" x="4794.47253" y="1183.47253" width="60.52747" height="9.52747"/><line class="cls-4" x1="1115" y1="924.5" x2="1115" y2="924.5"/><circle class="cls-5" cx="863.09689" cy="1129.58432" r="16.06708"/><circle class="cls-5" cx="803.26088" cy="1129.58432" r="16.06708"/><line class="cls-4" x1="596.99999" y1="1197.41346" x2="561.49999" y2="1197.41345"/><path class="cls-2" d="M186.46757,1207.10576v44.73185s.82837,13.49056-10.53211,12.0705-31.95132-5.68023-31.95132-5.68023-7.65254-2.84012-8.08645-11.36047,0-39.76165,0-39.76165"/><path class="cls-2" d="M186.46757,1207.10576V1162.3739s.82837-13.49056-10.53211-12.0705-31.95132,5.68024-31.95132,5.68024-7.65254,2.84012-8.08645,11.36047,0,39.76165,0,39.76165"/><circle class="cls-1" cx="174.39707" cy="1174.08939" r="4.26018"/><circle class="cls-1" cx="174.39707" cy="1190.42007" r="4.26018"/><circle class="cls-1" cx="174.39707" cy="1206.75074" r="4.26018"/><circle class="cls-1" cx="174.39707" cy="1223.08142" r="4.26018"/><circle class="cls-1" cx="174.39707" cy="1239.4121" r="4.26018"/><circle class="cls-1" cx="160.19648" cy="1181.18968" r="4.26018"/><circle class="cls-1" cx="160.19648" cy="1197.52036" r="4.26018"/><circle class="cls-1" cx="160.19648" cy="1213.85104" r="4.26018"/><circle class="cls-1" cx="160.19648" cy="1230.18171" r="4.26018"/><circle class="cls-1" cx="160.19648" cy="1246.51239" r="4.26018"/><circle class="cls-1" cx="148.12598" cy="1174.08939" r="4.26018"/><circle class="cls-1" cx="148.12598" cy="1190.42007" r="4.26018"/><circle class="cls-1" cx="148.12598" cy="1206.75074" r="4.26018"/><circle class="cls-1" cx="148.12598" cy="1223.08142" r="4.26018"/><circle class="cls-1" cx="148.12598" cy="1239.4121" r="4.26018"/><path class="cls-2" d="M1120.4934,985.36139v-6.23763s-24.32673,6.86139-24.32673,29.9406c0,14.34653,2.495,13.72277,2.495,13.72277h7.69307v11.64356s4.15841,6.44555,20.37623,6.44555,19.33664-5.61386,19.33664-5.61386v-11.22773h8.10891s4.9901-7.48515,4.9901-16.21782-11.64357-28.69307-22.66337-28.69307v6.23763Z"/><rect class="cls-1" x="1118.31023" y="993.78218" width="20.58416" height="13.72277" transform="translate(127.95875 2129.24587) rotate(-90)"/><circle class="cls-1" cx="1112.38449" cy="994.71782" r="3.74257"/><circle class="cls-1" cx="1107.39439" cy="1011.55941" r="3.74257"/><circle class="cls-1" cx="1119.86964" cy="1028.40099" r="3.74257"/><circle class="cls-1" cx="1142.94884" cy="994.09406" r="3.74257"/><circle class="cls-1" cx="1147.93894" cy="1010.93564" r="3.74257"/><circle class="cls-1" cx="1135.4637" cy="1027.77723" r="3.74257"/></g></svg>