<svg id="Clouds" xmlns="http://www.w3.org/2000/svg" width="5120" height="1320" viewBox="0 0 5120 1320"><defs><style>.cls-1{fill:#fff;opacity:0.5;}</style></defs><path class="cls-1" d="M2328,489h367s8,0,5-2-11-3-11-4-5-1-9-2-11-1-17-3-20-3-25-2-5,1-11,2-9-5-14,0c0,0-7-13-14-13s-16,2-21,3-15-1-20-1-14-1-18,1-7,3-11,3-25-5-29-5-3.11111-1-10.55556-1S2481,466,2478,467s-5,3-9,4-4,3-10,4-26-1-29-2-5-2-10-2-8-2-13-1a31.00323,31.00323,0,0,0-7,2c-3,1-8,4-9,4s-4,7-14,7-16-1-24-1-13,0-17,1-2,1.33333-8,1.66667S2315,486,2317,487,2321,489,2328,489Z"/><path class="cls-1" d="M2849,640.42959s1.30381,7.07166,26.07627,8.64314,67.79832,1.57148,67.79832,1.57148-4.34605,4.649,19.99181,5.46743,112.128,1.53874,136.03123-3.92869c0,0,76.925,1.53874,112.99719,0s222.51755,2.32448,230.34043-3.9287c0,0,44.32967.81848,56.064-3.11022s-18.25339-7.8574-23.46865-7.8574-28.6839-6.28592-43.02585-5.50018-42.15665-2.49316-49.11032-.068c0,0-14.77655-2.67372-26.51088-.91,0,0-2.60763-4.52221-10.43051-3.73647,0,0-11.73432-10.072-35.203-7.07165,0,0-22.16483-14.00036-84.74789-5.50018,0,0-10.43051-9.50018-79.53264-9.50018,0,0-87.35552,7-88.65933,18.929,0,0-74.31739-7.929-73.01357,5.50018,0,0-87.35552.78574-83.44408,6.28592C2901.15255,635.71515,2851.60763,633.35793,2849,640.42959Z"/><path class="cls-1" d="M4062.77636,403.3854s38.77617,8.02572,55.771,7.30726,47.58013-4.72094,58.69654-1.45706,42.35591-5.194,53.4404-27.892c0,0,13.41592-48.446-47.13267-40.38469,0,0,30.73267-2.86049,15.88492,33.699,0,0-3.2577-11.11125-25.64721-13.13857,0,0-5.50046-14.04191-32.672-13.11627,0,0-51.64209-3.04808-51.50941,20.416,0,0-43.63711-4.20094-43.8354,10.45361,0,0-39.83974,2.39054-30.02855,15.33944C4022.17114,403.09464,4062.77636,403.3854,4062.77636,403.3854Z"/><path class="cls-1" d="M1246,267s27,11,45,8c0,0,96,4,124,2,0,0,40-2,56-2s48-2,53-5c0,0,12.77778-3,17.88889-3S1578,267,1557,264s-21-1-28-2-22-2-27-3-11-5-20-6-11,1-18-1-22-6-28-6-8,2-13,0c-11.08474-4.4339-26-11-35-10s-13,2-13,5,3.17157,4,6,4c2,0,1.75224-1.02772,2.83606-1.166a2.37051,2.37051,0,0,1,2.10314,3.8531C1385.3433,248.43611,1385,249,1384,249a18.53947,18.53947,0,0,1-7-2c-2-1-10-2-12-2s-10-1-18,2-8,6-16,7-12-1-23,0-17,1-21,3-6,7-16,7S1243,264,1246,267Z"/><path class="cls-1" d="M504,418s71,1,84-2-14-6-20-6-14-4-23-4-9-18-53-18c0,0-9.77778-6.25-20-2,0,0-14-12-33-12s-44.81062,6.85575-58,14c-24,13-37,9-37,9s-10,2-14,8c0,0-7,0-12,2,0,0-16,0-24,5s-33,4-33,4-9,1,2,3c12,0,82.66667,2,94.33333,0S408,416,416,418,492,418,504,418Z"/><path class="cls-1" d="M288,447s-9,1-9,6,2,7.33333,4.5,7.16667S289,459,292,459s8,1.35,12.5,1.175,10.16667.2063,14.83333.01566,13.33334.30042,14.5.05489S352,460,327,456c0,0-1-5-12-4,0,0-4-3-11,0C304,452,303,445,288,447Z"/><path class="cls-1" d="M4602.72528,459.92113s9,1,9,6-2,7.33333-4.5,7.16667-5.5-1.16667-8.5-1.16667-8,1.35-12.5,1.175-10.16667.2063-14.83333.01565-13.33334.30042-14.5.05489-18.16667-.24554,6.83333-4.24554c0,0,1-5,12-4,0,0,4-3,11,0C4586.72528,464.92113,4587.72528,457.92113,4602.72528,459.92113Z"/></svg>