<svg id="Hexes" xmlns="http://www.w3.org/2000/svg" width="5120" height="1320" viewBox="0 0 5120 1320"><defs><style>.cls-1{fill:#01579b;}.cls-2{fill:#1565c0;}.cls-3{fill:#1976d2;}.cls-4{fill:#03a9f4;}.cls-5{fill:#0288d1;}.cls-6{fill:#42a5f5;}.cls-7{fill:#a3dcf9;}.cls-8{fill:#90caf9;}.cls-9{fill:#fff;}</style></defs><polygon class="cls-1" points="2251.666 112.527 2251.523 87.194 2229.249 74.652 2207.117 87.443 2207.26 112.776 2229.736 125.206 2251.666 112.527"/><polygon class="cls-1" points="2340.084 112.564 2339.941 87.231 2317.667 74.69 2295.535 87.481 2295.678 112.814 2318.155 125.243 2340.084 112.564"/><polygon class="cls-1" points="2428.544 112.633 2428.402 87.3 2406.127 74.759 2383.996 87.55 2384.138 112.883 2406.615 125.312 2428.544 112.633"/><polygon class="cls-1" points="2516.962 112.671 2516.82 87.338 2494.546 74.796 2472.414 87.588 2472.556 112.921 2495.033 125.35 2516.962 112.671"/><polygon class="cls-1" points="2604.777 112.842 2604.635 87.509 2582.36 74.968 2560.229 87.759 2560.371 113.092 2582.848 125.521 2604.777 112.842"/><polygon class="cls-1" points="2693.195 112.88 2693.053 87.547 2670.779 75.006 2648.647 87.797 2648.789 113.13 2671.266 125.559 2693.195 112.88"/><polygon class="cls-1" points="2781.655 112.949 2781.513 87.616 2759.239 75.074 2737.107 87.866 2737.249 113.199 2759.726 125.628 2781.655 112.949"/><polygon class="cls-1" points="2870.074 112.987 2869.931 87.654 2847.657 75.112 2825.525 87.904 2825.668 113.236 2848.144 125.666 2870.074 112.987"/><polygon class="cls-1" points="2957.897 112.874 2957.755 87.541 2935.481 75 2913.349 87.791 2913.491 113.124 2935.968 125.553 2957.897 112.874"/><polygon class="cls-1" points="3046.316 112.912 3046.173 87.579 3023.899 75.038 3001.767 87.829 3001.91 113.162 3024.386 125.591 3046.316 112.912"/><polygon class="cls-1" points="3134.776 112.981 3134.633 87.648 3112.359 75.106 3090.227 87.898 3090.37 113.23 3112.847 125.66 3134.776 112.981"/><polygon class="cls-1" points="3223.194 113.019 3223.052 87.686 3200.777 75.144 3178.646 87.935 3178.788 113.268 3201.265 125.698 3223.194 113.019"/><polygon class="cls-1" points="3311.009 113.19 3310.867 87.857 3288.592 75.315 3266.461 88.107 3266.603 113.44 3289.08 125.869 3311.009 113.19"/><polygon class="cls-1" points="3399.427 113.228 3399.285 87.895 3377.011 75.353 3354.879 88.145 3355.021 113.478 3377.498 125.907 3399.427 113.228"/><polygon class="cls-1" points="3487.887 113.297 3487.745 87.964 3465.471 75.422 3443.339 88.213 3443.481 113.546 3465.958 125.976 3487.887 113.297"/><polygon class="cls-1" points="1810.165 112.281 1810.022 86.948 1787.748 74.407 1765.617 87.198 1765.759 112.531 1788.236 124.96 1810.165 112.281"/><polygon class="cls-1" points="1897.98 112.453 1897.837 87.12 1875.563 74.578 1853.431 87.369 1853.574 112.702 1876.051 125.132 1897.98 112.453"/><polygon class="cls-1" points="1986.398 112.49 1986.256 87.157 1963.981 74.616 1941.85 87.407 1941.992 112.74 1964.469 125.169 1986.398 112.49"/><polygon class="cls-1" points="2074.858 112.559 2074.716 87.226 2052.442 74.685 2030.31 87.476 2030.452 112.809 2052.929 125.238 2074.858 112.559"/><polygon class="cls-1" points="2163.276 112.597 2163.134 87.264 2140.86 74.722 2118.728 87.514 2118.87 112.847 2141.347 125.276 2163.276 112.597"/><polygon class="cls-2" points="2893.884 131.472 2894.013 154.271 2914.059 165.559 2933.978 154.047 2933.85 131.247 2913.621 120.061 2893.884 131.472"/><polygon class="cls-2" points="2850.05 131.44 2850.178 154.24 2870.225 165.527 2890.144 154.015 2890.016 131.216 2869.787 120.029 2850.05 131.44"/><polygon class="cls-1" points="2869.447 87.85 2869.589 113.183 2891.863 125.725 2913.995 112.933 2913.853 87.6 2891.376 75.171 2869.447 87.85"/><polygon class="cls-2" points="2805.466 131.434 2805.594 154.233 2825.641 165.521 2845.56 154.009 2845.432 131.209 2825.202 120.023 2805.466 131.434"/><polygon class="cls-1" points="2781.029 87.812 2781.171 113.145 2803.445 125.687 2825.577 112.895 2825.435 87.562 2802.958 75.133 2781.029 87.812"/><polygon class="cls-2" points="2717.006 131.365 2717.134 154.165 2737.181 165.452 2757.1 153.94 2756.971 131.14 2736.742 119.954 2717.006 131.365"/><polygon class="cls-2" points="2673.172 131.333 2673.3 154.133 2693.347 165.421 2713.265 153.908 2713.137 131.109 2692.908 119.922 2673.172 131.333"/><polygon class="cls-1" points="2692.568 87.743 2692.711 113.076 2714.985 125.618 2737.117 112.827 2736.974 87.494 2714.498 75.064 2692.568 87.743"/><polygon class="cls-2" points="2628.588 131.327 2628.716 154.127 2648.763 165.414 2668.681 153.902 2668.553 131.103 2648.324 119.916 2628.588 131.327"/><polygon class="cls-2" points="2584.754 131.296 2584.882 154.095 2604.929 165.383 2624.847 153.871 2624.719 131.071 2604.49 119.884 2584.754 131.296"/><polygon class="cls-1" points="2604.15 87.705 2604.293 113.038 2626.567 125.58 2648.699 112.789 2648.556 87.456 2626.079 75.026 2604.15 87.705"/><polygon class="cls-2" points="2540.773 131.156 2540.901 153.955 2560.948 165.243 2580.866 153.731 2580.738 130.931 2560.509 119.745 2540.773 131.156"/><polygon class="cls-2" points="2496.939 131.124 2497.067 153.924 2517.114 165.211 2537.032 153.699 2536.904 130.9 2516.675 119.713 2496.939 131.124"/><polygon class="cls-1" points="2516.335 87.534 2516.478 112.867 2538.752 125.409 2560.884 112.617 2560.741 87.284 2538.264 74.855 2516.335 87.534"/><polygon class="cls-2" points="2408.521 131.086 2408.649 153.886 2428.696 165.173 2448.614 153.661 2448.486 130.862 2428.257 119.675 2408.521 131.086"/><polygon class="cls-1" points="2427.917 87.496 2428.059 112.829 2450.334 125.371 2472.465 112.579 2472.323 87.246 2449.846 74.817 2427.917 87.496"/><polygon class="cls-2" points="2363.895 131.049 2364.023 153.849 2384.069 165.136 2403.988 153.624 2403.86 130.824 2383.631 119.638 2363.895 131.049"/><polygon class="cls-2" points="2320.06 131.017 2320.189 153.817 2340.235 165.105 2360.154 153.593 2360.026 130.793 2339.797 119.606 2320.06 131.017"/><polygon class="cls-1" points="2339.457 87.427 2339.599 112.76 2361.873 125.302 2384.005 112.511 2383.863 87.178 2361.386 74.748 2339.457 87.427"/><polygon class="cls-2" points="2231.642 130.98 2231.77 153.779 2251.817 165.067 2271.736 153.555 2271.608 130.755 2251.378 119.568 2231.642 130.98"/><polygon class="cls-1" points="2251.039 87.389 2251.181 112.722 2273.455 125.264 2295.587 112.473 2295.445 87.14 2272.968 74.71 2251.039 87.389"/><polygon class="cls-2" points="2187.653 131.124 2187.781 153.923 2207.827 165.211 2227.746 153.699 2227.618 130.899 2207.389 119.713 2187.653 131.124"/><polygon class="cls-1" points="2163.215 87.502 2163.357 112.835 2185.631 125.377 2207.763 112.585 2207.621 87.252 2185.144 74.823 2163.215 87.502"/><polygon class="cls-2" points="2099.234 131.086 2099.362 153.886 2119.409 165.173 2139.328 153.661 2139.2 130.861 2118.971 119.675 2099.234 131.086"/><polygon class="cls-2" points="2055.4 131.054 2055.528 153.854 2075.575 165.141 2095.494 153.629 2095.366 130.83 2075.136 119.643 2055.4 131.054"/><polygon class="cls-1" points="2074.797 87.464 2074.939 112.797 2097.213 125.339 2119.345 112.547 2119.203 87.215 2096.726 74.785 2074.797 87.464"/><polygon class="cls-2" points="2010.774 131.017 2010.902 153.817 2030.949 165.104 2050.868 153.592 2050.74 130.792 2030.51 119.606 2010.774 131.017"/><polygon class="cls-2" points="1966.94 130.985 1967.068 153.785 1987.115 165.073 2007.034 153.561 2006.905 130.761 1986.676 119.574 1966.94 130.985"/><polygon class="cls-1" points="1986.337 87.395 1986.479 112.728 2008.753 125.27 2030.885 112.479 2030.743 87.146 2008.266 74.716 1986.337 87.395"/><polygon class="cls-2" points="1922.356 130.979 1922.484 153.779 1942.531 165.066 1962.449 153.554 1962.321 130.755 1942.092 119.568 1922.356 130.979"/><polygon class="cls-2" points="1878.522 130.948 1878.65 153.747 1898.697 165.035 1918.615 153.523 1918.487 130.723 1898.258 119.536 1878.522 130.948"/><polygon class="cls-1" points="1897.918 87.357 1898.061 112.69 1920.335 125.232 1942.467 112.441 1942.324 87.108 1919.847 74.678 1897.918 87.357"/><polygon class="cls-2" points="1834.541 130.808 1834.669 153.607 1854.716 164.895 1874.635 153.383 1874.506 130.583 1854.277 119.397 1834.541 130.808"/><polygon class="cls-1" points="1810.103 87.186 1810.246 112.519 1832.52 125.061 1854.652 112.269 1854.509 86.936 1832.033 74.507 1810.103 87.186"/><polygon class="cls-2" points="1746.123 130.77 1746.251 153.57 1766.298 164.857 1786.216 153.345 1786.088 130.545 1765.859 119.359 1746.123 130.77"/><polygon class="cls-1" points="1721.685 87.148 1721.828 112.481 1744.102 125.023 1766.234 112.232 1766.091 86.899 1743.614 74.469 1721.685 87.148"/><polygon class="cls-2" points="3468.429 131.792 3468.557 154.592 3488.604 165.879 3508.523 154.367 3508.395 131.568 3488.166 120.381 3468.429 131.792"/><polygon class="cls-1" points="3487.826 88.202 3487.968 113.535 3510.242 126.077 3532.374 113.285 3532.232 87.953 3509.755 75.523 3487.826 88.202"/><polygon class="cls-2" points="3423.803 131.755 3423.931 154.555 3443.978 165.842 3463.897 154.33 3463.769 131.53 3443.539 120.344 3423.803 131.755"/><polygon class="cls-1" points="3399.366 88.133 3399.508 113.466 3421.782 126.008 3443.914 113.217 3443.772 87.884 3421.295 75.454 3399.366 88.133"/><polygon class="cls-2" points="3335.385 131.717 3335.513 154.517 3355.56 165.804 3375.479 154.292 3375.35 131.493 3355.121 120.306 3335.385 131.717"/><polygon class="cls-2" points="3291.551 131.686 3291.679 154.485 3311.726 165.773 3331.644 154.261 3331.516 131.461 3311.287 120.274 3291.551 131.686"/><polygon class="cls-1" points="3310.947 88.095 3311.09 113.428 3333.364 125.97 3355.496 113.179 3355.353 87.846 3332.877 75.416 3310.947 88.095"/><polygon class="cls-2" points="3247.57 131.546 3247.698 154.345 3267.745 165.633 3287.664 154.121 3287.535 131.321 3267.306 120.135 3247.57 131.546"/><polygon class="cls-2" points="3203.736 131.514 3203.864 154.314 3223.911 165.601 3243.83 154.089 3243.701 131.29 3223.472 120.103 3203.736 131.514"/><polygon class="cls-1" points="3223.133 87.924 3223.275 113.257 3245.549 125.799 3267.681 113.007 3267.538 87.674 3245.062 75.245 3223.133 87.924"/><polygon class="cls-2" points="3159.152 131.508 3159.28 154.308 3179.327 165.595 3199.245 154.083 3199.117 131.283 3178.888 120.097 3159.152 131.508"/><polygon class="cls-2" points="3115.318 131.476 3115.446 154.276 3135.493 165.564 3155.411 154.051 3155.283 131.252 3135.054 120.065 3115.318 131.476"/><polygon class="cls-1" points="3134.714 87.886 3134.857 113.219 3157.131 125.761 3179.263 112.97 3179.12 87.637 3156.643 75.207 3134.714 87.886"/><polygon class="cls-2" points="3026.858 131.408 3026.986 154.207 3047.033 165.495 3066.951 153.983 3066.823 131.183 3046.594 119.996 3026.858 131.408"/><polygon class="cls-1" points="3046.254 87.817 3046.397 113.15 3068.671 125.692 3090.802 112.901 3090.66 87.568 3068.183 75.138 3046.254 87.817"/><polygon class="cls-2" points="2982.274 131.401 2982.402 154.201 3002.448 165.488 3022.367 153.976 3022.239 131.177 3002.01 119.99 2982.274 131.401"/><polygon class="cls-2" points="2938.439 131.37 2938.568 154.169 2958.614 165.457 2978.533 153.945 2978.405 131.145 2958.176 119.959 2938.439 131.37"/><polygon class="cls-1" points="2957.836 87.779 2957.978 113.112 2980.252 125.654 3002.384 112.863 3002.242 87.53 2979.765 75.1 2957.836 87.779"/><polygon class="cls-3" points="2204.132 190.018 2204.018 169.752 2186.198 159.719 2168.493 169.952 2168.607 190.218 2186.588 200.162 2204.132 190.018"/><polygon class="cls-3" points="2247.966 190.05 2247.852 169.784 2230.032 159.75 2212.327 169.983 2212.441 190.25 2230.422 200.193 2247.966 190.05"/><polygon class="cls-3" points="2292.55 190.056 2292.436 169.79 2274.617 159.757 2256.911 169.99 2257.025 190.256 2275.006 200.199 2292.55 190.056"/><polygon class="cls-3" points="2381.01 190.125 2380.896 169.859 2363.077 159.825 2345.371 170.058 2345.485 190.325 2363.467 200.268 2381.01 190.125"/><polygon class="cls-3" points="2424.844 190.157 2424.73 169.89 2406.911 159.857 2389.205 170.09 2389.319 190.356 2407.301 200.3 2424.844 190.157"/><polygon class="cls-3" points="2469.428 190.163 2469.314 169.897 2451.495 159.863 2433.789 170.096 2433.903 190.363 2451.885 200.306 2469.428 190.163"/><polygon class="cls-3" points="2557.243 190.334 2557.129 170.068 2539.31 160.034 2521.604 170.267 2521.718 190.534 2539.7 200.477 2557.243 190.334"/><polygon class="cls-3" points="2601.077 190.366 2600.963 170.099 2583.144 160.066 2565.438 170.299 2565.552 190.565 2583.534 200.509 2601.077 190.366"/><polygon class="cls-3" points="2645.661 190.372 2645.547 170.106 2627.728 160.072 2610.023 170.305 2610.136 190.572 2628.118 200.515 2645.661 190.372"/><polygon class="cls-3" points="2734.121 190.441 2734.008 170.174 2716.188 160.141 2698.483 170.374 2698.597 190.64 2716.578 200.584 2734.121 190.441"/><polygon class="cls-3" points="2777.955 190.472 2777.842 170.206 2760.022 160.173 2742.317 170.406 2742.431 190.672 2760.412 200.616 2777.955 190.472"/><polygon class="cls-3" points="2822.54 190.479 2822.426 170.212 2804.606 160.179 2786.901 170.412 2787.015 190.678 2804.996 200.622 2822.54 190.479"/><polygon class="cls-3" points="2910.363 190.366 2910.25 170.1 2892.43 160.066 2874.725 170.299 2874.839 190.566 2892.82 200.509 2910.363 190.366"/><polygon class="cls-3" points="2954.197 190.398 2954.084 170.131 2936.264 160.098 2918.559 170.331 2918.673 190.597 2936.654 200.541 2954.197 190.398"/><polygon class="cls-3" points="2998.782 190.404 2998.668 170.138 2980.848 160.104 2963.143 170.337 2963.257 190.604 2981.238 200.547 2998.782 190.404"/><polygon class="cls-3" points="3087.242 190.473 3087.128 170.206 3069.309 160.173 3051.603 170.406 3051.717 190.672 3069.699 200.616 3087.242 190.473"/><polygon class="cls-3" points="3175.66 190.511 3175.546 170.244 3157.727 160.211 3140.021 170.444 3140.135 190.71 3158.117 200.654 3175.66 190.511"/><polygon class="cls-3" points="3263.475 190.682 3263.361 170.416 3245.542 160.382 3227.836 170.615 3227.95 190.882 3245.932 200.825 3263.475 190.682"/><polygon class="cls-3" points="3351.893 190.72 3351.779 170.453 3333.96 160.42 3316.254 170.653 3316.368 190.919 3334.35 200.863 3351.893 190.72"/><polygon class="cls-3" points="3440.353 190.789 3440.239 170.522 3422.42 160.489 3404.715 170.722 3404.828 190.988 3422.81 200.932 3440.353 190.789"/><polygon class="cls-3" points="3484.187 190.82 3484.073 170.554 3466.254 160.52 3448.549 170.753 3448.663 191.02 3466.644 200.963 3484.187 190.82"/><polygon class="cls-3" points="1762.631 189.773 1762.517 169.507 1744.698 159.473 1726.992 169.706 1727.106 189.973 1745.088 199.916 1762.631 189.773"/><polygon class="cls-3" points="1850.446 189.944 1850.332 169.678 1832.513 159.645 1814.807 169.878 1814.921 190.144 1832.903 200.088 1850.446 189.944"/><polygon class="cls-3" points="1894.28 189.976 1894.166 169.71 1876.347 159.676 1858.641 169.909 1858.755 190.176 1876.737 200.119 1894.28 189.976"/><polygon class="cls-3" points="1938.864 189.982 1938.75 169.716 1920.931 159.683 1903.225 169.916 1903.339 190.182 1921.321 200.125 1938.864 189.982"/><polygon class="cls-3" points="2027.324 190.051 2027.21 169.785 2009.391 159.751 1991.686 169.984 1991.799 190.251 2009.781 200.194 2027.324 190.051"/><polygon class="cls-3" points="2115.742 190.089 2115.628 169.823 2097.809 159.789 2080.104 170.022 2080.218 190.289 2098.199 200.232 2115.742 190.089"/><polygon class="cls-4" points="2879.698 246.624 2879.783 261.824 2893.148 269.349 2906.427 261.674 2906.341 246.475 2892.855 239.017 2879.698 246.624"/><polygon class="cls-4" points="2835.864 246.593 2835.949 261.793 2849.314 269.318 2862.593 261.643 2862.507 246.443 2849.021 238.985 2835.864 246.593"/><polygon class="cls-5" points="2855.26 208.003 2855.36 225.736 2870.952 234.515 2886.444 225.561 2886.344 207.828 2870.61 199.127 2855.26 208.003"/><polygon class="cls-4" points="2747.445 246.555 2747.531 261.755 2760.895 269.28 2774.174 261.605 2774.089 246.405 2760.603 238.948 2747.445 246.555"/><polygon class="cls-5" points="2766.842 207.965 2766.942 225.698 2782.533 234.477 2798.026 225.523 2797.926 207.79 2782.192 199.089 2766.842 207.965"/><polygon class="cls-4" points="2702.819 246.518 2702.905 261.718 2716.269 269.243 2729.548 261.568 2729.463 246.368 2715.977 238.91 2702.819 246.518"/><polygon class="cls-5" points="2678.382 207.896 2678.481 225.629 2694.073 234.408 2709.566 225.454 2709.466 207.721 2693.732 199.021 2678.382 207.896"/><polygon class="cls-4" points="2614.401 246.48 2614.487 261.68 2627.851 269.205 2641.13 261.53 2641.045 246.33 2627.559 238.872 2614.401 246.48"/><polygon class="cls-4" points="2570.567 246.448 2570.652 261.648 2584.017 269.173 2597.296 261.498 2597.211 246.299 2583.725 238.841 2570.567 246.448"/><polygon class="cls-5" points="2589.964 207.858 2590.063 225.591 2605.655 234.37 2621.147 225.416 2621.048 207.683 2605.314 198.983 2589.964 207.858"/><polygon class="cls-4" points="2482.752 246.277 2482.838 261.477 2496.202 269.002 2509.481 261.327 2509.396 246.127 2495.91 238.67 2482.752 246.277"/><polygon class="cls-5" points="2502.149 207.687 2502.248 225.42 2517.84 234.199 2533.332 225.245 2533.233 207.512 2517.499 198.811 2502.149 207.687"/><polygon class="cls-4" points="2438.168 246.271 2438.253 261.47 2451.618 268.995 2464.897 261.321 2464.812 246.121 2451.325 238.663 2438.168 246.271"/><polygon class="cls-5" points="2413.73 207.649 2413.83 225.382 2429.422 234.161 2444.914 225.207 2444.815 207.474 2429.081 198.774 2413.73 207.649"/><polygon class="cls-4" points="2349.708 246.202 2349.793 261.402 2363.158 268.927 2376.437 261.252 2376.351 246.052 2362.865 238.594 2349.708 246.202"/><polygon class="cls-4" points="2305.874 246.17 2305.959 261.37 2319.324 268.895 2332.603 261.22 2332.517 246.02 2319.031 238.563 2305.874 246.17"/><polygon class="cls-5" points="2325.27 207.58 2325.37 225.313 2340.962 234.092 2356.454 225.138 2356.354 207.405 2340.621 198.705 2325.27 207.58"/><polygon class="cls-4" points="2217.456 246.132 2217.541 261.332 2230.905 268.857 2244.185 261.182 2244.099 245.983 2230.613 238.525 2217.456 246.132"/><polygon class="cls-5" points="2236.852 207.542 2236.952 225.275 2252.544 234.054 2268.036 225.1 2267.936 207.367 2252.202 198.667 2236.852 207.542"/><polygon class="cls-5" points="2149.028 207.655 2149.128 225.388 2164.72 234.167 2180.212 225.213 2180.112 207.48 2164.379 198.779 2149.028 207.655"/><polygon class="cls-4" points="2041.214 246.207 2041.299 261.407 2054.663 268.932 2067.943 261.257 2067.857 246.057 2054.371 238.6 2041.214 246.207"/><polygon class="cls-5" points="2060.61 207.617 2060.71 225.35 2076.302 234.129 2091.794 225.175 2091.694 207.442 2075.96 198.742 2060.61 207.617"/><polygon class="cls-4" points="1952.753 246.138 1952.839 261.338 1966.203 268.863 1979.482 261.188 1979.397 245.989 1965.911 238.531 1952.753 246.138"/><polygon class="cls-5" points="1972.15 207.548 1972.25 225.281 1987.841 234.06 2003.334 225.106 2003.234 207.373 1987.5 198.673 1972.15 207.548"/><polygon class="cls-4" points="1908.169 246.132 1908.255 261.332 1921.619 268.857 1934.898 261.182 1934.813 245.982 1921.327 238.525 1908.169 246.132"/><polygon class="cls-5" points="1883.732 207.51 1883.831 225.243 1899.423 234.022 1914.916 225.068 1914.816 207.335 1899.082 198.635 1883.732 207.51"/><polygon class="cls-4" points="1820.354 245.961 1820.44 261.16 1833.804 268.685 1847.083 261.011 1846.998 245.811 1833.512 238.353 1820.354 245.961"/><polygon class="cls-4" points="1776.52 245.929 1776.606 261.129 1789.97 268.654 1803.249 260.979 1803.164 245.779 1789.678 238.322 1776.52 245.929"/><polygon class="cls-5" points="1795.917 207.339 1796.016 225.072 1811.608 233.851 1827.101 224.897 1827.001 207.164 1811.267 198.463 1795.917 207.339"/><polygon class="cls-4" points="3454.243 246.945 3454.328 262.145 3467.693 269.67 3480.972 261.995 3480.886 246.795 3467.4 239.338 3454.243 246.945"/><polygon class="cls-5" points="3385.179 208.286 3385.279 226.019 3400.871 234.798 3416.363 225.844 3416.263 208.111 3400.529 199.411 3385.179 208.286"/><polygon class="cls-4" points="3321.198 246.87 3321.284 262.07 3334.648 269.595 3347.927 261.92 3347.842 246.72 3334.356 239.263 3321.198 246.87"/><polygon class="cls-5" points="3296.761 208.248 3296.86 225.981 3312.452 234.76 3327.945 225.806 3327.845 208.073 3312.111 199.373 3296.761 208.248"/><polygon class="cls-4" points="3233.383 246.699 3233.469 261.898 3246.833 269.423 3260.112 261.749 3260.027 246.549 3246.541 239.091 3233.383 246.699"/><polygon class="cls-5" points="3208.946 208.077 3209.045 225.81 3224.637 234.589 3240.13 225.635 3240.03 207.902 3224.296 199.201 3208.946 208.077"/><polygon class="cls-4" points="3101.131 246.629 3101.217 261.829 3114.581 269.354 3127.86 261.679 3127.775 246.479 3114.289 239.022 3101.131 246.629"/><polygon class="cls-5" points="3120.528 208.039 3120.627 225.772 3136.219 234.551 3151.711 225.597 3151.612 207.864 3135.878 199.164 3120.528 208.039"/><polygon class="cls-4" points="3012.671 246.56 3012.756 261.76 3026.121 269.285 3039.4 261.61 3039.315 246.411 3025.828 238.953 3012.671 246.56"/><polygon class="cls-5" points="3032.067 207.97 3032.167 225.703 3047.759 234.482 3063.251 225.528 3063.152 207.795 3047.418 199.095 3032.067 207.97"/><polygon class="cls-4" points="2968.087 246.554 2968.172 261.754 2981.537 269.279 2994.816 261.604 2994.73 246.404 2981.244 238.947 2968.087 246.554"/><polygon class="cls-5" points="2943.649 207.932 2943.749 225.665 2959.341 234.444 2974.833 225.491 2974.733 207.757 2959 199.057 2943.649 207.932"/><polygon class="cls-6" points="2308.24 297.526 2308.169 284.859 2297.032 278.588 2285.966 284.984 2286.037 297.651 2297.276 303.865 2308.24 297.526"/><polygon class="cls-6" points="2352.074 297.557 2352.003 284.891 2340.866 278.62 2329.8 285.016 2329.871 297.682 2341.11 303.897 2352.074 297.557"/><polygon class="cls-6" points="2485.119 297.632 2485.048 284.966 2473.91 278.695 2462.845 285.091 2462.916 297.757 2474.154 303.972 2485.119 297.632"/><polygon class="cls-6" points="2528.953 297.664 2528.882 284.997 2517.745 278.727 2506.679 285.122 2506.75 297.789 2517.988 304.003 2528.953 297.664"/><polygon class="cls-7" points="2505.102 333.735 2505.045 323.601 2496.135 318.585 2487.282 323.701 2487.339 333.834 2496.33 338.806 2505.102 333.735"/><polygon class="cls-7" points="2592.916 333.906 2592.86 323.773 2583.95 318.756 2575.097 323.873 2575.154 334.006 2584.145 338.978 2592.916 333.906"/><polygon class="cls-6" points="2661.352 297.842 2661.281 285.175 2650.144 278.904 2639.078 285.3 2639.149 297.966 2650.387 304.181 2661.352 297.842"/><polygon class="cls-6" points="2705.186 297.873 2705.115 285.207 2693.978 278.936 2682.912 285.331 2682.983 297.998 2694.221 304.213 2705.186 297.873"/><polygon class="cls-6" points="2882.064 297.98 2881.993 285.313 2870.856 279.042 2859.79 285.438 2859.861 298.105 2871.1 304.319 2882.064 297.98"/><polygon class="cls-7" points="2946.037 333.938 2945.98 323.805 2937.07 318.788 2928.217 323.904 2928.274 334.038 2937.265 339.009 2946.037 333.938"/><polygon class="cls-6" points="3014.472 297.873 3014.401 285.207 3003.264 278.936 2992.198 285.332 2992.269 297.998 3003.508 304.213 3014.472 297.873"/><polygon class="cls-6" points="3058.306 297.905 3058.235 285.239 3047.098 278.968 3036.032 285.363 3036.103 298.03 3047.342 304.244 3058.306 297.905"/><polygon class="cls-7" points="3034.455 333.976 3034.398 323.842 3025.488 318.826 3016.636 323.942 3016.693 334.076 3025.683 339.047 3034.455 333.976"/><polygon class="cls-6" points="3191.351 297.98 3191.279 285.314 3180.142 279.043 3169.076 285.438 3169.148 298.105 3180.386 304.32 3191.351 297.98"/><polygon class="cls-6" points="3235.185 298.012 3235.113 285.345 3223.976 279.074 3212.91 285.47 3212.982 298.136 3224.22 304.351 3235.185 298.012"/><polygon class="cls-6" points="3411.418 298.221 3411.347 285.554 3400.21 279.284 3389.144 285.679 3389.215 298.346 3400.453 304.56 3411.418 298.221"/><polygon class="cls-7" points="3387.566 334.291 3387.51 324.158 3378.6 319.142 3369.747 324.258 3369.804 334.391 3378.795 339.363 3387.566 334.291"/><polygon class="cls-6" points="3499.878 298.29 3499.807 285.623 3488.67 279.352 3477.604 285.748 3477.675 298.414 3488.913 304.629 3499.878 298.29"/><polygon class="cls-6" points="1822.156 297.274 1822.084 284.608 1810.947 278.337 1799.881 284.732 1799.953 297.399 1811.191 303.614 1822.156 297.274"/><polygon class="cls-6" points="1954.555 297.452 1954.483 284.785 1943.346 278.514 1932.28 284.91 1932.352 297.576 1943.59 303.791 1954.555 297.452"/><polygon class="cls-6" points="1998.389 297.483 1998.318 284.817 1987.18 278.546 1976.115 284.942 1976.186 297.608 1987.424 303.823 1998.389 297.483"/><polygon class="cls-7" points="2062.998 333.623 2062.941 323.49 2054.031 318.473 2045.178 323.589 2045.235 333.723 2054.226 338.694 2062.998 333.623"/><polygon class="cls-6" points="2131.433 297.558 2131.362 284.892 2120.225 278.621 2109.159 285.017 2109.23 297.683 2120.468 303.898 2131.433 297.558"/><polygon class="cls-6" points="2175.267 297.59 2175.196 284.923 2164.059 278.653 2152.993 285.048 2153.064 297.715 2164.303 303.929 2175.267 297.59"/><polygon class="cls-7" points="2151.416 333.661 2151.359 323.527 2142.449 318.511 2133.596 323.627 2133.653 333.76 2142.644 338.732 2151.416 333.661"/><polygon class="cls-8" points="2820.335 361.615 2820.377 369.215 2827.06 372.977 2833.699 369.14 2833.656 361.54 2826.913 357.811 2820.335 361.615"/><polygon class="cls-7" points="2795.897 322.993 2795.954 333.126 2804.864 338.143 2813.716 333.026 2813.659 322.893 2804.669 317.921 2795.897 322.993"/><polygon class="cls-8" points="2688.04 361.514 2688.083 369.114 2694.765 372.877 2701.405 369.039 2701.362 361.439 2694.619 357.711 2688.04 361.514"/><polygon class="cls-7" points="2707.437 322.924 2707.494 333.057 2716.403 338.074 2725.256 332.957 2725.199 322.824 2716.208 317.853 2707.437 322.924"/><polygon class="cls-8" points="2572.456 361.508 2572.499 369.108 2579.181 372.87 2585.821 369.033 2585.778 361.433 2579.035 357.704 2572.456 361.508"/><polygon class="cls-8" points="2378.763 361.23 2378.806 368.83 2385.488 372.592 2392.127 368.755 2392.085 361.155 2385.342 357.426 2378.763 361.23"/><polygon class="cls-7" points="2354.325 322.608 2354.382 332.741 2363.292 337.758 2372.145 332.642 2372.088 322.508 2363.097 317.537 2354.325 322.608"/><polygon class="cls-7" points="2265.907 322.57 2265.964 332.703 2274.874 337.72 2283.726 332.604 2283.67 322.47 2274.679 317.499 2265.907 322.57"/><polygon class="cls-8" points="2202.521 361.305 2202.564 368.905 2209.246 372.667 2215.885 368.83 2215.843 361.23 2209.1 357.501 2202.521 361.305"/><polygon class="cls-8" points="1954.643 361.198 1954.685 368.798 1961.368 372.56 1968.007 368.723 1967.964 361.123 1961.221 357.394 1954.643 361.198"/><polygon class="cls-8" points="1893.39 361.129 1893.433 368.728 1900.115 372.491 1906.755 368.654 1906.712 361.054 1899.969 357.325 1893.39 361.129"/><polygon class="cls-7" points="1912.787 322.538 1912.844 332.671 1921.753 337.688 1930.606 332.572 1930.549 322.438 1921.558 317.467 1912.787 322.538"/><polygon class="cls-7" points="1824.972 322.367 1825.029 332.5 1833.938 337.517 1842.791 332.4 1842.734 322.267 1833.744 317.295 1824.972 322.367"/><polygon class="cls-8" points="1760.991 360.951 1761.034 368.551 1767.716 372.313 1774.356 368.476 1774.313 360.876 1767.57 357.147 1760.991 360.951"/><polygon class="cls-7" points="1736.554 322.329 1736.611 332.462 1745.52 337.479 1754.373 332.362 1754.316 322.229 1745.325 317.257 1736.554 322.329"/><polygon class="cls-8" points="3394.838 361.904 3394.88 369.504 3401.563 373.267 3408.202 369.429 3408.159 361.83 3401.416 358.101 3394.838 361.904"/><polygon class="cls-8" points="3262.439 361.727 3262.481 369.327 3269.163 373.089 3275.803 369.252 3275.76 361.652 3269.017 357.923 3262.439 361.727"/><polygon class="cls-7" points="3238.001 323.105 3238.058 333.238 3246.968 338.255 3255.82 333.138 3255.763 323.005 3246.773 318.033 3238.001 323.105"/><polygon class="cls-8" points="3130.186 361.657 3130.229 369.257 3136.911 373.02 3143.551 369.182 3143.508 361.582 3136.765 357.854 3130.186 361.657"/><polygon class="cls-7" points="3149.583 323.067 3149.64 333.2 3158.549 338.217 3167.402 333.1 3167.345 322.967 3158.354 317.995 3149.583 323.067"/><polygon class="cls-8" points="2953.308 361.551 2953.351 369.15 2960.033 372.913 2966.672 369.076 2966.63 361.476 2959.887 357.747 2953.308 361.551"/><polygon class="cls-9" points="2192.271 405.082 2192.243 400.015 2187.788 397.507 2183.361 400.065 2183.39 405.132 2187.885 407.618 2192.271 405.082"/><polygon class="cls-9" points="2412.983 405.22 2412.955 400.154 2408.5 397.645 2404.074 400.203 2404.102 405.27 2408.598 407.756 2412.983 405.22"/><polygon class="cls-9" points="2633.801 405.436 2633.772 400.369 2629.317 397.861 2624.891 400.419 2624.919 405.486 2629.415 407.971 2633.801 405.436"/><polygon class="cls-9" points="2854.513 405.574 2854.485 400.507 2850.03 397.999 2845.603 400.557 2845.632 405.624 2850.127 408.11 2854.513 405.574"/><polygon class="cls-9" points="3075.381 405.536 3075.353 400.47 3070.898 397.961 3066.472 400.52 3066.5 405.586 3070.995 408.072 3075.381 405.536"/><polygon class="cls-9" points="3295.448 405.777 3295.42 400.71 3290.965 398.202 3286.539 400.76 3286.567 405.827 3291.063 408.313 3295.448 405.777"/><polygon class="cls-9" points="1750.77 404.837 1750.742 399.77 1746.287 397.262 1741.861 399.82 1741.889 404.887 1746.385 407.372 1750.77 404.837"/><polygon class="cls-9" points="1970.838 405.077 1970.809 400.011 1966.354 397.502 1961.928 400.061 1961.956 405.127 1966.452 407.613 1970.838 405.077"/><polygon class="cls-1" points="4017.636 113.737 4017.493 88.404 3995.219 75.863 3973.087 88.654 3973.23 113.987 3995.707 126.416 4017.636 113.737"/><polygon class="cls-1" points="4106.054 113.775 4105.912 88.442 4083.637 75.9 4061.506 88.692 4061.648 114.025 4084.125 126.454 4106.054 113.775"/><polygon class="cls-1" points="4194.514 113.844 4194.372 88.511 4172.098 75.969 4149.966 88.76 4150.108 114.093 4172.585 126.523 4194.514 113.844"/><polygon class="cls-1" points="4282.932 113.882 4282.79 88.549 4260.516 76.007 4238.384 88.798 4238.526 114.131 4261.003 126.561 4282.932 113.882"/><polygon class="cls-1" points="4370.747 114.053 4370.605 88.72 4348.331 76.178 4326.199 88.97 4326.341 114.303 4348.818 126.732 4370.747 114.053"/><polygon class="cls-1" points="4459.166 114.091 4459.023 88.758 4436.749 76.216 4414.617 89.007 4414.76 114.34 4437.236 126.77 4459.166 114.091"/><polygon class="cls-1" points="4547.626 114.16 4547.483 88.827 4525.209 76.285 4503.077 89.076 4503.22 114.409 4525.697 126.839 4547.626 114.16"/><polygon class="cls-1" points="4636.044 114.197 4635.902 88.865 4613.627 76.323 4591.496 89.114 4591.638 114.447 4614.115 126.876 4636.044 114.197"/><polygon class="cls-1" points="4723.868 114.085 4723.725 88.752 4701.451 76.21 4679.319 89.001 4679.462 114.334 4701.939 126.764 4723.868 114.085"/><polygon class="cls-1" points="4812.286 114.123 4812.144 88.79 4789.869 76.248 4767.738 89.039 4767.88 114.372 4790.357 126.802 4812.286 114.123"/><polygon class="cls-1" points="4900.746 114.191 4900.604 88.859 4878.329 76.317 4856.198 89.108 4856.34 114.441 4878.817 126.87 4900.746 114.191"/><polygon class="cls-1" points="4989.164 114.229 4989.022 88.896 4966.748 76.355 4944.616 89.146 4944.758 114.479 4967.235 126.908 4989.164 114.229"/><polygon class="cls-1" points="5076.979 114.401 5076.837 89.068 5054.563 76.526 5032.431 89.317 5032.573 114.65 5055.05 127.08 5076.979 114.401"/><polygon class="cls-1" points="3576.135 113.492 3575.993 88.159 3553.719 75.617 3531.587 88.408 3531.729 113.741 3554.206 126.171 3576.135 113.492"/><polygon class="cls-1" points="3663.95 113.663 3663.808 88.33 3641.534 75.788 3619.402 88.58 3619.544 113.913 3642.021 126.342 3663.95 113.663"/><polygon class="cls-1" points="3752.368 113.701 3752.226 88.368 3729.952 75.826 3707.82 88.618 3707.962 113.951 3730.439 126.38 3752.368 113.701"/><polygon class="cls-1" points="3840.828 113.77 3840.686 88.437 3818.412 75.895 3796.28 88.686 3796.422 114.019 3818.899 126.449 3840.828 113.77"/><polygon class="cls-1" points="3929.247 113.808 3929.104 88.475 3906.83 75.933 3884.698 88.724 3884.841 114.057 3907.318 126.487 3929.247 113.808"/><polygon class="cls-2" points="4659.855 132.682 4659.983 155.482 4680.03 166.769 4699.948 155.257 4699.82 132.458 4679.591 121.271 4659.855 132.682"/><polygon class="cls-1" points="4635.417 89.06 4635.559 114.393 4657.834 126.935 4679.965 114.144 4679.823 88.811 4657.346 76.381 4635.417 89.06"/><polygon class="cls-2" points="4571.436 132.644 4571.565 155.444 4591.611 166.732 4611.53 155.219 4611.402 132.42 4591.173 121.233 4571.436 132.644"/><polygon class="cls-2" points="4527.602 132.613 4527.731 155.412 4547.777 166.7 4567.696 155.188 4567.568 132.388 4547.339 121.202 4527.602 132.613"/><polygon class="cls-1" points="4546.999 89.023 4547.141 114.356 4569.415 126.897 4591.547 114.106 4591.405 88.773 4568.928 76.344 4546.999 89.023"/><polygon class="cls-2" points="4482.976 132.576 4483.104 155.375 4503.151 166.663 4523.07 155.151 4522.942 132.351 4502.713 121.164 4482.976 132.576"/><polygon class="cls-2" points="4439.142 132.544 4439.27 155.344 4459.317 166.631 4479.236 155.119 4479.108 132.319 4458.878 121.133 4439.142 132.544"/><polygon class="cls-1" points="4458.539 88.954 4458.681 114.287 4480.955 126.828 4503.087 114.037 4502.945 88.704 4480.468 76.275 4458.539 88.954"/><polygon class="cls-2" points="4394.558 132.538 4394.686 155.337 4414.733 166.625 4434.652 155.113 4434.523 132.313 4414.294 121.127 4394.558 132.538"/><polygon class="cls-2" points="4350.724 132.506 4350.852 155.306 4370.899 166.593 4390.818 155.081 4390.689 132.281 4370.46 121.095 4350.724 132.506"/><polygon class="cls-1" points="4370.121 88.916 4370.263 114.249 4392.537 126.79 4414.669 113.999 4414.527 88.666 4392.05 76.237 4370.121 88.916"/><polygon class="cls-2" points="4262.909 132.335 4263.037 155.134 4283.084 166.422 4303.003 154.91 4302.874 132.11 4282.645 120.924 4262.909 132.335"/><polygon class="cls-1" points="4282.306 88.745 4282.448 114.077 4304.722 126.619 4326.854 113.828 4326.712 88.495 4304.235 76.066 4282.306 88.745"/><polygon class="cls-2" points="4218.325 132.328 4218.453 155.128 4238.5 166.416 4258.418 154.903 4258.29 132.104 4238.061 120.917 4218.325 132.328"/><polygon class="cls-2" points="4174.491 132.297 4174.619 155.097 4194.666 166.384 4214.584 154.872 4214.456 132.072 4194.227 120.886 4174.491 132.297"/><polygon class="cls-1" points="4193.887 88.707 4194.03 114.04 4216.304 126.581 4238.436 113.79 4238.293 88.457 4215.816 76.028 4193.887 88.707"/><polygon class="cls-2" points="4129.865 132.26 4129.993 155.059 4150.04 166.347 4169.958 154.835 4169.83 132.035 4149.601 120.849 4129.865 132.26"/><polygon class="cls-2" points="4086.031 132.228 4086.159 155.028 4106.206 166.315 4126.124 154.803 4125.996 132.003 4105.767 120.817 4086.031 132.228"/><polygon class="cls-1" points="4105.427 88.638 4105.57 113.971 4127.844 126.512 4149.976 113.721 4149.833 88.388 4127.356 75.959 4105.427 88.638"/><polygon class="cls-2" points="4041.447 132.222 4041.575 155.021 4061.622 166.309 4081.54 154.797 4081.412 131.997 4061.183 120.811 4041.447 132.222"/><polygon class="cls-1" points="4017.009 88.6 4017.151 113.933 4039.426 126.475 4061.557 113.683 4061.415 88.35 4038.938 75.921 4017.009 88.6"/><polygon class="cls-2" points="3953.623 132.334 3953.751 155.134 3973.798 166.422 3993.716 154.909 3993.588 132.11 3973.359 120.923 3953.623 132.334"/><polygon class="cls-2" points="3909.789 132.303 3909.917 155.102 3929.964 166.39 3949.882 154.878 3949.754 132.078 3929.525 120.892 3909.789 132.303"/><polygon class="cls-1" points="3929.185 88.713 3929.328 114.045 3951.602 126.587 3973.734 113.796 3973.591 88.463 3951.114 76.034 3929.185 88.713"/><polygon class="cls-2" points="3865.205 132.296 3865.333 155.096 3885.38 166.384 3905.298 154.872 3905.17 132.072 3884.941 120.885 3865.205 132.296"/><polygon class="cls-1" points="3840.767 88.675 3840.909 114.008 3863.184 126.549 3885.315 113.758 3885.173 88.425 3862.696 75.996 3840.767 88.675"/><polygon class="cls-2" points="3776.744 132.228 3776.873 155.027 3796.919 166.315 3816.838 154.803 3816.71 132.003 3796.481 120.817 3776.744 132.228"/><polygon class="cls-2" points="3732.91 132.196 3733.039 154.996 3753.085 166.283 3773.004 154.771 3772.876 131.971 3752.647 120.785 3732.91 132.196"/><polygon class="cls-1" points="3752.307 88.606 3752.449 113.939 3774.723 126.48 3796.855 113.689 3796.713 88.356 3774.236 75.927 3752.307 88.606"/><polygon class="cls-2" points="3644.492 132.158 3644.62 154.958 3664.667 166.245 3684.586 154.733 3684.458 131.934 3664.228 120.747 3644.492 132.158"/><polygon class="cls-1" points="3663.889 88.568 3664.031 113.901 3686.305 126.443 3708.437 113.651 3708.295 88.318 3685.818 75.889 3663.889 88.568"/><polygon class="cls-2" points="3600.511 132.018 3600.639 154.818 3620.686 166.106 3640.605 154.593 3640.477 131.794 3620.248 120.607 3600.511 132.018"/><polygon class="cls-2" points="3556.677 131.987 3556.805 154.786 3576.852 166.074 3596.771 154.562 3596.643 131.762 3576.413 120.576 3556.677 131.987"/><polygon class="cls-1" points="3576.074 88.397 3576.216 113.73 3598.49 126.271 3620.622 113.48 3620.48 88.147 3598.003 75.718 3576.074 88.397"/><polygon class="cls-2" points="3512.093 131.981 3512.221 154.78 3532.268 166.068 3552.187 154.556 3552.058 131.756 3531.829 120.569 3512.093 131.981"/><polygon class="cls-2" points="5013.54 132.756 5013.669 155.556 5033.715 166.844 5053.634 155.331 5053.506 132.532 5033.277 121.345 5013.54 132.756"/><polygon class="cls-2" points="4969.706 132.725 4969.834 155.524 4989.881 166.812 5009.8 155.3 5009.672 132.5 4989.443 121.314 4969.706 132.725"/><polygon class="cls-1" points="4989.103 89.135 4989.245 114.468 5011.519 127.009 5033.651 114.218 5033.509 88.885 5011.032 76.456 4989.103 89.135"/><polygon class="cls-2" points="4881.288 132.687 4881.416 155.487 4901.463 166.774 4921.382 155.262 4921.254 132.462 4901.024 121.276 4881.288 132.687"/><polygon class="cls-1" points="4900.685 89.097 4900.827 114.43 4923.101 126.971 4945.233 114.18 4945.091 88.847 4922.614 76.418 4900.685 89.097"/><polygon class="cls-2" points="4836.662 132.65 4836.79 155.449 4856.837 166.737 4876.756 155.225 4876.627 132.425 4856.398 121.239 4836.662 132.65"/><polygon class="cls-2" points="4792.828 132.618 4792.956 155.418 4813.003 166.705 4832.922 155.193 4832.793 132.394 4812.564 121.207 4792.828 132.618"/><polygon class="cls-1" points="4812.224 89.028 4812.367 114.361 4834.641 126.903 4856.773 114.111 4856.63 88.778 4834.154 76.349 4812.224 89.028"/><polygon class="cls-2" points="4748.244 132.612 4748.372 155.411 4768.419 166.699 4788.337 155.187 4788.209 132.387 4767.98 121.201 4748.244 132.612"/><polygon class="cls-2" points="4704.41 132.58 4704.538 155.38 4724.585 166.667 4744.503 155.155 4744.375 132.356 4724.146 121.169 4704.41 132.58"/><polygon class="cls-1" points="4723.806 88.99 4723.949 114.323 4746.223 126.865 4768.355 114.073 4768.212 88.74 4745.735 76.311 4723.806 88.99"/><polygon class="cls-3" points="3970.102 191.229 3969.988 170.963 3952.169 160.929 3934.463 171.162 3934.577 191.429 3952.559 201.372 3970.102 191.229"/><polygon class="cls-3" points="4013.936 191.261 4013.822 170.994 3996.003 160.961 3978.297 171.194 3978.411 191.46 3996.393 201.404 4013.936 191.261"/><polygon class="cls-3" points="4058.52 191.267 4058.406 171 4040.587 160.967 4022.881 171.2 4022.995 191.466 4040.977 201.41 4058.52 191.267"/><polygon class="cls-3" points="4146.98 191.336 4146.866 171.069 4129.047 161.036 4111.342 171.269 4111.455 191.535 4129.437 201.479 4146.98 191.336"/><polygon class="cls-3" points="4190.814 191.367 4190.7 171.101 4172.881 161.067 4155.176 171.3 4155.29 191.567 4173.271 201.51 4190.814 191.367"/><polygon class="cls-3" points="4235.398 191.373 4235.285 171.107 4217.465 161.074 4199.76 171.307 4199.874 191.573 4217.855 201.517 4235.398 191.373"/><polygon class="cls-3" points="4323.213 191.545 4323.099 171.278 4305.28 161.245 4287.575 171.478 4287.689 191.744 4305.67 201.688 4323.213 191.545"/><polygon class="cls-3" points="4367.047 191.576 4366.934 171.31 4349.114 161.277 4331.409 171.51 4331.523 191.776 4349.504 201.72 4367.047 191.576"/><polygon class="cls-3" points="4411.632 191.583 4411.518 171.316 4393.698 161.283 4375.993 171.516 4376.107 191.782 4394.088 201.726 4411.632 191.583"/><polygon class="cls-3" points="4500.092 191.651 4499.978 171.385 4482.158 161.352 4464.453 171.585 4464.567 191.851 4482.548 201.795 4500.092 191.651"/><polygon class="cls-3" points="4588.51 191.689 4588.396 171.423 4570.577 161.39 4552.871 171.623 4552.985 191.889 4570.967 201.832 4588.51 191.689"/><polygon class="cls-3" points="4676.334 191.577 4676.22 171.31 4658.4 161.277 4640.695 171.51 4640.809 191.776 4658.79 201.72 4676.334 191.577"/><polygon class="cls-3" points="4720.168 191.608 4720.054 171.342 4702.235 161.309 4684.529 171.542 4684.643 191.808 4702.624 201.751 4720.168 191.608"/><polygon class="cls-3" points="4764.752 191.615 4764.638 171.348 4746.819 161.315 4729.113 171.548 4729.227 191.814 4747.209 201.758 4764.752 191.615"/><polygon class="cls-3" points="4853.212 191.683 4853.098 171.417 4835.279 161.384 4817.573 171.617 4817.687 191.883 4835.669 201.826 4853.212 191.683"/><polygon class="cls-3" points="4897.046 191.715 4896.932 171.449 4879.113 161.415 4861.407 171.648 4861.521 191.915 4879.503 201.858 4897.046 191.715"/><polygon class="cls-3" points="4941.63 191.721 4941.516 171.455 4923.697 161.421 4905.992 171.654 4906.106 191.921 4924.087 201.864 4941.63 191.721"/><polygon class="cls-3" points="5029.445 191.892 5029.331 171.626 5011.512 161.593 4993.807 171.826 4993.92 192.092 5011.902 202.036 5029.445 191.892"/><polygon class="cls-3" points="5073.279 191.924 5073.165 171.658 5055.346 161.624 5037.641 171.857 5037.754 192.124 5055.736 202.067 5073.279 191.924"/><polygon class="cls-3" points="3528.601 190.984 3528.487 170.717 3510.668 160.684 3492.963 170.917 3493.076 191.183 3511.058 201.127 3528.601 190.984"/><polygon class="cls-3" points="3616.416 191.155 3616.302 170.889 3598.483 160.855 3580.777 171.088 3580.891 191.355 3598.873 201.298 3616.416 191.155"/><polygon class="cls-3" points="3660.25 191.186 3660.136 170.92 3642.317 160.887 3624.612 171.12 3624.725 191.386 3642.707 201.33 3660.25 191.186"/><polygon class="cls-3" points="3704.834 191.193 3704.72 170.926 3686.901 160.893 3669.196 171.126 3669.31 191.392 3687.291 201.336 3704.834 191.193"/><polygon class="cls-3" points="3793.295 191.262 3793.181 170.995 3775.361 160.962 3757.656 171.195 3757.77 191.461 3775.751 201.405 3793.295 191.262"/><polygon class="cls-3" points="3837.129 191.293 3837.015 171.027 3819.195 160.993 3801.49 171.226 3801.604 191.493 3819.585 201.436 3837.129 191.293"/><polygon class="cls-3" points="3881.713 191.299 3881.599 171.033 3863.779 161 3846.074 171.233 3846.188 191.499 3864.169 201.443 3881.713 191.299"/><polygon class="cls-4" points="4645.668 247.835 4645.753 263.035 4659.118 270.56 4672.397 262.885 4672.312 247.685 4658.825 240.228 4645.668 247.835"/><polygon class="cls-4" points="4601.834 247.803 4601.919 263.003 4615.284 270.528 4628.563 262.853 4628.478 247.654 4614.991 240.196 4601.834 247.803"/><polygon class="cls-5" points="4621.23 209.213 4621.33 226.946 4636.922 235.725 4652.414 226.772 4652.315 209.039 4636.581 200.338 4621.23 209.213"/><polygon class="cls-4" points="4513.416 247.766 4513.501 262.965 4526.866 270.49 4540.145 262.816 4540.059 247.616 4526.573 240.158 4513.416 247.766"/><polygon class="cls-5" points="4532.812 209.175 4532.912 226.908 4548.504 235.688 4563.996 226.734 4563.896 209.001 4548.163 200.3 4532.812 209.175"/><polygon class="cls-4" points="4468.79 247.728 4468.875 262.928 4482.24 270.453 4495.519 262.778 4495.433 247.579 4481.947 240.121 4468.79 247.728"/><polygon class="cls-5" points="4444.352 209.107 4444.452 226.84 4460.044 235.619 4475.536 226.665 4475.436 208.932 4459.702 200.231 4444.352 209.107"/><polygon class="cls-4" points="4380.371 247.69 4380.457 262.89 4393.821 270.415 4407.1 262.74 4407.015 247.541 4393.529 240.083 4380.371 247.69"/><polygon class="cls-4" points="4336.537 247.659 4336.623 262.859 4349.987 270.384 4363.266 262.709 4363.181 247.509 4349.695 240.051 4336.537 247.659"/><polygon class="cls-5" points="4355.934 209.069 4356.033 226.802 4371.625 235.581 4387.118 226.627 4387.018 208.894 4371.284 200.193 4355.934 209.069"/><polygon class="cls-4" points="4248.722 247.488 4248.808 262.687 4262.172 270.212 4275.451 262.538 4275.366 247.338 4261.88 239.88 4248.722 247.488"/><polygon class="cls-5" points="4268.119 208.897 4268.219 226.63 4283.81 235.41 4299.303 226.456 4299.203 208.723 4283.469 200.022 4268.119 208.897"/><polygon class="cls-5" points="4179.701 208.859 4179.8 226.592 4195.392 235.372 4210.885 226.418 4210.785 208.685 4195.051 199.984 4179.701 208.859"/><polygon class="cls-4" points="4115.678 247.412 4115.764 262.612 4129.128 270.137 4142.407 262.462 4142.322 247.263 4128.836 239.805 4115.678 247.412"/><polygon class="cls-4" points="4071.844 247.381 4071.929 262.581 4085.294 270.106 4098.573 262.431 4098.488 247.231 4085.002 239.773 4071.844 247.381"/><polygon class="cls-5" points="4091.241 208.791 4091.34 226.524 4106.932 235.303 4122.424 226.349 4122.325 208.616 4106.591 199.915 4091.241 208.791"/><polygon class="cls-4" points="3983.426 247.343 3983.511 262.543 3996.876 270.068 4010.155 262.393 4010.069 247.193 3996.583 239.736 3983.426 247.343"/><polygon class="cls-5" points="4002.822 208.753 4002.922 226.486 4018.514 235.265 4034.006 226.311 4033.907 208.578 4018.173 199.877 4002.822 208.753"/><polygon class="cls-4" points="3939.436 247.487 3939.522 262.687 3952.886 270.212 3966.165 262.537 3966.08 247.337 3952.594 239.88 3939.436 247.487"/><polygon class="cls-5" points="3914.999 208.865 3915.098 226.598 3930.69 235.378 3946.182 226.424 3946.083 208.691 3930.349 199.99 3914.999 208.865"/><polygon class="cls-4" points="3851.018 247.449 3851.103 262.649 3864.468 270.174 3877.747 262.499 3877.662 247.299 3864.175 239.842 3851.018 247.449"/><polygon class="cls-4" points="3807.184 247.418 3807.269 262.617 3820.634 270.142 3833.913 262.468 3833.827 247.268 3820.341 239.81 3807.184 247.418"/><polygon class="cls-5" points="3826.58 208.827 3826.68 226.56 3842.272 235.34 3857.764 226.386 3857.665 208.653 3841.931 199.952 3826.58 208.827"/><polygon class="cls-4" points="3718.724 247.349 3718.809 262.549 3732.174 270.074 3745.453 262.399 3745.367 247.199 3731.881 239.741 3718.724 247.349"/><polygon class="cls-5" points="3738.12 208.759 3738.22 226.492 3753.812 235.271 3769.304 226.317 3769.204 208.584 3753.471 199.883 3738.12 208.759"/><polygon class="cls-4" points="3674.14 247.343 3674.225 262.542 3687.589 270.067 3700.869 262.393 3700.783 247.193 3687.297 239.735 3674.14 247.343"/><polygon class="cls-5" points="3649.702 208.721 3649.802 226.454 3665.394 235.233 3680.886 226.279 3680.786 208.546 3665.052 199.845 3649.702 208.721"/><polygon class="cls-4" points="3586.325 247.171 3586.41 262.371 3599.775 269.896 3613.054 262.221 3612.968 247.021 3599.482 239.564 3586.325 247.171"/><polygon class="cls-4" points="3542.491 247.14 3542.576 262.339 3555.941 269.864 3569.22 262.19 3569.134 246.99 3555.648 239.532 3542.491 247.14"/><polygon class="cls-5" points="3561.887 208.549 3561.987 226.282 3577.579 235.062 3593.071 226.108 3592.971 208.375 3577.237 199.674 3561.887 208.549"/><polygon class="cls-4" points="3497.906 247.133 3497.992 262.333 3511.356 269.858 3524.635 262.183 3524.55 246.984 3511.064 239.526 3497.906 247.133"/><polygon class="cls-4" points="4999.354 247.909 4999.439 263.109 5012.804 270.634 5026.083 262.959 5025.997 247.759 5012.511 240.302 4999.354 247.909"/><polygon class="cls-4" points="4955.52 247.878 4955.605 263.077 4968.97 270.602 4982.249 262.928 4982.163 247.728 4968.677 240.27 4955.52 247.878"/><polygon class="cls-5" points="4974.916 209.287 4975.016 227.02 4990.608 235.8 5006.1 226.846 5006 209.113 4990.266 200.412 4974.916 209.287"/><polygon class="cls-4" points="4867.101 247.84 4867.187 263.039 4880.551 270.564 4893.83 262.89 4893.745 247.69 4880.259 240.232 4867.101 247.84"/><polygon class="cls-5" points="4886.498 209.249 4886.598 226.983 4902.189 235.762 4917.682 226.808 4917.582 209.075 4901.848 200.374 4886.498 209.249"/><polygon class="cls-4" points="4778.641 247.771 4778.727 262.971 4792.091 270.496 4805.37 262.821 4805.285 247.621 4791.799 240.163 4778.641 247.771"/><polygon class="cls-5" points="4798.038 209.181 4798.137 226.914 4813.729 235.693 4829.222 226.739 4829.122 209.006 4813.388 200.305 4798.038 209.181"/><polygon class="cls-4" points="4734.057 247.765 4734.143 262.964 4747.507 270.489 4760.786 262.815 4760.701 247.615 4747.215 240.157 4734.057 247.765"/><polygon class="cls-5" points="4709.62 209.143 4709.719 226.876 4725.311 235.655 4740.803 226.701 4740.704 208.968 4724.97 200.267 4709.62 209.143"/><polygon class="cls-6" points="4074.211 298.736 4074.14 286.07 4063.002 279.799 4051.937 286.195 4052.008 298.861 4063.246 305.076 4074.211 298.736"/><polygon class="cls-6" points="4118.045 298.768 4117.974 286.101 4106.836 279.831 4095.771 286.226 4095.842 298.893 4107.08 305.107 4118.045 298.768"/><polygon class="cls-6" points="4251.089 298.843 4251.018 286.176 4239.881 279.906 4228.815 286.301 4228.886 298.968 4240.125 305.182 4251.089 298.843"/><polygon class="cls-6" points="4294.923 298.875 4294.852 286.208 4283.715 279.937 4272.649 286.333 4272.72 298.999 4283.959 305.214 4294.923 298.875"/><polygon class="cls-7" points="4271.072 334.945 4271.015 324.812 4262.105 319.795 4253.252 324.912 4253.309 335.045 4262.3 340.017 4271.072 334.945"/><polygon class="cls-7" points="4358.887 335.117 4358.83 324.983 4349.92 319.967 4341.067 325.083 4341.124 335.216 4350.115 340.188 4358.887 335.117"/><polygon class="cls-6" points="4427.322 299.052 4427.251 286.386 4416.114 280.115 4405.048 286.51 4405.119 299.177 4416.358 305.392 4427.322 299.052"/><polygon class="cls-6" points="4471.156 299.084 4471.085 286.417 4459.948 280.146 4448.882 286.542 4448.953 299.208 4460.192 305.423 4471.156 299.084"/><polygon class="cls-6" points="4604.201 299.159 4604.129 286.492 4592.992 280.221 4581.926 286.617 4581.998 299.284 4593.236 305.498 4604.201 299.159"/><polygon class="cls-6" points="4648.035 299.19 4647.963 286.524 4636.826 280.253 4625.76 286.649 4625.832 299.315 4637.07 305.53 4648.035 299.19"/><polygon class="cls-7" points="4712.007 335.148 4711.95 325.015 4703.04 319.999 4694.188 325.115 4694.245 335.248 4703.235 340.22 4712.007 335.148"/><polygon class="cls-6" points="4780.443 299.084 4780.371 286.418 4769.234 280.147 4758.168 286.542 4758.24 299.209 4769.478 305.424 4780.443 299.084"/><polygon class="cls-6" points="4824.277 299.116 4824.205 286.449 4813.068 280.178 4802.002 286.574 4802.074 299.24 4813.312 305.455 4824.277 299.116"/><polygon class="cls-7" points="4800.425 335.186 4800.368 325.053 4791.459 320.036 4782.606 325.153 4782.663 335.286 4791.654 340.258 4800.425 335.186"/><polygon class="cls-6" points="4957.321 299.191 4957.25 286.524 4946.113 280.253 4935.047 286.649 4935.118 299.315 4946.356 305.53 4957.321 299.191"/><polygon class="cls-6" points="5001.155 299.222 5001.084 286.556 4989.947 280.285 4978.881 286.681 4978.952 299.347 4990.19 305.562 5001.155 299.222"/><polygon class="cls-6" points="3544.292 298.453 3544.221 285.787 3533.084 279.516 3522.018 285.911 3522.089 298.578 3533.327 304.793 3544.292 298.453"/><polygon class="cls-6" points="3588.126 298.485 3588.055 285.818 3576.918 279.547 3565.852 285.943 3565.923 298.609 3577.161 304.824 3588.126 298.485"/><polygon class="cls-6" points="3720.525 298.662 3720.454 285.996 3709.317 279.725 3698.251 286.121 3698.322 298.787 3709.56 305.002 3720.525 298.662"/><polygon class="cls-6" points="3764.359 298.694 3764.288 286.027 3753.151 279.757 3742.085 286.152 3742.156 298.819 3753.394 305.033 3764.359 298.694"/><polygon class="cls-7" points="3828.968 334.833 3828.911 324.7 3820.001 319.683 3811.149 324.8 3811.206 334.933 3820.196 339.905 3828.968 334.833"/><polygon class="cls-6" points="3897.403 298.769 3897.332 286.102 3886.195 279.832 3875.129 286.227 3875.2 298.894 3886.439 305.108 3897.403 298.769"/><polygon class="cls-6" points="3941.237 298.801 3941.166 286.134 3930.029 279.863 3918.963 286.259 3919.034 298.925 3930.273 305.14 3941.237 298.801"/><polygon class="cls-7" points="3917.386 334.871 3917.329 324.738 3908.419 319.721 3899.567 324.838 3899.624 334.971 3908.614 339.943 3917.386 334.871"/><polygon class="cls-8" points="4586.305 362.825 4586.348 370.425 4593.03 374.188 4599.669 370.35 4599.627 362.75 4592.884 359.022 4586.305 362.825"/><polygon class="cls-7" points="4561.867 324.204 4561.924 334.337 4570.834 339.353 4579.687 334.237 4579.63 324.104 4570.639 319.132 4561.867 324.204"/><polygon class="cls-8" points="4454.011 362.725 4454.053 370.325 4460.736 374.087 4467.375 370.25 4467.332 362.65 4460.589 358.921 4454.011 362.725"/><polygon class="cls-7" points="4473.407 324.135 4473.464 334.268 4482.374 339.285 4491.226 334.168 4491.17 324.035 4482.179 319.063 4473.407 324.135"/><polygon class="cls-8" points="4409.427 362.719 4409.469 370.319 4416.152 374.081 4422.791 370.244 4422.748 362.644 4416.005 358.915 4409.427 362.719"/><polygon class="cls-8" points="4100.899 362.409 4100.942 370.009 4107.624 373.771 4114.264 369.934 4114.221 362.334 4107.478 358.605 4100.899 362.409"/><polygon class="cls-7" points="4120.296 323.819 4120.353 333.952 4129.262 338.969 4138.115 333.852 4138.058 323.719 4129.067 318.747 4120.296 323.819"/><polygon class="cls-7" points="4031.877 323.781 4031.934 333.914 4040.844 338.931 4049.697 333.814 4049.64 323.681 4040.649 318.709 4031.877 323.781"/><polygon class="cls-8" points="3968.491 362.515 3968.534 370.115 3975.216 373.878 3981.856 370.04 3981.813 362.44 3975.07 358.712 3968.491 362.515"/><polygon class="cls-8" points="3836.239 362.446 3836.282 370.046 3842.964 373.808 3849.604 369.971 3849.561 362.371 3842.818 358.642 3836.239 362.446"/><polygon class="cls-8" points="3659.361 362.339 3659.403 369.939 3666.086 373.701 3672.725 369.864 3672.682 362.264 3665.939 358.535 3659.361 362.339"/><polygon class="cls-7" points="3678.757 323.749 3678.814 333.882 3687.724 338.899 3696.576 333.782 3696.52 323.649 3687.529 318.677 3678.757 323.749"/><polygon class="cls-7" points="3590.942 323.578 3590.999 333.711 3599.909 338.727 3608.762 333.611 3608.705 323.478 3599.714 318.506 3590.942 323.578"/><polygon class="cls-8" points="3526.962 362.161 3527.004 369.761 3533.687 373.524 3540.326 369.686 3540.283 362.087 3533.54 358.358 3526.962 362.161"/><polygon class="cls-7" points="3502.524 323.54 3502.581 333.673 3511.491 338.69 3520.343 333.573 3520.286 323.44 3511.296 318.468 3502.524 323.54"/><polygon class="cls-8" points="5028.409 362.937 5028.452 370.537 5035.134 374.3 5041.773 370.462 5041.731 362.862 5034.988 359.134 5028.409 362.937"/><polygon class="cls-7" points="5003.971 324.316 5004.028 334.449 5012.938 339.465 5021.791 334.349 5021.734 324.216 5012.743 319.244 5003.971 324.316"/><polygon class="cls-8" points="4896.157 362.868 4896.199 370.468 4902.882 374.23 4909.521 370.393 4909.478 362.793 4902.735 359.064 4896.157 362.868"/><polygon class="cls-7" points="4915.553 324.278 4915.61 334.411 4924.52 339.427 4933.372 334.311 4933.315 324.178 4924.325 319.206 4915.553 324.278"/><polygon class="cls-8" points="4763.112 362.793 4763.155 370.393 4769.837 374.155 4776.477 370.318 4776.434 362.718 4769.691 358.989 4763.112 362.793"/><polygon class="cls-8" points="4648.278 362.761 4648.321 370.361 4655.003 374.124 4661.643 370.286 4661.6 362.686 4654.857 358.957 4648.278 362.761"/><polygon class="cls-9" points="3958.241 406.293 3958.213 401.226 3953.758 398.718 3949.332 401.276 3949.36 406.342 3953.855 408.828 3958.241 406.293"/><polygon class="cls-9" points="4178.954 406.431 4178.925 401.364 4174.47 398.856 4170.044 401.414 4170.073 406.481 4174.568 408.967 4178.954 406.431"/><polygon class="cls-9" points="4399.771 406.646 4399.743 401.58 4395.288 399.071 4390.861 401.63 4390.89 406.696 4395.385 409.182 4399.771 406.646"/><polygon class="cls-9" points="4620.483 406.784 4620.455 401.718 4616 399.209 4611.574 401.768 4611.602 406.834 4616.098 409.32 4620.483 406.784"/><polygon class="cls-9" points="4841.351 406.747 4841.323 401.68 4836.868 399.172 4832.442 401.73 4832.47 406.797 4836.966 409.283 4841.351 406.747"/><polygon class="cls-9" points="5061.419 406.988 5061.39 401.921 5056.935 399.413 5052.509 401.971 5052.537 407.038 5057.033 409.523 5061.419 406.988"/><polygon class="cls-9" points="3516.741 406.047 3516.712 400.981 3512.257 398.472 3507.831 401.031 3507.859 406.097 3512.355 408.583 3516.741 406.047"/><polygon class="cls-9" points="3736.808 406.288 3736.779 401.221 3732.325 398.713 3727.898 401.271 3727.927 406.338 3732.422 408.824 3736.808 406.288"/><polygon class="cls-1" points="486.07 110.737 485.928 85.404 463.654 72.863 441.522 85.654 441.664 110.987 464.141 123.416 486.07 110.737"/><polygon class="cls-1" points="574.489 110.775 574.346 85.442 552.072 72.9 529.94 85.692 530.083 111.025 552.559 123.454 574.489 110.775"/><polygon class="cls-1" points="662.949 110.844 662.806 85.511 640.532 72.969 618.4 85.76 618.543 111.093 641.02 123.523 662.949 110.844"/><polygon class="cls-1" points="751.367 110.882 751.224 85.549 728.95 73.007 706.819 85.798 706.961 111.131 729.438 123.561 751.367 110.882"/><polygon class="cls-1" points="839.182 111.053 839.039 85.72 816.765 73.178 794.633 85.97 794.776 111.303 817.253 123.732 839.182 111.053"/><polygon class="cls-1" points="927.6 111.091 927.458 85.758 905.183 73.216 883.052 86.007 883.194 111.34 905.671 123.77 927.6 111.091"/><polygon class="cls-1" points="1016.06 111.16 1015.918 85.827 993.644 73.285 971.512 86.076 971.654 111.409 994.131 123.839 1016.06 111.16"/><polygon class="cls-1" points="1104.478 111.197 1104.336 85.865 1082.062 73.323 1059.93 86.114 1060.072 111.447 1082.549 123.876 1104.478 111.197"/><polygon class="cls-1" points="1192.302 111.085 1192.16 85.752 1169.886 73.21 1147.754 86.001 1147.896 111.334 1170.373 123.764 1192.302 111.085"/><polygon class="cls-1" points="1280.72 111.123 1280.578 85.79 1258.304 73.248 1236.172 86.039 1236.314 111.372 1258.791 123.802 1280.72 111.123"/><polygon class="cls-1" points="1369.181 111.191 1369.038 85.859 1346.764 73.317 1324.632 86.108 1324.775 111.441 1347.251 123.87 1369.181 111.191"/><polygon class="cls-1" points="1457.599 111.229 1457.456 85.896 1435.182 73.355 1413.05 86.146 1413.193 111.479 1435.67 123.908 1457.599 111.229"/><polygon class="cls-1" points="1545.414 111.401 1545.271 86.068 1522.997 73.526 1500.865 86.317 1501.008 111.65 1523.485 124.08 1545.414 111.401"/><polygon class="cls-1" points="1633.832 111.439 1633.689 86.106 1611.415 73.564 1589.284 86.355 1589.426 111.688 1611.903 124.118 1633.832 111.439"/><polygon class="cls-1" points="1722.292 111.507 1722.15 86.174 1699.875 73.633 1677.744 86.424 1677.886 111.757 1700.363 124.186 1722.292 111.507"/><polygon class="cls-1" points="44.57 110.492 44.427 85.159 22.153 72.617 0.021 85.408 0.164 110.741 22.641 123.171 44.57 110.492"/><polygon class="cls-1" points="132.385 110.663 132.242 85.33 109.968 72.788 87.836 85.58 87.979 110.913 110.455 123.342 132.385 110.663"/><polygon class="cls-1" points="220.803 110.701 220.66 85.368 198.386 72.826 176.254 85.618 176.397 110.951 198.874 123.38 220.803 110.701"/><polygon class="cls-1" points="309.263 110.77 309.121 85.437 286.846 72.895 264.715 85.686 264.857 111.019 287.334 123.449 309.263 110.77"/><polygon class="cls-1" points="397.681 110.808 397.539 85.475 375.265 72.933 353.133 85.724 353.275 111.057 375.752 123.487 397.681 110.808"/><polygon class="cls-2" points="1128.289 129.682 1128.417 152.482 1148.464 163.769 1168.383 152.257 1168.255 129.458 1148.025 118.271 1128.289 129.682"/><polygon class="cls-2" points="1084.455 129.651 1084.583 152.45 1104.63 163.738 1124.549 152.226 1124.42 129.426 1104.191 118.24 1084.455 129.651"/><polygon class="cls-1" points="1103.852 86.06 1103.994 111.393 1126.268 123.935 1148.4 111.144 1148.258 85.811 1125.781 73.381 1103.852 86.06"/><polygon class="cls-2" points="1039.871 129.644 1039.999 152.444 1060.046 163.732 1079.964 152.219 1079.836 129.42 1059.607 118.233 1039.871 129.644"/><polygon class="cls-1" points="1015.433 86.023 1015.576 111.356 1037.85 123.897 1059.982 111.106 1059.839 85.773 1037.362 73.344 1015.433 86.023"/><polygon class="cls-2" points="951.411 129.576 951.539 152.375 971.586 163.663 991.504 152.151 991.376 129.351 971.147 118.164 951.411 129.576"/><polygon class="cls-2" points="907.577 129.544 907.705 152.344 927.752 163.631 947.67 152.119 947.542 129.319 927.313 118.133 907.577 129.544"/><polygon class="cls-1" points="926.973 85.954 927.116 111.287 949.39 123.828 971.522 111.037 971.379 85.704 948.902 73.275 926.973 85.954"/><polygon class="cls-2" points="819.159 129.506 819.287 152.306 839.333 163.593 859.252 152.081 859.124 129.281 838.895 118.095 819.159 129.506"/><polygon class="cls-1" points="838.555 85.916 838.697 111.249 860.972 123.79 883.103 110.999 882.961 85.666 860.484 73.237 838.555 85.916"/><polygon class="cls-2" points="775.178 129.366 775.306 152.166 795.353 163.454 815.271 151.941 815.143 129.142 794.914 117.955 775.178 129.366"/><polygon class="cls-2" points="731.344 129.335 731.472 152.134 751.518 163.422 771.437 151.91 771.309 129.11 751.08 117.924 731.344 129.335"/><polygon class="cls-1" points="750.74 85.745 750.882 111.077 773.157 123.619 795.288 110.828 795.146 85.495 772.669 73.066 750.74 85.745"/><polygon class="cls-2" points="686.759 129.328 686.888 152.128 706.934 163.416 726.853 151.903 726.725 129.104 706.496 117.917 686.759 129.328"/><polygon class="cls-2" points="642.925 129.297 643.054 152.097 663.1 163.384 683.019 151.872 682.891 129.072 662.662 117.886 642.925 129.297"/><polygon class="cls-1" points="662.322 85.707 662.464 111.04 684.738 123.581 706.87 110.79 706.728 85.457 684.251 73.028 662.322 85.707"/><polygon class="cls-2" points="598.299 129.26 598.427 152.059 618.474 163.347 638.393 151.835 638.265 129.035 618.035 117.849 598.299 129.26"/><polygon class="cls-1" points="573.862 85.638 574.004 110.971 596.278 123.512 618.41 110.721 618.268 85.388 595.791 72.959 573.862 85.638"/><polygon class="cls-2" points="509.881 129.222 510.009 152.021 530.056 163.309 549.975 151.797 549.846 128.997 529.617 117.811 509.881 129.222"/><polygon class="cls-2" points="466.047 129.19 466.175 151.99 486.222 163.277 506.141 151.765 506.012 128.966 485.783 117.779 466.047 129.19"/><polygon class="cls-1" points="485.444 85.6 485.586 110.933 507.86 123.475 529.992 110.683 529.849 85.35 507.373 72.921 485.444 85.6"/><polygon class="cls-2" points="422.057 129.334 422.185 152.134 442.232 163.422 462.151 151.909 462.023 129.11 441.793 117.923 422.057 129.334"/><polygon class="cls-2" points="378.223 129.303 378.351 152.102 398.398 163.39 418.317 151.878 418.189 129.078 397.959 117.892 378.223 129.303"/><polygon class="cls-1" points="397.62 85.713 397.762 111.045 420.036 123.587 442.168 110.796 442.026 85.463 419.549 73.034 397.62 85.713"/><polygon class="cls-2" points="333.639 129.296 333.767 152.096 353.814 163.384 373.733 151.872 373.604 129.072 353.375 117.885 333.639 129.296"/><polygon class="cls-2" points="289.805 129.265 289.933 152.065 309.98 163.352 329.899 151.84 329.77 129.04 309.541 117.854 289.805 129.265"/><polygon class="cls-1" points="309.202 85.675 309.344 111.008 331.618 123.549 353.75 110.758 353.607 85.425 331.131 72.996 309.202 85.675"/><polygon class="cls-2" points="201.345 129.196 201.473 151.996 221.52 163.283 241.438 151.771 241.31 128.971 221.081 117.785 201.345 129.196"/><polygon class="cls-1" points="220.741 85.606 220.884 110.939 243.158 123.48 265.29 110.689 265.147 85.356 242.67 72.927 220.741 85.606"/><polygon class="cls-2" points="156.761 129.19 156.889 151.989 176.936 163.277 196.854 151.765 196.726 128.965 176.497 117.779 156.761 129.19"/><polygon class="cls-2" points="112.927 129.158 113.055 151.958 133.102 163.245 153.02 151.733 152.892 128.934 132.663 117.747 112.927 129.158"/><polygon class="cls-1" points="132.323 85.568 132.466 110.901 154.74 123.443 176.872 110.651 176.729 85.318 154.252 72.889 132.323 85.568"/><polygon class="cls-2" points="68.946 129.018 69.074 151.818 89.121 163.106 109.039 151.593 108.911 128.794 88.682 117.607 68.946 129.018"/><polygon class="cls-2" points="25.112 128.987 25.24 151.786 45.287 163.074 65.205 151.562 65.077 128.762 44.848 117.576 25.112 128.987"/><polygon class="cls-1" points="44.508 85.397 44.651 110.73 66.925 123.271 89.057 110.48 88.914 85.147 66.437 72.718 44.508 85.397"/><polygon class="cls-2" points="1702.834 130.003 1702.962 152.803 1723.009 164.09 1742.928 152.578 1742.799 129.778 1722.57 118.592 1702.834 130.003"/><polygon class="cls-2" points="1658.208 129.966 1658.336 152.765 1678.383 164.053 1698.302 152.541 1698.173 129.741 1677.944 118.555 1658.208 129.966"/><polygon class="cls-2" points="1614.374 129.934 1614.502 152.734 1634.549 164.021 1654.467 152.509 1654.339 129.709 1634.11 118.523 1614.374 129.934"/><polygon class="cls-1" points="1633.77 86.344 1633.913 111.677 1656.187 124.218 1678.319 111.427 1678.176 86.094 1655.7 73.665 1633.77 86.344"/><polygon class="cls-2" points="1569.79 129.928 1569.918 152.727 1589.965 164.015 1609.883 152.503 1609.755 129.703 1589.526 118.517 1569.79 129.928"/><polygon class="cls-2" points="1525.956 129.896 1526.084 152.696 1546.131 163.983 1566.049 152.471 1565.921 129.672 1545.692 118.485 1525.956 129.896"/><polygon class="cls-1" points="1545.352 86.306 1545.495 111.639 1567.769 124.181 1589.901 111.389 1589.758 86.056 1567.281 73.627 1545.352 86.306"/><polygon class="cls-2" points="1438.141 129.725 1438.269 152.524 1458.316 163.812 1478.234 152.3 1478.106 129.5 1457.877 118.314 1438.141 129.725"/><polygon class="cls-1" points="1457.537 86.135 1457.68 111.468 1479.954 124.009 1502.086 111.218 1501.943 85.885 1479.466 73.456 1457.537 86.135"/><polygon class="cls-2" points="1393.557 129.719 1393.685 152.518 1413.732 163.806 1433.65 152.294 1433.522 129.494 1413.293 118.307 1393.557 129.719"/><polygon class="cls-2" points="1349.723 129.687 1349.851 152.487 1369.898 163.774 1389.816 152.262 1389.688 129.462 1369.459 118.276 1349.723 129.687"/><polygon class="cls-1" points="1369.119 86.097 1369.261 111.43 1391.536 123.971 1413.667 111.18 1413.525 85.847 1391.048 73.418 1369.119 86.097"/><polygon class="cls-2" points="1305.097 129.65 1305.225 152.449 1325.271 163.737 1345.19 152.225 1345.062 129.425 1324.833 118.239 1305.097 129.65"/><polygon class="cls-2" points="1261.262 129.618 1261.391 152.418 1281.437 163.705 1301.356 152.193 1301.228 129.394 1280.999 118.207 1261.262 129.618"/><polygon class="cls-1" points="1280.659 86.028 1280.801 111.361 1303.075 123.903 1325.207 111.111 1325.065 85.778 1302.588 73.349 1280.659 86.028"/><polygon class="cls-2" points="1216.678 129.612 1216.806 152.411 1236.853 163.699 1256.772 152.187 1256.644 129.387 1236.415 118.201 1216.678 129.612"/><polygon class="cls-1" points="1192.241 85.99 1192.383 111.323 1214.657 123.865 1236.789 111.073 1236.647 85.74 1214.17 73.311 1192.241 85.99"/><polygon class="cls-3" points="438.536 188.229 438.422 167.963 420.603 157.929 402.898 168.162 403.012 188.429 420.993 198.372 438.536 188.229"/><polygon class="cls-3" points="482.37 188.261 482.256 167.994 464.437 157.961 446.732 168.194 446.846 188.46 464.827 198.404 482.37 188.261"/><polygon class="cls-3" points="526.955 188.267 526.841 168 509.021 157.967 491.316 168.2 491.43 188.466 509.411 198.41 526.955 188.267"/><polygon class="cls-3" points="615.415 188.336 615.301 168.069 597.481 158.036 579.776 168.269 579.89 188.535 597.871 198.479 615.415 188.336"/><polygon class="cls-3" points="703.833 188.373 703.719 168.107 685.9 158.074 668.194 168.307 668.308 188.573 686.29 198.517 703.833 188.373"/><polygon class="cls-3" points="791.648 188.545 791.534 168.278 773.715 158.245 756.009 168.478 756.123 188.744 774.105 198.688 791.648 188.545"/><polygon class="cls-3" points="835.482 188.576 835.368 168.31 817.549 158.277 799.843 168.51 799.957 188.776 817.939 198.72 835.482 188.576"/><polygon class="cls-3" points="880.066 188.583 879.952 168.316 862.133 158.283 844.427 168.516 844.541 188.782 862.523 198.726 880.066 188.583"/><polygon class="cls-3" points="968.526 188.651 968.412 168.385 950.593 158.352 932.888 168.585 933.001 188.851 950.983 198.795 968.526 188.651"/><polygon class="cls-3" points="1012.36 188.683 1012.246 168.417 994.427 158.383 976.722 168.616 976.835 188.883 994.817 198.826 1012.36 188.683"/><polygon class="cls-3" points="1056.944 188.689 1056.83 168.423 1039.011 158.39 1021.306 168.623 1021.42 188.889 1039.401 198.832 1056.944 188.689"/><polygon class="cls-3" points="1144.768 188.577 1144.654 168.31 1126.835 158.277 1109.13 168.51 1109.243 188.776 1127.225 198.72 1144.768 188.577"/><polygon class="cls-3" points="1188.602 188.608 1188.488 168.342 1170.669 158.309 1152.964 168.542 1153.077 188.808 1171.059 198.751 1188.602 188.608"/><polygon class="cls-3" points="1233.186 188.615 1233.072 168.348 1215.253 158.315 1197.548 168.548 1197.662 188.814 1215.643 198.758 1233.186 188.615"/><polygon class="cls-3" points="1321.647 188.683 1321.533 168.417 1303.713 158.384 1286.008 168.617 1286.122 188.883 1304.103 198.826 1321.647 188.683"/><polygon class="cls-3" points="1365.481 188.715 1365.367 168.449 1347.547 158.415 1329.842 168.648 1329.956 188.915 1347.937 198.858 1365.481 188.715"/><polygon class="cls-3" points="1410.065 188.721 1409.951 168.455 1392.132 158.421 1374.426 168.654 1374.54 188.921 1392.521 198.864 1410.065 188.721"/><polygon class="cls-3" points="1497.88 188.892 1497.766 168.626 1479.946 158.593 1462.241 168.826 1462.355 189.092 1480.336 199.036 1497.88 188.892"/><polygon class="cls-3" points="1541.714 188.924 1541.6 168.658 1523.781 158.624 1506.075 168.857 1506.189 189.124 1524.17 199.067 1541.714 188.924"/><polygon class="cls-3" points="1586.298 188.93 1586.184 168.664 1568.365 158.631 1550.659 168.864 1550.773 189.13 1568.755 199.074 1586.298 188.93"/><polygon class="cls-3" points="1674.758 188.999 1674.644 168.733 1656.825 158.699 1639.119 168.932 1639.233 189.199 1657.215 199.142 1674.758 188.999"/><polygon class="cls-3" points="1718.592 189.031 1718.478 168.764 1700.659 158.731 1682.953 168.964 1683.067 189.23 1701.049 199.174 1718.592 189.031"/><polygon class="cls-3" points="84.851 188.155 84.737 167.889 66.917 157.855 49.212 168.088 49.326 188.355 67.307 198.298 84.851 188.155"/><polygon class="cls-3" points="128.685 188.186 128.571 167.92 110.751 157.887 93.046 168.12 93.16 188.386 111.141 198.33 128.685 188.186"/><polygon class="cls-3" points="173.269 188.193 173.155 167.926 155.336 157.893 137.63 168.126 137.744 188.392 155.726 198.336 173.269 188.193"/><polygon class="cls-3" points="261.729 188.262 261.615 167.995 243.796 157.962 226.09 168.195 226.204 188.461 244.186 198.405 261.729 188.262"/><polygon class="cls-3" points="305.563 188.293 305.449 168.027 287.63 157.993 269.924 168.226 270.038 188.493 288.02 198.436 305.563 188.293"/><polygon class="cls-3" points="350.147 188.299 350.033 168.033 332.214 158 314.509 168.233 314.622 188.499 332.604 198.443 350.147 188.299"/><polygon class="cls-4" points="1114.102 244.835 1114.188 260.035 1127.552 267.56 1140.831 259.885 1140.746 244.685 1127.26 237.228 1114.102 244.835"/><polygon class="cls-4" points="1070.268 244.803 1070.354 260.003 1083.718 267.528 1096.997 259.853 1096.912 244.654 1083.426 237.196 1070.268 244.803"/><polygon class="cls-5" points="1089.665 206.213 1089.765 223.946 1105.356 232.725 1120.849 223.772 1120.749 206.039 1105.015 197.338 1089.665 206.213"/><polygon class="cls-4" points="981.85 244.766 981.936 259.965 995.3 267.49 1008.579 259.816 1008.494 244.616 995.008 237.158 981.85 244.766"/><polygon class="cls-5" points="1001.247 206.175 1001.346 223.908 1016.938 232.688 1032.431 223.734 1032.331 206.001 1016.597 197.3 1001.247 206.175"/><polygon class="cls-4" points="937.224 244.728 937.31 259.928 950.674 267.453 963.953 259.778 963.868 244.579 950.382 237.121 937.224 244.728"/><polygon class="cls-5" points="912.787 206.107 912.886 223.84 928.478 232.619 943.97 223.665 943.871 205.932 928.137 197.231 912.787 206.107"/><polygon class="cls-4" points="848.806 244.69 848.891 259.89 862.256 267.415 875.535 259.74 875.449 244.541 861.963 237.083 848.806 244.69"/><polygon class="cls-4" points="804.972 244.659 805.057 259.859 818.422 267.384 831.701 259.709 831.615 244.509 818.129 237.051 804.972 244.659"/><polygon class="cls-5" points="824.368 206.069 824.468 223.802 840.06 232.581 855.552 223.627 855.452 205.894 839.719 197.193 824.368 206.069"/><polygon class="cls-4" points="717.157 244.488 717.242 259.687 730.607 267.212 743.886 259.538 743.8 244.338 730.314 236.88 717.157 244.488"/><polygon class="cls-4" points="672.573 244.481 672.658 259.681 686.023 267.206 699.302 259.531 699.216 244.331 685.73 236.874 672.573 244.481"/><polygon class="cls-5" points="648.135 205.859 648.235 223.592 663.827 232.372 679.319 223.418 679.219 205.685 663.486 196.984 648.135 205.859"/><polygon class="cls-4" points="584.113 244.412 584.198 259.612 597.563 267.137 610.842 259.462 610.756 244.263 597.27 236.805 584.113 244.412"/><polygon class="cls-4" points="540.279 244.381 540.364 259.581 553.728 267.106 567.008 259.431 566.922 244.231 553.436 236.773 540.279 244.381"/><polygon class="cls-5" points="559.675 205.791 559.775 223.524 575.367 232.303 590.859 223.349 590.759 205.616 575.025 196.915 559.675 205.791"/><polygon class="cls-4" points="451.86 244.343 451.946 259.543 465.31 267.068 478.589 259.393 478.504 244.193 465.018 236.736 451.86 244.343"/><polygon class="cls-5" points="471.257 205.753 471.356 223.486 486.948 232.265 502.441 223.311 502.341 205.578 486.607 196.877 471.257 205.753"/><polygon class="cls-4" points="407.871 244.487 407.956 259.687 421.321 267.212 434.6 259.537 434.514 244.337 421.028 236.88 407.871 244.487"/><polygon class="cls-5" points="383.433 205.865 383.533 223.598 399.125 232.378 414.617 223.424 414.517 205.691 398.783 196.99 383.433 205.865"/><polygon class="cls-4" points="319.452 244.449 319.538 259.649 332.902 267.174 346.181 259.499 346.096 244.299 332.61 236.842 319.452 244.449"/><polygon class="cls-4" points="275.618 244.418 275.704 259.617 289.068 267.142 302.347 259.468 302.262 244.268 288.776 236.81 275.618 244.418"/><polygon class="cls-5" points="295.015 205.827 295.114 223.56 310.706 232.34 326.199 223.386 326.099 205.653 310.365 196.952 295.015 205.827"/><polygon class="cls-4" points="187.158 244.349 187.244 259.549 200.608 267.074 213.887 259.399 213.802 244.199 200.316 236.741 187.158 244.349"/><polygon class="cls-5" points="206.555 205.759 206.654 223.492 222.246 232.271 237.738 223.317 237.639 205.584 221.905 196.883 206.555 205.759"/><polygon class="cls-4" points="142.574 244.343 142.659 259.542 156.024 267.067 169.303 259.393 169.218 244.193 155.732 236.735 142.574 244.343"/><polygon class="cls-5" points="118.136 205.721 118.236 223.454 133.828 232.233 149.32 223.279 149.221 205.546 133.487 196.845 118.136 205.721"/><polygon class="cls-4" points="54.759 244.171 54.845 259.371 68.209 266.896 81.488 259.221 81.403 244.021 67.917 236.564 54.759 244.171"/><polygon class="cls-5" points="30.322 205.549 30.421 223.282 46.013 232.062 61.505 223.108 61.406 205.375 45.672 196.674 30.322 205.549"/><polygon class="cls-5" points="1708.044 206.565 1708.144 224.298 1723.735 233.078 1739.228 224.124 1739.128 206.391 1723.394 197.69 1708.044 206.565"/><polygon class="cls-4" points="1644.021 245.118 1644.107 260.318 1657.471 267.843 1670.75 260.168 1670.665 244.969 1657.179 237.511 1644.021 245.118"/><polygon class="cls-5" points="1619.584 206.497 1619.683 224.23 1635.275 233.009 1650.768 224.055 1650.668 206.322 1634.934 197.621 1619.584 206.497"/><polygon class="cls-4" points="1555.603 245.081 1555.689 260.28 1569.053 267.805 1582.332 260.131 1582.247 244.931 1568.761 237.473 1555.603 245.081"/><polygon class="cls-5" points="1531.166 206.459 1531.265 224.192 1546.857 232.971 1562.349 224.017 1562.25 206.284 1546.516 197.583 1531.166 206.459"/><polygon class="cls-4" points="1467.788 244.909 1467.874 260.109 1481.238 267.634 1494.517 259.959 1494.432 244.759 1480.946 237.302 1467.788 244.909"/><polygon class="cls-4" points="1423.954 244.878 1424.04 260.077 1437.404 267.602 1450.683 259.928 1450.598 244.728 1437.112 237.27 1423.954 244.878"/><polygon class="cls-5" points="1443.351 206.287 1443.45 224.02 1459.042 232.8 1474.534 223.846 1474.435 206.113 1458.701 197.412 1443.351 206.287"/><polygon class="cls-4" points="1335.536 244.84 1335.621 260.039 1348.986 267.564 1362.265 259.89 1362.18 244.69 1348.693 237.232 1335.536 244.84"/><polygon class="cls-5" points="1354.932 206.249 1355.032 223.983 1370.624 232.762 1386.116 223.808 1386.017 206.075 1370.283 197.374 1354.932 206.249"/><polygon class="cls-4" points="1247.076 244.771 1247.161 259.971 1260.526 267.496 1273.805 259.821 1273.719 244.621 1260.233 237.163 1247.076 244.771"/><polygon class="cls-5" points="1266.472 206.181 1266.572 223.914 1282.164 232.693 1297.656 223.739 1297.556 206.006 1281.823 197.305 1266.472 206.181"/><polygon class="cls-5" points="1178.054 206.143 1178.154 223.876 1193.746 232.655 1209.238 223.701 1209.138 205.968 1193.404 197.267 1178.054 206.143"/><polygon class="cls-6" points="542.645 295.736 542.574 283.07 531.437 276.799 520.371 283.195 520.442 295.861 531.681 302.076 542.645 295.736"/><polygon class="cls-6" points="586.479 295.768 586.408 283.101 575.271 276.831 564.205 283.226 564.276 295.893 575.515 302.107 586.479 295.768"/><polygon class="cls-6" points="763.358 295.875 763.286 283.208 752.149 276.937 741.083 283.333 741.155 295.999 752.393 302.214 763.358 295.875"/><polygon class="cls-7" points="739.506 331.945 739.449 321.812 730.54 316.795 721.687 321.912 721.744 332.045 730.735 337.017 739.506 331.945"/><polygon class="cls-7" points="827.321 332.117 827.264 321.983 818.355 316.967 809.502 322.083 809.559 332.216 818.55 337.188 827.321 332.117"/><polygon class="cls-6" points="895.757 296.052 895.685 283.386 884.548 277.115 873.482 283.51 873.554 296.177 884.792 302.392 895.757 296.052"/><polygon class="cls-6" points="939.591 296.084 939.52 283.417 928.382 277.146 917.317 283.542 917.388 296.208 928.626 302.423 939.591 296.084"/><polygon class="cls-6" points="1072.635 296.159 1072.564 283.492 1061.427 277.221 1050.361 283.617 1050.432 296.284 1061.67 302.498 1072.635 296.159"/><polygon class="cls-7" points="1180.442 332.148 1180.385 322.015 1171.475 316.999 1162.622 322.115 1162.679 332.248 1171.67 337.22 1180.442 332.148"/><polygon class="cls-6" points="1248.877 296.084 1248.806 283.418 1237.669 277.147 1226.603 283.542 1226.674 296.209 1237.912 302.424 1248.877 296.084"/><polygon class="cls-6" points="1292.711 296.116 1292.64 283.449 1281.503 277.178 1270.437 283.574 1270.508 296.24 1281.747 302.455 1292.711 296.116"/><polygon class="cls-7" points="1268.86 332.186 1268.803 322.053 1259.893 317.036 1251.04 322.153 1251.097 332.286 1260.088 337.258 1268.86 332.186"/><polygon class="cls-6" points="1425.755 296.191 1425.684 283.524 1414.547 277.253 1403.481 283.649 1403.552 296.315 1414.791 302.53 1425.755 296.191"/><polygon class="cls-6" points="1469.589 296.222 1469.518 283.556 1458.381 277.285 1447.315 283.681 1447.386 296.347 1458.625 302.562 1469.589 296.222"/><polygon class="cls-6" points="1601.989 296.4 1601.917 283.733 1590.78 277.463 1579.714 283.858 1579.786 296.525 1591.024 302.739 1601.989 296.4"/><polygon class="cls-6" points="1645.823 296.431 1645.751 283.765 1634.614 277.494 1623.548 283.89 1623.62 296.556 1634.858 302.771 1645.823 296.431"/><polygon class="cls-7" points="1621.971 332.502 1621.914 322.369 1613.005 317.352 1604.152 322.469 1604.209 332.602 1613.2 337.574 1621.971 332.502"/><polygon class="cls-6" points="1734.283 296.5 1734.212 283.834 1723.074 277.563 1712.009 283.958 1712.08 296.625 1723.318 302.84 1734.283 296.5"/><polygon class="cls-6" points="56.56 295.485 56.489 282.818 45.352 276.547 34.286 282.943 34.357 295.609 45.596 301.824 56.56 295.485"/><polygon class="cls-6" points="188.959 295.662 188.888 282.996 177.751 276.725 166.685 283.121 166.756 295.787 177.995 302.002 188.959 295.662"/><polygon class="cls-6" points="232.793 295.694 232.722 283.027 221.585 276.757 210.519 283.152 210.591 295.819 221.829 302.033 232.793 295.694"/><polygon class="cls-7" points="297.402 331.833 297.345 321.7 288.436 316.683 279.583 321.8 279.64 331.933 288.631 336.905 297.402 331.833"/><polygon class="cls-6" points="365.838 295.769 365.767 283.102 354.63 276.832 343.564 283.227 343.635 295.894 354.873 302.108 365.838 295.769"/><polygon class="cls-6" points="409.672 295.801 409.601 283.134 398.464 276.863 387.398 283.259 387.469 295.925 398.707 302.14 409.672 295.801"/><polygon class="cls-7" points="385.821 331.871 385.764 321.738 376.854 316.721 368.001 321.838 368.058 331.971 377.049 336.943 385.821 331.871"/><polygon class="cls-8" points="1054.739 359.825 1054.782 367.425 1061.464 371.188 1068.104 367.35 1068.061 359.75 1061.318 356.022 1054.739 359.825"/><polygon class="cls-7" points="1030.302 321.204 1030.359 331.337 1039.268 336.353 1048.121 331.237 1048.064 321.104 1039.073 316.132 1030.302 321.204"/><polygon class="cls-8" points="922.445 359.725 922.488 367.325 929.17 371.087 935.81 367.25 935.767 359.65 929.024 355.921 922.445 359.725"/><polygon class="cls-7" points="941.842 321.135 941.899 331.268 950.808 336.285 959.661 331.168 959.604 321.035 950.613 316.063 941.842 321.135"/><polygon class="cls-8" points="806.861 359.719 806.904 367.319 813.586 371.081 820.226 367.244 820.183 359.644 813.44 355.915 806.861 359.719"/><polygon class="cls-8" points="746.212 359.516 746.255 367.116 752.937 370.878 759.577 367.041 759.534 359.441 752.791 355.712 746.212 359.516"/><polygon class="cls-8" points="613.168 359.441 613.21 367.04 619.893 370.803 626.532 366.966 626.49 359.366 619.746 355.637 613.168 359.441"/><polygon class="cls-8" points="569.334 359.409 569.376 367.009 576.059 370.771 582.698 366.934 582.655 359.334 575.912 355.605 569.334 359.409"/><polygon class="cls-7" points="588.73 320.819 588.787 330.952 597.697 335.969 606.549 330.852 606.493 320.719 597.502 315.747 588.73 320.819"/><polygon class="cls-7" points="500.312 320.781 500.369 330.914 509.279 335.931 518.131 330.814 518.074 320.681 509.084 315.709 500.312 320.781"/><polygon class="cls-8" points="436.926 359.515 436.968 367.115 443.651 370.878 450.29 367.04 450.248 359.44 443.504 355.712 436.926 359.515"/><polygon class="cls-8" points="304.673 359.446 304.716 367.046 311.398 370.808 318.038 366.971 317.995 359.371 311.252 355.642 304.673 359.446"/><polygon class="cls-8" points="260.047 359.409 260.09 367.008 266.772 370.771 273.412 366.934 273.369 359.334 266.626 355.605 260.047 359.409"/><polygon class="cls-8" points="127.795 359.339 127.838 366.939 134.52 370.701 141.16 366.864 141.117 359.264 134.374 355.535 127.795 359.339"/><polygon class="cls-7" points="147.192 320.749 147.249 330.882 156.158 335.899 165.011 330.782 164.954 320.649 155.963 315.677 147.192 320.749"/><polygon class="cls-7" points="59.377 320.578 59.434 330.711 68.343 335.727 77.196 330.611 77.139 320.478 68.148 315.506 59.377 320.578"/><polygon class="cls-8" points="1629.242 360.115 1629.285 367.715 1635.967 371.477 1642.607 367.64 1642.564 360.04 1635.821 356.311 1629.242 360.115"/><polygon class="cls-7" points="1472.406 321.316 1472.463 331.449 1481.372 336.465 1490.225 331.349 1490.168 321.216 1481.177 316.244 1472.406 321.316"/><polygon class="cls-8" points="1364.591 359.868 1364.634 367.468 1371.316 371.23 1377.956 367.393 1377.913 359.793 1371.17 356.064 1364.591 359.868"/><polygon class="cls-7" points="1383.988 321.278 1384.044 331.411 1392.954 336.427 1401.807 331.311 1401.75 321.178 1392.759 316.206 1383.988 321.278"/><polygon class="cls-8" points="1231.547 359.793 1231.589 367.393 1238.272 371.155 1244.911 367.318 1244.869 359.718 1238.125 355.989 1231.547 359.793"/><polygon class="cls-8" points="1116.713 359.761 1116.755 367.361 1123.438 371.124 1130.077 367.286 1130.034 359.686 1123.291 355.957 1116.713 359.761"/><polygon class="cls-9" points="426.676 403.293 426.647 398.226 422.192 395.718 417.766 398.276 417.795 403.342 422.29 405.828 426.676 403.293"/><polygon class="cls-9" points="647.388 403.431 647.36 398.364 642.905 395.856 638.479 398.414 638.507 403.481 643.002 405.967 647.388 403.431"/><polygon class="cls-9" points="868.205 403.646 868.177 398.58 863.722 396.071 859.296 398.63 859.324 403.696 863.82 406.182 868.205 403.646"/><polygon class="cls-9" points="1088.918 403.784 1088.889 398.718 1084.435 396.209 1080.008 398.768 1080.037 403.834 1084.532 406.32 1088.918 403.784"/><polygon class="cls-9" points="1309.786 403.747 1309.757 398.68 1305.303 396.172 1300.876 398.73 1300.905 403.797 1305.4 406.283 1309.786 403.747"/><polygon class="cls-9" points="1529.853 403.988 1529.825 398.921 1525.37 396.413 1520.943 398.971 1520.972 404.038 1525.467 406.523 1529.853 403.988"/><polygon class="cls-9" points="205.242 403.288 205.214 398.221 200.759 395.713 196.333 398.271 196.361 403.338 200.856 405.824 205.242 403.288"/><polygon class="cls-1" points="5120.379 114.557 5120.237 89.224 5097.963 76.682 5075.831 89.473 5075.973 114.806 5098.45 127.236 5120.379 114.557"/><polygon class="cls-4" points="5097.872 248.278 5097.957 263.478 5111.322 271.003 5124.601 263.328 5124.516 248.129 5111.029 240.671 5097.872 248.278"/><polygon class="cls-6" points="5099.673 299.592 5099.602 286.925 5088.465 280.654 5077.399 287.05 5077.47 299.717 5088.709 305.931 5099.673 299.592"/><polygon class="cls-8" points="5082.343 363.3 5082.386 370.9 5089.068 374.662 5095.707 370.825 5095.665 363.225 5088.922 359.496 5082.343 363.3"/><rect class="cls-1" width="5120" height="113"/></svg>