<svg xmlns="http://www.w3.org/2000/svg" width="1920" height="720" viewBox="0 0 1920 720"><defs><style>.a,.b,.c,.d,.e{fill:#fff;isolation:isolate;}.a{opacity:0.78;}.b{opacity:0.5;}.c{opacity:0.6;}.d{opacity:0.34;}.e{opacity:0.29;}.f{fill:#595959;}.g{fill:#616161;}.h{fill:#757575;}.i{fill:#424242;}.j{fill:#9e9e9e;}.k{fill:#212121;}.l{fill:#c4c4c4;}.m,.t,.u,.v{fill:#f5f5f5;}.n{fill:#01579b;stroke:#c1c1c1;stroke-miterlimit:10;stroke-width:4px;}.o{fill:#1965c0;}.p{fill:#a9a9aa;}.q{fill:#42a5f5;}.r{fill:#228927;}.s{fill:#184c18;}.t{opacity:0.8;}.u{opacity:0.79;}.v{opacity:0;}</style></defs><polygon class="a" points="1285.144 238.575 1284.627 239.744 1285.144 240.835 1285.698 239.744 1285.144 238.575"/><polygon class="b" points="1364.251 230.315 1363.734 231.406 1364.251 232.497 1364.805 231.406 1364.251 230.315"/><polygon class="b" points="1171.97 9 1171.416 10.091 1171.97 11.26 1172.524 10.091 1171.97 9"/><polygon class="b" points="1319.248 71.264 1318.73 72.355 1319.248 73.446 1319.839 72.355 1319.248 71.264"/><polygon class="b" points="1401.939 122.619 1401.422 123.71 1401.939 124.879 1402.493 123.71 1401.939 122.619"/><polygon class="b" points="1306.279 285.332 1305.761 286.423 1306.279 287.514 1306.833 286.423 1306.279 285.332"/><polygon class="b" points="1271.806 68.615 1271.288 69.706 1271.806 70.797 1272.36 69.706 1271.806 68.615"/><polygon class="b" points="1064.856 164.856 1064.338 166.024 1064.856 167.115 1065.41 166.024 1064.856 164.856"/><polygon class="b" points="1347.809 194.078 1347.255 195.169 1347.809 196.26 1348.363 195.169 1347.809 194.078"/><polygon class="b" points="1030.198 230.704 1029.902 231.328 1030.198 231.951 1030.53 231.328 1030.198 230.704"/><polygon class="b" points="1151.316 241.848 1151.02 242.472 1151.316 243.095 1151.611 242.472 1151.316 241.848"/><polygon class="a" points="1190.186 237.095 1189.89 237.718 1190.186 238.263 1190.518 237.718 1190.186 237.095"/><polygon class="b" points="811.055 103.293 810.537 104.384 811.055 105.475 811.609 104.384 811.055 103.293"/><polygon class="b" points="925.448 161.115 924.894 162.206 925.448 163.297 926.002 162.206 925.448 161.115"/><polygon class="b" points="987.374 150.283 986.857 151.452 987.374 152.543 987.928 151.452 987.374 150.283"/><polygon class="a" points="887.649 244.42 887.132 245.511 887.649 246.68 888.204 245.511 887.649 244.42"/><polygon class="b" points="954.674 329.984 954.12 331.075 954.674 332.166 955.229 331.075 954.674 329.984"/><polygon class="a" points="1080.781 280.656 1080.263 281.825 1080.781 282.916 1081.335 281.825 1080.781 280.656"/><polygon class="b" points="1066.37 331.309 1065.853 332.478 1066.37 333.569 1066.925 332.478 1066.37 331.309"/><polygon class="b" points="1099.255 317.282 1098.738 318.451 1099.255 319.542 1099.809 318.451 1099.255 317.282"/><polygon class="b" points="788.553 155.27 788.257 155.894 788.553 156.517 788.885 155.894 788.553 155.27"/><polygon class="b" points="912.922 112.021 912.627 112.644 912.922 113.267 913.218 112.644 912.922 112.021"/><polygon class="b" points="829.27 331.309 829.012 331.933 829.27 332.556 829.603 331.933 829.27 331.309"/><polygon class="b" points="464.956 289.228 464.439 290.319 464.956 291.488 465.51 290.319 464.956 289.228"/><polygon class="c" points="505.932 15.936 505.415 17.104 505.932 18.195 506.523 17.104 505.932 15.936"/><polygon class="b" points="609.425 57.627 608.908 58.796 609.425 59.887 609.98 58.796 609.425 57.627"/><polygon class="b" points="737.49 135.788 736.972 136.879 737.49 137.97 738.044 136.879 737.49 135.788"/><polygon class="b" points="423.499 168.752 422.982 169.843 423.499 171.012 424.054 169.843 423.499 168.752"/><polygon class="b" points="368.409 83.889 367.891 84.98 368.409 86.148 368.963 84.98 368.409 83.889"/><polygon class="b" points="570.777 195.169 570.223 196.26 570.777 197.351 571.331 196.26 570.777 195.169"/><polygon class="b" points="414.632 61.757 414.336 62.381 414.632 63.004 414.964 62.381 414.632 61.757"/><polygon class="b" points="539.001 87.863 538.706 88.486 539.001 89.11 539.297 88.486 539.001 87.863"/><polygon class="b" points="137.59 333.647 137.073 334.738 137.59 335.907 138.144 334.738 137.59 333.647"/><polygon class="b" points="381.045 232.107 380.528 233.276 381.045 234.367 381.599 233.276 381.045 232.107"/><polygon class="d" points="394.975 257.356 394.458 258.447 394.975 259.538 395.529 258.447 394.975 257.356"/><polygon class="b" points="324.588 244.965 324.07 246.056 324.588 247.147 325.179 246.056 324.588 244.965"/><polygon class="b" points="232.547 246.138 231.993 247.229 232.547 248.32 233.101 247.229 232.547 246.138"/><polygon class="b" points="121.043 247.508 120.526 248.599 121.043 249.69 121.597 248.599 121.043 247.508"/><polygon class="b" points="103.708 81.317 103.191 82.408 103.708 83.577 104.262 82.408 103.708 81.317"/><polygon class="b" points="989.993 72.65 989.475 73.819 989.993 74.91 990.547 73.819 989.993 72.65"/><polygon class="b" points="1841.038 141.945 1840.521 143.114 1841.038 144.205 1841.592 143.114 1841.038 141.945"/><polygon class="b" points="1800.357 270.993 1799.84 272.162 1800.357 273.253 1800.912 272.162 1800.357 270.993"/><polygon class="b" points="1685.668 202.027 1685.114 203.118 1685.668 204.209 1686.223 203.118 1685.668 202.027"/><polygon class="b" points="1742.422 155.27 1742.126 155.894 1742.422 156.517 1742.717 155.894 1742.422 155.27"/><polygon class="a" points="1392.813 238.653 1392.295 239.822 1392.813 240.913 1393.367 239.822 1392.813 238.653"/><polygon class="b" points="1553.244 100.02 1552.727 101.189 1553.244 102.28 1553.835 101.189 1553.244 100.02"/><polygon class="b" points="1569.834 156.985 1569.317 158.076 1569.834 159.245 1570.388 158.076 1569.834 156.985"/><polygon class="b" points="1503.733 205.144 1503.215 206.235 1503.733 207.326 1504.324 206.235 1503.733 205.144"/><polygon class="b" points="1420.155 205.534 1419.637 206.703 1420.155 207.794 1420.709 206.703 1420.155 205.534"/><polygon class="a" points="1493.461 263.045 1492.907 264.135 1493.461 265.304 1494.015 264.135 1493.461 263.045"/><polygon class="b" points="1577.002 213.482 1576.448 214.573 1577.002 215.742 1577.556 214.573 1577.002 213.482"/><polygon class="b" points="1738.394 84.512 1737.877 85.603 1738.394 86.772 1738.948 85.603 1738.394 84.512"/><polygon class="b" points="1899.712 35.184 1899.195 36.353 1899.712 37.444 1900.267 36.353 1899.712 35.184"/><polygon class="b" points="1208.956 366.299 1208.438 367.39 1208.956 368.559 1209.51 367.39 1208.956 366.299"/><polygon class="b" points="985.194 381.417 984.677 382.586 985.194 383.677 985.748 382.586 985.194 381.417"/><polygon class="e" points="1084.438 425.368 1083.921 426.459 1084.438 427.55 1084.993 426.459 1084.438 425.368"/><polygon class="b" points="1013.645 397.937 1013.386 398.561 1013.645 399.184 1013.977 398.561 1013.645 397.937"/><polygon class="b" points="1246.052 334.894 1245.498 336.063 1246.052 337.154 1246.606 336.063 1246.052 334.894"/><polygon class="a" points="1297.344 557.634 1296.827 558.802 1297.344 559.893 1297.898 558.802 1297.344 557.634"/><polygon class="b" points="1376.451 549.373 1375.934 550.464 1376.451 551.555 1377.005 550.464 1376.451 549.373"/><polygon class="b" points="1184.17 328.058 1183.616 329.149 1184.17 330.318 1184.724 329.149 1184.17 328.058"/><polygon class="b" points="1331.448 390.323 1330.93 391.414 1331.448 392.505 1332.039 391.414 1331.448 390.323"/><polygon class="b" points="1414.139 441.677 1413.622 442.768 1414.139 443.937 1414.693 442.768 1414.139 441.677"/><polygon class="b" points="1421.479 473.39 1420.961 474.481 1421.479 475.572 1422.033 474.481 1421.479 473.39"/><polygon class="b" points="1284.005 387.673 1283.488 388.764 1284.005 389.855 1284.56 388.764 1284.005 387.673"/><polygon class="b" points="1077.056 483.914 1076.538 485.083 1077.056 486.174 1077.61 485.083 1077.056 483.914"/><polygon class="b" points="1360.009 513.137 1359.455 514.228 1360.009 515.319 1360.563 514.228 1360.009 513.137"/><polygon class="b" points="1453.896 505.5 1453.342 506.591 1453.896 507.682 1454.45 506.591 1453.896 505.5"/><polygon class="b" points="1042.398 549.763 1042.102 550.386 1042.398 551.01 1042.73 550.386 1042.398 549.763"/><polygon class="b" points="1163.516 560.906 1163.22 561.53 1163.516 562.153 1163.811 561.53 1163.516 560.906"/><polygon class="a" points="1202.386 556.153 1202.09 556.776 1202.386 557.322 1202.718 556.776 1202.386 556.153"/><polygon class="b" points="823.255 422.351 822.737 423.442 823.255 424.533 823.809 423.442 823.255 422.351"/><polygon class="b" points="937.648 480.173 937.094 481.264 937.648 482.355 938.202 481.264 937.648 480.173"/><polygon class="b" points="999.574 469.341 999.057 470.51 999.574 471.601 1000.128 470.51 999.574 469.341"/><polygon class="a" points="1002.849 432.478 1002.332 433.569 1002.849 434.738 1003.404 433.569 1002.849 432.478"/><polygon class="b" points="544.874 420.043 544.32 421.134 544.874 422.225 545.429 421.134 544.874 420.043"/><polygon class="a" points="1195.98 468.715 1195.463 469.883 1195.98 470.974 1196.535 469.883 1195.98 468.715"/><polygon class="b" points="656.57 421.368 656.053 422.536 656.57 423.627 657.125 422.536 656.57 421.368"/><polygon class="b" points="689.455 407.341 688.938 408.509 689.455 409.6 690.009 408.509 689.455 407.341"/><polygon class="b" points="800.753 474.329 800.457 474.952 800.753 475.576 801.085 474.952 800.753 474.329"/><polygon class="b" points="925.122 431.079 924.827 431.702 925.122 432.326 925.418 431.702 925.122 431.079"/><polygon class="b" points="419.47 421.368 419.212 421.991 419.47 422.614 419.803 421.991 419.47 421.368"/><polygon class="b" points="477.156 608.287 476.639 609.378 477.156 610.546 477.71 609.378 477.156 608.287"/><polygon class="c" points="518.132 334.994 517.615 336.163 518.132 337.254 518.723 336.163 518.132 334.994"/><polygon class="b" points="621.625 376.685 621.108 377.854 621.625 378.945 622.18 377.854 621.625 376.685"/><polygon class="b" points="686.507 344.111 685.99 345.202 686.507 346.293 687.062 345.202 686.507 344.111"/><polygon class="b" points="749.69 454.847 749.172 455.938 749.69 457.029 750.244 455.938 749.69 454.847"/><polygon class="b" points="701.176 469.731 700.622 470.822 701.176 471.913 701.73 470.822 701.176 469.731"/><polygon class="b" points="435.699 487.81 435.182 488.901 435.699 490.07 436.254 488.901 435.699 487.81"/><polygon class="b" points="380.609 402.947 380.091 404.038 380.609 405.207 381.163 404.038 380.609 402.947"/><polygon class="b" points="582.977 514.228 582.423 515.319 582.977 516.41 583.531 515.319 582.977 514.228"/><polygon class="b" points="676.494 505.967 675.94 507.058 676.494 508.149 677.049 507.058 676.494 505.967"/><polygon class="b" points="426.832 380.815 426.536 381.439 426.832 382.062 427.164 381.439 426.832 380.815"/><polygon class="b" points="551.201 406.921 550.905 407.545 551.201 408.168 551.497 407.545 551.201 406.921"/><polygon class="b" points="224.094 462.484 223.577 463.575 224.094 464.744 224.648 463.575 224.094 462.484"/><polygon class="b" points="221.212 508.227 220.658 509.318 221.212 510.409 221.766 509.318 221.212 508.227"/><polygon class="b" points="265.403 431.391 264.885 432.482 265.403 433.573 265.957 432.482 265.403 431.391"/><polygon class="b" points="393.245 551.166 392.728 552.334 393.245 553.425 393.799 552.334 393.245 551.166"/><polygon class="d" points="407.175 576.414 406.658 577.505 407.175 578.596 407.729 577.505 407.175 576.414"/><polygon class="b" points="336.788 564.024 336.27 565.115 336.788 566.206 337.379 565.115 336.788 564.024"/><polygon class="b" points="260.747 619.196 260.193 620.287 260.747 621.378 261.301 620.287 260.747 619.196"/><polygon class="b" points="93.184 609.378 92.667 610.469 93.184 611.637 93.739 610.469 93.184 609.378"/><polygon class="b" points="40.717 445.418 40.2 446.509 40.717 447.6 41.271 446.509 40.717 445.418"/><polygon class="b" points="208.686 459.133 208.391 459.756 208.686 460.38 208.982 459.756 208.686 459.133"/><polygon class="b" points="313.584 518.124 313.288 518.748 313.584 519.293 313.879 518.748 313.584 518.124"/><polygon class="b" points="203.994 342.709 203.476 343.8 203.994 344.969 204.548 343.8 203.994 342.709"/><polygon class="b" points="305.381 402.012 304.864 403.103 305.381 404.194 305.972 403.103 305.381 402.012"/><polygon class="b" points="964.362 371.854 963.845 372.945 964.362 374.036 964.916 372.945 964.362 371.854"/><polygon class="b" points="880.193 336.708 879.675 337.877 880.193 338.968 880.747 337.877 880.193 336.708"/><polygon class="b" points="1164.244 453.606 1163.727 454.697 1164.244 455.788 1164.835 454.697 1164.244 453.606"/><polygon class="b" points="1853.238 461.003 1852.721 462.172 1853.238 463.263 1853.792 462.172 1853.238 461.003"/><polygon class="b" points="1755.557 572.051 1755.04 573.22 1755.557 574.311 1756.112 573.22 1755.557 572.051"/><polygon class="b" points="1697.868 521.085 1697.314 522.176 1697.868 523.267 1698.423 522.176 1697.868 521.085"/><polygon class="b" points="1669.861 443.937 1669.344 445.028 1669.861 446.119 1670.415 445.028 1669.861 443.937"/><polygon class="a" points="1405.013 557.711 1404.495 558.88 1405.013 559.971 1405.567 558.88 1405.013 557.711"/><polygon class="b" points="1373.939 347.151 1373.385 348.242 1373.939 349.333 1374.493 348.242 1373.939 347.151"/><polygon class="b" points="1430.84 361.645 1430.322 362.736 1430.84 363.827 1431.431 362.736 1430.84 361.645"/><polygon class="b" points="1509.356 417.675 1508.802 418.766 1509.356 419.857 1509.91 418.766 1509.356 417.675"/><polygon class="b" points="1599.215 370.685 1598.661 371.776 1599.215 372.867 1599.769 371.776 1599.215 370.685"/><polygon class="b" points="1565.444 419.078 1564.927 420.247 1565.444 421.338 1566.035 420.247 1565.444 419.078"/><polygon class="b" points="1619.759 473.705 1619.241 474.796 1619.759 475.965 1620.35 474.796 1619.759 473.705"/><polygon class="b" points="1515.933 524.202 1515.415 525.293 1515.933 526.384 1516.524 525.293 1515.933 524.202"/><polygon class="b" points="1432.355 524.592 1431.837 525.761 1432.355 526.852 1432.909 525.761 1432.355 524.592"/><polygon class="a" points="1608.661 451.103 1608.107 452.194 1608.661 453.363 1609.215 452.194 1608.661 451.103"/><polygon class="b" points="1589.202 532.541 1588.648 533.632 1589.202 534.801 1589.756 533.632 1589.202 532.541"/><polygon class="b" points="1911.912 354.242 1911.395 355.411 1911.912 356.502 1912.467 355.411 1911.912 354.242"/><polygon class="b" points="799.156 456.357 798.638 457.448 799.156 458.617 799.71 457.448 799.156 456.357"/><polygon class="b" points="575.394 471.475 574.877 472.644 575.394 473.735 575.948 472.644 575.394 471.475"/><polygon class="e" points="674.638 515.426 674.121 516.517 674.638 517.608 675.193 516.517 674.638 515.426"/><polygon class="b" points="603.845 487.996 603.586 488.619 603.845 489.243 604.177 488.619 603.845 487.996"/><polygon class="b" points="836.252 424.952 835.698 426.121 836.252 427.212 836.806 426.121 836.252 424.952"/><path class="f" d="M-30.56708,737.47321-8,726l16-7.08871s16-5.23387,17-10.07258,24.432-18.13,24.432-18.13L61,671s10-7.63581,13-5.81791,13-2.8179,17,0,7,4.21933,13-4.48138a63.46476,63.46476,0,0,1,14-14.3067l21.20848,1.50821s8.11091-3.93338,13.95121-5.9178,27.65046-11.49258,30.24539-12.2385S195,624.99728,199,618.99864s15-9.17955,15-9.17955,12.28746,4.8033,16.14373,2.49211S243,614.63818,247,609.81909s15.55556,8.81909,26.27778,0S289,607.52886,303,595.76443s20.53117-14.087,32.26559-16.92572S363,570.79095,366,566.39547s9-8.93437,15-8.16492,18.721,3.50915,24.36052,2.1393S403.43465,568.93949,410,560s34-19,44-21,6,2,16,4,27.0402-3,41.5201-5.5S539,526.07523,547,523.53762s19-6.2473,34-7.39246S608,517,621,513s26-4.68,31-8.34,17,0,17,0S686,495,689,497s13-5,25,0,41.76136,7.32,46.88068,7.66S774,503.78888,792.5,502.39444,835,499,841,497s15-8,28-7,24,6,28,7,16,15.31995,26,7.66,29-17.883,37-14.7715S979,505.32,989,504.66s36-8.66,42-7.66,32-3,42,0,24.21265,1,36.10632,0,29.30829-7,34.601,0S1163,493,1169,497s17,3.32,27,7.66,24.94918,5.81112,31.97459,6.57557S1222.75644,515,1243.87822,513,1268,513,1280,513s16,1,25,0,27-2,33,0,8,5.27092,14,7.13546,16,2.13546,20,0,6-3.13546,10,0c11.29185,8.85128,9,5.37532,22,7.11993s27.4847-2.74461,33.74235,0S1456,534,1466,539s14,.49774,24,5.24887,19.74165,9.21223,26.87083,13.98168S1534,571.84946,1534,571.84946s15.25847,3.27134,22.62924,2.71094,10.19923-.32922,21.785,3.05519,12.58576-.38441,24.58576,0,19,.707,25,2.5457,15,0,28,1.91936,29.05052,13.70387,32.02526,22.81161S1685,616.802,1696,618.901s64,4.901,65,17,.06291,5.32921,5.53146,7.71411-23.39075-10.40763-18.4611-8.51136S1786,646.65365,1786,646.65365a74.13444,74.13444,0,0,0,21,2.94681s27,14.38829,30,14.39391,15-7.63018,16,1.18772,7,17.97424,21,24.81791,21,12.31828,26,13,15,15,15,15,0,10.744,5,11,18.18018-13,20.09009-9,0,23.52819,0,23.52819Z"/><path class="g" d="M1958.65991,743H1958.65c-19.52,5.91-49.12,5.65-77.65,9.22-48,6-224,31-337,32s-151-1-262-10-154-2-314,4-226,11-319.07,10c-93.08-1-241.93-48-222.93-55s19-6,36-14.09c17-8.09,30-21.91,42-32.91s39-17,66-22.01c27-5,48,.01,95-3.29s33-16.7,50-25.6c17-8.89,48-22.1,79.5-25.28s35.5-3.82,64.5-5.92,48-24.9,62-36.42,24-18.48,34-27.48,37-19,63-16.46,49,6.46,68.93994,3.72c14.98-2.07,49.28-13.6,72.19006-22.6-64.51-5.04-130.69006-7.66-198.13-7.66C279.48,497.22-273,764.73-273,1094.72c0,329.99,552.48,597.5,1234,597.5s1234-267.51,1234-597.5C2195,963.24,2107.29,841.68,1958.65991,743Z"/><path class="h" d="M1940.09009,732.05l-10.04,15.4L1680,756s-248-22-241.92993-28C1444.15,722,1491,700,1500,697.87s30-20.87,47-37.17C1564,644.4,1629,653,1661.71,647.9c32.7-5.1,65.29,7.1,89.29,7.1h43.98c-173.87-77.58-393.88-131.28-637.85-150.34-22.91,9-57.21008,20.53-72.19006,22.6C1065,530,1042,526.08,1016,523.54S963,531,953,540s-20,15.96-34,27.48-33,34.32-62,36.42c-29,2.1-33,2.74-64.5,5.92005S730,626.21,713,635.1c-17,8.9-3,22.3-50,25.6-47,3.3-68-1.71-95,3.29C541,669,514,675,502,686s-25,24.82-42,32.91C443,727,443,726,424,733s129.85,54,222.93,55C740,789,806,784,966,778s203-13,314-4,149,11,262,10,289-26,337-32c28.53-3.57,58.13-3.31,77.65-9.22Q1948.48993,737.365,1940.09009,732.05Z"/><path class="i" d="M1940.09009,732.05l-10.04,15.4L1680,756s-248-22-241.92993-28C1444.15,722,1491,700,1500,697.87s30-20.87,47-37.17C1564,644.4,1629,653,1661.71,647.9c32.7-5.1,65.29,7.1,89.29,7.1h43.98C1847.82007,678.57,1896.4,704.35,1940.09009,732.05Z"/><path class="j" d="M646.88927,606.0189c1.18584,16.02459-25.96,21.36812-59.11982,23.19208s-62.38711-.438-62.01322-15.92043c.26057-10.79008,26.70676-21.28235,59.86656-23.10631S646.09274,595.2551,646.88927,606.0189Z"/><ellipse class="k" cx="586.39593" cy="612.3112" rx="60.13189" ry="19.54286" transform="translate(-32.74423 33.13018) rotate(-3.14838)"/><path class="j" d="M1017.45269,548.68065c.06889,3.08367-6.14172,3.82161-13.6697,3.82161s-14.115-.74162-13.83763-3.70495C990.13867,546.73209,996.255,545,1003.783,545S1017.40641,546.60932,1017.45269,548.68065Z"/><ellipse class="k" cx="1003.68251" cy="549.24887" rx="13.6306" ry="3.75113"/><path class="g" d="M1767.6587,711.01725c-2.37657,27.92148-50.61722,29.63523-108.248,23.6294s-107.3598-17.96279-102.44563-44.52051c3.42479-18.50867,51.88-29.28157,109.51083-23.27574S1769.25506,692.26226,1767.6587,711.01725Z"/><ellipse class="k" cx="1661.70532" cy="705.16633" rx="34.0817" ry="104.91486" transform="translate(788.0999 2284.83012) rotate(-84.05055)"/><path class="j" d="M735.9806,704.4248c1.991,25.1062-52.50722,34.1381-118.9664,37.79367s-124.9441.80822-123.82417-23.485c.78051-16.93051,54.0008-34.02147,120.46-37.677S734.6432,687.56086,735.9806,704.4248Z"/><ellipse class="k" cx="614.66823" cy="715.74404" rx="120.5169" ry="30.62726" transform="translate(-38.38213 34.83892) rotate(-3.14837)"/><path class="j" d="M999.99876,572.242c.15,6.71211-13.36842,8.31835-29.75424,8.31835s-30.72355-1.61425-30.11979-8.06442c.42077-4.49527,13.734-8.26544,30.1198-8.26543S999.898,567.73349,999.99876,572.242Z"/><ellipse class="k" cx="970.02581" cy="573.47888" rx="29.66915" ry="8.16493"/><path class="j" d="M1517.27425,647.66174c.19914,10.52121-17.75209,13.039-39.511,13.039s-40.79818-2.53033-39.99644-12.64094c.55875-7.04632,18.23752-12.956,39.99645-12.956S1517.14048,640.5946,1517.27425,647.66174Z"/><ellipse class="k" cx="1477.4728" cy="649.60046" rx="39.39802" ry="12.79849"/><path class="j" d="M1143.69878,676.90071c.47853,11.59348-19.24857,14.81093-43.23519,15.34656s-45.0374-1.785-44.40248-12.95052c.44249-7.78147,19.78575-14.73145,43.77236-15.26708S1143.37735,669.11332,1143.69878,676.90071Z"/><ellipse class="k" cx="1099.87017" cy="680.01773" rx="43.44244" ry="14.11232" transform="translate(-14.9073 24.72413) rotate(-1.27924)"/><path class="j" d="M831.51013,523.208c.12562,3.04349-5.0531,3.88813-11.35,4.02875s-11.82314-.46861-11.65646-3.39975c.11616-2.04278,5.19412-3.86728,11.491-4.00789S831.42575,521.16366,831.51013,523.208Z"/><ellipse class="k" cx="820.00432" cy="524.02627" rx="11.40444" ry="3.70474" transform="translate(-11.49453 18.43724) rotate(-1.27924)"/><path class="j" d="M807.46944,518.814c.041.99367-1.64978,1.26943-3.70566,1.31534s-3.86012-.153-3.8057-1.11c.03793-.66694,1.69582-1.26262,3.7517-1.30852S807.44189,518.14658,807.46944,518.814Z"/><ellipse class="k" cx="803.71292" cy="519.08119" rx="3.72342" ry="1.20956" transform="translate(-11.3882 18.0723) rotate(-1.27924)"/><path class="j" d="M350.39017,598.16147c.46105,3.011-4.59268,4.42253-10.83553,5.25787s-11.80255.8403-11.96068-2.09132c-.11021-2.0431,4.73513-4.41737,10.978-5.25271S350.08048,596.139,350.39017,598.16147Z"/><ellipse class="k" cx="339.04516" cy="600.24572" rx="11.40444" ry="3.70474" transform="translate(-76.61284 50.26848) rotate(-7.62134)"/><path class="j" d="M1620.40814,620.80513c.067,1.62273-2.69421,2.07307-6.0516,2.14805s-6.30385-.24985-6.215-1.81268c.06193-1.08917,2.7694-2.062,6.12679-2.13692S1620.36315,619.71513,1620.40814,620.80513Z"/><ellipse class="k" cx="1614.27348" cy="621.24142" rx="6.08061" ry="1.97529" transform="translate(-13.46691 36.19356) rotate(-1.27924)"/><path class="h" d="M784,580.16129s2.74194-4.93548,3.83871-4.93548,2.74194-1.64516,2.74194-1.64516l3.29032-.54839,3.83871,4.38709s2.19355,1.09678,2.19355,1.64517c0,0,1.09677.54838,1.09677,1.09677Z"/><path class="i" d="M784.54839,581.25806s.54838,1.64517,1.09677,1.64517,3.83871,0,4.93549.54838S796.06452,584,796.06452,584l2.74193-2.19355A21.864,21.864,0,0,0,801,580.16129H784Z"/><path class="h" d="M1236.5,714s7.01613-12.629,9.82258-12.629,7.01613-4.20968,7.01613-4.20968l8.41935-1.40323,9.82259,11.22581s5.6129,2.80645,5.6129,4.20968c0,0,2.80645,1.40322,2.80645,2.80645Z"/><path class="i" d="M1237.90323,716.80645s1.40322,4.20968,2.80645,4.20968,9.82258,0,12.629,1.40322,14.03226,1.40323,14.03226,1.40323l7.01613-5.6129A55.94681,55.94681,0,0,0,1280,714h-43.5Z"/><path class="h" d="M1427,576.39247s1.74731-3.14516,2.44624-3.14516,1.74731-1.04839,1.74731-1.04839l2.09677-.34946,2.44624,2.7957s1.39785.69893,1.39785,1.04839c0,0,.69892.34946.69892.69892Z"/><path class="i" d="M1427.34946,577.0914s.34946,1.04838.69893,1.04838a10.7803,10.7803,0,0,1,3.14516.34947,14.47528,14.47528,0,0,0,3.49462.34946l1.74731-1.39785a13.93175,13.93175,0,0,0,1.39785-1.04839H1427Z"/><path class="h" d="M1085.33333,516.14516s1.20968-2.17742,1.69355-2.17742,1.20968-.7258,1.20968-.7258L1089.68817,513l1.69355,1.93548s.96774.48387.96774.72581c0,0,.48387.24194.48387.48387Z"/><path class="i" d="M1085.57527,516.629s.24193.72581.48387.72581a7.46358,7.46358,0,0,1,2.17742.24193,10.02109,10.02109,0,0,0,2.41935.24194l1.20968-.96774a9.64486,9.64486,0,0,0,.96774-.72581h-7.5Z"/><path class="h" d="M555.16667,539s.95967-1.72742,1.34355-1.72742.95967-.57581.95967-.57581l1.15162-.19193,1.34354,1.53548s.76775.38387.76775.57581c0,0,.38387.19193.38387.38387Z"/><path class="i" d="M555.3586,539.38387s.19194.57581.38387.57581a5.92113,5.92113,0,0,1,1.72742.19193,7.9501,7.9501,0,0,0,1.91936.19194l.95967-.76774A7.65233,7.65233,0,0,0,561.11667,539h-5.95Z"/><path class="h" d="M256.27778,705s2.74193-4.93548,3.83871-4.93548,2.74193-1.64517,2.74193-1.64517l3.29033-.54838,3.83871,4.38709s2.19354,1.09678,2.19354,1.64517c0,0,1.09678.54838,1.09678,1.09677Z"/><path class="i" d="M256.82616,706.09677s.54839,1.64517,1.09678,1.64517,3.83871,0,4.93548.54838,5.48387.54839,5.48387.54839l2.74194-2.19355A21.864,21.864,0,0,0,273.27778,705h-17Z"/><path class="l" d="M1096.43778,623.51813c-1.226-9.57271-2.54646-19.29015-3.10445-21.373C1092.16667,597.79032,1091.5,570.5,1091.5,570.5c12-1,15-3,26.83333-10.5S1134.5,536.5,1134.5,536.5l-22-7c-10,14-27,16-27,16s-35-3-47.90074,2.9951S1006.5,567.5,1006.5,577.5s9,15,9,15l14.83333,8.07258-2.57932,23.29825A30.59793,30.59793,0,0,0,1039.5,630.5a44.75957,44.75957,0,0,0,14.06905,1.42714L1055.5,621.5c9,1,13-1,13-1s1.258,5.41113,2.5,11.5c0,0,5.5,1.5,14.5-1.5S1096.43778,623.51813,1096.43778,623.51813Z"/><path class="m" d="M1029.5,593.5a43.408,43.408,0,0,0,.83333,6.07258l-.6165,5.56869S1025.5,608.5,1020,604a9.94686,9.94686,0,0,1-3.5-10.5,33.6498,33.6498,0,0,1-7.5-5.5s.5-9.5,9.5-11.5,12,1,12,1l-1,9Z"/><path class="m" d="M1102.71861,537.82929S1104.5,551.5,1110.5,555.5s13.5.5,13.5.5,5.5-6.5,11.5-21.5a11.0432,11.0432,0,0,0,3-7s4-4-1-9a17.26529,17.26529,0,0,0-3-4s9-12,3-16-10,12-10,12-.71889-14.66667-5.85944-13.83333S1118.5,512.5,1118.5,512.5a10.75906,10.75906,0,0,0-5,4c-2,3-2,9-1,12A31.97817,31.97817,0,0,1,1102.71861,537.82929Z"/><path class="m" d="M1053.48864,631.86132,1050.5,649s-1,7-7,7h-19.16667s-5.83333,0-5.83333-6,7-5.26945,7-5.26945l2.22346-21.08378S1034.5,629,1039.5,630,1053.48864,631.86132,1053.48864,631.86132Z"/><path class="m" d="M1070.78026,631.02322c1.24388,6.08935,2.7278,13.005,3.71974,16.47678,2,7,5.83333,7,5.83333,7H1099s5.5,0,6.08333-5.66667S1099,643.23055,1099,643.23055s-1.20829-10.131-2.535-20.49957A31.84951,31.84951,0,0,1,1084.5,629.5,44.62227,44.62227,0,0,1,1070.78026,631.02322Z"/><path class="m" d="M1031.98633,586.26408a5.47817,5.47817,0,0,0-2.89912.47971,4.54779,4.54779,0,0,0-2.75388,4.33533c0,4.42088,5.16667,5.42088,5.16667,5.42088s8,1,13,1a4.96884,4.96884,0,0,0,5.33333,5.33871H1074s6.5.66129,6.5-5.33871c0,0,12,0,15-2a6.45891,6.45891,0,0,0,3-5s.16667-4.66667-4.41667-4.33333S1083.5,587.5,1080.5,587.5v-4s0-5-5-5h-25.91667s-4.41666,0-4.75,3.5-.33333,5.5-.33333,5.5Z"/><path class="l" d="M1016.5,491.5v27.08333s-9-1.25-10-8.16666a47.62146,47.62146,0,0,1,0-13S1006.5,492.5,1016.5,491.5Z"/><path class="l" d="M1106,516.59722V489.51389s9,1.25,10,8.16667a47.62149,47.62149,0,0,1,0,13S1116,515.59722,1106,516.59722Z"/><circle class="n" cx="1062" cy="505" r="46"/><rect class="g" x="1066" y="587" width="9" height="8"/><path class="o" d="M1063.80005,466c-7.89014,5.27-28.35,20.95-37.91,47.33a39.04187,39.04187,0,0,1,37.91-47.33Z"/><polygon class="p" points="1045 560 1038 571 1058.083 571 1060 567 1062.75 571 1083 571 1076 560 1062 560 1061 561 1059 561 1058 560 1045 560"/><circle class="p" cx="1055" cy="591" r="3"/><circle class="o" cx="1055" cy="591" r="2"/><rect class="p" x="1050" y="582" width="25" height="1"/><rect class="p" x="1050" y="600" width="25" height="1"/><path class="q" d="M835.66667,285.33333h-3.53333A25.65034,25.65034,0,0,1,830.71672,282H834C835.66667,282,835.66667,283.66667,835.66667,285.33333Z"/><path class="q" d="M879,293.66667a5.526,5.526,0,0,1,2.05-1.33332,29.54892,29.54892,0,0,1-8.5,6.41663c.45-1.16669,1.45-.46672,1.45-1.75,0-1.66667,1.66667,0,1.66667-1.66667S877.33333,295.33333,879,293.66667Z"/><path class="q" d="M882.33333,272,879,268.66667C877.33333,267,875.66667,262,874,262s-1.66667,0-1.66667,1.66667-1.66666,1.66666,0,3.33333,1.66667,0,3.33334,1.66667-5,0-5-1.66667,1.66666-3.33333,0-6.66667,0,1.66667-1.66667-1.66666,0-3.88337,0-5.28341c0-1.38326,1.66667-4.71659,0-4.71659s-1.66667,0-3.33333-1.66667-1.66667-3.33333-3.33334-1.66667S860.66667,248.66667,859,247s-1.66667-1.66667-1.66667-3.33333a3.85767,3.85767,0,0,1,.18331-1.63341,29.806,29.806,0,0,0-10.2,2.33338A13.80344,13.80344,0,0,0,849,245.33333C852.33333,247,850.66667,247,852.33333,248.66667S855.66667,252,854,252s-1.66667-1.66667-3.33333-1.66667S849,250.33333,849,252s2.35.83333,1.18337,2.91667c-1.18337,2.08333-2.85.41666-2.85,2.08333s1.66667,3.33333,0,3.33333H844c-1.66667,0-3.33333,0-1.66667-1.66666A5.16184,5.16184,0,0,1,845.66667,257v-1.66667c0-1.66666-.9667-1.66666-.4833-3.33333.4833-1.66667-2.85-3.33333-2.85-1.66667s-1.66666,1.66667-1.66666,3.33334S839,255.33333,839,257s.13336,3.33333-.7667,3.33333c-.9,0-2.56663-1.66666-2.56663,0S834,260.33333,834,262s1.66667,0,0,1.66667a5.16184,5.16184,0,0,1-3.33333,1.66666s-.3833.91665-1.01665.46662a29.41,29.41,0,0,0-.61665,4.88332v.03336c.23325,1.3,1.6333,1.41663,1.6333,2.95,0,1.66666,0,1.66666,1.66666,1.66666A5.819,5.819,0,0,1,835.66667,277s-1.66667.2833,0,.96659A9.65131,9.65131,0,0,0,839,278.66667s3.33333,1.66666,1.66667,1.66666-3.33334-1.66666-3.33334,0S839,280.33333,839,282a1.63232,1.63232,0,0,0,1.66667,1.66667A1.63231,1.63231,0,0,1,839,285.33333c-1.46667,0-2.91667,1.28327-3.2667.46662a1.53993,1.53993,0,0,0,1.6,1.2h3.33334c1.66666,0,0-1.66667,1.66666,0L844,288.66667s.93333.83333-2.86662,1.25c-3.8.41666-2.13338-1.25-3.8-1.25s-2.63336-.35-2.98329-1.00006c-.2-.36662-.53335-.13326-.88339.05a29.5018,29.5018,0,0,0,5.85,6.91661c-.15-.5-.31667-.96659-.31667-.96659l.8667-.8667c0,.03336.03326.05.08331.05a15.06843,15.06843,0,0,0,2.38332-.85L844,290.33333a2.30844,2.30844,0,0,1,3.33333,0A1.63231,1.63231,0,0,0,849,288.66667c0-1.66667-1.66667,0-1.66667,0a5.819,5.819,0,0,1-1.66666-3.33334c0-1.66666,0,0,1.66666,0H849L850.66667,287A5.16183,5.16183,0,0,1,854,288.66667c1.66667,1.66666,0,0,1.66667,2.0166,1.66666,2.0167,0,1.31673,2.3,1.98334A3.05075,3.05075,0,0,0,859.2,292.85a1.27278,1.27278,0,0,0-.2.81665c0,1.66666,1.66667,1.66666,1.66667,1.95v3.05c0,1.66666,0,0-1.66667,1.66666s0-1.66666-1.66667-1.31673c-1.66666.35-1.66666-.34993-1.66666,1.31673s-1.66667,0-2.65.41667c-.2833.11668-.58329.26662-.9.43335a29.71317,29.71317,0,0,0,19.6167-2.03339,5.29685,5.29685,0,0,1,.6-3.81663C874,292,874,290.33333,875.66667,288.66667s5-3.33334,3.33333-5-5-3.33334-1.66667-5S879,277,880.66667,275.33333,884,273.66667,882.33333,272ZM859,264.9833V267a1.63713,1.63713,0,0,0-1.66667,1.59993,13.94232,13.94232,0,0,0-1.66666.06674s0,1.66666-.98338.9c-.96659-.7667-2.35-.9-4.01662-.9H854c1.15,0,.71665-.80007.2833-1.13332A8.18875,8.18875,0,0,0,855.66667,267s1.66666-1.66667,1.66666-.9667V264.15c0,.4833,1.66667-.48329,1.66667-.48329Z"/><path class="q" d="M889,272c0,.54993-.01668,1.11664-.05005,1.66667-1.61662.03326-1.6333,1.65-3.28328,0C884,272,884,273.66667,884.73334,272c.75-1.66667-.73334-1.66667.93333-3.33333s0-3.33334-1.66667-3.33334,0-1.66666,3.33333,0a6.89533,6.89533,0,0,0,1,.4V265.75A29.66939,29.66939,0,0,1,889,272Z"/><path class="r" d="M835.66667,285.33333h-3.53333A25.65034,25.65034,0,0,1,830.71672,282H834C835.66667,282,835.66667,283.66667,835.66667,285.33333Z"/><path class="r" d="M879,293.66667a5.526,5.526,0,0,1,2.05-1.33332,29.54892,29.54892,0,0,1-8.5,6.41663c.45-1.16669,1.45-.46672,1.45-1.75,0-1.66667,1.66667,0,1.66667-1.66667S877.33333,295.33333,879,293.66667Z"/><path class="s" d="M835.66667,285.33333h-3.53333A25.65034,25.65034,0,0,1,830.71672,282H834C835.66667,282,835.66667,283.66667,835.66667,285.33333Z"/><path class="r" d="M879,293.66667a5.526,5.526,0,0,1,2.05-1.33332,29.54892,29.54892,0,0,1-8.5,6.41663c.45-1.16669,1.45-.46672,1.45-1.75,0-1.66667,1.66667,0,1.66667-1.66667S877.33333,295.33333,879,293.66667Z"/><path class="s" d="M888.95,273.66667a29.82384,29.82384,0,0,1-7.9,18.66668,5.526,5.526,0,0,0-2.05,1.33332c-1.66667,1.66666-3.33333,0-3.33333,1.66666S874,295.33333,874,297c0,1.28326-1,.58329-1.45,1.75a7.407,7.407,0,0,1-.81665.4,5.29685,5.29685,0,0,1,.6-3.81663C874,292,874,290.33333,875.66667,288.66667s5-3.33334,3.33333-5-5-3.33334-1.66667-5S879,277,880.66667,275.33333,884,273.66667,882.33333,272L879,268.66667C877.33333,267,875.66667,262,874,262s-1.66667,0-1.66667,1.66667-1.66666,1.66666,0,3.33333,1.66667,0,3.33334,1.66667-5,0-5-1.66667,1.66666-3.33333,0-6.66667,0,1.66667-1.66667-1.66666,0-3.88337,0-5.28341c0-1.38326,1.66667-4.71659,0-4.71659s-1.66667,0-3.33333-1.66667-1.66667-3.33333-3.33334-1.66667S860.66667,248.66667,859,247s-1.66667-1.66667-1.66667-3.33333a3.85767,3.85767,0,0,1,.18331-1.63341C858.01662,242.01668,858.5,242,859,242a29.99551,29.99551,0,0,1,29.33329,23.73332,6.89533,6.89533,0,0,1-1-.4c-3.33333-1.66666-5,0-3.33333,0s3.33333,1.66667,1.66667,3.33334-.18331,1.66666-.93333,3.33333c-.73334,1.66667-.73334,0,.93333,1.66667C887.31665,275.31665,887.33333,273.69993,888.95,273.66667Z"/><path class="s" d="M854,252c-1.66667,0-1.66667-1.66667-3.33333-1.66667S849,250.33333,849,252s2.35.83333,1.18337,2.91667c-1.18337,2.08333-2.85.41666-2.85,2.08333s1.66667,3.33333,0,3.33333H844c-1.66667,0-3.33333,0-1.66667-1.66666A5.16184,5.16184,0,0,1,845.66667,257v-1.66667c0-1.66666-.9667-1.66666-.4833-3.33333.4833-1.66667-2.85-3.33333-2.85-1.66667s-1.66666,1.66667-1.66666,3.33334S839,255.33333,839,257s.13336,3.33333-.7667,3.33333c-.9,0-2.56663-1.66666-2.56663,0S834,260.33333,834,262s1.66667,0,0,1.66667a5.16184,5.16184,0,0,1-3.33333,1.66666s-.3833.91665-1.01665.46662A30.04913,30.04913,0,0,1,847.3,244.36664h.01668A13.80344,13.80344,0,0,0,849,245.33333C852.33333,247,850.66667,247,852.33333,248.66667S855.66667,252,854,252Z"/><path class="s" d="M840.66667,280.33333c-1.66667,0-3.33334-1.66666-3.33334,0S839,280.33333,839,282a1.63232,1.63232,0,0,0,1.66667,1.66667A1.63231,1.63231,0,0,1,839,285.33333c-1.46667,0-2.91667,1.28327-3.2667.46662,0-.03327-.01658-.05-.01658-.08332A.28328.28328,0,0,1,835.7,285.6a1.5085,1.5085,0,0,1-.03336-.26663c0-1.66666,0-3.33333-1.66667-3.33333h-3.28328A29.72785,29.72785,0,0,1,829,272c0-.41667.01668-.8667.03337-1.28337.23325,1.3,1.6333,1.41663,1.6333,2.95,0,1.66666,0,1.66666,1.66666,1.66666A5.819,5.819,0,0,1,835.66667,277s-1.66667.2833,0,.96659A9.65131,9.65131,0,0,0,839,278.66667S842.33333,280.33333,840.66667,280.33333Z"/><path class="s" d="M841.13338,289.91667c-3.8.41666-2.13338-1.25-3.8-1.25s-2.63336-.35-2.98329-1.00006c-.2-.36662-.53335-.13326-.88339.05a22.28671,22.28671,0,0,1-1.33331-2.38332h3.53333A1.5085,1.5085,0,0,0,835.7,285.6a.28328.28328,0,0,0,.01669.11667c0,.03337.01658.05.01658.08332a1.53993,1.53993,0,0,0,1.6,1.2h3.33334c1.66666,0,0-1.66667,1.66666,0L844,288.66667S844.93333,289.5,841.13338,289.91667Z"/><path class="s" d="M860.66667,295.61664v3.05c0,1.66666,0,0-1.66667,1.66666s0-1.66666-1.66667-1.31673c-1.66666.35-1.66666-.34993-1.66666,1.31673s-1.66667,0-2.65.41667c-.2833.11668-.58329.26662-.9.43335H852.1a29.62061,29.62061,0,0,1-12.78331-6.55009c-.15-.5-.31667-.96659-.31667-.96659l.8667-.8667c0,.03336.03326.05.08331.05a15.06843,15.06843,0,0,0,2.38332-.85L844,290.33333a2.30844,2.30844,0,0,1,3.33333,0A1.63231,1.63231,0,0,0,849,288.66667c0-1.66667-1.66667,0-1.66667,0a5.819,5.819,0,0,1-1.66666-3.33334c0-1.66666,0,0,1.66666,0H849L850.66667,287A5.16183,5.16183,0,0,1,854,288.66667c1.66667,1.66666,0,0,1.66667,2.0166,1.66666,2.0167,0,1.31673,2.3,1.98334A3.05075,3.05075,0,0,0,859.2,292.85a1.27278,1.27278,0,0,0-.2.81665C859,295.33333,860.66667,295.33333,860.66667,295.61664Z"/><path class="r" d="M840.08337,292.56661A.98722.98722,0,0,1,839.95,292.7a.05164.05164,0,0,1,.01669-.03336A.53157.53157,0,0,1,840.08337,292.56661Z"/><path class="r" d="M859.2,292.85c.13336-.13337.23336-.03337,0,0Z"/><path class="r" d="M854.2833,267.53335c-.2833.08331-.46661.1-.41666-.06674C853.9,267.31667,854.1,267.3833,854.2833,267.53335Z"/><path class="s" d="M857.33333,263.66667C859,262,859,263.66667,859,262s.37037.18519,1.01852,2.59259A4.41742,4.41742,0,0,1,859,268.66667s-.49847-.18519-.24923,1.57407.7892.74074.51922,1.25,1.39668-1.15741,1.39668.50926v3.33333s0-1.66666,1.66666,0c.85115.85115-3.33333,5-3.33333,5s-3.33333,1.66667-1.66667,0S859.68,279.5,859.34,277.41667s-2.00665-1.52778-2.00665-1.80556-.93333-.46289-.46666-1.20367-1.2-.74077.46666-.74077S859,273.2963,859,273.48148s.90728-1.75926-.37969-1.62037-.361-1.04448-.824-1.28613-.31508-.13981-1.22235.64261-.90728,1.89352-1.74062,1.338a5.67293,5.67293,0,0,0-2.5-.55556s.55556-1.18337.27778-1.425,1.38889-.24165-.27778-.24165-1.66666.4833-2.5.24165S849,268.66667,849,268.66667v-.74074c0,.74074-.55556-1.491-1.11111-1.20845s-.55556.28252-.55556-1.38415-1.66666-1.66666,0-1.66666,0-3.33334,1.66667-1.66667l1.66667,1.66667,1.66666,1.66666s1.38356.0926,1.52512.0463-.1444-1.52778.83191-.787,1.7.55556,1.33817-.18518,1.3048-.74074,1.3048-.74074v0Z"/><path class="m" d="M838,264h3S839,265,838,264Z"/><path class="m" d="M845.67,259.28s-.25.11-.61.29A.442.442,0,0,1,845.67,259.28Z"/><path class="m" d="M853.02,268.21c.19995-.12.59.07.76.38C853.95,268.9,852.91,268.65,853.02,268.21Z"/><path class="t" d="M838.93,278.57c-.48.22-.93.43-.93.43s-.43,0-.98-.01A3.49283,3.49283,0,0,1,838.93,278.57Z"/><path class="t" d="M840.78,279c-.48,0-1.04-.37-1.85-.43.55-.26,1.15-.55,1.15-.57a11.35816,11.35816,0,0,1,.92-1v1.39C841,279,841.56,279,840.78,279Z"/><path class="u" d="M842,283h-3.33c-1.67,0-2.5.78-4.08-.61-1.59-1.39-2.21-.64-4.39-2.02h-.01a29.3813,29.3813,0,0,1-1.05-5.5,7.89148,7.89148,0,0,0,.51.63C831,277,831,278,832,278s2.13.89,3.07.94c.5.03,1.31.05,1.95.05-.01,0-.01.01-.02.01-2,1-3.09,1.33-3.04,1.17.04-.17-1.63-.02,1.71.9C839,282,838,282,839,282h2.19c-.19,0,1.15-1.67.98-.33C842,283,843,283,842,283Z"/><path class="u" d="M858,271c-1,1,.56,1.43-2.72.72C852,271,851,270,850.5,270.5s-.17-1.17-2.83-.83L845,270a8.92157,8.92157,0,0,0-.83.77c-.17.23-.18.37-.17,1.3,0,.93-1,.93,0,1.93s2.84.89,3.92,1.94A3.77507,3.77507,0,0,0,851,277c1,0,2,1,1,1s-.96,1-2.48,0c-1.52-1-1.52,0-3.52-1s-4-1-5-2-2.89-1.56-.94-2.78c1.94-1.22,1.61-.22,2.27-1.72.67-1.5,1.87-.74,1.27-2.12-.6-1.38-1.41-1.53-2.01-1.46-.59.08-.03-.48-1.81-.2-1.78.28-2.22-.87-3,.2C836,268,835,267,835,269a3.17694,3.17694,0,0,0,.78,2.57c.22.43.22.43-.78-.57a3.506,3.506,0,0,1-1-2.94c0-1.06-.67-1.87.67-2.47,1.09-.48,1.29-1.24,2.41-1.5A3.96908,3.96908,0,0,1,838,264c1,1,3,0,3,0h-3c-.53-.53-.71-.01-.92.09-.19.08-.42-.16-.95-1.73C835,259,836,259,836,259s-1-2,0-2,1-2,2-2h1a10.07287,10.07287,0,0,0-1,3c0,1-1,3,0,3s1,1,2,1,1,0,2,1a3.69968,3.69968,0,0,0,2,1.11s0-.11-1-1.11-1-1,0-2a9.15145,9.15145,0,0,1,2.06-1.43,1.23,1.23,0,0,0-.06.43c0,1,.11,1.72.06,2.36-.06.64.72,1.53.83,2.09.11.55.44.88,1.28,1.72.83.83.21.72,2.52,1.27,2.31.56,3.1,1.32,3.2.94a.25668.25668,0,0,1,.13-.17c-.11005.44.93.69.76.38-.17-.31-.56006-.5-.76-.38.03-.15.18-.31.54-.49C855,267,856,266,856,267s1.33.46,1.17,1.73C857,270,859,270,858,271Z"/><path class="t" d="M838,264a3.96908,3.96908,0,0,0-.92.09C837.29,263.99,837.47,263.47,838,264Z"/><path class="v" d="M838,264h3S839,265,838,264Z"/><path class="t" d="M853.02,268.21c.19995-.12.59.07.76.38C853.95,268.9,852.91,268.65,853.02,268.21Z"/><path class="u" d="M887.9,280.04a29.69619,29.69619,0,0,1-4.55,9.48h-.01C882,289.99,882,289,881,289s-2,0-1,1c.62.62,1.23,1.11,1.73,1.56a29.54726,29.54726,0,0,1-9.15,7.18.03677.03677,0,0,1-.03.01C871,299,871,298,870,298h-2c-1,0-2-1-2,0s0,0-1,1-1,1-1,2c0,.78.34.34-.14.6a28.88864,28.88864,0,0,1-4.86.4c-.18,0-.36,0-.53-.01a2.59478,2.59478,0,0,0-1.13995-1.21c-1.33-.78-2.19-1.78-3.26-2.28S852,298,851,297s-.44-1.92-2.22-1.46c-1.78.46-1.59-.43-2.19-.48C846,295,845,294,844,294s-1.66-1.22-1.83-1.11C842,293,842,293,841,291s-1-2.44,0-3.72c.88-1.12,1.45-1.77,1.58-1.92A2.72128,2.72128,0,0,0,842,287c0,1,0,1.27,1.5,2.64C845,291,845,291,847,291s3.33.11,3.67.06C851,291,850,291,850,289s1-1,1-2,1,0,2-1,1.33-1.81,2.17-1.41C856,285,857,284,857,284s1.56.19,1.28.59c-.28.41.92,0,.92,0A3.03078,3.03078,0,0,1,857,286c-1,0-2,2-2,3v2.39c0,.61-1-.39,0,1.61s2,1,3,2,3,1,4,1a8.23027,8.23027,0,0,0,3.28-.46C867,295,868,295,868,294s.11.67.56-1.67C869,290,869,292,869,290s0-3,1-3,1.1-1,2.55-.5S875,286,876,286s1.35.14,2.67.07c1.33-.07,1.77.07,1.55,0a.00976.00976,0,0,1-.01-.01c.1,0,1.81.32.84-.34-1.05-.72-2.63-.94-2.34-2.33C879,282,881,283,881,281s1.69-3,2.35-4a2.11261,2.11261,0,0,1,1.65-1s1-.89,0,.56c-1,1.44-.31,1.55-1.65,3C882,281,882,281,882,282a3.74388,3.74388,0,0,0,1.02,2.12c0,.12.12.74.98-.12,1-1,0-1,1-2s.35-1.44,1.17-1.72A6.13284,6.13284,0,0,1,887.9,280.04Z"/><path class="u" d="M884.18,260.61c.18.61-1.18.39-1.16.28.03-.11-1.02-.89-1.02-.89l1.35-1c1.34-1,.65-1,.65-2s-1-1-2-1,0-2-.95-2.78c-.95-.78-2.05-.22-3.05-1.66-1-1.45-1-.56-1.2-1.5a3.35915,3.35915,0,0,1,.5-1.83,29.87434,29.87434,0,0,1,9.49,12.49c-1.19-.27-.79-.72-1.79-.72S884,260,884.18,260.61Z"/><path class="u" d="M871.4,263.44c-1.9.06-3.9-1.94-4.9-1.94a3.67367,3.67367,0,0,1-3-1c-1-1,0-1-2-2s-.33.33-2.67-1.83c-2.33-2.17-2.33-3.17-3.33-3.17s-1,0-2-1-2.1-.03-2.05-2.01c.05-1.99,1.05-2.99.05-2.99a3.49137,3.49137,0,0,1-2-1s-1.33-1.44.33-.22a6.87846,6.87846,0,0,0,4.69,1.44c.98-.22.04,0,1.51.89,1.47.89,1.47,3.78,2.97,3.83,1.5.06,1.5.06,2.5,1.06a14.38538,14.38538,0,0,1,2,3l2,1s0,1,2,1,3,0,3,1,1,1,1,2S873.3,263.39,871.4,263.44Z"/></svg>