<svg xmlns="http://www.w3.org/2000/svg" width="1920" height="720" viewBox="0 0 1920 720"><defs><style>.a,.b,.c,.d,.e{fill:#fff;isolation:isolate;}.a{opacity:0.78;}.b{opacity:0.5;}.c{opacity:0.6;}.d{opacity:0.34;}.e{opacity:0.29;}.f{fill:#595959;}.g{fill:#616161;}.h{fill:#757575;}.i{fill:#424242;}.j{fill:#9e9e9e;}.k{fill:#212121;}.l{fill:#c4c4c4;}.m{fill:#f5f5f5;}.n{fill:#01579b;stroke:#c1c1c1;stroke-miterlimit:10;stroke-width:4px;}.o{fill:#1965c0;}.p{fill:#a9a9aa;}</style></defs><polygon class="a" points="1285.144 238.575 1284.627 239.744 1285.144 240.835 1285.698 239.744 1285.144 238.575"/><polygon class="b" points="1364.251 230.315 1363.734 231.406 1364.251 232.497 1364.805 231.406 1364.251 230.315"/><polygon class="b" points="1171.97 9 1171.416 10.091 1171.97 11.26 1172.524 10.091 1171.97 9"/><polygon class="b" points="1319.248 71.264 1318.73 72.355 1319.248 73.446 1319.839 72.355 1319.248 71.264"/><polygon class="b" points="1401.939 122.619 1401.422 123.71 1401.939 124.879 1402.493 123.71 1401.939 122.619"/><polygon class="b" points="1306.279 285.332 1305.761 286.423 1306.279 287.514 1306.833 286.423 1306.279 285.332"/><polygon class="b" points="1271.806 68.615 1271.288 69.706 1271.806 70.797 1272.36 69.706 1271.806 68.615"/><polygon class="b" points="1064.856 164.856 1064.338 166.024 1064.856 167.115 1065.41 166.024 1064.856 164.856"/><polygon class="b" points="1347.809 194.078 1347.255 195.169 1347.809 196.26 1348.363 195.169 1347.809 194.078"/><polygon class="b" points="1030.198 230.704 1029.902 231.328 1030.198 231.951 1030.53 231.328 1030.198 230.704"/><polygon class="b" points="1151.316 241.848 1151.02 242.472 1151.316 243.095 1151.611 242.472 1151.316 241.848"/><polygon class="a" points="1190.186 237.095 1189.89 237.718 1190.186 238.263 1190.518 237.718 1190.186 237.095"/><polygon class="b" points="811.055 103.293 810.537 104.384 811.055 105.475 811.609 104.384 811.055 103.293"/><polygon class="b" points="925.448 161.115 924.894 162.206 925.448 163.297 926.002 162.206 925.448 161.115"/><polygon class="b" points="987.374 150.283 986.857 151.452 987.374 152.543 987.928 151.452 987.374 150.283"/><polygon class="a" points="887.649 244.42 887.132 245.511 887.649 246.68 888.204 245.511 887.649 244.42"/><polygon class="b" points="954.674 329.984 954.12 331.075 954.674 332.166 955.229 331.075 954.674 329.984"/><polygon class="a" points="1080.781 280.656 1080.263 281.825 1080.781 282.916 1081.335 281.825 1080.781 280.656"/><polygon class="b" points="1066.37 331.309 1065.853 332.478 1066.37 333.569 1066.925 332.478 1066.37 331.309"/><polygon class="b" points="1099.255 317.282 1098.738 318.451 1099.255 319.542 1099.809 318.451 1099.255 317.282"/><polygon class="b" points="788.553 155.27 788.257 155.894 788.553 156.517 788.885 155.894 788.553 155.27"/><polygon class="b" points="912.922 112.021 912.627 112.644 912.922 113.267 913.218 112.644 912.922 112.021"/><polygon class="b" points="829.27 331.309 829.012 331.933 829.27 332.556 829.603 331.933 829.27 331.309"/><polygon class="b" points="464.956 289.228 464.439 290.319 464.956 291.488 465.51 290.319 464.956 289.228"/><polygon class="c" points="505.932 15.936 505.415 17.104 505.932 18.195 506.523 17.104 505.932 15.936"/><polygon class="b" points="609.425 57.627 608.908 58.796 609.425 59.887 609.98 58.796 609.425 57.627"/><polygon class="b" points="737.49 135.788 736.972 136.879 737.49 137.97 738.044 136.879 737.49 135.788"/><polygon class="b" points="423.499 168.752 422.982 169.843 423.499 171.012 424.054 169.843 423.499 168.752"/><polygon class="b" points="368.409 83.889 367.891 84.98 368.409 86.148 368.963 84.98 368.409 83.889"/><polygon class="b" points="570.777 195.169 570.223 196.26 570.777 197.351 571.331 196.26 570.777 195.169"/><polygon class="b" points="414.632 61.757 414.336 62.381 414.632 63.004 414.964 62.381 414.632 61.757"/><polygon class="b" points="539.001 87.863 538.706 88.486 539.001 89.11 539.297 88.486 539.001 87.863"/><polygon class="b" points="137.59 333.647 137.073 334.738 137.59 335.907 138.144 334.738 137.59 333.647"/><polygon class="b" points="381.045 232.107 380.528 233.276 381.045 234.367 381.599 233.276 381.045 232.107"/><polygon class="d" points="394.975 257.356 394.458 258.447 394.975 259.538 395.529 258.447 394.975 257.356"/><polygon class="b" points="324.588 244.965 324.07 246.056 324.588 247.147 325.179 246.056 324.588 244.965"/><polygon class="b" points="232.547 246.138 231.993 247.229 232.547 248.32 233.101 247.229 232.547 246.138"/><polygon class="b" points="121.043 247.508 120.526 248.599 121.043 249.69 121.597 248.599 121.043 247.508"/><polygon class="b" points="103.708 81.317 103.191 82.408 103.708 83.577 104.262 82.408 103.708 81.317"/><polygon class="b" points="989.993 72.65 989.475 73.819 989.993 74.91 990.547 73.819 989.993 72.65"/><polygon class="b" points="1841.038 141.945 1840.521 143.114 1841.038 144.205 1841.592 143.114 1841.038 141.945"/><polygon class="b" points="1800.357 270.993 1799.84 272.162 1800.357 273.253 1800.912 272.162 1800.357 270.993"/><polygon class="b" points="1685.668 202.027 1685.114 203.118 1685.668 204.209 1686.223 203.118 1685.668 202.027"/><polygon class="b" points="1742.422 155.27 1742.126 155.894 1742.422 156.517 1742.717 155.894 1742.422 155.27"/><polygon class="a" points="1392.813 238.653 1392.295 239.822 1392.813 240.913 1393.367 239.822 1392.813 238.653"/><polygon class="b" points="1553.244 100.02 1552.727 101.189 1553.244 102.28 1553.835 101.189 1553.244 100.02"/><polygon class="b" points="1569.834 156.985 1569.317 158.076 1569.834 159.245 1570.388 158.076 1569.834 156.985"/><polygon class="b" points="1503.733 205.144 1503.215 206.235 1503.733 207.326 1504.324 206.235 1503.733 205.144"/><polygon class="b" points="1420.155 205.534 1419.637 206.703 1420.155 207.794 1420.709 206.703 1420.155 205.534"/><polygon class="a" points="1493.461 263.045 1492.907 264.135 1493.461 265.304 1494.015 264.135 1493.461 263.045"/><polygon class="b" points="1577.002 213.482 1576.448 214.573 1577.002 215.742 1577.556 214.573 1577.002 213.482"/><polygon class="b" points="1738.394 84.512 1737.877 85.603 1738.394 86.772 1738.948 85.603 1738.394 84.512"/><polygon class="b" points="1899.712 35.184 1899.195 36.353 1899.712 37.444 1900.267 36.353 1899.712 35.184"/><polygon class="b" points="1208.956 366.299 1208.438 367.39 1208.956 368.559 1209.51 367.39 1208.956 366.299"/><polygon class="b" points="985.194 381.417 984.677 382.586 985.194 383.677 985.748 382.586 985.194 381.417"/><polygon class="e" points="1084.438 425.368 1083.921 426.459 1084.438 427.55 1084.993 426.459 1084.438 425.368"/><polygon class="b" points="1013.645 397.937 1013.386 398.561 1013.645 399.184 1013.977 398.561 1013.645 397.937"/><polygon class="b" points="1246.052 334.894 1245.498 336.063 1246.052 337.154 1246.606 336.063 1246.052 334.894"/><polygon class="a" points="1297.344 557.634 1296.827 558.802 1297.344 559.893 1297.898 558.802 1297.344 557.634"/><polygon class="b" points="1376.451 549.373 1375.934 550.464 1376.451 551.555 1377.005 550.464 1376.451 549.373"/><polygon class="b" points="1184.17 328.058 1183.616 329.149 1184.17 330.318 1184.724 329.149 1184.17 328.058"/><polygon class="b" points="1331.448 390.323 1330.93 391.414 1331.448 392.505 1332.039 391.414 1331.448 390.323"/><polygon class="b" points="1414.139 441.677 1413.622 442.768 1414.139 443.937 1414.693 442.768 1414.139 441.677"/><polygon class="b" points="1421.479 473.39 1420.961 474.481 1421.479 475.572 1422.033 474.481 1421.479 473.39"/><polygon class="b" points="1284.005 387.673 1283.488 388.764 1284.005 389.855 1284.56 388.764 1284.005 387.673"/><polygon class="b" points="1077.056 483.914 1076.538 485.083 1077.056 486.174 1077.61 485.083 1077.056 483.914"/><polygon class="b" points="1360.009 513.137 1359.455 514.228 1360.009 515.319 1360.563 514.228 1360.009 513.137"/><polygon class="b" points="1453.896 505.5 1453.342 506.591 1453.896 507.682 1454.45 506.591 1453.896 505.5"/><polygon class="b" points="1042.398 549.763 1042.102 550.386 1042.398 551.01 1042.73 550.386 1042.398 549.763"/><polygon class="b" points="1163.516 560.906 1163.22 561.53 1163.516 562.153 1163.811 561.53 1163.516 560.906"/><polygon class="a" points="1202.386 556.153 1202.09 556.776 1202.386 557.322 1202.718 556.776 1202.386 556.153"/><polygon class="b" points="823.255 422.351 822.737 423.442 823.255 424.533 823.809 423.442 823.255 422.351"/><polygon class="b" points="937.648 480.173 937.094 481.264 937.648 482.355 938.202 481.264 937.648 480.173"/><polygon class="b" points="999.574 469.341 999.057 470.51 999.574 471.601 1000.128 470.51 999.574 469.341"/><polygon class="a" points="1002.849 432.478 1002.332 433.569 1002.849 434.738 1003.404 433.569 1002.849 432.478"/><polygon class="b" points="544.874 420.043 544.32 421.134 544.874 422.225 545.429 421.134 544.874 420.043"/><polygon class="a" points="1195.98 468.715 1195.463 469.883 1195.98 470.974 1196.535 469.883 1195.98 468.715"/><polygon class="b" points="656.57 421.368 656.053 422.536 656.57 423.627 657.125 422.536 656.57 421.368"/><polygon class="b" points="689.455 407.341 688.938 408.509 689.455 409.6 690.009 408.509 689.455 407.341"/><polygon class="b" points="800.753 474.329 800.457 474.952 800.753 475.576 801.085 474.952 800.753 474.329"/><polygon class="b" points="925.122 431.079 924.827 431.702 925.122 432.326 925.418 431.702 925.122 431.079"/><polygon class="b" points="419.47 421.368 419.212 421.991 419.47 422.614 419.803 421.991 419.47 421.368"/><polygon class="b" points="477.156 608.287 476.639 609.378 477.156 610.546 477.71 609.378 477.156 608.287"/><polygon class="c" points="518.132 334.994 517.615 336.163 518.132 337.254 518.723 336.163 518.132 334.994"/><polygon class="b" points="621.625 376.685 621.108 377.854 621.625 378.945 622.18 377.854 621.625 376.685"/><polygon class="b" points="686.507 344.111 685.99 345.202 686.507 346.293 687.062 345.202 686.507 344.111"/><polygon class="b" points="749.69 454.847 749.172 455.938 749.69 457.029 750.244 455.938 749.69 454.847"/><polygon class="b" points="701.176 469.731 700.622 470.822 701.176 471.913 701.73 470.822 701.176 469.731"/><polygon class="b" points="435.699 487.81 435.182 488.901 435.699 490.07 436.254 488.901 435.699 487.81"/><polygon class="b" points="380.609 402.947 380.091 404.038 380.609 405.207 381.163 404.038 380.609 402.947"/><polygon class="b" points="582.977 514.228 582.423 515.319 582.977 516.41 583.531 515.319 582.977 514.228"/><polygon class="b" points="676.494 505.967 675.94 507.058 676.494 508.149 677.049 507.058 676.494 505.967"/><polygon class="b" points="426.832 380.815 426.536 381.439 426.832 382.062 427.164 381.439 426.832 380.815"/><polygon class="b" points="551.201 406.921 550.905 407.545 551.201 408.168 551.497 407.545 551.201 406.921"/><polygon class="b" points="224.094 462.484 223.577 463.575 224.094 464.744 224.648 463.575 224.094 462.484"/><polygon class="b" points="221.212 508.227 220.658 509.318 221.212 510.409 221.766 509.318 221.212 508.227"/><polygon class="b" points="265.403 431.391 264.885 432.482 265.403 433.573 265.957 432.482 265.403 431.391"/><polygon class="b" points="393.245 551.166 392.728 552.334 393.245 553.425 393.799 552.334 393.245 551.166"/><polygon class="d" points="407.175 576.414 406.658 577.505 407.175 578.596 407.729 577.505 407.175 576.414"/><polygon class="b" points="336.788 564.024 336.27 565.115 336.788 566.206 337.379 565.115 336.788 564.024"/><polygon class="b" points="260.747 619.196 260.193 620.287 260.747 621.378 261.301 620.287 260.747 619.196"/><polygon class="b" points="93.184 609.378 92.667 610.469 93.184 611.637 93.739 610.469 93.184 609.378"/><polygon class="b" points="40.717 445.418 40.2 446.509 40.717 447.6 41.271 446.509 40.717 445.418"/><polygon class="b" points="208.686 459.133 208.391 459.756 208.686 460.38 208.982 459.756 208.686 459.133"/><polygon class="b" points="313.584 518.124 313.288 518.748 313.584 519.293 313.879 518.748 313.584 518.124"/><polygon class="b" points="203.994 342.709 203.476 343.8 203.994 344.969 204.548 343.8 203.994 342.709"/><polygon class="b" points="305.381 402.012 304.864 403.103 305.381 404.194 305.972 403.103 305.381 402.012"/><polygon class="b" points="964.362 371.854 963.845 372.945 964.362 374.036 964.916 372.945 964.362 371.854"/><polygon class="b" points="880.193 336.708 879.675 337.877 880.193 338.968 880.747 337.877 880.193 336.708"/><polygon class="b" points="1164.244 453.606 1163.727 454.697 1164.244 455.788 1164.835 454.697 1164.244 453.606"/><polygon class="b" points="1853.238 461.003 1852.721 462.172 1853.238 463.263 1853.792 462.172 1853.238 461.003"/><polygon class="b" points="1755.557 572.051 1755.04 573.22 1755.557 574.311 1756.112 573.22 1755.557 572.051"/><polygon class="b" points="1697.868 521.085 1697.314 522.176 1697.868 523.267 1698.423 522.176 1697.868 521.085"/><polygon class="b" points="1669.861 443.937 1669.344 445.028 1669.861 446.119 1670.415 445.028 1669.861 443.937"/><polygon class="a" points="1405.013 557.711 1404.495 558.88 1405.013 559.971 1405.567 558.88 1405.013 557.711"/><polygon class="b" points="1373.939 347.151 1373.385 348.242 1373.939 349.333 1374.493 348.242 1373.939 347.151"/><polygon class="b" points="1430.84 361.645 1430.322 362.736 1430.84 363.827 1431.431 362.736 1430.84 361.645"/><polygon class="b" points="1509.356 417.675 1508.802 418.766 1509.356 419.857 1509.91 418.766 1509.356 417.675"/><polygon class="b" points="1599.215 370.685 1598.661 371.776 1599.215 372.867 1599.769 371.776 1599.215 370.685"/><polygon class="b" points="1565.444 419.078 1564.927 420.247 1565.444 421.338 1566.035 420.247 1565.444 419.078"/><polygon class="b" points="1619.759 473.705 1619.241 474.796 1619.759 475.965 1620.35 474.796 1619.759 473.705"/><polygon class="b" points="1515.933 524.202 1515.415 525.293 1515.933 526.384 1516.524 525.293 1515.933 524.202"/><polygon class="b" points="1432.355 524.592 1431.837 525.761 1432.355 526.852 1432.909 525.761 1432.355 524.592"/><polygon class="a" points="1608.661 451.103 1608.107 452.194 1608.661 453.363 1609.215 452.194 1608.661 451.103"/><polygon class="b" points="1589.202 532.541 1588.648 533.632 1589.202 534.801 1589.756 533.632 1589.202 532.541"/><polygon class="b" points="1911.912 354.242 1911.395 355.411 1911.912 356.502 1912.467 355.411 1911.912 354.242"/><polygon class="b" points="799.156 456.357 798.638 457.448 799.156 458.617 799.71 457.448 799.156 456.357"/><polygon class="b" points="575.394 471.475 574.877 472.644 575.394 473.735 575.948 472.644 575.394 471.475"/><polygon class="e" points="674.638 515.426 674.121 516.517 674.638 517.608 675.193 516.517 674.638 515.426"/><polygon class="b" points="603.845 487.996 603.586 488.619 603.845 489.243 604.177 488.619 603.845 487.996"/><polygon class="b" points="836.252 424.952 835.698 426.121 836.252 427.212 836.806 426.121 836.252 424.952"/><path class="f" d="M-30.56708,737.47321-8,726l16-7.08868s16-5.23389,17-10.07257,24.432-18.13,24.432-18.13L61,671s10-7.6358,13-5.81793,13-2.81787,17,0,7,4.2193,13-4.48139a63.465,63.465,0,0,1,14-14.3067l21.20848,1.50824s8.11092-3.93335,13.95122-5.91778,27.65045-11.49256,30.24539-12.23853S195,624.99725,199,618.99866s15-9.17957,15-9.17957,12.28746,4.80329,16.14374,2.49213S243,614.63818,247,609.81909s15.55557,8.81909,26.27777,0S289,607.52887,303,595.7644s20.53116-14.087,32.26559-16.92572S363,570.79095,366,566.39545s9-8.93439,15-8.16492,18.721,3.50916,24.36053,2.13928S403.43466,568.93951,410,560s34-19,44-21,6,2,16,4,27.04019-3,41.52011-5.5S539,526.07526,547,523.5376s19-6.24732,34-7.39246S608,517,621,513s26-4.68,31-8.34,17,0,17,0S686,495,689,497s13-5,25,0,41.76135,7.32,46.88068,7.66S774,503.78888,792.5,502.39444,835,499,841,497s15-8,28-7,24,6,28,7,16,15.31995,26,7.66,29-17.883,37-14.77151S979,505.32,989,504.66s36-8.66,42-7.66,32-3,42,0,24.21265,1,36.10632,0,29.30835-7,34.601,0S1163,493,1169,497s17,3.32,27,7.66,24.94922,5.81113,31.97461,6.57557S1222.75647,515,1243.87817,513,1268,513,1280,513s16,1,25,0,27-2,33,0,8,5.27094,14,7.13544,16,2.13543,20,0,6-3.13544,10,0c11.29187,8.85125,9,5.3753,22,7.11993s27.48474-2.74463,33.74231,0S1456,534,1466,539s14,.49774,24,5.24884,19.7417,9.21222,26.87085,13.98169S1534,571.84949,1534,571.84949s15.25842,3.27136,22.62927,2.71093,10.19922-.32922,21.785,3.05518,12.58581-.3844,24.58581,0,19,.707,25,2.54572,15,0,28,1.91937,29.05054,13.70386,32.02527,22.81158S1685,616.802,1696,618.901s64,4.901,65,17,.06287,5.32922,5.53149,7.71411-23.39074-10.40765-18.46106-8.51135S1786,646.65363,1786,646.65363a74.13484,74.13484,0,0,0,21,2.94683s27,14.38831,30,14.39392,15-7.63018,16,1.18775,7,17.97424,21,24.81793,21,12.3183,26,13,15,15,15,15,0,10.744,5,11,18.18018-13,20.09009-9,0,23.5282,0,23.5282Z"/><path class="g" d="M1958.65991,743H1958.65c-19.52,5.91-49.12,5.65-77.65,9.22-48,6-224,31-337,32s-151-1-262-10-154-2-314,4-226,11-319.07,10c-93.08-1-241.93-48-222.93-55s19-6,36-14.09,30-21.91,42-32.91,39-17,66-22.01c27-5,48,.01,95-3.29s33-16.7,50-25.6c17-8.89,48-22.1,79.5-25.28s35.5-3.82,64.5-5.92,48-24.9,62-36.42,24-18.48,34-27.48,37-19,63-16.46,49,6.46,68.93994,3.72c14.98-2.07,49.28-13.6,72.19006-22.6-64.51-5.04-130.69006-7.66-198.13-7.66-681.52,0-1234,267.51-1234,597.5s552.48,597.5,1234,597.5,1234-267.51,1234-597.5C2195,963.24,2107.29,841.68,1958.65991,743Z"/><path class="h" d="M1940.09009,732.05l-10.04,15.4L1680,756s-248-22-241.92993-28C1444.15,722,1491,700,1500,697.87s30-20.87,47-37.17,82-7.7,114.71-12.8c32.7-5.1,65.29,7.1,89.29,7.1h43.98c-173.87-77.58-393.88-131.28-637.85-150.34-22.91,9-57.21008,20.53-72.19006,22.6C1065,530,1042,526.08,1016,523.54S963,531,953,540s-20,15.96-34,27.48-33,34.32-62,36.42-33,2.74-64.5,5.92005S730,626.21,713,635.1c-17,8.9-3,22.3-50,25.6s-68-1.71-95,3.29C541,669,514,675,502,686s-25,24.82-42,32.91C443,727,443,726,424,733s129.85,54,222.93,55C740,789,806,784,966,778s203-13,314-4,149,11,262,10,289-26,337-32c28.53-3.57,58.13-3.31,77.65-9.22Q1948.48993,737.365,1940.09009,732.05Z"/><path class="i" d="M1940.09009,732.05l-10.04,15.4L1680,756s-248-22-241.92993-28C1444.15,722,1491,700,1500,697.87s30-20.87,47-37.17,82-7.7,114.71-12.8c32.7-5.1,65.29,7.1,89.29,7.1h43.98C1847.82007,678.57,1896.4,704.35,1940.09009,732.05Z"/><path class="j" d="M646.88928,606.01892c1.18585,16.0246-25.96,21.3681-59.11981,23.19208s-62.38708-.438-62.01324-15.92041c.26055-10.7901,26.70678-21.28235,59.86657-23.10632S646.09271,595.25513,646.88928,606.01892Z"/><ellipse class="k" cx="586.39594" cy="612.31119" rx="60.1319" ry="19.54285" transform="matrix(0.99849, -0.05492, 0.05492, 0.99849, -32.74425, 33.1302)"/><path class="j" d="M1017.4527,548.68066c.06891,3.08368-6.14173,3.8216-13.66968,3.8216s-14.115-.74164-13.83765-3.705C990.13867,546.73212,996.255,545,1003.783,545S1017.40643,546.60931,1017.4527,548.68066Z"/><ellipse class="k" cx="1003.6825" cy="549.24884" rx="13.63062" ry="3.75116"/><path class="g" d="M1767.65869,711.01727c-2.37659,27.92151-50.61719,29.63526-108.248,23.6294S1552.05078,716.6839,1556.965,690.12616c3.4248-18.50867,51.88-29.28156,109.51086-23.27576S1769.255,692.26227,1767.65869,711.01727Z"/><ellipse class="k" cx="1661.70534" cy="705.16635" rx="34.08166" ry="104.91485" transform="translate(788.09986 2284.83013) rotate(-84.05055)"/><path class="j" d="M735.98059,704.4248c1.991,25.10621-52.5072,34.13813-118.96643,37.79371s-124.94409.80822-123.82416-23.485c.78052-16.93048,54.0008-34.02148,120.46-37.677S734.64319,687.56085,735.98059,704.4248Z"/><ellipse class="k" cx="614.66826" cy="715.74395" rx="120.5169" ry="30.62726" transform="translate(-38.38219 34.83897) rotate(-3.14837)"/><path class="j" d="M999.99878,572.242c.15,6.7121-13.36841,8.31836-29.75421,8.31836s-30.72357-1.61425-30.11981-8.06439c.42077-4.49524,13.734-8.26544,30.11981-8.26544S999.898,567.73352,999.99878,572.242Z"/><ellipse class="k" cx="970.02582" cy="573.47888" rx="29.66913" ry="8.16492"/><path class="j" d="M1517.27429,647.66174c.1991,10.52124-17.75207,13.039-39.511,13.039s-40.79822-2.53033-39.99646-12.64093c.55871-7.04632,18.23754-12.956,39.99646-12.956S1517.1405,640.5946,1517.27429,647.66174Z"/><ellipse class="k" cx="1477.47278" cy="649.60046" rx="39.39807" ry="12.79846"/><path class="j" d="M1143.69873,676.9007c.47852,11.5935-19.24853,14.81091-43.23523,15.34655s-45.03735-1.785-44.40246-12.9505c.4425-7.78149,19.78576-14.73144,43.77233-15.26709S1143.37732,669.11334,1143.69873,676.9007Z"/><ellipse class="k" cx="1099.87018" cy="680.01766" rx="43.44238" ry="14.11231" transform="translate(-14.90733 24.72419) rotate(-1.27924)"/><path class="j" d="M831.51013,523.208c.12561,3.04352-5.0531,3.88812-11.35,4.02875s-11.82312-.46863-11.65644-3.39978c.11615-2.04279,5.19409-3.86731,11.491-4.00788S831.42572,521.16364,831.51013,523.208Z"/><ellipse class="k" cx="820.00439" cy="524.02622" rx="11.40442" ry="3.70471" transform="translate(-11.49456 18.43728) rotate(-1.27924)"/><path class="j" d="M807.46942,518.814c.041.99365-1.64978,1.26941-3.70569,1.31536s-3.8601-.153-3.80572-1.11c.0379-.66693,1.6958-1.26264,3.75171-1.30853S807.44189,518.14661,807.46942,518.814Z"/><ellipse class="k" cx="803.71486" cy="519.07681" rx="3.72345" ry="1.20953" transform="translate(-11.39059 18.07639) rotate(-1.27952)"/><path class="j" d="M350.39017,598.1615c.46106,3.011-4.59268,4.42255-10.83554,5.25787s-11.80255.84027-11.9607-2.09131c-.1102-2.04309,4.73514-4.41735,10.978-5.25268S350.08047,596.139,350.39017,598.1615Z"/><ellipse class="k" cx="339.04521" cy="600.24572" rx="11.40445" ry="3.70471" transform="translate(-76.61287 50.2685) rotate(-7.62134)"/><path class="j" d="M1620.40808,620.80511c.067,1.62275-2.69421,2.07306-6.05163,2.14808s-6.30384-.24988-6.215-1.81269c.06189-1.08917,2.76941-2.062,6.12683-2.1369S1620.36316,619.71515,1620.40808,620.80511Z"/><ellipse class="k" cx="1614.27351" cy="621.24133" rx="6.08057" ry="1.97528" transform="translate(-13.46694 36.19364) rotate(-1.27924)"/><path class="h" d="M784,580.16132s2.74194-4.93549,3.83868-4.93549,2.742-1.64514,2.742-1.64514l3.29034-.5484,3.83869,4.38708s2.19354,1.0968,2.19354,1.64514c0,0,1.09674.54841,1.09674,1.09674Z"/><path class="i" d="M784.5484,581.25806s.5484,1.64514,1.09674,1.64514,3.83869,0,4.93549.5484,5.48388.5484,5.48388.5484l2.74195-2.19354A21.86212,21.86212,0,0,0,801,580.16132H784Z"/><path class="h" d="M1236.5,714s7.01611-12.629,9.82263-12.629,7.01612-4.20965,7.01612-4.20965l8.41931-1.40326,9.82263,11.22583s5.61291,2.80645,5.61291,4.20965c0,0,2.8064,1.4032,2.8064,2.80646Z"/><path class="i" d="M1237.9032,716.80646s1.4032,4.20965,2.80639,4.20965,9.82264,0,12.629,1.4032,14.03223,1.40326,14.03223,1.40326l7.01611-5.61291A55.94872,55.94872,0,0,0,1280,714h-43.5Z"/><path class="h" d="M1427,576.39246s1.74731-3.14515,2.44629-3.14515,1.74731-1.0484,1.74731-1.0484l2.09681-.34948,2.44628,2.79571s1.39783.69892,1.39783,1.0484c0,0,.699.34949.699.69892Z"/><path class="i" d="M1427.34949,577.09137s.34948,1.0484.699,1.0484a10.77961,10.77961,0,0,1,3.14514.34949,14.47837,14.47837,0,0,0,3.49463.34949l1.74732-1.39783a13.94309,13.94309,0,0,0,1.39782-1.0484H1427Z"/><path class="h" d="M1085.33337,516.14514s1.20972-2.17743,1.69361-2.17743,1.20971-.72583,1.20971-.72583L1089.68811,513l1.6936,1.93549s.96778.48388.96778.72583c0,0,.48388.24194.48388.48388Z"/><path class="i" d="M1085.57532,516.629s.24194.72583.48388.72583a7.46217,7.46217,0,0,1,2.17737.24194,10.02294,10.02294,0,0,0,2.41931.24195l1.20972-.96772a9.64986,9.64986,0,0,0,.96777-.72583h-7.5Z"/><path class="h" d="M555.16669,539s.95965-1.72742,1.34356-1.72742.95966-.5758.95966-.5758l1.15161-.192,1.34357,1.53546s.76776.38385.76776.57581c0,0,.38385.192.38385.38385Z"/><path class="i" d="M555.35858,539.38385s.192.57581.38385.57581a5.91948,5.91948,0,0,1,1.72742.192,7.94965,7.94965,0,0,0,1.91937.192l.95966-.76776A7.64636,7.64636,0,0,0,561.1167,539h-5.95Z"/><path class="h" d="M256.27777,705s2.74194-4.93549,3.83872-4.93549,2.74194-1.64514,2.74194-1.64514l3.29034-.5484,3.83872,4.38709s2.19354,1.0968,2.19354,1.64514c0,0,1.09677.5484,1.09677,1.09674Z"/><path class="i" d="M256.82617,706.09674s.5484,1.64514,1.09677,1.64514,3.83872,0,4.93549.5484,5.48386.5484,5.48386.5484l2.74194-2.19354A21.8606,21.8606,0,0,0,273.27777,705h-17Z"/><path class="l" d="M1096.43774,623.51813c-1.226-9.5727-2.5465-19.29016-3.10449-21.373C1092.16663,597.79034,1091.5,570.5,1091.5,570.5c12-1,15-3,26.83337-10.5S1134.5,536.5,1134.5,536.5l-22-7c-10,14-27,16-27,16s-35-3-47.90076,2.99512S1006.5,567.5,1006.5,577.5s9,15,9,15l14.83337,8.07257-2.57934,23.29828A30.59814,30.59814,0,0,0,1039.5,630.5a44.75919,44.75919,0,0,0,14.06909,1.42712L1055.5,621.5c9,1,13-1,13-1s1.25806,5.41113,2.5,11.5c0,0,5.5,1.5,14.5-1.5S1096.43774,623.51813,1096.43774,623.51813Z"/><path class="m" d="M1029.5,593.5a43.41555,43.41555,0,0,0,.83337,6.07257l-.61645,5.56867S1025.5,608.5,1020,604a9.94683,9.94683,0,0,1-3.5-10.5,33.65,33.65,0,0,1-7.5-5.5s.5-9.5,9.5-11.5,12,1,12,1l-1,9Z"/><path class="m" d="M1102.71863,537.82928S1104.5,551.5,1110.5,555.5s13.5.5,13.5.5,5.5-6.5,11.5-21.5a11.04339,11.04339,0,0,0,3-7s4-4-1-9a17.26525,17.26525,0,0,0-3-4s9-12,3-16-10,12-10,12-.71887-14.66666-5.8595-13.83334S1118.5,512.5,1118.5,512.5a10.759,10.759,0,0,0-5,4c-2,3-2,9-1,12A31.97846,31.97846,0,0,1,1102.71863,537.82928Z"/><path class="m" d="M1053.48865,631.86133,1050.5,649s-1,7-7,7h-19.16663s-5.83331,0-5.83331-6,6.99994-5.26947,6.99994-5.26947l2.22351-21.0838S1034.5,629,1039.5,630,1053.48865,631.86133,1053.48865,631.86133Z"/><path class="m" d="M1070.78027,631.02319c1.2439,6.08936,2.72779,13.005,3.71973,16.47681,2,7,5.83337,7,5.83337,7H1099s5.5,0,6.08337-5.66669S1099,643.23053,1099,643.23053s-1.20825-10.131-2.535-20.49957A31.84953,31.84953,0,0,1,1084.5,629.5,44.62336,44.62336,0,0,1,1070.78027,631.02319Z"/><path class="m" d="M1031.98633,586.2641a5.478,5.478,0,0,0-2.89917.47974,4.54783,4.54783,0,0,0-2.75391,4.33532c0,4.4209,5.16663,5.4209,5.16663,5.4209s8,1,13,1a4.96877,4.96877,0,0,0,5.33337,5.33869H1074s6.5.66131,6.5-5.33869c0,0,12,0,15-2a6.45874,6.45874,0,0,0,3-5s.16663-4.66669-4.41663-4.33331S1083.5,587.5,1080.5,587.5v-4s0-5-5-5h-25.91663s-4.41662,0-4.75,3.5-.33337,5.5-.33337,5.5Z"/><path class="l" d="M1016.5,491.5v27.08331s-9-1.25-10-8.16665a47.62232,47.62232,0,0,1,0-13S1006.5,492.5,1016.5,491.5Z"/><path class="l" d="M1106,516.59723V489.51389s9,1.25,10,8.16665a47.62232,47.62232,0,0,1,0,13S1116,515.59723,1106,516.59723Z"/><circle class="n" cx="1062" cy="505" r="46"/><rect class="g" x="1066" y="587" width="9" height="8"/><path class="o" d="M1063.80005,466c-7.89014,5.27-28.35,20.95-37.91,47.33a39.0418,39.0418,0,0,1,37.91-47.33Z"/><polygon class="p" points="1045 560 1038 571 1058.083 571 1060 567 1062.75 571 1083 571 1076 560 1062 560 1061 561 1059 561 1058 560 1045 560"/><circle class="p" cx="1055" cy="591" r="3"/><circle class="o" cx="1055" cy="591" r="2"/><rect class="p" x="1050" y="582" width="25" height="1"/><rect class="p" x="1050" y="600" width="25" height="1"/></svg>