<svg xmlns="http://www.w3.org/2000/svg" width="100" height="100" viewBox="0 0 100 100"><defs><style>.a{fill:#1565c0;}</style></defs><path class="a" d="M50.24,53.07a1.81,1.81,0,0,1-.65-.11L2.44,37.59a2.08,2.08,0,0,1-1.44-2V29.23a2.06,2.06,0,0,1,1.51-2L49.66,13.76a2.24,2.24,0,0,1,1.15,0L98,27.24a2.08,2.08,0,0,1,1.5,2v6.38a2.08,2.08,0,0,1-1.43,2L84.31,42.07,50.88,53a1.76,1.76,0,0,1-.64.11ZM5.16,34.1,50.24,48.8,95.31,34.1V30.8L50.24,17.93,5.16,30.8Z"/><path class="a" d="M49.64,72.44c-10.43,0-20.51-3.66-27-9.8A2.07,2.07,0,0,1,22,61.13V42.47a2.08,2.08,0,1,1,4.16,0V60.21c5.73,5.07,14.42,8.07,23.46,8.07s17.74-3,23.46-8.07V43.5a2.08,2.08,0,0,1,4.16,0V61.14a2.1,2.1,0,0,1-.64,1.51c-6.46,6.13-16.54,9.79-27,9.79Z"/><path class="a" d="M84.08,65.43A2.08,2.08,0,0,1,82,63.35V37L52,28.88a2.08,2.08,0,0,1,1.09-4l31.55,8.51a2.09,2.09,0,0,1,1.54,2v28a2.09,2.09,0,0,1-2.08,2.09Z"/><path class="a" d="M89.18,68.7a5.1,5.1,0,1,1-5.09-5.1A5.09,5.09,0,0,1,89.18,68.7Z"/><path class="a" d="M89.21,87H79a2.09,2.09,0,0,1-2-2.58l2.82-11.48a2.08,2.08,0,0,1,4,1l-2.19,8.91h4.93l-2.18-8.91a2.08,2.08,0,1,1,4-1l2.82,11.48a2.07,2.07,0,0,1-.38,1.78,2.14,2.14,0,0,1-1.65.8Z"/></svg>