<svg xmlns="http://www.w3.org/2000/svg" width="100" height="100" viewBox="0 0 100 100"><defs><style>.a{fill:#1565c0;}</style></defs><path class="a" d="M88.64,33.93h-25V19.21A11.37,11.37,0,0,0,52.27,7.89H11.36a11.44,11.44,0,0,0-8,3.32,11.31,11.31,0,0,0-3.33,8V46.39A11.35,11.35,0,0,0,11.36,57.71v4.73a4.53,4.53,0,0,0,2.8,4.17,4.52,4.52,0,0,0,5-1,2.85,2.85,0,0,0,.23-.26L25,57.71H36.36V72.43A11.37,11.37,0,0,0,47.73,83.75H72.92l8,7.93A4.58,4.58,0,0,0,84.09,93a4.53,4.53,0,0,0,3.21-1.33,4.46,4.46,0,0,0,1.34-3.2V83.75A11.35,11.35,0,0,0,100,72.43V45.26a11.32,11.32,0,0,0-3.33-8,11.44,11.44,0,0,0-8-3.32ZM23.86,53.18A2.28,2.28,0,0,0,22,54.1l-6.12,8.29V55.45a2.27,2.27,0,0,0-2.27-2.27H11.36a6.81,6.81,0,0,1-6.82-6.79V19.21a6.81,6.81,0,0,1,6.82-6.79H52.27a6.81,6.81,0,0,1,6.82,6.79V33.93H47.73A11.27,11.27,0,0,0,41,36.17L33.89,20.54a2.28,2.28,0,0,0-4.14,0L18.39,45.45a2.26,2.26,0,0,0,1.12,3,2.37,2.37,0,0,0,.94.2,2.28,2.28,0,0,0,2.07-1.33l3.53-7.73H37.59l.16.36a11.21,11.21,0,0,0-1.39,5.31v7.92ZM35.52,35.07h-7.4L31.82,27ZM95.46,72.43a6.81,6.81,0,0,1-6.82,6.79H86.36a2.27,2.27,0,0,0-2.27,2.27v7l-8.62-8.59a2.27,2.27,0,0,0-1.6-.66H47.73a6.84,6.84,0,0,1-4.82-2,6.77,6.77,0,0,1-2-4.8V45.26a6.81,6.81,0,0,1,6.82-6.8H88.64a6.81,6.81,0,0,1,6.82,6.8Z"/><path class="a" d="M79.25,50.92h-9V46.39a2.27,2.27,0,1,0-4.53,0v4.53H56.61a2.27,2.27,0,0,0,0,4.53h16.8a15.75,15.75,0,0,1-5.49,9.84A15.9,15.9,0,0,1,63.79,60a2.26,2.26,0,1,0-4.09,1.94A20,20,0,0,0,64,67.73,16,16,0,0,1,57.58,69a2.22,2.22,0,0,0-1.57.68,2.18,2.18,0,0,0-.61,1.59,2.33,2.33,0,0,0,2.34,2.26A20.26,20.26,0,0,0,68,70.78a20.69,20.69,0,0,0,10.3,2.78,2.15,2.15,0,0,0,1.57-.67,2.24,2.24,0,0,0,.62-1.59A2.34,2.34,0,0,0,78.12,69,15.56,15.56,0,0,1,72,67.75a20.38,20.38,0,0,0,6-12.3h1.26a2.27,2.27,0,1,0,0-4.53Z"/></svg>