<svg xmlns="http://www.w3.org/2000/svg" width="5120" height="1320" viewBox="0 0 5120 1320"><defs><style>.a{fill:#fff;opacity:0.5;}</style></defs><path class="a" d="M2328,489h367s8,0,5-2-11-3-11-4-5-1-9-2-11-1-17-3-20-3-25-2l-11,2c-6,1-9-5-14,0,0,0-7-13-14-13s-16,2-21,3-15-1-20-1-14-1-18,1-7,3-11,3-25-5-29-5-3.1-1-10.6-1-8.4,1-11.4,2-5,3-9,4-4,3-10,4-26-1-29-2-5-2-10-2-8-2-13-1a31,31,0,0,0-7,2c-3,1-8,4-9,4s-4,7-14,7-16-1-24-1-13,0-17,1-2,1.3-8,1.7-13,1.3-11,2.3S2321,489,2328,489Z"/><path class="a" d="M2849,640.4s1.3,7.1,26.1,8.7,67.8,1.5,67.8,1.5-4.4,4.7,20,5.5,112.1,1.6,136-3.9c0,0,76.9,1.5,113,0s222.5,2.3,230.3-3.9c0,0,44.4.8,56.1-3.2s-18.3-7.8-23.5-7.8-28.7-6.3-43-5.5-42.2-2.5-49.1-.1c0,0-14.8-2.7-26.5-.9,0,0-2.6-4.5-10.4-3.7,0,0-11.8-10.1-35.2-7.1,0,0-22.2-14-84.8-5.5,0,0-10.4-9.5-79.5-9.5,0,0-87.4,7-88.7,18.9,0,0-74.3-7.9-73,5.5,0,0-87.4.8-83.4,6.3C2901.2,635.7,2851.6,633.4,2849,640.4Z"/><path class="a" d="M4062.8,403.4s38.8,8,55.7,7.3,47.6-4.7,58.7-1.5,42.4-5.2,53.5-27.9c0,0,13.4-48.4-47.1-40.3,0,0,30.7-2.9,15.8,33.7,0,0-3.2-11.2-25.6-13.2,0,0-5.5-14-32.7-13.1,0,0-51.6-3-51.5,20.4,0,0-43.6-4.2-43.8,10.5,0,0-39.9,2.4-30.1,15.3C4022.2,403.1,4062.8,403.4,4062.8,403.4Z"/><path class="a" d="M1246,267s27,11,45,8c0,0,96,4,124,2,0,0,40-2,56-2s48-2,53-5c0,0,12.8-3,17.9-3s36.1,0,15.1-3-21-1-28-2-22-2-27-3-11-5-20-6-11,1-18-1-22-6-28-6-8,2-13,0c-11.1-4.4-26-11-35-10s-13,2-13,5,3.2,4,6,4,1.8-1,2.8-1.2a2.4,2.4,0,0,1,2.1,3.9c-.6.7-.9,1.3-1.9,1.3a18.5,18.5,0,0,1-7-2c-2-1-10-2-12-2s-10-1-18,2-8,6-16,7-12-1-23,0-17,1-21,3-6,7-16,7S1243,264,1246,267Z"/><path class="a" d="M504,418s71,1,84-2-14-6-20-6-14-4-23-4-9-18-53-18c0,0-9.8-6.2-20-2,0,0-14-12-33-12s-44.8,6.9-58,14c-24,13-37,9-37,9s-10,2-14,8c0,0-7,0-12,2,0,0-16,0-24,5s-33,4-33,4-9,1,2,3c12,0,82.7,2,94.3,0s50.7-3,58.7-1S492,418,504,418Z"/><path class="a" d="M288,447s-9,1-9,6,2,7.3,4.5,7.2S289,459,292,459s8,1.3,12.5,1.2,10.2.2,14.8,0,13.4.3,14.5,0S352,460,327,456c0,0-1-5-12-4,0,0-4-3-11,0C304,452,303,445,288,447Z"/><path class="a" d="M4602.7,459.9s9,1,9,6-2,7.4-4.5,7.2-5.5-1.2-8.5-1.2-8,1.4-12.5,1.2-10.1.2-14.8,0-13.3.3-14.5.1-18.2-.3,6.8-4.3c0,0,1-5,12-4,0,0,4-3,11,0C4586.7,464.9,4587.7,457.9,4602.7,459.9Z"/></svg>