<svg xmlns="http://www.w3.org/2000/svg" width="5120" height="1320" viewBox="0 0 5120 1320"><defs><style>.a{fill:#0288d1;}.b{fill:#42a5f5;}</style></defs><path class="a" d="M5120,1320l3-886s-2,1-2,5-1,0-1,0h-1l-12.7,18.4-5.8-3.9s0,12-9.5,13.5-8.5.5-15.3-4.1-4.2-5.4-13.4-18.9-25.8,27.5-33.6,19-15.2-9.5-32.7-18-16.5,72-22,65-18.5,21.3-22,24c-14,10.9-7.8,13.5-14,13s-14.3-4.7-14.3-4.7l-3.7-.3-9,9-2,10s-3.5,1.5-4,0-4.5-8.5-14.7-12.2-21.8-4.3-22.6-10.3-1.2-10,0-13.5-11.2-4.5-17.4-12-5.8-2.5-10.6-7.3-7.2-6.2-6.9-8.7-8.3-10.5-9.8-13.9-8.5-2.6-17.2-6.8-1.3-5.8-.1-9.6-9.2-15.2-12.7-16.5-13.5-8.7-24.1-10.2-13.1-8.6-13.1-8.6-3.3.1-3.3-.9-8-4-9-5-12-2-12.5-2-10.5-1-12.7,0-4.8-2-6.9-3-6.9,0-8.8,0-10.1,2-10.1,2l-2-8-5,1.2V403.5l-6,16-3-4-3.1,5s-2.9,2-3.9,1-2-1-2-2-3,0-5,0-2.4,1-2.4,1l-3.6-19s-2,22-3,21-5,1-7.4,1-2.6,4-2.7,4.6v5.7s-.9,7.7-1.9,7.2,0,2.5,0,2.5-1,6-2,6.7a70.4,70.4,0,0,1-8,4.3c-4,2-2,4-2,7s-2,2.8-2,2.8-4,1.2-14.9,8.5-6.1,5.7-8.1,7.7-6-1-11-1-6,1-10.5,3.6-5.3,0-5.3,0l-2-13.4-4.2,7.8-1.6-7.8s-4.4,14.8-5.4,15.8-1-3-1-3-6,10-8,11-5,4-7,5-8,0-12,1-11.5,9.3-11.5,9.3-11.5,4.7-16.5,4.4-7,2.3-10,4.3-8,10-11,11-7-1-12-2-10,3-11,3-12,2.8-12,2.8V515.5s-5,20-6,21-2,8-2,9-8,1-11,2-5,3-8,6-6,3-9,4-11,0-21-1-12-1-17,0-14,2-16,1-12,0-11-3-5-2-11-2a31.4,31.4,0,0,1-9-1s-12,0-19-4-4-3-5-6-3-2-10-2-8-2-11-7-5-10-5-11-7-2-10.7-3.5-10.3-5.5-10.3-7.9v-3.6a93.5,93.5,0,0,0-12-10c-6-4-2,0-9,4s-8,2-8,0-11-4-12-4-10,3-10,3l-1-13-6.4,11.5-1.6-3.5-4,7-4.5-15.4s-2.5,14.4-4.5,16.4-9,2-12.5.9-8.5.1-9.5-.9-9,0-9,.5-10-5.5-12-8.5-2-7-2-10-5-7-4.5-7.7-7.5-8.3-15.5-13.3-10-1-10-1-9-6-9-8-15-4-15-4l-8-3-7-2-4-6s-1-1-6-2-2-4-2-4-2-7-2-8-2-2-2-2.9v-5.1l-2-7-3,3-4-16s-5,16-6,16-2-3-3-4a21.8,21.8,0,0,1-4-5c-1-2-5,0-9,1s-4-4-4-4l-4-11s-3,9-3,10-4,1-5,0-7,0-8,0a45,45,0,0,1-8-2c-3-1-2-1-6,1s-2-3-2-3l-4,3-5-8-3,4-4-12-6,17s-2,2-4,8-3,4-4,5-9,5-9,5a109.7,109.7,0,0,1-8,10c-3,3-3,2-6,5s-5,3-5,4-4,5-7,8-3,5-3,7-3,7-4,10-2,5-3,6-4,3-6,6,0,2,2,4-2,7-2,7-6,1-7,2-3,1-5,2-3,4-5,7-3,5-4,6-6,4-10,7,0,4-5,7,0,11-6,17-12,1-14,0-4-1-8-2-6,2-13,2-3-1-8,1-5,6-6,7-4,2-7,13-4,3-6,4-9,2-13,4-3,0-8-1-3,0-4,0h-8l-1-1-3-9-2,3-2-7-3,13s-1,0-5,2-4,0-9,0h-18v-2l-3-9-2,4-2-8-4,10-1-2-3,6-2,1s-4,1-6,0-5-1-5,0-5,0-8,0-1-2-1-2l-3-9-2,3-3-8s-3,15-3,16-2,0-5,1-4,0-8,1-4,0-5-1-2-1-6-2-5,1-10,2-8,13-10,15,2,8,3,13-4,9-2.6,13.5-1.4,6.5-.4,8.3,0,7.2,0,11.2-2,2-6.5,4.5-.5,6.5,0,11-8.5,10.5-11.3,16.6-6.2,6.9-6.2,6.9l-2-8-2,6a42,42,0,0,0-2,5c-1,3-3,1-8,1s-1,0-4,2-2-1-2-1l-2-14-4,15.3v4.7c0,2-6,4-7,4s-7,2-10,3-8,0-12,0-2,2-6,4-4,0-9,0-5-1-9,2-10,1-10,1l-4-4-3,6-3-5-3,6-1-6-6,12-1.7-1.5-1.3,2.5-3-12-3,15a27.5,27.5,0,0,1-7.5,5c-4.5,2-3.5,10-7.5,16s-18,2-21.7,1.5-10.3,5.5-13.3,8.5-13,4-16.9,8-14.1-1-19.6-5.5-16.5-2.5-21.5-2.5-13,4-16,6-13,1-20,0-4-2-13.5,2-13.5,2-13.5,2-8-2-8.8-2-8.2-1-11.2-1h-6c-2,0-9-2-11.1-4.5s-1.9-1.5-5.9-3.5-7-4-7-6-5-5-7.1-8.5-9.9-4.5-10.6-5.8-5.3-5.7-5.3-6.7-7-4-7.7-4.6-6.3-2.4-7.2-3.9-8.1-4.5-8.1-5.5-4-3-7.8-2.8-3.9-2.3-3.9-2.3l-5.2-5.1-1.9-5.7-2,3.3-2.2-7.4-3,9s-2,1-3,0-3-1-10-4-3-3-4-5,0-6-1-6-5-3-7-4-5,2-5,3-5-4-5-4l-3,2-5-10-2,2-1-7-4,14-4-9-4,9-2-5-3,6-4-12s-3,11-4,12-3-1-4-2-2-2-5-1-4-1-6-1-2-3-2-3l-2-8-5,8-1-16s-2,13-4,16-2-1-4-3-8-3-8-4-2-4-8-6,0-4-2-6-4-2-4-3-4-6-5-8-5-6-5.2-6.6.2-4.4-.8-6.4-4-4-5-5-3,0-6-1-2-1-2-4-5-2-9-2h-3l-6-11-3,6-4-15-3,10s-2,2-2,0-2,0-4,0-3,4-4,3-2,0-5,1-3,3-3,3l-4-11-2,7-2-15-5,27-4-4-1,8-3-15s-3,22-3,23a68.6,68.6,0,0,1-3.1,12.5c-2,6.5-2.9.5-10.9,3.5s-5,6-7,7-4,6-5,9-2,10-3,12-7,7-7,7-5,6-6,7-5,1-6,1-3,4-3,4l-5-22-3,23s0,3-2,2-3,2-4,2-4,4-4,4,0,9-1,10a81.1,81.1,0,0,0-6,8c-2,3,0,5-3,9s-5,4-7,6-2,3-3,8-3,3-4,4-3,0-5,0-4,1-6,1-5,4-6,5-1,5-2,7-4,1-4,1-3-12-3-13-2,14-2,14-5,2-5,3-4,3-4,4-1,6-2,7-1,4-1,4.5v3.5a26.1,26.1,0,0,1-3,3.8c-1,.9,0,3.2,0,4.2s-2,1-5,2-4,2-9,5-3,3-7,7-3,1-6,0-4,1-7,3-4,1-4,1l-1-11-4,8-1-4-2,3-2-10s-4,16-3.7,15.5-14.3,2.5-18.3,2.5-5,6-9,10-11,8-13,9-6,1-12,2-7,4-14,8-5,3-5,3l-2-6-2,5-3-14-3,17-2,6c-1,3-9,3-10,3s-2,4-2.7,7.4-5.3-1.4-6.3-3.4-5,3-8.9,5.5-1.1,1.5-.1,3.5-5,4-9,2.8-6,3.2-7,4.2-7,2-11.3,1.9-4.7-1.9-13-.9a37,37,0,0,0-14.7,5s-6,4-7,4-7,1-9,1-6-1-7-2-3,0-4,0-7,2-7,2l-4-13-3,6-3-17-8,17-2-7-3,5-3-10s-3,14-3.6,15.3-2.4-3.6-2.4-3.6l-2,6.3s-3,0-4-1-5-1-8-1a12.1,12.1,0,0,0-5,1l-3-11-3,7-3-17-6,19s-4,3-7.1,1.1-9.9-2.1-15.9,1.6S2463,864,2463,864a55.4,55.4,0,0,1-21.1,3.1c-.1,0-11.4,4-13.9,8.9-1,2,.3,2.2-1,6-.7,2-6,1.3-6,4s-5.6,4.8-12,6l-3-8-5.1,10.1c-5.6,1.2-9.9,2.7-9.9,4.9l-5.9,5s1,2.3,0,3.7-4.3,2.6-4.2,4-4.9,4.3-4.9,4.3-2,3-4,4-1,3-8,5-5-1-8,3-3,8-6,10-1,3-5,5a42.8,42.8,0,0,1-11.4,4c-4.6,1-8.4,3-11,4s-5.6,2-10.6,4-7,3-8,4,0,3-2,3-8.9,4-10.5,5-.5-1-4.5,3-1,6-6,8-6,3-10,4-5.1.7-7,1.3a5.7,5.7,0,0,1-4-.3l-1-4-1,1-2-8-6,17-3-3-7,14-1,2c-1,2,2,4-1,6s-4,2-5,4-2,4-2,5-2,5-3,5-2,1-4,3l-4,4c-2,2-2,4-3,5s-1.6,2-3.8,2-1.2-1-3.2,1-1,1.6-4,3.8a15,15,0,0,1-9,3.2c-3,0-3-1-4-1h-6a7.5,7.5,0,0,1-3,3c-2,1-4,3-5,3s-5,4-5,4a3.1,3.1,0,0,0-2,1,21.8,21.8,0,0,1-5,4c-2,1-4,4-4,6s4,.6,0,3.8-5,2.2-9,3.2-5.7,2.5-6.3,3.8-1.7,1.2-1.7,2.2.2.9-1.9,2-3.9,2.8-5,3.4a14.8,14.8,0,0,0-3.1,2.6c-1,1-.8.1-3.9,2.6s-5.1,2.4-9.1,2.4-2-1-12,0-10.2-.5-14.1,1.8-5.9,2.2-5.9,3.2,5,0,1,1-6,1-8,2-8,1-9,2-2,0-6,3-2,3-5,4-11,5-14,6-7,4-10,5-4,4-6,4-1-2-8,1-7,3.9-10,4.4,1-.4-5,2.6-3,3-8,5-4,2-5,2-9-2-13,0,0,1-4,2-3,1-6,2a12.7,12.7,0,0,1-6,1h-6.9c-1.1,0-1.1-2-7.1,1l-6,3a7.6,7.6,0,0,1-4,1c-1,0-9.5-9.5-9.5-9.5v8.6l-5.5-5.1-3,6s-19,7.8-25,8.9-8.3,1.2-11.7,3.1-5.3,5.4-9.3,6.7-13.7,5.3-17.3,6.3-5.7,0-16.7,4.5-16,6.5-20,12.5-3.3,7-8.7,10.5-.3,2.4-13.3,7.5-11.7,2.1-16.3,11.1,4.3,7.4-5.7,16.6-16,13.3-21,15.3-8,1.9-13,7-6,9-12,15-8,9-15,13-21.8,4.3-24.4,7.7-8.2,11-8.4,13.6,0,13.7,0,13.7H5120"/><rect class="a" x="3741" y="541.4" width="28" height="25.6"/><circle class="a" cx="3755" cy="541" r="14"/><path class="a" d="M3740.7,531.9l5.3,3.7-1.9,2.4-5.5-3.2a1.2,1.2,0,0,1-.4-1.7l.8-1A1.2,1.2,0,0,1,3740.7,531.9Z"/><path class="a" d="M3765,555h8.6a2.4,2.4,0,0,1,2.4,2.4V563a0,0,0,0,1,0,0h-11a0,0,0,0,1,0,0v-8A0,0,0,0,1,3765,555Z"/><path class="b" d="M2702,853l3,3,3.5-1.5s-1.5-3.5-.5-5.5a18.7,18.7,0,0,1,3-4Z"/><path class="b" d="M2828,794s2-4,3-4,1-2,6-3l5-1-8.3,4Z"/><path class="b" d="M2631,874.2l3-3s4-3,5-2,5.5-.2,5.5-.2h-10Z"/><path class="b" d="M2732,834s3,0,3.5-1,3.5-3,4.5-3-2.5,4-2.5,4Z"/><polygon class="b" points="2994 616 2997 606 2995.5 614.3 2994 616"/><polyline class="b" points="2999.2 623.2 2997.7 625 3000.7 615"/><polyline class="b" points="3019.2 602.2 3017.7 604 3020.7 594"/><path class="b" d="M4677,440l-1,3-3,2-2,6s-1,3-2,3-5,3-5,5,0,6-1,7-3,3-3,5,1,2,1,3a7.6,7.6,0,0,1-1,4,32.1,32.1,0,0,1-3,5c-2,3,0,2-3,5a23.1,23.1,0,0,1-7,5c-2,1-9,3-12,3s-4,1-6,1-7,1-12,2-5-1-8,4-2,6-4,8,.2,1.5-3.9,3.7-5.1,3.3-5.1,2.3,2-6,3-6,6-2,6-3-3,0-1-3,5-3,5-5-2-2,0-3a20,20,0,0,1,9-2c4,0,3,0,7-1s2-1,7-1h8a5.2,5.2,0,0,0,4-2c1-1,3,0,2-2s-2-3-1-3a12.3,12.3,0,0,0,7-2c3-2,4-1,4-2s-1-1,0-3a9,9,0,0,0,1-5c0-2,1-2,1-3s-4-1-1-3,3-2,4-3a4.9,4.9,0,0,0,1-3s-3-2-1-4,6-3,6-4,1-2,2-4,2-2,2-3a7.6,7.6,0,0,1,1.3-4c.7-1,3.7,0,3.7-1A3.5,3.5,0,0,1,4677,440Z"/><path class="b" d="M3204,690c0,1,4,7,4,7h3.4c1.6,0,7.6,2,8.6,3s2,3,8,6,11,2,12,4,1,1,3,6,5,5,2,11-2,9-1,11,6,2,6,3,1,2,1,6,2,5,4,6,4,3,5,3,3-2,1-3-2-4-4-6l-3-3c-1-1,6,4,0-2l-7-7c-3-3-2-5-1-5a2.2,2.2,0,0,0,2-2,10.1,10.1,0,0,1,1-3,3.5,3.5,0,0,1-1-2c0-1-1-2,0-2s-3,0-2-2,0-1,1-3,2-4,3-4-3-2-5-2h-4s-2-1-2-2-2-2-3-2h-4c-1,0-6-1-6-2a10.1,10.1,0,0,0-1-3s10-2,6-2a77.2,77.2,0,0,1-10-1h-1c-2,0-4,1-4,0s0-3-3-3h-5s1,0-1-2Z"/><polygon class="b" points="3126.7 675.7 3129.7 665.7 3128.2 674 3126.7 675.7"/><polyline class="b" points="3152.3 662.7 3151.2 664 3153.4 656.7"/><polyline class="b" points="3141.8 668.9 3140.3 670.7 3143.3 660.7"/><path class="b" d="M2928,696c3-1.7,9.9-3.4,10.3-3.4a3.9,3.9,0,0,0,2.3-.2l.7-.3c2.2-.8,3-1.7,3.9-1.3s3.3,2.9,1,2.6a27.5,27.5,0,0,0-8.6,0Z"/><path class="b" d="M3643,601v13.7c0,2.3-1,7.3-1,9.3s1,6.6,1,9.8-2,7.2-5,8.2-4,2-3,4-3,6-5,10-4,4-2,4,5-7,8-9-2,2,4-3,9-5,9-5v6.6l5-3.6s-1-4,4-3,8,1,8,0-3-4-8-5a54.2,54.2,0,0,0-7.7-1.1s-.3,4.1-1.3-.9-3.8-4.9-2.4-8.4,4.4-2.6,1.4-9.6-5-4-4-9,3.2-5,2.6-8-4.6-5-4.6-6a10.6,10.6,0,0,0-2-5C3639,589,3640,598,3643,601Z"/><polygon class="b" points="3494.3 711.6 3497.3 701.6 3495.8 709.8 3494.3 711.6"/><polyline class="b" points="3509.5 704.8 3508 706.5 3511 696.5"/><polygon class="b" points="3678.6 576.5 3681.6 566.5 3680.1 574.7 3678.6 576.5"/><polyline class="b" points="3717.3 567.5 3716.2 568.8 3718.4 561.4"/><polyline class="b" points="3710.8 574.7 3709.3 576.4 3712.3 566.4"/><polygon class="b" points="3758.1 574.5 3761.1 564.5 3759.6 572.7 3758.1 574.5"/><polyline class="b" points="3770.8 569.5 3769.7 570.8 3771.9 563.4"/><polyline class="b" points="3811.3 561.7 3809.8 563.4 3812.8 553.4"/><polyline class="b" points="3754 573.3 3752.9 574.6 3755.1 567.3"/><path class="b" d="M3889,516c-5.7,2.8,10,1,11.5-1s2.5-6,3.5-8,3-7,4-7,3-1,5-3,4-5,9-4,13-2,14-3,1.8,2.8,1.8,2.8l4.2-3.8s-12-3-15-3-5,3-7,3-2,3-5,4a21.5,21.5,0,0,0-7,4,21.9,21.9,0,0,0-3,5c-1,2-5,2-6,4s0,3,0,4-2,2-3,2S3891,515,3889,516Z"/><polygon class="b" points="3967 405 3961 421 3965 417 3967 405"/><polyline class="b" points="3965.9 429 3964.8 430.3 3967 422.9"/><polyline class="b" points="3959.5 436.2 3958 437.9 3961 427.9"/><path class="b" d="M4989,478c1,2,5,4,4,6s2,6,4,7-2,4-1,7,2,6,2,7,9,3,10,5,3,4,3,6-2-1-3-3-2-1-4-2-4-2-6-2-4-3-4-5,1-2,0-5a13.4,13.4,0,0,1-1-5c0-1-5-6-5-4s-1,5-2,8a17.5,17.5,0,0,0-1,5s-4-7-3-7,3-3,4-6-1-3,1-6A11.9,11.9,0,0,0,4989,478Z"/><rect class="b" x="3752" y="540" width="15" height="2"/><rect class="b" x="3745" y="560" width="1" height="3"/></svg>