<svg xmlns="http://www.w3.org/2000/svg" width="5120" height="1320" viewBox="0 0 5120 1320"><defs><style>.a{fill:#90caf9;}.b{fill:#fff;opacity:0.35;}</style></defs><path class="a" d="M1899,828h24v-3.5h4.9V828h7.3V817.7h7.6l9.7,7.5V799h5.6V783.9h2v14.6h2.9V845h-2.4v9.5h2.4v10.3h-2.2v12.7H1980v12.6h2.1v2.7H1980V1109h-2.8v27.5s20.4-4.8,29.7,2.4c13.1,10.1,32.6,2.6,34.1-2.4v-85.3s.1-13.2,9.8-13.2h36.9a19.4,19.4,0,0,0,13.3-18.4V974.5l57,29.5V974.5L2375,1078h7.5v-4.8s0-3.7,3-3.7a2.9,2.9,0,0,1,3,3v6h7.8v-5.9s.2-3.1,3.2-3.1a2.9,2.9,0,0,1,3,3v6.4h13V948.8S2415,892,2463,887c0,0-4,49,49.8,60.9v53.6h11.1v4.6h6.6v-2.4h3V1002h2.4v-1.5h3.6v-59l5-5h18v-3h26V910.6s1-6.6,10.5-6.6,11.5,5.5,11.5,5.5v23h24v4h14l5,5v114.8h21v15.2h-14l-6,6v104h9.2v-4h6.8v4h5.8v-4.2h4.7v-23.5h5.3v-25.6h1.2v25.6h2.8v-19.5h2.2v19.5h2.5v27.7h12.2l10.1-10.2V1070.5L2763,1045v36.8h7.5V1097h17.7v-4.2H2807V1009h4.5v2.5h17V920h6.3v-4.5l11.9,4.5v-4.7l10.6,4.7v-4.7l10.4,4.7v-4.8l9.8,4.8h11v89H2915v28.5h-2.5v60h19.2l4.8-10,5,10H2967v-76.3s.5-10.7,9-10.7h73.2s5.7-.3,5.7-6.7V949.4c0-7.1,8.1-26.9,8.1-34.4,0,0-5.1,0-5.1-.9V842.8a4.5,4.5,0,0,0-4.4-4.5h0v-6.8l40.8-62.7c13.7-23.8,37.4-18.1,49.5-.7l43.7,63.4v5.6h0a5,5,0,0,0-5,5V913l-5.5,2h0a248.9,248.9,0,0,1,11.5,74.7V1085h10.2v-14.7h7.8V1085h8.7v-15.5h14.3a10.3,10.3,0,0,0-5,8.8v6.7H3239V991.5h33.7V984h-2.9V963.5l8.7-10,10,10V984h-2.7v7.5h17.7V979.2h9l8.2,9.6a9.6,9.6,0,0,1,2.3,6.3v98.4s22,0,22,39.5l4.6,18.9c2.4,9.6,11,56.1,20.9,56.1h4.4c8.3,0,15.6-45.5,17.5-53.7l4.6-19.3v-41.5l17.6-15.4v-4.6h5.5l15-13.3v-4.9h5.4l15-12.8.5-214.8h8.5v-8h10v-8.1h9V802h11s8-.5,8-18.5a67.7,67.7,0,0,0-8-31.5H3523a88.1,88.1,0,0,0-6.5,32.5c0,18,6.5,19.5,6.5,19.5h10.6v9.5h10.9v7.2h11v7.2h10v209.6l13,13h7v4.3l19,17.7h7v7l11.5,11.2v-60.4s.5-11.3,14-11.3h46V744.9l27.4-31.6V702.1h9.3l55.8-67.6-11.1,43.4V1153h15.3v-10.5h26.8V1153h16.8v-20.5h9.2V1153H3859v-10.5h23.5V831.3s25-18.1,25-44h24s1.1,23.5,19,41.4v11.8h15v12h81V857h87v-3.8h12V998.3h-6v132.2h5.5v8l80-33.5,25.3-33.7h25.8l8.6-8.6h7.8v-8.2h7l13-13L4331,1023V990.5l17.1-17.1V950.5l15.3-15.3h17.2V856.3h4.9V923h20V899.5h14v24h49s-29-8-29-37l78,24s-7,13-28,13h84L4587,910h11.3v113.5l15.4,21.2h22l14.8-13.7V864.5l91,42V862l62.5,30.7V843s8.8-40.9,44.1-40.9,51.4,40.4,51.4,40.4V981h24.4V968.3h17.6v-12h12V940.5h18V923.7h9V909.9h4.5V891.5l93.5-134-4,25.7v94.5h15V817h17V787.5h9v28.6h4.5V1324H0V945H34.3v50.5l19.1-22.9V885.5h12v-35h4.1v30h10v-8h5v13h47.2v-14h8.8l10,10v4h1.9v95.2l15.1-11.2h8v-13h6v13h9l15.8,11.2h6.9v-5.2h5.3v-4h3l11-78-10.9-49.1V799.5h96.9v89.1l55-25.1v26.6l56-24.6v23l63-24v168l6,8,8,6h12V1111h-3v80.5s67,1,67,0v-80h-3.3v-289H749.5a31,31,0,0,1-30.9,30.9H700.4a37.9,37.9,0,0,0-37.9,37.9h29V895h45v-3.5h14v45h22.7v53.4s.9,29.1,25.6,29.1,28.7,28.5,28.7,28.5v19h15v-9h2v-12h11v12h3v9h4.6v104.6h51.2v-39.4h12v-87.2H909.5v-84h5.8v-8h8.2v8h5v-43h11v4h10L954,917h18V857h10.3l17.2-19.5h14l12.6,19.5h22.2V833.5h34.3l25.9,12h18v11l18.1,10.8h35.1v-9.8l6.2-8.5,22.1-8,18,4,10.5,7.5H1215v28l21,.5-20.5,26.5v68h53.7s10.8.7,10.8,10.8V1019h40.5l10-137.5-9.5-50h25l8.2-83.5h8.6l8.7,84.5h28l-16,48,3.3,17.5h55.5l10.7-27,22.5-.5s-36-8-34-48L1530,852s-18.8,18.5-39.7,19h7.7v18.9h5.5v3.6h23s-.7,3.8,0,4.5,49.6,0,49.6,0v-6.5h18.4S1577,887,1573,868l55,15s-11.5,9.5-20.5,9.5h12v7h6V916H1639s-.8,164.7,0,165.4,11.5,0,11.5,0v8.1H1639v78.7h10.9v-32.7h22.9a9.2,9.2,0,0,1,9.2,9.2v12.8a9.1,9.1,0,0,0,10.2,9.2l.8-.2c.8-.7,0-100,0-100l22.3-22.2v-11.8h12.2l25-25v-13h12l21-19h23v-22h7v-6h4v-19s-1-15,10-15h21v-29h5v21h2v6h9v-24h2v24h13v-44h3v43h7v75h8Z"/><rect class="b" x="2201" y="1046" width="15" height="16"/><rect class="b" x="2232" y="1046" width="15" height="16"/><rect class="b" x="2444" y="952" width="15" height="16"/><rect class="b" x="2585" y="1216" width="15" height="16"/><rect class="b" x="2294" y="1075" width="15" height="16"/><rect class="b" x="2110" y="1093" width="15" height="16"/><rect class="b" x="2141" y="1093" width="15" height="16"/><rect class="b" x="2872" y="1071" width="4" height="34"/><rect class="b" x="2899" y="1125" width="4" height="37"/><rect class="b" x="2848" y="944" width="5" height="54"/><rect class="b" x="3082" y="837" width="3" height="483"/><rect class="b" x="3122" y="837" width="3" height="483"/><rect class="b" x="3159" y="837" width="3" height="483"/><rect class="b" x="3506" y="795" width="5" height="373"/><rect class="b" x="3701" y="763" width="15" height="16"/><rect class="b" x="3730" y="763" width="15" height="16"/><rect class="b" x="3730" y="807" width="15" height="16"/><rect class="b" x="3701" y="853" width="15" height="16"/><rect class="b" x="3696" y="898" width="15" height="16"/><rect class="b" x="3696" y="943" width="15" height="16"/><rect class="b" x="3696" y="988" width="15" height="16"/><rect class="b" x="3696" y="1168" width="15" height="16"/><rect class="b" x="3792" y="1168" width="15" height="16"/><rect class="b" x="4015.5" y="787.5" width="4" height="203" transform="translate(3128.5 4906.5) rotate(-90)"/><rect class="b" x="4015.5" y="843.5" width="4" height="203" transform="translate(3072.5 4962.5) rotate(-90)"/><rect class="b" x="4015.5" y="864.5" width="4" height="203" transform="translate(3051.5 4983.5) rotate(-90)"/><rect class="b" x="4015.5" y="924.5" width="4" height="203" transform="translate(2991.5 5043.5) rotate(-90)"/><rect class="b" x="4015.5" y="945.5" width="4" height="203" transform="translate(2970.5 5064.5) rotate(-90)"/><rect class="b" x="4015.5" y="966.5" width="4" height="203" transform="translate(2949.5 5085.5) rotate(-90)"/><rect class="b" x="1838" y="1060" width="5" height="39"/><rect class="b" x="1879" y="970" width="4" height="34"/><rect class="b" x="1921" y="1028" width="4" height="37"/><rect class="b" x="1943" y="943" width="5" height="54"/><rect class="b" x="1447.5" y="843.5" width="4" height="203" transform="translate(504.5 2394.5) rotate(-90)"/><rect class="b" x="1447.5" y="897.5" width="4" height="203" transform="translate(450.5 2448.5) rotate(-90)"/><rect class="b" x="1447.5" y="968.5" width="4" height="203" transform="translate(379.5 2519.5) rotate(-90)"/><rect class="b" x="1447.5" y="989.5" width="4" height="203" transform="translate(358.5 2540.5) rotate(-90)"/><rect class="b" x="1447.5" y="1010.5" width="4" height="203" transform="translate(337.5 2561.5) rotate(-90)"/><rect class="b" x="1447.5" y="1031.5" width="4" height="203" transform="translate(316.5 2582.5) rotate(-90)"/><rect class="b" x="1100.5" y="801.5" width="4" height="203" transform="translate(199.5 2005.5) rotate(-90)"/><rect class="b" x="1100.5" y="853.5" width="4" height="203" transform="translate(147.5 2057.5) rotate(-90)"/><rect class="b" x="1100.5" y="874.5" width="4" height="203" transform="translate(126.5 2078.5) rotate(-90)"/><rect class="b" x="1100.5" y="895.5" width="4" height="203" transform="translate(105.5 2099.5) rotate(-90)"/><rect class="b" x="1100.5" y="916.5" width="4" height="203" transform="translate(84.5 2120.5) rotate(-90)"/><rect class="b" x="1100.5" y="978.5" width="4" height="203" transform="translate(22.5 2182.5) rotate(-90)"/><rect class="b" x="70" y="1032" width="15" height="16"/><rect class="b" x="101" y="1032" width="15" height="16"/><rect class="b" x="170" y="1119" width="15" height="16"/><rect class="b" x="201" y="1119" width="15" height="16"/><rect class="b" x="380" y="1006" width="15" height="16"/><rect class="b" x="411" y="1006" width="15" height="16"/><rect class="b" x="244" y="914" width="15" height="16"/><rect class="b" x="275" y="914" width="15" height="16"/><rect class="b" x="46" y="1163" width="15" height="16"/><rect class="b" x="77" y="1163" width="15" height="16"/><rect class="b" x="4393" y="971" width="15" height="16"/><rect class="b" x="4489" y="971" width="15" height="16"/><rect class="b" x="4393" y="1016" width="15" height="16"/><rect class="b" x="4489" y="1016" width="15" height="16"/><rect class="b" x="4393" y="1061" width="15" height="16"/><rect class="b" x="4393" y="1106" width="15" height="16"/><rect class="b" x="4710" y="956" width="15" height="16"/><rect class="b" x="4741" y="956" width="15" height="16"/><rect class="b" x="4810" y="1043" width="15" height="16"/><rect class="b" x="4841" y="1043" width="15" height="16"/><rect class="b" x="4686" y="1087" width="15" height="16"/><rect class="b" x="4717" y="1087" width="15" height="16"/><rect class="b" x="660" y="1062" width="4" height="34"/><rect class="b" x="724" y="1035" width="5" height="54"/><rect class="b" x="636" y="935" width="5" height="54"/><rect class="b" x="5034" y="1080" width="4" height="34"/><rect class="b" x="5098" y="1053" width="5" height="54"/><rect class="b" x="5010" y="953" width="5" height="54"/><rect class="b" x="2748" y="1075" width="4" height="34" transform="translate(5500 2184) rotate(-180)"/><rect class="b" x="2727" y="1129" width="4" height="37" transform="translate(5458 2295) rotate(-180)"/><rect class="b" x="2818" y="1027" width="5" height="54"/><rect class="b" x="2589" y="1016" width="15" height="16"/><rect class="b" x="2620" y="1016" width="15" height="16"/><rect class="b" x="2494" y="1125" width="15" height="16"/><rect class="b" x="2525" y="1125" width="15" height="16"/><rect class="b" x="4924" y="1022" width="5" height="54"/><rect class="b" x="5048" y="868" width="4" height="34"/><rect class="b" x="1306" y="1237" width="432" height="8"/><rect class="b" x="1280" y="1262" width="108" height="8"/><rect class="b" x="662" y="1309" width="271" height="8"/><rect class="b" x="179" y="1245" width="114" height="8"/><rect class="b" x="3267" y="1245" width="312" height="4"/><rect class="b" x="1404" y="1262" width="108" height="8"/><rect class="b" x="1524" y="1262" width="108" height="8"/><rect class="b" x="1644" y="1262" width="108" height="8"/><rect class="b" x="2767" y="1293" width="13" height="8"/><rect class="b" x="2785" y="1293" width="13" height="8"/><rect class="b" x="2804" y="1293" width="13" height="8"/><rect class="b" x="2822" y="1293" width="13" height="8"/><rect class="b" x="2840" y="1293" width="13" height="8"/><rect class="b" x="2858" y="1293" width="13" height="8"/><rect class="b" x="2876" y="1293" width="13" height="8"/><rect class="b" x="2894" y="1293" width="13" height="8"/><rect class="b" x="2912" y="1293" width="13" height="8"/><rect class="b" x="2930" y="1293" width="13" height="8"/><path class="b" d="M2956,1293h5a8,8,0,0,1,8,8v0a0,0,0,0,1,0,0h-13a0,0,0,0,1,0,0v-8A0,0,0,0,1,2956,1293Z"/><rect class="b" x="2538" y="1293" width="13" height="8"/><rect class="b" x="2556" y="1293" width="13" height="8"/><rect class="b" x="2575" y="1293" width="13" height="8"/><rect class="b" x="2593" y="1293" width="13" height="8"/><rect class="b" x="2611" y="1293" width="13" height="8"/><rect class="b" x="2629" y="1293" width="13" height="8"/><rect class="b" x="2647" y="1293" width="13" height="8"/><rect class="b" x="2665" y="1293" width="13" height="8"/><rect class="b" x="2683" y="1293" width="13" height="8"/><rect class="b" x="2701" y="1293" width="13" height="8"/><rect class="b" x="2720" y="1293" width="13" height="8"/><rect class="b" x="2311" y="1293" width="13" height="8"/><rect class="b" x="2329" y="1293" width="13" height="8"/><rect class="b" x="2348" y="1293" width="13" height="8"/><rect class="b" x="2366" y="1293" width="13" height="8"/><rect class="b" x="2384" y="1293" width="13" height="8"/><rect class="b" x="2402" y="1293" width="13" height="8"/><rect class="b" x="2420" y="1293" width="13" height="8"/><rect class="b" x="2438" y="1293" width="13" height="8"/><rect class="b" x="2456" y="1293" width="13" height="8"/><rect class="b" x="2474" y="1293" width="13" height="8"/><rect class="b" x="2493" y="1293" width="13" height="8"/><rect class="b" x="2082" y="1293" width="13" height="8"/><rect class="b" x="2100" y="1293" width="13" height="8"/><rect class="b" x="2119" y="1293" width="13" height="8"/><rect class="b" x="2137" y="1293" width="13" height="8"/><rect class="b" x="2155" y="1293" width="13" height="8"/><rect class="b" x="2173" y="1293" width="13" height="8"/><rect class="b" x="2191" y="1293" width="13" height="8"/><rect class="b" x="2209" y="1293" width="13" height="8"/><rect class="b" x="2227" y="1293" width="13" height="8"/><rect class="b" x="2245" y="1293" width="13" height="8"/><rect class="b" x="2264" y="1293" width="13" height="8"/><rect class="b" x="2350" y="1164" width="15" height="16"/><rect class="b" x="2381" y="1164" width="15" height="16"/><rect class="b" x="2259" y="1211" width="15" height="16"/><rect class="b" x="2258" y="1188" width="15" height="16"/><rect class="b" x="1780" y="1147" width="5" height="39"/><rect class="b" x="1879" y="1167" width="4" height="34"/><rect class="b" x="1921" y="1225" width="4" height="37"/><rect class="b" x="750" y="1158" width="4" height="34"/><rect class="b" x="814" y="1131" width="5" height="54"/><rect class="b" x="365" y="1297" width="15" height="16"/><rect class="b" x="396" y="1297" width="15" height="16"/><rect class="b" x="358" y="1167" width="15" height="16"/><rect class="b" x="389" y="1167" width="15" height="16"/><rect class="b" x="152" y="1305" width="15" height="16"/><rect class="b" x="183" y="1305" width="15" height="16"/><rect class="b" x="634" y="1241" width="4" height="34"/><rect class="b" x="1100.5" y="1029.5" width="4" height="203" transform="translate(-28.5 2233.5) rotate(-90)"/><rect class="b" x="1100.5" y="1081.5" width="4" height="203" transform="translate(-80.5 2285.5) rotate(-90)"/><rect class="b" x="1100.5" y="1102.5" width="4" height="203" transform="translate(-101.5 2306.5) rotate(-90)"/><rect class="b" x="1100.5" y="1123.5" width="4" height="203" transform="translate(-122.5 2327.5) rotate(-90)"/><rect class="b" x="1100.5" y="1144.5" width="4" height="203" transform="translate(-143.5 2348.5) rotate(-90)"/><rect class="b" x="1100.5" y="1206.5" width="4" height="203" transform="translate(-205.5 2410.5) rotate(-90)"/><rect class="b" x="3003" y="1168" width="4" height="34" transform="translate(6010 2370) rotate(-180)"/><rect class="b" x="2969" y="1166" width="4" height="37" transform="translate(5942 2369) rotate(-180)"/><rect class="b" x="3060" y="1064" width="5" height="54"/><rect class="b" x="2979" y="1112.3" width="4" height="34" transform="translate(5962 2258.7) rotate(-180)"/><rect class="b" x="3028" y="1026" width="4" height="34" transform="translate(6060 2086) rotate(-180)"/><rect class="b" x="3046" y="1024" width="4" height="34" transform="translate(6096 2082) rotate(-180)"/><rect class="b" x="3267" y="1267" width="312" height="4"/><rect class="b" x="3267" y="1293" width="312" height="4"/><rect class="b" x="3732" y="1168" width="15" height="16"/><rect class="b" x="3727" y="1213" width="15" height="16"/><rect class="b" x="3727" y="1258" width="15" height="16"/><rect class="b" x="3727" y="1303" width="15" height="16"/><rect class="b" x="4015.5" y="1022.5" width="4" height="203" transform="translate(2893.5 5141.5) rotate(-90)"/><rect class="b" x="4015.5" y="1078.5" width="4" height="203" transform="translate(2837.5 5197.5) rotate(-90)"/><rect class="b" x="4015.5" y="1099.5" width="4" height="203" transform="translate(2816.5 5218.5) rotate(-90)"/><rect class="b" x="4015.5" y="1159.5" width="4" height="203" transform="translate(2756.5 5278.5) rotate(-90)"/><rect class="b" x="4015.5" y="1180.5" width="4" height="203" transform="translate(2735.5 5299.5) rotate(-90)"/><rect class="b" x="4015.5" y="1201.5" width="4" height="203" transform="translate(2714.5 5320.5) rotate(-90)"/><rect class="b" x="4393" y="1150" width="15" height="16"/><rect class="b" x="4489" y="1150" width="15" height="16"/><rect class="b" x="4393" y="1240" width="15" height="16"/><rect class="b" x="4489" y="1240" width="15" height="16"/><rect class="b" x="4393" y="1285" width="15" height="16"/><rect class="b" x="4489" y="1285" width="15" height="16"/><rect class="b" x="4620" y="1087" width="15" height="16"/><rect class="b" x="4651" y="1087" width="15" height="16"/><rect class="b" x="4720" y="1174" width="15" height="16"/><rect class="b" x="4751" y="1174" width="15" height="16"/><rect class="b" x="4596" y="1218" width="15" height="16"/><rect class="b" x="4627" y="1218" width="15" height="16"/><rect class="b" x="4944" y="1211" width="4" height="34"/><rect class="b" x="5008" y="1184" width="5" height="54"/><rect class="b" x="4920" y="1084" width="5" height="54"/><rect class="b" x="5065" y="1255" width="5" height="54"/><rect class="b" x="4958" y="999" width="4" height="34"/><rect class="b" x="4750" y="1291" width="15" height="16" transform="translate(9515 2598) rotate(180)"/><rect class="b" x="4719" y="1291" width="15" height="16" transform="translate(9453 2598) rotate(180)"/><rect class="b" x="4874" y="1247" width="15" height="16" transform="translate(9763 2510) rotate(180)"/><rect class="b" x="4843" y="1247" width="15" height="16" transform="translate(9701 2510) rotate(180)"/><rect class="b" x="2059.5" y="1196.7" width="15" height="16"/><rect class="b" x="2118" y="1226" width="15" height="16"/><rect class="b" x="2235" y="1188" width="15" height="16"/><rect class="b" x="2216.2" y="1122.7" width="15" height="16"/><rect class="b" x="2463" y="1101" width="15" height="16"/><rect class="b" x="2610" y="1216" width="15" height="16"/><path class="b" d="M2062,1293h5a0,0,0,0,1,0,0v8a0,0,0,0,1,0,0h-13a0,0,0,0,1,0,0v0A8,8,0,0,1,2062,1293Z"/><rect class="b" x="1280" y="1309" width="108" height="8"/><rect class="b" x="1404" y="1309" width="108" height="8"/><rect class="b" x="1524" y="1309" width="108" height="8"/><rect class="b" x="1644" y="1309" width="108" height="8"/></svg>