<svg xmlns="http://www.w3.org/2000/svg" width="5120" height="1320" viewBox="0 0 5120 1320"><defs><style>.a{fill:#1976d2;}.b{fill:none;stroke:#1976d2;stroke-miterlimit:10;}</style></defs><path class="a" d="M2644.1,778.6a11.4,11.4,0,1,0-22.7,0c0,6.3,7.1,15.5,11.3,15.5S2644.1,784.9,2644.1,778.6Z"/><path class="a" d="M2631.3,797.4h2.8a0,0,0,0,1,0,0v2.2a.6.6,0,0,1-.6.6h-1.6a.6.6,0,0,1-.6-.6v-2.2A0,0,0,0,1,2631.3,797.4Z"/><polyline class="b" points="2629.6 791 2631.5 798.1 2633.9 798.1 2635.3 791"/><path class="a" d="M4378.6,268.7a21,21,0,1,0-41.9,0c0,11.6,13.1,26.2,21,26.2C4363.8,294.9,4378.6,280.3,4378.6,268.7Z"/><path class="a" d="M4355,301h5.2a0,0,0,0,1,0,0v4.6a.6.6,0,0,1-.6.6h-4a.6.6,0,0,1-.6-.6V301A0,0,0,0,1,4355,301Z"/><polyline class="b" points="4352 289.2 4355.5 302.3 4359.9 302.3 4362.5 289.2"/></svg>