<svg xmlns="http://www.w3.org/2000/svg" width="5120" height="1320" viewBox="0 0 5120 1320"><defs><style>.a{fill:#0288d1;}.b,.d{fill:none;stroke-miterlimit:10;}.b{stroke:#0288d1;}.c{fill:#42a5f5;}.d{stroke:#42a5f5;}</style></defs><path class="a" d="M1079,262.5c0-7.8-5.1-13-13-13s-13,5.2-13,13,7.6,18.1,12.9,18.1S1079,270.4,1079,262.5Z"/><path class="a" d="M1064.2,284.8h3.6a0,0,0,0,1,0,0v3a.6.6,0,0,1-.6.6h-2.4a.6.6,0,0,1-.6-.6v-3A0,0,0,0,1,1064.2,284.8Z"/><polyline class="b" points="1062.1 276.8 1064.4 285.7 1067.4 285.7 1069.2 276.8"/><path class="c" d="M2737,715.5a24,24,0,0,0-48,0c0,13.2,15,30,24,30C2720,745.5,2737,728.7,2737,715.5Z"/><path class="c" d="M2710,752.5h6a0,0,0,0,1,0,0v5.4a.6.6,0,0,1-.6.6h-4.8a.6.6,0,0,1-.6-.6v-5.4A0,0,0,0,1,2710,752.5Z"/><polyline class="d" points="2706.5 739 2710.5 754 2715.5 754 2718.5 739"/></svg>