<svg xmlns="http://www.w3.org/2000/svg" xmlns:xlink="http://www.w3.org/1999/xlink" width="5120" height="1320" viewBox="0 0 5120 1320"><defs><style>.a{fill:#1976d2;}.b,.c{opacity:0.5;}.b{fill:url(#a);}.c{fill:url(#b);}</style><linearGradient id="a" x1="2952.06" y1="161.45" x2="3293.14" y2="161.45" gradientUnits="userSpaceOnUse"><stop offset="0" stop-color="#fff" stop-opacity="0"/><stop offset="0.24" stop-color="#fff" stop-opacity="0.01"/><stop offset="0.42" stop-color="#fff" stop-opacity="0.05"/><stop offset="0.57" stop-color="#fff" stop-opacity="0.11"/><stop offset="0.7" stop-color="#fff" stop-opacity="0.19"/><stop offset="0.83" stop-color="#fff" stop-opacity="0.31"/><stop offset="0.95" stop-color="#fff" stop-opacity="0.44"/><stop offset="1" stop-color="#fff" stop-opacity="0.5"/></linearGradient><linearGradient id="b" x1="2961.79" y1="160.32" x2="3302.4" y2="160.32" xlink:href="#a"/></defs><path class="a" d="M3274.2,102.3l-4.3-1.5,1.4-.7,3.2.4-3.5-6.4,1.2-.6,7.3,4.8h5s7.1-1.4,7.1-2.1-5.7-2.8-5.7-2.8l-2.1-2.9h.7l2.9,2.1,7.8,2.2,17.1-5s5.7-1.4,7.1-.7,2.9,0,2.9.7-2.2,2.8-4.3,3.6-12.8,3.5-12.8,3.5.7,0,.7,2.2l-4.6,1h-.8l-.7-.7-5.7,1.4S3287,103,3282,103h-7.3l-.5-.7"/><path class="b" d="M3289.5,101.6s-1.4,2.1-10.7,4.3-172.4,57.7-197.3,66.2-119,49.2-119,49.2l-12.1-26.4s103.3-21.3,127.5-27.7,197.4-61.3,198.8-62a68.1,68.1,0,0,1,14.2-3.3S3283.1,101.6,3289.5,101.6Z"/><path class="c" d="M3300.2,100.9s-2.4,2-11.6,4.1-172.4,57.8-197.4,66.3-119,49.2-119,49.2l-12.1-26.4s103.3-21.4,127.6-27.8,197.3-61.3,198.7-62,8.8-3.8,13.1-4.1A.7.7,0,0,1,3300.2,100.9Z"/></svg>