<svg xmlns="http://www.w3.org/2000/svg" width="5120" height="1320" viewBox="0 0 5120 1320"><defs><style>.a{fill:#1976d2;}.b{fill:#a3dcf9;}</style></defs><path class="a" d="M2496.7,820h80.9a2.4,2.4,0,0,1,2.4,2.4V828a0,0,0,0,1,0,0h-89a0,0,0,0,1,0,0v-2.3A5.7,5.7,0,0,1,2496.7,820Z"/><path class="a" d="M2583.6,820h72.1a2.4,2.4,0,0,1,2.4,2.4V828a0,0,0,0,1,0,0h-77a0,0,0,0,1,0,0v-5.4a2.6,2.6,0,0,1,2.6-2.6Z"/><path class="a" d="M2661.6,820h74.1a2.4,2.4,0,0,1,2.4,2.4V828a0,0,0,0,1,0,0h-79a0,0,0,0,1,0,0v-5.4A2.6,2.6,0,0,1,2661.6,820Z"/><path class="a" d="M2739,820h79a0,0,0,0,1,0,0v5.6a2.4,2.4,0,0,1-2.4,2.4h-70.9a5.7,5.7,0,0,1-5.7-5.7V820A0,0,0,0,1,2739,820Z" transform="translate(5557 1648) rotate(-180)"/><rect class="b" x="2743.5" y="821.2" width="4.5" height="2.76"/><rect class="b" x="2749.7" y="821.2" width="4.5" height="2.76"/><rect class="b" x="2756.3" y="821.2" width="4.5" height="2.76"/><rect class="b" x="2762.5" y="821.2" width="4.5" height="2.76"/><rect class="b" x="2768.7" y="821.2" width="4.5" height="2.76"/><rect class="b" x="2775" y="821.2" width="4.5" height="2.76"/><rect class="b" x="2781.2" y="821.2" width="4.5" height="2.76"/><rect class="b" x="2787.4" y="821.2" width="4.5" height="2.76"/><rect class="b" x="2793.6" y="821.2" width="4.5" height="2.76"/><rect class="b" x="2799.8" y="821.2" width="4.5" height="2.76"/><path class="b" d="M2808.8,821.2h3.7a.8.8,0,0,1,.8.8v2a0,0,0,0,1,0,0h-4.5a0,0,0,0,1,0,0v-2.8A0,0,0,0,1,2808.8,821.2Z"/><rect class="b" x="2664.4" y="821.2" width="4.5" height="2.76"/><rect class="b" x="2670.6" y="821.2" width="4.5" height="2.76"/><rect class="b" x="2677.2" y="821.2" width="4.5" height="2.76"/><rect class="b" x="2683.4" y="821.2" width="4.5" height="2.76"/><rect class="b" x="2689.6" y="821.2" width="4.5" height="2.76"/><rect class="b" x="2695.8" y="821.2" width="4.5" height="2.76"/><rect class="b" x="2702" y="821.2" width="4.5" height="2.76"/><rect class="b" x="2708.3" y="821.2" width="4.5" height="2.76"/><rect class="b" x="2714.5" y="821.2" width="4.5" height="2.76"/><rect class="b" x="2720.7" y="821.2" width="4.5" height="2.76"/><rect class="b" x="2727.3" y="821.2" width="4.5" height="2.76"/><rect class="b" x="2585.9" y="821.2" width="4.5" height="2.76"/><rect class="b" x="2592.2" y="821.2" width="4.5" height="2.76"/><rect class="b" x="2598.7" y="821.2" width="4.5" height="2.76"/><rect class="b" x="2604.9" y="821.2" width="4.5" height="2.76"/><rect class="b" x="2611.2" y="821.2" width="4.5" height="2.76"/><rect class="b" x="2617.4" y="821.2" width="4.5" height="2.76"/><rect class="b" x="2623.6" y="821.2" width="4.5" height="2.76"/><rect class="b" x="2629.8" y="821.2" width="4.5" height="2.76"/><rect class="b" x="2636" y="821.2" width="4.5" height="2.76"/><rect class="b" x="2642.3" y="821.2" width="4.5" height="2.76"/><rect class="b" x="2648.8" y="821.2" width="4.5" height="2.76"/><rect class="b" x="2506.8" y="821.2" width="4.5" height="2.76"/><rect class="b" x="2513" y="821.2" width="4.5" height="2.76"/><rect class="b" x="2519.6" y="821.2" width="4.5" height="2.76"/><rect class="b" x="2525.8" y="821.2" width="4.5" height="2.76"/><rect class="b" x="2532" y="821.2" width="4.5" height="2.76"/><rect class="b" x="2538.3" y="821.2" width="4.5" height="2.76"/><rect class="b" x="2544.5" y="821.2" width="4.5" height="2.76"/><rect class="b" x="2550.7" y="821.2" width="4.5" height="2.76"/><rect class="b" x="2556.9" y="821.2" width="4.5" height="2.76"/><rect class="b" x="2563.1" y="821.2" width="4.5" height="2.76"/><rect class="b" x="2569.7" y="821.2" width="4.5" height="2.76"/><path class="b" d="M2497.9,821.2h3.7a0,0,0,0,1,0,0v2.8a0,0,0,0,1,0,0h-4.5a0,0,0,0,1,0,0v-2A.8.8,0,0,1,2497.9,821.2Z"/></svg>