<?xml version="1.0" encoding="UTF-8" standalone="no"?>
<!DOCTYPE svg PUBLIC "-//W3C//DTD SVG 1.1//EN" "http://www.w3.org/Graphics/SVG/1.1/DTD/svg11.dtd">
<svg width="100%" height="100%" viewBox="0 0 100 100" version="1.1" xmlns="http://www.w3.org/2000/svg" xmlns:xlink="http://www.w3.org/1999/xlink" xml:space="preserve" xmlns:serif="http://www.serif.com/" style="fill-rule:evenodd;clip-rule:evenodd;stroke-linejoin:round;stroke-miterlimit:2;">
    <g transform="matrix(1.19333,0,0,1.13173,-9.66585,-6.64259)">
        <path d="M89.055,62.168L85.512,62.531C90.11,55.703 89.379,46.359 83.352,40.324C76.489,33.469 65.364,33.469 58.5,40.324C51.648,47.18 51.648,58.312 58.5,65.168C64.312,70.969 64.312,80.391 58.5,86.191C52.703,91.992 43.285,91.992 37.488,86.191C31.675,80.39 31.675,70.968 37.488,65.168L40.136,62.508L29.593,63.52C28.863,63.59 28.312,64.25 28.39,64.996C28.46,65.739 29.121,66.282 29.863,66.211L33.417,65.867C28.812,72.699 29.527,82.062 35.566,88.101C42.433,94.957 53.554,94.957 60.418,88.101C67.27,81.246 67.27,70.113 60.418,63.257C54.609,57.457 54.609,48.034 60.418,42.234C66.215,36.434 75.637,36.434 81.434,42.234C87.242,48.035 87.242,57.457 81.434,63.257L78.742,65.945L89.325,64.859C90.067,64.781 90.61,64.117 90.528,63.375C90.461,62.632 89.797,62.093 89.055,62.168L89.055,62.168ZM45.012,66.895L42.297,64.875L41.512,65.371C40,66.332 38.715,67.613 37.758,69.125L37.27,69.906L39.285,72.629C39.149,73.035 39.028,73.453 38.946,73.879L35.836,75.223L35.879,76.153C35.961,77.938 36.418,79.688 37.258,81.278L37.688,82.098L41.055,81.711C41.336,82.035 41.637,82.34 41.961,82.625L41.567,85.988L42.391,86.422C43.989,87.25 45.731,87.719 47.528,87.793L48.446,87.832L49.797,84.723C50.215,84.641 50.637,84.528 51.039,84.387L53.758,86.406L54.555,85.91C56.055,84.953 57.336,83.672 58.297,82.156L58.797,81.375L56.77,78.652C56.918,78.246 57.028,77.828 57.11,77.406L60.215,76.059L60.176,75.133C60.11,73.344 59.637,71.594 58.813,70.008L58.379,69.184L55.012,69.574C54.731,69.246 54.418,68.941 54.094,68.656C54.094,68.66 54.489,65.293 54.489,65.293L53.664,64.863C52.082,64.035 50.325,63.566 48.539,63.492L47.61,63.453L46.27,66.563C45.836,66.641 45.434,66.754 45.012,66.895L45.012,66.895ZM42.215,68.18L44.637,69.985L45.364,69.66C45.989,69.379 46.664,69.199 47.352,69.129L48.137,69.047L49.336,66.274C50.11,66.379 50.864,66.582 51.582,66.875L51.242,69.879L51.879,70.344C52.434,70.746 52.918,71.238 53.325,71.793L53.797,72.434L56.797,72.086C57.094,72.809 57.297,73.567 57.391,74.336L54.621,75.535L54.539,76.324C54.473,77.008 54.297,77.68 54.012,78.309L53.688,79.031L55.489,81.457C55.012,82.07 54.461,82.625 53.852,83.102L51.418,81.301L50.703,81.621C50.067,81.902 49.391,82.082 48.715,82.152L47.934,82.238L46.731,85.012C45.961,84.902 45.204,84.699 44.473,84.406L44.825,81.406L44.188,80.941C43.621,80.535 43.137,80.047 42.731,79.488L42.27,78.848L39.27,79.195C38.973,78.473 38.77,77.719 38.664,76.949L41.434,75.746L41.512,74.961C41.594,74.274 41.77,73.606 42.055,72.977L42.379,72.254L40.567,69.828C41.055,69.211 41.594,68.66 42.215,68.18L42.215,68.18ZM67.945,43.961L65.23,41.941L64.445,42.437C62.933,43.398 61.648,44.68 60.687,46.191L60.203,46.976L62.215,49.695C62.082,50.102 61.961,50.519 61.879,50.945C61.879,50.941 58.769,52.289 58.769,52.289L58.812,53.219C58.89,55.008 59.351,56.758 60.187,58.344L60.621,59.168L63.988,58.777C64.269,59.102 64.566,59.406 64.89,59.691L64.5,63.059L65.324,63.488C66.918,64.316 68.664,64.785 70.461,64.859L71.379,64.898L72.73,61.789C73.148,61.707 73.566,61.598 73.972,61.457L76.703,63.473L77.488,62.977C78.988,62.016 80.269,60.738 81.23,59.227L81.73,58.441L79.715,55.719C79.851,55.312 79.961,54.894 80.039,54.473L83.148,53.129L83.121,52.199C83.039,50.41 82.566,48.66 81.742,47.074L81.312,46.25L77.945,46.64C77.664,46.316 77.351,46.008 77.027,45.726L77.418,42.359L76.594,41.93C75.012,41.101 73.258,40.633 71.473,40.558L70.539,40.515L69.203,43.629C68.769,43.711 68.363,43.82 67.945,43.961L67.945,43.961ZM65.148,45.246L67.582,47.047L68.297,46.726C68.933,46.449 69.594,46.266 70.285,46.195L71.066,46.113L72.269,43.34C73.039,43.449 73.797,43.648 74.511,43.941L74.176,46.945L74.812,47.406C75.363,47.812 75.863,48.305 76.258,48.863L76.73,49.5L79.73,49.152C80.027,49.875 80.23,50.633 80.336,51.402L77.555,52.605L77.472,53.391C77.406,54.074 77.23,54.746 76.945,55.375L76.621,56.098L78.418,58.523C77.945,59.137 77.391,59.691 76.785,60.168L74.351,58.367L73.637,58.687C73,58.969 72.324,59.148 71.648,59.223L70.863,59.301L69.664,62.078C68.89,61.969 68.137,61.765 67.406,61.473L67.758,58.473L67.121,58.008C66.555,57.601 66.066,57.113 65.664,56.555L65.203,55.914L62.203,56.262C61.906,55.539 61.703,54.785 61.594,54.012L64.363,52.812L64.445,52.027C64.527,51.344 64.703,50.672 64.988,50.043L65.312,49.32L63.5,46.894C63.988,46.277 64.539,45.726 65.148,45.246L65.148,45.246ZM50.714,51.309L21.269,51.309C14.758,51.309 9.46,46.016 9.46,39.497C9.46,32.973 14.757,27.681 21.269,27.681C21.89,27.681 22.488,27.727 23.082,27.821C23.433,21.907 28.351,17.219 34.352,17.219C34.567,17.219 34.785,17.223 35,17.239C36.527,11.215 41.988,6.759 48.473,6.759C56.149,6.759 62.379,12.989 62.379,20.665C62.379,20.915 62.379,21.161 62.364,21.407C69.446,21.54 75.337,26.61 76.716,33.321C75.743,33.032 74.759,32.817 73.759,32.676C72.204,27.712 67.555,24.106 62.068,24.106C61.704,24.106 61.337,24.122 60.974,24.157L59.216,24.313L59.513,22.579C59.622,21.958 59.677,21.317 59.677,20.665C59.677,14.481 54.665,9.462 48.474,9.462C42.88,9.462 38.244,13.567 37.408,18.926L37.189,20.286L35.838,20.051C35.353,19.965 34.865,19.922 34.353,19.922C29.611,19.922 25.771,23.77 25.771,28.508C25.771,28.809 25.787,29.102 25.814,29.391L26.013,31.446L24.056,30.817C23.177,30.536 22.244,30.383 21.271,30.383C16.244,30.383 12.166,34.465 12.166,39.497C12.166,44.524 16.244,48.606 21.271,48.606L51.083,48.606C50.907,49.497 50.771,50.403 50.716,51.309L50.714,51.309Z" style="fill:rgb(23,93,174);"/>
    </g>
</svg>
