<svg xmlns="http://www.w3.org/2000/svg" width="55.03" height="54.39" viewBox="0 0 55.03 54.39"><defs><style>.a{fill:#175dae;}</style></defs><path class="a" d="M17.72,12.89H19.5v1.76H17.72Z" transform="translate(0.03 -0.61)"/><path class="a" d="M22,16.1l.1-.18-1.59-.79-.1.19a2,2,0,0,1-1.77,1.08,2,2,0,0,1-1.78-1.08l-.09-.19-1.59.79.1.18a3.77,3.77,0,0,0,6.72,0Z" transform="translate(0.03 -0.61)"/><path class="a" d="M35.47,16.4h1.78v1.76H35.47Z" transform="translate(0.03 -0.61)"/><path class="a" d="M38.14,18.83a2,2,0,0,1-1.78,1.08,2,2,0,0,1-1.77-1.08l-.1-.19-1.59.79.1.18a3.78,3.78,0,0,0,6.73,0l.09-.18-1.59-.79Z" transform="translate(0.03 -0.61)"/><path class="a" d="M52.34,18.16H48.79a2.65,2.65,0,0,0-2.67,2.63V26.2a2.59,2.59,0,0,0,.78,1.86l1,1v1.09a24.81,24.81,0,0,0-8-4.71v-.55a4.68,4.68,0,0,0,2.66-4.23v-.74a3.53,3.53,0,0,0,3.55-3.51V12.89a8.73,8.73,0,0,0-3.89-7.25,3.59,3.59,0,0,0,.34-1.52A3.54,3.54,0,0,0,39,.61a3.58,3.58,0,0,0-1.33.26A3.6,3.6,0,0,0,35,.87a3.52,3.52,0,0,0-4.54,4.76,8.76,8.76,0,0,0-1.17.94,5.48,5.48,0,0,0-1-1.13c0-.14,0-.29,0-.44a4.44,4.44,0,0,0-7-3.6A5.35,5.35,0,0,0,18.61.61a5.41,5.41,0,0,0-2.8.79,4.43,4.43,0,0,0-7,3.6,3.17,3.17,0,0,0,0,.44,5.25,5.25,0,0,0-1.8,4,5.18,5.18,0,0,0,1.8,3.94A3.55,3.55,0,0,0,12.4,16.4v.74a4.68,4.68,0,0,0,2.66,4.23v.55a24.81,24.81,0,0,0-8,4.71V25.54l1-1a2.59,2.59,0,0,0,.78-1.86V17.28a2.65,2.65,0,0,0-2.67-2.63H2.63A2.65,2.65,0,0,0,0,17.28V34.61a4.66,4.66,0,0,0,7.94,3.25l2.71-2.67v5.94a4.33,4.33,0,0,1-.75,2.43l-.65,1a2.22,2.22,0,0,0,.5,3,9.62,9.62,0,0,0-2.65,6.6V55H47.9v-.88a9.47,9.47,0,0,0-.84-3.88A3.48,3.48,0,0,0,47.9,48a3.7,3.7,0,0,0-.64-2.09l-2.77-4.11.6-1.19c.13-.27.25-.53.36-.81l1.61,1.59A4.66,4.66,0,0,0,55,38.12V20.79a2.65,2.65,0,0,0-2.66-2.63Zm-8.4,15.59a7.89,7.89,0,0,1,.41,2.5,7.8,7.8,0,0,1-.85,3.55L42.91,41h-11V34.11a12.41,12.41,0,0,0-1.51-6,9.81,9.81,0,0,1,1.51-.7v2.11a2.65,2.65,0,0,0,2.67,2.63h3.55a2.65,2.65,0,0,0,2.66-2.63V27.68c.44.19.87.4,1.3.62Zm-14.27,16h-.6a9.31,9.31,0,0,0-1.57-2.22,2.23,2.23,0,0,0,.87-1.76A2.28,2.28,0,0,0,28,44.52l-.66-1a4.4,4.4,0,0,1-.74-2.43v-15a10.82,10.82,0,0,1,3.55,8V44.84l1.11,1.1a2.18,2.18,0,0,1,.66,1.57,2.24,2.24,0,0,1-2.25,2.23ZM22.16,21.83v-.46a4.68,4.68,0,0,0,2.66-4.23V16.4a3.58,3.58,0,0,0,1.81-.49,4,4,0,0,0,0,.49,3.53,3.53,0,0,0,3.55,3.51v.74a4.7,4.7,0,0,0,2.66,4.23v.46a12.72,12.72,0,0,0-3.34,1.32,12.76,12.76,0,0,0-7.31-4.83Zm3.73-10.34a1.75,1.75,0,0,1-1.07,3.16V12.42a3.54,3.54,0,0,0,1.07-.93Zm4.26,6.67a1.76,1.76,0,1,1,0-3.51ZM40.8,20.65a3,3,0,0,1-2.06,2.82l-.6.2v3l.6.2L39,27v2.58a.87.87,0,0,1-.88.88H34.59a.88.88,0,0,1-.89-.88V27l.16,0,.73-.13V23.67l-.61-.2a3,3,0,0,1-2.06-2.82v-6h3.55a5.34,5.34,0,0,0,4-1.76h.47a.89.89,0,0,1,.89.88Zm1.77-2.49V14.65a1.76,1.76,0,1,1,0,3.51Zm-10.65-14A1.76,1.76,0,0,1,33.7,2.37a1.84,1.84,0,0,1,.89.23l.44.26.44-.26a1.87,1.87,0,0,1,1.78,0l.44.26.45-.26A1.81,1.81,0,0,1,39,2.37,1.76,1.76,0,0,1,40.8,4.12a1.72,1.72,0,0,1-.14.68,8.79,8.79,0,0,0-3.41-.68H35.47a8.9,8.9,0,0,0-3.41.67,1.71,1.71,0,0,1-.14-.67Zm3.55,1.76h1.78a7.06,7.06,0,0,1,7.1,7v.48a3.56,3.56,0,0,0-1.78-.48h-.15a2.64,2.64,0,0,0-2-1.69,5.23,5.23,0,0,0,.33-1.81H39a3.54,3.54,0,0,1-3.11,3.48,5.22,5.22,0,0,0,1.34-3.48H35.47a3.53,3.53,0,0,1-3.55,3.5H30.15a3.49,3.49,0,0,0-1.81.5v-.06a5.15,5.15,0,0,0,1.81-3.94,5.69,5.69,0,0,0-.1-1,7.06,7.06,0,0,1,5.42-2.49Zm-25.13.64.49-.34-.14-.57A2.54,2.54,0,0,1,10.62,5a2.67,2.67,0,0,1,4.53-1.87l.57.55.62-.5a3.59,3.59,0,0,1,4.54,0l.61.5.58-.55A2.67,2.67,0,0,1,26.6,5a3.17,3.17,0,0,1-.07.61l-.14.57.49.34a3.53,3.53,0,0,1,1.49,2.87,3.4,3.4,0,0,1-.47,1.75,3.61,3.61,0,0,0-1.33-1.3,3.4,3.4,0,0,0,0-.45,3.44,3.44,0,0,0-.91-2.34L24.37,8.22a1.73,1.73,0,0,1,.45,1.17,1.78,1.78,0,0,1-3.45.58l-.22-.62-.66,0h-.11a1.79,1.79,0,0,1-1.18-.45l-.59-.53L18,8.94a1.8,1.8,0,0,1-1.19.45h-.1l-.66,0-.22.62a1.79,1.79,0,0,1-1.68,1.17A1.76,1.76,0,0,1,12.4,9.38a1.72,1.72,0,0,1,.45-1.16L11.53,7.05a3.44,3.44,0,0,0-.91,2.34,3.4,3.4,0,0,0,0,.45,3.53,3.53,0,0,0-1.33,1.3,3.4,3.4,0,0,1-.47-1.75,3.53,3.53,0,0,1,1.49-2.87Zm.28,6.37a1.78,1.78,0,0,1,.71-1.4,3.54,3.54,0,0,0,1.07.93v2.23a1.77,1.77,0,0,1-1.78-1.76Zm3.55,4.25V12.89a3.55,3.55,0,0,0,3.09-1.78,3.36,3.36,0,0,0,1.35-.44,3.36,3.36,0,0,0,1.35.44,3.54,3.54,0,0,0,3.09,1.78v4.25A3,3,0,0,1,21,20l-.61.2v3.12l.73.13.16,0v.86a2.66,2.66,0,0,1-5.32,0v-.83l.28-.09.6-.2v-3l-.6-.2a3,3,0,0,1-2.06-2.82Zm-12.43.14a.89.89,0,0,1,.89-.88H6.18a.89.89,0,0,1,.89.88v1a2.64,2.64,0,0,0-.89-.15H3.52a1.78,1.78,0,0,0-1.7,1.23A.86.86,0,0,1,1.74,19ZM6.66,36.62a2.89,2.89,0,0,1-4.92-2V21.51a1.83,1.83,0,0,0,.46.12,3.56,3.56,0,0,0,3.09,1.79V21.67a1.77,1.77,0,0,1-1.77-1.76H6.18a.88.88,0,0,1,.89.88v1.9a.84.84,0,0,1-.26.62L5.3,24.81V34H7.07v-4.9l.21-.21a22.42,22.42,0,0,1,3.34-2.72v6.59Zm4,8.88.65-1a6.09,6.09,0,0,0,1.05-3.4V25a19.34,19.34,0,0,1,1.77-.87v.13a4.44,4.44,0,0,0,8.88,0v-.36a11.09,11.09,0,0,1,1.77.85V41.12a6,6,0,0,0,1.05,3.41l.65,1a.45.45,0,0,1,.08.26.48.48,0,0,1-.48.47h-15a.47.47,0,0,1-.48-.47.45.45,0,0,1,.08-.26ZM11.82,48H25.4a7.88,7.88,0,0,1,2.92,5.27H8.89A7.93,7.93,0,0,1,11.82,48Zm18.29,5.27a9.44,9.44,0,0,0-.34-1.76,4,4,0,0,0,2-.57,3.59,3.59,0,0,0,4.61-.62,3.58,3.58,0,0,0,5.33,0,3.56,3.56,0,0,0,3.89,1,7.56,7.56,0,0,1,.49,2Zm16-5.27a1.78,1.78,0,0,1-3.55,0H40.8a1.78,1.78,0,0,1-3.55,0H35.47a1.76,1.76,0,0,1-1.77,1.76,1.8,1.8,0,0,1-.62-.11,3.94,3.94,0,0,0-.56-4.93l-.6-.59V42.72H43l2.79,4.14A2,2,0,0,1,46.13,48Zm4.23-7a2.88,2.88,0,0,1-2-.83L46,37.84a9.67,9.67,0,0,0-.37-4.65l-1.18-3.5a23.13,23.13,0,0,1,3.25,2.66l.21.21v4.9h1.78V28.32l-1.52-1.5a.84.84,0,0,1-.26-.62V24.3a.88.88,0,0,1,.89-.88h2.66a1.76,1.76,0,0,1-1.78,1.75v1.76a3.56,3.56,0,0,0,3.1-1.79,2.39,2.39,0,0,0,.46-.12v13.1A2.87,2.87,0,0,1,50.35,41Zm2.8-18.06a1.78,1.78,0,0,0-1.7-1.23H48.79a2.64,2.64,0,0,0-.89.15v-1a.89.89,0,0,1,.89-.88h3.55a.89.89,0,0,1,.89.88v1.75a.86.86,0,0,1-.08.36Z" transform="translate(0.03 -0.61)"/></svg>