<svg width="55" height="55" viewBox="0 0 55 55" fill="none" xmlns="http://www.w3.org/2000/svg">
<g clip-path="url(#clip0_3_3874)">
<path d="M4.94109 7.43263C4.94109 8.26268 5.61398 8.93557 6.44402 8.93557C7.27407 8.93557 7.94696 8.26268 7.94696 7.43263C7.94696 6.60258 7.27407 5.92969 6.44392 5.92969C5.61387 5.92969 4.94109 6.60258 4.94109 7.43263V7.43263Z" fill="#1565C0"/>
<path d="M11.0673 8.93557C11.8974 8.93557 12.5703 8.26268 12.5703 7.43263C12.5703 6.60258 11.8974 5.92969 11.0673 5.92969C10.2373 5.92969 9.56441 6.60258 9.56441 7.43263C9.56441 8.26268 10.2373 8.93557 11.0673 8.93557Z" fill="#1565C0"/>
<path d="M15.6908 8.93557C16.5208 8.93557 17.1937 8.26268 17.1937 7.43263C17.1937 6.60258 16.5208 5.92969 15.6908 5.92969C14.8607 5.92969 14.1879 6.60258 14.1879 7.43263C14.1879 8.26268 14.8607 8.93557 15.6908 8.93557Z" fill="#1565C0"/>
<path d="M14.0513 29.5813C14.3724 29.5813 14.6761 29.3885 14.802 29.0719L19.2941 17.7776C19.459 17.363 19.2567 16.8935 18.8421 16.7286C18.4279 16.564 17.9581 16.7661 17.7933 17.1806L13.3011 28.475C13.1362 28.8895 13.3386 29.3591 13.7531 29.5239C13.851 29.5628 13.952 29.5813 14.0513 29.5813Z" fill="#1565C0"/>
<path d="M22.8135 28.9307C22.9409 29.0045 23.0801 29.0397 23.2175 29.0397C23.4962 29.0397 23.7674 28.8952 23.9172 28.6367L26.9337 23.4289C27.0812 23.1741 27.0785 22.8593 26.9264 22.6071L23.9099 17.6036C23.6796 17.2215 23.183 17.0988 22.8013 17.329C22.4192 17.5593 22.2963 18.0557 22.5266 18.4376L25.2966 23.0323L22.5193 27.8271C22.2957 28.2131 22.4274 28.7072 22.8135 28.9307V28.9307Z" fill="#1565C0"/>
<path d="M10.1594 27.8271L7.38214 23.0323L10.1521 18.4375C10.3824 18.0556 10.2595 17.5593 9.87745 17.329C9.49578 17.0989 8.99917 17.2216 8.76885 17.6036L5.75234 22.6071C5.60023 22.8592 5.59755 23.1741 5.74504 23.4289L8.76155 28.6367C8.91129 28.8953 9.18254 29.0397 9.46119 29.0397C9.59858 29.0397 9.73791 29.0045 9.8652 28.9307C10.2514 28.7072 10.383 28.213 10.1594 27.8271Z" fill="#1565C0"/>
<path d="M40.5015 39.6087C40.0647 39.5193 39.6378 39.8009 39.5483 40.238C39.2477 41.707 37.9389 42.7732 36.4365 42.7732C34.6852 42.7732 33.2604 41.3484 33.2604 39.597C33.2604 37.8456 34.6852 36.4207 36.4365 36.4207C37.2133 36.4207 37.9611 36.7041 38.5419 37.2187C38.8758 37.5144 39.3863 37.4836 39.682 37.1497C39.9778 36.8158 39.947 36.3055 39.6131 36.0096C38.7367 35.2331 37.6085 34.8054 36.4366 34.8054C33.7946 34.8054 31.6452 36.9549 31.6452 39.597C31.6452 42.239 33.7946 44.3884 36.4366 44.3884C38.7028 44.3884 40.6771 42.7791 41.1309 40.5618C41.2202 40.1248 40.9384 39.6981 40.5015 39.6087V39.6087Z" fill="#1565C0"/>
<path d="M48.8822 18.5498C47.4159 17.9507 45.7354 18.6565 45.1365 20.1229C44.8464 20.8332 44.8501 21.614 45.1474 22.3215C45.4445 23.029 45.8652 23.454 46.7096 23.8686C47.9304 24.468 49.8932 23.7928 50.4552 22.2956C50.9484 20.9821 50.3813 19.1095 48.8822 18.5498ZM47.7959 22.4709C47.1002 22.4709 46.5362 21.907 46.5362 21.2113C46.5362 20.5156 47.1002 19.9517 47.7959 19.9517C48.4915 19.9517 49.0555 20.5156 49.0555 21.2113C49.0555 21.907 48.4915 22.4709 47.7959 22.4709Z" fill="#1565C0"/>
<path d="M54.2486 21.614L53.7633 21.4157C53.7687 21.2586 53.7679 21.1013 53.7608 20.9442L54.2441 20.7412C54.8585 20.4833 55.1485 19.7736 54.8905 19.159L54.2271 17.5793C53.98 17.0654 53.4249 16.6763 52.6449 16.9328L52.1615 17.1357C52.0542 17.0208 51.9426 16.91 51.8264 16.8038L52.0245 16.3189C52.2126 15.8867 52.0661 15.0152 51.3628 14.7428L49.7766 14.0948C49.3447 13.9068 48.4728 14.0536 48.2006 14.7566L48.0024 15.2419C47.8454 15.2364 47.688 15.2372 47.531 15.2443L47.328 14.7612C47.203 14.4634 46.9697 14.2322 46.6707 14.1101C46.4563 14.0225 46.2266 13.9996 46.004 14.0394V6.1601C46.004 3.86761 44.1388 2.00244 41.8463 2.00244H40.1534C39.7073 2.00244 39.3458 2.36402 39.3458 2.81004C39.3458 3.25605 39.7074 3.61764 40.1534 3.61764H41.8463C43.2482 3.61764 44.3887 4.75814 44.3887 6.15999V11.2475H1.6153V9.88108V6.15999C1.6153 4.75814 2.7558 3.61764 4.15766 3.61764H36.3961C36.8423 3.61764 37.2037 3.25605 37.2037 2.81004C37.2037 2.36402 36.8422 2.00244 36.3961 2.00244H4.15766C1.86517 2.00255 0 3.86761 0 6.1601V40.0923C0 42.3848 1.86517 44.25 4.15766 44.25H7.1934C7.63952 44.25 8.001 43.8884 8.001 43.4424C8.001 42.9963 7.63941 42.6348 7.1934 42.6348H4.15766C2.7558 42.6348 1.6153 41.4943 1.6153 40.0924V12.8628H44.3888V14.6843L44.1658 14.778C43.5515 15.036 43.2616 15.7459 43.5195 16.3602L43.7224 16.8436C43.6075 16.9509 43.4967 17.0627 43.3906 17.1786L42.9054 16.9804C42.2889 16.7283 41.5816 17.025 41.3294 17.6422L40.6816 19.2282C40.4934 19.6603 40.6402 20.532 41.3435 20.8042L41.8286 21.0024C41.8232 21.1595 41.824 21.3169 41.831 21.4739L41.3478 21.677C40.834 21.9241 40.4449 22.4794 40.7014 23.2593L41.3647 24.8388C41.612 25.3528 42.1668 25.7419 42.9471 25.4854L43.4304 25.2824C43.5378 25.3974 43.6494 25.5081 43.7654 25.6143L43.5672 26.0996C43.3152 26.7166 43.6122 27.4234 44.229 27.6754L44.3888 27.7406V28.6859C44.1576 28.558 43.8969 28.4892 43.6254 28.4892C43.2031 28.4892 42.8059 28.6538 42.5073 28.9524L41.4125 30.0472C40.8539 29.7555 40.2712 29.514 39.6706 29.3252V27.7774C39.6706 26.9055 38.9613 26.1962 38.0894 26.1962H34.784C33.9121 26.1962 33.2027 26.9055 33.2027 27.7774V29.3252C32.602 29.5141 32.0196 29.7555 31.4609 30.0472L30.3661 28.9524C29.7496 28.3359 28.7467 28.3358 28.1299 28.9524L25.7925 31.2898C25.176 31.9063 25.176 32.9095 25.7925 33.526L26.8873 34.6208C26.5956 35.1795 26.3542 35.762 26.1654 36.3626H24.6177C23.7458 36.3626 23.0364 37.0719 23.0364 37.9438V41.2493C23.0364 41.8452 23.368 42.3648 23.8561 42.6343H10.9219C10.4758 42.6343 10.1143 42.9959 10.1143 43.4419C10.1143 43.888 10.4759 44.2495 10.9219 44.2495H26.7273C26.7792 44.3577 26.8313 44.4659 26.8869 44.5724L25.7922 45.6672C25.4936 45.9658 25.3291 46.3629 25.3291 46.7853C25.3291 47.2077 25.4937 47.6047 25.7922 47.9034L28.1296 50.2409C28.7465 50.8576 29.7494 50.8575 30.3658 50.2409L31.4605 49.146C32.0192 49.4377 32.6019 49.6792 33.2024 49.868V51.4159C33.2024 52.2877 33.9118 52.997 34.7836 52.997H38.0891C38.9609 52.997 39.6703 52.2877 39.6703 51.4159V49.8684C40.271 49.6796 40.8535 49.4381 41.4122 49.1465L42.5069 50.2413C42.8056 50.5399 43.2028 50.7045 43.6251 50.7045C44.0475 50.7045 44.4446 50.5399 44.7431 50.2413L47.0804 47.9039C47.3791 47.6053 47.5436 47.2081 47.5436 46.7858C47.5436 46.3634 47.3792 45.9663 47.0804 45.6676L45.9857 44.5729C46.2773 44.0143 46.5187 43.4318 46.7077 42.831H48.2554C49.1272 42.831 49.8367 42.1217 49.8367 41.2498V37.9442C49.8367 37.0724 49.1272 36.363 48.2554 36.363H46.7077C46.5187 35.7622 46.2772 35.1797 45.9857 34.6212L47.0809 33.5264C47.6974 32.9099 47.6974 31.9067 47.0809 31.2902L46.0041 30.2134V28.3824C46.4006 28.4935 47.1519 28.2838 47.3911 27.662L47.5893 27.1768C47.7462 27.1822 47.9036 27.1814 48.0609 27.1743L48.2639 27.6579C48.522 28.2724 49.2317 28.562 49.8461 28.304L51.4258 27.6406C51.9397 27.3935 52.329 26.8384 52.0723 26.0583L51.8694 25.5749C51.9845 25.4676 52.0951 25.3558 52.2013 25.2399L52.6866 25.4381C53.1186 25.6261 53.9902 25.4794 54.2625 24.7763L54.9105 23.19C55.1622 22.573 54.8653 21.8661 54.2486 21.614V21.614ZM46.0971 37.9782H48.2218V41.2157H46.0971C45.7266 41.2157 45.4037 41.4677 45.3137 41.8272C45.096 42.6964 44.7516 43.5272 44.2901 44.2965C44.0995 44.6142 44.1496 45.0209 44.4117 45.283L45.9146 46.7859L43.6252 49.0751L42.1225 47.5723C41.8605 47.3103 41.4539 47.26 41.1359 47.4507C40.3663 47.9123 39.5355 48.2566 38.6666 48.4742C38.3072 48.5641 38.0551 48.8872 38.0551 49.2576V51.3823H34.8176V49.2576C34.8176 48.8872 34.5655 48.5641 34.206 48.4742C33.3372 48.2567 32.5065 47.9124 31.7368 47.4507C31.4189 47.2601 31.0123 47.3103 30.7503 47.5723L29.2475 49.0751L26.9582 46.7859L28.461 45.283C28.723 45.021 28.7732 44.6143 28.5825 44.2966C28.1209 43.527 27.7766 42.6962 27.5591 41.8273C27.4691 41.4678 27.1462 41.2158 26.7757 41.2158H24.651V37.9784H26.7757C27.1462 37.9784 27.4691 37.7262 27.5591 37.3669C27.7766 36.498 28.1209 35.6673 28.5825 34.8977C28.7732 34.58 28.723 34.1733 28.461 33.9111L26.9582 32.4083L29.2474 30.119L30.7503 31.6219C31.0124 31.8839 31.4189 31.934 31.7368 31.7434C32.5063 31.2819 33.3371 30.9375 34.206 30.72C34.5655 30.6301 34.8176 30.307 34.8176 29.9365V27.8118H38.0551V29.9365C38.0551 30.307 38.3072 30.6301 38.6666 30.72C39.5357 30.9376 40.3665 31.2819 41.1359 31.7434C41.4537 31.934 41.8604 31.8839 42.1225 31.6219L43.6252 30.119L45.9146 32.4083L44.4116 33.9111C44.1496 34.1731 44.0995 34.58 44.2901 34.8977C44.7516 35.6668 45.0959 36.4975 45.3137 37.3669C45.4037 37.7262 45.7267 37.9782 46.0971 37.9782V37.9782ZM52.9207 23.7889L52.2613 23.5196C51.9183 23.3793 51.524 23.4907 51.3048 23.7893C51.0527 24.1327 50.7517 24.4365 50.4101 24.6924C50.1134 24.9146 50.0061 25.31 50.1495 25.6516L50.4254 26.3087L49.5955 26.6573L49.3195 26.0002C49.1761 25.6585 48.8185 25.4585 48.4522 25.5146C48.0306 25.5795 47.6029 25.5818 47.1811 25.5212C46.8139 25.4683 46.4589 25.6723 46.3187 26.0152L46.0494 26.6747L45.2161 26.3342L45.4855 25.6749C45.6256 25.3319 45.5143 24.9377 45.2157 24.7184C44.8724 24.4664 44.5685 24.1654 44.3126 23.8237C44.0906 23.5272 43.6952 23.4196 43.3534 23.5632L42.6965 23.8392L42.348 23.0092L43.005 22.7333C43.3467 22.5897 43.5468 22.2322 43.4905 21.8659C43.4257 21.4441 43.4235 21.0164 43.4839 20.5948C43.5366 20.2281 43.3329 19.8726 42.9899 19.7324L42.3306 19.463L42.671 18.6297L43.3304 18.8992C43.6731 19.0393 44.0676 18.9282 44.2869 18.6294C44.5391 18.286 44.84 17.9822 45.1815 17.7264C45.4782 17.5043 45.5855 17.109 45.4421 16.7673L45.1662 16.1102L45.9961 15.7616L46.2722 16.4187C46.4157 16.7604 46.7732 16.9606 47.1394 16.9042C47.5614 16.8393 47.989 16.8373 48.4105 16.8977C48.7775 16.9504 49.1326 16.7465 49.2728 16.4036L49.5421 15.7443L50.3754 16.0846L50.1061 16.7441C49.966 17.0869 50.0773 17.4812 50.3758 17.7005C50.7195 17.9528 51.0232 18.2538 51.2788 18.5951C51.5008 18.8917 51.896 18.9994 52.238 18.8558L52.8951 18.5798L53.2437 19.4097L52.5866 19.6857C52.245 19.8292 52.0447 20.1867 52.101 20.553C52.1658 20.9748 52.168 21.4024 52.1077 21.8242C52.0551 22.191 52.2588 22.5463 52.6017 22.6864L53.2611 22.9558L52.9207 23.7889Z" fill="#1565C0"/>
</g>
<defs>
<clipPath id="clip0_3_3874">
<rect width="55" height="55" fill="white"/>
</clipPath>
</defs>
</svg>