<svg xmlns="http://www.w3.org/2000/svg" xmlns:xlink="http://www.w3.org/1999/xlink" width="960" height="600" viewBox="0 0 960 600"><defs><style>.a{fill:none;}.b{fill:#3fa9f5;opacity:0.16;}.c{clip-path:url(#a);}.d{fill:#fff;}.e{fill:#ba9b97;}.f{fill:#ccc;}.g{fill:#212121;}.h{fill:#434043;}.i{fill:#d1aba1;}.j{fill:#7a4936;}</style><clipPath id="a"><circle class="a" cx="497" cy="306" r="293"/></clipPath></defs><circle class="b" cx="455" cy="324" r="167"/><g class="c"><polygon class="d" points="419.194 319.667 421 412 449 604 537.347 603.769 587.446 336.333 570 301 539 305 419.194 319.667"/><polygon class="e" points="450.653 256.083 435.653 286.083 443.153 319.861 486.653 364.083 493.653 376.083 498.653 391.083 501.653 386.083 539.653 306.083 545 290.583 544.653 265.083 450.653 256.083"/><path class="f" d="M455,259s-6,8-7,14-5,25.66667-2,32.33333S450,311,457,321s34,43,36,51,5,16,5,16a19.63974,19.63974,0,0,1,2.393-5.66667C502,380,511,353,519,336s14.5-35.5,18.5-38.5,4-12,4-19a49.97733,49.97733,0,0,1,1-11l3-5,5,6,14,46-16,1s11,11,11,13c0,0-57,44-65,78s-4,106-4,106l1.05556,29.5S484.5,430.5,497.5,393.5c0,0-4-24-12-28s-42-20-45-21-7-2-5-5,6-12,6-14c0,0-8,5-15,6s6.95918-50.5,6.95918-50.5L441.5,254.5l10-5Z"/><ellipse class="f" cx="501" cy="422" rx="4" ry="3" transform="translate(-30.45912 804.93108) rotate(-75.88175)"/><ellipse class="f" cx="500" cy="575" rx="4" ry="3" transform="translate(-108.8335 1033.19948) rotate(-85.95551)"/><ellipse class="f" cx="498" cy="495.125" rx="3" ry="4" transform="translate(-29.71262 31.79773) rotate(-3.55127)"/><ellipse class="f" cx="506.33333" cy="378.25" rx="3" ry="4" transform="translate(-43.19188 66.05047) rotate(-7.15908)"/><path class="f" d="M491.55556,542s1.48019,53,2.96231,57"/><path class="g" d="M242,542a42.64614,42.64614,0,0,1,0-8.33333c.5-3.16667,5.5-7.16667,5.5-9.16667s8-42,12-53,32-93,33-97,2-11,6-18,12-26,14-30,4.5-4.5,8-5c0,0,64-33,103-44,0,0,8-11,9-13S443,246,445,247l1.5,12.5s-14,35-13,40-4,13-4,17,0,28-4,35c0,0,5,6,10,20s27,108,27,126-2,14-1,24,15.88889,78,18.5,81.5L362,581s-16.5-57.5-16.5-65.5c0,0-7.5,8.5-5.5,10.5s-2.94444,21.5-7,31Z"/><path class="h" d="M444,246s-21.5,40.5-25.5,54.5-36,38-45,41c0,0,7,21,12,31s0,10,10,35S446.16667,538.5,457,596l21,2s-15.5-70.5-14.5-81.5,1-29-1-37-19-104-35-128c0,0,4-31,4-35s4-11,4-16S448,261,454,258Z"/><path class="g" d="M720.33333,542.33333S721.5,539.5,718.5,534.5s-5-7-9-30S702,432,692,405s-23-48-27-57-11.57768-22.71554-15.5-23.5c-2.5-.5-4-2-9.5-5.5-5.96559-3.79628-65.5-32.5-65.5-32.5L523,602l66-13s25.5-61.5,27.5-71.5c0,0,3,8,8,12,0,0,7.5,30.5,11.5,34.5Z"/><path class="h" d="M523,598l10-1s43.5-88.5,53.5-122.5,22-88,26-94,22-19,26-20a7.41409,7.41409,0,0,0,2-13c-6-5-23-18-27-23s-24.107-22.55556-26.05351-23.27778S575.5,288.5,573.5,281.5s-19-30-22-31-8,13-8,13,10,29,9,34,5,23,7,25,0,23-3,30-8.88889,38.44887-8.94444,45.22444S538.5,443.5,535.5,475.5,524.83333,588.5,523,598Z"/><path class="i" d="M440,193s-4-14-9-14-4,11-4,11-1,23,5,31c0,0-3,4,0,8s8,3,8,3Z"/><path class="i" d="M561,196s4-7,7-8,4,2,4,4,1,4,1,6-1,4-1,6,1,5-1,12-6,11-6,12,3,7-3,9-5-3-5-3Z"/><path class="i" d="M438,131s1,74.55556,0,83.77778S439,246,455,268s27,33,32,34,19.22222,2,24.11111,0S535,281,542,271s20-33.91321,20-57c0-23,1-84,1-84l-42-17-50,3Z"/><path class="j" d="M439,201s1.52058,51.822,3,57c1.65956,5.80846,26.72934,39.15836,37.21564,50.62931a11.95937,11.95937,0,0,0,8.83367,3.8707l18.80307,0a11.44835,11.44835,0,0,0,7.99766-3.25138C525.55308,298.80374,555.5,266.5,557,257c1.25741-7.9636,4-54,4-54s-4.5,25.5-10.5,31.5S533,246,533,246l-3.03186-12.56056a4.4353,4.4353,0,0,0-2.23971-2.885C523.17936,228.15162,515.21879,224,512,224H488c-5,0-17.5,6.5-19.5,8.5s-4,14-4,14l-18-16S441.5,226.5,439,201Z"/><path class="j" d="M493,179a99.61324,99.61324,0,0,0-11-4c-4-1-18-1-21,0s-12,8-13,12c0,0,6.94444-3.91421,11.22222-5.70711S466.5,178.5,471.5,179.5s18,3,20,3C491.5,182.5,492.5,182.5,493,179Z"/><path class="j" d="M511,177s1,5,3,4,12-3,13-4,8.44444-4.82843,11.22222-3.41421S550,180,552,189c0,0-3-16-9-19s-15,0-22,3S511,176,511,177Z"/><path class="j" d="M534,127s17,7,10,10C544,137,557,132,534,127Z"/><path class="j" d="M523,127.55556C519,128,520,129,515,131s-9,5-12,4c0,0,7-1.24581,9-3.62291S519,127,522,126,523,127.55556,523,127.55556Z"/><path class="j" d="M466,126s-13,3.39726-8.5,12.19863c0,0-4.5-6.19863-3.5-10.19863S466,126,466,126Z"/><path class="j" d="M474,125s-9,10-2,19c5.28132,6.79026,6,4,6,4s0,1-3,0c-.94868-.31623-7-6-7-10s1-7,3-11S474,125,474,125Z"/><path class="j" d="M474,128s-2.91667,2.69863-1.45833,3.84931c0,0-.54167-1.18264.95833-2.516S474,130,474,130s-1,1,0,1a.97939.97939,0,0,1,1-1Z"/><path class="j" d="M440,196s-2.02345-21.24626,7.14587-32.05928a4.33666,4.33666,0,0,0,.98016-2.45322l1.64972-19.79652a7.11247,7.11247,0,0,1,2.75309-5.08436C457.34181,132.94825,469.769,126.89953,496,132c0,0,38.76339-7.92888,54.27255,3.50114a7.5321,7.5321,0,0,1,3.02333,5.26028l2.51077,23.434a5.654,5.654,0,0,0,1.20421,2.88427c2.1576,2.74506,6.83289,11.3266,4.48914,32.42035L566,189l4.5-51.5s-2-7-5-8c0,0,7-8-7-20s-19-16-20-22c0,0,0,7-2,4,0,0-2-9-17-7,0,0-27-16-51,4,0,0-4,5-7,2,0,0,1,4-6,0s-17,5-21,10c0,0,12-6,9,0s-15,11-13,27c1.89845,15.18756,2.89587,52.90071,2.99226,56.6915a1.23777,1.23777,0,0,0,.16208.58156Z"/><path class="j" d="M502,82s4-6,7-4c0,0-3,0-3,2"/></g></svg>