<svg width="179" height="179" viewBox="0 0 179 179" fill="none" xmlns="http://www.w3.org/2000/svg">
<path d="M73.8375 80.55C75.6175 80.55 77.3257 79.8428 78.5841 78.5842C79.8424 77.3256 80.5499 75.6174 80.5499 73.8376C80.5499 72.0578 79.8427 70.3494 78.5841 69.091C77.3255 67.8327 75.6173 67.1252 73.8375 67.1252C72.0577 67.1252 70.3493 67.8324 69.0909 69.091C67.8326 70.3496 67.1251 72.0578 67.1251 73.8376C67.1251 75.6174 67.8323 77.3258 69.0909 78.5842C70.3495 79.8426 72.0577 80.55 73.8375 80.55ZM73.8375 71.6C74.7425 71.6 75.5586 72.1454 75.9042 72.9814C76.2508 73.8175 76.06 74.7794 75.4197 75.4197C74.7795 76.06 73.8175 76.2508 72.9814 75.9042C72.1454 75.5585 71.6 74.7425 71.6 73.8375C71.6 72.6019 72.6019 71.6 73.8375 71.6Z" fill="#175DAE"/>
<path d="M44.75 73.8374C44.75 72.0574 44.0428 70.3492 42.7842 69.0908C41.5256 67.8324 39.8174 67.125 38.0376 67.125C36.2579 67.125 34.5494 67.8322 33.2911 69.0908C32.0327 70.3494 31.3253 72.0576 31.3253 73.8374C31.3253 75.6171 32.0325 77.3256 33.2911 78.5839C34.5497 79.8423 36.2579 80.5498 38.0376 80.5498C39.8174 80.5498 41.5258 79.8425 42.7842 78.5839C44.0426 77.3253 44.75 75.6171 44.75 73.8374ZM35.8 73.8374C35.8 72.9324 36.3454 72.1163 37.1814 71.7707C38.0175 71.4241 38.9794 71.6149 39.6197 72.2551C40.26 72.8954 40.4508 73.8573 40.1042 74.6934C39.7586 75.5295 38.9425 76.0749 38.0375 76.0749C36.8019 76.0749 35.8 75.073 35.8 73.8374Z" fill="#175DAE"/>
<path d="M67.125 89.5H44.75V102.925H67.125V89.5ZM62.65 98.45H49.225V93.975H62.65V98.45Z" fill="#175DAE"/>
<path d="M149.912 11.1875H136.487V24.6125H149.912V11.1875ZM145.437 20.1375H140.962V15.6625H145.437V20.1375Z" fill="#175DAE"/>
<path d="M149.912 29.0874H136.487V42.5124H149.912V29.0874ZM145.437 38.0374H140.962V33.5624H145.437V38.0374Z" fill="#175DAE"/>
<path d="M149.912 46.9873H136.487V60.4123H149.912V46.9873ZM145.437 55.9373H140.962V51.4623H145.437V55.9373Z" fill="#175DAE"/>
<path d="M69.3625 11.1875H55.9375V24.6125H69.3625V11.1875ZM64.8875 20.1375H60.4125V15.6625H64.8875V20.1375Z" fill="#175DAE"/>
<path d="M55.9375 42.5124H69.3625V29.0874H55.9375V42.5124ZM60.4125 33.5624H64.8875V38.0374H60.4125V33.5624Z" fill="#175DAE"/>
<path d="M49.225 4.47489V62.8979C45.9915 59.5716 41.4487 57.8506 36.8239 58.2012C32.198 58.5508 27.9657 60.9351 25.2697 64.7099C22.5737 68.4848 21.6907 73.2605 22.8604 77.7493C24.0291 82.2384 27.1295 85.9782 31.325 87.9579V91.7366H22.375V109.637H31.325V116.349H44.75V125.299H49.225V138.724H156.625V4.47412L49.225 4.47489ZM31.325 105.162H26.85V96.2124H31.325V105.162ZM26.85 73.8374C26.85 70.8706 28.0287 68.025 30.1262 65.9261C32.2249 63.8285 35.0707 62.6499 38.0375 62.6499C41.0043 62.6499 43.8499 63.8286 45.9488 65.9261C48.0464 68.0248 49.225 70.8706 49.225 73.8374C49.225 76.8042 48.0463 79.6498 45.9488 81.7487C43.8501 83.8463 41.0043 85.0249 38.0375 85.0249C35.0717 85.0209 32.2279 83.8412 30.1303 81.7446C28.0336 79.6469 26.8541 76.8032 26.85 73.8374ZM35.8 111.875V89.3211C40.6256 90.0643 45.5171 88.4701 48.9762 85.0249H62.9277C66.3619 88.4911 71.2584 90.0852 76.075 89.3071V111.875H35.8ZM77.5454 84.3754C75.4577 85.0956 73.2051 85.1865 71.0666 84.6371C68.928 84.0877 66.9982 82.922 65.5158 81.2859C63.6678 79.2452 62.6469 76.5903 62.65 73.8372C62.646 71.0873 63.6549 68.4312 65.4848 66.3775C67.3148 64.3248 69.8371 63.0172 72.5699 62.7047C75.302 62.3931 78.0537 63.0993 80.2994 64.6875C82.5449 66.2767 84.1262 68.636 84.7414 71.3171C85.3567 73.9983 84.9632 76.8109 83.6357 79.2202C82.3081 81.6286 80.1405 83.4646 77.5456 84.3755L77.5454 84.3754ZM80.55 96.2121H85.025V105.162H80.55V96.2121ZM49.225 116.35H62.65V120.825H49.225V116.35ZM58.175 134.25H53.7V125.3H58.175V134.25ZM129.775 91.7371H109.637V96.2121H129.775V134.25H76.075V120.825H71.6V134.25H62.65V125.3H67.125V116.35H80.55V109.637H86.815L105.162 117.506V83.867L86.815 91.7361H80.55V87.9324C84.2939 86.1463 87.1745 82.9459 88.559 79.0363C89.9434 75.1267 89.7177 70.8266 87.9317 67.0827C86.1467 63.3388 82.9463 60.4582 79.0367 59.0737C75.126 57.6893 70.8269 57.914 67.083 59.7C63.3391 61.485 60.4575 64.6854 59.073 68.595C57.6886 72.5047 57.9133 76.8048 59.6983 80.5487H52.1678C53.1737 78.454 53.6971 76.1596 53.7001 73.8362V8.94866H71.6001V55.9362H76.0751V51.4612H129.775L129.775 91.7371ZM89.5 105.925V95.4488L100.687 90.6562V110.718L89.5 105.925ZM129.775 46.9882H76.075V8.95066H129.775V46.9882ZM152.15 134.251H134.25V8.95066H152.15V134.251Z" fill="#175DAE"/>
<path d="M55.9375 58.1748H60.4125V51.4623H64.8875V55.9373H69.3625V46.9873H55.9375V58.1748Z" fill="#175DAE"/>
<path d="M149.912 64.8875H136.487V78.3125H149.912V64.8875ZM145.437 73.8375H140.962V69.3625H145.437V73.8375Z" fill="#175DAE"/>
<path d="M149.912 82.7874H136.487V96.2124H149.912V82.7874ZM145.437 91.7374H140.962V87.2624H145.437V91.7374Z" fill="#175DAE"/>
<path d="M149.912 100.688H136.487V114.113H149.912V100.688ZM145.437 109.638H140.962V105.163H145.437V109.638Z" fill="#175DAE"/>
<path d="M136.487 132.012H149.912V118.587H136.487V132.012ZM140.962 123.062H145.437V127.537H140.962V123.062Z" fill="#175DAE"/>
</svg>
