<svg xmlns="http://www.w3.org/2000/svg" xmlns:xlink="http://www.w3.org/1999/xlink" width="15361" height="1440" viewBox="0 0 15361 1440"><defs><style>.a{fill:#014b9b;}.b{fill:#155dc0;}.c{fill:#01579b;}.d{opacity:0.21;fill:url(#a);}.e{fill:#03a9f4;}.f,.g,.h{fill:none;stroke:#fff;stroke-miterlimit:10;}.f,.g{stroke-width:0.75px;}.f{opacity:0.64;}.g,.h{opacity:0.46;}.h{stroke-width:0.25px;}</style><radialGradient id="a" cx="7411.12" cy="595.81" r="47.94" gradientTransform="translate(-2093.33) scale(1.28 1)" gradientUnits="userSpaceOnUse"><stop offset="0" stop-color="#a3dcf9" stop-opacity="0.2"/><stop offset="1" stop-color="#fff" stop-opacity="0"/></radialGradient></defs><polygon class="a" points="7403.83 576.05 7403.83 580.19 7439.52 593.77 7678.91 586.5 7826.96 577.84 7826.96 571.22 7511.07 567.93 7403.83 576.05"/><polyline class="b" points="7524.33 515.6 7524.33 517.9 7519.31 517.9 7519.31 514.15"/><polygon class="b" points="7494.59 514.15 7497.1 511.25 7502.68 509.69 7497.98 509.26 7498.22 506.9 7516.61 509.69 7516.61 511.92 7511.55 511.25 7515.84 512.55 7516.49 514.15 7494.59 514.15"/><path class="b" d="M7402.06,580.2l8.08,5.42-.83.89,34.84,19.61h1.39l2,1.12.47,1.11,8.36,4.46,12.82-1.67,2.79,1.12,57.69-5s1.95,2.23,11.43,2.23S7553.4,605,7553.4,605l52.56-4.65,7.64-4.27L7643,593.3l6.57,3.21,2.58-.42V594.7l7.73-.84L7661,595l167.51-16.63v-1.49l-5.29-.28-142.92,1-.34,2.36-57.57.78-3.75-2.45-83.06.56-1.67,2.23h-10l-3.9-2.23Z"/><path class="b" d="M7447.49,558.74c-.56,0-36.79,12.82-36.79,12.82v.56l-8.64,4,117.9-1.16,5-1.67h8.36l2.23,1.67,82.5-1.12,4.76-1.76,56.56.09.6,1.24,143.22-1.24,5,.56v-2l-5.48-1.72-55.25-1.86-2.09-1.87-25.25-1.47-2.23,2.23-46.17-1.56-2-1.37-42.73-1.53-1.12,1.11-16.16-.55-9.76-.28-4.08-4.3-8-4.39-25.55-1.07v-1.67l-3.35-1.11V547l-13.93-6.69L7554,539.23l-4.46-3.34-41.81-1.12v-4.83l-6.69-.74-18.39-11.71H7477l-16.16,27.32-8.36,2.78-1.67,6.14-2.79,1.11Z"/><path class="b" d="M7479.82,513.73l-1.11,8.78,7.8,6.13,26.76,1.12,16.16-1.12,2.23-7.24-18.19-8.69-20.27.32C7492.64,513,7479.82,513.73,7479.82,513.73Z"/><polygon class="c" points="7512.71 529.76 7493.2 521.95 7479.26 522.51 7486.51 528.64 7512.71 529.76"/><circle class="b" cx="7492.64" cy="507.46" r="4.46"/><circle class="b" cx="7522.19" cy="513.03" r="3.34"/><polyline class="b" points="7488.56 509.26 7488.56 513.23 7495.99 513.23 7495.99 510.41"/><ellipse class="d" cx="7429.1" cy="595.81" rx="61.6" ry="47.94"/><polygon class="e" points="7507.69 534.77 7501 535.33 7479.82 535.05 7466.44 537.75 7531.66 539.88 7549.83 536.13 7507.69 534.77"/><polygon class="e" points="7464.74 545.37 7460.87 544.81 7452.51 547.59 7550.83 551.14 7569.57 546.48 7565.11 546.48 7550.06 549.27 7532.78 548.15 7530.55 548.71 7464.45 546.78 7464.74 545.37"/><polygon class="e" points="7553.96 539.23 7533.89 543.69 7550.65 543.69 7565.17 540.38 7553.96 539.23"/><polyline class="e" points="7582.66 552.07 7574.43 551.71 7554.8 556.71 7584.79 556.98 7607.94 553.12"/><polygon class="e" points="7647.05 561.53 7639.8 564.87 7680.49 565.43 7689.78 563.06 7647.05 561.53"/><polygon class="e" points="7740.14 563.76 7738.47 565.99 7765.39 565.23 7740.14 563.76"/><path class="e" d="M7526.65,554.28l-75.81-.55-2.79,1.11,25.64,1.12,5.57-1.12,43.48.56Z"/><path class="e" d="M7477,560.41l3.91,1.12,6.13-.56a36.08,36.08,0,0,0-3.9-1.11C7482.61,559.86,7477,560.41,7477,560.41Z"/><path class="e" d="M7487.74,560.71l3.91,1.11,6.13-.55a35.83,35.83,0,0,0-3.9-1.12C7493.32,560.15,7487.74,560.71,7487.74,560.71Z"/><path class="e" d="M7498.55,561.12l3.91,1.11,6.13-.55a35.83,35.83,0,0,0-3.9-1.12C7504.13,560.56,7498.55,561.12,7498.55,561.12Z"/><path class="e" d="M7509.26,561.41l3.91,1.12,6.13-.56a35.68,35.68,0,0,0-3.91-1.11C7514.84,560.86,7509.26,561.41,7509.26,561.41Z"/><polygon class="e" points="7447.49 558.74 7410.7 571.56 7410.7 572.12 7402.06 576.07 7519.54 575.15 7524.81 573.29 7533.33 573.24 7535.56 574.91 7618.06 573.79 7622.82 572.03 7679.41 572.18 7679.98 573.36 7822.96 572.12 7822.96 570.36 7825.31 569.77 7822.73 568.96 7767.97 567.12 7764.67 568.22 7737.91 568.22 7737.91 565.99 7691.74 564.43 7690.25 564.43 7681.1 567.41 7639.8 566.55 7639.8 564.87 7644.12 562.58 7629.77 562.09 7604.69 561.53 7586.69 564.13 7551.73 564.87 7548.94 565.99 7545.04 565.99 7537.28 567.13 7523.3 566.55 7522.74 565.99 7516.05 565.99 7512.71 566.34 7509.26 565.52 7503.79 566.34 7500.45 565.43 7492.09 565.43 7486.51 564.32 7480.94 564.87 7477.03 563.76 7476.2 562.53 7471.46 563.76 7462.87 563.06 7462.54 563.76 7447.54 562.53 7447.49 558.74"/><polygon class="e" points="7605.96 600.36 7598.27 594.14 7640.64 592.47 7642.99 593.3 7613.32 596.37 7605.96 600.36"/><polygon class="a" points="7482.05 586.8 7482.05 585.99 7502.24 585.99 7508.53 589.12 7508.53 590.08 7482.05 586.8"/><polygon class="b" points="7502.21 586.5 7508.59 590.08 7487.74 590.52 7482.05 586.8 7502.21 586.5"/><polygon class="a" points="7446.1 605.85 7520.79 604.17 7522.96 603.15 7526.86 598.41 7544.85 596.41 7553.68 598.6 7577.09 599.16 7593.63 594.7 7603.2 600.27 7593.26 595.25 7577.65 599.71 7553.68 599.16 7544.76 596.93 7526.92 598.6 7523.58 603.62 7520.79 604.73 7446.59 606.7 7445.54 606.12 7446.1 605.85"/><path class="a" d="M7529,603.26s-.87-3.13,7-4.06,14.54,1.15,16.26,3.59c0,0-6-4.59-13.43-3.36S7530.83,601.16,7529,603.26Z"/><line class="f" x1="7502.77" y1="516.38" x2="7502.95" y2="516.38"/><line class="f" x1="7504.35" y1="519.53" x2="7504.53" y2="519.53"/><line class="f" x1="7510.6" y1="519.98" x2="7511.16" y2="519.98"/><line class="f" x1="7516.58" y1="525.09" x2="7516.77" y2="525.09"/><line class="f" x1="7520.48" y1="521.19" x2="7520.67" y2="521.19"/><line class="f" x1="7524.94" y1="525.65" x2="7525.13" y2="525.65"/><line class="f" x1="7520.76" y1="520.04" x2="7520.95" y2="520.04"/><line class="f" x1="7522.34" y1="523.2" x2="7522.53" y2="523.2"/><line class="f" x1="7496.82" y1="521.41" x2="7497.38" y2="521.41"/><line class="f" x1="7516.74" y1="523.74" x2="7516.92" y2="523.74"/><line class="f" x1="7506.7" y1="522.62" x2="7506.89" y2="522.62"/><line class="f" x1="7511.16" y1="527.08" x2="7511.35" y2="527.08"/><line class="f" x1="7511.87" y1="520.28" x2="7512.43" y2="520.28"/><line class="f" x1="7512.99" y1="520.84" x2="7513.55" y2="520.84"/><line class="f" x1="7510.84" y1="514.48" x2="7510.65" y2="514.48"/><line class="f" x1="7508.98" y1="516.48" x2="7508.79" y2="516.48"/><line class="f" x1="7514.58" y1="517.03" x2="7514.4" y2="517.03"/><line class="f" x1="7510.98" y1="515.81" x2="7510.79" y2="515.81"/><line class="f" x1="7509.4" y1="518.96" x2="7509.21" y2="518.96"/><line class="f" x1="7527.82" y1="526.75" x2="7527.64" y2="526.75"/><line class="f" x1="7493.26" y1="520.62" x2="7493.08" y2="520.62"/><line class="f" x1="7519.46" y1="527.31" x2="7519.27" y2="527.31"/><line class="f" x1="7492.98" y1="519.48" x2="7492.8" y2="519.48"/><line class="f" x1="7522.06" y1="524.86" x2="7521.88" y2="524.86"/><line class="f" x1="7516.92" y1="520.85" x2="7516.36" y2="520.85"/><line class="f" x1="7527.67" y1="525.4" x2="7527.48" y2="525.4"/><line class="f" x1="7507.04" y1="522.05" x2="7506.86" y2="522.05"/><line class="f" x1="7495.34" y1="514.81" x2="7495.15" y2="514.81"/><line class="f" x1="7502.91" y1="513.91" x2="7503.09" y2="513.91"/><line class="f" x1="7504.77" y1="515.92" x2="7504.95" y2="515.92"/><line class="f" x1="7499.16" y1="516.46" x2="7499.35" y2="516.46"/><polyline class="g" points="7410.7 579.37 7410.7 579.37 7410.7 579.37 7411.26 579.37"/><line class="g" x1="7415.72" y1="577.14" x2="7416.27" y2="577.14"/><polyline class="g" points="7417.67 578.25 7417.67 578.25 7417.67 578.25 7418.23 578.25"/><line class="g" x1="7423.24" y1="579.37" x2="7423.8" y2="579.37"/><polyline class="g" points="7438.87 577.34 7438.87 577.34 7438.87 577.34 7438.32 577.34"/><line class="g" x1="7434.41" y1="577.89" x2="7433.86" y2="577.89"/><polyline class="g" points="7432.46 579.01 7432.46 579.01 7432.46 579.01 7431.91 579.01"/><line class="g" x1="7426.33" y1="577.34" x2="7425.77" y2="577.34"/><polyline class="g" points="7442.23 578.79 7442.23 578.79 7442.23 578.79 7442.79 578.79"/><line class="g" x1="7447.25" y1="577.11" x2="7447.8" y2="577.11"/><polyline class="g" points="7468.39 577.7 7468.39 577.7 7468.39 577.7 7468.95 577.7"/><line class="g" x1="7473.41" y1="577.7" x2="7473.97" y2="577.7"/><polyline class="g" points="7452.79 577.14 7452.79 577.14 7452.79 577.14 7452.23 577.14"/><line class="g" x1="7465.94" y1="577.31" x2="7465.39" y2="577.31"/><polyline class="g" points="7463.99 578.43 7463.99 578.43 7463.99 578.43 7463.44 578.43"/><line class="g" x1="7458.42" y1="577.87" x2="7457.86" y2="577.87"/><polyline class="g" points="7556.23 575.97 7556.23 575.97 7556.23 575.97 7555.68 575.97"/><line class="g" x1="7540.07" y1="577.64" x2="7539.51" y2="577.64"/><polyline class="g" points="7538.12 576.52 7538.12 576.52 7538.12 576.52 7537.56 576.52"/><line class="g" x1="7543.69" y1="575.96" x2="7543.14" y2="575.96"/><polyline class="g" points="7516.91 577.44 7516.91 577.44 7516.91 577.44 7517.47 577.44"/><line class="g" x1="7521.37" y1="576.88" x2="7521.93" y2="576.88"/><polyline class="g" points="7533.91 575.77 7533.91 575.77 7533.91 575.77 7534.47 575.77"/><line class="g" x1="7529.46" y1="577.44" x2="7530.01" y2="577.44"/><polyline class="g" points="7513.55 576.58 7513.55 576.58 7513.55 576.58 7512.99 576.58"/><line class="g" x1="7508.54" y1="578.22" x2="7507.98" y2="578.22"/><polyline class="g" points="7487.95 578.19 7487.95 578.19 7487.95 578.19 7487.39 578.19"/><line class="g" x1="7482.38" y1="577.08" x2="7481.82" y2="577.08"/><polyline class="g" points="7503 578.19 7503 578.19 7503 578.19 7503.56 578.19"/><line class="g" x1="7489.84" y1="577.46" x2="7490.4" y2="577.46"/><polyline class="g" points="7492.36 577.7 7492.36 577.7 7492.36 577.7 7492.92 577.7"/><line class="g" x1="7497.93" y1="578.02" x2="7498.48" y2="578.02"/><polyline class="g" points="7526.72 578.49 7526.72 578.49 7526.72 578.49 7527.27 578.49"/><line class="g" x1="7531.38" y1="579.92" x2="7531.94" y2="579.92"/><line class="g" x1="7528.6" y1="575.47" x2="7528.04" y2="575.47"/><polyline class="g" points="7559.7 577.51 7559.7 577.51 7559.7 577.51 7560.25 577.51"/><line class="g" x1="7564.71" y1="575.28" x2="7565.27" y2="575.28"/><polyline class="g" points="7566.66 576.39 7566.66 576.39 7566.66 576.39 7567.22 576.39"/><line class="g" x1="7572.24" y1="577.51" x2="7572.8" y2="577.51"/><polyline class="g" points="7587.87 575.48 7587.87 575.48 7587.87 575.48 7587.31 575.48"/><line class="g" x1="7583.41" y1="576.03" x2="7582.85" y2="576.03"/><polyline class="g" points="7581.46 577.15 7581.46 577.15 7581.46 577.15 7580.9 577.15"/><line class="g" x1="7575.33" y1="575.48" x2="7574.77" y2="575.48"/><polyline class="g" points="7591.23 576.93 7591.23 576.93 7591.23 576.93 7591.78 576.93"/><line class="g" x1="7596.24" y1="575.26" x2="7596.8" y2="575.26"/><polyline class="g" points="7617.39 575.84 7617.39 575.84 7617.39 575.84 7617.95 575.84"/><line class="g" x1="7622.41" y1="575.84" x2="7622.96" y2="575.84"/><polyline class="g" points="7601.78 575.28 7601.78 575.28 7601.78 575.28 7601.22 575.28"/><line class="g" x1="7614.94" y1="575.45" x2="7614.38" y2="575.45"/><polyline class="g" points="7612.99 576.57 7612.99 576.57 7612.99 576.57 7612.43 576.57"/><line class="g" x1="7607.41" y1="576.01" x2="7606.86" y2="576.01"/><polyline class="g" points="7654.51 578.57 7654.51 578.57 7654.51 578.57 7653.95 578.57"/><line class="g" x1="7677.99" y1="575.47" x2="7677.43" y2="575.47"/><polyline class="g" points="7636.39 579.12 7636.39 579.12 7636.39 579.12 7635.83 579.12"/><line class="g" x1="7641.96" y1="578.57" x2="7641.41" y2="578.57"/><polyline class="g" points="7659.22 574.47 7659.22 574.47 7659.22 574.47 7659.78 574.47"/><line class="g" x1="7663.68" y1="573.91" x2="7664.24" y2="573.91"/><polyline class="g" points="7632.18 578.37 7632.18 578.37 7632.18 578.37 7632.74 578.37"/><line class="g" x1="7671.76" y1="574.47" x2="7672.32" y2="574.47"/><polyline class="g" points="7655.85 573.61 7655.85 573.61 7655.85 573.61 7655.29 573.61"/><line class="g" x1="7650.85" y1="575.24" x2="7650.29" y2="575.24"/><polyline class="g" points="7630.26 575.22 7630.26 575.22 7630.26 575.22 7629.7 575.22"/><line class="g" x1="7624.68" y1="574.11" x2="7624.12" y2="574.11"/><polyline class="g" points="7645.31 575.22 7645.31 575.22 7645.31 575.22 7645.86 575.22"/><line class="g" x1="7632.15" y1="574.49" x2="7632.71" y2="574.49"/><polyline class="g" points="7634.67 574.72 7634.67 574.72 7634.67 574.72 7635.23 574.72"/><line class="g" x1="7640.23" y1="575.05" x2="7640.79" y2="575.05"/><polyline class="g" points="7669.02 575.51 7669.02 575.51 7669.02 575.51 7669.58 575.51"/><line class="g" x1="7673.69" y1="576.95" x2="7674.25" y2="576.95"/><line class="g" x1="7626.87" y1="578.07" x2="7626.31" y2="578.07"/><polyline class="g" points="7669.61 576.81 7669.61 576.81 7669.61 576.81 7670.17 576.81"/><polyline class="g" points="7666.24 575.95 7666.24 575.95 7666.24 575.95 7665.69 575.95"/><line class="g" x1="7661.24" y1="577.58" x2="7660.68" y2="577.58"/><polyline class="g" points="7655.7 577.56 7655.7 577.56 7655.7 577.56 7656.26 577.56"/><polyline class="g" points="7693.38 575.56 7693.38 575.56 7693.38 575.56 7693.94 575.56"/><line class="g" x1="7698.4" y1="575.56" x2="7698.95" y2="575.56"/><line class="g" x1="7690.93" y1="575.18" x2="7690.37" y2="575.18"/><polyline class="g" points="7682.45 574.35 7682.45 574.35 7682.45 574.35 7681.89 574.35"/><line class="g" x1="7683.4" y1="575.74" x2="7682.85" y2="575.74"/><polyline class="g" points="7738.53 574.45 7738.53 574.45 7738.53 574.45 7737.97 574.45"/><line class="g" x1="7733.53" y1="576.09" x2="7732.97" y2="576.09"/><polyline class="g" points="7712.94 576.06 7712.94 576.06 7712.94 576.06 7712.38 576.06"/><line class="g" x1="7707.36" y1="574.95" x2="7706.8" y2="574.95"/><polyline class="g" points="7727.99 576.06 7727.99 576.06 7727.99 576.06 7728.54 576.06"/><line class="g" x1="7714.83" y1="575.33" x2="7715.39" y2="575.33"/><polyline class="g" points="7717.35 575.56 7717.35 575.56 7717.35 575.56 7717.91 575.56"/><line class="g" x1="7722.91" y1="575.89" x2="7723.47" y2="575.89"/><line class="g" x1="7682.45" y1="577.14" x2="7681.89" y2="577.14"/><polyline class="g" points="7688.99 576.44 7688.99 576.44 7688.99 576.44 7688.44 576.44"/><line class="g" x1="7749.13" y1="576.22" x2="7749.69" y2="576.22"/><polyline class="g" points="7764.77 574.19 7764.77 574.19 7764.77 574.19 7764.21 574.19"/><line class="g" x1="7760.31" y1="574.75" x2="7759.75" y2="574.75"/><polyline class="g" points="7758.35 575.86 7758.35 575.86 7758.35 575.86 7757.8 575.86"/><line class="g" x1="7752.22" y1="574.19" x2="7751.67" y2="574.19"/><polyline class="g" points="7768.12 575.64 7768.12 575.64 7768.12 575.64 7768.68 575.64"/><line class="g" x1="7773.14" y1="573.97" x2="7773.69" y2="573.97"/><line class="g" x1="7786.67" y1="573.6" x2="7787.22" y2="573.6"/><polyline class="g" points="7802.3 575.63 7802.3 575.63 7802.3 575.63 7801.74 575.63"/><line class="g" x1="7797.84" y1="575.07" x2="7797.28" y2="575.07"/><polyline class="g" points="7795.89 573.96 7795.89 573.96 7795.89 573.96 7795.33 573.96"/><line class="g" x1="7789.76" y1="575.63" x2="7789.2" y2="575.63"/><polyline class="g" points="7805.65 574.18 7805.65 574.18 7805.65 574.18 7806.21 574.18"/><line class="g" x1="7810.67" y1="575.85" x2="7811.23" y2="575.85"/><line class="g" x1="7816.92" y1="573.05" x2="7816.37" y2="573.05"/><polyline class="g" points="7814.97 574.16 7814.97 574.16 7814.97 574.16 7814.42 574.16"/><polyline class="g" points="7826.78 573.55 7826.78 573.55 7826.78 573.55 7826.22 573.48"/><line class="g" x1="7825.21" y1="574.1" x2="7824.66" y2="574.02"/><polyline class="g" points="7823.98 572.74 7823.98 572.74 7823.98 572.74 7823.42 572.67"/><polyline class="g" points="7824.82 576.21 7824.82 576.21 7824.82 576.21 7824.27 576.14"/><polyline class="g" points="7503.69 545.92 7503.69 545.92 7503.69 545.92 7503.14 545.89"/><line class="g" x1="7527.3" y1="543.96" x2="7526.74" y2="543.93"/><polyline class="g" points="7523.48 553.4 7523.48 553.4 7523.48 553.4 7522.92 553.38"/><line class="g" x1="7529.07" y1="553.11" x2="7528.51" y2="553.09"/><polyline class="g" points="7508.6 542.05 7508.6 542.05 7508.6 542.05 7509.16 542.08"/><line class="g" x1="7513.08" y1="541.71" x2="7513.64" y2="541.74"/><polyline class="g" points="7519.31 552.44 7519.31 552.44 7519.31 552.44 7519.87 552.47"/><line class="g" x1="7521.13" y1="542.66" x2="7521.68" y2="542.69"/><polyline class="g" points="7505.28 541.03 7505.28 541.03 7505.28 541.03 7504.72 541"/><line class="g" x1="7502.99" y1="534.06" x2="7502.43" y2="534.03"/><polyline class="g" points="7479.63 541.4 7479.63 541.4 7479.63 541.4 7479.08 541.38"/><line class="g" x1="7474.12" y1="540.02" x2="7473.56" y2="539.99"/><polyline class="g" points="7494.67 542.13 7494.67 542.13 7494.67 542.13 7495.22 542.16"/><line class="g" x1="7505.53" y1="531.85" x2="7506.09" y2="531.87"/><polyline class="g" points="7484.07 541.12 7484.07 541.12 7484.07 541.12 7484.62 541.14"/><line class="g" x1="7469.54" y1="552.86" x2="7470.1" y2="552.89"/><polyline class="g" points="7518.34 543.57 7518.34 543.57 7518.34 543.57 7518.9 543.6"/><line class="g" x1="7522.93" y1="545.23" x2="7523.49" y2="545.26"/><line class="g" x1="7476.11" y1="544.08" x2="7475.55" y2="544.05"/><polyline class="g" points="7518.87 544.89 7518.87 544.89 7518.87 544.89 7519.42 544.92"/><polyline class="g" points="7514.43 546.1 7514.43 546.1 7514.43 546.1 7513.87 546.07"/><line class="g" x1="7510.47" y1="545.26" x2="7509.91" y2="545.24"/><polyline class="g" points="7497.69 544.41 7497.69 544.41 7497.69 544.41 7498.24 544.44"/><polyline class="g" points="7455.63 550 7455.63 550 7455.63 550 7455.08 549.98"/><polyline class="g" points="7458.93 551.59 7458.93 551.59 7458.93 551.59 7459.48 551.62"/><line class="g" x1="7464.01" y1="550.13" x2="7464.57" y2="550.16"/><polyline class="g" points="7485.11 551.61 7485.11 551.61 7485.11 551.61 7485.67 551.63"/><line class="g" x1="7490.13" y1="551.82" x2="7490.68" y2="551.84"/><polyline class="g" points="7469.54 550.39 7469.54 550.39 7469.54 550.39 7468.99 550.37"/><line class="g" x1="7482.68" y1="551.12" x2="7482.12" y2="551.1"/><polyline class="g" points="7480.68 552.15 7480.68 552.15 7480.68 552.15 7480.13 552.13"/><line class="g" x1="7478.48" y1="550.24" x2="7477.93" y2="550.22"/><polyline class="g" points="7504.63 552.93 7504.63 552.93 7504.63 552.93 7504.07 552.91"/><line class="g" x1="7499.11" y1="551.58" x2="7498.55" y2="551.56"/><line class="g" x1="7502.65" y1="551.73" x2="7503.21" y2="551.75"/><polyline class="g" points="7509.06 552.62 7509.06 552.62 7509.06 552.62 7509.62 552.65"/><polyline class="g" points="7540.3 558.18 7540.3 558.18 7540.3 558.18 7540.86 558.18"/><polyline class="g" points="7530.8 558.71 7530.8 558.71 7530.8 558.71 7530.24 558.71"/><line class="g" x1="7525.79" y1="557.04" x2="7525.23" y2="557.04"/><polyline class="g" points="7504.64 557.62 7504.64 557.62 7504.64 557.62 7504.08 557.62"/><line class="g" x1="7499.62" y1="557.62" x2="7499.06" y2="557.62"/><polyline class="g" points="7520.25 557.06 7520.25 557.06 7520.25 557.06 7520.8 557.06"/><line class="g" x1="7514.61" y1="557.8" x2="7515.17" y2="557.8"/><polyline class="g" points="7485.08 558.12 7485.08 558.12 7485.08 558.12 7485.64 558.12"/><line class="g" x1="7490.66" y1="557.01" x2="7491.21" y2="557.01"/><line class="g" x1="7481.21" y1="557.07" x2="7480.66" y2="557.07"/><polyline class="g" points="7480.67 557.62 7480.67 557.62 7480.67 557.62 7480.11 557.62"/><polyline class="g" points="7460.01 557.05 7460.01 557.05 7460.01 557.05 7460.57 557.05"/><line class="g" x1="7457.25" y1="558.74" x2="7457.8" y2="558.74"/><polyline class="g" points="7452.81 559.76 7452.81 559.76 7452.81 559.76 7453.37 559.76"/><line class="g" x1="7457.48" y1="561.2" x2="7458.04" y2="561.2"/><line class="g" x1="7454.69" y1="556.75" x2="7454.13" y2="556.75"/><polyline class="g" points="7470.6 557.05 7470.6 557.05 7470.6 557.05 7471.16 557.05"/><polyline class="g" points="7463.4 559.76 7463.4 559.76 7463.4 559.76 7463.96 559.76"/><line class="g" x1="7468.07" y1="561.2" x2="7468.63" y2="561.2"/><line class="g" x1="7465.28" y1="556.75" x2="7464.72" y2="556.75"/><line class="g" x1="7548.35" y1="564.79" x2="7547.79" y2="564.76"/><polyline class="g" points="7529.65 562.88 7529.65 562.88 7529.65 562.88 7530.21 562.91"/><line class="g" x1="7534.13" y1="562.54" x2="7534.69" y2="562.57"/><line class="g" x1="7542.18" y1="563.49" x2="7542.74" y2="563.52"/><polyline class="g" points="7538.84 561.62 7538.84 561.62 7538.84 561.62 7539.39 561.64"/><line class="g" x1="7550.58" y1="548.07" x2="7550.02" y2="548.04"/><polyline class="g" points="7531.88 546.16 7531.88 546.16 7531.88 546.16 7532.44 546.19"/><line class="g" x1="7536.36" y1="545.82" x2="7536.92" y2="545.85"/><line class="g" x1="7544.41" y1="546.77" x2="7544.97" y2="546.8"/><polyline class="g" points="7544.41 548.24 7544.41 548.24 7544.41 548.24 7544.97 548.26"/><polyline class="g" points="7587.41 562.71 7587.41 562.71 7587.41 562.71 7586.85 562.78"/><line class="g" x1="7610.3" y1="556.65" x2="7609.75" y2="556.72"/><polyline class="g" points="7591.56 558.04 7591.56 558.04 7591.56 558.04 7592.11 557.97"/><line class="g" x1="7595.91" y1="556.92" x2="7596.47" y2="556.85"/><line class="g" x1="7604" y1="556.45" x2="7604.55" y2="556.37"/><polyline class="g" points="7588.11 557.62 7588.11 557.62 7588.11 557.62 7587.56 557.69"/><polyline class="g" points="7601.42 557.83 7601.42 557.83 7601.42 557.83 7601.97 557.76"/><line class="g" x1="7606.23" y1="558.67" x2="7606.78" y2="558.59"/><polyline class="g" points="7602.17 559.04 7602.17 559.04 7602.17 559.04 7602.72 558.97"/><polyline class="g" points="7598.72 558.62 7598.72 558.62 7598.72 558.62 7598.17 558.69"/><line class="g" x1="7593.96" y1="560.88" x2="7593.41" y2="560.95"/><polyline class="g" points="7588.47 561.56 7588.47 561.56 7588.47 561.56 7589.02 561.49"/><polyline class="g" points="7563.64 542.92 7563.64 542.92 7563.64 542.92 7563.09 543.03"/><line class="g" x1="7563.74" y1="545.24" x2="7563.19" y2="545.36"/><polyline class="g" points="7555.18 551.9 7555.18 551.9 7555.18 551.9 7555.73 551.79"/><line class="g" x1="7557.21" y1="544.33" x2="7557.76" y2="544.22"/><line class="g" x1="7567.47" y1="549.41" x2="7568.02" y2="549.29"/><polyline class="g" points="7555.05 546.71 7555.05 546.71 7555.05 546.71 7554.51 546.82"/><polyline class="g" points="7564.99 550.97 7564.99 550.97 7564.99 550.97 7565.54 550.86"/><line class="g" x1="7569.86" y1="551.46" x2="7570.4" y2="551.35"/><polyline class="g" points="7560.26 554.36 7560.26 554.36 7560.26 554.36 7560.8 554.25"/><polyline class="g" points="7562.36 551.95 7562.36 551.95 7562.36 551.95 7561.81 552.06"/><line class="g" x1="7557.78" y1="554.55" x2="7557.23" y2="554.66"/><polyline class="g" points="7560.15 546.15 7560.15 546.15 7560.15 546.15 7560.7 546.04"/><line class="g" x1="7575.95" y1="546.75" x2="7575.42" y2="546.6"/><line class="g" x1="7570.21" y1="544.14" x2="7570.75" y2="544.29"/><polyline class="g" points="7567.29 544.43 7567.29 544.43 7567.29 544.43 7567.83 544.58"/><line class="g" x1="7575.88" y1="549.84" x2="7576.41" y2="549.98"/><polyline class="g" points="7572.54 548.62 7572.54 548.62 7572.54 548.62 7573.08 548.77"/><polyline class="g" points="7579.95 551.01 7579.95 551.01 7579.95 551.01 7580.49 551.16"/><line class="g" x1="7570.14" y1="558.9" x2="7569.59" y2="558.87"/><line class="g" x1="7563.97" y1="562.61" x2="7564.53" y2="562.64"/><polyline class="g" points="7612.47 559.07 7612.47 559.07 7612.47 559.07 7613.02 559.09"/><line class="g" x1="7617.06" y1="560.73" x2="7617.62" y2="560.76"/><polyline class="g" points="7613 560.39 7613 560.39 7613 560.39 7613.55 560.41"/><polyline class="g" points="7574.73 561.1 7574.73 561.1 7574.73 561.1 7575.29 561.13"/><polyline class="g" points="7549.13 555.15 7549.13 555.15 7549.13 555.15 7549.69 555.15"/><polyline class="g" points="7547.55 560.41 7547.55 560.41 7547.55 560.41 7546.99 560.41"/><line class="g" x1="7540.76" y1="554.93" x2="7540.2" y2="554.93"/><line class="g" x1="7555.97" y1="561.77" x2="7556.53" y2="561.77"/><line class="g" x1="7555.11" y1="559.8" x2="7554.55" y2="559.8"/><polyline class="g" points="7621.13 593.86 7621.13 593.86 7621.13 593.86 7620.57 593.86"/><polyline class="g" points="7608.86 597.21 7608.86 597.21 7608.86 597.21 7609.42 597.21"/><polyline class="g" points="7603.85 595.11 7603.85 595.11 7603.85 595.11 7603.29 595.11"/><line class="g" x1="7606.08" y1="597.2" x2="7606.64" y2="597.2"/><polyline class="g" points="7609.98 594.98 7609.98 594.98 7609.98 594.98 7610.54 594.98"/><line class="h" x1="7484.56" y1="586.34" x2="7485.12" y2="586.34"/><polyline class="g" points="7506.86 588.8 7506.86 588.8 7506.86 588.8 7507.41 588.89"/><line class="h" x1="7468.95" y1="605.85" x2="7469.51" y2="605.85"/><line class="h" x1="7492.25" y1="604.99" x2="7492.81" y2="604.99"/><line class="h" x1="7517.45" y1="604.73" x2="7518" y2="604.73"/><line class="h" x1="7548.16" y1="597.32" x2="7548.61" y2="597.64"/><line class="h" x1="7566.5" y1="599.16" x2="7567.06" y2="599.16"/><line class="h" x1="7599.17" y1="598.14" x2="7599.7" y2="598.29"/><line class="g" x1="7757.56" y1="566.61" x2="7757" y2="566.59"/><line class="g" x1="7761.43" y1="566.43" x2="7761.98" y2="566.46"/><polyline class="g" points="7743.03 566.78 7743.03 566.78 7743.03 566.78 7743.59 566.81"/><line class="g" x1="7750.41" y1="567.89" x2="7750.97" y2="567.92"/><polyline class="g" points="7668.86 566.43 7668.86 566.43 7668.86 566.43 7669.42 566.46"/><polyline class="g" points="7764.96 566.73 7764.96 566.73 7764.96 566.73 7765.46 566.48"/><line class="g" x1="7653.32" y1="566.03" x2="7652.77" y2="566.01"/><line class="g" x1="7664.99" y1="565.85" x2="7665.55" y2="565.88"/><polyline class="g" points="7644.36 565.65 7644.36 565.65 7644.36 565.65 7644.92 565.67"/><line class="g" x1="7688.6" y1="564.71" x2="7689.03" y2="564.36"/><polyline class="g" points="7647.12 565.85 7647.12 565.85 7647.12 565.85 7647.68 565.88"/><polyline class="g" points="7682.49 565.63 7682.49 565.63 7682.49 565.63 7682.94 565.3"/><line class="g" x1="7548.85" y1="563.2" x2="7549.41" y2="563.23"/><polyline class="g" points="7537.62 558.13 7537.62 558.13 7537.62 558.13 7537.06 558.13"/><polyline class="g" points="7547.12 557.61 7547.12 557.61 7547.12 557.61 7547.68 557.61"/><line class="g" x1="7534.03" y1="566.02" x2="7534.59" y2="566.05"/><polyline class="g" points="7548.27 553.43 7548.27 553.43 7548.27 553.43 7547.71 553.41"/><line class="g" x1="7543.79" y1="553.78" x2="7543.23" y2="553.75"/><line class="g" x1="7535.74" y1="552.83" x2="7535.19" y2="552.8"/><polyline class="g" points="7539.09 554.7 7539.09 554.7 7539.09 554.7 7538.53 554.68"/><polyline class="g" points="7528.79 561.16 7528.79 561.16 7528.79 561.16 7528.23 561.16"/><polyline class="g" points="7530.37 555.9 7530.37 555.9 7530.37 555.9 7530.93 555.9"/><line class="g" x1="7501.84" y1="530.87" x2="7502.4" y2="530.87"/><polyline class="g" points="7498.27 546.64 7498.27 546.64 7498.27 546.64 7498.82 546.66"/><line class="g" x1="7485.16" y1="545.27" x2="7485.72" y2="545.3"/><polyline class="g" points="7487.67 545.63 7487.67 545.63 7487.67 545.63 7488.22 545.65"/><line class="g" x1="7493.21" y1="546.22" x2="7493.76" y2="546.25"/></svg>