<svg xmlns="http://www.w3.org/2000/svg" xmlns:xlink="http://www.w3.org/1999/xlink" width="15361" height="1440" viewBox="0 0 15361 1440"><defs><style>.a{fill:#014b9b;}.b{fill:#155dc0;}.c{fill:#01579b;}.d{opacity:0.21;fill:url(#a);}.e{fill:#03a9f4;}.f,.g,.h{fill:none;stroke:#fff;stroke-miterlimit:10;}.f,.g{stroke-width:0.75px;}.f{opacity:0.64;}.g,.h{opacity:0.46;}.h{stroke-width:0.25px;}</style><radialGradient id="a" cx="6942.26" cy="481.58" r="86" gradientTransform="translate(-2093.33) scale(1.28 1)" gradientUnits="userSpaceOnUse"><stop offset="0" stop-color="#a3dcf9" stop-opacity="0.2"/><stop offset="1" stop-color="#fff" stop-opacity="0"/></radialGradient></defs><polygon class="a" points="6781.34 446.13 6781.34 453.55 6845.36 477.92 7274.83 464.89 7540.43 449.35 7540.43 437.47 6973.72 431.57 6781.34 446.13"/><polyline class="b" points="6997.52 337.68 6997.52 341.81 6988.5 341.81 6988.5 335.08"/><polygon class="b" points="6944.17 335.08 6948.67 329.87 6958.67 327.08 6950.25 326.32 6950.67 322.08 6983.67 327.08 6983.67 331.08 6974.58 329.87 6982.28 332.21 6983.44 335.08 6944.17 335.08"/><path class="b" d="M6778.17,453.58l14.5,9.73-1.5,1.58,62.5,35.19h2.5l3.66,2,.84,2,15,8,23-3,5,2,103.5-9s3.5,4,20.5,4,22-8,22-8l94.29-8.33,13.71-7.67,52.72-5,11.78,5.75,4.64-.75v-2.5l13.86-1.5,2,2,300.5-29.81v-2.69l-9.5-.5-256.39,1.75-.61,4.25-103.28,1.39-6.72-4.39-149,1-3,4h-18l-7-4Z"/><path class="b" d="M6859.67,415.08c-1,0-66,23-66,23v1l-15.5,7.09,211.5-2.09,9-3h15l4,3,148-2,8.53-3.16,101.47.16,1.08,2.23,256.92-2.23,9,1V436.5l-9.84-3.09-99.11-3.33-3.75-3.36-45.3-2.64-4,4-82.84-2.79-3.5-2.45-76.66-2.76-2,2-29-1-17.5-.5-7.34-7.7L7147.5,405l-45.83-1.92v-3l-6-2v-4l-25-12-20-2-8-6-75-2v-8.67l-12-1.33-33-21h-10l-29,49-15,5-3,11-5,2Z"/><path class="b" d="M6917.67,334.33l-2,15.75,14,11,48,2,29-2,4-13L6978,332.5s-35.36.58-36.36.58S6917.67,334.33,6917.67,334.33Z"/><polygon class="c" points="6976.67 363.08 6941.67 349.08 6916.67 350.08 6929.67 361.08 6976.67 363.08"/><circle class="b" cx="6940.67" cy="323.08" r="8"/><circle class="b" cx="6993.67" cy="333.08" r="6"/><polyline class="b" points="6933.35 326.32 6933.35 333.43 6946.67 333.43 6946.67 328.37"/><ellipse class="d" cx="6826.67" cy="481.58" rx="110.5" ry="86"/><polygon class="e" points="6967.67 372.08 6955.67 373.08 6917.67 372.58 6893.67 377.43 7010.67 381.25 7043.25 374.52 6967.67 372.08"/><polygon class="e" points="6890.61 391.1 6883.67 390.08 6868.67 395.08 7045.06 401.45 7078.67 393.08 7070.67 393.08 7043.67 398.08 7012.67 396.08 7008.67 397.08 6890.08 393.63 6890.61 391.1"/><polygon class="e" points="7050.67 380.08 7014.67 388.08 7044.72 388.08 7070.78 382.14 7050.67 380.08"/><polyline class="e" points="7102.15 403.1 7087.39 402.47 7052.17 411.44 7105.97 411.92 7147.5 405"/><polygon class="e" points="7217.67 420.08 7204.67 426.08 7277.67 427.08 7294.33 422.83 7217.67 420.08"/><polygon class="e" points="7384.67 424.08 7381.67 428.08 7429.97 426.72 7384.67 424.08"/><path class="e" d="M7001.67,407.08l-136-1-5,2,46,2,10-2,78,1Z"/><path class="e" d="M6912.67,418.08l7,2,11-1s-6-2-7-2S6912.67,418.08,6912.67,418.08Z"/><path class="e" d="M6931.88,418.61l7,2,11-1s-6-2-7-2S6931.88,418.61,6931.88,418.61Z"/><path class="e" d="M6951.27,419.35l7,2,11-1s-6-2-7-2S6951.27,419.35,6951.27,419.35Z"/><path class="e" d="M6970.48,419.88l7,2,11-1s-6-2-7-2S6970.48,419.88,6970.48,419.88Z"/><polygon class="e" points="6859.67 415.08 6793.67 438.08 6793.67 439.08 6778.17 446.17 6988.92 444.51 6998.37 441.18 7013.67 441.08 7017.67 444.08 7165.67 442.08 7174.2 438.92 7275.72 439.19 7276.75 441.31 7533.25 439.09 7533.25 435.92 7537.46 434.86 7532.83 433.4 7434.59 430.11 7428.67 432.08 7380.67 432.08 7380.67 428.08 7297.83 425.29 7295.17 425.29 7278.75 430.63 7204.67 429.08 7204.67 426.08 7212.41 421.97 7186.67 421.08 7141.67 420.08 7109.38 424.75 7046.67 426.08 7041.67 428.08 7034.67 428.08 7020.75 430.14 6995.67 429.08 6994.67 428.08 6982.67 428.08 6976.67 428.71 6970.48 427.25 6960.67 428.71 6954.67 427.08 6939.67 427.08 6929.67 425.08 6919.67 426.08 6912.67 424.08 6911.17 421.88 6902.67 424.08 6887.25 422.83 6886.67 424.08 6859.75 421.88 6859.67 415.08"/><polygon class="e" points="7143.96 489.75 7130.17 478.58 7206.17 475.58 7210.39 477.08 7157.17 482.58 7143.96 489.75"/><polygon class="a" points="6921.67 465.42 6921.67 463.97 6957.89 463.97 6969.17 469.58 6969.17 471.29 6921.67 465.42"/><polygon class="b" points="6957.83 464.89 6969.27 471.29 6931.88 472.08 6921.67 465.42 6957.83 464.89"/><polygon class="a" points="6857.17 499.58 6991.17 496.58 6995.06 494.75 7002.06 486.25 7034.33 482.67 7050.17 486.58 7092.17 487.58 7121.83 479.58 7139 489.58 7121.17 480.58 7093.17 488.58 7050.17 487.58 7034.17 483.58 7002.17 486.58 6996.17 495.58 6991.17 497.58 6858.05 501.11 6856.17 500.08 6857.17 499.58"/><path class="a" d="M7005.86,494.94s-1.56-5.62,12.61-7.27,26.09,2.06,29.17,6.43c0,0-10.8-8.23-24.1-6S7009.17,491.19,7005.86,494.94Z"/><line class="f" x1="6958.83" y1="339.08" x2="6959.17" y2="339.08"/><line class="f" x1="6961.67" y1="344.74" x2="6962" y2="344.74"/><line class="f" x1="6972.89" y1="345.54" x2="6973.89" y2="345.54"/><line class="f" x1="6983.61" y1="354.71" x2="6983.94" y2="354.71"/><line class="f" x1="6990.61" y1="347.71" x2="6990.94" y2="347.71"/><line class="f" x1="6998.61" y1="355.71" x2="6998.94" y2="355.71"/><line class="f" x1="6991.11" y1="345.66" x2="6991.44" y2="345.66"/><line class="f" x1="6993.94" y1="351.31" x2="6994.28" y2="351.31"/><line class="f" x1="6948.17" y1="348.12" x2="6949.17" y2="348.12"/><line class="f" x1="6983.89" y1="352.28" x2="6984.22" y2="352.28"/><line class="f" x1="6965.89" y1="350.28" x2="6966.22" y2="350.28"/><line class="f" x1="6973.89" y1="358.28" x2="6974.22" y2="358.28"/><line class="f" x1="6975.17" y1="346.08" x2="6976.17" y2="346.08"/><line class="f" x1="6977.17" y1="347.08" x2="6978.17" y2="347.08"/><line class="f" x1="6973.31" y1="335.67" x2="6972.97" y2="335.67"/><line class="f" x1="6969.97" y1="339.27" x2="6969.64" y2="339.27"/><line class="f" x1="6980.03" y1="340.25" x2="6979.69" y2="340.25"/><line class="f" x1="6973.56" y1="338.06" x2="6973.22" y2="338.06"/><line class="f" x1="6970.72" y1="343.72" x2="6970.39" y2="343.72"/><line class="f" x1="7003.78" y1="357.69" x2="7003.44" y2="357.69"/><line class="f" x1="6941.78" y1="346.69" x2="6941.44" y2="346.69"/><line class="f" x1="6988.78" y1="358.69" x2="6988.44" y2="358.69"/><line class="f" x1="6941.28" y1="344.64" x2="6940.94" y2="344.64"/><line class="f" x1="6993.44" y1="354.29" x2="6993.11" y2="354.29"/><line class="f" x1="6984.22" y1="347.1" x2="6983.22" y2="347.1"/><line class="f" x1="7003.5" y1="355.27" x2="7003.17" y2="355.27"/><line class="f" x1="6966.5" y1="349.27" x2="6966.17" y2="349.27"/><line class="f" x1="6945.5" y1="336.27" x2="6945.17" y2="336.27"/><line class="f" x1="6959.08" y1="334.65" x2="6959.42" y2="334.65"/><line class="f" x1="6962.42" y1="338.26" x2="6962.75" y2="338.26"/><line class="f" x1="6952.36" y1="339.23" x2="6952.69" y2="339.23"/><polyline class="g" points="6793.67 452.08 6793.67 452.08 6793.67 452.08 6794.67 452.08"/><line class="g" x1="6802.67" y1="448.08" x2="6803.67" y2="448.08"/><polyline class="g" points="6806.17 450.08 6806.17 450.08 6806.17 450.08 6807.17 450.08"/><line class="g" x1="6816.17" y1="452.08" x2="6817.17" y2="452.08"/><polyline class="g" points="6844.21 448.44 6844.21 448.44 6844.21 448.44 6843.21 448.44"/><line class="g" x1="6836.21" y1="449.44" x2="6835.21" y2="449.44"/><polyline class="g" points="6832.71 451.44 6832.71 451.44 6832.71 451.44 6831.71 451.44"/><line class="g" x1="6821.71" y1="448.44" x2="6820.71" y2="448.44"/><polyline class="g" points="6850.23 451.04 6850.23 451.04 6850.23 451.04 6851.23 451.04"/><line class="g" x1="6859.23" y1="448.04" x2="6860.23" y2="448.04"/><polyline class="g" points="6897.17 449.08 6897.17 449.08 6897.17 449.08 6898.17 449.08"/><line class="g" x1="6906.17" y1="449.08" x2="6907.17" y2="449.08"/><polyline class="g" points="6869.17 448.08 6869.17 448.08 6869.17 448.08 6868.17 448.08"/><line class="g" x1="6892.77" y1="448.4" x2="6891.77" y2="448.4"/><polyline class="g" points="6889.27 450.4 6889.27 450.4 6889.27 450.4 6888.27 450.4"/><line class="g" x1="6879.27" y1="449.4" x2="6878.27" y2="449.4"/><polyline class="g" points="7054.75 445.98 7054.75 445.98 7054.75 445.98 7053.75 445.98"/><line class="g" x1="7025.75" y1="448.98" x2="7024.75" y2="448.98"/><polyline class="g" points="7022.25 446.98 7022.25 446.98 7022.25 446.98 7021.25 446.98"/><line class="g" x1="7032.25" y1="445.98" x2="7031.25" y2="445.98"/><polyline class="g" points="6984.21 448.63 6984.21 448.63 6984.21 448.63 6985.21 448.63"/><line class="g" x1="6992.21" y1="447.62" x2="6993.21" y2="447.62"/><polyline class="g" points="7014.71 445.63 7014.71 445.63 7014.71 445.63 7015.71 445.63"/><line class="g" x1="7006.71" y1="448.63" x2="7007.71" y2="448.63"/><polyline class="g" points="6978.17 447.08 6978.17 447.08 6978.17 447.08 6977.17 447.08"/><line class="g" x1="6969.19" y1="450.02" x2="6968.19" y2="450.02"/><polyline class="g" points="6932.25 449.98 6932.25 449.98 6932.25 449.98 6931.25 449.98"/><line class="g" x1="6922.25" y1="447.98" x2="6921.25" y2="447.98"/><polyline class="g" points="6959.25 449.98 6959.25 449.98 6959.25 449.98 6960.25 449.98"/><line class="g" x1="6935.65" y1="448.67" x2="6936.65" y2="448.67"/><polyline class="g" points="6940.17 449.08 6940.17 449.08 6940.17 449.08 6941.17 449.08"/><line class="g" x1="6950.15" y1="449.67" x2="6951.15" y2="449.67"/><polyline class="g" points="7001.79 450.5 7001.79 450.5 7001.79 450.5 7002.79 450.5"/><line class="g" x1="7010.17" y1="453.08" x2="7011.17" y2="453.08"/><line class="g" x1="7005.17" y1="445.08" x2="7004.17" y2="445.08"/><polyline class="g" points="7060.96 448.75 7060.96 448.75 7060.96 448.75 7061.96 448.75"/><line class="g" x1="7069.96" y1="444.75" x2="7070.96" y2="444.75"/><polyline class="g" points="7073.46 446.75 7073.46 446.75 7073.46 446.75 7074.46 446.75"/><line class="g" x1="7083.46" y1="448.75" x2="7084.46" y2="448.75"/><polyline class="g" points="7111.5 445.1 7111.5 445.1 7111.5 445.1 7110.5 445.1"/><line class="g" x1="7103.5" y1="446.1" x2="7102.5" y2="446.1"/><polyline class="g" points="7100 448.1 7100 448.1 7100 448.1 7099 448.1"/><line class="g" x1="7089" y1="445.1" x2="7088" y2="445.1"/><polyline class="g" points="7117.52 447.71 7117.52 447.71 7117.52 447.71 7118.52 447.71"/><line class="g" x1="7126.52" y1="444.71" x2="7127.52" y2="444.71"/><polyline class="g" points="7164.46 445.75 7164.46 445.75 7164.46 445.75 7165.46 445.75"/><line class="g" x1="7173.46" y1="445.75" x2="7174.46" y2="445.75"/><polyline class="g" points="7136.46 444.75 7136.46 444.75 7136.46 444.75 7135.46 444.75"/><line class="g" x1="7160.06" y1="445.06" x2="7159.06" y2="445.06"/><polyline class="g" points="7156.56 447.06 7156.56 447.06 7156.56 447.06 7155.56 447.06"/><line class="g" x1="7146.56" y1="446.06" x2="7145.56" y2="446.06"/><polyline class="g" points="7231.04 450.65 7231.04 450.65 7231.04 450.65 7230.04 450.65"/><line class="g" x1="7273.17" y1="445.08" x2="7272.17" y2="445.08"/><polyline class="g" points="7198.54 451.65 7198.54 451.65 7198.54 451.65 7197.54 451.65"/><line class="g" x1="7208.54" y1="450.65" x2="7207.54" y2="450.65"/><polyline class="g" points="7239.5 443.29 7239.5 443.29 7239.5 443.29 7240.5 443.29"/><line class="g" x1="7247.5" y1="442.29" x2="7248.5" y2="442.29"/><polyline class="g" points="7191 450.29 7191 450.29 7191 450.29 7192 450.29"/><line class="g" x1="7262" y1="443.29" x2="7263" y2="443.29"/><polyline class="g" points="7233.46 441.75 7233.46 441.75 7233.46 441.75 7232.46 441.75"/><line class="g" x1="7224.48" y1="444.69" x2="7223.48" y2="444.69"/><polyline class="g" points="7187.54 444.65 7187.54 444.65 7187.54 444.65 7186.54 444.65"/><line class="g" x1="7177.54" y1="442.65" x2="7176.54" y2="442.65"/><polyline class="g" points="7214.54 444.65 7214.54 444.65 7214.54 444.65 7215.54 444.65"/><line class="g" x1="7190.94" y1="443.33" x2="7191.94" y2="443.33"/><polyline class="g" points="7195.46 443.75 7195.46 443.75 7195.46 443.75 7196.46 443.75"/><line class="g" x1="7205.44" y1="444.33" x2="7206.44" y2="444.33"/><polyline class="g" points="7257.08 445.17 7257.08 445.17 7257.08 445.17 7258.08 445.17"/><line class="g" x1="7265.46" y1="447.75" x2="7266.46" y2="447.75"/><line class="g" x1="7181.46" y1="449.75" x2="7180.46" y2="449.75"/><polyline class="g" points="7258.15 447.49 7258.15 447.49 7258.15 447.49 7259.15 447.49"/><polyline class="g" points="7252.1 445.95 7252.1 445.95 7252.1 445.95 7251.1 445.95"/><line class="g" x1="7243.12" y1="448.89" x2="7242.12" y2="448.89"/><polyline class="g" points="7233.19 448.84 7233.19 448.84 7233.19 448.84 7234.19 448.84"/><polyline class="g" points="7300.78 445.26 7300.78 445.26 7300.78 445.26 7301.78 445.26"/><line class="g" x1="7309.78" y1="445.26" x2="7310.78" y2="445.26"/><line class="g" x1="7296.39" y1="444.57" x2="7295.39" y2="444.57"/><polyline class="g" points="7281.17 443.08 7281.17 443.08 7281.17 443.08 7280.17 443.08"/><line class="g" x1="7282.89" y1="445.57" x2="7281.89" y2="445.57"/><polyline class="g" points="7381.78 443.26 7381.78 443.26 7381.78 443.26 7380.78 443.26"/><line class="g" x1="7372.8" y1="446.2" x2="7371.8" y2="446.2"/><polyline class="g" points="7335.86 446.16 7335.86 446.16 7335.86 446.16 7334.86 446.16"/><line class="g" x1="7325.86" y1="444.16" x2="7324.86" y2="444.16"/><polyline class="g" points="7362.86 446.16 7362.86 446.16 7362.86 446.16 7363.86 446.16"/><line class="g" x1="7339.26" y1="444.84" x2="7340.26" y2="444.84"/><polyline class="g" points="7343.78 445.26 7343.78 445.26 7343.78 445.26 7344.78 445.26"/><line class="g" x1="7353.76" y1="445.84" x2="7354.76" y2="445.84"/><line class="g" x1="7281.17" y1="448.08" x2="7280.17" y2="448.08"/><polyline class="g" points="7292.92 446.83 7292.92 446.83 7292.92 446.83 7291.92 446.83"/><line class="g" x1="7400.8" y1="446.44" x2="7401.8" y2="446.44"/><polyline class="g" points="7428.84 442.79 7428.84 442.79 7428.84 442.79 7427.84 442.79"/><line class="g" x1="7420.84" y1="443.79" x2="7419.84" y2="443.79"/><polyline class="g" points="7417.34 445.79 7417.34 445.79 7417.34 445.79 7416.34 445.79"/><line class="g" x1="7406.34" y1="442.79" x2="7405.34" y2="442.79"/><polyline class="g" points="7434.86 445.4 7434.86 445.4 7434.86 445.4 7435.86 445.4"/><line class="g" x1="7443.86" y1="442.4" x2="7444.86" y2="442.4"/><line class="g" x1="7468.14" y1="441.73" x2="7469.14" y2="441.73"/><polyline class="g" points="7496.18 445.38 7496.18 445.38 7496.18 445.38 7495.18 445.38"/><line class="g" x1="7488.18" y1="444.37" x2="7487.18" y2="444.37"/><polyline class="g" points="7484.68 442.38 7484.68 442.38 7484.68 442.38 7483.68 442.38"/><line class="g" x1="7473.68" y1="445.38" x2="7472.68" y2="445.38"/><polyline class="g" points="7502.2 442.77 7502.2 442.77 7502.2 442.77 7503.2 442.77"/><line class="g" x1="7511.2" y1="445.77" x2="7512.2" y2="445.77"/><line class="g" x1="7522.42" y1="440.75" x2="7521.42" y2="440.75"/><polyline class="g" points="7518.92 442.75 7518.92 442.75 7518.92 442.75 7517.92 442.75"/><polyline class="g" points="7540.09 441.64 7540.09 441.64 7540.09 441.64 7539.1 441.51"/><line class="g" x1="7537.28" y1="442.63" x2="7536.29" y2="442.5"/><polyline class="g" points="7535.07 440.19 7535.07 440.19 7535.07 440.19 7534.08 440.06"/><polyline class="g" points="7536.58 446.42 7536.58 446.42 7536.58 446.42 7535.59 446.29"/><polyline class="g" points="6960.49 392.08 6960.49 392.08 6960.49 392.08 6959.49 392.03"/><line class="g" x1="7002.83" y1="388.56" x2="7001.84" y2="388.51"/><polyline class="g" points="6995.98 405.5 6995.98 405.5 6995.98 405.5 6994.98 405.45"/><line class="g" x1="7006.02" y1="404.99" x2="7005.02" y2="404.94"/><polyline class="g" points="6969.29 385.14 6969.29 385.14 6969.29 385.14 6970.29 385.19"/><line class="g" x1="6977.33" y1="384.53" x2="6978.33" y2="384.58"/><polyline class="g" points="6988.51 403.79 6988.51 403.79 6988.51 403.79 6989.51 403.83"/><line class="g" x1="6991.77" y1="386.23" x2="6992.77" y2="386.28"/><polyline class="g" points="6963.33 383.31 6963.33 383.31 6963.33 383.31 6962.34 383.26"/><line class="g" x1="6959.22" y1="370.81" x2="6958.22" y2="370.76"/><polyline class="g" points="6917.33 383.98 6917.33 383.98 6917.33 383.98 6916.33 383.93"/><line class="g" x1="6907.44" y1="381.5" x2="6906.44" y2="381.45"/><polyline class="g" points="6944.3 385.29 6944.3 385.29 6944.3 385.29 6945.3 385.33"/><line class="g" x1="6963.79" y1="366.83" x2="6964.78" y2="366.88"/><polyline class="g" points="6925.28 383.47 6925.28 383.47 6925.28 383.47 6926.28 383.51"/><line class="g" x1="6899.22" y1="404.53" x2="6900.22" y2="404.58"/><polyline class="g" points="6986.77 387.86 6986.77 387.86 6986.77 387.86 6987.76 387.91"/><line class="g" x1="6995.01" y1="390.85" x2="6996" y2="390.9"/><line class="g" x1="6911.01" y1="388.78" x2="6910.01" y2="388.73"/><polyline class="g" points="6987.71 390.24 6987.71 390.24 6987.71 390.24 6988.71 390.28"/><polyline class="g" points="6979.75 392.4 6979.75 392.4 6979.75 392.4 6978.76 392.35"/><line class="g" x1="6972.64" y1="390.9" x2="6971.64" y2="390.85"/><polyline class="g" points="6949.72 389.38 6949.72 389.38 6949.72 389.38 6950.72 389.43"/><polyline class="g" points="6874.28 399.4 6874.28 399.4 6874.28 399.4 6873.28 399.36"/><polyline class="g" points="6880.18 402.25 6880.18 402.25 6880.18 402.25 6881.18 402.3"/><line class="g" x1="6889.3" y1="399.64" x2="6890.3" y2="399.68"/><polyline class="g" points="6927.16 402.28 6927.16 402.28 6927.16 402.28 6928.16 402.33"/><line class="g" x1="6936.15" y1="402.66" x2="6937.15" y2="402.71"/><polyline class="g" points="6899.23 400.1 6899.23 400.1 6899.23 400.1 6898.23 400.06"/><line class="g" x1="6922.8" y1="401.41" x2="6921.8" y2="401.37"/><polyline class="g" points="6919.22 403.26 6919.22 403.26 6919.22 403.26 6918.22 403.22"/><line class="g" x1="6915.27" y1="399.84" x2="6914.27" y2="399.8"/><polyline class="g" points="6962.17 404.66 6962.17 404.66 6962.17 404.66 6961.17 404.62"/><line class="g" x1="6952.27" y1="402.24" x2="6951.27" y2="402.2"/><line class="g" x1="6958.62" y1="402.5" x2="6959.62" y2="402.54"/><polyline class="g" points="6970.12 404.1 6970.12 404.1 6970.12 404.1 6971.12 404.15"/><polyline class="g" points="7026.17 414.08 7026.17 414.08 7026.17 414.08 7027.17 414.08"/><polyline class="g" points="7009.13 415.03 7009.13 415.03 7009.13 415.03 7008.13 415.03"/><line class="g" x1="7000.12" y1="412.03" x2="6999.12" y2="412.03"/><polyline class="g" points="6962.19 413.07 6962.19 413.07 6962.19 413.07 6961.19 413.07"/><line class="g" x1="6953.19" y1="413.07" x2="6952.19" y2="413.07"/><polyline class="g" points="6990.19 412.07 6990.19 412.07 6990.19 412.07 6991.19 412.07"/><line class="g" x1="6980.08" y1="413.39" x2="6981.08" y2="413.39"/><polyline class="g" points="6927.1 413.97 6927.1 413.97 6927.1 413.97 6928.1 413.97"/><line class="g" x1="6937.1" y1="411.97" x2="6938.1" y2="411.97"/><line class="g" x1="6920.17" y1="412.08" x2="6919.17" y2="412.08"/><polyline class="g" points="6919.19 413.07 6919.19 413.07 6919.19 413.07 6918.19 413.07"/><polyline class="g" points="6882.13 412.04 6882.13 412.04 6882.13 412.04 6883.13 412.04"/><line class="g" x1="6877.17" y1="415.08" x2="6878.17" y2="415.08"/><polyline class="g" points="6869.21 416.92 6869.21 416.92 6869.21 416.92 6870.21 416.92"/><line class="g" x1="6877.58" y1="419.5" x2="6878.58" y2="419.5"/><line class="g" x1="6872.58" y1="411.5" x2="6871.58" y2="411.5"/><polyline class="g" points="6901.13 412.04 6901.13 412.04 6901.13 412.04 6902.13 412.04"/><polyline class="g" points="6888.21 416.92 6888.21 416.92 6888.21 416.92 6889.21 416.92"/><line class="g" x1="6896.58" y1="419.5" x2="6897.58" y2="419.5"/><line class="g" x1="6891.58" y1="411.5" x2="6890.58" y2="411.5"/><line class="g" x1="7040.6" y1="425.93" x2="7039.6" y2="425.88"/><polyline class="g" points="7007.06 422.51 7007.06 422.51 7007.06 422.51 7008.06 422.56"/><line class="g" x1="7015.1" y1="421.9" x2="7016.1" y2="421.95"/><line class="g" x1="7029.54" y1="423.6" x2="7030.54" y2="423.65"/><polyline class="g" points="7023.53 420.24 7023.53 420.24 7023.53 420.24 7024.53 420.29"/><line class="g" x1="7044.6" y1="395.93" x2="7043.6" y2="395.88"/><polyline class="g" points="7011.06 392.51 7011.06 392.51 7011.06 392.51 7012.06 392.56"/><line class="g" x1="7019.1" y1="391.9" x2="7020.1" y2="391.95"/><line class="g" x1="7033.54" y1="393.6" x2="7034.54" y2="393.65"/><polyline class="g" points="7033.53 396.24 7033.53 396.24 7033.53 396.24 7034.53 396.29"/><polyline class="g" points="7110.67 422.19 7110.67 422.19 7110.67 422.19 7109.68 422.32"/><line class="g" x1="7151.75" y1="411.32" x2="7150.75" y2="411.45"/><polyline class="g" points="7118.13 413.82 7118.13 413.82 7118.13 413.82 7119.12 413.69"/><line class="g" x1="7125.93" y1="411.81" x2="7126.92" y2="411.69"/><line class="g" x1="7140.44" y1="410.96" x2="7141.43" y2="410.84"/><polyline class="g" points="7111.94 413.06 7111.94 413.06 7111.94 413.06 7110.94 413.19"/><polyline class="g" points="7135.8 413.45 7135.8 413.45 7135.8 413.45 7136.8 413.32"/><line class="g" x1="7144.44" y1="414.95" x2="7145.43" y2="414.82"/><polyline class="g" points="7137.15 415.62 7137.15 415.62 7137.15 415.62 7138.15 415.49"/><polyline class="g" points="7130.96 414.86 7130.96 414.86 7130.96 414.86 7129.97 414.98"/><line class="g" x1="7122.43" y1="418.91" x2="7121.44" y2="419.04"/><polyline class="g" points="7112.57 420.13 7112.57 420.13 7112.57 420.13 7113.56 420"/><polyline class="g" points="7068.03 386.69 7068.03 386.69 7068.03 386.69 7067.05 386.89"/><line class="g" x1="7068.21" y1="390.87" x2="7067.23" y2="391.07"/><polyline class="g" points="7052.86 402.81 7052.86 402.81 7052.86 402.81 7053.84 402.61"/><line class="g" x1="7056.5" y1="389.23" x2="7057.48" y2="389.04"/><line class="g" x1="7074.91" y1="398.33" x2="7075.89" y2="398.13"/><polyline class="g" points="7052.63 393.5 7052.63 393.5 7052.63 393.5 7051.65 393.69"/><polyline class="g" points="7070.46 401.15 7070.46 401.15 7070.46 401.15 7071.44 400.95"/><line class="g" x1="7079.18" y1="402.01" x2="7080.16" y2="401.82"/><polyline class="g" points="7061.97 407.21 7061.97 407.21 7061.97 407.21 7062.94 407.01"/><polyline class="g" points="7065.74 402.9 7065.74 402.9 7065.74 402.9 7064.76 403.1"/><line class="g" x1="7057.52" y1="407.57" x2="7056.54" y2="407.77"/><polyline class="g" points="7061.77 392.5 7061.77 392.5 7061.77 392.5 7062.75 392.3"/><line class="g" x1="7090.13" y1="393.57" x2="7089.16" y2="393.31"/><line class="g" x1="7079.83" y1="388.89" x2="7080.79" y2="389.16"/><polyline class="g" points="7074.59 389.41 7074.59 389.41 7074.59 389.41 7075.56 389.67"/><line class="g" x1="7089.99" y1="399.11" x2="7090.95" y2="399.37"/><polyline class="g" points="7084 396.93 7084 396.93 7084 396.93 7084.97 397.19"/><polyline class="g" points="7097.3 401.21 7097.3 401.21 7097.3 401.21 7098.27 401.48"/><line class="g" x1="7079.7" y1="415.36" x2="7078.7" y2="415.31"/><line class="g" x1="7068.63" y1="422.03" x2="7069.63" y2="422.08"/><polyline class="g" points="7155.63 415.66 7155.63 415.66 7155.63 415.66 7156.63 415.71"/><line class="g" x1="7163.87" y1="418.65" x2="7164.87" y2="418.7"/><polyline class="g" points="7156.58 418.03 7156.58 418.03 7156.58 418.03 7157.58 418.08"/><polyline class="g" points="7087.93 419.31 7087.93 419.31 7087.93 419.31 7088.93 419.36"/><polyline class="g" points="7042.01 408.65 7042.01 408.65 7042.01 408.65 7043.01 408.65"/><polyline class="g" points="7039.17 418.08 7039.17 418.08 7039.17 418.08 7038.17 418.08"/><line class="g" x1="7026.99" y1="408.25" x2="7025.99" y2="408.25"/><line class="g" x1="7054.27" y1="420.52" x2="7055.27" y2="420.52"/><line class="g" x1="7052.73" y1="416.98" x2="7051.73" y2="416.98"/><polyline class="g" points="7171.17 478.08 7171.17 478.08 7171.17 478.08 7170.17 478.08"/><polyline class="g" points="7149.17 484.08 7149.17 484.08 7149.17 484.08 7150.17 484.08"/><polyline class="g" points="7140.17 480.32 7140.17 480.32 7140.17 480.32 7139.17 480.32"/><line class="g" x1="7144.17" y1="484.08" x2="7145.17" y2="484.08"/><polyline class="g" points="7151.17 480.08 7151.17 480.08 7151.17 480.08 7152.17 480.08"/><line class="h" x1="6926.17" y1="464.58" x2="6927.17" y2="464.58"/><polyline class="g" points="6966.17 469 6966.17 469 6966.17 469 6967.16 469.16"/><line class="h" x1="6898.17" y1="499.58" x2="6899.17" y2="499.58"/><line class="h" x1="6939.97" y1="498.04" x2="6940.97" y2="498.04"/><line class="h" x1="6985.17" y1="497.58" x2="6986.17" y2="497.58"/><line class="h" x1="7040.26" y1="484.3" x2="7041.08" y2="484.87"/><line class="h" x1="7073.17" y1="487.58" x2="7074.17" y2="487.58"/><line class="h" x1="7131.77" y1="485.76" x2="7132.73" y2="486.03"/><line class="g" x1="7415.92" y1="429.21" x2="7414.92" y2="429.16"/><line class="g" x1="7422.85" y1="428.88" x2="7423.85" y2="428.92"/><polyline class="g" points="7389.85 429.51 7389.85 429.51 7389.85 429.51 7390.85 429.56"/><line class="g" x1="7403.09" y1="431.5" x2="7404.09" y2="431.54"/><polyline class="g" points="7256.8 428.88 7256.8 428.88 7256.8 428.88 7257.8 428.93"/><polyline class="g" points="7429.2 429.41 7429.2 429.41 7429.2 429.41 7430.1 428.96"/><line class="g" x1="7228.92" y1="428.16" x2="7227.92" y2="428.12"/><line class="g" x1="7249.85" y1="427.83" x2="7250.85" y2="427.88"/><polyline class="g" points="7212.85 427.47 7212.85 427.47 7212.85 427.47 7213.85 427.52"/><line class="g" x1="7292.2" y1="425.79" x2="7292.98" y2="425.17"/><polyline class="g" points="7217.8 427.84 7217.8 427.84 7217.8 427.84 7218.8 427.89"/><polyline class="g" points="7281.24 427.44 7281.24 427.44 7281.24 427.44 7282.05 426.85"/><line class="g" x1="7041.51" y1="423.09" x2="7042.51" y2="423.14"/><polyline class="g" points="7021.36 413.99 7021.36 413.99 7021.36 413.99 7020.36 413.99"/><polyline class="g" points="7038.4 413.04 7038.4 413.04 7038.4 413.04 7039.4 413.04"/><line class="g" x1="7014.92" y1="428.14" x2="7015.92" y2="428.19"/><polyline class="g" points="7040.46 405.56 7040.46 405.56 7040.46 405.56 7039.46 405.51"/><line class="g" x1="7032.42" y1="406.17" x2="7031.42" y2="406.12"/><line class="g" x1="7017.99" y1="404.47" x2="7016.99" y2="404.42"/><polyline class="g" points="7023.99 407.84 7023.99 407.84 7023.99 407.84 7022.99 407.79"/><polyline class="g" points="7005.51 419.43 7005.51 419.43 7005.51 419.43 7004.51 419.43"/><polyline class="g" points="7008.36 409.99 7008.36 409.99 7008.36 409.99 7009.36 409.99"/><line class="g" x1="6957.17" y1="365.08" x2="6958.17" y2="365.08"/><polyline class="g" points="6950.76 393.37 6950.76 393.37 6950.76 393.37 6951.76 393.42"/><line class="g" x1="6927.24" y1="390.92" x2="6928.24" y2="390.96"/><polyline class="g" points="6931.74 391.55 6931.74 391.55 6931.74 391.55 6932.74 391.6"/><line class="g" x1="6941.68" y1="392.62" x2="6942.68" y2="392.66"/></svg>