<svg xmlns="http://www.w3.org/2000/svg" width="15361" height="1440" viewBox="0 0 15361 1440"><defs><style>.a,.b,.c,.d,.e{fill:#fff;}.a{opacity:0.78;}.b{opacity:0.5;}.c{opacity:0.34;}.d{opacity:0.29;}.e{opacity:0.6;}</style></defs><polygon class="a" points="9020.14 205.73 9018.71 207.17 9020.14 208.6 9021.65 207.17 9020.14 205.73"/><polygon class="b" points="9234.25 195.07 9232.82 196.5 9234.25 197.93 9235.76 196.5 9234.25 195.07"/><polygon class="b" points="9336.25 56.9 9334.82 58.33 9336.25 59.77 9337.76 58.33 9336.25 56.9"/><polygon class="b" points="9077.36 265.68 9075.93 267.11 9077.36 268.54 9078.87 267.11 9077.36 265.68"/><polygon class="b" points="8423.92 111.12 8422.49 112.56 8423.92 113.99 8425.43 112.56 8423.92 111.12"/><polygon class="b" points="9189.69 148.57 9188.26 150 9189.69 151.43 9191.21 150 9189.69 148.57"/><polygon class="b" points="9443.81 138.76 9442.37 140.19 9443.81 141.63 9445.32 140.19 9443.81 138.76"/><polygon class="b" points="8330.16 195.61 8329.37 196.4 8330.16 197.19 8330.99 196.4 8330.16 195.61"/><polygon class="b" points="8657.93 209.88 8657.14 210.67 8657.93 211.46 8658.77 210.67 8657.93 209.88"/><polygon class="a" points="8763.16 203.76 8762.37 204.56 8763.16 205.35 8763.99 204.56 8763.16 203.76"/><polygon class="b" points="7737.03 32.07 7735.6 33.5 7737.03 34.93 7738.54 33.5 7737.03 32.07"/><polygon class="b" points="8046.61 106.28 8045.18 107.71 8046.61 109.14 8048.12 107.71 8046.61 106.28"/><polygon class="b" points="8214.25 92.43 8212.82 93.86 8214.25 95.29 8215.76 93.86 8214.25 92.43"/><polygon class="b" points="8125.69 322.98 8124.26 324.42 8125.69 325.85 8127.21 324.42 8125.69 322.98"/><polygon class="a" points="8467.03 259.73 8465.6 261.17 8467.03 262.6 8468.54 261.17 8467.03 259.73"/><polygon class="b" points="8428.03 324.73 8426.6 326.17 8428.03 327.6 8429.54 326.17 8428.03 324.73"/><polygon class="b" points="8517.03 306.73 8515.6 308.17 8517.03 309.6 8518.54 308.17 8517.03 306.73"/><polygon class="b" points="7676.16 98.85 7675.37 99.64 7676.16 100.43 7676.99 99.64 7676.16 98.85"/><polygon class="b" points="8012.71 43.33 8011.92 44.13 8012.71 44.92 8013.55 44.13 8012.71 43.33"/><polygon class="b" points="7786.38 324.74 7785.59 325.53 7786.38 326.32 7787.22 325.53 7786.38 324.74"/><polygon class="b" points="6800.36 270.71 6798.93 272.14 6800.36 273.57 6801.87 272.14 6800.36 270.71"/><polygon class="b" points="7519.36 179.53 7517.93 180.96 7519.36 182.39 7520.87 180.96 7519.36 179.53"/><polygon class="b" points="7694.92 137.65 7693.48 139.08 7694.92 140.52 7696.43 139.08 7694.92 137.65"/><polygon class="b" points="7537.92 73.76 7536.48 75.19 7537.92 76.63 7539.43 75.19 7537.92 73.76"/><polygon class="b" points="7406.58 92.87 7405.15 94.31 7406.58 95.74 7408.1 94.31 7406.58 92.87"/><polygon class="b" points="6688.14 116.09 6686.71 117.53 6688.14 118.96 6689.65 117.53 6688.14 116.09"/><polygon class="b" points="6539.03 7.21 6537.6 8.64 6539.03 10.07 6540.54 8.64 6539.03 7.21"/><polygon class="b" points="7086.69 149.98 7085.26 151.42 7086.69 152.85 7088.21 151.42 7086.69 149.98"/><polygon class="b" points="7339.81 139.37 7338.37 140.81 7339.81 142.24 7341.32 140.81 7339.81 139.37"/><polygon class="b" points="7000.71 12.33 6999.92 13.13 7000.71 13.92 7001.55 13.13 7000.71 12.33"/><polygon class="b" points="5914.36 327.71 5912.93 329.14 5914.36 330.57 5915.87 329.14 5914.36 327.71"/><polygon class="b" points="6115.44 83.61 6114.01 85.04 6115.44 86.47 6116.96 85.04 6115.44 83.61"/><polygon class="b" points="6107.61 142.28 6106.18 143.71 6107.61 145.14 6109.12 143.71 6107.61 142.28"/><polygon class="b" points="6227.25 43.65 6225.82 45.08 6227.25 46.52 6228.76 45.08 6227.25 43.65"/><polygon class="b" points="6573.25 197.43 6571.82 198.86 6573.25 200.29 6574.76 198.86 6573.25 197.43"/><polygon class="c" points="6610.92 229.76 6609.48 231.19 6610.92 232.63 6612.43 231.19 6610.92 229.76"/><polygon class="b" points="6420.47 213.87 6419.04 215.31 6420.47 216.74 6421.98 215.31 6420.47 213.87"/><polygon class="b" points="6214.58 284.65 6213.15 286.08 6214.58 287.52 6216.1 286.08 6214.58 284.65"/><polygon class="b" points="5761.14 272.1 5759.71 273.53 5761.14 274.96 5762.65 273.53 5761.14 272.1"/><polygon class="b" points="5736.92 160.65 5735.48 162.08 5736.92 163.52 5738.43 162.08 5736.92 160.65"/><polygon class="b" points="5619.14 61.65 5617.71 63.08 5619.14 64.52 5620.65 63.08 5619.14 61.65"/><polygon class="b" points="6073.71 79.33 6072.92 80.13 6073.71 80.92 6074.55 80.13 6073.71 79.33"/><polygon class="b" points="6357.6 154.96 6356.81 155.75 6357.6 156.54 6358.44 155.75 6357.6 154.96"/><polygon class="b" points="5822.67 3.89 5821.24 5.32 5822.67 6.75 5824.18 5.32 5822.67 3.89"/><polygon class="b" points="6335.48 5.97 6334.05 7.4 6335.48 8.83 6336.99 7.4 6335.48 5.97"/><polygon class="b" points="7763.14 141.22 7761.71 142.65 7763.14 144.08 7764.66 142.65 7763.14 141.22"/><polygon class="b" points="10393.47 74.15 10392.04 75.58 10393.47 77.02 10394.98 75.58 10393.47 74.15"/><polygon class="b" points="10524.64 81.73 10523.2 83.17 10524.64 84.6 10526.15 83.17 10524.64 81.73"/><polygon class="b" points="10414.55 247.33 10413.12 248.76 10414.55 250.2 10416.07 248.76 10414.55 247.33"/><polygon class="b" points="10104.11 158.78 10102.68 160.21 10104.11 161.64 10105.62 160.21 10104.11 158.78"/><polygon class="b" points="10028.33 59.78 10026.9 61.21 10028.33 62.64 10029.84 61.21 10028.33 59.78"/><polygon class="b" points="10257.74 98.81 10256.95 99.61 10257.74 100.4 10258.58 99.61 10257.74 98.81"/><polygon class="a" points="9311.55 205.83 9310.12 207.26 9311.55 208.7 9313.07 207.26 9311.55 205.83"/><polygon class="b" points="9593.89 26.07 9592.45 27.5 9593.89 28.93 9595.4 27.5 9593.89 26.07"/><polygon class="b" points="9745.78 27.94 9744.34 29.38 9745.78 30.81 9747.29 29.38 9745.78 27.94"/><polygon class="b" points="9892.78 98 9891.34 99.43 9892.78 100.86 9894.29 99.43 9892.78 98"/><polygon class="b" points="9790.67 101 9789.23 102.43 9790.67 103.86 9792.18 102.43 9790.67 101"/><polygon class="b" points="9611.78 162.78 9610.34 164.21 9611.78 165.64 9613.29 164.21 9611.78 162.78"/><polygon class="b" points="9385.55 163.33 9384.12 164.76 9385.55 166.2 9387.07 164.76 9385.55 163.33"/><polygon class="a" points="9583.89 237.11 9582.45 238.54 9583.89 239.97 9585.4 238.54 9583.89 237.11"/><polygon class="b" points="9810 173.5 9808.57 174.93 9810 176.36 9811.51 174.93 9810 173.5"/><polygon class="b" points="10246.86 8.01 10245.43 9.44 10246.86 10.88 10248.38 9.44 10246.86 8.01"/><polygon class="b" points="8813.92 369.6 8812.49 371.03 8813.92 372.46 8815.43 371.03 8813.92 369.6"/><polygon class="b" points="8208.36 389.04 8206.93 390.47 8208.36 391.9 8209.87 390.47 8208.36 389.04"/><polygon class="d" points="8476.92 445.37 8475.49 446.81 8476.92 448.24 8478.43 446.81 8476.92 445.37"/><polygon class="b" points="8285.38 410.21 8284.59 411 8285.38 411.79 8286.22 411 8285.38 410.21"/><polygon class="b" points="8914.31 329.35 8912.87 330.78 8914.31 332.21 8915.82 330.78 8914.31 329.35"/><polygon class="a" points="8277.81 758.07 8276.37 759.5 8277.81 760.93 8279.32 759.5 8277.81 758.07"/><polygon class="b" points="8491.92 747.4 8490.49 748.83 8491.92 750.27 8493.43 748.83 8491.92 747.4"/><polygon class="b" points="7893.47 261.43 7892.04 262.86 7893.47 264.29 7894.98 262.86 7893.47 261.43"/><polygon class="b" points="8370.14 543.3 8368.71 544.74 8370.14 546.17 8371.65 544.74 8370.14 543.3"/><polygon class="b" points="8593.92 609.23 8592.49 610.67 8593.92 612.1 8595.43 610.67 8593.92 609.23"/><polygon class="b" points="8335.03 818.01 8333.6 819.44 8335.03 820.88 8336.54 819.44 8335.03 818.01"/><polygon class="b" points="8241.69 539.9 8240.26 541.33 8241.69 542.77 8243.21 541.33 8241.69 539.9"/><polygon class="b" points="7681.58 663.46 7680.15 664.89 7681.58 666.32 7683.1 664.89 7681.58 663.46"/><polygon class="b" points="8447.36 700.9 8445.93 702.33 8447.36 703.77 8448.87 702.33 8447.36 700.9"/><polygon class="b" points="8701.47 691.1 8700.04 692.53 8701.47 693.96 8702.99 692.53 8701.47 691.1"/><polygon class="b" points="7587.82 747.94 7587.03 748.74 7587.82 749.53 7588.66 748.74 7587.82 747.94"/><polygon class="b" points="7915.6 762.21 7914.81 763 7915.6 763.79 7916.44 763 7915.6 762.21"/><polygon class="a" points="8020.82 756.1 8020.03 756.89 8020.82 757.68 8021.66 756.89 8020.82 756.1"/><polygon class="b" points="6994.69 584.4 6993.26 585.83 6994.69 587.27 6996.21 585.83 6994.69 584.4"/><polygon class="b" points="7304.28 658.61 7302.85 660.04 7304.28 661.47 7305.79 660.04 7304.28 658.61"/><polygon class="b" points="7471.92 644.76 7470.48 646.19 7471.92 647.63 7473.43 646.19 7471.92 644.76"/><polygon class="a" points="7426.03 887.54 7424.6 888.97 7426.03 890.4 7427.54 888.97 7426.03 887.54"/><polygon class="b" points="7383.36 875.32 7381.93 876.75 7383.36 878.18 7384.87 876.75 7383.36 875.32"/><polygon class="a" points="7724.69 812.07 7723.26 813.5 7724.69 814.93 7726.21 813.5 7724.69 812.07"/><polygon class="b" points="7685.69 877.07 7684.26 878.5 7685.69 879.93 7687.21 878.5 7685.69 877.07"/><polygon class="b" points="7774.69 859.07 7773.26 860.5 7774.69 861.93 7776.21 860.5 7774.69 859.07"/><polygon class="b" points="6933.82 651.18 6933.03 651.97 6933.82 652.76 6934.66 651.97 6933.82 651.18"/><polygon class="b" points="7270.38 595.67 7269.59 596.46 7270.38 597.25 7271.22 596.46 7270.38 595.67"/><polygon class="b" points="7044.05 877.07 7043.26 877.86 7044.05 878.65 7044.88 877.86 7044.05 877.07"/><polygon class="e" points="6168.94 472.36 6167.51 473.79 6168.94 475.22 6170.46 473.79 6168.94 472.36"/><polygon class="b" points="6449.03 525.86 6447.6 527.29 6449.03 528.72 6450.54 527.29 6449.03 525.86"/><polygon class="b" points="6624.58 483.98 6623.15 485.42 6624.58 486.85 6626.1 485.42 6624.58 483.98"/><polygon class="b" points="6795.58 626.1 6794.15 627.53 6795.58 628.96 6797.1 627.53 6795.58 626.1"/><polygon class="b" points="6664.25 645.21 6662.82 646.64 6664.25 648.07 6665.76 646.64 6664.25 645.21"/><polygon class="b" points="5796.69 559.54 5795.26 560.97 5796.69 562.4 5798.21 560.97 5796.69 559.54"/><polygon class="b" points="5921.82 531.18 5921.03 531.97 5921.82 532.76 5922.66 531.97 5921.82 531.18"/><polygon class="b" points="6258.38 564.67 6257.59 565.46 6258.38 566.25 6259.22 565.46 6258.38 564.67"/><polygon class="b" points="5080.34 556.22 5078.91 557.65 5080.34 559.08 5081.85 557.65 5080.34 556.22"/><polygon class="b" points="5318.7 482.22 5317.27 483.65 5318.7 485.08 5320.21 483.65 5318.7 482.22"/><polygon class="b" points="5593.14 558.3 5591.71 559.74 5593.14 561.17 5594.66 559.74 5593.14 558.3"/><polygon class="b" points="7376.59 519.61 7375.16 521.04 7376.59 522.47 7378.1 521.04 7376.59 519.61"/><polygon class="b" points="7148.81 474.55 7147.38 475.99 7148.81 477.42 7150.32 475.99 7148.81 474.55"/><polygon class="b" points="7636.14 510.3 7634.71 511.74 7636.14 513.17 7637.66 511.74 7636.14 510.3"/><polygon class="b" points="9651.14 626.49 9649.7 627.92 9651.14 629.35 9652.65 627.92 9651.14 626.49"/><polygon class="b" points="9782.3 634.07 9780.87 635.5 9782.3 636.93 9783.82 635.5 9782.3 634.07"/><polygon class="b" points="9672.22 799.67 9670.79 801.1 9672.22 802.53 9673.73 801.1 9672.22 799.67"/><polygon class="b" points="9361.78 711.11 9360.34 712.54 9361.78 713.98 9363.29 712.54 9361.78 711.11"/><polygon class="b" points="9286 612.11 9284.57 613.54 9286 614.98 9287.51 613.54 9286 612.11"/><polygon class="b" points="9515.41 651.15 9514.61 651.94 9515.41 652.73 9516.24 651.94 9515.41 651.15"/><polygon class="a" points="8569.22 758.17 8567.79 759.6 8569.22 761.03 8570.73 759.6 8569.22 758.17"/><polygon class="b" points="8485.05 487.9 8483.62 489.33 8485.05 490.77 8486.57 489.33 8485.05 487.9"/><polygon class="b" points="8639.14 506.49 8637.7 507.92 8639.14 509.35 8640.65 507.92 8639.14 506.49"/><polygon class="b" points="8851.55 578.4 8850.12 579.83 8851.55 581.27 8853.07 579.83 8851.55 578.4"/><polygon class="b" points="9094.78 518.11 9093.34 519.54 9094.78 520.98 9096.29 519.54 9094.78 518.11"/><polygon class="b" points="9003.44 580.28 9002.01 581.71 9003.44 583.14 9004.95 581.71 9003.44 580.28"/><polygon class="b" points="9150.44 650.33 9149.01 651.76 9150.44 653.2 9151.95 651.76 9150.44 650.33"/><polygon class="b" points="9048.33 653.33 9046.9 654.76 9048.33 656.2 9049.84 654.76 9048.33 653.33"/><polygon class="b" points="8869.44 715.11 8868.01 716.54 8869.44 717.98 8870.95 716.54 8869.44 715.11"/><polygon class="b" points="8643.22 715.67 8641.79 717.1 8643.22 718.53 8644.73 717.1 8643.22 715.67"/><polygon class="a" points="8841.55 789.44 8840.12 790.88 8841.55 792.31 8843.07 790.88 8841.55 789.44"/><polygon class="b" points="9067.67 725.83 9066.23 727.26 9067.67 728.7 9069.18 727.26 9067.67 725.83"/><polygon class="b" points="9504.53 560.35 9503.1 561.78 9504.53 563.21 9506.04 561.78 9504.53 560.35"/><polygon class="b" points="9941.11 497.07 9939.68 498.5 9941.11 499.93 9942.63 498.5 9941.11 497.07"/><polygon class="b" points="8071.58 921.93 8070.15 923.36 8071.58 924.79 8073.1 923.36 8071.58 921.93"/><polygon class="b" points="7466.03 941.37 7464.6 942.81 7466.03 944.24 7467.54 942.81 7466.03 941.37"/><polygon class="b" points="7543.05 962.54 7542.26 963.33 7543.05 964.13 7543.88 963.33 7543.05 962.54"/><polygon class="b" points="8171.97 881.68 8170.54 883.11 8171.97 884.54 8173.48 883.11 8171.97 881.68"/><polygon class="a" points="13738.47 329.9 13737.04 331.33 13738.47 332.77 13739.99 331.33 13738.47 329.9"/><polygon class="b" points="13952.58 319.23 13951.15 320.67 13952.58 322.1 13954.1 320.67 13952.58 319.23"/><polygon class="b" points="13432.14 35.26 13430.71 36.69 13432.14 38.13 13433.65 36.69 13432.14 35.26"/><polygon class="b" points="13830.81 115.14 13829.37 116.57 13830.81 118 13832.32 116.57 13830.81 115.14"/><polygon class="b" points="14054.58 181.07 14053.15 182.5 14054.58 183.93 14056.1 182.5 14054.58 181.07"/><polygon class="b" points="13795.69 389.85 13794.26 391.28 13795.69 392.71 13797.21 391.28 13795.69 389.85"/><polygon class="b" points="13702.36 111.73 13700.93 113.17 13702.36 114.6 13703.87 113.17 13702.36 111.73"/><polygon class="b" points="13142.25 235.29 13140.82 236.72 13142.25 238.16 13143.76 236.72 13142.25 235.29"/><polygon class="b" points="13908.03 272.73 13906.6 274.17 13908.03 275.6 13909.54 274.17 13908.03 272.73"/><polygon class="b" points="14162.14 262.93 14160.71 264.36 14162.14 265.79 14163.65 264.36 14162.14 262.93"/><polygon class="b" points="13048.49 319.78 13047.7 320.57 13048.49 321.36 13049.33 320.57 13048.49 319.78"/><polygon class="b" points="13376.27 334.04 13375.48 334.83 13376.27 335.63 13377.1 334.83 13376.27 334.04"/><polygon class="a" points="13481.49 327.93 13480.7 328.72 13481.49 329.51 13482.33 328.72 13481.49 327.93"/><polygon class="b" points="12455.36 156.23 12453.93 157.67 12455.36 159.1 12456.87 157.67 12455.36 156.23"/><polygon class="b" points="12764.94 230.44 12763.51 231.88 12764.94 233.31 12766.46 231.88 12764.94 230.44"/><polygon class="b" points="12932.58 216.59 12931.15 218.03 12932.58 219.46 12934.1 218.03 12932.58 216.59"/><polygon class="a" points="12662.69 337.37 12661.26 338.81 12662.69 340.24 12664.21 338.81 12662.69 337.37"/><polygon class="b" points="12844.03 447.15 12842.6 448.58 12844.03 450.02 12845.54 448.58 12844.03 447.15"/><polygon class="a" points="13185.36 383.9 13183.93 385.33 13185.36 386.77 13186.87 385.33 13185.36 383.9"/><polygon class="b" points="13146.36 448.9 13144.93 450.33 13146.36 451.77 13147.87 450.33 13146.36 448.9"/><polygon class="b" points="13235.36 430.9 13233.93 432.33 13235.36 433.77 13236.87 432.33 13235.36 430.9"/><polygon class="b" points="12394.49 223.01 12393.7 223.81 12394.49 224.6 12395.33 223.81 12394.49 223.01"/><polygon class="b" points="12731.05 167.5 12730.25 168.29 12731.05 169.08 12731.88 168.29 12731.05 167.5"/><polygon class="b" points="12504.71 448.9 12503.92 449.69 12504.71 450.49 12505.55 449.69 12504.71 448.9"/><polygon class="b" points="11518.69 394.87 11517.26 396.31 11518.69 397.74 11520.21 396.31 11518.69 394.87"/><polygon class="e" points="11629.61 44.19 11628.18 45.63 11629.61 47.06 11631.12 45.63 11629.61 44.19"/><polygon class="b" points="11909.69 97.69 11908.26 99.13 11909.69 100.56 11911.21 99.13 11909.69 97.69"/><polygon class="b" points="12085.25 55.82 12083.82 57.25 12085.25 58.68 12086.76 57.25 12085.25 55.82"/><polygon class="b" points="12256.25 197.93 12254.82 199.36 12256.25 200.79 12257.76 199.36 12256.25 197.93"/><polygon class="b" points="12124.92 217.04 12123.49 218.47 12124.92 219.91 12126.43 218.47 12124.92 217.04"/><polygon class="b" points="11406.47 240.26 11405.04 241.69 11406.47 243.13 11407.99 241.69 11406.47 240.26"/><polygon class="b" points="11257.36 131.37 11255.93 132.81 11257.36 134.24 11258.87 132.81 11257.36 131.37"/><polygon class="b" points="11805.03 274.15 11803.6 275.58 11805.03 277.02 11806.54 275.58 11805.03 274.15"/><polygon class="b" points="12058.14 263.54 12056.71 264.97 12058.14 266.4 12059.65 264.97 12058.14 263.54"/><polygon class="b" points="11382.49 103.01 11381.7 103.81 11382.49 104.6 11383.33 103.81 11382.49 103.01"/><polygon class="b" points="11719.05 136.5 11718.25 137.29 11719.05 138.08 11719.88 137.29 11719.05 136.5"/><polygon class="b" points="10632.69 451.87 10631.26 453.31 10632.69 454.74 10634.21 453.31 10632.69 451.87"/><polygon class="b" points="10833.78 207.78 10832.35 209.21 10833.78 210.64 10835.29 209.21 10833.78 207.78"/><polygon class="b" points="10825.94 266.44 10824.51 267.88 10825.94 269.31 10827.46 267.88 10825.94 266.44"/><polygon class="b" points="10945.58 167.82 10944.15 169.25 10945.58 170.68 10947.1 169.25 10945.58 167.82"/><polygon class="b" points="11291.58 321.6 11290.15 323.03 11291.58 324.46 11293.1 323.03 11291.58 321.6"/><polygon class="c" points="11329.25 353.93 11327.82 355.36 11329.25 356.79 11330.76 355.36 11329.25 353.93"/><polygon class="b" points="11138.81 338.04 11137.37 339.47 11138.81 340.9 11140.32 339.47 11138.81 338.04"/><polygon class="b" points="10932.92 408.82 10931.49 410.25 10932.92 411.68 10934.43 410.25 10932.92 408.82"/><polygon class="b" points="10479.47 396.26 10478.04 397.69 10479.47 399.13 10480.99 397.69 10479.47 396.26"/><polygon class="b" points="10455.25 284.82 10453.82 286.25 10455.25 287.68 10456.76 286.25 10455.25 284.82"/><polygon class="b" points="10337.47 185.82 10336.04 187.25 10337.47 188.68 10338.99 187.25 10337.47 185.82"/><polygon class="b" points="10792.05 203.5 10791.25 204.29 10792.05 205.08 10792.88 204.29 10792.05 203.5"/><polygon class="b" points="11075.93 279.13 11075.14 279.92 11075.93 280.71 11076.77 279.92 11075.93 279.13"/><polygon class="b" points="10541 128.05 10539.57 129.49 10541 130.92 10542.52 129.49 10541 128.05"/><polygon class="b" points="10779.37 54.05 10777.93 55.48 10779.37 56.92 10780.88 55.48 10779.37 54.05"/><polygon class="b" points="11053.81 130.14 11052.38 131.57 11053.81 133 11055.32 131.57 11053.81 130.14"/><polygon class="b" points="12837.25 91.44 12835.82 92.87 12837.25 94.31 12838.77 92.87 12837.25 91.44"/><polygon class="b" points="12609.48 46.39 12608.05 47.82 12609.48 49.25 12610.99 47.82 12609.48 46.39"/><polygon class="b" points="13096.81 82.14 13095.38 83.57 13096.81 85 13098.32 83.57 13096.81 82.14"/><polygon class="b" points="15111.8 198.32 15110.37 199.75 15111.8 201.18 15113.32 199.75 15111.8 198.32"/><polygon class="b" points="15242.97 205.9 15241.54 207.33 15242.97 208.77 15244.48 207.33 15242.97 205.9"/><polygon class="b" points="15132.89 371.5 15131.45 372.93 15132.89 374.36 15134.4 372.93 15132.89 371.5"/><polygon class="b" points="14822.44 282.94 14821.01 284.38 14822.44 285.81 14823.95 284.38 14822.44 282.94"/><polygon class="b" points="14746.67 183.94 14745.23 185.38 14746.67 186.81 14748.18 185.38 14746.67 183.94"/><polygon class="b" points="14976.07 222.98 14975.28 223.77 14976.07 224.56 14976.91 223.77 14976.07 222.98"/><polygon class="a" points="14029.89 330 14028.45 331.43 14029.89 332.86 14031.4 331.43 14029.89 330"/><polygon class="b" points="13945.72 59.73 13944.29 61.17 13945.72 62.6 13947.23 61.17 13945.72 59.73"/><polygon class="b" points="14099.8 78.32 14098.37 79.75 14099.8 81.18 14101.32 79.75 14099.8 78.32"/><polygon class="b" points="14312.22 150.24 14310.79 151.67 14312.22 153.1 14313.73 151.67 14312.22 150.24"/><polygon class="b" points="14555.44 89.94 14554.01 91.38 14555.44 92.81 14556.95 91.38 14555.44 89.94"/><polygon class="b" points="14464.11 152.11 14462.68 153.54 14464.11 154.97 14465.62 153.54 14464.11 152.11"/><polygon class="b" points="14611.11 222.17 14609.68 223.6 14611.11 225.03 14612.62 223.6 14611.11 222.17"/><polygon class="b" points="14509 225.17 14507.57 226.6 14509 228.03 14510.51 226.6 14509 225.17"/><polygon class="b" points="14330.11 286.94 14328.68 288.38 14330.11 289.81 14331.62 288.38 14330.11 286.94"/><polygon class="b" points="14103.89 287.5 14102.45 288.93 14103.89 290.36 14105.4 288.93 14103.89 287.5"/><polygon class="a" points="14302.22 361.28 14300.79 362.71 14302.22 364.14 14303.73 362.71 14302.22 361.28"/><polygon class="b" points="14528.33 297.67 14526.9 299.1 14528.33 300.53 14529.84 299.1 14528.33 297.67"/><polygon class="b" points="14965.2 132.18 14963.76 133.61 14965.2 135.04 14966.71 133.61 14965.2 132.18"/><polygon class="b" points="13532.25 493.76 13530.82 495.19 13532.25 496.63 13533.76 495.19 13532.25 493.76"/><polygon class="b" points="12926.69 513.21 12925.26 514.64 12926.69 516.07 12928.21 514.64 12926.69 513.21"/><polygon class="d" points="13195.25 569.54 13193.82 570.97 13195.25 572.4 13196.76 570.97 13195.25 569.54"/><polygon class="b" points="13003.71 534.38 13002.92 535.17 13003.71 535.96 13004.55 535.17 13003.71 534.38"/><polygon class="b" points="13632.64 453.51 13631.21 454.94 13632.64 456.38 13634.15 454.94 13632.64 453.51"/><polygon class="b" points="13419.81 815.26 13418.37 816.69 13419.81 818.13 13421.32 816.69 13419.81 815.26"/><polygon class="b" points="9737.14 948.6 9735.71 950.03 9737.14 951.46 9738.65 950.03 9737.14 948.6"/><polygon class="b" points="9712.92 837.15 9711.49 838.58 9712.92 840.02 9714.43 838.58 9712.92 837.15"/><polygon class="b" points="9595.14 738.15 9593.71 739.58 9595.14 741.02 9596.65 739.58 9595.14 738.15"/><polygon class="b" points="9798.67 680.39 9797.24 681.82 9798.67 683.25 9800.18 681.82 9798.67 680.39"/><polygon class="b" points="14369.47 750.65 14368.04 752.08 14369.47 753.52 14370.98 752.08 14369.47 750.65"/><polygon class="b" points="14500.64 758.24 14499.2 759.67 14500.64 761.1 14502.15 759.67 14500.64 758.24"/><polygon class="b" points="14390.55 923.83 14389.12 925.26 14390.55 926.7 14392.07 925.26 14390.55 923.83"/><polygon class="b" points="14080.11 835.28 14078.68 836.71 14080.11 838.14 14081.62 836.71 14080.11 835.28"/><polygon class="b" points="14004.33 736.28 14002.9 737.71 14004.33 739.14 14005.84 737.71 14004.33 736.28"/><polygon class="b" points="14233.74 775.31 14232.95 776.11 14233.74 776.9 14234.58 776.11 14233.74 775.31"/><polygon class="b" points="13569.89 702.57 13568.45 704 13569.89 705.43 13571.4 704 13569.89 702.57"/><polygon class="b" points="13813.11 642.28 13811.68 643.71 13813.11 645.14 13814.62 643.71 13813.11 642.28"/><polygon class="b" points="13721.78 704.44 13720.34 705.88 13721.78 707.31 13723.29 705.88 13721.78 704.44"/><polygon class="b" points="13868.78 774.5 13867.34 775.93 13868.78 777.36 13870.29 775.93 13868.78 774.5"/><polygon class="b" points="13766.67 777.5 13765.23 778.93 13766.67 780.36 13768.18 778.93 13766.67 777.5"/><polygon class="b" points="13587.78 839.28 13586.34 840.71 13587.78 842.14 13589.29 840.71 13587.78 839.28"/><polygon class="a" points="13559.89 913.61 13558.45 915.04 13559.89 916.48 13561.4 915.04 13559.89 913.61"/><polygon class="b" points="13786 850 13784.57 851.43 13786 852.86 13787.51 851.43 13786 850"/><polygon class="b" points="14222.86 684.51 14221.43 685.94 14222.86 687.38 14224.38 685.94 14222.86 684.51"/><polygon class="b" points="14659.45 621.23 14658.01 622.67 14659.45 624.1 14660.96 622.67 14659.45 621.23"/><polygon class="a" points="4268.47 325.9 4267.04 327.33 4268.47 328.77 4269.98 327.33 4268.47 325.9"/><polygon class="b" points="4482.58 315.23 4481.15 316.67 4482.58 318.1 4484.1 316.67 4482.58 315.23"/><polygon class="b" points="3962.14 31.26 3960.71 32.69 3962.14 34.13 3963.65 32.69 3962.14 31.26"/><polygon class="b" points="4360.81 111.14 4359.37 112.57 4360.81 114 4362.32 112.57 4360.81 111.14"/><polygon class="b" points="4584.58 177.07 4583.15 178.5 4584.58 179.93 4586.1 178.5 4584.58 177.07"/><polygon class="b" points="4325.69 385.85 4324.26 387.28 4325.69 388.71 4327.21 387.28 4325.69 385.85"/><polygon class="b" points="4232.36 107.73 4230.93 109.17 4232.36 110.6 4233.87 109.17 4232.36 107.73"/><polygon class="b" points="3672.25 231.29 3670.82 232.72 3672.25 234.16 3673.76 232.72 3672.25 231.29"/><polygon class="b" points="4438.03 268.73 4436.6 270.17 4438.03 271.6 4439.54 270.17 4438.03 268.73"/><polygon class="b" points="4692.14 258.93 4690.71 260.36 4692.14 261.79 4693.65 260.36 4692.14 258.93"/><polygon class="b" points="3578.49 315.78 3577.7 316.57 3578.49 317.36 3579.33 316.57 3578.49 315.78"/><polygon class="b" points="3906.27 330.04 3905.48 330.83 3906.27 331.63 3907.1 330.83 3906.27 330.04"/><polygon class="a" points="4011.49 323.93 4010.7 324.72 4011.49 325.51 4012.33 324.72 4011.49 323.93"/><polygon class="b" points="2985.36 152.23 2983.93 153.67 2985.36 155.1 2986.87 153.67 2985.36 152.23"/><polygon class="b" points="3294.95 226.44 3293.51 227.88 3294.95 229.31 3296.46 227.88 3294.95 226.44"/><polygon class="b" points="3462.58 212.59 3461.15 214.03 3462.58 215.46 3464.1 214.03 3462.58 212.59"/><polygon class="a" points="3192.7 333.37 3191.26 334.81 3192.7 336.24 3194.21 334.81 3192.7 333.37"/><polygon class="b" points="3374.03 443.15 3372.6 444.58 3374.03 446.02 3375.54 444.58 3374.03 443.15"/><polygon class="a" points="3715.36 379.9 3713.93 381.33 3715.36 382.77 3716.87 381.33 3715.36 379.9"/><polygon class="b" points="3676.36 444.9 3674.93 446.33 3676.36 447.77 3677.87 446.33 3676.36 444.9"/><polygon class="b" points="3765.36 426.9 3763.93 428.33 3765.36 429.77 3766.87 428.33 3765.36 426.9"/><polygon class="b" points="2924.49 219.01 2923.7 219.81 2924.49 220.6 2925.33 219.81 2924.49 219.01"/><polygon class="b" points="3261.05 163.5 3260.26 164.29 3261.05 165.08 3261.88 164.29 3261.05 163.5"/><polygon class="b" points="3034.71 444.9 3033.92 445.69 3034.71 446.49 3035.55 445.69 3034.71 444.9"/><polygon class="b" points="2048.7 390.87 2047.26 392.31 2048.7 393.74 2050.21 392.31 2048.7 390.87"/><polygon class="e" points="2159.61 40.19 2158.18 41.63 2159.61 43.06 2161.12 41.63 2159.61 40.19"/><polygon class="b" points="2439.7 93.69 2438.26 95.13 2439.7 96.56 2441.21 95.13 2439.7 93.69"/><polygon class="b" points="2615.25 51.82 2613.82 53.25 2615.25 54.68 2616.76 53.25 2615.25 51.82"/><polygon class="b" points="2786.25 193.93 2784.82 195.36 2786.25 196.79 2787.76 195.36 2786.25 193.93"/><polygon class="b" points="2654.92 213.04 2653.49 214.47 2654.92 215.91 2656.43 214.47 2654.92 213.04"/><polygon class="b" points="1936.47 236.26 1935.04 237.69 1936.47 239.13 1937.98 237.69 1936.47 236.26"/><polygon class="b" points="1787.36 127.37 1785.93 128.81 1787.36 130.24 1788.87 128.81 1787.36 127.37"/><polygon class="b" points="2335.03 270.15 2333.6 271.58 2335.03 273.02 2336.54 271.58 2335.03 270.15"/><polygon class="b" points="2588.14 259.54 2586.71 260.97 2588.14 262.4 2589.65 260.97 2588.14 259.54"/><polygon class="b" points="1912.49 99.01 1911.7 99.81 1912.49 100.6 1913.33 99.81 1912.49 99.01"/><polygon class="b" points="2249.05 132.5 2248.26 133.29 2249.05 134.08 2249.88 133.29 2249.05 132.5"/><polygon class="b" points="1162.69 447.87 1161.26 449.31 1162.69 450.74 1164.21 449.31 1162.69 447.87"/><polygon class="b" points="1363.78 203.78 1362.35 205.21 1363.78 206.64 1365.29 205.21 1363.78 203.78"/><polygon class="b" points="1355.94 262.44 1354.51 263.88 1355.94 265.31 1357.46 263.88 1355.94 262.44"/><polygon class="b" points="1475.58 163.82 1474.15 165.25 1475.58 166.68 1477.1 165.25 1475.58 163.82"/><polygon class="b" points="1821.58 317.6 1820.15 319.03 1821.58 320.46 1823.1 319.03 1821.58 317.6"/><polygon class="c" points="1859.25 349.93 1857.82 351.36 1859.25 352.79 1860.76 351.36 1859.25 349.93"/><polygon class="b" points="1668.81 334.04 1667.37 335.47 1668.81 336.9 1670.32 335.47 1668.81 334.04"/><polygon class="b" points="1462.92 404.82 1461.48 406.25 1462.92 407.68 1464.43 406.25 1462.92 404.82"/><polygon class="b" points="1009.47 392.26 1008.04 393.69 1009.47 395.13 1010.99 393.69 1009.47 392.26"/><polygon class="b" points="985.25 280.82 983.82 282.25 985.25 283.68 986.76 282.25 985.25 280.82"/><polygon class="b" points="867.47 181.82 866.04 183.25 867.47 184.68 868.99 183.25 867.47 181.82"/><polygon class="b" points="1322.05 199.5 1321.26 200.29 1322.05 201.08 1322.88 200.29 1322.05 199.5"/><polygon class="b" points="1605.93 275.13 1605.14 275.92 1605.93 276.71 1606.77 275.92 1605.93 275.13"/><polygon class="b" points="1071.01 124.05 1069.57 125.48 1071.01 126.92 1072.52 125.48 1071.01 124.05"/><polygon class="b" points="1309.37 50.05 1307.93 51.48 1309.37 52.92 1310.88 51.48 1309.37 50.05"/><polygon class="b" points="1583.81 126.14 1582.38 127.57 1583.81 129 1585.32 127.57 1583.81 126.14"/><polygon class="b" points="3367.26 87.44 3365.82 88.87 3367.26 90.31 3368.77 88.87 3367.26 87.44"/><polygon class="b" points="3139.48 42.39 3138.05 43.82 3139.48 45.25 3140.99 43.82 3139.48 42.39"/><polygon class="b" points="3626.81 78.14 3625.38 79.57 3626.81 81 3628.32 79.57 3626.81 78.14"/><polygon class="b" points="5641.8 194.32 5640.37 195.75 5641.8 197.18 5643.32 195.75 5641.8 194.32"/><polygon class="b" points="5772.97 201.9 5771.54 203.33 5772.97 204.77 5774.48 203.33 5772.97 201.9"/><polygon class="b" points="5662.89 367.5 5661.45 368.93 5662.89 370.36 5664.4 368.93 5662.89 367.5"/><polygon class="b" points="5352.44 278.94 5351.01 280.38 5352.44 281.81 5353.95 280.38 5352.44 278.94"/><polygon class="b" points="5276.67 179.94 5275.23 181.38 5276.67 182.81 5278.18 181.38 5276.67 179.94"/><polygon class="b" points="5506.07 218.98 5505.28 219.77 5506.07 220.56 5506.91 219.77 5506.07 218.98"/><polygon class="a" points="4559.89 326 4558.45 327.43 4559.89 328.86 4561.4 327.43 4559.89 326"/><polygon class="b" points="4475.72 55.73 4474.29 57.17 4475.72 58.6 4477.23 57.17 4475.72 55.73"/><polygon class="b" points="4629.8 74.32 4628.37 75.75 4629.8 77.18 4631.32 75.75 4629.8 74.32"/><polygon class="b" points="4842.22 146.24 4840.79 147.67 4842.22 149.1 4843.73 147.67 4842.22 146.24"/><polygon class="b" points="5085.44 85.94 5084.01 87.38 5085.44 88.81 5086.95 87.38 5085.44 85.94"/><polygon class="b" points="4994.11 148.11 4992.68 149.54 4994.11 150.97 4995.62 149.54 4994.11 148.11"/><polygon class="b" points="5141.11 218.17 5139.68 219.6 5141.11 221.03 5142.62 219.6 5141.11 218.17"/><polygon class="b" points="5039 221.17 5037.57 222.6 5039 224.03 5040.51 222.6 5039 221.17"/><polygon class="b" points="4860.11 282.94 4858.68 284.38 4860.11 285.81 4861.62 284.38 4860.11 282.94"/><polygon class="b" points="4633.89 283.5 4632.45 284.93 4633.89 286.36 4635.4 284.93 4633.89 283.5"/><polygon class="a" points="4832.22 357.28 4830.79 358.71 4832.22 360.14 4833.73 358.71 4832.22 357.28"/><polygon class="b" points="5058.33 293.67 5056.9 295.1 5058.33 296.53 5059.84 295.1 5058.33 293.67"/><polygon class="b" points="5495.2 128.18 5493.77 129.61 5495.2 131.04 5496.71 129.61 5495.2 128.18"/><polygon class="b" points="5931.78 64.9 5930.35 66.33 5931.78 67.77 5933.29 66.33 5931.78 64.9"/><polygon class="b" points="4062.25 489.76 4060.82 491.19 4062.25 492.63 4063.76 491.19 4062.25 489.76"/><polygon class="b" points="4162.64 449.51 4161.21 450.94 4162.64 452.38 4164.15 450.94 4162.64 449.51"/><polygon class="e" points="1417.28 592.53 1415.85 593.96 1417.28 595.39 1418.79 593.96 1417.28 592.53"/><polygon class="b" points="1045.03 679.71 1043.6 681.14 1045.03 682.57 1046.54 681.14 1045.03 679.71"/><polygon class="b" points="1170.16 651.35 1169.37 652.14 1170.16 652.93 1170.99 652.14 1170.16 651.35"/><polygon class="b" points="420.36 1000.21 418.93 1001.64 420.36 1003.07 421.87 1001.64 420.36 1000.21"/><polygon class="b" points="621.45 756.11 620.01 757.54 621.45 758.97 622.96 757.54 621.45 756.11"/><polygon class="b" points="613.61 814.78 612.18 816.21 613.61 817.64 615.12 816.21 613.61 814.78"/><polygon class="b" points="733.25 716.15 731.82 717.58 733.25 719.02 734.76 717.58 733.25 716.15"/><polygon class="b" points="926.47 886.37 925.04 887.81 926.47 889.24 927.99 887.81 926.47 886.37"/><polygon class="b" points="720.58 957.15 719.15 958.58 720.58 960.02 722.1 958.58 720.58 957.15"/><polygon class="b" points="267.14 944.6 265.71 946.03 267.14 947.46 268.65 946.03 267.14 944.6"/><polygon class="b" points="242.92 833.15 241.49 834.58 242.92 836.02 244.43 834.58 242.92 833.15"/><polygon class="b" points="125.14 734.15 123.71 735.58 125.14 737.02 126.65 735.58 125.14 734.15"/><polygon class="b" points="579.71 751.83 578.92 752.63 579.71 753.42 580.55 752.63 579.71 751.83"/><polygon class="b" points="863.6 827.46 862.81 828.25 863.6 829.04 864.44 828.25 863.6 827.46"/><polygon class="b" points="328.67 676.39 327.24 677.82 328.67 679.25 330.18 677.82 328.67 676.39"/><polygon class="b" points="567.03 602.39 565.6 603.82 567.03 605.25 568.54 603.82 567.03 602.39"/><polygon class="b" points="841.48 678.47 840.04 679.9 841.48 681.33 842.99 679.9 841.48 678.47"/></svg>