<svg xmlns="http://www.w3.org/2000/svg" xmlns:xlink="http://www.w3.org/1999/xlink" width="15361" height="1440" viewBox="0 0 15361 1440"><defs><style>.a{fill:#42a5f5;}.b,.c{opacity:0.5;}.b{fill:url(#a);}.c{fill:url(#b);}</style><linearGradient id="a" x1="6559.38" y1="215.46" x2="6900.46" y2="215.46" gradientUnits="userSpaceOnUse"><stop offset="0.28" stop-color="#fff" stop-opacity="0"/><stop offset="0.46" stop-color="#fff" stop-opacity="0.01"/><stop offset="0.58" stop-color="#fff" stop-opacity="0.05"/><stop offset="0.69" stop-color="#fff" stop-opacity="0.11"/><stop offset="0.79" stop-color="#fff" stop-opacity="0.19"/><stop offset="0.88" stop-color="#fff" stop-opacity="0.31"/><stop offset="0.97" stop-color="#fff" stop-opacity="0.44"/><stop offset="1" stop-color="#fff" stop-opacity="0.5"/></linearGradient><linearGradient id="b" x1="6555.71" y1="214.85" x2="6897.26" y2="214.85" gradientUnits="userSpaceOnUse"><stop offset="0.49" stop-color="#fff" stop-opacity="0"/><stop offset="0.62" stop-color="#fff" stop-opacity="0.01"/><stop offset="0.7" stop-color="#fff" stop-opacity="0.05"/><stop offset="0.78" stop-color="#fff" stop-opacity="0.11"/><stop offset="0.85" stop-color="#fff" stop-opacity="0.19"/><stop offset="0.92" stop-color="#fff" stop-opacity="0.31"/><stop offset="0.98" stop-color="#fff" stop-opacity="0.44"/><stop offset="1" stop-color="#fff" stop-opacity="0.5"/></linearGradient></defs><path class="a" d="M6869.86,158.51l-4.27-1.43,1.42-.71,3.21.36-3.56-6.41,1.25-.56,7.3,4.83h5s7.13-1.42,7.13-2.14-5.7-2.85-5.7-2.85l-2.14-2.85h.71l2.85,2.14,7.84,2.14,17.1-5s5.7-1.42,7.12-.71c0,0,2.85,0,2.85.71s-2.13,2.85-4.27,3.56-12.82,3.57-12.82,3.57.71,0,.71,2.13l-4.63,1.07h-.72l-.71-.71-5.7,1.42s-7.12,2.14-12.11,2.14h-7.35l-.49-.71"/><path class="b" d="M6896.83,155.69s-1.42,2.14-10.68,4.28-172.41,57.71-197.35,66.26-119,49.15-119,49.15L6557.71,249s103.31-21.37,127.53-27.78,197.34-61.27,198.77-62a68.28,68.28,0,0,1,14.25-3.25S6898.32,155.21,6896.83,155.69Z"/><path class="c" d="M6893.17,155.19s-1.43,2.14-10.69,4.28-172.41,57.71-197.35,66.26-119,49.15-119,49.15l-12.11-26.36s103.3-21.37,127.52-27.78,197.35-61.27,198.77-62a68.59,68.59,0,0,1,14.25-3.25S6896.32,154.21,6893.17,155.19Z"/></svg>