<svg xmlns="http://www.w3.org/2000/svg" width="15361" height="1440" viewBox="0 0 15361 1440"><defs><style>.a{fill:#0288d1;}.b{fill:#03a9f4;}.c{fill:#90caf9;}</style></defs><path class="a" d="M7566,1302.12H4525l-1.25-769.73s11.64-9,15.82-10,12.44-10,14.31-12.5,10.7-20.06,11.29-22.29,9.47-1.22,13-4.22,11.5-11.34,13.53-12.67,34.39,6,34.39,6,1.89,1.05,6.51-.89,15.63-2.94,15.63-2.94l6,2,16,18.83,2.44,4.89,8.06,9.77,13.5-8.33,6-29.16,3,19,4-6,4,14h-3l-1,5h7l3,2,5.5-9.5s4.5-5.5,5.5-4.5,13.5,2.25,13.5,2.25,7.17-.74,9.33,0,10.17-.74,11.67,0,8.5,1.75,9.5,1.75,4.67.51,5.83-1.75,5.17-4.25,5.17-4.25,6,9,8,9,15,2,17,1,8-1,12-3,7-3,11-1,16,4,17,4,10-2,15-2a10.41,10.41,0,0,0,7.83-3.75V481.38s-5.83-2.5-4.83-3.5,4.83-6.17,4.83-6.17a4.57,4.57,0,0,0,0-3.67,66.28,66.28,0,0,1-1.83-8.16s4-6,7-4,9,5,9,5l16.38,5.5,9.62-2.5,2-5,6-3s9.66-3,10.83-2,6.17,1,7.17,2,1,0,4-1a14.09,14.09,0,0,0,5-3l11-27,4,9,10-22,4,20h-4v6l2,4s3,2,4,2,7-1,7-1l5,2v-5.17a32,32,0,0,0,4-2.83c1-1,6-10,6-10l5-23,4,22,8,1s2-4,3-3,8,4,9,5,7-2,14-5,9-7,9-7l9-6,5-25,4,17,4-10,6,14,6.16-21,4.84,11s6-1,7-2-6-3,3-2,19,2,19,2,7-5,9-6,14.66-1,15.83-3,11.17-1,14.17-3,4-3,6-3,16-4,16-4l9-8s1,10,2,9,10-21,10-21l4,20,7-8,6,7,5-5,9,14,7-6,3,6,6-1,3,7s14,1,15,2,12,3,12,3a11.91,11.91,0,0,0,2,6c2,3,8,1,15,5s19,9,19,11,13,10,13,10,23,13,27,19,25,21,37,30,29,26,31,31,.66,23,9.83,26.51l4.17-12.51,1,9,2-2,4,15h7l1,4s20,1.66,21,1.33,8,.67,8,.67l6,3s4,3,5,3,13,8,13.5,8,3.83,1,7.17,1.5,8.66-1.5,9.5,0,5.83,3.5,7.83,4.5,6,1,7.5,2,7.5-1,9.5,1,6,3,7,5,5,8,6,8,6,5,7.5,11.5H5601s-.5-6.5,4.84-9.5,16.33-10,19.33-14,4-11,8-13,5-3,9-4,12-3,14-4,14-2,18-6,8-11,9-12a55.47,55.47,0,0,0,6-8c1-2,6-33,6-33l3,13,5-31,3,21h-2l1,4s4,2,6,1,7-1,7-3,2-7,3-8,8-3,11-4,10-1,10-1l4-21,6,30,4-3,6,2s6,3,7,4,4,2,8,3,10,6,10,7,11,6,14,6,8.33,4,8.17,5.5,10.83,7.5,11.83,8.5,11,5,12,7,5,9,6,10,14,3,19,5,6-1,9,3,10,9,11,10,1-7,8-11,20-5,27-7,7-4,7-4l6-17,3,8,5-17,2,7h2c2,0,3-1,5-2s3,0,5-1,5-2,5-3,4-16,4-16l1,10s-1-1,4-3,5-2,8-2a8.45,8.45,0,0,0,6-2,7.69,7.69,0,0,1,3-2c2-1,4-2,5-2s8-3,8-3l3-16,3,15,3-7,5,10s0,2,4,2,5,0,7,2,4,5,5,6,6,8,7,9,6,4,6,6,4,5,4,7,3,4,5,6,7,1,12,5-3,3,8,8,17,3,24,3,24-5,25-7-1-1,3-5,2-7,11-8,10-4,10-4l4-21,4,14h-2s2,5,2,5.5,2,2.5,5-.5,5-4,6-6,5-4,9-7,8-4,9-5a17.06,17.06,0,0,1,11-6c7-1,20-1,21-6s9-30,9-30l2.67,11.24,3.33-5.24,5,8,7-14,3,8,4-5,4,14,8-16,2,17s1,3,4,0,4-3,7-3a22,22,0,0,1,8,1c3,1,5,2,7,0s4,3,4,3l3-14,2,11,3-9,2.5,4.24,2.5-3.24,3,12,4-4s1-1,6-1,5-2,9,0,7,4,8,2-1-5,3-3,9,3,9,4,3,2,2,5,1,4,2,5,7,3,8,4,4,4,4,5,3,5,4,6,10,3,11,5a14.45,14.45,0,0,0,9,8c6,2,12-1,13,3s0,6,4,8,17,8,17,8,5,6,6,10,8,10,13,11,15,3,15,7,3,7,10,9,16,3,15,6-8,3,1,8,15,4,23,10,17,10,21,13,1,9,1,10,3,11,3,12-2,1-1,4a37.11,37.11,0,0,1,2,9c0,2,4,4,6,6s10,4,12,1,5-3,7-3,7,2,7,2l8-24,5,17,3-8,5.33,17.52a10,10,0,0,0,7.67-.52c4-2,8-4,11-3a117.31,117.31,0,0,1,11,5c2,1,10,3,13,2s5,0,14,3,14,4,16,6,27,8,24,12-5,13-3,15,4,7,11,8,11.67,1,15.83,0,23.5,0,25.34,0,17.83-2,19.83,5,7,5,5,12,8,21,12,25,5,14,15,18,20,4,27,10,14,17,22,23a38.64,38.64,0,0,0,17,7l7-19,5,17,4-5,3.16,7s6.5,2,8.67,0,6.17-2,7.17-1,9.33.77,10.16,1.88,4.17.89,7,0,10.84,2.12,10.84,2.12l4-13,4.83,13s-4.5-2-2.67-1a48.19,48.19,0,0,1,6.84,5c1,1,4,7,6,11s3,19,2,22,6,13,9,15l3-4,2,6,2-2,1.5,8.5a6.33,6.33,0,0,0,3,2c2.05.68,19.38-3.11,20.5-3a54.81,54.81,0,0,0,22.5-3s32.5,12.94,38.5,9.22c0,0,5.75,5.52,8.75,4.52s8.78-7,8.89-3,9.77,9,9.77,9h6.67c2.67,0,6.45-3,11.56,0s12.61,7.45,12.61,7.45,3.72,3.28,5.61,3.92,6.44,1.14,10.67,3.89,7.77,6.11,8,8.43a18.84,18.84,0,0,0,3.55,8.42c1.67,1.89,12.45,3.16,15.56,2s5.55,3.08,5.33-2,8.44-6.48,8.44-6.48a21,21,0,0,1-.88,5.28c-.78,2.09-1.12,3.24-.45,5.17s10.67,3.47,13.17,4.2a45.39,45.39,0,0,0,7.5,1l8.9-8.91.1,6.66,2-2v7l8,2s6,1,7,2,1,2,2,2h3c2,0,3-1,6,0s4,1,6,3,5,3,6,4,8,2,8,1,5-3,6-3,7,1,8,2l3,3,3-9,1,11,2-3,1,4,5-6v6s2,3,4,2a5.4,5.4,0,0,1,5.5,0,12.49,12.49,0,0,1,2.59,2.1c.91.9,1.91.9,2.91,1.9s4.33,2.6,6.16,2.3,3.17,1.57,5,2.64,5.17,3,7.5,2.53,4.34,1.74,4.34,2.64,1,.23,4,1.56,6.33,1.55,7.66,1.94,4,.94,5.17,1.67,1.83.34,2.5,2.53a3.52,3.52,0,0,0,4.17,2.64c1.5-.45,6.16.55,6.16.55s3.95,0,3.64,1,.7,1.29,2.2,2.64-.5-1.48,4,1.94,4.83,2.3,5.16,3.86,1.51,2.55.92,5.55-4.47,2.32,1,4.16,13.25,3.54,13.25,3.54,5.53,1,6.86,1.63,6.67,2.41,9,3.54,9.29,3.07,9.82,2.6,12.91-1.85,14.21-.66,2.31,1.27,3.31,3.23,3,5,5.5,5,8.83-1,9.66,0,5.67,3,5.67,3a13.93,13.93,0,0,1,3.17,2c1,1,10.5,3,10.5,3a8.72,8.72,0,0,0,2.5,4.2,31.19,31.19,0,0,0,7,4.51c1,.31,7-.37,8.5,1s8.5,3.12,10,3.23,8.5.69,11.5-1.6,6.33-5.05,9.16-5.17,5.84,3.58,7.34,3.23,4.65-8.71,6.07-10,10.43-3.32,13.93-5.82,2-5.5,4.23-3.5,10.93,5.64,8.6,9.32-7.67,7.12-7.5,8.4,4.17,2.28,4.17,4.28,1.66,3.06,3.83,7,2.17,3,5.17,7,7,4,7,6-2,0,2,3.52,14.85,14.54,14.85,14.54c8.15,4.94,10.93,5.66,11,7.8s1-1.16-.45,6.49,3.56,15.14,7.56,18.4,8.89,5.26,8.44,7.26.56,15-.44,16,.44,4,.44,4v172"/><path class="a" d="M6928,894.69V875.78s2.18-24.46,23.59-24.46S6976,875.78,6976,875.78v26.69h9V875.78s2-24.46,24-24.46,24,24.46,24,24.46v37.81h9V875.78s1.91-24.46,23.46-24.46S7090,875.78,7090,875.78v56.71h9V875.78s2-24.46,24-24.46,24,24.46,24,24.46v90.07h9V875.78s1.67-24.46,22.84-24.46,25.16,18.9,25.16,24.46V983.65h9V875.78s1-24.43,25-24.43,23,24.43,23,24.43v125.66h9V875.78s1.33-24.46,22.66-24.46,25.34,18.9,25.34,24.46V1047h9V875.78s2-24.46,24-24.46,24,24.46,24,24.46v179h8v-179s1-24.46,24-24.46,24,24.46,24,24.46v208h9v-208s0-24.46,24-24.46,24.5,27.24,24.5,27.24v191.82h7.5V878s.55-26.69,23.78-26.69S7545,875.78,7545,875.78V1164.9h9V875.78s0-24.46,24-24.46,24,24.46,24,24.46v291.34h9V839.46H6869V895.8Z"/><path class="a" d="M434.64,1303.13H4523.08l1.68-769.74s-15.65-9-21.27-10-16.72-10-19.23-12.5-14.4-20.06-15.18-22.29-12.73-1.22-17.51-4.22-15.46-11.34-18.19-12.67-46.24,6-46.24,6-2.53,1.05-8.75-.89-21-2.94-21-2.94l-8.07,2-21.51,18.83-3.29,4.89-10.82,9.78L4295.53,501l-8.06-29.16-4,19-5.38-6-5.38,14h4l1.35,5h-9.41l-4,2-7.39-9.5s-6.05-5.5-7.39-4.5-18.15,2.25-18.15,2.25-9.64-.74-12.55,0-13.67-.74-15.69,0-11.42,1.75-12.77,1.75-6.27.51-7.84-1.75-6.95-4.25-6.95-4.25-8.06,9-10.75,9-20.17,2-22.86,1-10.75-1-16.13-3-9.41-3-14.79-1-21.51,4-22.86,4-13.44-2-20.16-2a15.75,15.75,0,0,1-10.54-3.75V482.38s7.85-2.5,6.5-3.5-6.5-6.17-6.5-6.17a3.53,3.53,0,0,1,0-3.67c1.13-2.16,2.47-8.16,2.47-8.16s-5.38-6-9.41-4-12.1,5-12.1,5l-22,5.5-12.94-2.5-2.69-5-8.06-3s-13-3-14.57-2-8.29,1-9.63,2-1.35,0-5.38-1a20.64,20.64,0,0,1-6.72-3l-14.79-27-5.38,9-13.44-22-5.38,20h5.38v6l-2.69,4s-4,2-5.38,2-9.41-1-9.41-1l-6.72,2v-5.17a45.25,45.25,0,0,1-5.38-2.83c-1.35-1-8.07-10-8.07-10l-6.72-23-5.38,22-10.75,1s-2.69-4-4-3-10.75,4-12.1,5-9.41-2-18.82-5-12.1-7-12.1-7l-12.1-6-6.72-25-5.38,17-5.38-10-8.06,14-8.29-21-6.5,11s-8.07-1-9.41-2,8.06-3-4-2-25.54,2-25.54,2-9.41-5-12.1-6-19.72-1-21.29-3-15-1-19-3-5.38-3-8.07-3-21.51-4-21.51-4l-12.1-8s-1.35,10-2.69,9-13.45-21-13.45-21l-5.37,20-9.41-8-8.07,7-6.72-5-12.1,14-9.41-6-4,6-8.06-1-4,7s-18.82,1-20.16,2-16.14,3-16.14,3a9.83,9.83,0,0,1-2.69,6c-2.68,3-10.75,1-20.16,5s-25.55,9-25.55,11-17.47,10-17.47,10-30.93,13-36.3,19-33.62,21-49.75,30-39,26-41.68,31-.89,23-13.22,26.51l-5.6-12.51-1.34,9-2.69-2-5.38,15h-9.45l-1.31,4s-26.88,1.66-28.23,1.33-10.75.67-10.75.67l-8.07,3s-5.38,3-6.72,3-17.48,8-18.15,8-5.16,1-9.64,1.5-11.65-1.5-12.77,0-7.84,3.5-10.53,4.5-8.07,1-10.09,2-10.08-1-12.77,1-8.06,3-9.41,5-6.72,8-8.07,8-8.06,5-10.08,11.5h-46.16s.67-6.5-6.5-9.5-22-10-26-14-5.38-11-10.75-13-6.73-3-12.1-4-16.14-3-18.83-4-18.82-2-24.2-6-10.75-11-12.1-12-6.72-6-8.06-8-8.07-33-8.07-33l-4,13-6.72-31-4,21h2.69l-1.34,4s-5.38,2-8.07,1-9.41-1-9.41-3-2.69-7-4-8-10.76-3-14.79-4-13.45-1-13.45-1l-5.38-21-8.06,30-5.38-3-8.07,2s-8.06,3-9.41,4-5.38,2-10.75,3-13.45,6-13.45,7-14.79,6-18.82,6-11.2,4-11,5.5-14.56,7.5-15.91,8.5-14.79,5-16.13,7-6.72,9-8.07,10-18.82,3-25.54,5-8.07-1-12.1,3-13.45,9-14.79,10-1.35-7-10.76-11-26.89-5-36.3-7-9.41-4-9.41-4l-8.07-17-4,8-6.72-17-2.69,7h-2.69c-2.69,0-4-1-6.72-2s-4,0-6.72-1-6.73-2-6.73-3-5.37-16-5.37-16l-1.35,10s1.35-1-5.38-3-6.72-2-10.75-2-6.72-1-8.07-2-1.34-1-4-2-5.38-2-6.72-2-10.76-3-10.76-3l-4-16-4,15-4-7-6.72,10s0,2-5.38,2-6.72,0-9.41,2-5.38,5-6.72,6-8.07,8-9.41,9-8.07,4-8.07,6-5.38,5-5.38,7-4,4-6.72,6-9.41,1-16.13,5,4,3-10.76,8-22.85,3-32.27,3-32.26-5-33.61-7,1.35-1-4-5-2.69-7-14.79-8-13.44-4-13.44-4l-5.38-21-5.38,14h2.69a56.75,56.75,0,0,0-2.69,5.5c0,.5-2.69,2.5-6.72-.5s-6.72-4-8.07-6-6.72-4-12.1-7-10.75-4-12.1-5-5.37-5-14.79-6-26.88-1-28.23-6-12.1-30-12.1-30l-3.58,11.25-4.49-5.25-6.72,8-9.41-14-4,8-5.38-5-5.38,14-10.75-16-2.69,17s-1.35,3-5.38,0-5.38-3-9.41-3a39.31,39.31,0,0,0-10.76,1c-4,1-6.72,2-9.41,0s-5.38,3-5.38,3l-4-14-2.69,11-4-9-3.36,4.25-3.36-3.25-4,12-5.37-4s-1.35-1-8.07-1-6.72-2-12.1,0-9.41,4-10.76,2,1.35-5-4-3-12.1,3-12.1,4-4,2-2.69,5-1.34,4-2.69,5-9.41,3-10.75,4-5.38,4-5.38,5-4,5-5.38,6-13.44,3-14.79,5-4,6-12.1,8-16.13-1-17.48,3,0,6-5.37,8-22.86,8-22.86,8-6.72,6-8.07,10-10.75,10-17.47,11-20.17,3-20.17,7-4,7-13.44,9-21.52,3-20.17,6,10.75,3-1.35,8-20.16,4-30.92,10-22.85,10-28.23,13-1.35,9-1.35,10-4,11-4,12,2.69,1,1.35,4-2.69,7-2.69,9-5.38,4-8.07,6-13.44,4-16.13,1-6.73-3-9.41-3-9.42,2-9.42,2l-10.75-24-6.72,17-4-8-7.17,17.53a17.79,17.79,0,0,1-10.3-.53c-5.38-2-10.76-4-14.79-3s-12.1,4-14.79,5-13.45,3-17.48,2-6.72,0-18.82,3-18.82,4-21.51,6-36.3,8-32.27,12,6.72,13,4,15-5.37,7-14.78,8-15.69,1-21.29,0-31.6,0-34.06,0-24-2-26.67,5-9.41,5-6.72,12-10.75,21-16.13,25-6.72,14-20.17,18-26.89,4-36.3,10-18.82,17-29.58,23a63.71,63.71,0,0,1-22.85,7l-9.41-19-6.72,17-5.38-5-4.26,7s-8.74,2-11.65,0-8.29-2-9.64-1-12.54.77-13.67,1.88-5.6.89-9.41,0-14.56,2.12-14.56,2.12l-5.38-13-6.5,13s6-2,3.59-1a67.93,67.93,0,0,0-9.19,5c-1.34,1-5.38,7-8.07,11s-4,19-2.68,22-8.07,13-12.1,15l-4-4-2.69,6-2.69-2-2,8.5a8.88,8.88,0,0,1-4,2c-2.76.68-26-3.11-27.56-3a96.94,96.94,0,0,1-30.25-3s-43.69,12.94-51.76,9.22c0,0-7.73,5.53-11.76,4.53s-11.8-7-12-3-13.15,9-13.15,9h-9c-3.59,0-8.66-3-15.54,0s-17,7.44-17,7.44-5,3.28-7.54,3.92-8.67,1.14-14.35,3.89-10.45,6.11-10.75,8.43a16.78,16.78,0,0,1-4.78,8.42c-2.24,1.9-16.73,3.16-20.91,2s-7.47,3.08-7.18-2-11.35-6.48-11.35-6.48a15.88,15.88,0,0,0,1.2,5.28c1,2.1,1.49,3.24.59,5.17s-14.34,3.47-17.7,4.2a79.13,79.13,0,0,1-10.08,1l-12-8.91-.13,6.67-2.69-2v7l-10.76,2s-8.06,1-9.41,2-1.34,2-2.69,2h-4c-2.69,0-4-1-8.07,0s-5.37,1-8.06,3-6.72,3-8.07,4-10.75,2-10.75,1-6.73-3-8.07-3-9.41,1-10.76,2l-4,3-4-9-1.35,11-2.69-3-1.34,4-6.72-6v6s-2.69,3-5.38,2a9.46,9.46,0,0,0-7.4,0,17.14,17.14,0,0,0-3.48,2.09c-1.22.91-2.57.91-3.91,1.91s-5.83,2.59-8.29,2.29-4.26,1.57-6.72,2.64-6.95,3-10.09,2.53-5.82,1.74-5.82,2.64-1.35.23-5.38,1.56-8.51,1.55-10.31,1.94-5.37.94-6.94,1.67-2.47.34-3.36,2.53-3.59,3.08-5.61,2.64-8.29.56-8.29.56-5.3,0-4.89,1-.93,1.29-3,2.64.67-1.48-5.38,1.94-6.5,2.3-6.94,3.86-2,2.56-1.24,5.56,6,2.31-1.3,4.15-17.82,3.54-17.82,3.54-7.43,1-9.22,1.63-9,2.41-12.1,3.54-12.49,3.07-13.19,2.6-17.36-1.85-19.12-.66-3.09,1.27-4.44,3.23-4,5-7.39,5-11.88-1-13,0-7.62,3-7.62,3a20.81,20.81,0,0,0-4.26,2c-1.34,1-14.11,3-14.11,3a8.4,8.4,0,0,1-3.36,4.2,45.42,45.42,0,0,1-9.41,4.51c-1.35.32-9.42-.37-11.43,1s-11.43,3.12-13.45,3.24-11.42.68-15.46-1.61-8.51-5.05-12.32-5.17-7.84,3.58-9.86,3.23-6.25-8.71-8.17-10-14-3.31-18.72-5.81-2.64-5.5-5.69-3.5-14.7,5.63-11.56,9.31,10.3,7.12,10.08,8.4-5.6,2.29-5.6,4.29-2.24,3-5.16,7-2.91,3-6.94,7-9.41,4-9.41,6,2.69,0-2.69,3.51-20,14.54-20,14.54c-11,5-14.69,5.66-14.84,7.8s-1.34-1.16.6,6.49-4.78,15.14-10.16,18.4-11.95,5.26-11.35,7.26-.75,15,.6,16-.6,4-.6,4v172"/><path class="a" d="M5061.71,315.62c-.07-14.87-22.68-14.87-22.74,0,0,6.28,7.1,15.53,11.37,15.53C5053.65,331.15,5061.71,321.9,5061.71,315.62Z"/><path class="a" d="M5051.15,335.31c-2.81.32-2.19-.67-2.23-2.85h2.84C5051.61,333,5052.2,335.36,5051.15,335.31Z"/><polyline class="a" points="5047.26 326.07 5049.15 333.17 5051.52 333.17 5052.94 326.07"/><path class="a" d="M4466.71,128.62c-.07-14.87-22.68-14.87-22.74,0,0,6.28,7.1,15.53,11.37,15.53C4458.65,144.15,4466.71,134.9,4466.71,128.62Z"/><path class="a" d="M4456.15,148.31c-2.81.32-2.19-.67-2.23-2.85h2.84C4456.61,146,4457.2,148.36,4456.15,148.31Z"/><polyline class="a" points="4452.26 139.07 4454.15 146.17 4456.52 146.17 4457.94 139.07"/><path class="a" d="M4264.34,184.23c.18-12.91-19.55-12.91-19.37,0,0,5.49,6.05,13.59,9.68,13.59C4257.48,197.83,4264.34,189.73,4264.34,184.23Z"/><path class="a" d="M4255.26,201.47c-2.27.33-1.79-.83-1.82-2.49h2.42C4255.74,199.52,4256.26,201.51,4255.26,201.47Z"/><polyline class="a" points="4252.03 193.38 4253.65 199.6 4255.66 199.6 4256.87 193.38"/><path class="a" d="M1815.64,282.8a7.15,7.15,0,0,0-14.3,0c0,3.95,4.47,9.77,7.15,9.77C1810.58,292.57,1815.64,286.75,1815.64,282.8Z"/><path class="a" d="M1807.6,293.4h1.79a0,0,0,0,1,0,0v1.18a.6.6,0,0,1-.6.6h-.58a.6.6,0,0,1-.6-.6V293.4A0,0,0,0,1,1807.6,293.4Z"/><polyline class="a" points="1806.55 289.37 1807.74 293.84 1809.23 293.84 1810.13 289.37"/><path class="a" d="M1928.26,286.58a7.15,7.15,0,1,0-14.3,0c0,3.95,4.47,9.76,7.15,9.76C1923.19,296.34,1928.26,290.53,1928.26,286.58Z"/><path class="a" d="M1920.21,297.17H1922a0,0,0,0,1,0,0v1.18a.6.6,0,0,1-.6.6h-.58a.6.6,0,0,1-.6-.6v-1.18A0,0,0,0,1,1920.21,297.17Z"/><polyline class="a" points="1919.17 293.15 1920.36 297.62 1921.85 297.62 1922.75 293.15"/><path class="a" d="M10284.71,170.62c-.07-14.87-22.68-14.87-22.74,0,0,6.28,7.1,15.53,11.37,15.53C10276.65,186.15,10284.71,176.9,10284.71,170.62Z"/><path class="a" d="M10274.15,190.31c-2.81.32-2.19-.67-2.23-2.85h2.84C10274.61,188,10275.2,190.36,10274.15,190.31Z"/><polyline class="a" points="10270.26 181.07 10272.15 188.17 10274.52 188.17 10275.94 181.07"/><path class="a" d="M12811.71,354.62c-.07-14.87-22.68-14.87-22.74,0,0,6.28,7.1,15.53,11.37,15.53C12803.65,370.15,12811.71,360.9,12811.71,354.62Z"/><path class="a" d="M12801.15,374.31c-2.81.32-2.19-.67-2.23-2.85h2.84C12801.61,372,12802.2,374.36,12801.15,374.31Z"/><polyline class="a" points="12797.26 365.07 12799.15 372.17 12801.52 372.17 12802.94 365.07"/><path class="a" d="M12957.48,403.87c.18-12.44-19.36-12.44-19.18,0,0,5.29,6,13.09,9.59,13.09C12950.69,417,12957.48,409.16,12957.48,403.87Z"/><path class="a" d="M12948.49,420.47c-2.2.31-1.79-.75-1.8-2.4h2.4C12949,418.61,12949.48,420.51,12948.49,420.47Z"/><polyline class="a" points="12945.3 412.68 12946.89 418.67 12948.89 418.67 12950.09 412.68"/><path class="a" d="M8489.34,441.48c.17-13.24-18.88-13.24-18.7,0,0,5.63,5.84,13.93,9.35,13.93C8482.71,455.41,8489.34,447.11,8489.34,441.48Z"/><path class="a" d="M8480.55,459.14c-2.26.35-1.67-1-1.73-2.55h2.34C8481,457.13,8481.56,459.18,8480.55,459.14Z"/><polyline class="a" points="8477.45 450.85 8479.01 457.23 8480.96 457.23 8482.13 450.85"/><path class="a" d="M7026.88,765.31c-.08-17-23.81-17-23.89,0,0,7.2,7.46,17.8,11.94,17.8C7018.42,783.11,7026.88,772.51,7026.88,765.31Z"/><path class="a" d="M7015.82,787.88c-3.25.37-2.23-.9-2.38-3.26h3C7016.26,785.17,7016.92,787.94,7015.82,787.88Z"/><polyline class="a" points="7011.7 777.29 7013.69 785.43 7016.18 785.43 7017.67 777.29"/><path class="b" d="M6780.25,941.32s3,13.65,6.07,15.16,1.51,24.26,1.51,24.26-3-7.58-4.51-9.09,1.51-13.65-1.52-15.17-1.55-15.16-1.55-15.16"/><polygon class="b" points="7123.96 978.32 7118.96 964.32 7121.96 976.32 7123.96 978.32"/><polygon class="b" points="7040.96 886.32 7042.96 891.32 7041.96 890.32 7040.96 886.32"/><polygon class="b" points="6844.96 839.32 6848.13 848.32 6846.96 847.32 6844.96 839.32"/><path class="b" d="M6804,786.32a79.8,79.8,0,0,1-7-4.58c-1-1-4,2.58-4,2.58s1,0,1,2,1,11,6,16a15.66,15.66,0,0,1-1-7.58s2,1.58,4,3.58C6803,798.32,6798,791.32,6804,786.32Z"/><polygon class="b" points="6924.18 869.32 6929.04 880.65 6925.8 877.41 6924.18 869.32"/><polygon class="b" points="6914 865.94 6917.24 875.65 6914 872.05 6914 865.94"/><path class="b" d="M6725,757.32a2.94,2.94,0,0,1-3,3s2,0,5,4A13.83,13.83,0,0,1,6725,757.32Z"/><polygon class="b" points="6622.96 714.32 6625.96 725.32 6623.96 722.32 6622.96 714.32"/><path class="b" d="M6427,644c1.09,0,8.17-1.64,8.17-1.64s2.44.31,3.9.69a2.6,2.6,0,0,1,1,.4c.55.55,4.9,9.25,5.44,9.25s4.9,2.18,4.9,2.72,3.27,3.27,3.27,4.9,1.63,4.35,1.63,4.35l7.07,3.27s4.36,4.9,5.45,6,4.89,2.72,6,4.35,2.18,3.81,5.44,4.35,4.36.55,4.9,1.09a48.49,48.49,0,0,0,4.9,2.72s-5.93,1.63-6.23,1.09a5.14,5.14,0,0,0-3.57-2.18c-1.63,0-2.72-.54-3.8-.54a15.74,15.74,0,0,1-4.9-1.09c-1.09-.54,0,0-2.72-2.72s-2.72-2.18-3.81-3.26l-3.27-3.27c-1.09-1.09-2.72-3.27-3.26-3.81a8.57,8.57,0,0,0-3.27-2.18c-1.63-.54-3.81-1.63-4.9-1.63s-1.08-2.72-1.63-3.81a3.48,3.48,0,0,1,0-3.26c.55-1.09,1.09-.55-.54-2.18s-1.64-2.72-3.27-2.72-1.09,2.72-2.72-.55-1.63-3.8-2.18-4.35-2.72-2.18-2.72-3.26-3.81-3.27-5.44-2.72A8.16,8.16,0,0,1,6427,644Z"/><polygon class="b" points="6072.93 574.32 6079 596.59 6074.95 590.52 6072.93 574.32"/><polyline class="b" points="6036.26 592.35 6035.13 583.35 6038.51 595.72"/><polyline class="b" points="6074.95 590.52 6072.93 574.32 6079 596.59"/><polyline class="b" points="6052.45 586.27 6051.33 577.27 6054.7 589.65"/><polygon class="b" points="6031.76 609.67 6037.83 631.94 6033.78 625.87 6031.76 609.67"/><polyline class="b" points="5995.09 627.7 5993.96 618.7 5997.34 631.07"/><polyline class="b" points="6033.78 625.87 6031.76 609.67 6037.83 631.94"/><path class="b" d="M5803.63,568s.91-1.37,6.39,1.37,11,0,11,2.74,13.71,8.23,13.71,8.23,11,0,13.7,2.74,13.71,11,13.71,11,5.48,0,8.22,2.74,13.71,2.74,16.45,8.23,8.22,11,8.22,11-13.71-8.22-16.45-8.22-13.7-2.74-21.93-8.23-13.7-13.7-16.44-13.7-5.48-2.74-11-2.74-11,2.74-13.7-2.74-2.74-5.49-5.49-8.23A20.33,20.33,0,0,0,5803.63,568Z"/><path class="b" d="M6072.64,615.91s20.47,4,17.68,6.74,2.79,5.6,5.59,5.6,28,5.59,30.75,5.59,5.6,11.18,5.6,11.18a39.45,39.45,0,0,1,14-8.39c8.39-2.79,5.6-6.74,23.77-6.16,0,0-12.58-2.22-21,.57s-16.77-2.79-22.37-2.79-25.16,0-28-2.8-8.53-6.3-16.84-8.74Z"/><polygon class="b" points="6347.56 552.32 6351 564.95 6348.7 561.51 6347.56 552.32"/><polyline class="b" points="6326.76 562.54 6326.12 557.44 6328.03 564.46"/><polyline class="b" points="6348.7 561.51 6347.56 552.32 6351 564.95"/><polyline class="b" points="6335.94 559.1 6335.31 554 6337.22 561.01"/><polygon class="b" points="6324.21 572.37 6327.65 585 6325.36 581.55 6324.21 572.37"/><polyline class="b" points="6303.41 582.59 6302.77 577.49 6304.69 584.51"/><polyline class="b" points="6325.36 581.55 6324.21 572.37 6327.65 585"/><path class="b" d="M5279,514.32c1.07.36,7-4.58,16-2.58,4.2.94,16.32,5.94,17,6.58,1,1,10,17,10,19s4,7,10,12,14,11,19,16,27,25,27,25,2-2,16,6,19,7,27,19-4,11,15,23,32,15,34,18,11,3,11,3-31,1-34-1-29-16-31-17-13-4-14-8,1-9,1-9-1-6-4-8-3-6-7-8,0,0-9-3a71.39,71.39,0,0,1-15-7c-2-1-9-4-12-4s1-3-1-5-13-6-15-8-5-3-9-10-3-6-9-9-8-4-11-5-5-2-6-6-6-13-6-13-1,3-1-2-2-8-3-8,0,0-2-4S5279,514.32,5279,514.32Z"/><path class="b" d="M4987.47,565l15.26-6.79,3.4,13.57-3.4,6.79L5018,580.3v-8.76s-10.18-6.5-8.48-9.9,1.69-10.18,0-11.87S4987.47,565,4987.47,565Z"/><path class="b" d="M5037.13,531.5l-3.4,6.79,10.18,1.69s-2.26-6.78-1.13-8.48,6.22-3.39,6.22-3.39l-5.09-6.79Z"/><path class="b" d="M4955,540.2l10.18,3.39s4,1.7,3.67,3.39-.28,1.7,3.11,3.4,8.77,0,8.77,0-10.46,6.78-13.86,5.08-13.57-2.26-11.87-4.52a44.1,44.1,0,0,0,3.39-5.65Z"/><polygon class="b" points="4742.3 566.65 4745.3 577.65 4743.3 574.65 4742.3 566.65"/><polyline class="b" points="4724.18 575.55 4723.63 571.11 4725.3 577.22"/><polyline class="b" points="4743.3 574.65 4742.96 574.32 4745.3 577.65"/><polyline class="b" points="4732.18 572.55 4731.63 568.11 4733.3 574.22"/><polygon class="b" points="4708.96 541.11 4711.96 552.11 4709.96 549.11 4708.96 541.11"/><polyline class="b" points="4690.85 550.01 4690.3 545.57 4691.96 551.68"/><polyline class="b" points="4709.96 549.11 4708.96 541.11 4711.96 552.11"/><path class="c" d="M6304.82,389.3s5,0,9.27,7.85c0,0,10-7.14,11.42-5,0,0,2.14-4.28-10.7,1.43C6314.81,393.58,6309.81,386.45,6304.82,389.3Z"/><path class="c" d="M6293,341.49s5-3.57,5.7-11.41c0,0,7.85,7.84,10,17.83,0,0-5.7-10.7-8.56-12.13C6300.15,335.78,6298,341.49,6293,341.49Z"/><polygon class="b" points="6263.13 501 6267.25 516.12 6264.5 511.99 6263.13 501"/><polyline class="b" points="6238.24 513.23 6237.48 507.13 6239.77 515.52"/><polyline class="b" points="6264.5 511.99 6263.13 501 6267.25 516.12"/><polyline class="b" points="6249.23 509.11 6248.47 503 6250.76 511.4"/><polygon class="b" points="6235.19 524.99 6239.31 540.11 6236.56 535.98 6235.19 524.99"/><polyline class="b" points="6210.3 537.22 6209.54 531.12 6211.83 539.51"/><polyline class="b" points="6236.56 535.98 6235.19 524.99 6239.31 540.11"/><polygon class="b" points="6417.03 671.23 6420.57 684.21 6418.21 680.67 6417.03 671.23"/><polyline class="b" points="6514.43 869.9 6513.57 863.02 6516.15 872.49"/><polyline class="b" points="6418.21 680.67 6417.03 671.23 6420.57 684.21"/><polyline class="b" points="6616.1 788.2 6615.44 782.95 6617.41 790.16"/><polygon class="b" points="6604.03 801.84 6607.57 814.82 6605.21 811.28 6604.03 801.84"/><polyline class="b" points="6582.66 812.34 6582 807.1 6583.97 814.31"/><polyline class="b" points="6605.21 811.28 6604.03 801.84 6607.57 814.82"/><polygon class="b" points="6582.8 749.87 6586.34 762.86 6583.98 759.31 6582.8 749.87"/><polyline class="b" points="6249.42 616.38 6248.77 611.13 6250.74 618.35"/><polyline class="b" points="6583.98 759.31 6582.8 749.87 6586.34 762.86"/><polyline class="b" points="6570.87 756.84 6570.21 751.59 6572.18 758.81"/><polygon class="b" points="6246.8 626.48 6250.34 639.46 6247.98 635.92 6246.8 626.48"/><polyline class="b" points="6326.42 670.99 6325.77 665.74 6327.74 672.95"/><polyline class="b" points="6247.98 635.92 6246.8 626.48 6250.34 639.46"/><polygon class="b" points="6108.8 668.55 6112.34 681.53 6109.98 677.99 6108.8 668.55"/><polyline class="b" points="6087.42 679.06 6086.77 673.81 6088.74 681.02"/><polyline class="b" points="6109.98 677.99 6108.8 668.55 6112.34 681.53"/><polyline class="b" points="6096.87 675.52 6096.21 670.27 6098.18 677.48"/><polygon class="b" points="6202.8 733.16 6206.34 746.14 6203.98 742.6 6202.8 733.16"/><polyline class="b" points="6181.42 743.66 6180.77 738.42 6182.74 745.63"/><polyline class="b" points="6203.98 742.6 6202.8 733.16 6206.34 746.14"/><polygon class="b" points="6181.57 681.19 6185.11 694.18 6182.75 690.64 6181.57 681.19"/><polyline class="b" points="6182.75 690.64 6181.57 681.19 6185.11 694.18"/><polygon class="b" points="6420.8 864.55 6424.34 877.53 6421.98 873.99 6420.8 864.55"/><polyline class="b" points="6399.42 875.06 6398.77 869.81 6400.74 877.02"/><polyline class="b" points="6421.98 873.99 6420.8 864.55 6424.34 877.53"/><polyline class="b" points="6427.87 801.52 6427.21 796.27 6429.18 803.48"/><polygon class="b" points="6363.8 794.16 6367.34 807.14 6364.98 803.6 6363.8 794.16"/><polyline class="b" points="6342.42 804.66 6341.77 799.42 6343.74 806.63"/><polyline class="b" points="6364.98 803.6 6363.8 794.16 6367.34 807.14"/><polygon class="b" points="6342.57 742.19 6346.11 755.18 6343.75 751.64 6342.57 742.19"/><polyline class="b" points="6343.75 751.64 6342.57 742.19 6346.11 755.18"/><polyline class="b" points="6265.83 732.89 6265.17 727.64 6267.14 734.86"/><polyline class="b" points="6260.6 814.61 6259.94 809.36 6261.91 816.57"/><polygon class="b" points="6257.97 824.7 6261.51 837.69 6259.15 834.15 6257.97 824.7"/><polyline class="b" points="6259.15 834.15 6257.97 824.7 6261.51 837.69"/><polygon class="b" points="6455.66 591.93 6459.11 604.57 6456.81 601.12 6455.66 591.93"/><polyline class="b" points="6434.86 602.16 6434.23 597.05 6436.14 604.07"/><polyline class="b" points="6456.81 601.12 6455.66 591.93 6459.11 604.57"/><polyline class="b" points="6444.05 598.71 6443.41 593.61 6445.33 600.63"/><path class="b" d="M6229.73,701s-5.48,3.67,4.9,5.33,22.32-1,26.34,3.34,5.14,6,9.59,5.65a88.36,88.36,0,0,1,9.79,0L6287,714l-1,3s-5,3-8,3-7-1-11-2-7.72-5.67-8.36-5.83-4.14-2.17-5.89-1.67-4.75,1.5-7.75.5-10-3-12-3S6223.46,704,6229.73,701Z"/><path class="b" d="M6289,714s13,0,14,2,1,2.5,8,4.25,9,1.75,11,2.75,2.67,1,2.83,2.53a3.1,3.1,0,0,0,1.92,2.8c1.25.67.75,2.34,0,4A16.07,16.07,0,0,1,6324,736h-3.17c-2.83,0-3.16-2-5.5,0s-.66,3.3-3.5,3.65-6.16-1.35-7.5,0a7.57,7.57,0,0,1-4,2.54,17.92,17.92,0,0,1-6.33.81c-2,0-5-1-8,0s-4,1-6,2-6,8.35-6,10.18.67,4.8-.67,5.31S6271,768,6271,769s-1,4.33,0,6.17,0,3.91,0,4.87-3.86-9.71-3.86-9.71S6270,740,6285,740s17,0,18-1,1-1,4-1,3,1,4,0,1-2,3-3a10,10,0,0,1,4-1h3c2,0,2,1,3,0l1-1c1-1,1.44-.5,1.72-1.75S6328,729,6327,729a3.47,3.47,0,0,1-2.33-1.35C6324,727,6323,728,6323,726s-1-1-1-2-1-1-3-1-2,1-5,0l-6-2c-3-1-3,1-4,0s-2.11-1-3.56-2-1.44-2-2.44-2h-8Z"/><polygon class="b" points="6297.16 703 6298 706.63 6297.44 705.64 6297.16 703"/><polyline class="b" points="6320.12 707.94 6319.96 706.47 6320.43 708.49"/><polyline class="b" points="6297.44 705.64 6297.16 703 6298 706.63"/><polyline class="b" points="6277.35 694.95 6277.19 693.48 6277.66 695.5"/><polyline class="b" points="6290.83 723.36 6290 719 6292.49 725"/><polyline class="b" points="6304.09 734.44 6303.45 729.34 6305.36 736.36"/><polyline class="b" points="6286.27 731 6285.64 725.89 6287.55 732.91"/><polygon class="b" points="6354 655 6354 651.75 6356 650 6371 650 6373 652 6373 655 6357.38 655 6354 655"/><polygon class="a" points="6355 656 6356 652 6356.46 654 6357 653 6357.67 656 6355 656"/><polygon class="a" points="6370.33 660 6372.08 654 6372.89 657 6373.83 655.5 6375 660 6370.33 660"/><rect class="a" x="6359" y="653" width="1" height="1"/><rect class="a" x="6361" y="653" width="1" height="1"/><rect class="a" x="6363" y="653" width="1" height="1"/><rect class="a" x="6365" y="653" width="1" height="1"/><rect class="a" x="6367" y="653" width="1" height="1"/><path class="b" d="M4913.93,938.46s-3,13.64-6.06,15.16-1.52,24.26-1.52,24.26,3-7.58,4.52-9.1-1.52-13.65,1.51-15.16,1.55-15.16,1.55-15.16"/><polygon class="b" points="5026.22 915.46 5031.22 901.46 5028.22 913.46 5026.22 915.46"/><polygon class="b" points="5036.22 902.46 5034.22 907.46 5035.22 906.46 5036.22 902.46"/><polygon class="b" points="5043.22 898.46 5040.06 907.46 5041.22 906.46 5043.22 898.46"/><path class="b" d="M5084.22,845.46a79.71,79.71,0,0,0,7-4.58c1-1,4,2.58,4,2.58s-1,0-1,2-1,11-6,16a15.58,15.58,0,0,0,1-7.58s-2,1.58-4,3.58C5085.22,857.46,5090.22,850.46,5084.22,845.46Z"/><polygon class="b" points="4964 928.46 4959.15 939.78 4962.38 936.55 4964 928.46"/><polygon class="b" points="4974.19 925.07 4970.95 934.78 4974.19 931.19 4974.19 925.07"/><path class="b" d="M5163.22,816.46a2.94,2.94,0,0,0,3,3s-2,0-5,4A13.83,13.83,0,0,0,5163.22,816.46Z"/><polygon class="b" points="5265.22 773.46 5262.22 784.46 5264.22 781.46 5265.22 773.46"/><path class="b" d="M5461.22,704.46c-2,0-15-3-15-3a71.52,71.52,0,0,0-7.17,1.26,5,5,0,0,0-1.83.74c-1,1-9,17-10,17s-9,4-9,5-6,6-6,9-3,8-3,8l-13,6s-8,9-10,11-9,5-11,8-4,7-10,8-8,1-9,2-9,5-9,5,10.89,3,11.45,2,3.55-4,6.55-4,5-1,7-1a29.2,29.2,0,0,0,9-2c2-1,0,0,5-5s5-4,7-6l6-6c2-2,5-6,6-7a15.38,15.38,0,0,1,6-4c3-1,7-3,9-3s2-5,3-7a6.37,6.37,0,0,0,0-6c-1-2-2-1,1-4s3-5,6-5,2,5,5-1,3-7,4-8,5-4,5-6,7-6,10-5S5461.22,704.46,5461.22,704.46Z"/><polygon class="b" points="5815.26 633.46 5809.19 655.73 5813.23 649.65 5815.26 633.46"/><polyline class="b" points="5851.93 651.48 5853.05 642.48 5849.68 654.86"/><polyline class="b" points="5813.23 649.65 5815.26 633.46 5809.19 655.73"/><polyline class="b" points="5835.73 645.41 5836.86 636.41 5833.48 648.78"/><polygon class="b" points="5856.43 668.8 5850.35 691.08 5854.4 685 5856.43 668.8"/><polyline class="b" points="5893.1 686.83 5894.22 677.83 5890.85 690.2"/><polyline class="b" points="5854.4 685 5856.43 668.8 5850.35 691.08"/><path class="b" d="M5815.55,675s-20.48,4-17.68,6.75-2.8,5.59-5.59,5.59-28,5.59-30.76,5.59-5.59,11.18-5.59,11.18a39.33,39.33,0,0,0-14-8.38c-8.39-2.8-5.59-6.75-23.76-6.17,0,0,12.58-2.22,21,.57s16.78-2.79,22.37-2.79,25.17,0,28-2.8,8.53-6.29,16.85-8.74Z"/><polygon class="b" points="5540.63 611.46 5537.19 624.09 5539.48 620.64 5540.63 611.46"/><polyline class="b" points="5561.43 621.68 5562.06 616.58 5560.15 623.59"/><polyline class="b" points="5539.48 620.64 5540.63 611.46 5537.19 624.09"/><polyline class="b" points="5552.24 618.23 5552.88 613.13 5550.96 620.15"/><polygon class="b" points="5563.98 631.5 5560.53 644.13 5562.83 640.69 5563.98 631.5"/><polyline class="b" points="5584.77 641.73 5585.41 636.62 5583.5 643.64"/><polyline class="b" points="5562.83 640.69 5563.98 631.5 5560.53 644.13"/><polygon class="b" points="5653 584.12 5648.88 599.24 5651.62 595.12 5653 584.12"/><polyline class="b" points="5677.89 596.36 5678.65 590.25 5676.36 598.65"/><polyline class="b" points="5651.62 595.12 5653 584.12 5648.88 599.24"/><polygon class="b" points="5471.15 730.36 5467.61 743.35 5469.97 739.8 5471.15 730.36"/><polyline class="b" points="5437.53 824.87 5438.19 819.62 5436.22 826.84"/><polyline class="b" points="5469.97 739.8 5471.15 730.36 5467.61 743.35"/><polyline class="b" points="5272.09 847.33 5272.74 842.08 5270.77 849.3"/><polygon class="b" points="5284.15 860.97 5280.61 873.95 5282.97 870.41 5284.15 860.97"/><polyline class="b" points="5305.53 871.48 5306.19 866.23 5304.22 873.44"/><polyline class="b" points="5282.97 870.41 5284.15 860.97 5280.61 873.95"/><polygon class="b" points="5305.38 809 5301.84 821.99 5304.2 818.45 5305.38 809"/><polyline class="b" points="5638.76 675.51 5639.42 670.27 5637.45 677.48"/><polyline class="b" points="5304.2 818.45 5305.38 809 5301.84 821.99"/><polyline class="b" points="5317.32 815.97 5317.97 810.73 5316.01 817.94"/><polygon class="b" points="5641.38 685.61 5637.84 698.6 5640.2 695.05 5641.38 685.61"/><polyline class="b" points="5561.76 730.12 5562.42 724.87 5560.45 732.09"/><polyline class="b" points="5640.2 695.05 5641.38 685.61 5637.84 698.6"/><polygon class="b" points="5779.38 727.68 5775.84 740.67 5778.2 737.13 5779.38 727.68"/><polyline class="b" points="5800.76 738.19 5801.42 732.95 5799.45 740.16"/><polyline class="b" points="5778.2 737.13 5779.38 727.68 5775.84 740.67"/><polyline class="b" points="5791.32 734.65 5791.97 729.4 5790.01 736.62"/><polygon class="b" points="5685.38 792.29 5681.84 805.27 5684.2 801.73 5685.38 792.29"/><polyline class="b" points="5706.76 802.8 5707.42 797.55 5705.45 804.76"/><polyline class="b" points="5684.2 801.73 5685.38 792.29 5681.84 805.27"/><polygon class="b" points="5706.61 740.33 5703.07 753.31 5705.44 749.77 5706.61 740.33"/><polyline class="b" points="5705.44 749.77 5706.61 740.33 5703.07 753.31"/><polygon class="b" points="5500.38 832.68 5496.84 845.67 5499.2 842.13 5500.38 832.68"/><polyline class="b" points="5521.76 843.19 5522.42 837.95 5520.45 845.16"/><polyline class="b" points="5499.2 842.13 5500.38 832.68 5496.84 845.67"/><polyline class="b" points="5460.32 860.65 5460.97 855.4 5459.01 862.62"/><polygon class="b" points="5524.38 853.29 5520.84 866.27 5523.2 862.73 5524.38 853.29"/><polyline class="b" points="5545.76 863.8 5546.42 858.55 5544.45 865.76"/><polyline class="b" points="5523.2 862.73 5524.38 853.29 5520.84 866.27"/><polygon class="b" points="5545.61 801.33 5542.07 814.31 5544.44 810.77 5545.61 801.33"/><polyline class="b" points="5544.44 810.77 5545.61 801.33 5542.07 814.31"/><polyline class="b" points="5622.36 792.02 5623.01 786.78 5621.05 793.99"/><polyline class="b" points="5627.59 873.74 5628.24 868.49 5626.28 875.71"/><polygon class="b" points="5630.21 883.84 5626.67 896.82 5629.03 893.28 5630.21 883.84"/><polyline class="b" points="5629.03 893.28 5630.21 883.84 5626.67 896.82"/><polygon class="b" points="5432.52 651.07 5429.08 663.7 5431.38 660.25 5432.52 651.07"/><polyline class="b" points="5453.32 661.29 5453.96 656.19 5452.04 663.2"/><polyline class="b" points="5431.38 660.25 5432.52 651.07 5429.08 663.7"/><polyline class="b" points="5444.13 657.85 5444.77 652.74 5442.86 659.76"/><path class="b" d="M5658.46,760.13s5.47,3.67-4.9,5.34-22.32-1-26.35,3.33-5.14,6-9.58,5.66a85.89,85.89,0,0,0-9.8,0l-6.64-1.33,1,3s5,3,8,3,7-1,11-2,7.71-5.66,8.35-5.83,4.14-2.17,5.89-1.67,4.76,1.5,7.76.5,10-3,12-3S5664.73,763.13,5658.46,760.13Z"/><path class="b" d="M5599.19,773.13s-13,0-14,2-1,2.5-8,4.25-9,1.75-11,2.75-2.67,1.06-2.84,2.53a3.11,3.11,0,0,1-1.92,2.81c-1.24.66-.75,2.33,0,4a16.41,16.41,0,0,0,2.76,3.66h3.16c2.84,0,3.17-2,5.5,0s.67,3.3,3.5,3.65,6.17-1.35,7.5,0a7.73,7.73,0,0,0,4,2.55,18.22,18.22,0,0,0,6.34.8c2,0,5-1,8,0s4,1,6,2,6,8.36,6,10.18-.67,4.8.66,5.31,2.34,7.51,2.34,8.51,1,4.34,0,6.17,0,3.92,0,4.87,3.86-9.7,3.86-9.7-2.86-30.34-17.86-30.34-17,0-18-1-1-1-4-1-3,1-4,0-1-2-3-3a10,10,0,0,0-4-1h-3c-2,0-2,1-3,0l-1-1c-1-1-1.45-.49-1.73-1.75s-1.27-2.25-.27-2.25a3.5,3.5,0,0,0,2.33-1.35c.67-.65,1.67.35,1.67-1.65s1-1,1-2,1-1,3-1,2,1,5,0l6-2c3-1,3,1,4,0s2.11-1,3.55-2,1.45-2,2.45-2h8Z"/><polygon class="b" points="5591.02 762.13 5590.19 765.76 5590.74 764.77 5591.02 762.13"/><polyline class="b" points="5568.07 767.07 5568.22 765.6 5567.76 767.62"/><polyline class="b" points="5590.74 764.77 5591.02 762.13 5590.19 765.76"/><polyline class="b" points="5610.84 754.08 5610.99 752.61 5610.53 754.63"/><polyline class="b" points="5597.35 782.5 5598.19 778.13 5595.69 784.13"/><polyline class="b" points="5584.1 793.58 5584.73 788.47 5582.82 795.49"/><polyline class="b" points="5601.91 790.13 5602.55 785.03 5600.64 792.04"/><polygon class="b" points="5534.19 714.13 5534.19 710.88 5532.19 709.13 5517.19 709.13 5515.19 711.13 5515.19 714.13 5530.81 714.13 5534.19 714.13"/><polygon class="a" points="5533.19 715.13 5532.19 711.13 5531.73 713.13 5531.19 712.13 5530.52 715.13 5533.19 715.13"/><polygon class="a" points="5517.85 719.13 5516.1 713.13 5515.3 716.13 5514.35 714.63 5513.19 719.13 5517.85 719.13"/><rect class="a" x="5528.19" y="712.13" width="1" height="1" transform="translate(11057.37 1425.27) rotate(-180)"/><rect class="a" x="5526.19" y="712.13" width="1" height="1" transform="translate(11053.37 1425.27) rotate(-180)"/><rect class="a" x="5524.19" y="712.13" width="1" height="1" transform="translate(11049.37 1425.27) rotate(-180)"/><rect class="a" x="5522.19" y="712.13" width="1" height="1" transform="translate(11045.37 1425.27) rotate(-180)"/><rect class="a" x="5520.19" y="712.13" width="1" height="1" transform="translate(11041.37 1425.27) rotate(-180)"/><path class="b" d="M5039.26,848.46s3,13.64,6.07,15.16,1.51,24.26,1.51,24.26-3-7.58-4.51-9.1,1.51-13.65-1.52-15.16-1.55-15.16-1.55-15.16"/><polygon class="b" points="4926.97 825.46 4921.97 811.46 4924.97 823.46 4926.97 825.46"/><polygon class="b" points="4916.97 812.46 4918.97 817.46 4917.97 816.46 4916.97 812.46"/><polygon class="b" points="4909.97 808.46 4913.14 817.46 4911.97 816.46 4909.97 808.46"/><path class="b" d="M4869,755.46a79.8,79.8,0,0,1-7-4.58c-1-1-4,2.58-4,2.58s1,0,1,2,1,11,6,16a15.66,15.66,0,0,1-1-7.58s2,1.58,4,3.58C4868,767.46,4863,760.46,4869,755.46Z"/><polygon class="b" points="4989.19 838.46 4994.05 849.78 4990.81 846.55 4989.19 838.46"/><polygon class="b" points="4979.01 835.07 4982.25 844.78 4979.01 841.19 4979.01 835.07"/><path class="b" d="M4790,726.46a2.94,2.94,0,0,1-3,3s2,0,5,4A13.83,13.83,0,0,1,4790,726.46Z"/><polygon class="b" points="4687.97 683.46 4690.97 694.46 4688.97 691.46 4687.97 683.46"/><path class="b" d="M4492,614.46c2,0,15-3,15-3a71.52,71.52,0,0,1,7.17,1.26,4.92,4.92,0,0,1,1.83.74c1,1,9,17,10,17s9,4,9,5,6,6,6,9,3,8,3,8l13,6s8,9,10,11,9,5,11,8,4,7,10,8,8,1,9,2,9,5,9,5-10.89,3-11.44,2-3.56-4-6.56-4-5-1-7-1a29.2,29.2,0,0,1-9-2c-2-1,0,0-5-5s-5-4-7-6l-6-6c-2-2-5-6-6-7a15.38,15.38,0,0,0-6-4c-3-1-7-3-9-3s-2-5-3-7a6.38,6.38,0,0,1,0-6c1-2,2-1-1-4s-3-5-6-5-2,5-5-1-3-7-4-8-5-4-5-6-7-6-10-5S4492,614.46,4492,614.46Z"/><polygon class="b" points="4137.94 543.46 4144.01 565.73 4139.96 559.65 4137.94 543.46"/><polyline class="b" points="4101.27 561.48 4100.14 552.48 4103.52 564.86"/><polyline class="b" points="4139.96 559.65 4137.94 543.46 4144.01 565.73"/><polyline class="b" points="4117.47 555.41 4116.34 546.41 4119.71 558.78"/><polygon class="b" points="4096.77 578.8 4102.84 601.08 4098.79 595 4096.77 578.8"/><polyline class="b" points="4060.1 596.83 4058.97 587.83 4062.35 600.2"/><polyline class="b" points="4098.79 595 4096.77 578.8 4102.84 601.08"/><path class="b" d="M4137.65,585s20.47,4,17.68,6.75,2.79,5.59,5.59,5.59,28,5.59,30.75,5.59,5.6,11.18,5.6,11.18a39.33,39.33,0,0,1,14-8.38c8.38-2.8,5.59-6.75,23.76-6.17,0,0-12.58-2.22-21,.57s-16.77-2.79-22.37-2.79-25.16,0-28-2.8-8.52-6.29-16.84-8.74Z"/><polygon class="b" points="4412.57 521.46 4416.01 534.09 4413.71 530.64 4412.57 521.46"/><polyline class="b" points="4391.77 531.68 4391.13 526.58 4393.05 533.59"/><polyline class="b" points="4413.71 530.64 4412.57 521.46 4416.01 534.09"/><polyline class="b" points="4400.96 528.23 4400.32 523.13 4402.23 530.15"/><polygon class="b" points="4389.22 541.5 4392.66 554.13 4390.37 550.69 4389.22 541.5"/><polyline class="b" points="4368.42 551.73 4367.78 546.62 4369.7 553.64"/><polyline class="b" points="4390.37 550.69 4389.22 541.5 4392.66 554.13"/><polygon class="b" points="4300.2 494.12 4304.32 509.24 4301.57 505.12 4300.2 494.12"/><polyline class="b" points="4275.31 506.36 4274.55 500.25 4276.84 508.65"/><polyline class="b" points="4301.57 505.12 4300.2 494.12 4304.32 509.24"/><polygon class="b" points="4482.04 640.36 4485.59 653.35 4483.23 649.8 4482.04 640.36"/><polyline class="b" points="4515.67 734.87 4515.01 729.62 4516.98 736.84"/><polyline class="b" points="4483.23 649.8 4482.04 640.36 4485.59 653.35"/><polyline class="b" points="4681.11 757.33 4680.45 752.08 4682.42 759.3"/><polygon class="b" points="4669.04 770.97 4672.59 783.95 4670.22 780.41 4669.04 770.97"/><polyline class="b" points="4647.67 781.48 4647.01 776.23 4648.98 783.44"/><polyline class="b" points="4670.22 780.41 4669.04 770.97 4672.59 783.95"/><polygon class="b" points="4647.81 719 4651.35 731.99 4648.99 728.45 4647.81 719"/><polyline class="b" points="4314.44 585.51 4313.78 580.27 4315.75 587.48"/><polyline class="b" points="4648.99 728.45 4647.81 719 4651.35 731.99"/><polyline class="b" points="4635.88 725.97 4635.22 720.73 4637.19 727.94"/><polygon class="b" points="4311.81 595.61 4315.35 608.6 4312.99 605.05 4311.81 595.61"/><polyline class="b" points="4391.44 640.12 4390.78 634.87 4392.75 642.09"/><polyline class="b" points="4312.99 605.05 4311.81 595.61 4315.35 608.6"/><polygon class="b" points="4173.81 637.68 4177.35 650.67 4174.99 647.13 4173.81 637.68"/><polyline class="b" points="4152.44 648.19 4151.78 642.95 4153.75 650.16"/><polyline class="b" points="4174.99 647.13 4173.81 637.68 4177.35 650.67"/><polyline class="b" points="4161.88 644.65 4161.22 639.4 4163.19 646.62"/><polygon class="b" points="4267.81 702.29 4271.35 715.27 4268.99 711.73 4267.81 702.29"/><polyline class="b" points="4246.44 712.8 4245.78 707.55 4247.75 714.76"/><polyline class="b" points="4268.99 711.73 4267.81 702.29 4271.35 715.27"/><polygon class="b" points="4246.58 650.33 4250.12 663.31 4247.76 659.77 4246.58 650.33"/><polyline class="b" points="4247.76 659.77 4246.58 650.33 4250.12 663.31"/><polygon class="b" points="4452.81 742.68 4456.35 755.67 4453.99 752.13 4452.81 742.68"/><polyline class="b" points="4431.44 753.19 4430.78 747.95 4432.75 755.16"/><polyline class="b" points="4453.99 752.13 4452.81 742.68 4456.35 755.67"/><polyline class="b" points="4492.88 770.65 4492.22 765.4 4494.19 772.62"/><polygon class="b" points="4428.81 763.29 4432.35 776.27 4429.99 772.73 4428.81 763.29"/><polyline class="b" points="4407.44 773.8 4406.78 768.55 4408.75 775.76"/><polyline class="b" points="4429.99 772.73 4428.81 763.29 4432.35 776.27"/><polygon class="b" points="4407.58 711.33 4411.12 724.31 4408.76 720.77 4407.58 711.33"/><polyline class="b" points="4408.76 720.77 4407.58 711.33 4411.12 724.31"/><polyline class="b" points="4330.84 702.02 4330.18 696.78 4332.15 703.99"/><polyline class="b" points="4325.61 783.74 4324.95 778.49 4326.92 785.71"/><polygon class="b" points="4322.98 793.84 4326.52 806.82 4324.16 803.28 4322.98 793.84"/><polyline class="b" points="4324.16 803.28 4322.98 793.84 4326.52 806.82"/><polygon class="b" points="4520.67 561.07 4524.12 573.7 4521.82 570.25 4520.67 561.07"/><polyline class="b" points="4499.88 571.29 4499.24 566.19 4501.15 573.2"/><polyline class="b" points="4521.82 570.25 4520.67 561.07 4524.12 573.7"/><polyline class="b" points="4509.06 567.85 4508.42 562.74 4510.34 569.76"/><path class="b" d="M4294.74,670.13s-5.48,3.67,4.9,5.34,22.32-1,26.34,3.33,5.14,6,9.59,5.66a85.69,85.69,0,0,1,9.79,0l6.65-1.33-1,3s-5,3-8,3-7-1-11-2-7.71-5.66-8.36-5.83-4.13-2.17-5.89-1.67-4.75,1.5-7.75.5-10-3-12-3S4288.47,673.13,4294.74,670.13Z"/><path class="b" d="M4354,683.13s13,0,14,2,1,2.5,8,4.25,9,1.75,11,2.75,2.67,1.06,2.83,2.53a3.13,3.13,0,0,0,1.92,2.81c1.25.66.75,2.33,0,4a16.17,16.17,0,0,1-2.75,3.66h-3.17c-2.83,0-3.16-2-5.5,0s-.66,3.3-3.5,3.65-6.16-1.35-7.5,0a7.64,7.64,0,0,1-4,2.55,18.13,18.13,0,0,1-6.33.8c-2,0-5-1-8,0s-4,1-6,2-6,8.36-6,10.18.67,4.8-.67,5.31-2.33,7.51-2.33,8.51-1,4.34,0,6.17,0,3.92,0,4.87-3.86-9.7-3.86-9.7,2.86-30.34,17.86-30.34,17,0,18-1,1-1,4-1,3,1,4,0,1-2,3-3a10,10,0,0,1,4-1h3c2,0,2,1,3,0l1-1c1-1,1.45-.49,1.72-1.75s1.28-2.25.28-2.25a3.47,3.47,0,0,1-2.33-1.35c-.67-.65-1.67.35-1.67-1.65s-1-1-1-2-1-1-3-1-2,1-5,0l-6-2c-3-1-3,1-4,0s-2.11-1-3.55-2-1.45-2-2.45-2h-8Z"/><polygon class="b" points="4362.18 672.13 4363.01 675.76 4362.45 674.77 4362.18 672.13"/><polyline class="b" points="4385.13 677.07 4384.97 675.6 4385.44 677.62"/><polyline class="b" points="4362.45 674.77 4362.18 672.13 4363.01 675.76"/><polyline class="b" points="4342.36 664.08 4342.2 662.61 4342.67 664.63"/><polyline class="b" points="4355.84 692.5 4355.01 688.13 4357.5 694.13"/><polyline class="b" points="4369.1 703.58 4368.46 698.47 4370.38 705.49"/><polyline class="b" points="4351.28 700.13 4350.65 695.03 4352.56 702.04"/><polygon class="b" points="4419.01 624.13 4419.01 620.88 4421.01 619.13 4436.01 619.13 4438.01 621.13 4438.01 624.13 4422.39 624.13 4419.01 624.13"/><polygon class="a" points="4420.01 625.13 4421.01 621.13 4421.47 623.13 4422.01 622.13 4422.68 625.13 4420.01 625.13"/><polygon class="a" points="4435.34 629.13 4437.09 623.13 4437.9 626.13 4438.84 624.63 4440.01 629.13 4435.34 629.13"/><rect class="a" x="4424.01" y="622.13" width="1" height="1"/><rect class="a" x="4426.01" y="622.13" width="1" height="1"/><rect class="a" x="4428.01" y="622.13" width="1" height="1"/><rect class="a" x="4430.01" y="622.13" width="1" height="1"/><rect class="a" x="4432.01" y="622.13" width="1" height="1"/><path class="b" d="M4142.93,867.46s-3,13.64-6.06,15.16-1.52,24.26-1.52,24.26,3-7.58,4.52-9.1-1.52-13.65,1.51-15.16,1.55-15.16,1.55-15.16"/><polygon class="b" points="4255.22 844.46 4260.22 830.46 4257.22 842.46 4255.22 844.46"/><polygon class="b" points="4265.22 831.46 4263.22 836.46 4264.22 835.46 4265.22 831.46"/><polygon class="b" points="4272.22 827.46 4269.06 836.46 4270.22 835.46 4272.22 827.46"/><path class="b" d="M4313.22,774.46a79.71,79.71,0,0,0,7-4.58c1-1,4,2.58,4,2.58s-1,0-1,2-1,11-6,16a15.58,15.58,0,0,0,1-7.58s-2,1.58-4,3.58C4314.22,786.46,4319.22,779.46,4313.22,774.46Z"/><polygon class="b" points="4193 857.46 4188.15 868.78 4191.38 865.55 4193 857.46"/><polygon class="b" points="4203.19 854.07 4199.95 863.78 4203.19 860.19 4203.19 854.07"/><path class="b" d="M4392.22,745.46a2.94,2.94,0,0,0,3,3s-2,0-5,4A13.83,13.83,0,0,0,4392.22,745.46Z"/><polygon class="b" points="4494.22 702.46 4491.22 713.46 4493.22 710.46 4494.22 702.46"/><path class="b" d="M4690.22,633.46c-2,0-15-3-15-3a71.52,71.52,0,0,0-7.17,1.26,5,5,0,0,0-1.83.74c-1,1-9,17-10,17s-9,4-9,5-6,6-6,9-3,8-3,8l-13,6s-8,9-10,11-9,5-11,8-4,7-10,8-8,1-9,2-9,5-9,5,10.89,3,11.45,2,3.55-4,6.55-4,5-1,7-1a29.2,29.2,0,0,0,9-2c2-1,0,0,5-5s5-4,7-6l6-6c2-2,5-6,6-7a15.38,15.38,0,0,1,6-4c3-1,7-3,9-3s2-5,3-7a6.38,6.38,0,0,0,0-6c-1-2-2-1,1-4s3-5,6-5,2,5,5-1,3-7,4-8,5-4,5-6,7-6,10-5S4690.22,633.46,4690.22,633.46Z"/><polygon class="b" points="5044.26 562.46 5038.19 584.73 5042.23 578.65 5044.26 562.46"/><polyline class="b" points="5080.93 580.48 5082.05 571.48 5078.68 583.86"/><polyline class="b" points="5042.23 578.65 5044.26 562.46 5038.19 584.73"/><polyline class="b" points="5064.73 574.41 5065.86 565.41 5062.48 577.78"/><polygon class="b" points="5085.43 597.8 5079.35 620.08 5083.4 614 5085.43 597.8"/><polyline class="b" points="5122.1 615.83 5123.22 606.83 5119.85 619.2"/><polyline class="b" points="5083.4 614 5085.43 597.8 5079.35 620.08"/><path class="b" d="M5044.55,604s-20.48,4-17.68,6.75-2.8,5.59-5.59,5.59-28,5.59-30.76,5.59-5.59,11.18-5.59,11.18a39.33,39.33,0,0,0-14-8.38c-8.39-2.8-5.59-6.75-23.76-6.17,0,0,12.58-2.22,21,.57s16.78-2.79,22.37-2.79,25.17,0,28-2.8,8.53-6.29,16.85-8.74Z"/><polygon class="b" points="4769.63 540.46 4766.19 553.09 4768.48 549.64 4769.63 540.46"/><polyline class="b" points="4790.43 550.68 4791.06 545.58 4789.15 552.59"/><polyline class="b" points="4768.48 549.64 4769.63 540.46 4766.19 553.09"/><polyline class="b" points="4781.24 547.23 4781.88 542.13 4779.96 549.15"/><polygon class="b" points="4792.98 560.5 4789.53 573.13 4791.83 569.69 4792.98 560.5"/><polyline class="b" points="4813.77 570.73 4814.41 565.62 4812.5 572.64"/><polyline class="b" points="4791.83 569.69 4792.98 560.5 4789.53 573.13"/><polygon class="b" points="4882 513.12 4877.88 528.24 4880.62 524.12 4882 513.12"/><polyline class="b" points="4906.89 525.36 4907.65 519.25 4905.36 527.65"/><polyline class="b" points="4880.62 524.12 4882 513.12 4877.88 528.24"/><polygon class="b" points="4700.15 659.36 4696.61 672.35 4698.97 668.8 4700.15 659.36"/><polyline class="b" points="4666.53 753.87 4667.19 748.62 4665.22 755.84"/><polyline class="b" points="4698.97 668.8 4700.15 659.36 4696.61 672.35"/><polyline class="b" points="4501.09 776.33 4501.74 771.08 4499.77 778.3"/><polygon class="b" points="4513.15 789.97 4509.61 802.95 4511.97 799.41 4513.15 789.97"/><polyline class="b" points="4534.53 800.48 4535.19 795.23 4533.22 802.44"/><polyline class="b" points="4511.97 799.41 4513.15 789.97 4509.61 802.95"/><polygon class="b" points="4534.38 738 4530.84 750.99 4533.2 747.45 4534.38 738"/><polyline class="b" points="4867.76 604.51 4868.42 599.27 4866.45 606.48"/><polyline class="b" points="4533.2 747.45 4534.38 738 4530.84 750.99"/><polyline class="b" points="4546.32 744.97 4546.97 739.73 4545.01 746.94"/><polygon class="b" points="4870.38 614.61 4866.84 627.6 4869.2 624.05 4870.38 614.61"/><polyline class="b" points="4790.76 659.12 4791.42 653.87 4789.45 661.09"/><polyline class="b" points="4869.2 624.05 4870.38 614.61 4866.84 627.6"/><polygon class="b" points="5008.38 656.68 5004.84 669.67 5007.2 666.13 5008.38 656.68"/><polyline class="b" points="5029.76 667.19 5030.42 661.95 5028.45 669.16"/><polyline class="b" points="5007.2 666.13 5008.38 656.68 5004.84 669.67"/><polyline class="b" points="5020.32 663.65 5020.97 658.4 5019.01 665.62"/><polygon class="b" points="4914.38 721.29 4910.84 734.27 4913.2 730.73 4914.38 721.29"/><polyline class="b" points="4935.76 731.8 4936.42 726.55 4934.45 733.76"/><polyline class="b" points="4913.2 730.73 4914.38 721.29 4910.84 734.27"/><polygon class="b" points="4935.61 669.33 4932.07 682.31 4934.44 678.77 4935.61 669.33"/><polyline class="b" points="4934.44 678.77 4935.61 669.33 4932.07 682.31"/><polygon class="b" points="4729.38 761.68 4725.84 774.67 4728.2 771.13 4729.38 761.68"/><polyline class="b" points="4750.76 772.19 4751.42 766.95 4749.45 774.16"/><polyline class="b" points="4728.2 771.13 4729.38 761.68 4725.84 774.67"/><polyline class="b" points="4689.32 789.65 4689.97 784.4 4688.01 791.62"/><polygon class="b" points="4753.38 782.29 4749.84 795.27 4752.2 791.73 4753.38 782.29"/><polyline class="b" points="4774.76 792.8 4775.42 787.55 4773.45 794.76"/><polyline class="b" points="4752.2 791.73 4753.38 782.29 4749.84 795.27"/><polygon class="b" points="4774.61 730.33 4771.07 743.31 4773.44 739.77 4774.61 730.33"/><polyline class="b" points="4773.44 739.77 4774.61 730.33 4771.07 743.31"/><polyline class="b" points="4851.36 721.02 4852.01 715.78 4850.05 722.99"/><polyline class="b" points="4856.59 802.74 4857.24 797.49 4855.28 804.71"/><polygon class="b" points="4859.21 812.84 4855.67 825.82 4858.03 822.28 4859.21 812.84"/><polyline class="b" points="4858.03 822.28 4859.21 812.84 4855.67 825.82"/><polygon class="b" points="4661.52 580.07 4658.08 592.7 4660.38 589.25 4661.52 580.07"/><polyline class="b" points="4682.32 590.29 4682.96 585.19 4681.04 592.2"/><polyline class="b" points="4660.38 589.25 4661.52 580.07 4658.08 592.7"/><polyline class="b" points="4673.13 586.85 4673.77 581.74 4671.86 588.76"/><path class="b" d="M4887.46,689.13s5.47,3.67-4.9,5.34-22.32-1-26.35,3.33-5.14,6-9.58,5.66a85.89,85.89,0,0,0-9.8,0l-6.64-1.33,1,3s5,3,8,3,7-1,11-2,7.71-5.66,8.35-5.83,4.14-2.17,5.89-1.67,4.76,1.5,7.76.5,10-3,12-3S4893.73,692.13,4887.46,689.13Z"/><path class="b" d="M4828.19,702.13s-13,0-14,2-1,2.5-8,4.25-9,1.75-11,2.75-2.67,1.06-2.84,2.53a3.11,3.11,0,0,1-1.92,2.81c-1.24.66-.75,2.33,0,4a16.41,16.41,0,0,0,2.76,3.66h3.16c2.84,0,3.17-2,5.5,0s.67,3.3,3.5,3.65,6.17-1.35,7.5,0a7.73,7.73,0,0,0,4,2.55,18.22,18.22,0,0,0,6.34.8c2,0,5-1,8,0s4,1,6,2,6,8.36,6,10.18-.67,4.8.66,5.31,2.34,7.51,2.34,8.51,1,4.34,0,6.17,0,3.92,0,4.87,3.86-9.7,3.86-9.7-2.86-30.34-17.86-30.34-17,0-18-1-1-1-4-1-3,1-4,0-1-2-3-3a10,10,0,0,0-4-1h-3c-2,0-2,1-3,0l-1-1c-1-1-1.45-.49-1.73-1.75s-1.27-2.25-.27-2.25a3.5,3.5,0,0,0,2.33-1.35c.67-.65,1.67.35,1.67-1.65s1-1,1-2,1-1,3-1,2,1,5,0l6-2c3-1,3,1,4,0s2.11-1,3.55-2,1.45-2,2.45-2h8Z"/><polygon class="b" points="4820.02 691.13 4819.19 694.76 4819.74 693.77 4820.02 691.13"/><polyline class="b" points="4797.07 696.07 4797.22 694.6 4796.76 696.62"/><polyline class="b" points="4819.74 693.77 4820.02 691.13 4819.19 694.76"/><polyline class="b" points="4839.84 683.08 4839.99 681.61 4839.53 683.63"/><polyline class="b" points="4826.35 711.5 4827.19 707.13 4824.69 713.13"/><polyline class="b" points="4813.1 722.58 4813.73 717.47 4811.82 724.49"/><polyline class="b" points="4830.91 719.13 4831.55 714.03 4829.64 721.04"/><polygon class="b" points="4763.19 643.13 4763.19 639.88 4761.19 638.13 4746.19 638.13 4744.19 640.13 4744.19 643.13 4759.81 643.13 4763.19 643.13"/><polygon class="a" points="4762.19 644.13 4761.19 640.13 4760.73 642.13 4760.19 641.13 4759.52 644.13 4762.19 644.13"/><polygon class="a" points="4746.85 648.13 4745.1 642.13 4744.3 645.13 4743.35 643.63 4742.19 648.13 4746.85 648.13"/><rect class="a" x="4757.19" y="641.13" width="1" height="1" transform="translate(9515.37 1283.27) rotate(-180)"/><rect class="a" x="4755.19" y="641.13" width="1" height="1" transform="translate(9511.37 1283.27) rotate(-180)"/><rect class="a" x="4753.19" y="641.13" width="1" height="1" transform="translate(9507.37 1283.27) rotate(-180)"/><rect class="a" x="4751.19" y="641.13" width="1" height="1" transform="translate(9503.37 1283.27) rotate(-180)"/><rect class="a" x="4749.19" y="641.13" width="1" height="1" transform="translate(9499.37 1283.27) rotate(-180)"/><path class="b" d="M4029,487.32c2,0,15-3,15-3a72.75,72.75,0,0,1,7.17,1.27,4.86,4.86,0,0,1,1.83.73c1,1,9,17,10,17s9,4,9,5,6,6,6,9,3,8,3,8l13,6s8,9,10,11,9,5,11,8,4,7,10,8,8,1,9,2,9,5,9,5-10.89,3-11.44,2-3.56-4-6.56-4-5-1-7-1a29.2,29.2,0,0,1-9-2c-2-1,0,0-5-5s-5-4-7-6l-6-6c-2-2-5-6-6-7a15.38,15.38,0,0,0-6-4c-3-1-7-3-9-3s-2-5-3-7a6.38,6.38,0,0,1,0-6c1-2,2-1-1-4s-3-5-6-5-2,5-5-1-3-7-4-8-5-4-5-6-7-6-10-5S4029,487.32,4029,487.32Z"/><polygon class="b" points="5229.56 422.32 5233 434.95 5230.7 431.51 5229.56 422.32"/><polyline class="b" points="5208.76 432.55 5208.12 427.44 5210.03 434.46"/><polyline class="b" points="5230.7 431.51 5229.56 422.32 5233 434.95"/><polyline class="b" points="5217.94 429.1 5217.31 424 5219.22 431.01"/><polygon class="b" points="5206.21 442.37 5209.65 455 5207.36 451.56 5206.21 442.37"/><polyline class="b" points="5185.41 452.59 5184.77 447.49 5186.69 454.51"/><polyline class="b" points="5207.36 451.56 5206.21 442.37 5209.65 455"/><polygon class="b" points="5117.19 394.99 5121.31 410.11 5118.56 405.98 5117.19 394.99"/><polyline class="b" points="5118.56 405.98 5117.19 394.99 5121.31 410.11"/><polyline class="b" points="5131.42 486.38 5130.77 481.13 5132.74 488.35"/><polygon class="b" points="5128.8 496.48 5132.34 509.46 5129.98 505.92 5128.8 496.48"/><polyline class="b" points="5129.98 505.92 5128.8 496.48 5132.34 509.46"/><polygon class="b" points="5337.66 461.94 5341.11 474.56 5338.81 471.12 5337.66 461.94"/><polyline class="b" points="5316.86 472.16 5316.23 467.05 5318.14 474.07"/><polyline class="b" points="5338.81 471.12 5337.66 461.94 5341.11 474.56"/><polyline class="b" points="5326.05 468.71 5325.41 463.61 5327.33 470.63"/><polygon class="b" points="5236 525 5236 521.75 5238 520 5253 520 5255 522 5255 525 5239.38 525 5236 525"/><path class="b" d="M3430.75,586.6l15.27-6.78,3.39,13.57-3.39,6.78,15.27,1.7V593.1s-10.18-6.5-8.49-9.89,1.7-10.18,0-11.88S3430.75,586.6,3430.75,586.6Z"/><path class="b" d="M3480.41,553.07l-3.39,6.78,10.18,1.7s-2.27-6.79-1.13-8.48,6.22-3.4,6.22-3.4l-5.09-6.78Z"/><path class="b" d="M3260.33,643.76l10.17,3.4s4,1.69,3.68,3.39-.28,1.7,3.11,3.39,8.76,0,8.76,0-10.46,6.79-13.85,5.09-13.57-2.26-11.87-4.52a45.22,45.22,0,0,0,3.39-5.66Z"/><polygon class="b" points="2862.58 573.22 2865.58 584.22 2863.58 581.22 2862.58 573.22"/><polyline class="b" points="2844.47 582.12 2843.91 577.67 2845.58 583.78"/><polyline class="b" points="2863.58 581.22 2863.25 580.89 2865.58 584.22"/><polyline class="b" points="2852.47 579.12 2851.91 574.67 2853.58 580.78"/><polygon class="b" points="3014.25 644.67 3017.25 655.67 3015.25 652.67 3014.25 644.67"/><polyline class="b" points="2996.14 653.58 2995.58 649.13 2997.25 655.24"/><polyline class="b" points="3015.25 652.67 3014.25 644.67 3017.25 655.67"/><path class="b" d="M3357.22,960s-3,13.65-6.07,15.16-1.51,24.26-1.51,24.26,3-7.58,4.51-9.09-1.51-13.65,1.52-15.17,1.55-15.16,1.55-15.16"/><polygon class="b" points="3469.51 937.02 3474.51 923.02 3471.51 935.02 3469.51 937.02"/><polygon class="b" points="3479.51 924.02 3477.51 929.02 3478.51 928.02 3479.51 924.02"/><polygon class="b" points="3486.51 920.02 3483.34 929.02 3484.51 928.02 3486.51 920.02"/><path class="b" d="M3527.51,867a79.8,79.8,0,0,0,7-4.58c1-1,4,2.58,4,2.58s-1,0-1,2-1,11-6,16a15.66,15.66,0,0,0,1-7.58s-2,1.58-4,3.58C3528.51,879,3533.51,872,3527.51,867Z"/><polygon class="b" points="3407.29 950.02 3402.43 961.35 3405.67 958.11 3407.29 950.02"/><polygon class="b" points="3417.47 946.64 3414.23 956.35 3417.47 952.75 3417.47 946.64"/><path class="b" d="M3606.51,838a2.94,2.94,0,0,0,3,3s-2,0-5,4A13.83,13.83,0,0,0,3606.51,838Z"/><polygon class="b" points="3708.51 795.02 3705.51 806.02 3707.51 803.02 3708.51 795.02"/><path class="b" d="M3904.51,726c-2,0-15-3-15-3a69.68,69.68,0,0,0-7.17,1.27,4.86,4.86,0,0,0-1.83.73c-1,1-9,17-10,17s-9,4-9,5-6,6-6,9-3,8-3,8l-13,6s-8,9-10,11-9,5-11,8-4,7-10,8-8,1-9,2-9,5-9,5,10.89,3,11.44,2,3.56-4,6.56-4,5-1,7-1a29.2,29.2,0,0,0,9-2c2-1,0,0,5-5s5-4,7-6l6-6c2-2,5-6,6-7a15.38,15.38,0,0,1,6-4c3-1,7-3,9-3s2-5,3-7a6.38,6.38,0,0,0,0-6c-1-2-2-1,1-4s3-5,6-5,2,5,5-1,3-7,4-8,5-4,5-6,7-6,10-5S3904.51,726,3904.51,726Z"/><polyline class="b" points="3715.37 868.89 3716.03 863.65 3714.06 870.86"/><polygon class="b" points="3727.44 882.53 3723.9 895.52 3726.26 891.98 3727.44 882.53"/><polyline class="b" points="3748.82 893.04 3749.47 887.8 3747.5 895.01"/><polyline class="b" points="3726.26 891.98 3727.44 882.53 3723.9 895.52"/><polygon class="b" points="3748.67 830.57 3745.13 843.55 3747.49 840.01 3748.67 830.57"/><polyline class="b" points="3747.49 840.01 3748.67 830.57 3745.13 843.55"/><polyline class="b" points="3760.6 837.54 3761.26 832.29 3759.29 839.5"/><path class="b" d="M3482.55,870s3,13.65,6.06,15.16,1.52,24.26,1.52,24.26-3-7.58-4.52-9.09,1.52-13.65-1.51-15.17-1.55-15.16-1.55-15.16"/><polygon class="b" points="3232.26 929.02 3227.26 915.02 3230.26 927.02 3232.26 929.02"/><polygon class="b" points="3222.26 916.02 3224.26 921.02 3223.26 920.02 3222.26 916.02"/><polygon class="b" points="3215.26 912.02 3218.43 921.02 3217.26 920.02 3215.26 912.02"/><path class="b" d="M3174.26,859a79.8,79.8,0,0,1-7-4.58c-1-1-4,2.58-4,2.58s1,0,1,2,1,11,6,16a15.66,15.66,0,0,1-1-7.58s2,1.58,4,3.58C3173.26,871,3168.26,864,3174.26,859Z"/><polygon class="b" points="3432.48 860.02 3437.33 871.35 3434.1 868.11 3432.48 860.02"/><polygon class="b" points="3422.3 856.64 3425.53 866.35 3422.3 862.75 3422.3 856.64"/><path class="b" d="M3095.26,830a2.94,2.94,0,0,1-3,3s2,0,5,4A13.83,13.83,0,0,1,3095.26,830Z"/><polygon class="b" points="2993.26 787.02 2996.26 798.02 2994.26 795.02 2993.26 787.02"/><path class="b" d="M2797.26,718c2,0,15-3,15-3a69.68,69.68,0,0,1,7.17,1.27,4.86,4.86,0,0,1,1.83.73c1,1,9,17,10,17s9,4,9,5,6,6,6,9,3,8,3,8l13,6s8,9,10,11,9,5,11,8,4,7,10,8,8,1,9,2,9,5,9,5-10.89,3-11.45,2-3.55-4-6.55-4-5-1-7-1a29.2,29.2,0,0,1-9-2c-2-1,0,0-5-5s-5-4-7-6l-6-6c-2-2-5-6-6-7a15.38,15.38,0,0,0-6-4c-3-1-7-3-9-3s-2-5-3-7a6.38,6.38,0,0,1,0-6c1-2,2-1-1-4s-3-5-6-5-2,5-5-1-3-7-4-8-5-4-5-6-7-6-10-5S2797.26,718,2797.26,718Z"/><polygon class="b" points="2717.85 625.02 2721.3 637.65 2719 634.21 2717.85 625.02"/><polyline class="b" points="2697.06 635.25 2696.42 630.14 2698.33 637.16"/><polyline class="b" points="2719 634.21 2717.85 625.02 2721.3 637.65"/><polyline class="b" points="2706.24 631.8 2705.6 626.7 2707.52 633.71"/><polygon class="b" points="2694.5 645.07 2697.95 657.7 2695.65 654.25 2694.5 645.07"/><polyline class="b" points="2673.71 655.29 2673.07 650.19 2674.98 657.21"/><polyline class="b" points="2695.65 654.25 2694.5 645.07 2697.95 657.7"/><polygon class="b" points="2605.48 597.69 2609.61 612.8 2606.86 608.68 2605.48 597.69"/><polyline class="b" points="2606.86 608.68 2605.48 597.69 2609.61 612.8"/><polygon class="b" points="2787.33 743.93 2790.87 756.91 2788.51 753.37 2787.33 743.93"/><polyline class="b" points="2820.95 838.44 2820.3 833.19 2822.26 840.4"/><polyline class="b" points="2788.51 753.37 2787.33 743.93 2790.87 756.91"/><polyline class="b" points="3960.39 655.89 3959.74 650.65 3961.71 657.86"/><polygon class="b" points="3948.33 669.53 3951.87 682.52 3949.51 678.98 3948.33 669.53"/><polyline class="b" points="3926.95 680.04 3926.3 674.8 3928.26 682.01"/><polyline class="b" points="3949.51 678.98 3948.33 669.53 3951.87 682.52"/><polygon class="b" points="2953.1 822.57 2956.64 835.55 2954.28 832.01 2953.1 822.57"/><polyline class="b" points="2619.72 689.08 2619.07 683.83 2621.03 691.05"/><polyline class="b" points="2954.28 832.01 2953.1 822.57 2956.64 835.55"/><polyline class="b" points="2941.16 829.54 2940.51 824.29 2942.47 831.5"/><polygon class="b" points="2617.1 699.18 2620.64 712.16 2618.28 708.62 2617.1 699.18"/><polyline class="b" points="2696.72 743.69 2696.07 738.44 2698.03 745.65"/><polyline class="b" points="2618.28 708.62 2617.1 699.18 2620.64 712.16"/><polygon class="b" points="3732.1 641.25 3735.64 654.23 3733.28 650.69 3732.1 641.25"/><polyline class="b" points="3710.72 651.76 3710.07 646.51 3712.03 653.73"/><polyline class="b" points="3733.28 650.69 3732.1 641.25 3735.64 654.23"/><polyline class="b" points="3772.16 669.22 3771.51 663.97 3773.47 671.18"/><polygon class="b" points="3708.1 661.86 3711.64 674.84 3709.28 671.3 3708.1 661.86"/><polyline class="b" points="2712.72 877.37 2712.07 872.12 2714.03 879.33"/><polyline class="b" points="3709.28 671.3 3708.1 661.86 3711.64 674.84"/><polygon class="b" points="2712.87 814.89 2716.41 827.88 2714.05 824.34 2712.87 814.89"/><polyline class="b" points="2714.05 824.34 2712.87 814.89 2716.41 827.88"/><polyline class="b" points="2636.12 805.59 2635.47 800.35 2637.43 807.56"/><polyline class="b" points="2630.89 887.3 2630.24 882.06 2632.2 889.27"/><polygon class="b" points="2628.27 897.4 2631.81 910.39 2629.45 906.85 2628.27 897.4"/><polyline class="b" points="2629.45 906.85 2628.27 897.4 2631.81 910.39"/><polygon class="b" points="2825.96 664.63 2829.4 677.26 2827.11 673.82 2825.96 664.63"/><polyline class="b" points="2805.16 674.86 2804.52 669.75 2806.44 676.77"/><polyline class="b" points="2827.11 673.82 2825.96 664.63 2829.4 677.26"/><polyline class="b" points="2814.35 671.41 2813.71 666.31 2815.62 673.33"/><path class="b" d="M2600,773.7s-5.47,3.67,4.9,5.33,22.32-1,26.35,3.34,5.14,6,9.58,5.65a88.51,88.51,0,0,1,9.8,0l6.65-1.32-1,3s-5,3-8,3-7-1-11-2-7.72-5.67-8.36-5.83-4.14-2.17-5.89-1.67-4.75,1.5-7.75.5-10-3-12-3S2593.75,776.7,2600,773.7Z"/><path class="b" d="M2659.3,786.7s13,0,14,2,1,2.5,8,4.25,9,1.75,11,2.75,2.66,1,2.83,2.53a3.1,3.1,0,0,0,1.92,2.8c1.25.67.75,2.34,0,4a16.07,16.07,0,0,1-2.75,3.67h-3.17c-2.83,0-3.17-2-5.5,0s-.67,3.3-3.5,3.65-6.17-1.35-7.5,0a7.61,7.61,0,0,1-4,2.54,17.92,17.92,0,0,1-6.33.81c-2,0-5-1-8,0s-4,1-6,2-6,8.35-6,10.18.66,4.8-.67,5.31-2.33,7.51-2.33,8.51-1,4.33,0,6.17,0,3.91,0,4.87-3.86-9.71-3.86-9.71,2.86-30.33,17.86-30.33,17,0,18-1,1-1,4-1,3,1,4,0,1-2,3-3a10,10,0,0,1,4-1h3c2,0,2,1,3,0l1-1c1-1,1.44-.5,1.72-1.75s1.28-2.25.28-2.25a3.49,3.49,0,0,1-2.34-1.36c-.66-.64-1.66.36-1.66-1.64s-1-1-1-2-1-1-3-1-2,1-5,0l-6-2c-3-1-3,1-4,0s-2.11-1-3.56-2-1.44-2-2.44-2h-8Z"/><polygon class="b" points="2667.46 775.7 2668.3 779.33 2667.74 778.34 2667.46 775.7"/><polyline class="b" points="2690.41 780.64 2690.26 779.17 2690.72 781.19"/><polyline class="b" points="2667.74 778.34 2667.46 775.7 2668.3 779.33"/><polyline class="b" points="2647.64 767.65 2647.49 766.18 2647.95 768.2"/><polyline class="b" points="2661.13 796.06 2660.3 791.7 2662.79 797.7"/><polyline class="b" points="2674.39 807.14 2673.75 802.04 2675.66 809.06"/><polyline class="b" points="2656.57 803.7 2655.93 798.59 2657.85 805.61"/><polygon class="b" points="2724.3 727.7 2724.3 724.45 2726.3 722.7 2741.3 722.7 2743.3 724.7 2743.3 727.7 2727.67 727.7 2724.3 727.7"/><polygon class="a" points="2725.3 728.7 2726.3 724.7 2726.76 726.7 2727.3 725.7 2727.96 728.7 2725.3 728.7"/><polygon class="a" points="2740.63 732.7 2742.38 726.7 2743.18 729.7 2744.13 728.2 2745.3 732.7 2740.63 732.7"/><rect class="a" x="2729.3" y="725.7" width="1" height="1"/><rect class="a" x="2731.3" y="725.7" width="1" height="1"/><rect class="a" x="2733.3" y="725.7" width="1" height="1"/><rect class="a" x="2735.3" y="725.7" width="1" height="1"/><rect class="a" x="2737.3" y="725.7" width="1" height="1"/><path class="b" d="M2618.51,878a79.8,79.8,0,0,0,7-4.58c1-1,4,2.58,4,2.58s-1,0-1,2-1,11-6,16a15.66,15.66,0,0,0,1-7.58s-2,1.58-4,3.58C2619.51,890,2624.51,883,2618.51,878Z"/><path class="b" d="M2697.51,849a2.94,2.94,0,0,0,3,3s-2,0-5,4A13.83,13.83,0,0,0,2697.51,849Z"/><polygon class="b" points="2799.51 806.02 2796.51 817.02 2798.51 814.02 2799.51 806.02"/><path class="b" d="M2411,904.78c-1,0-7.56-1.51-7.56-1.51a36.53,36.53,0,0,0-3.62.63,2.54,2.54,0,0,0-.92.37c-.51.51-4.54,8.58-5.05,8.58s-4.54,2-4.54,2.52-3,3-3,4.54-1.51,4-1.51,4l-6.56,3s-4,4.54-5,5.55-4.54,2.52-5.55,4-2,3.53-5,4-4,.51-4.54,1a44.88,44.88,0,0,1-4.54,2.52s5.49,1.52,5.77,1a4.77,4.77,0,0,1,3.31-2c1.51,0,2.52-.51,3.53-.51a14.57,14.57,0,0,0,4.54-1c1-.5,0,0,2.52-2.52s2.52-2,3.53-3l3-3c1-1,2.52-3,3-3.53a7.82,7.82,0,0,1,3-2c1.52-.5,3.53-1.51,4.54-1.51s1-2.52,1.52-3.53a3.25,3.25,0,0,0,0-3c-.51-1-1-.5.5-2s1.51-2.53,3-2.53,1,2.53,2.52-.5,1.51-3.53,2-4,2.52-2,2.52-3,3.53-3,5-2.52A7.57,7.57,0,0,0,2411,904.78Z"/><polygon class="b" points="3487.55 584.02 3481.47 606.29 3485.52 600.22 3487.55 584.02"/><polyline class="b" points="3524.22 602.05 3525.34 593.05 3521.97 605.42"/><polyline class="b" points="3485.52 600.22 3487.55 584.02 3481.47 606.29"/><polyline class="b" points="3508.02 595.97 3509.14 586.98 3505.77 599.35"/><polygon class="b" points="3528.71 619.37 3522.64 641.64 3526.69 635.57 3528.71 619.37"/><polyline class="b" points="3565.38 637.4 3566.51 628.4 3563.13 640.77"/><polyline class="b" points="3526.69 635.57 3528.71 619.37 3522.64 641.64"/><path class="b" d="M3349.83,707.61s-20.47,3.95-17.68,6.74-2.79,5.6-5.59,5.6-28,5.59-30.75,5.59-5.59,11.18-5.59,11.18a39.55,39.55,0,0,0-14-8.39c-8.39-2.79-5.6-6.74-23.77-6.16,0,0,12.58-2.22,21,.57s16.78-2.79,22.37-2.79,25.16,0,28-2.8,8.53-6.3,16.84-8.74Z"/><polygon class="b" points="2889.92 547.02 2886.47 559.65 2888.77 556.21 2889.92 547.02"/><polyline class="b" points="2910.71 557.25 2911.35 552.14 2909.44 559.16"/><polyline class="b" points="2888.77 556.21 2889.92 547.02 2886.47 559.65"/><polyline class="b" points="2901.53 553.8 2902.16 548.7 2900.25 555.71"/><polygon class="b" points="2913.26 567.07 2909.82 579.7 2912.11 576.25 2913.26 567.07"/><polyline class="b" points="2934.06 577.29 2934.7 572.19 2932.78 579.21"/><polyline class="b" points="2912.11 576.25 2913.26 567.07 2909.82 579.7"/><polygon class="b" points="3187.28 616.69 3183.16 631.8 3185.91 627.68 3187.28 616.69"/><polyline class="b" points="3212.17 628.92 3212.93 622.82 3210.64 631.21"/><polyline class="b" points="3185.91 627.68 3187.28 616.69 3183.16 631.8"/><polygon class="b" points="3005.44 762.93 3001.9 775.91 3004.26 772.37 3005.44 762.93"/><polyline class="b" points="3945.82 652.44 3946.47 647.19 3944.5 654.4"/><polyline class="b" points="3004.26 772.37 3005.44 762.93 3001.9 775.91"/><polyline class="b" points="3780.37 674.89 3781.03 669.65 3779.06 676.86"/><polygon class="b" points="3792.44 688.53 3788.9 701.52 3791.26 697.98 3792.44 688.53"/><polyline class="b" points="3813.82 699.04 3814.47 693.8 3812.5 701.01"/><polyline class="b" points="3791.26 697.98 3792.44 688.53 3788.9 701.52"/><polygon class="b" points="3813.67 636.57 3810.13 649.55 3812.49 646.01 3813.67 636.57"/><polyline class="b" points="3173.05 708.08 3173.7 702.83 3171.74 710.05"/><polyline class="b" points="3812.49 646.01 3813.67 636.57 3810.13 649.55"/><polyline class="b" points="3825.6 643.54 3826.26 638.29 3824.29 645.5"/><polygon class="b" points="3175.67 718.18 3172.13 731.16 3174.49 727.62 3175.67 718.18"/><polyline class="b" points="3096.05 762.69 3096.7 757.44 3094.74 764.65"/><polyline class="b" points="3174.49 727.62 3175.67 718.18 3172.13 731.16"/><polygon class="b" points="3451.67 678.25 3448.13 691.23 3450.49 687.69 3451.67 678.25"/><polyline class="b" points="3473.05 688.76 3473.7 683.51 3471.74 690.73"/><polyline class="b" points="3450.49 687.69 3451.67 678.25 3448.13 691.23"/><polyline class="b" points="3463.6 685.22 3464.26 679.97 3462.29 687.18"/><polygon class="b" points="2661.67 725.16 2658.13 738.14 2660.49 734.6 2661.67 725.16"/><polyline class="b" points="2683.05 735.66 2683.7 730.42 2681.74 737.63"/><polyline class="b" points="2660.49 734.6 2661.67 725.16 2658.13 738.14"/><polygon class="b" points="2682.9 673.19 2679.36 686.18 2681.72 682.64 2682.9 673.19"/><polyline class="b" points="2681.72 682.64 2682.9 673.19 2679.36 686.18"/><polygon class="b" points="4008.67 660.25 4005.13 673.23 4007.49 669.69 4008.67 660.25"/><polyline class="b" points="4030.05 670.76 4030.7 665.51 4028.74 672.73"/><polyline class="b" points="4007.49 669.69 4008.67 660.25 4005.13 673.23"/><polyline class="b" points="3968.6 688.22 3969.26 682.97 3967.29 690.18"/><polygon class="b" points="4032.67 680.86 4029.13 693.84 4031.49 690.3 4032.67 680.86"/><polyline class="b" points="3080.05 896.37 3080.7 891.12 3078.74 898.33"/><polyline class="b" points="4031.49 690.3 4032.67 680.86 4029.13 693.84"/><polygon class="b" points="3079.9 833.89 3076.36 846.88 3078.72 843.34 3079.9 833.89"/><polyline class="b" points="3078.72 843.34 3079.9 833.89 3076.36 846.88"/><polyline class="b" points="2598.64 724.89 2599.3 719.64 2597.33 726.86"/><polyline class="b" points="3161.88 906.3 3162.53 901.06 3160.56 908.27"/><polygon class="b" points="3164.5 916.4 3160.96 929.39 3163.32 925.85 3164.5 916.4"/><polyline class="b" points="3163.32 925.85 3164.5 916.4 3160.96 929.39"/><polygon class="b" points="2966.81 683.63 2963.36 696.26 2965.66 692.82 2966.81 683.63"/><polyline class="b" points="2987.61 693.86 2988.24 688.75 2986.33 695.77"/><polyline class="b" points="2965.66 692.82 2966.81 683.63 2963.36 696.26"/><polyline class="b" points="2978.42 690.41 2979.06 685.31 2977.14 692.33"/><path class="b" d="M2634.74,693s5.48,3.67-4.9,5.33-22.31-1-26.34,3.34-5.14,6-9.58,5.65a88.51,88.51,0,0,0-9.8,0l-6.65-1.32,1,3s5,3,8,3,7-1,11-2,7.72-5.67,8.36-5.83,4.14-2.17,5.89-1.67,4.75,1.5,7.75.5,10-3,12-3S2641,696,2634.74,693Z"/><path class="b" d="M2575.47,706s-13,0-14,2-1,2.5-8,4.25-9,1.75-11,2.75-2.67,1-2.83,2.53a3.1,3.1,0,0,1-1.92,2.8c-1.25.67-.75,2.34,0,4a16.07,16.07,0,0,0,2.75,3.67h3.17c2.83,0,3.16-2,5.5,0s.66,3.3,3.5,3.65,6.16-1.35,7.5,0a7.57,7.57,0,0,0,4,2.54,17.92,17.92,0,0,0,6.33.81c2,0,5-1,8,0s4,1,6,2,6,8.35,6,10.18-.67,4.8.67,5.31,2.33,7.51,2.33,8.51,1,4.33,0,6.17,0,3.91,0,4.87,3.86-9.71,3.86-9.71S2594.47,732,2579.47,732s-17,0-18-1-1-1-4-1-3,1-4,0-1-2-3-3a10,10,0,0,0-4-1h-3c-2,0-2,1-3,0l-1-1c-1-1-1.44-.5-1.72-1.75s-1.28-2.25-.28-2.25a3.47,3.47,0,0,0,2.33-1.35c.67-.65,1.67.35,1.67-1.65s1-1,1-2,1-1,3-1,2,1,5,0l6-2c3-1,3,1,4,0s2.11-1,3.56-2,1.44-2,2.44-2h8Z"/><polygon class="b" points="2567.31 695 2566.47 698.63 2567.03 697.64 2567.31 695"/><polyline class="b" points="2544.35 699.94 2544.51 698.47 2544.05 700.49"/><polyline class="b" points="2567.03 697.64 2567.31 695 2566.47 698.63"/><polyline class="b" points="2587.13 686.95 2587.28 685.48 2586.82 687.5"/><polyline class="b" points="2573.64 715.36 2574.47 711 2571.98 717"/><polyline class="b" points="2560.38 726.44 2561.02 721.34 2559.11 728.36"/><polyline class="b" points="2578.2 723 2578.84 717.89 2576.92 724.91"/><polygon class="b" points="3068.47 746.7 3068.47 743.45 3066.47 741.7 3051.47 741.7 3049.47 743.7 3049.47 746.7 3065.1 746.7 3068.47 746.7"/><polygon class="a" points="3067.47 747.7 3066.47 743.7 3066.01 745.7 3065.47 744.7 3064.8 747.7 3067.47 747.7"/><polygon class="a" points="3052.14 751.7 3050.39 745.7 3049.59 748.7 3048.64 747.2 3047.47 751.7 3052.14 751.7"/><rect class="a" x="3062.47" y="744.7" width="1" height="1" transform="translate(6125.94 1490.4) rotate(-180)"/><rect class="a" x="3060.47" y="744.7" width="1" height="1" transform="translate(6121.94 1490.4) rotate(-180)"/><rect class="a" x="3058.47" y="744.7" width="1" height="1" transform="translate(6117.94 1490.4) rotate(-180)"/><rect class="a" x="3056.47" y="744.7" width="1" height="1" transform="translate(6113.94 1490.4) rotate(-180)"/><rect class="a" x="3054.47" y="744.7" width="1" height="1" transform="translate(6109.94 1490.4) rotate(-180)"/><polygon class="b" points="3672.84 443.89 3676.29 456.52 3673.99 453.07 3672.84 443.89"/><polyline class="b" points="3652.05 454.11 3651.41 449.01 3653.32 456.03"/><polyline class="b" points="3673.99 453.07 3672.84 443.89 3676.29 456.52"/><polyline class="b" points="3661.23 450.67 3660.59 445.56 3662.51 452.58"/><polygon class="b" points="3649.49 463.94 3652.94 476.57 3650.64 473.12 3649.49 463.94"/><polyline class="b" points="3628.7 474.16 3628.06 469.06 3629.97 476.07"/><polyline class="b" points="3650.64 473.12 3649.49 463.94 3652.94 476.57"/><polygon class="b" points="3560.47 416.56 3564.59 431.67 3561.85 427.55 3560.47 416.56"/><polyline class="b" points="3561.85 427.55 3560.47 416.56 3564.59 431.67"/><polyline class="b" points="3574.71 507.95 3574.05 502.7 3576.02 509.91"/><polygon class="b" points="3572.09 518.04 3575.63 531.03 3573.27 527.49 3572.09 518.04"/><polyline class="b" points="3573.27 527.49 3572.09 518.04 3575.63 531.03"/><polygon class="b" points="3780.95 483.5 3784.39 496.13 3782.09 492.69 3780.95 483.5"/><polyline class="b" points="3760.15 493.72 3759.51 488.62 3761.43 495.64"/><polyline class="b" points="3782.09 492.69 3780.95 483.5 3784.39 496.13"/><polyline class="b" points="3769.34 490.28 3768.7 485.18 3770.61 492.19"/><polygon class="b" points="3679.29 546.57 3679.29 543.32 3681.29 541.57 3696.29 541.57 3698.29 543.57 3698.29 546.57 3682.66 546.57 3679.29 546.57"/><polygon class="b" points="2207.7 558.69 2210.7 569.69 2208.7 566.69 2207.7 558.69"/><polyline class="b" points="2189.59 567.6 2189.04 563.15 2190.7 569.26"/><polyline class="b" points="2208.7 566.69 2208.37 566.37 2210.7 569.69"/><polyline class="b" points="2197.59 564.6 2197.04 560.15 2198.7 566.26"/><polygon class="b" points="2359.37 630.15 2362.37 641.15 2360.37 638.15 2359.37 630.15"/><polyline class="b" points="2341.26 639.05 2340.7 634.61 2342.37 640.72"/><polyline class="b" points="2360.37 638.15 2359.37 630.15 2362.37 641.15"/><polygon class="b" points="2062.98 610.5 2066.42 623.13 2064.12 619.69 2062.98 610.5"/><polyline class="b" points="2042.18 620.72 2041.54 615.62 2043.46 622.64"/><polyline class="b" points="2064.12 619.69 2062.98 610.5 2066.42 623.13"/><polyline class="b" points="2051.37 617.28 2050.73 612.17 2052.64 619.19"/><polygon class="b" points="2039.63 630.55 2043.07 643.18 2040.78 639.73 2039.63 630.55"/><polyline class="b" points="2040.78 639.73 2039.63 630.55 2043.07 643.18"/><polygon class="b" points="2171.08 650.11 2174.53 662.74 2172.23 659.3 2171.08 650.11"/><polyline class="b" points="2150.29 660.34 2149.65 655.23 2151.56 662.25"/><polyline class="b" points="2172.23 659.3 2171.08 650.11 2174.53 662.74"/><polyline class="b" points="2159.47 656.89 2158.83 651.79 2160.75 658.8"/><polygon class="b" points="2069.42 713.18 2069.42 709.93 2071.42 708.18 2086.42 708.18 2088.42 710.18 2088.42 713.18 2072.8 713.18 2069.42 713.18"/><polygon class="a" points="2070.42 714.18 2071.42 710.18 2071.88 712.18 2072.42 711.18 2073.09 714.18 2070.42 714.18"/><polygon class="a" points="2085.75 718.18 2087.5 712.18 2088.31 715.18 2089.25 713.68 2090.42 718.18 2085.75 718.18"/><rect class="a" x="2074.42" y="711.18" width="1" height="1"/><rect class="a" x="2076.42" y="711.18" width="1" height="1"/><rect class="a" x="2078.42" y="711.18" width="1" height="1"/><rect class="a" x="2080.42" y="711.18" width="1" height="1"/><rect class="a" x="2082.42" y="711.18" width="1" height="1"/><polygon class="b" points="2235.04 532.5 2231.59 545.13 2233.89 541.69 2235.04 532.5"/><polyline class="b" points="2255.84 542.72 2256.47 537.62 2254.56 544.64"/><polyline class="b" points="2233.89 541.69 2235.04 532.5 2231.59 545.13"/><polyline class="b" points="2246.65 539.28 2247.29 534.17 2245.37 541.19"/><polygon class="b" points="2258.39 552.55 2254.94 565.18 2257.24 561.73 2258.39 552.55"/><polyline class="b" points="2279.18 562.77 2279.82 557.67 2277.91 564.68"/><polyline class="b" points="2257.24 561.73 2258.39 552.55 2254.94 565.18"/><polygon class="b" points="2311.93 669.11 2308.49 681.74 2310.78 678.3 2311.93 669.11"/><polyline class="b" points="2332.73 679.34 2333.37 674.23 2331.45 681.25"/><polyline class="b" points="2310.78 678.3 2311.93 669.11 2308.49 681.74"/><polyline class="b" points="2323.54 675.89 2324.18 670.79 2322.27 677.8"/><path class="b" d="M1678.75,938.79s-3,13.65-6.07,15.16-1.51,24.26-1.51,24.26,3-7.58,4.51-9.1-1.51-13.64,1.52-15.16,1.55-15.16,1.55-15.16"/><polygon class="b" points="1791.04 915.79 1796.04 901.79 1793.04 913.79 1791.04 915.79"/><polygon class="b" points="1801.04 902.79 1799.04 907.79 1800.04 906.79 1801.04 902.79"/><polygon class="b" points="1808.04 898.79 1804.87 907.79 1806.04 906.79 1808.04 898.79"/><path class="b" d="M1849,845.79a79.8,79.8,0,0,0,7-4.58c1-1,4,2.58,4,2.58s-1,0-1,2-1,11-6,16a15.66,15.66,0,0,0,1-7.58s-2,1.58-4,3.58C1850,857.79,1855,850.79,1849,845.79Z"/><polygon class="b" points="1728.82 928.79 1723.96 940.12 1727.2 936.88 1728.82 928.79"/><polygon class="b" points="1739 925.41 1735.76 935.12 1739 931.52 1739 925.41"/><path class="b" d="M1928,816.79a2.94,2.94,0,0,0,3,3s-2,0-5,4A13.83,13.83,0,0,0,1928,816.79Z"/><polygon class="b" points="2030.04 773.79 2027.04 784.79 2029.04 781.79 2030.04 773.79"/><path class="b" d="M2226,704.79c-2,0-15-3-15-3a71.52,71.52,0,0,0-7.17,1.26,5,5,0,0,0-1.83.74c-1,1-9,17-10,17s-9,4-9,5-6,6-6,9-3,8-3,8l-13,6s-8,9-10,11-9,5-11,8-4,7-10,8-8,1-9,2-9,5-9,5,10.89,3,11.44,2,3.56-4,6.56-4,5-1,7-1a29.2,29.2,0,0,0,9-2c2-1,0,0,5-5s5-4,7-6l6-6c2-2,5-6,6-7a15.38,15.38,0,0,1,6-4c3-1,7-3,9-3s2-5,3-7a6.38,6.38,0,0,0,0-6c-1-2-2-1,1-4s3-5,6-5,2,5,5-1,3-7,4-8,5-4,5-6,7-6,10-5S2226,704.79,2226,704.79Z"/><polyline class="b" points="2202.34 825.2 2203 819.96 2201.03 827.17"/><polyline class="b" points="2036.9 847.66 2037.56 842.42 2035.59 849.63"/><polygon class="b" points="2048.97 861.3 2045.43 874.29 2047.79 870.74 2048.97 861.3"/><polyline class="b" points="2070.34 871.81 2071 866.56 2069.03 873.78"/><polyline class="b" points="2047.79 870.74 2048.97 861.3 2045.43 874.29"/><polygon class="b" points="2070.2 809.34 2066.66 822.32 2069.02 818.78 2070.2 809.34"/><polyline class="b" points="2069.02 818.78 2070.2 809.34 2066.66 822.32"/><polyline class="b" points="2082.13 816.3 2082.79 811.06 2080.82 818.27"/><polygon class="b" points="2446.42 747.12 2449.42 758.12 2447.42 755.12 2446.42 747.12"/><polyline class="b" points="2428.31 756.02 2427.76 751.57 2429.42 757.69"/><polyline class="b" points="2447.42 755.12 2447.09 754.79 2449.42 758.12"/><polyline class="b" points="2436.31 753.02 2435.76 748.57 2437.42 754.69"/><polyline class="b" points="2579.98 827.48 2579.42 823.03 2581.09 829.14"/><polygon class="b" points="2301.69 798.92 2305.14 811.55 2302.84 808.11 2301.69 798.92"/><polyline class="b" points="2280.9 809.14 2280.26 804.04 2282.17 811.06"/><polyline class="b" points="2302.84 808.11 2301.69 798.92 2305.14 811.55"/><polyline class="b" points="2290.08 805.7 2289.45 800.6 2291.36 807.61"/><polygon class="b" points="2278.34 818.97 2281.79 831.6 2279.49 828.15 2278.34 818.97"/><polyline class="b" points="2257.55 829.19 2256.91 824.09 2258.82 831.11"/><polyline class="b" points="2279.49 828.15 2278.34 818.97 2281.79 831.6"/><polygon class="b" points="2409.8 838.53 2413.24 851.17 2410.95 847.72 2409.8 838.53"/><polyline class="b" points="2389 848.76 2388.36 843.65 2390.28 850.67"/><polyline class="b" points="2410.95 847.72 2409.8 838.53 2413.24 851.17"/><polyline class="b" points="2398.19 845.31 2397.55 840.21 2399.47 847.23"/><polygon class="b" points="2473.76 720.92 2470.31 733.55 2472.61 730.11 2473.76 720.92"/><polyline class="b" points="2494.55 731.14 2495.19 726.04 2493.28 733.06"/><polyline class="b" points="2472.61 730.11 2473.76 720.92 2470.31 733.55"/><polyline class="b" points="2485.37 727.7 2486.01 722.6 2484.09 729.61"/><polygon class="b" points="2497.11 740.97 2493.66 753.6 2495.96 750.15 2497.11 740.97"/><polyline class="b" points="2517.9 751.19 2518.54 746.09 2516.63 753.11"/><polyline class="b" points="2495.96 750.15 2497.11 740.97 2493.66 753.6"/><polygon class="b" points="2266.74 847.09 2263.2 860.08 2265.56 856.54 2266.74 847.09"/><polyline class="b" points="2265.56 856.54 2266.74 847.09 2263.2 860.08"/><polygon class="b" points="1578.42 816.65 1572.35 838.92 1576.4 832.85 1578.42 816.65"/><polyline class="b" points="1615.09 834.67 1616.22 825.67 1612.84 838.05"/><polyline class="b" points="1576.4 832.85 1578.42 816.65 1572.35 838.92"/><polyline class="b" points="1598.89 828.6 1600.02 819.6 1596.65 831.98"/><polygon class="b" points="1619.59 852 1613.52 874.27 1617.57 868.19 1619.59 852"/><polyline class="b" points="1656.26 870.02 1657.39 861.02 1654.01 873.4"/><polyline class="b" points="1617.57 868.19 1619.59 852 1613.52 874.27"/><polyline class="b" points="1563.92 921.38 1564.58 916.14 1562.61 923.35"/><polygon class="b" points="6850.67 944.16 6854.11 956.79 6851.82 953.35 6850.67 944.16"/><polyline class="b" points="6812.87 906.38 6812.23 901.28 6814.15 908.3"/><polyline class="b" points="6851.82 953.35 6850.67 944.16 6854.11 956.79"/><polyline class="b" points="6839.06 950.94 6838.42 945.84 6840.33 952.85"/><polygon class="b" points="6810.32 916.21 6813.77 928.84 6811.47 925.39 6810.32 916.21"/><polyline class="b" points="7007.52 915.43 7006.89 910.33 7008.8 917.34"/><polyline class="b" points="6811.47 925.39 6810.32 916.21 6813.77 928.84"/><polyline class="b" points="6948.43 996.89 6947.78 991.64 6949.74 998.86"/><path class="b" d="M6913.22,971s10.39,0,11.19,2.6.8,3.25,6.39,5.53,7.19,2.28,8.79,3.58,2.13,1.37,2.27,3.29.53,2.78,1.53,3.65.6,3,0,5.2a22.81,22.81,0,0,1-2.2,4.77h-2.53c-2.26,0-2.53-2.6-4.4,0s-.53,4.29-2.79,4.75-4.93-1.76-6,0a6.79,6.79,0,0,1-3.19,3.31,9.32,9.32,0,0,1-5.07,1.05c-1.59,0-4-1.3-6.39,0s-3.2,1.3-4.8,2.6-4.79,10.87-4.79,13.24.53,6.25-.53,6.91-1.87,9.77-1.87,11.08-.8,5.63,0,8,0,5.09,0,6.34-3.09-12.63-3.09-12.63,2.29-39.46,14.28-39.46,13.59,0,14.39-1.3.8-1.31,3.19-1.31,2.4,1.31,3.2,0,.8-2.6,2.4-3.9a5.56,5.56,0,0,1,3.2-1.3h2.39c1.6,0,1.6,1.3,2.4,0l.8-1.3c.8-1.3,1.16-.65,1.38-2.28s1-2.92.22-2.92-1.33-.93-1.87-1.77-1.33.46-1.33-2.14-.8-1.3-.8-2.6-.8-1.3-2.39-1.3-1.6,1.3-4,0l-4.8-2.6c-2.39-1.3-2.39,1.3-3.19,0s-1.69-1.3-2.85-2.6-1.15-2.61-1.95-2.61-2.08-1.3-2.88-1.3Z"/><polyline class="b" points="6959.95 958.95 6959.8 957.48 6960.26 959.5"/><polyline class="b" points="6973.44 987.36 6972.61 983 6975.1 989"/><polyline class="b" points="6968.88 995 6968.24 989.89 6970.16 996.91"/><path class="b" d="M6636.13,982.5l-3.4,6.79,10.18,1.69s-2.26-6.78-1.13-8.48,6.22-3.39,6.22-3.39l-5.09-6.79Z"/><polygon class="b" points="6643.26 1013.46 6637.19 1035.73 6641.23 1029.65 6643.26 1013.46"/><polyline class="b" points="6679.93 1031.48 6681.05 1022.48 6677.68 1034.86"/><polyline class="b" points="6641.23 1029.65 6643.26 1013.46 6637.19 1035.73"/><polyline class="b" points="6663.73 1025.41 6664.86 1016.41 6661.48 1028.78"/><polygon class="b" points="6684.43 1048.8 6678.35 1071.08 6682.4 1065 6684.43 1048.8"/><polyline class="b" points="6682.4 1065 6684.43 1048.8 6678.35 1071.08"/><polygon class="b" points="6828.56 873.32 6832 885.95 6829.7 882.51 6828.56 873.32"/><polyline class="b" points="6949.76 937.54 6949.12 932.44 6951.03 939.46"/><polyline class="b" points="6829.7 882.51 6828.56 873.32 6832 885.95"/><polyline class="b" points="6816.94 880.1 6816.31 875 6818.22 882.01"/><polygon class="b" points="6976.21 957.37 6979.65 970 6977.36 966.55 6976.21 957.37"/><polyline class="b" points="6784.41 903.59 6783.77 898.49 6785.69 905.51"/><polyline class="b" points="6812.36 983.55 6811.21 974.37 6814.65 987"/><polygon class="b" points="6716.19 845.99 6720.31 861.11 6717.56 856.98 6716.19 845.99"/><polyline class="b" points="6717.56 856.98 6716.19 845.99 6720.31 861.11"/><polyline class="b" points="6730.42 937.38 6729.77 932.13 6731.74 939.35"/><polygon class="b" points="6727.8 947.48 6731.34 960.46 6728.98 956.92 6727.8 947.48"/><polyline class="b" points="6728.98 956.92 6727.8 947.48 6731.34 960.46"/><path class="a" d="M5906.73,516.88a7.88,7.88,0,1,0-15.76,0c0,4.35,4.92,10.76,7.88,10.76C5901.14,527.64,5906.73,521.23,5906.73,516.88Z"/><path class="a" d="M5897.86,528.56h2a0,0,0,0,1,0,0v1.37a.6.6,0,0,1-.6.6h-.76a.6.6,0,0,1-.6-.6v-1.37a0,0,0,0,1,0,0Z"/><polyline class="a" points="5896.71 524.12 5898.02 529.05 5899.67 529.05 5900.65 524.12"/><path class="b" d="M6465.11,703l2.89-4,4,2s-2,3.63,0,3.81a18.34,18.34,0,0,0,3.56,0l1.33,1.82-1.78,3.87s-3.11.5-4.11,0a15.23,15.23,0,0,1-2.33-2c-.67-.49-3.45.48-3.56,0s-1.44.47-1.78-1-1.44-2.76-.89-2.62S6465.11,703,6465.11,703Z"/><path class="b" d="M6385,824.33c1.31,0,25.07-1.31,48.54-1.31s51.42,2.77,51.42,2.77S6472.9,827,6459.78,827l-1.31-1.32-1.31,2.63-1.32-1.31-.51,1.31-2.11-2.63V827l-1.31-1.32-3.94,2.63-1.31-1.31-3.94,3.93-1.31-1.31-1.31,1.31-1.31-3.93-1.31,3.93-2.63-2.62-2.62,2.62-1.31-3.93-1.31,2.62-1.32-1.31-2.62,2.62-2.62-1.31-1.32-2.62h-2.62l-1.31-2.63-1.31,3.94-1.32-2.63-1.31,2.63-2.62-3.94-1.15,2.19-.16-.88-3,5.25-1-6.56-1.31,2.63-1.31-1.32-1.31,2.63-5.25-3.94-1.31,1.31-1.32-1.31-2.62,1.31-2.62-1.31-1.32,1.31-1.31,1.32Z"/><path class="b" d="M6508.32,825.64s15.74,0,19.68,1.32h-5.61l-1-.66-1.27.66-.69-.66-1.94,2-1.31-1.31-1.31,1.31-2.62-1.31-1.32,1.31Z"/><polyline class="b" points="6502.33 833.5 6501.24 827.78 6504.51 835.65"/><polyline class="b" points="6496.35 843.52 6495.51 836.83 6498.02 846.03"/><polyline class="b" points="6456.41 838.75 6455.32 833.03 6458.59 840.9"/><polyline class="b" points="6479.3 821.22 6478.46 814.52 6480.97 823.73"/><polyline class="b" points="6420.88 836.37 6420.04 829.68 6422.55 838.88"/></svg>