<svg xmlns="http://www.w3.org/2000/svg" width="15361" height="1440" viewBox="0 0 15361 1440"><defs><style>.a,.b,.c,.d{fill:#fff;}.a{opacity:0.23;}.b{opacity:0.14;}.c{opacity:0.33;}.d{opacity:0.2;}</style></defs><path class="a" d="M8009.93,755h-367s-8,0-5-2,11-3,11-4,5-1,9-2,11-1,17-3,20-3,25-2,5,1,11,2,9-5,14,0c0,0,7-13,14-13s16,2,21,3,15-1,20-1,14-1,18,1,7,3,11,3,25-5,29-5,3.11-1,10.55-1,8.45,1,11.45,2,5,3,9,4,4,3,10,4,26-1,29-2,5-2,10-2,8-2,13-1a31,31,0,0,1,7,2c3,1,8,4,9,4s4,7,14,7,16-1,24-1,13,0,17,1,2,1.33,8,1.67,13,1.33,11,2.33S8016.93,755,8009.93,755Z"/><path class="b" d="M9073.93,652.6s-27,11-45,8c0,0-96,4-124,2,0,0-40-2-56-2s-48-2-53-5c0,0-12.78-3-17.89-3s-36.11,0-15.11-3,21-1,28-2,22-2,27-3,11-5,20-6,11,1,18-1,22-6,28-6,8,2,13,0c11.08-4.43,26-11,35-10s13,2,13,5-3.17,4-6,4c-2,0-1.75-1-2.84-1.16a2.37,2.37,0,0,0-2.1,3.85c.59.75.94,1.31,1.94,1.31a18.54,18.54,0,0,0,7-2c2-1,10-2,12-2s10-1,18,2,8,6,16,7,12-1,23,0,17,1,21,3,6,7,16,7S9076.93,649.6,9073.93,652.6Z"/><path class="a" d="M10031.93,832.6s9,1,9,6-2,7.34-4.5,7.17-5.5-1.17-8.5-1.17-8,1.35-12.5,1.18-10.17.21-14.84,0-13.33.31-14.5.06-18.16-.25,6.84-4.25c0,0,1-5,12-4,0,0,4-3,11,0C10015.93,837.6,10016.93,830.6,10031.93,832.6Z"/><path class="a" d="M5737.93,825.76s-29.73,2.49-29.73,14.91,6.61,18.22,14.87,17.8,18.17-2.9,28.08-2.9,26.42,3.36,41.29,2.92,33.58.52,49,0,44,.75,47.9.14,60-.61-22.57-10.55c0,0-3.31-12.42-39.65-9.94,0,0-13.21-7.45-36.33,0C5790.79,838.18,5787.48,820.79,5737.93,825.76Z"/><path class="b" d="M5669.87,240.49s38.38,22.84,64,16.61c0,0,136.46,8.31,176.27,4.15,0,0,56.86-4.15,79.6-4.15s68.23-4.15,75.34-10.38c0,0,18.16-6.23,25.43-6.23s51.33,0,21.48-6.23-29.85-2.08-39.8-4.16-31.27-4.15-38.38-6.23-15.64-10.38-28.43-12.46-15.64,2.08-25.59-2.07-31.27-12.46-39.8-12.46-11.37,4.15-18.48,0c-15.76-9.21-37-22.85-49.75-20.77S5855,173.77,5855,180s-3.2,3.4-5,7c-1,2-3.75,1.06-5,2-4,3-1.12,1.55-3,5-.85,1.56-5.58,5-7,5-2.84,0-3.07,0-5.91-2.05s-14.22-4.15-17.06-4.15-6.21-3.08-17.59,3.15-11.37,12.46-22.74,14.54,1.94.92-13.69,3-24.17,2.08-29.86,6.23-8.53,14.54-22.74,14.54S5665.61,234.26,5669.87,240.49Z"/><path class="a" d="M8756,309s71,1,84-2-14-6-20-6-14-4-23-4-9-18-53-18c0,0-9.77-6.25-20-2,0,0-14-12-33-12s-44.81,6.86-58,14c-24,13-37,9-37,9s-10,2-14,8c0,0-7,0-12,2,0,0-16,0-24,5s-33,4-33,4-9,1,2,3c12,0,82.67,2,94.34,0s50.66-3,58.66-1S8744,309,8756,309Z"/><path class="a" d="M9806,373.4s40.72,2.32,40.72,13.93-9,17-20.36,16.64-24.88-2.71-38.46-2.71-36.19,3.13-56.55,2.73-46,.48-67.11,0-60.32.7-65.6.13-82.19-.57,30.92-9.86c0,0,4.52-11.61,54.29-9.28,0,0,18.09-7,49.76,0C9733.62,385,9738.15,368.75,9806,373.4Z"/><path class="c" d="M3502.54,914.91s1.3,7.07,26.07,8.64,67.8,1.57,67.8,1.57-4.34,4.65,20,5.47,112.13,1.54,136-3.93c0,0,76.92,1.54,113,0S4088,929,4095.77,922.73c0,0,44.33.82,56.07-3.11s-18.26-7.86-23.47-7.86-28.69-6.28-43-5.5-42.15-2.49-49.11-.06c0,0-14.77-2.68-26.51-.91,0,0-2.61-4.53-10.43-3.74,0,0-11.73-10.07-35.2-7.07,0,0-22.17-14-84.75-5.5,0,0-10.43-9.5-79.53-9.5,0,0-87.36,7-88.66,18.93,0,0-74.32-7.93-73,5.5,0,0-87.35.78-83.44,6.28C3554.69,910.19,3505.15,907.83,3502.54,914.91Z"/><path class="d" d="M4287.4,662.71s47.91,10.14,68.93,9.15,58.86-6.27,72.59-2.13,52.4-6.86,66.2-36.06c0,0,16.81-62.28-58.1-51.66,0,0,38-3.81,19.49,43.21,0,0-4-14.26-31.65-16.76,0,0-6.74-18-40.35-16.7,0,0-63.84-3.69-63.78,26.44,0,0-53.94-5.2-54.25,13.62,0,0-49.28,3.24-37.2,19.83C4237.19,662.52,4287.4,662.71,4287.4,662.71Z"/><path class="a" d="M887.54,740.48s71,1,84-2-14-6-20-6-14-4-23-4-9-18-53-18c0,0-9.78-6.25-20-2,0,0-14-12-33-12s-44.81,6.85-58,14c-24,13-37,9-37,9s-10,2-14,8c0,0-7,0-12,2,0,0-16,0-24,5s-33,4-33,4-9,1,2,3c12,0,82.66,2,94.33,0s50.67-3,58.67-1S875.54,740.48,887.54,740.48Z"/><path class="a" d="M3558.54,655.48s-9,1-9,6,2,7.33,4.5,7.16,5.5-1.16,8.5-1.16,8,1.35,12.5,1.17,10.16.21,14.83,0,13.33.3,14.5.05,18.17-.24-6.83-4.24c0,0-1-5-12-4,0,0-4-3-11,0C3574.54,660.48,3573.54,653.48,3558.54,655.48Z"/><path class="a" d="M3140.46,338.87h-367s-8,0-5-2,11-3,11-4,5-1,9-2,11-1,17-3,20-3,25-2,5,1,11,2,9-5,14,0c0,0,7-13,14-13s16,2,21,3,15-1,20-1,14-1,18,1,7,3,11,3,25-5,29-5,3.11-1,10.56-1,8.44,1,11.44,2,5,3,9,4,4,3,10,4,26-1,29-2,5-2,10-2,8-2,13-1a31,31,0,0,1,7,2c3,1,8,4,9,4s4,7,14,7,16-1,24-1,13,0,17,1,2,1.34,8,1.67,13,1.33,11,2.33S3147.46,338.87,3140.46,338.87Z"/><path class="c" d="M2933.07,490.3s-1.93,7.07-38.62,8.65S2794,500.52,2794,500.52s6.44,4.65-29.61,5.47-166.06,1.53-201.46-3.93c0,0-113.92,1.54-167.35,0s-329.54,2.32-341.13-3.93c0,0-65.65.82-83-3.11s27-7.86,34.76-7.86,42.48-6.29,63.72-5.5,62.43-2.49,72.73-.07c0,0,21.89-2.67,39.26-.91,0,0,3.87-4.52,15.45-3.73,0,0,17.38-10.08,52.14-7.08,0,0,32.82-14,125.51-5.5,0,0,15.44-9.5,117.78-9.5,0,0,129.38,7,131.31,18.93,0,0,110.06-7.93,108.13,5.5,0,0,129.37.79,123.58,6.29C2855.83,485.59,2929.21,483.23,2933.07,490.3Z"/><path class="a" d="M5180.46,296.87s9,1,9,6-2,7.34-4.5,7.17-5.5-1.17-8.5-1.17-8,1.35-12.5,1.18-10.16.2-14.83,0-13.33.3-14.5.06-18.17-.25,6.83-4.25c0,0,1-5,12-4,0,0,4-3,11,0C5164.46,301.87,5165.46,294.87,5180.46,296.87Z"/><path class="a" d="M12365.54,837.48h367s8,0,5-2-11-3-11-4-5-1-9-2-11-1-17-3-20-3-25-2-5,1-11,2-9-5-14,0c0,0-7-13-14-13s-16,2-21,3-15-1-20-1-14-1-18,1-7,3-11,3-25-5-29-5-3.11-1-10.56-1-8.44,1-11.44,2-5,3-9,4-4,3-10,4-26-1-29-2-5-2-10-2-8-2-13-1a31,31,0,0,0-7,2c-3,1-8,4-9,4s-4,7-14,7-16-1-24-1-13,0-17,1-2,1.33-8,1.66-13,1.34-11,2.34S12358.54,837.48,12365.54,837.48Z"/><path class="a" d="M11077.59,723s140.74,1.79,166.51-3.57-27.75-10.71-39.64-10.71-27.76-7.15-45.6-7.15-17.84-32.14-105.06-32.14c0,0-19.39-11.16-39.65-3.57,0,0-27.75-21.43-65.42-21.43s-88.83,12.25-115,25c-47.58,23.22-73.35,16.07-73.35,16.07s-19.82,3.58-27.75,14.29c0,0-13.88,0-23.79,3.57,0,0-31.72,0-47.58,8.93s-65.42,7.14-65.42,7.14-17.84,1.79,4,5.36c23.79,0,163.87,3.57,187,0s100.44-5.36,116.3-1.79S11053.8,723,11077.59,723Z"/><path class="a" d="M6893.54,655.48s-9,1-9,6,2,7.33,4.5,7.16,5.5-1.16,8.5-1.16,8,1.35,12.5,1.17,10.16.21,14.83,0,13.33.3,14.5.05,18.17-.24-6.83-4.24c0,0-1-5-12-4,0,0-4-3-11,0C6909.54,660.48,6908.54,653.48,6893.54,655.48Z"/><path class="a" d="M14619.53,788.63s29.73,2.49,29.73,14.91-6.6,18.22-14.86,17.81-18.17-2.9-28.08-2.9-26.43,3.35-41.29,2.92-33.59.51-49,0-44.05.75-47.9.14-60-.61,22.57-10.55c0,0,3.3-12.42,39.64-9.93,0,0,13.21-7.46,36.34,0C14566.68,801.06,14570,783.66,14619.53,788.63Z"/><path class="c" d="M12587.07,516.3s-1.93,7.07-38.62,8.65-100.41,1.57-100.41,1.57,6.44,4.65-29.61,5.47-166.06,1.53-201.46-3.93c0,0-113.92,1.54-167.35,0s-329.54,2.32-341.13-3.93c0,0-65.65.82-83-3.11s27-7.86,34.76-7.86,42.48-6.29,63.72-5.5,62.43-2.49,72.73-.07c0,0,21.89-2.67,39.26-.91,0,0,3.87-4.52,15.45-3.73,0,0,17.38-10.08,52.14-7.08,0,0,32.82-14,125.51-5.5,0,0,15.44-9.5,117.78-9.5,0,0,129.38,7,131.31,18.93,0,0,110.06-7.93,108.13,5.5,0,0,129.37.79,123.58,6.29C12509.83,511.59,12583.21,509.23,12587.07,516.3Z"/><path class="b" d="M13977.59,379.36s-38.38,22.84-64,16.61c0,0-136.47,8.31-176.27,4.15,0,0-56.86-4.15-79.61-4.15s-68.23-4.15-75.34-10.38c0,0-18.16-6.23-25.42-6.23s-51.34,0-21.49-6.23,29.86-2.08,39.81-4.16,31.27-4.15,38.38-6.23,15.63-10.38,28.43-12.46,15.63,2.08,25.59-2.07,31.27-12.46,39.8-12.46,11.37,4.15,18.48,0c15.75-9.21,37-22.85,49.75-20.77s18.48,4.15,18.48,10.38-4.51,8.31-8.53,8.31c-2.84,0-2.49-2.13-4-2.42-3-.56-4.87,4.55-3,8,.85,1.56,1.33,2.73,2.76,2.73,2.84,0,7.1-2.08,9.95-4.16s14.21-4.15,17.05-4.15,14.22-2.08,25.59,4.15,11.37,12.46,22.75,14.54,17-2.08,32.69,0,24.17,2.08,29.85,6.23,8.53,14.54,22.75,14.54S13981.86,373.13,13977.59,379.36Z"/><path class="a" d="M11601.46,271.87s-71,1-84-2,14-6,20-6,14-4,23-4,9-18,53-18c0,0,9.78-6.25,20-2,0,0,14-12,33-12s44.81,6.86,58,14c24,13,37,9,37,9s10,2,14,8c0,0,7,0,12,2,0,0,16,0,24,5s33,4,33,4,9,1-2,3c-12,0-82.66,2-94.33,0s-50.67-3-58.67-1S11613.46,271.87,11601.46,271.87Z"/><path class="a" d="M14834.46,322.87s9,1,9,6-2,7.34-4.5,7.17-5.5-1.17-8.5-1.17-8,1.35-12.5,1.18-10.16.2-14.83,0-13.33.3-14.5.06-18.17-.25,6.83-4.25c0,0,1-5,12-4,0,0,4-3,11,0C14818.46,327.87,14819.46,320.87,14834.46,322.87Z"/></svg>