<svg xmlns="http://www.w3.org/2000/svg" width="800" height="800" viewBox="0 0 800 800"><defs><style>.a{fill:#01579b;}.b,.c,.d,.e,.g,.i{fill:#fff;}.b,.f{opacity:0.5;}.c{opacity:0.78;}.d{opacity:0.34;}.e{opacity:0.6;}.f,.h{fill:#1565c0;}.g{opacity:0.29;}</style></defs><rect class="a" width="800" height="800"/><polygon class="b" points="768.5 165.6 767.7 166.4 768.5 167.2 769.4 166.4 768.5 165.6"/><polygon class="b" points="745.5 221 744.7 221.9 745.5 222.7 746.4 221.9 745.5 221"/><polygon class="b" points="684.4 16.7 683.6 17.5 684.4 18.3 685.3 17.5 684.4 16.7"/><polygon class="b" points="703.3 20 702.5 20.9 703.3 21.7 704.2 20.9 703.3 20"/><polygon class="b" points="710.7 17.5 709.9 18.3 710.7 19.1 711.5 18.3 710.7 17.5"/><polygon class="b" points="721.3 14.1 720.5 14.9 721.3 15.7 722.2 14.9 721.3 14.1"/><polygon class="b" points="763.5 28.8 762.7 29.6 763.5 30.4 764.4 29.6 763.5 28.8"/><polygon class="c" points="648.3 202 647.5 202.8 648.3 203.6 649.2 202.8 648.3 202"/><polygon class="c" points="671.9 202 671.1 202.8 671.9 203.6 672.7 202.8 671.9 202"/><polygon class="c" points="601.9 203.4 601.1 204.2 601.9 205 602.7 204.2 601.9 203.4"/><polygon class="b" points="603.1 16.5 602.2 17.3 603.1 18.1 603.9 17.3 603.1 16.5"/><polygon class="b" points="621.5 3 620.7 3.8 621.5 4.6 622.4 3.8 621.5 3"/><polygon class="b" points="672 187.5 671.6 187.9 672 188.4 672.5 187.9 672 187.5"/><polygon class="b" points="518 43.7 517.6 44.1 518 44.6 518.5 44.1 518 43.7"/><polygon class="b" points="656 49.8 655.5 50.3 656 50.7 656.4 50.3 656 49.8"/><polygon class="b" points="732.3 26.2 731.9 26.6 732.3 27 732.8 26.6 732.3 26.2"/><polygon class="b" points="731.6 38.3 731.2 38.8 731.6 39.2 732.1 38.8 731.6 38.3"/><polygon class="c" points="545.7 221.5 545.3 222 545.7 222.4 546.2 222 545.7 221.5"/><polygon class="c" points="731 184.1 730.5 184.5 731 185 731.4 184.5 731 184.1"/><polygon class="c" points="486.5 222.2 486.1 222.6 486.5 223.1 487 222.6 486.5 222.2"/><polygon class="b" points="255.7 250.7 254.9 251.5 255.7 252.3 256.6 251.5 255.7 250.7"/><polygon class="b" points="221.1 233.4 220.3 234.2 221.1 235 221.9 234.2 221.1 233.4"/><polygon class="b" points="198.1 288.8 197.3 289.6 198.1 290.5 198.9 289.6 198.1 288.8"/><polygon class="b" points="327.6 253 326.8 253.8 327.6 254.6 328.4 253.8 327.6 253"/><polygon class="b" points="447.6 247 446.8 247.8 447.6 248.6 448.4 247.8 447.6 247"/><polygon class="c" points="137 84.5 136.2 85.3 137 86.1 137.8 85.3 137 84.5"/><polygon class="b" points="155.9 87.8 155.1 88.6 155.9 89.5 156.7 88.6 155.9 87.8"/><polygon class="c" points="163.2 85.3 162.4 86.1 163.2 86.9 164.1 86.1 163.2 85.3"/><polygon class="c" points="173.9 81.9 173.1 82.7 173.9 83.5 174.7 82.7 173.9 81.9"/><polygon class="b" points="216.1 96.6 215.3 97.4 216.1 98.2 216.9 97.4 216.1 96.6"/><polygon class="b" points="260.3 92.3 259.5 93.1 260.3 93.9 261.1 93.1 260.3 92.3"/><polygon class="b" points="272.6 113.6 271.8 114.4 272.6 115.2 273.4 114.4 272.6 113.6"/><polygon class="b" points="320.8 108.6 320 109.4 320.8 110.2 321.6 109.4 320.8 108.6"/><polygon class="b" points="333.8 96.6 333 97.4 333.8 98.2 334.6 97.4 333.8 96.6"/><polygon class="b" points="329.4 129.4 328.6 130.2 329.4 131 330.2 130.2 329.4 129.4"/><polygon class="b" points="379.3 132.6 378.5 133.4 379.3 134.2 380.2 133.4 379.3 132.6"/><polygon class="c" points="396.4 74.2 395.6 75 396.4 75.8 397.3 75 396.4 74.2"/><polygon class="b" points="423.3 121.7 422.5 122.5 423.3 123.3 424.2 122.5 423.3 121.7"/><polygon class="b" points="455.7 205.9 454.8 206.7 455.7 207.5 456.5 206.7 455.7 205.9"/><polygon class="c" points="389.3 209.2 388.5 210 389.3 210.8 390.2 210 389.3 209.2"/><polygon class="b" points="307.3 130.7 306.5 131.5 307.3 132.3 308.2 131.5 307.3 130.7"/><polygon class="c" points="272.1 189.4 271.3 190.2 272.1 191 272.9 190.2 272.1 189.4"/><polygon class="c" points="258.6 190.5 257.8 191.3 258.6 192.1 259.5 191.3 258.6 190.5"/><polygon class="d" points="262.5 209.5 261.7 210.3 262.5 211.1 263.4 210.3 262.5 209.5"/><polygon class="b" points="149.2 172.5 148.4 173.3 149.2 174.1 150.1 173.3 149.2 172.5"/><polygon class="d" points="131.3 196.6 130.5 197.4 131.3 198.2 132.1 197.4 131.3 196.6"/><polygon class="d" points="135.2 202.2 134.4 203 135.2 203.8 136 203 135.2 202.2"/><polygon class="b" points="98.1 139.7 97.3 140.5 98.1 141.3 98.9 140.5 98.1 139.7"/><polygon class="b" points="121.6 139.7 120.8 140.5 121.6 141.3 122.5 140.5 121.6 139.7"/><polygon class="b" points="51.6 141.2 50.8 142 51.6 142.8 52.5 142 51.6 141.2"/><polygon class="d" points="109.9 209.2 109.1 210 109.9 210.8 110.8 210 109.9 209.2"/><polygon class="b" points="319.9 221.7 319.1 222.6 319.9 223.4 320.7 222.6 319.9 221.7"/><polygon class="b" points="358.6 221.2 357.8 222 358.6 222.8 359.4 222 358.6 221.2"/><polygon class="b" points="373.7 250.9 372.9 251.7 373.7 252.5 374.5 251.7 373.7 250.9"/><polygon class="c" points="565 215.4 564.2 216.2 565 217 565.8 216.2 565 215.4"/><polygon class="b" points="543.1 251.9 542.3 252.7 543.1 253.5 544 252.7 543.1 251.9"/><polygon class="b" points="593 241.8 592.2 242.6 593 243.4 593.9 242.6 593 241.8"/><polygon class="c" points="436.7 228.3 435.9 229.1 436.7 229.9 437.5 229.1 436.7 228.3"/><polygon class="c" points="55.6 84.3 54.8 85.1 55.6 85.9 56.5 85.1 55.6 84.3"/><polygon class="c" points="74.1 70.8 73.3 71.6 74.1 72.4 75 71.6 74.1 70.8"/><polygon class="b" points="96.7 219.8 96.2 220.3 96.7 220.7 97.1 220.3 96.7 219.8"/><polygon class="b" points="126.9 219.8 126.5 220.3 126.9 220.7 127.4 220.3 126.9 219.8"/><polygon class="b" points="112.8 218.7 112.4 219.1 112.8 219.6 113.3 219.1 112.8 218.7"/><polygon class="b" points="121.8 125.3 121.3 125.7 121.8 126.2 122.2 125.7 121.8 125.3"/><polygon class="b" points="147.8 125.5 147.3 125.9 147.8 126.4 148.2 125.9 147.8 125.5"/><polygon class="b" points="108.5 117.6 108.1 118.1 108.5 118.5 109 118.1 108.5 117.6"/><polygon class="b" points="184.9 94 184.5 94.4 184.9 94.8 185.4 94.4 184.9 94"/><polygon class="b" points="184.2 106.1 183.7 106.6 184.2 107 184.7 106.6 184.2 106.1"/><polygon class="b" points="299.2 100.3 298.7 100.8 299.2 101.2 299.6 100.8 299.2 100.3"/><polygon class="b" points="310.4 94.2 309.9 94.6 310.4 95 310.8 94.6 310.4 94.2"/><polygon class="b" points="310.4 144 309.9 144.5 310.4 144.9 310.8 144.5 310.4 144"/><polygon class="b" points="335 141.2 334.6 141.7 335 142.1 335.5 141.7 335 141.2"/><polygon class="b" points="358.6 109.3 358.1 109.7 358.6 110.2 359 109.7 358.6 109.3"/><polygon class="b" points="369.2 124.4 368.8 124.9 369.2 125.3 369.7 124.9 369.2 124.4"/><polygon class="b" points="409.1 128.9 408.7 129.4 409.1 129.8 409.6 129.4 409.1 128.9"/><polygon class="c" points="553.1 79.6 552.7 80 553.1 80.5 553.6 80 553.1 79.6"/><polygon class="c" points="440.6 218.8 440.1 219.3 440.6 219.7 441.1 219.3 440.6 218.8"/><polygon class="c" points="444.5 224.4 444.1 224.9 444.5 225.3 445 224.9 444.5 224.4"/><polygon class="b" points="404.7 234.5 404.3 234.9 404.7 235.4 405.2 234.9 404.7 234.5"/><polygon class="c" points="315.2 201.2 314.8 201.7 315.2 202.1 315.7 201.7 315.2 201.2"/><polygon class="b" points="333.9 181.6 333.5 182 333.9 182.5 334.4 182 333.9 181.6"/><polygon class="b" points="154.1 261.9 153.6 262.3 154.1 262.8 154.5 262.3 154.1 261.9"/><polygon class="b" points="183.5 251.9 183.1 252.3 183.5 252.8 184 252.3 183.5 251.9"/><polygon class="b" points="94.9 262.5 94.5 263 94.9 263.4 95.4 263 94.9 262.5"/><polygon class="e" points="12 27 11.2 27.8 12 28.6 12.8 27.8 12 27"/><polygon class="f" points="29.9 37.6 29.1 38.4 29.9 39.2 30.7 38.4 29.9 37.6"/><polygon class="b" points="23.2 93.1 22.4 93.9 23.2 94.7 24 93.9 23.2 93.1"/><polygon class="b" points="44.3 111.2 43.5 112 44.3 112.8 45.1 112 44.3 111.2"/><polygon class="b" points="25.8 174.5 25 175.3 25.8 176.1 26.7 175.3 25.8 174.5"/><polygon class="b" points="25.3 133.6 24.5 134.4 25.3 135.2 26.1 134.4 25.3 133.6"/><polygon class="b" points="20.7 48.2 20.3 48.6 20.7 49.1 21.2 48.6 20.7 48.2"/><polygon class="b" points="29.2 124.1 28.8 124.5 29.2 125 29.7 124.5 29.2 124.1"/><polygon class="b" points="33.1 129.7 32.7 130.1 33.1 130.6 33.6 130.1 33.1 129.7"/><polygon class="b" points="541.2 13 540.4 13.8 541.2 14.6 542 13.8 541.2 13"/><polygon class="b" points="178.1 55.2 177.3 56 178.1 56.8 178.9 56 178.1 55.2"/><polygon class="b" points="143.4 37.9 142.6 38.7 143.4 39.5 144.3 38.7 143.4 37.9"/><polygon class="b" points="120.4 93.4 119.6 94.2 120.4 95 121.3 94.2 120.4 93.4"/><polygon class="b" points="249.9 57.5 249.1 58.3 249.9 59.1 250.8 58.3 249.9 57.5"/><polygon class="b" points="369.9 51.5 369.1 52.3 369.9 53.1 370.8 52.3 369.9 51.5"/><polygon class="b" points="311.7 13.8 310.9 14.6 311.7 15.4 312.5 14.6 311.7 13.8"/><polygon class="b" points="184.9 14.1 184.1 14.9 184.9 15.7 185.7 14.9 184.9 14.1"/><polygon class="b" points="242.2 26.3 241.4 27.1 242.2 27.9 243.1 27.1 242.2 26.3"/><polygon class="b" points="280.9 25.7 280.1 26.5 280.9 27.3 281.8 26.5 280.9 25.7"/><polygon class="b" points="296 55.4 295.2 56.2 296 57 296.9 56.2 296 55.4"/><polygon class="b" points="325.9 31.1 325.1 31.9 325.9 32.7 326.7 31.9 325.9 31.1"/><polygon class="b" points="333.7 26.6 332.9 27.4 333.7 28.2 334.6 27.4 333.7 26.6"/><polygon class="b" points="344.9 25.5 344.1 26.3 344.9 27.1 345.8 26.3 344.9 25.5"/><polygon class="b" points="422.8 19.8 422 20.6 422.8 21.4 423.6 20.6 422.8 19.8"/><polygon class="b" points="487.4 20 486.5 20.8 487.4 21.6 488.2 20.8 487.4 20"/><polygon class="b" points="465.5 56.4 464.7 57.2 465.5 58 466.3 57.2 465.5 56.4"/><polygon class="b" points="481.4 132.3 480.6 133.1 481.4 133.9 482.2 133.1 481.4 132.3"/><polygon class="b" points="449 12.9 448.6 13.4 449 13.8 449.5 13.4 449 12.9"/><polygon class="b" points="327.1 39 326.6 39.5 327.1 39.9 327.5 39.5 327.1 39"/><polygon class="b" points="105.9 56.4 105.4 56.9 105.9 57.3 106.3 56.9 105.9 56.4"/><polygon class="b" points="403.7 349.3 402.9 350.1 403.7 350.9 404.5 350.1 403.7 349.3"/><polygon class="b" points="369 331.9 368.2 332.7 369 333.5 369.9 332.7 369 331.9"/><polygon class="b" points="346.1 387.4 345.2 388.2 346.1 389 346.9 388.2 346.1 387.4"/><polygon class="b" points="595.5 345.5 594.7 346.4 595.5 347.2 596.4 346.4 595.5 345.5"/><polygon class="b" points="711.8 248.7 711 249.5 711.8 250.3 712.6 249.5 711.8 248.7"/><polygon class="b" points="738.3 258.9 737.5 259.7 738.3 260.5 739.2 259.7 738.3 258.9"/><polygon class="b" points="759.4 277 758.6 277.8 759.4 278.6 760.3 277.8 759.4 277"/><polygon class="b" points="694.8 271.5 694 272.3 694.8 273.1 695.6 272.3 694.8 271.5"/><polygon class="b" points="685.8 287.7 685 288.5 685.8 289.3 686.7 288.5 685.8 287.7"/><polygon class="b" points="652.7 268.1 651.9 268.9 652.7 269.7 653.5 268.9 652.7 268.1"/><polygon class="b" points="637.5 273.2 636.7 274 637.5 274.8 638.4 274 637.5 273.2"/><polygon class="b" points="562.5 266.3 561.7 267.1 562.5 267.9 563.4 267.1 562.5 266.3"/><polygon class="b" points="578.8 280.9 578 281.7 578.8 282.5 579.6 281.7 578.8 280.9"/><polygon class="b" points="537.3 307.8 536.5 308.6 537.3 309.4 538.1 308.6 537.3 307.8"/><polygon class="b" points="420 287.9 419.2 288.7 420 289.5 420.9 288.7 420 287.9"/><polygon class="b" points="406.6 271.7 405.8 272.5 406.6 273.3 407.4 272.5 406.6 271.7"/><polygon class="b" points="410.5 308.1 409.7 308.9 410.5 309.7 411.4 308.9 410.5 308.1"/><polygon class="g" points="467.9 320.3 467.1 321.1 467.9 321.9 468.7 321.1 467.9 320.3"/><polygon class="g" points="506.5 319.7 505.7 320.5 506.5 321.3 507.4 320.5 506.5 319.7"/><polygon class="b" points="521.7 349.4 520.9 350.2 521.7 351 522.5 350.2 521.7 349.4"/><polygon class="g" points="551.5 325.1 550.7 325.9 551.5 326.7 552.3 325.9 551.5 325.1"/><polygon class="g" points="559.3 320.6 558.5 321.4 559.3 322.2 560.2 321.4 559.3 320.6"/><polygon class="g" points="570.5 319.5 569.7 320.3 570.5 321.1 571.4 320.3 570.5 319.5"/><polygon class="g" points="713 314 712.2 314.8 713 315.6 713.8 314.8 713 314"/><polygon class="b" points="691.1 350.4 690.3 351.2 691.1 352 692 351.2 691.1 350.4"/><polygon class="b" points="741 340.3 740.2 341.1 741 341.9 741.8 341.1 741 340.3"/><polygon class="b" points="740.4 299.4 739.6 300.2 740.4 301 741.3 300.2 740.4 299.4"/><polygon class="b" points="744.4 289.9 743.9 290.3 744.4 290.8 744.8 290.3 744.4 289.9"/><polygon class="b" points="748.3 295.5 747.8 295.9 748.3 296.4 748.7 295.9 748.3 295.5"/><polygon class="b" points="552.7 333 552.2 333.5 552.7 333.9 553.1 333.5 552.7 333"/><polygon class="b" points="463.2 299.8 462.8 300.2 463.2 300.7 463.7 300.2 463.2 299.8"/><polygon class="b" points="481.9 280.1 481.4 280.6 481.9 281 482.3 280.6 481.9 280.1"/><polygon class="g" points="795.6 323.9 795.1 324.3 795.6 324.8 796 324.3 795.6 323.9"/><polygon class="b" points="550.4 448.9 549.6 449.7 550.4 450.5 551.2 449.7 550.4 448.9"/><polygon class="b" points="492.7 487 491.9 487.8 492.7 488.6 493.6 487.8 492.7 487"/><polygon class="b" points="622.2 451.1 621.4 451.9 622.2 452.7 623.1 451.9 622.2 451.1"/><polygon class="b" points="742.2 445.1 741.4 446 742.2 446.8 743.1 446 742.2 445.1"/><polygon class="b" points="725.5 380.5 724.7 381.3 725.5 382.1 726.3 381.3 725.5 380.5"/><polygon class="b" points="684 407.4 683.2 408.2 684 409 684.8 408.2 684 407.4"/><polygon class="b" points="566.7 387.5 565.9 388.3 566.7 389.1 567.6 388.3 566.7 387.5"/><polygon class="b" points="553.3 388.6 552.5 389.4 553.3 390.2 554.1 389.4 553.3 388.6"/><polygon class="b" points="557.2 407.7 556.4 408.5 557.2 409.3 558 408.5 557.2 407.7"/><polygon class="b" points="614.5 419.9 613.7 420.7 614.5 421.5 615.4 420.7 614.5 419.9"/><polygon class="b" points="653.2 419.3 652.4 420.1 653.2 420.9 654.1 420.1 653.2 419.3"/><polygon class="b" points="668.4 449 667.5 449.8 668.4 450.6 669.2 449.8 668.4 449"/><polygon class="b" points="698.2 424.7 697.4 425.5 698.2 426.3 699 425.5 698.2 424.7"/><polygon class="b" points="706 420.2 705.2 421 706 421.8 706.9 421 706 420.2"/><polygon class="b" points="717.2 419.1 716.4 419.9 717.2 420.7 718.1 419.9 717.2 419.1"/><polygon class="b" points="699.4 432.6 698.9 433.1 699.4 433.5 699.8 433.1 699.4 432.6"/><polygon class="b" points="609.9 399.4 609.4 399.8 609.9 400.3 610.4 399.8 609.9 399.4"/><polygon class="b" points="628.6 379.7 628.1 380.2 628.6 380.6 629 380.2 628.6 379.7"/><polygon class="b" points="556.3 123.6 555.5 124.4 556.3 125.2 557.1 124.4 556.3 123.6"/><polygon class="b" points="739.3 110.7 738.5 111.5 739.3 112.3 740.2 111.5 739.3 110.7"/><polygon class="b" points="743.3 116.3 742.5 117.1 743.3 117.9 744.1 117.1 743.3 116.3"/><polygon class="b" points="718 123.3 717.2 124.1 718 124.9 718.8 124.1 718 123.3"/><polygon class="b" points="704.7 133.9 704.3 134.4 704.7 134.8 705.2 134.4 704.7 133.9"/><polygon class="b" points="735 133.9 734.6 134.4 735 134.8 735.5 134.4 735 133.9"/><polygon class="b" points="549.9 146.8 549.5 147.2 549.9 147.7 550.4 147.2 549.9 146.8"/><polygon class="b" points="673.9 45.5 673.1 46.3 673.9 47.1 674.7 46.3 673.9 45.5"/><polygon class="b" points="657.7 86.7 656.9 87.5 657.7 88.3 658.6 87.5 657.7 86.7"/><polygon class="b" points="651 142.2 650.2 143 651 143.8 651.8 143 651 142.2"/><polygon class="b" points="648.5 97.3 648.1 97.8 648.5 98.2 649 97.8 648.5 97.3"/><polygon class="b" points="613 229.8 612.5 230.2 613 230.7 613.4 230.2 613 229.8"/><polygon class="b" points="643.2 229.8 642.8 230.2 643.2 230.7 643.7 230.2 643.2 229.8"/><polygon class="b" points="629.2 228.7 628.7 229.1 629.2 229.5 629.6 229.1 629.2 228.7"/><polygon class="b" points="586.1 125.7 585.3 126.5 586.1 127.3 587 126.5 586.1 125.7"/><polygon class="b" points="572.9 136.3 572.4 136.8 572.9 137.2 573.4 136.8 572.9 136.3"/><polygon class="b" points="589.1 135.2 588.6 135.6 589.1 136 589.6 135.6 589.1 135.2"/><polygon class="b" points="608.9 199.1 608.1 199.9 608.9 200.7 609.8 199.9 608.9 199.1"/><polygon class="b" points="632.5 199.1 631.7 199.9 632.5 200.7 633.3 199.9 632.5 199.1"/><polygon class="b" points="562.5 200.5 561.7 201.3 562.5 202.1 563.3 201.3 562.5 200.5"/><polygon class="b" points="632.6 184.6 632.2 185.1 632.6 185.5 633.1 185.1 632.6 184.6"/><polygon class="b" points="619.4 177 618.9 177.4 619.4 177.9 619.8 177.4 619.4 177"/><polygon class="b" points="555.1 170.6 554.3 171.4 555.1 172.2 556 171.4 555.1 170.6"/><polygon class="b" points="536.1 193 535.3 193.8 536.1 194.6 537 193.8 536.1 193"/><polygon class="b" points="540.1 183.4 539.6 183.9 540.1 184.3 540.5 183.9 540.1 183.4"/><polygon class="b" points="522 141 521.6 141.5 522 141.9 522.5 141.5 522 141"/><polygon class="c" points="445.1 108.5 444.3 109.3 445.1 110.1 445.9 109.3 445.1 108.5"/><polygon class="b" points="440 156.8 439.2 157.6 440 158.4 440.8 157.6 440 156.8"/><polygon class="b" points="451.5 61.9 450.7 62.7 451.5 63.5 452.4 62.7 451.5 61.9"/><polygon class="b" points="473.6 176.1 472.8 176.9 473.6 177.7 474.4 176.9 473.6 176.1"/><polygon class="b" points="484.2 172.8 483.4 173.6 484.2 174.4 485.1 173.6 484.2 172.8"/><polygon class="b" points="495.2 184.8 494.8 185.3 495.2 185.7 495.7 185.3 495.2 184.8"/><polygon class="b" points="494.5 197 494.1 197.5 494.5 197.9 495 197.5 494.5 197"/><polygon class="h" points="29 27 40 33 47.2 33 95 23 95 22.1 28.7 26 29 27"/><polygon class="a" points="51 29 53 30 54.1 30 57.8 29.5 57 29 56 28 51 29"/><polygon class="h" points="37 26 37 24.8 41 24 41 22.8 39 22 39 20 41 19.5 49 21 49 23.9 47 24 46 24 45 24 53 24 54 25 37 26"/><circle class="h" cx="42" cy="19" r="1"/><circle class="h" cx="47" cy="20" r="1"/><path class="i" d="M515,124.9a42.8,42.8,0,0,1-14.8,2.9,37.2,37.2,0,0,1-14.1-71.6s-22.5,18-10.8,44.5S515,124.9,515,124.9Z"/></svg>