<svg xmlns="http://www.w3.org/2000/svg" width="800" height="800" viewBox="0 0 800 800"><defs><style>.a{fill:#42a5f5;}.b{fill:#01579b;}.c{fill:none;stroke:#01579b;stroke-miterlimit:10;stroke-width:0.5px;}</style></defs><path class="a" d="M0,800S1,240,0,240s10.4-4.8,15-3,10.1-3.6,12-4,18.5,8.2,20,8c7-1,8,6,13,8,.7.3,10-5,18-4,.8.1,19,7,25,5,.7-.2,8.2-4.8,9-4s6.4,0,8,0,15.7,7,18,7,9.3-2.5,9.3-2.5a1.7,1.7,0,0,0,2.3-.7,6.2,6.2,0,0,1,1.6-2.4,11.5,11.5,0,0,1,2.3-1.5l.8-1.6a19.9,19.9,0,0,0,3.8-2.3,11.2,11.2,0,0,1,3.1-1.6s0-.7,1.6-1.5,1.5,0,2.3-.8.8-1.5,2.4-2.3a33.1,33.1,0,0,1,3.8-1.6l3.1-.7s-.7-.8,0-1.2,5.5-4.3,5.5-4.3l1.5-.7s3.1,0,3.9-.8l2.3-2.4a21.3,21.3,0,0,1,3.1-.7c.8,0,2.4,0,2.4-.8s3.1-3.9,2.3-3.9.3-.2.1-1.2a6.5,6.5,0,0,1,.7-2.7l-.8-4.6.8-1.5s1.5-2.4,1.5-4,1.6-3.8,1.6-3.8.2.7.9,0a11,11,0,0,1,4.5-2.4c.8,0,3.9-2.3,3.9-2.3l.8-1.6c.8-1.5.8-3.1,1.5-3.1s1.4.8,1.9,0,.5-1.5,2-2.3,3.9-2.3,4.7-2.3a20.6,20.6,0,0,0,3.8-1.6,3.8,3.8,0,0,1,2.4-.7c1.5,0-.2.7,4.2,0a64.2,64.2,0,0,1,9.8-.8s2.3,0,3.1-.8.7,0,1.9,0l6.6-.3s-3.5.4,2.9,0,6.4.3,7.2-1.3a5.6,5.6,0,0,0,.8-2.3s0-2.3.7-2.3.8,0,2.4-.8,2.3.8,2.3-.8,0-2.3,1.6-2.3,2.3.8,3.1-.8-.8-1.5,1.5-1.5h3.9l-2.3-2.4s-1.6-.7,0-1.5l2.3-1.1c.8-.5,1.5-2.8,3.1-2.8a7.5,7.5,0,0,0,3.1-.8,1.5,1.5,0,0,1,1.6-1.5h3.6c1,0,1.8-1.6,2.6-.8s3.8,0,4.6.8,1.6.8,3.1.8h3.9a7.8,7.8,0,0,1,2.3.7,21.3,21.3,0,0,1,3.1-.7c.8,0,3.2,0,3.9-.8l2.4-2.3a2.5,2.5,0,0,1,.7,1.5c0,.8-.7,0,0,.8a2.9,2.9,0,0,0,2.4.8h1.5s.8-2.4,1.6-1.6a9.5,9.5,0,0,0,2.3,1.6,7.2,7.2,0,0,1,2.3-.8c.8,0,3.1-1.6,3.1-.8s1.6.8,1.6,1.6,2.3,0,2.3.7-.8,1.6-.8,3.1,0,.8.8,2,.8-.4.8,1.1.8,0,.8,1.6.7,1.6.7,2.3-1.5-.7,0,.8,3.1,2.3,3.1,3.1,2.4,1.6,3.2,2.3,0,1.6,1.5,2.4,3.1.7,4.7,1.5,1.5.8,1.5,1.6.8,1.5.8,2.3,4.7.8,4.7,1.6,0,.7,1.5,1.5,5.4-.8,6.2.8,3.2,1.8,4.6,2.1l.8.2s2.4,0,3.2,1.6.7.7.7,1.5,1.6,1.6,2.4,2.4,3.8,0,3.8,2.3,2.4,3.9,2.4,3.9l.7,1.5s3.2-.8,3.2,0-.8,1,0,2,1.5,1.1,2.3,1.9,2.3.8,3.1,2.3,1.5,1.6,3.9,2.4,3.8.7,4.6,1.5,3.1,0,3.1,1.6.8,2.2,0,3-1.5,1.6-.7.8a11.7,11.7,0,0,1,3.1-1.5s-3.1-1.6,0-.8,2.3,1.6,3.8,1.6,3.9-.8,3.9.7-.8,1.6,1.6,2.4a3.3,3.3,0,0,1,2.3,3.1,10.5,10.5,0,0,1,1.6,2.3c.7,1.6,1.5,3.9,1.5,3.9s0,2.3.8,3.1.8,1.5,1.5,2.3.8,2.3.8,3.1,1.6,0,2.3,1.6,1.6,2.3.8,3.1-.9,1.3.3,2.2,2.8.9,2.8,2.4-3.1-1.5,0,2.4,4.7,3.1,4.7,4.6,0,0,.8,0,3.1,0,3.1.8,1.5.8,1.5,1.6,1.6,0,2.3.7,3.2.8,2.4,1.6-.5.8.1,2.4,1.4,2.2,2.2,2.2,1.6,0,1.6,1.6,1.5,2.3,1.5,3.1-.8.8,0,1.6,2.3,1.5,2.3,2.3,1.6,0,1.6.8,0,.7,1.5,1.5-2.3-3.1,2.4.8,6.2,4.6,6.2,4.6,1.5,1.6,2.3,1.6a8.1,8.1,0,0,1,3.9,1.6c.8.7,3.1.7,3.9,1.5l1.5,1.6c.8.7,3.9,0,3.9.7s2.3,1.6,2.3,2.4,2.4.7,2.4.7.3-2.3.5-.7a6.9,6.9,0,0,0,1.8,3.1l2.3.7s1.8-.7,1.7,0,2.2,1.6,3,2.4,0,.8,1.5,1.5a6.2,6.2,0,0,0,2.4.8,2.4,2.4,0,0,1,1.5.8,23.4,23.4,0,0,1,2.3,3.9l1.6.7s.2-.7.5,0,1.1.8,1.8,1.6,3.1.8,3.1,1.5.8.8,1.6,1.6,2.3,1.5,3.1,2.3,2.3-.8,3.1,1.6,1.6,2.3,2.3,3.1,3.1.8,3.1.8l1.6,1.5c.8.8,0,.8,2.3,1.6s5.5.7,5.5,2.3,2.3,3.1,2.3,3.1,3.1,0,3.9.8,3.8,1.5,3.8,1.5.8-1.5.8.8,1.6,3.1,1.6,3.9,0,.8-.8,2.3,2.2-1.2,3,.3.8,0,.8,2,0,1.9.7,2.7a11.5,11.5,0,0,0,2.4,1.6s1-.8,3.2,0,.8,2,2.3,2.7a58,58,0,0,0,6.2,2.4c2.4.7,2.4,0,5.5.7s4.6,1.6,5.4,1.6,2.3-.8,4.7,0,3.8.8,4.6,0a2.5,2.5,0,0,1,1.6-.8L582,353v1.3c0,1,0-.5,1.6,1s2.3.8,3.9,2.4l3.1,3.1c.7.8,0,.8,3.8,2.3s5.5.8,6.3,2.3,2.3,1.6,3.1,3.1,1.5.8,1.5.8a2.5,2.5,0,0,1,1.6.8,3.6,3.6,0,0,0,2.3.8s.9-.8.8,0a2.5,2.5,0,0,0,.7,1.5h1.1a3,3,0,0,1,2,.8,11.5,11.5,0,0,0,2.4,1.6.7.7,0,0,0,.8.7c.7,0,2.3-1.5,3.1,0s1.5,1.6,2.3,2.4,1.5,0,3.1.7.8,0,2.3.8,1.6,0,2.4.8,2.3,0,2.3.8-.8,0,.8.7,3.1.8,3.1,1.6,3.1,1.5,3.1,1.5a7.5,7.5,0,0,0,3.1.8c1.5,0,2.3.8,3.1.8s2.2-.8,3,0,2.4.8,2.4,1.6.8.7.8,2.3,0,1.5,1.5,1.5.8,0,1.6-.7a3.7,3.7,0,0,1,2.3-.8l1.6.8v1.5l.8.8c.7.8.7,0,1.5,1.5s1.6,2.4,2.3,2.4,2.4,0,3.1-.8,0-2.3,1.6-1.6,2.5,1.6,2.8,2.4,1.1,1.5,1.1,2.3v1.7c0,.6.7.6,1.5.6h5.5c.7,0,3.8-2.3,3.1,0s-1.6,1.6,0,3.1,3.1,1.6,3.8,2.4a4.4,4.4,0,0,0,3.2,1.5c1.5,0,.7,0,3.1.8s3.1.8,3.8,1.5,1.6.8,3.1,1.6a12.3,12.3,0,0,1,2.4,1.5l1.5.8s2.7-.8,2.5,0,.6,2.4,1.4,2.4,2.9-.8,2.6,0,2.1,1.5,1.3,2.3-2,.2.1,1.7,3-.2,3.8,1.4,2.3.8,2.3,1.5,1.6.8,3.1.8,0-.8,2.3,0,3.1-.8,4.7,0a8.1,8.1,0,0,0,3.9.8,16.6,16.6,0,0,0,3.1-.8s-.8-1.5,0-.8.6,1.6,1.1,1.6.4-1.6,1.2-.8a2.8,2.8,0,0,0,2.3.8c.8,0,1.6-1.6,2.4-.8s2.3,0,2.3.8,1,0,2.1,0a15.6,15.6,0,0,1,3.3.8s.8-1.6,1.6-.8,4.4,0,4.1.8.5.7,1.3,0,1.6-3.1,3.1-1.6,2.4.8,3.1,1.6,1.6,0,3.1,0,3.1,0,3.9.7-.8,2.4,1.6,2.4,2.3,0,3.1.8,0,.7,1.5,1.5,2.4,1.6,3.9,2.3a10.3,10.3,0,0,0,3.9.8,2.9,2.9,0,0,1,2.7,0c1.2.8,1.9.8,1.9,1.6s1.6.7,1.6.7,3.1,0,3.9.8,5.4.8,5.4,1.6.8.7,1.6,1.5-.2.7-.2,1.5-.8,356.2,0,357"/><path class="b" d="M310.9,356.2a3.4,3.4,0,0,0-3.6-3.6,3.5,3.5,0,0,0-3.6,3.6c0,2.2,2.1,5,3.6,5S310.9,358.4,310.9,356.2Z"/><path class="b" d="M306.8,362.4h1a0,0,0,0,1,0,0v.5a.5.5,0,0,1-.5.5h0a.5.5,0,0,1-.5-.5v-.5A0,0,0,0,1,306.8,362.4Z"/><polyline class="c" points="306.2 360.2 306.9 362.6 307.7 362.6 308.2 360.2"/></svg>