<svg xmlns="http://www.w3.org/2000/svg" xmlns:xlink="http://www.w3.org/1999/xlink" width="800" height="800" viewBox="0 0 800 800"><defs><style>.a{fill:#0288d1;}.b{fill:#42a5f5;}.c,.d{opacity:0.5;}.c{fill:url(#a);}.d{fill:url(#b);}.e{fill:#03a9f4;}.f{fill:#90caf9;}</style><linearGradient id="a" x1="382.3" y1="228.02" x2="566.67" y2="228.02" gradientUnits="userSpaceOnUse"><stop offset="0.28" stop-color="#fff" stop-opacity="0"/><stop offset="0.46" stop-color="#fff" stop-opacity="0.01"/><stop offset="0.58" stop-color="#fff" stop-opacity="0.05"/><stop offset="0.69" stop-color="#fff" stop-opacity="0.11"/><stop offset="0.79" stop-color="#fff" stop-opacity="0.19"/><stop offset="0.88" stop-color="#fff" stop-opacity="0.31"/><stop offset="0.97" stop-color="#fff" stop-opacity="0.44"/><stop offset="1" stop-color="#fff" stop-opacity="0.5"/></linearGradient><linearGradient id="b" x1="380.32" y1="227.69" x2="564.95" y2="227.69" gradientUnits="userSpaceOnUse"><stop offset="0.49" stop-color="#fff" stop-opacity="0"/><stop offset="0.62" stop-color="#fff" stop-opacity="0.01"/><stop offset="0.7" stop-color="#fff" stop-opacity="0.05"/><stop offset="0.78" stop-color="#fff" stop-opacity="0.11"/><stop offset="0.85" stop-color="#fff" stop-opacity="0.19"/><stop offset="0.92" stop-color="#fff" stop-opacity="0.31"/><stop offset="0.98" stop-color="#fff" stop-opacity="0.44"/><stop offset="1" stop-color="#fff" stop-opacity="0.5"/></linearGradient></defs><path class="a" d="M0,800c3.8,0-.9-456.3-.4-457.4s-.5-.6,1.6-2.7,1.1-3.8,6-4.3,5.4-2.2,5.4-2.2L13.7,322l2.2,7.6L18,329s10.1-.6,7,1c-.2.1,4.4.6,6-1s6.3.2,6.8-.9,2.8-2.2,4.9-3.8,4.3-2.2,4.9-2.7a8.9,8.9,0,0,1,5.9-3.3c3.8-.5,10.8-.5,11.4-3.2s4.8-16.2,4.8-16.2l1.5,6.1,1.8-2.9,2.7,4.4,3.8-7.6,1.6,4.3,2.2-2.7,2.1,7.6,4.3-8.7,1.1,9.2s.6,1.6,2.2,0,2.1-1.6,3.8-1.6a12.7,12.7,0,0,1,4.3.5c1.6.6,2.7,1.1,3.8,0s2.1,1.7,2.1,1.7l1.7-7.6,1,5.9,1.7-4.8,1.3,2.3,1.4-1.8,1.6,6.5,2.2-2.2s.5-.5,3.2-.5,2.7-1.1,4.9,0,3.7,2.2,4.3,1.1-.6-2.7,1.6-1.6,4.9,1.6,4.9,2.1,1.6,1.1,1.1,2.7.5,2.2,1,2.7,3.8,1.6,4.4,2.2,2.1,2.1,2.1,2.7a10.2,10.2,0,0,0,2.2,3.2c.5.6,5.4,1.6,5.9,2.7a8,8,0,0,0,4.9,4.4c3.2,1,6.5-.6,7,1.6s0,3.2,2.2,4.3,9.2,4.3,9.2,4.3,2.7,3.3,3.2,5.4,4.3,5.4,7,6,8.2,1.6,8.2,3.8,1.6,3.7,5.4,4.8,8.6,1.6,8.1,3.3-4.4,1.6.5,4.3,8.1,2.2,12.4,5.4,9.2,5.4,11.4,7,.5,4.9.5,5.4,1.7,6,1.7,6.5-1.1.6-.6,2.2a17.8,17.8,0,0,1,1.1,4.8c0,1.1,2.2,2.2,3.2,3.3s5.4,2.2,6.5.5a4.1,4.1,0,0,1,3.8-1.6,16.4,16.4,0,0,1,3.8,1.1l4.3-13,2.7,9.2,1.6-4.3,2.9,9.5a5.5,5.5,0,0,0,4.2-.3c2.1-1.1,4.3-2.2,5.9-1.7s4.9,2.2,6,2.8,5.4,1.6,7,1,2.7,0,7.6,1.7,7.5,2.1,8.6,3.2,14.6,4.3,13,6.5-2.7,7-1.6,8.1,2.1,3.8,5.9,4.3,6.3.6,8.6,0,12.7,0,13.7,0,9.6-1.1,10.7,2.7,3.8,2.7,2.7,6.5,4.3,11.4,6.5,13.5,2.7,7.6,8.1,9.7,10.8,2.2,14.6,5.5,7.5,9.1,11.9,12.4a21.4,21.4,0,0,0,9.1,3.8l3.8-10.3,2.7,9.2,2.2-2.7,1.7,3.8s3.5,1.1,4.7,0,3.3-1.1,3.9-.6,5,.5,5.5,1.1,2.2.4,3.7,0,5.9,1.1,5.9,1.1l2.2-7,2.6,7s-2.5-1.1-1.5-.5a18.6,18.6,0,0,1,3.7,2.7c.6.5,2.2,3.7,3.3,5.9s1.6,10.3,1.1,11.9,3.2,7,4.8,8.1l1.6-2.2,1.1,3.3,1.1-1.1.8,4.6a3.5,3.5,0,0,0,1.6,1.1c1.1.3,10.5-1.7,11.1-1.7a28.9,28.9,0,0,0,12.2-1.6s17.5,7,20.8,5c0,0,3.1,3,4.7,2.5s4.8-3.8,4.8-1.7,5.3,4.9,5.3,4.9H526c1.5,0,3.5-1.6,6.3,0l6.8,4a16.5,16.5,0,0,0,3,2.2,17.9,17.9,0,0,1,5.8,2.1c2.3,1.4,4.2,3.3,4.3,4.5a10.3,10.3,0,0,0,1.9,4.6c.9,1,6.7,1.7,8.4,1.1s3,1.6,2.9-1.1,4.6-3.5,4.6-3.5a12.3,12.3,0,0,1-.5,2.8,3.5,3.5,0,0,0-.2,2.8c.3,1.1,5.7,1.9,7.1,2.3a21.6,21.6,0,0,0,4,.5l4.8-4.8v3.6l1.1-1.1v3.8l4.3,1.1s3.2.5,3.8,1.1.5,1,1.1,1h1.6c1.1,0,1.6-.5,3.2,0s2.2.6,3.3,1.7,2.7,1.6,3.2,2.1,4.3,1.1,4.3.6,2.7-1.7,3.3-1.7,3.8.6,4.3,1.1l1.6,1.6,1.7-4.8.5,5.9,1.1-1.6.5,2.2,2.7-3.3v3.3s1.1,1.6,2.2,1a3.2,3.2,0,0,1,3,0l1.4,1.2c.4.5,1,.5,1.5,1a6.4,6.4,0,0,0,3.4,1.3c.9-.2,1.7.8,2.7,1.4s2.8,1.6,4,1.3a2.3,2.3,0,0,1,2.4,1.5c0,.5.5.1,2.1.8a21.9,21.9,0,0,0,4.2,1.1,15.2,15.2,0,0,1,2.8.9c.6.4.9.1,1.3,1.3a2,2,0,0,0,2.3,1.5c.8-.3,3.3.3,3.3.3s2.1,0,2,.5.3.7,1.1,1.4-.2-.8,2.2,1.1,2.6,1.2,2.8,2.1.8,1.3.5,3-2.4,1.2.5,2.2,7.2,1.9,7.2,1.9a21.2,21.2,0,0,1,3.7.9c.7.4,3.6,1.3,4.9,1.9s5,1.7,5.3,1.4,6.9-1,7.6-.3,1.3.7,1.8,1.7,1.7,2.7,3,2.7,4.8-.5,5.2,0a18.5,18.5,0,0,0,3.1,1.6,8.7,8.7,0,0,1,1.7,1.1c.5.5,5.7,1.6,5.7,1.6a5.3,5.3,0,0,0,1.3,2.3,15,15,0,0,0,3.8,2.4c.6.2,3.8-.2,4.6.5s4.6,1.7,5.4,1.8,4.6.4,6.2-.9,3.5-2.7,5-2.8,3.1,2,4,1.8,2.5-4.7,3.2-5.4,5.7-1.8,7.6-3.2,1-3,2.3-1.9,5.9,3.1,4.6,5.1-4.1,3.8-4.1,4.5,2.3,1.2,2.3,2.3.9,1.7,2.1,3.8,1.1,1.6,2.8,3.8,3.7,2.1,3.7,3.2-1,0,1.1,1.9,8.1,7.9,8.1,7.9c4.4,2.7,5.9,3,5.9,4.2s.6-.6-.2,3.5,1.9,8.2,4.1,10,4.8,2.8,4.5,3.9.3,8.1-.2,8.6.2,2.2.2,2.2V800"/><path class="b" d="M550.1,197.2l-2.3-.7.8-.4,1.7.2-1.9-3.5.7-.3,3.9,2.6h2.7s3.9-.8,3.9-1.1-3.1-1.6-3.1-1.6l-1.2-1.5h.4l1.6,1.1,4.2,1.2,9.2-2.7s3.1-.8,3.9-.4,1.5,0,1.5.4-1.1,1.5-2.3,1.9l-6.9,1.9s.4,0,.4,1.2l-2.5.6h-.4l-.4-.4-3.1.8a29.3,29.3,0,0,1-6.5,1.1h-4l-.3-.4"/><path class="c" d="M564.7,195.7s-.8,1.2-5.8,2.3-93.2,31.2-106.6,35.8S388,260.4,388,260.4l-6.6-14.2s55.8-11.6,68.9-15.1S557,198,557.8,197.6a48.4,48.4,0,0,1,7.7-1.7S565.5,195.4,564.7,195.7Z"/><path class="d" d="M562.7,195.4s-.7,1.2-5.7,2.4-93.2,31.1-106.7,35.8S386,260.1,386,260.1l-6.6-14.2s55.9-11.6,69-15S555,197.8,555.8,197.4a38.3,38.3,0,0,1,7.7-1.8S564.4,194.9,562.7,195.4Z"/><path class="e" d="M443.6,489s1.6,7.4,3.2,8.2.9,13.1.9,13.1-1.7-4.1-2.5-4.9.8-7.3-.8-8.2-.8-8.2-.8-8.2"/><polygon class="e" points="382.9 476.6 380.2 469 381.8 475.5 382.9 476.6"/><polygon class="e" points="377.4 469.6 378.5 472.3 378 471.7 377.4 469.6"/><polygon class="e" points="373.7 467.4 375.4 472.3 374.7 471.7 373.7 467.4"/><path class="e" d="M351.5,438.8s-3.2-2-3.8-2.5-2.1,1.4-2.1,1.4.5,0,.5,1.1.5,5.9,3.2,8.6a8.1,8.1,0,0,1-.5-4.1s1.1.9,2.2,2S348.3,441.5,351.5,438.8Z"/><polygon class="e" points="416.5 483.6 419.1 489.8 417.4 488 416.5 483.6"/><polygon class="e" points="411 481.8 412.7 487.1 411 485.1 411 481.8"/><path class="e" d="M308.8,423.1a1.6,1.6,0,0,1-1.6,1.6s1.1,0,2.7,2.2A7.3,7.3,0,0,1,308.8,423.1Z"/><polygon class="e" points="253.7 399.8 255.3 405.8 254.2 404.2 253.7 399.8"/><path class="e" d="M186.7,396.5c1.1,0,8.1-1.6,8.1-1.6a33.1,33.1,0,0,1,3.9.7,2.5,2.5,0,0,1,1,.4c.5.5,4.9,9.2,5.4,9.2s4.9,2.2,4.9,2.7,3.2,3.2,3.2,4.9,1.6,4.3,1.6,4.3l7,3.2s4.4,4.9,5.5,6,4.8,2.7,5.9,4.3,2.2,3.8,5.4,4.3,4.3.6,4.9,1.1a52.6,52.6,0,0,0,4.8,2.7s-5.8,1.6-6.1,1.1-2-2.2-3.6-2.2-2.7-.5-3.8-.5A16,16,0,0,1,230,436c-1.1-.5,0,0-2.7-2.7a26.8,26.8,0,0,0-3.8-3.2l-3.3-3.3c-1.1-1.1-2.7-3.2-3.2-3.8a8.5,8.5,0,0,0-3.3-2.1c-1.6-.6-3.7-1.6-4.8-1.6s-1.1-2.8-1.6-3.8a3.2,3.2,0,0,1,0-3.3c.5-1.1,1-.5-.6-2.1s-1.6-2.7-3.2-2.7-1.1,2.7-2.7-.6-1.7-3.8-2.2-4.3-2.7-2.2-2.7-3.2-3.8-3.3-5.4-2.8A7.4,7.4,0,0,1,186.7,396.5Z"/><polygon class="e" points="193.3 488.2 196.6 500.2 194.4 496.9 193.3 488.2"/><polyline class="e" points="173.5 497.9 172.9 493 174.7 499.7"/><polyline class="e" points="194.4 496.9 193.3 488.2 196.6 500.2"/><polyline class="e" points="182.3 494.6 181.7 489.8 183.5 496.5"/><polygon class="e" points="171.1 507.3 174.4 519.3 172.2 516 171.1 507.3"/><polyline class="e" points="151.3 517 150.7 512.2 152.5 518.8"/><polyline class="e" points="172.2 516 171.1 507.3 174.4 519.3"/><path class="e" d="M133.8,548.8s.5-.8,3.4.7,6,0,6,1.5,7.4,4.4,7.4,4.4,5.9,0,7.4,1.5,7.4,6,7.4,6,2.9,0,4.4,1.4,7.4,1.5,8.9,4.5a29.1,29.1,0,0,0,4.5,5.9s-7.4-4.4-8.9-4.4-7.4-1.5-11.9-4.5-7.4-7.4-8.9-7.4-2.9-1.5-5.9-1.5-5.9,1.5-7.4-1.5-1.5-2.9-3-4.4A10.6,10.6,0,0,0,133.8,548.8Z"/><path class="e" d="M193.2,510.7s11.1,2.1,9.5,3.6,1.6,3,3.1,3,15.1,3,16.6,3,3,6.1,3,6.1a21,21,0,0,1,7.6-4.5c4.5-1.6,3-3.7,12.8-3.4,0,0-6.8-1.2-11.3.3s-9.1-1.5-12.1-1.5-13.6,0-15.1-1.5-4.6-3.4-9.1-4.7Z"/><polygon class="e" points="103.6 312.3 106.7 323.3 104.6 320.3 103.6 312.3"/><polyline class="e" points="85.4 321.2 84.9 316.8 86.6 322.9"/><polyline class="e" points="104.6 320.3 103.6 312.3 106.7 323.3"/><polyline class="e" points="93.5 318.2 92.9 313.7 94.6 319.9"/><polygon class="e" points="83.2 329.8 86.2 340.9 84.2 337.8 83.2 329.8"/><polyline class="e" points="65 338.8 64.5 334.3 66.1 340.4"/><polyline class="e" points="84.2 337.8 83.2 329.8 86.2 340.9"/><path class="e" d="M43.2,493.7c.5.2,3.8-2.4,8.6-1.4a58.8,58.8,0,0,1,9.2,3.6c.5.5,5.4,9.2,5.4,10.3s2.2,3.8,5.4,6.5,7.6,5.9,10.3,8.6,14.6,13.5,14.6,13.5,1.1-1.1,8.6,3.3,10.3,3.7,14.6,10.2-2.1,6,8.1,12.5,17.3,8.1,18.4,9.7,6,1.6,6,1.6-16.8.6-18.4-.5-15.7-8.7-16.8-9.2-7-2.2-7.6-4.3a9.7,9.7,0,0,1,.6-4.9s-.6-3.2-2.2-4.3-1.6-3.3-3.8-4.4,0,0-4.8-1.6a33.9,33.9,0,0,1-8.1-3.8c-1.1-.5-4.9-2.1-6.5-2.1s.5-1.6-.6-2.7-7-3.3-8.1-4.3-2.7-1.7-4.8-5.5-1.7-3.2-4.9-4.8a40,40,0,0,0-5.9-2.7c-1.7-.6-2.7-1.1-3.3-3.3s-3.2-7-3.2-7-.6,1.6-.6-1.1-1.1-4.3-1.6-4.3,0,0-1.1-2.2S43.2,493.7,43.2,493.7Z"/><path class="e" d="M126.5,406.1l8.2-3.6,1.9,7.3-1.9,3.7,8.3.9v-4.7s-5.5-3.6-4.6-5.4.9-5.5,0-6.4S126.5,406.1,126.5,406.1Z"/><path class="e" d="M74.3,368l-1.8,3.7,5.5.9s-1.2-3.7-.6-4.6,3.4-1.8,3.4-1.8L78,362.5Z"/><path class="e" d="M30,372.7l5.5,1.9s2.1.9,2,1.8-.2.9,1.6,1.8,4.8,0,4.8,0-5.7,3.7-7.5,2.8-7.4-1.2-6.4-2.5a23.8,23.8,0,0,0,1.8-3Z"/><path class="f" d="M346.8,243.7s3.9,4.2,4.6,6.5a12.9,12.9,0,0,1,6.2-3.8,14.5,14.5,0,0,0-5.8,2.3A8.6,8.6,0,0,0,346.8,243.7Z"/><path class="f" d="M295.3,221s3.1,1.5,5-2.4c0,0,2.4,1.6,5.4,6.6,0,0-1.9-6.6-6.1-8.9C299.6,216.3,298.8,220.2,295.3,221Z"/><path class="f" d="M333.4,223.1s1.5-.4,5.4,4.2a10.8,10.8,0,0,0,4.2-5.4,14.8,14.8,0,0,1-3.5,3.1A5.7,5.7,0,0,0,333.4,223.1Z"/><path class="f" d="M283.2,185s2.3.4,6.6,6.2c0,0,4.6-3.5,7.3-3.5,0,0,.8-1.7-7,1.7C290.1,189.4,286.3,185,283.2,185Z"/><path class="f" d="M228.5,168.5s2.7,0,5,4.2c0,0,5.4-3.8,6.2-2.7s1.2-2.3-5.8.8C233.9,170.8,231.2,167,228.5,168.5Z"/><path class="f" d="M230.7,134.4a9,9,0,0,0,3.1-6.2,22.4,22.4,0,0,1,5.4,9.6s-3.1-5.7-4.7-6.5C234.5,131.3,233.4,134.4,230.7,134.4Z"/></svg>