<svg xmlns="http://www.w3.org/2000/svg" width="800" height="800" viewBox="0 0 800 800"><defs><style>.a{fill:#1976d2;}.b{fill:#0288d1;}.c{fill:none;stroke:#0288d1;stroke-miterlimit:10;stroke-width:0.5px;}</style></defs><path class="a" d="M800.4,370.8l-.7,5a6.7,6.7,0,0,0-2.1.9c-1.6.8-1.6,0-3.7,0h-7.5v-.9l-1.3-3.7-.8,1.7-.8-3.4-1.7,4.2-.4-.8-1.3,2.5-.8.4a5,5,0,0,1-2.5,0c-.9-.4-2.1-.4-2.1,0s-2.1,0-3.3,0-.5-.9-.5-.9l-1.2-3.7-.8,1.2-1.3-3.3s-1.2,6.3-1.2,6.7-.9,0-2.1.4-1.7,0-3.4.4-1.6,0-2.1-.4-.8-.4-2.5-.8-2,.4-4.1.8-3.4,5.4-4.2,6.2.8,3.4,1.3,5.5-1.7,3.7-1.1,5.6-.6,2.7-.2,3.5,0,3,0,4.6-.8.9-2.7,1.9-.2,2.7,0,4.6-3.6,4.4-4.7,6.9-2.6,2.9-2.6,2.9l-.8-3.3-.9,2.5a16.8,16.8,0,0,0-.8,2c-.4,1.3-1.3.5-3.3.5s-.5,0-1.7.8-.8-.4-.8-.4l-.9-5.9-1.6,6.4v2c0,.8-2.5,1.7-3,1.7a37.3,37.3,0,0,0-4.1,1.2c-1.3.4-3.4,0-5,0s-.9.8-2.5,1.7-1.7,0-3.8,0-2.1-.4-3.8.8-4.1.4-4.1.4l-1.7-1.6-1.2,2.5-1.3-2.1-1.2,2.5L695,428l-2.5,5-.7-.6-.5,1-1.3-5-1.2,6.2a11.1,11.1,0,0,1-3.2,2.1c-1.8.9-1.4,4.2-3.1,6.7s-7.5.8-9,.6-4.3,2.3-5.6,3.6-5.4,1.6-7,3.3-5.9-.4-8.2-2.3-6.9-1-9-1-5.4,1.6-6.6,2.5-5.5.4-8.4,0-1.6-.9-5.6.8-5.6.8-5.6.8l-3.7-.8c-.4,0-3.4-.4-4.7-.4h-2.5c-.8,0-3.7-.8-4.6-1.9s-.8-.6-2.5-1.4-2.9-1.7-2.9-2.5-2.1-2.1-2.9-3.6-4.2-1.9-4.5-2.4-2.2-2.4-2.2-2.8-2.9-1.7-3.2-1.9-2.6-1-3-1.6-3.4-1.9-3.4-2.3-1.6-1.3-3.2-1.2-1.7-1-1.7-1l-2.1-2.1-.8-2.4-.8,1.4-1-3.1-1.2,3.8s-.8.4-1.3,0-1.2-.4-4.1-1.7-1.3-1.3-1.7-2.1,0-2.5-.4-2.5l-2.9-1.7c-.9-.4-2.1.9-2.1,1.3s-2.1-1.7-2.1-1.7l-1.3.9-2-4.2-.9.8-.4-2.9-1.7,5.8-1.6-3.7-1.7,3.7-.8-2-1.3,2.5-1.7-5a39.9,39.9,0,0,1-1.6,5c-.4.4-1.3-.5-1.7-.9s-.8-.8-2.1-.4-1.6-.4-2.5-.4-.8-1.3-.8-1.3l-.8-3.3L527,415l-.5-6.6s-.8,5.4-1.6,6.6-.9-.4-1.7-1.2-3.3-1.3-3.3-1.7-.9-1.6-3.4-2.5,0-1.6-.8-2.5-1.7-.8-1.7-1.2-1.6-2.5-2-3.4-2.1-2.5-2.2-2.7.1-1.9-.4-2.7a10.2,10.2,0,0,0-2-2.1c-.5-.4-1.3,0-2.5-.4s-.9-.4-.9-1.7-2.1-.8-3.7-.8H499l-2.5-4.6-1.2,2.5-1.7-6.2-1.3,4.1s-.8.9-.8,0-.8,0-1.7,0-1.2,1.7-1.6,1.3-.9,0-2.1.4-1.3,1.3-1.3,1.3l-1.6-4.6-.9,2.9-.8-6.3-2.1,11.3-1.6-1.7-.5,3.4-1.2-6.3s-1.3,9.2-1.3,9.6a32.1,32.1,0,0,1-1.2,5.2c-.9,2.7-1.3.2-4.6,1.5s-2.1,2.5-2.9,2.9-1.7,2.5-2.1,3.7-.8,4.2-1.3,5a16.8,16.8,0,0,1-2.9,3l-2.5,2.9c-.4.4-2.1.4-2.5.4s-1.2,1.7-1.2,1.7l-2.1-9.2-1.3,9.6s0,1.2-.8.8-1.3.9-1.7.9-1.6,1.6-1.6,1.6,0,3.8-.5,4.2-1.6,2.1-2.5,3.3,0,2.1-1.2,3.8-2.1,1.7-2.9,2.5-.9,1.2-1.3,3.3-1.2,1.3-1.7,1.7-1.2,0-2,0-1.7.4-2.5.4-2.1,1.7-2.5,2.1-.5,2.1-.9,2.9-1.6.4-1.6.4-1.3-5-1.3-5.4-.8,5.8-.8,5.8-2.1.9-2.1,1.3-1.7,1.2-1.7,1.7a7.9,7.9,0,0,1-.8,2.9c-.4.4-.4,1.7-.4,1.9v1.4a11.3,11.3,0,0,1-1.3,1.6c-.4.4,0,1.3,0,1.8s-.8.4-2.1.8-1.6.8-3.7,2.1-1.3,1.2-2.9,2.9-1.3.4-2.5,0-1.7.4-3,1.2-1.6.5-1.6.5l-.5-4.6-1.6,3.3-.4-1.7-.9,1.3-.8-4.2s-1.7,6.7-1.5,6.5-6,1-7.7,1-2.1,2.5-3.7,4.2a27.4,27.4,0,0,1-5.5,3.8c-.8.4-2.5.4-5,.8s-2.9,1.7-5.8,3.3l-2.1,1.3-.8-2.5-.9,2.1-1.2-5.9-1.3,7.1-.8,2.5c-.4,1.3-3.7,1.3-4.2,1.3s-.8,1.6-1.1,3.1-2.2-.6-2.6-1.5-2.1,1.3-3.7,2.3-.5.7-.1,1.5-2.1,1.7-3.7,1.2-2.5,1.3-2.9,1.7-3,.8-4.8.8-1.9-.8-5.4-.4a15.5,15.5,0,0,0-6.1,2.1,18.5,18.5,0,0,1-2.9,1.7l-3.8.4a6.2,6.2,0,0,1-2.9-.8c-.4-.5-1.2,0-1.7,0a28.1,28.1,0,0,0-2.9.8l-1.7-5.4-1.2,2.5-1.3-7.1-3.3,7.1-.8-2.9-1.3,2-1.2-4.1s-1.3,5.8-1.5,6.4-1-1.6-1-1.6l-.9,2.7s-1.2,0-1.6-.4-2.1-.5-3.4-.5a4.7,4.7,0,0,0-2.1.5l-1.2-4.6-1.3,2.9-1.2-7.1-2.5,7.9s-1.7,1.3-3,.5-4.1-.9-6.6.7-16.1-3.9-16.1-3.9a21.6,21.6,0,0,1-8.8,1.3s-4.7,1.7-5.8,3.7.2.9-.4,2.5-2.5.6-2.5,1.7-2.3,2-5,2.5l-1.2-3.3-2.2,4.2c-2.3.5-4.1,1.1-4.1,2l-2.5,2.1s.5,1,0,1.5-1.8,1.1-1.7,1.7-2,1.8-2,1.8a6.4,6.4,0,0,1-1.7,1.7c-.8.4-.4,1.2-3.3,2.1s-2.1-.5-3.4,1.2-1.2,3.3-2.5,4.2-.4,1.2-2.1,2.1a17.4,17.4,0,0,1-4.7,1.6,28.6,28.6,0,0,0-4.6,1.7c-1.1.4-2.4.8-4.4,1.7a11.6,11.6,0,0,0-3.4,1.6c-.4.5,0,1.3-.8,1.3s-3.7,1.7-4.4,2.1-.2-.4-1.9,1.2-.4,2.5-2.5,3.4a28.2,28.2,0,0,1-4.1,1.6c-1.7.4-2.2.3-3,.6a2,2,0,0,1-1.6-.2l-.4-1.6-.5.4-.8-3.3-2.5,7-1.2-1.2-3,5.8-.4.9c-.4.8.9,1.6-.4,2.5s-1.7.8-2.1,1.6a8.3,8.3,0,0,0-.8,2.1c0,.4-.9,2.1-1.3,2.1s-.8.4-1.6,1.3l-1.7,1.6c-.8.9-.8,1.7-1.3,2.1s-.6.8-1.5.8-.5-.4-1.4.5a7.9,7.9,0,0,1-1.6,1.5,6,6,0,0,1-3.8,1.4c-1.2,0-1.2-.4-1.7-.4h-2.5a3,3,0,0,1-1.2,1.2c-.9.4-1.7,1.3-2.1,1.3s-2.1,1.6-2.1,1.6a1.1,1.1,0,0,0-.8.5,9.6,9.6,0,0,1-2.1,1.6,3.6,3.6,0,0,0-1.7,2.5c0,.9,1.7.3,0,1.6s-2.1.9-3.7,1.3-2.4,1.1-2.7,1.6-.7.5-.7.9.1.4-.8.9a13.3,13.3,0,0,0-2,1.4,6.9,6.9,0,0,0-1.3,1.1c-.5.4-.4,0-1.7,1.1s-2.1,1-3.8,1a17.8,17.8,0,0,0-5,0c-4.1.4-4.2-.2-5.8.7s-2.5.9-2.5,1.4,2.1,0,.4.4a17.5,17.5,0,0,0-3.3.8c-.9.4-3.4.4-3.8.8s-.8,0-2.5,1.3-.8,1.2-2.1,1.7-4.6,2-5.8,2.5-2.9,1.6-4.2,2-1.6,1.7-2.5,1.7-.4-.8-3.3.4-2.9,1.7-4.2,1.9.4-.2-2.1,1.1-1.2,1.2-3.3,2-1.7.9-2.1.9-3.7-.9-5.4,0,0,.4-1.7.8a25,25,0,0,0-2.5.8,4.3,4.3,0,0,1-2.5.5H50.9c-.4,0-.4-.9-2.9.4L45.5,620a3.5,3.5,0,0,1-1.7.4c-.4,0-4-3.9-4-3.9v3.6l-2.3-2.2-1.2,2.5s-7.9,3.3-10.4,3.7-3.5.5-4.9,1.4-2.2,2.2-3.9,2.7-5.7,2.3-7.2,2.7-3.3,1.5-7.9,3.3L0,800H800"/><rect class="a" x="781.1" y="369" width="10.1" height="9.26"/><circle class="a" cx="786.1" cy="368.9" r="5.1"/><path class="a" d="M781,365.6l1.9,1.3-.7.9-2-1.2a.4.4,0,0,1-.1-.6l.3-.3C780.5,365.5,780.8,365.5,781,365.6Z"/><path class="a" d="M789.8,373.9h1.6a2.4,2.4,0,0,1,2.4,2.4v.5a0,0,0,0,1,0,0h-4a0,0,0,0,1,0,0v-2.9A0,0,0,0,1,789.8,373.9Z"/><path class="b" d="M363.4,392a6.1,6.1,0,0,0-6.1-6.1,6.2,6.2,0,0,0-6.1,6.1c0,3.4,3.8,7.6,6.1,7.6S363.4,395.4,363.4,392Z"/><path class="b" d="M356.6,401.4h1.5a0,0,0,0,1,0,0v.9a.6.6,0,0,1-.6.6h-.3a.6.6,0,0,1-.6-.6v-.9A0,0,0,0,1,356.6,401.4Z"/><polyline class="c" points="355.7 398 356.7 401.8 358 401.8 358.7 398"/><path class="b" d="M334,530.5l1.5,1.5,1.7-.7s-.8-1.7-.3-2.7a9.3,9.3,0,0,1,1.5-2Z"/><path class="b" d="M396,501.5s1-2,1.5-2,.5-1,3-1.5l2.4-.5-4.1,2Z"/><path class="b" d="M299,541l1.5-1.5s1.9-1.5,2.4-1,2.8-.1,2.8-.1h-5Z"/><path class="b" d="M348.8,521.2s1.4,0,1.7-.5a4.2,4.2,0,0,1,2.2-1.5c.5,0-1.2,2-1.2,2Z"/><polygon class="b" points="477.8 413.8 479.3 408.9 478.6 412.9 477.8 413.8"/><polyline class="b" points="480.4 417.3 479.6 418.2 481.1 413.3"/><polyline class="b" points="490.2 407 489.5 407.9 491 402.9"/><path class="b" d="M562.3,453.2a22.1,22.1,0,0,0,1.9,3.5h1.7a12.2,12.2,0,0,1,4.3,1.5c.4.5.9,1.4,3.9,2.9s5.4,1,5.9,2a15.9,15.9,0,0,1,1.5,2.9c1,2.5,2.5,2.5,1,5.5s-1,4.4-.5,5.4,2.9,1,2.9,1.5a10.7,10.7,0,0,1,.5,2.9,2.9,2.9,0,0,0,2,3c1,.5,2,1.5,2.5,1.5s1.4-1,.5-1.5-1-2-2-3l-1.5-1.5c-.5-.4,3,2,0-.9l-3.4-3.5c-1.5-1.5-1-2.5-.5-2.5a1,1,0,0,0,1-.9,5.9,5.9,0,0,1,.4-1.5,1.9,1.9,0,0,1-.4-1c0-.5-.5-1,0-1s-1.5,0-1-1,0-.5.5-1.5.9-1.9,1.4-1.9-1.4-1-2.4-1h-2s-1-.5-1-1-1-1-1.5-1h-1.9c-.5,0-3-.5-3-1a4.2,4.2,0,0,0-.5-1.4s4.9-1,3-1a38.6,38.6,0,0,1-5-.5h-.4c-1,0-2,.5-2,0s0-1.5-1.5-1.5h-2.5s.5,0-.4-1Z"/><polygon class="b" points="543.2 443.2 544.7 438.3 543.9 442.3 543.2 443.2"/><polyline class="b" points="555.8 436.8 555.3 437.4 556.4 433.8"/><polyline class="b" points="550.6 439.9 549.9 440.7 551.4 435.8"/><path class="b" d="M445.3,453.2a26.6,26.6,0,0,1,5.1-1.7,1.5,1.5,0,0,0,1.1-.1h.4c1-.4,1.4-.9,1.9-.6s1.6,1.4.5,1.2a15.4,15.4,0,0,0-4.3,0Z"/><path class="b" d="M754.4,400.9v4.3c0,.8-.3,2.4-.3,3s.3,2.1.3,3.1a2.9,2.9,0,0,1-1.5,2.6c-1,.3-1.3.6-1,1.2s-.9,1.9-1.6,3.2-1.2,1.3-.6,1.3,1.6-2.3,2.5-2.9-.6.6,1.3-.9,2.8-1.6,2.8-1.6v2.1l1.6-1.2s-.3-1.2,1.3-.9,2.5.3,2.5,0a3.2,3.2,0,0,0-2.5-1.6,15.1,15.1,0,0,0-2.5-.3s-.1,1.3-.4-.3-1.2-1.6-.7-2.7,1.4-.8.4-3-1.6-1.3-1.2-2.9,1-1.5.8-2.5-1.5-1.6-1.5-1.9a4,4,0,0,0-.6-1.6C753.2,397.1,753.5,400,754.4,400.9Z"/><polygon class="b" points="641.5 491.8 642.4 488.7 641.9 491.3 641.5 491.8"/><polyline class="b" points="646.3 489.7 645.8 490.3 646.7 487.1"/><polygon class="b" points="699.7 449.2 700.6 446 700.2 448.6 699.7 449.2"/><polyline class="b" points="711.9 446.3 711.6 446.7 712.2 444.4"/><polyline class="b" points="709.9 448.6 709.4 449.2 710.3 446"/><polygon class="b" points="724.8 448.5 725.8 445.4 725.3 448 724.8 448.5"/><polyline class="b" points="728.8 447 728.5 447.4 729.1 445"/><polyline class="b" points="741.6 444.5 741.1 445 742.1 441.9"/><polyline class="b" points="723.5 448.2 723.2 448.6 723.8 446.3"/><path class="b" d="M665.1,476.1c-1.7.9,3.2.3,3.7-.4a11.2,11.2,0,0,0,1.1-2.5c.3-.6.9-2.2,1.3-2.2a2.7,2.7,0,0,0,1.5-.9c.7-.7,1.3-1.6,2.9-1.3a7.8,7.8,0,0,0,4.4-.9c.3-.4.6.8.6.8l1.3-1.2a44.3,44.3,0,0,0-4.7-.9c-1,0-1.6.9-2.3.9s-.6,1-1.5,1.3a4.9,4.9,0,0,0-2.2,1.3,4.4,4.4,0,0,0-1,1.5c-.3.7-1.6.7-1.9,1.3s0,1,0,1.3-.6.6-.9.6A11.4,11.4,0,0,0,665.1,476.1Z"/><polygon class="b" points="790.8 395 788.9 400.1 790.2 398.8 790.8 395"/><polyline class="b" points="790.5 402.6 790.1 403 790.8 400.7"/><polyline class="b" points="788.4 404.8 787.9 405.4 788.9 402.2"/><rect class="b" x="722.9" y="437.6" width="4.7" height="0.63"/><rect class="b" x="720.7" y="444" width="0.3" height="0.95"/><path class="b" d="M468.9,506.3l-.3.9-.9.6-.7,1.9s-.3,1-.6,1-1.6.9-1.6,1.6,0,1.9-.3,2.2a2.5,2.5,0,0,0-.9,1.6c0,.6.3.6.3.9a2.8,2.8,0,0,1-.3,1.3l-1,1.5c-.6,1,0,.7-.9,1.6a7.2,7.2,0,0,1-2.2,1.6,15.1,15.1,0,0,1-3.8.9c-1,0-1.3.4-1.9.4a30.6,30.6,0,0,0-3.8.6c-1.6.3-1.6-.3-2.6,1.3s-.6,1.9-1.2,2.5,0,.5-1.3,1.2-1.6,1-1.6.7.7-1.9,1-1.9,1.9-.6,1.9-1-1,0-.3-.9,1.5-1,1.5-1.6-.6-.6,0-.9a5.6,5.6,0,0,1,2.9-.7,5.6,5.6,0,0,0,2.2-.3,4.9,4.9,0,0,1,2.2-.3h2.5a1.6,1.6,0,0,0,1.3-.6c.3-.3,1,0,.6-.7s-.6-.9-.3-.9a4,4,0,0,0,2.2-.6c1-.7,1.3-.4,1.3-.7s-.3-.3,0-.9a3.2,3.2,0,0,0,.3-1.6c0-.6.3-.6.3-.9s-1.2-.4-.3-1l1.3-.9a1.9,1.9,0,0,0,.3-1s-1-.6-.3-1.3,1.9-.9,1.9-1.2a4.5,4.5,0,0,1,.6-1.3c.3-.6.6-.6.6-.9a3.3,3.3,0,0,1,.4-1.3c.3-.3,1.2,0,1.2-.3A1,1,0,0,1,468.9,506.3Z"/><path class="b" d="M567.5,518.3c.3.6,1.6,1.2,1.3,1.9s.6,1.9,1.2,2.2-.6,1.2-.3,2.2a12.6,12.6,0,0,1,.6,2.2c0,.3,2.9.9,3.2,1.6s.9,1.2.9,1.9-.6-.4-.9-1-.6-.3-1.3-.6a4.2,4.2,0,0,0-1.9-.6c-.6,0-1.2-1-1.2-1.6s.3-.7,0-1.6a4.7,4.7,0,0,1-.3-1.6c0-.3-1.6-1.9-1.6-1.2a8,8,0,0,1-.7,2.5,5.6,5.6,0,0,0-.3,1.6s-1.2-2.3-.9-2.3.9-.9,1.2-1.8-.3-1,.4-1.9A4.1,4.1,0,0,0,567.5,518.3Z"/></svg>