<svg xmlns="http://www.w3.org/2000/svg" width="800" height="800" viewBox="0 0 800 800"><defs><style>.a{fill:#01579b;}.b{fill:#90caf9;}</style></defs><path class="a" d="M800,800H0V586.1H5.4V575.6H8.7v-2.8h1.9v-9.1s-.5-7.1,4.7-7.1h10V542.8h2.4v10h1v2.9h4.2V544.3h1v11.4h6.2v-21h1.4v20.5h3.3v35.6h3.8L48.4,516H59.8v-1.7h2.3V516h3.5v-4.9h3.6l4.6,3.6V502.2h2.7V495h.9v7h1.4v22.1H77.6v4.5h1.2v4.9H77.7v6h9.2v6h1v1.3h-1V649.5H85.6v13.1s9.6-2.3,14.1,1.1c6.2,4.8,15.5,1.3,16.2-1.1V622.1s0-6.3,4.6-6.3h17.6a9.3,9.3,0,0,0,6.3-8.7V585.6l27.1,14v-14l103.1,49.2h3.6v-2.3s0-1.7,1.4-1.7a1.4,1.4,0,0,1,1.4,1.4V635h3.8v-2.8a1.4,1.4,0,0,1,1.5-1.4,1.4,1.4,0,0,1,1.4,1.4v3h6.2V573.4s-.3-27,22.5-29.4c0,0-1.9,23.3,23.7,29v25.4h5.3v2.2h3.1v-1.1H350v-.8h1.1V598h1.7V569.9l2.4-2.4h8.5v-1.4h12.4V555.2s.5-3.1,5-3.1,5.5,2.6,5.5,2.6v10.9H398v1.9h6.6l2.4,2.4v54.6h10v7.2h-6.7l-2.8,2.9V684h4.3v-1.9h3.3V684h2.7v-2h2.3V670.8h2.5V658.6h.6v12.2h1.3v-9.2h1v9.2h1.2V684h5.8l4.8-4.8v-48L459,619.1v17.5h3.6v7.2H471v-2h9V602h2.1v1.2h8.1V559.7h3v-2.1l5.6,2.1v-2.2l5.1,2.2v-2.2l4.9,2.2v-2.3l4.7,2.3h5.2V602h12.6v13.5h-1.2v28.6h9.1l2.3-4.8,2.4,4.8H556V607.8s.2-5.1,4.3-5.1h34.8a2.9,2.9,0,0,0,2.7-3.2V573.7c0-3.4,3.8-12.8,3.8-16.4,0,0-2.4,0-2.4-.4V523a2.1,2.1,0,0,0-2.1-2.1h0v-3.3l19.4-29.8c6.5-11.3,17.8-8.6,23.5-.3l20.8,30.1v2.7h0a2.4,2.4,0,0,0-2.4,2.4v33.7l-2.6.9h0a119.1,119.1,0,0,1,5.5,35.5v45.3h4.8v-6.9h3.7v6.9H674v-7.3h6.8a4.7,4.7,0,0,0-2.4,4.2v3.1h6.9V593.7h16v-3.6h-1.4v-9.7l4.2-4.8,4.7,4.8v9.7h-1.3v3.6h8.4v-5.9h4.3l3.9,4.6a4.6,4.6,0,0,1,1.1,3v46.8s10.5,0,10.5,18.7l2.2,9c1.1,4.6,5.2,26.7,9.9,26.7h2.1c3.9,0,7.4-21.6,8.3-25.5l2.2-9.2V642.2l8.4-7.4v-2.1h2.6l7.1-6.3V624h2.6l7.1-6.1.2-102.1h4.1V512h4.7v-3.8H800Z"/><rect class="b" x="192" y="621.3" width="7.1" height="7.6"/><rect class="b" x="206.7" y="621.3" width="7.1" height="7.6"/><rect class="b" x="307.5" y="576.6" width="7.1" height="7.6"/><rect class="b" x="374.5" y="702.1" width="7.1" height="7.6"/><rect class="b" x="236.2" y="635.1" width="7.1" height="7.6"/><rect class="b" x="148.7" y="643.6" width="7.1" height="7.6"/><rect class="b" x="163.5" y="643.6" width="7.1" height="7.6"/><rect class="b" x="510.9" y="633.2" width="1.9" height="16.16"/><rect class="b" x="523.8" y="658.8" width="1.9" height="17.59"/><rect class="b" x="499.5" y="572.8" width="2.4" height="25.67"/><rect class="b" x="610.7" y="522" width="1.4" height="256.05"/><rect class="b" x="629.8" y="522" width="1.4" height="239.05"/><rect class="b" x="647.3" y="522" width="1.4" height="256.05"/><rect class="b" x="19.5" y="627.9" width="2.4" height="18.54"/><rect class="b" x="38.9" y="585.2" width="1.9" height="16.16"/><rect class="b" x="58.9" y="612.7" width="1.9" height="17.59"/><rect class="b" x="69.4" y="572.3" width="2.4" height="25.67"/><rect class="b" x="452" y="635.1" width="1.9" height="16.16" transform="translate(905.9 1286.3) rotate(-180)"/><rect class="b" x="442" y="660.7" width="1.9" height="17.59" transform="translate(885.9 1339.1) rotate(-180)"/><rect class="b" x="485.3" y="612.3" width="2.4" height="25.67"/><rect class="b" x="376.4" y="607" width="7.1" height="7.6"/><rect class="b" x="391.2" y="607" width="7.1" height="7.6"/><rect class="b" x="331.3" y="658.8" width="7.1" height="7.6"/><rect class="b" x="346" y="658.8" width="7.1" height="7.6"/><rect class="b" x="698.7" y="715.9" width="101.3" height="1.9"/><rect class="b" x="461" y="792.7" width="6.2" height="3.8"/><rect class="b" x="469.6" y="792.7" width="6.2" height="3.8"/><rect class="b" x="478.6" y="792.7" width="6.2" height="3.8"/><rect class="b" x="487.2" y="792.7" width="6.2" height="3.8"/><rect class="b" x="495.7" y="792.7" width="6.2" height="3.8"/><rect class="b" x="504.3" y="792.7" width="6.2" height="3.8"/><rect class="b" x="512.8" y="792.7" width="6.2" height="3.8"/><rect class="b" x="521.4" y="792.7" width="6.2" height="3.8"/><rect class="b" x="529.9" y="792.7" width="6.2" height="3.8"/><rect class="b" x="538.5" y="792.7" width="6.2" height="3.8"/><path class="b" d="M550.9,792.7h2.4a3.8,3.8,0,0,1,3.8,3.8v0a0,0,0,0,1,0,0h-6.2a0,0,0,0,1,0,0v-3.8A0,0,0,0,1,550.9,792.7Z"/><rect class="b" x="352.2" y="792.7" width="6.2" height="3.8"/><rect class="b" x="360.7" y="792.7" width="6.2" height="3.8"/><rect class="b" x="369.8" y="792.7" width="6.2" height="3.8"/><rect class="b" x="378.3" y="792.7" width="6.2" height="3.8"/><rect class="b" x="386.9" y="792.7" width="6.2" height="3.8"/><rect class="b" x="395.4" y="792.7" width="6.2" height="3.8"/><rect class="b" x="404" y="792.7" width="6.2" height="3.8"/><rect class="b" x="412.5" y="792.7" width="6.2" height="3.8"/><rect class="b" x="421.1" y="792.7" width="6.2" height="3.8"/><rect class="b" x="429.6" y="792.7" width="6.2" height="3.8"/><rect class="b" x="438.7" y="792.7" width="6.2" height="3.8"/><rect class="b" x="244.3" y="792.7" width="6.2" height="3.8"/><rect class="b" x="252.8" y="792.7" width="6.2" height="3.8"/><rect class="b" x="261.9" y="792.7" width="6.2" height="3.8"/><rect class="b" x="270.4" y="792.7" width="6.2" height="3.8"/><rect class="b" x="279" y="792.7" width="6.2" height="3.8"/><rect class="b" x="287.5" y="792.7" width="6.2" height="3.8"/><rect class="b" x="296.1" y="792.7" width="6.2" height="3.8"/><rect class="b" x="304.6" y="792.7" width="6.2" height="3.8"/><rect class="b" x="313.2" y="792.7" width="6.2" height="3.8"/><rect class="b" x="321.8" y="792.7" width="6.2" height="3.8"/><rect class="b" x="330.8" y="792.7" width="6.2" height="3.8"/><rect class="b" x="135.4" y="792.7" width="6.2" height="3.8"/><rect class="b" x="144" y="792.7" width="6.2" height="3.8"/><rect class="b" x="153" y="792.7" width="6.2" height="3.8"/><rect class="b" x="161.6" y="792.7" width="6.2" height="3.8"/><rect class="b" x="170.1" y="792.7" width="6.2" height="3.8"/><rect class="b" x="178.7" y="792.7" width="6.2" height="3.8"/><rect class="b" x="187.2" y="792.7" width="6.2" height="3.8"/><rect class="b" x="195.8" y="792.7" width="6.2" height="3.8"/><rect class="b" x="204.4" y="792.7" width="6.2" height="3.8"/><rect class="b" x="212.9" y="792.7" width="6.2" height="3.8"/><rect class="b" x="221.9" y="792.7" width="6.2" height="3.8"/><rect class="b" x="262.8" y="677.4" width="7.1" height="7.6"/><rect class="b" x="277.6" y="677.4" width="7.1" height="7.6"/><rect class="b" x="219.6" y="699.7" width="7.1" height="7.6"/><rect class="b" x="219.1" y="688.8" width="7.1" height="7.6"/><rect class="b" x="38.9" y="678.8" width="1.9" height="16.16"/><rect class="b" x="58.9" y="706.4" width="1.9" height="17.59"/><rect class="b" x="573.2" y="679.3" width="1.9" height="16.16" transform="translate(1148.3 1374.7) rotate(-180)"/><rect class="b" x="557" y="678.3" width="1.9" height="17.59" transform="translate(1116 1374.2) rotate(-180)"/><rect class="b" x="561.8" y="652.8" width="1.9" height="16.16" transform="translate(1125.5 1321.8) rotate(-180)"/><rect class="b" x="585.1" y="611.8" width="1.9" height="16.16" transform="translate(1172.1 1239.7) rotate(-180)"/><rect class="b" x="593.6" y="610.8" width="1.9" height="16.16" transform="translate(1189.2 1237.8) rotate(-180)"/><rect class="b" x="698.7" y="726.3" width="101.3" height="1.9"/><rect class="b" x="698.7" y="738.7" width="101.3" height="1.9"/><rect class="b" x="124.7" y="692.9" width="7.1" height="7.6"/><rect class="b" x="152.5" y="706.8" width="7.1" height="7.6"/><rect class="b" x="208.2" y="688.8" width="7.1" height="7.6"/><rect class="b" x="199.2" y="657.7" width="7.1" height="7.6"/><rect class="b" x="316.5" y="647.4" width="7.1" height="7.6"/><rect class="b" x="386.4" y="702.1" width="7.1" height="7.6"/><path class="b" d="M125.9,792.7h2.4a0,0,0,0,1,0,0v3.8a0,0,0,0,1,0,0h-6.2a0,0,0,0,1,0,0v0A3.8,3.8,0,0,1,125.9,792.7Z"/><rect class="b" x="696.9" y="607.2" width="5.8" height="6.2"/><rect class="b" x="708.2" y="607.2" width="5.8" height="6.2"/><rect class="b" x="708.2" y="624.3" width="5.8" height="6.2"/><rect class="b" x="696.9" y="642.1" width="5.8" height="6.2"/><rect class="b" x="695" y="659.6" width="5.8" height="6.2"/><rect class="b" x="264.3" y="737.5" width="7.1" height="7.6" transform="translate(535.6 1482.7) rotate(-180)"/><rect class="b" x="249.5" y="737.5" width="7.1" height="7.6" transform="translate(506.2 1482.7) rotate(-180)"/><rect class="b" x="138" y="748.3" width="7.1" height="7.6" transform="translate(283.2 1504.2) rotate(-180)"/><rect class="b" x="307.5" y="759.9" width="7.1" height="7.6" transform="translate(622.1 1527.3) rotate(-180)"/><rect class="b" x="292.8" y="759.9" width="7.1" height="7.6" transform="translate(592.7 1527.3) rotate(-180)"/><rect class="b" x="387.4" y="759.6" width="7.1" height="7.6" transform="translate(782 1526.8) rotate(-180)"/><rect class="b" x="372.7" y="759.6" width="7.1" height="7.6" transform="translate(752.5 1526.8) rotate(-180)"/><rect class="b" x="115.7" y="759" width="7.1" height="7.6" transform="translate(238.5 1525.5) rotate(-180)"/><rect class="b" x="116.2" y="748" width="7.1" height="7.6" transform="translate(239.4 1503.7) rotate(-180)"/><rect class="b" x="210.5" y="752.1" width="7.1" height="7.6" transform="translate(428.1 1511.9) rotate(-180)"/><rect class="b" x="182.7" y="766.1" width="7.1" height="7.6" transform="translate(372.5 1539.8) rotate(-180)"/><rect class="b" x="127.1" y="748" width="7.1" height="7.6" transform="translate(261.3 1503.7) rotate(-180)"/><rect class="b" x="699.1" y="762.9" width="101.3" height="1.9"/><rect class="b" x="699.1" y="773.3" width="101.3" height="1.9"/><rect class="b" x="466.7" y="721.3" width="2.4" height="18.54"/><rect class="b" x="486.1" y="678.5" width="1.9" height="16.16"/><rect class="b" x="506.1" y="706.1" width="1.9" height="17.59"/></svg>