<svg xmlns="http://www.w3.org/2000/svg" width="800" height="800" viewBox="0 0 800 800"><defs><style>.a{fill:#13181c;}.b{fill:#01579b;}</style></defs><polyline class="a" points="0 800 0 728 67.6 727.9 67.6 763.4 111.2 763.4 111.2 768.7 198.6 768.7 198.6 731.9 317 731.9 317 779.9 383.3 779.9 383.3 714.9 443.2 714.9 443.2 777.1 449.7 777.1 466 777 466.1 657.8 533.6 657.8 545 658 544.9 702 572 702 571.2 765 580.8 765 581 751.1 668.7 751.1 668.7 771.5 686.7 771.5 686.7 734.7 723 734.7 723 770.3 800 770 800 800"/><path class="b" d="M257.5,743.5l26.8-.2s7.6-.4,6.8,6-3.2,18-3.2,18a7.3,7.3,0,0,1-6.4,4.5c-4.8.3-22.4.1-22.4.1"/><path class="b" d="M259.9,743.5H234.7s-7.6-.4-6.8,6,3.2,18,3.2,18a7.3,7.3,0,0,0,6.4,4.5c4.8.3,38.8-.1,38.8-.1"/><rect class="b" x="392.2" y="724.4" width="43.2" height="6.79"/><rect class="b" x="392.2" y="753.9" width="43.2" height="6.79"/><rect class="b" x="481.2" y="680.2" width="48.8" height="29.58"/><rect class="b" x="494" y="673" width="23.6" height="7.59"/><rect class="b" x="496.8" y="669" width="18" height="4.4"/><path class="b" d="M0,748c.2,0-.2,1.9,0,2l2.6,1.8.6.2h40l8.1-3.5h4.8a.9.9,0,0,0,1-.8V736.8a1.1,1.1,0,0,0-1.2-1.1H0Z"/><rect class="b" x="690.9" y="760.7" width="43.2" height="6.79" transform="translate(1476.6 51.7) rotate(90)"/><rect class="b" x="539.3" y="724.9" width="36.4" height="5.84" rx="1.9" transform="translate(1285.3 170.3) rotate(90)"/><rect class="b" x="588.8" y="758.1" width="72.2" height="3.84" rx="1.9" transform="translate(1249.8 1520) rotate(-180)"/></svg>