<svg xmlns="http://www.w3.org/2000/svg" width="800" height="800" viewBox="0 0 800 800"><defs><style>.a{fill:#0288d1;}.b{fill:none;stroke:#0288d1;stroke-miterlimit:10;stroke-width:0.5px;}</style></defs><path class="a" d="M363.4,392.4a6.1,6.1,0,0,0-6.1-6.1,6.2,6.2,0,0,0-6.1,6.1c0,3.4,3.8,7.6,6.1,7.6S363.4,395.8,363.4,392.4Z"/><path class="a" d="M356.6,401.8h1.5a0,0,0,0,1,0,0v.9a.6.6,0,0,1-.6.6h-.3a.6.6,0,0,1-.6-.6v-.9a0,0,0,0,1,0,0Z"/><polyline class="b" points="355.7 398.4 356.7 402.2 358 402.2 358.7 398.4"/></svg>