<svg xmlns="http://www.w3.org/2000/svg" width="800" height="800" viewBox="0 0 800 800"><defs><style>.a{fill:#1565c0;}.b{fill:none;stroke:#1565c0;stroke-miterlimit:10;stroke-width:0.5px;}</style></defs><path class="a" d="M427.3,361a11.3,11.3,0,0,0-22.6,0c0,6.3,7,14.2,11.3,14.2S427.3,367.3,427.3,361Z"/><path class="a" d="M414.6,378.5h2.8a0,0,0,0,1,0,0v2.2a.6.6,0,0,1-.6.6h-1.6a.6.6,0,0,1-.6-.6v-2.2A0,0,0,0,1,414.6,378.5Z"/><polyline class="b" points="412.9 372.1 414.8 379.2 417.2 379.2 418.6 372.1"/></svg>