<svg xmlns="http://www.w3.org/2000/svg" xmlns:xlink="http://www.w3.org/1999/xlink" width="800" height="800" viewBox="0 0 800 800"><defs><style>.a{fill:#42a5f5;}.b,.c{opacity:0.5;}.b{fill:url(#a);}.c{fill:url(#b);}</style><linearGradient id="a" x1="381.86" y1="228.26" x2="566.23" y2="228.26" gradientUnits="userSpaceOnUse"><stop offset="0.28" stop-color="#fff" stop-opacity="0"/><stop offset="0.46" stop-color="#fff" stop-opacity="0.01"/><stop offset="0.58" stop-color="#fff" stop-opacity="0.05"/><stop offset="0.69" stop-color="#fff" stop-opacity="0.11"/><stop offset="0.79" stop-color="#fff" stop-opacity="0.19"/><stop offset="0.88" stop-color="#fff" stop-opacity="0.31"/><stop offset="0.97" stop-color="#fff" stop-opacity="0.44"/><stop offset="1" stop-color="#fff" stop-opacity="0.5"/></linearGradient><linearGradient id="b" x1="379.88" y1="227.93" x2="564.51" y2="227.93" gradientUnits="userSpaceOnUse"><stop offset="0.49" stop-color="#fff" stop-opacity="0"/><stop offset="0.62" stop-color="#fff" stop-opacity="0.01"/><stop offset="0.7" stop-color="#fff" stop-opacity="0.05"/><stop offset="0.78" stop-color="#fff" stop-opacity="0.11"/><stop offset="0.85" stop-color="#fff" stop-opacity="0.19"/><stop offset="0.92" stop-color="#fff" stop-opacity="0.31"/><stop offset="0.98" stop-color="#fff" stop-opacity="0.44"/><stop offset="1" stop-color="#fff" stop-opacity="0.5"/></linearGradient></defs><path class="a" d="M549.7,197.5l-2.3-.8.8-.4,1.7.2L548,193l.6-.3,4,2.7h2.7s3.8-.8,3.8-1.2-3.1-1.5-3.1-1.5l-1.1-1.6h.4l1.5,1.2,4.3,1.1,9.2-2.7s3.1-.7,3.8-.4,1.6,0,1.6.4-1.2,1.6-2.3,2l-7,1.9s.4,0,.4,1.1l-2.5.6h-.4l-.3-.4-3.1.8a28.4,28.4,0,0,1-6.6,1.2H550l-.3-.4"/><path class="b" d="M564.3,196s-.8,1.1-5.8,2.3-93.2,31.2-106.7,35.8-64.3,26.5-64.3,26.5L381,246.4s55.8-11.6,68.9-15,106.7-33.1,107.4-33.5a38.3,38.3,0,0,1,7.7-1.8S565.1,195.7,564.3,196Z"/><path class="c" d="M562.3,195.7s-.8,1.1-5.8,2.3-93.2,31.2-106.7,35.8-64.3,26.6-64.3,26.6L379,246.1s55.8-11.5,68.9-15S554.6,198,555.4,197.6a30.8,30.8,0,0,1,7.7-1.7S564,195.1,562.3,195.7Z"/></svg>